%TF.GenerationSoftware,KiCad,Pcbnew,7.0.2-6a45011f42~172~ubuntu22.04.1*%
%TF.CreationDate,2023-05-03T10:24:55-07:00*%
%TF.ProjectId,hackathon-2022,6861636b-6174-4686-9f6e-2d323032322e,rev?*%
%TF.SameCoordinates,Original*%
%TF.FileFunction,Paste,Top*%
%TF.FilePolarity,Positive*%
%FSLAX46Y46*%
G04 Gerber Fmt 4.6, Leading zero omitted, Abs format (unit mm)*
G04 Created by KiCad (PCBNEW 7.0.2-6a45011f42~172~ubuntu22.04.1) date 2023-05-03 10:24:55*
%MOMM*%
%LPD*%
G01*
G04 APERTURE LIST*
G04 Aperture macros list*
%AMRotRect*
0 Rectangle, with rotation*
0 The origin of the aperture is its center*
0 $1 length*
0 $2 width*
0 $3 Rotation angle, in degrees counterclockwise*
0 Add horizontal line*
21,1,$1,$2,0,0,$3*%
G04 Aperture macros list end*
%ADD10C,0.050000*%
%ADD11R,0.700000X1.250000*%
%ADD12R,0.600000X0.380278*%
%ADD13RotRect,0.800000X0.800000X315.000000*%
%ADD14R,0.600000X0.367778*%
%ADD15R,0.200000X0.900000*%
%ADD16R,0.900000X0.200000*%
%ADD17R,2.450013X2.450013*%
%ADD18R,0.380278X0.600000*%
%ADD19R,1.070000X0.600000*%
%ADD20RotRect,0.660000X0.700000X135.000000*%
%ADD21R,0.320000X0.700000*%
%ADD22R,0.455278X0.600000*%
%ADD23R,1.250000X0.700000*%
%ADD24R,5.500000X1.300000*%
%ADD25R,0.600000X0.417778*%
%ADD26R,0.700000X1.050000*%
%ADD27R,1.100000X0.200000*%
%ADD28R,0.200000X1.100000*%
%ADD29R,3.100000X3.100000*%
%ADD30R,1.000000X1.100000*%
%ADD31R,0.500000X0.650000*%
%ADD32R,0.550000X0.550000*%
%ADD33R,0.600000X0.455278*%
%ADD34R,0.900000X1.800000*%
%ADD35R,1.100000X0.930000*%
%ADD36R,0.457778X0.600000*%
%ADD37R,0.417778X0.600000*%
%ADD38R,0.680000X0.250000*%
%ADD39R,0.600000X0.372778*%
%ADD40R,0.512132X0.950000*%
%ADD41R,0.367778X0.600000*%
%ADD42R,0.372778X0.600000*%
%ADD43O,0.630000X1.865000*%
%ADD44R,1.000000X0.700000*%
%ADD45O,2.250000X0.630000*%
%ADD46O,1.000000X1.600000*%
%ADD47O,1.000000X1.800000*%
%ADD48R,0.900000X1.700000*%
%ADD49R,0.800000X3.000000*%
%ADD50R,0.600000X0.457778*%
%ADD51R,1.000000X0.600000*%
G04 APERTURE END LIST*
%TO.C,U6*%
G36*
X90079376Y-100872260D02*
G01*
X89229439Y-100872260D01*
X89229439Y-100672260D01*
X89879401Y-100672260D01*
X90079376Y-100872260D01*
G37*
G36*
X89879401Y-104872209D02*
G01*
X89229439Y-104872209D01*
X89229439Y-104672209D01*
X90079376Y-104672209D01*
X89879401Y-104872209D01*
G37*
G36*
X90315469Y-100636344D02*
G01*
X90115469Y-100436369D01*
X90115469Y-99786408D01*
X90315469Y-99786408D01*
X90315469Y-100636344D01*
G37*
G36*
X90315469Y-105758138D02*
G01*
X90115469Y-105758138D01*
X90115469Y-105108176D01*
X90315469Y-104908201D01*
X90315469Y-105758138D01*
G37*
G36*
X94315419Y-105108151D02*
G01*
X94315419Y-105758112D01*
X94115419Y-105758112D01*
X94115419Y-104908176D01*
X94315419Y-105108151D01*
G37*
G36*
X94315444Y-100436217D02*
G01*
X94115444Y-100636192D01*
X94115444Y-99786255D01*
X94315444Y-99786255D01*
X94315444Y-100436217D01*
G37*
G36*
X95201296Y-100872285D02*
G01*
X94351360Y-100872285D01*
X94551335Y-100672285D01*
X95201296Y-100672285D01*
X95201296Y-100872285D01*
G37*
G36*
X95201449Y-104872260D02*
G01*
X94551487Y-104872260D01*
X94351512Y-104672260D01*
X95201449Y-104672260D01*
X95201449Y-104872260D01*
G37*
%TO.C,U1*%
G36*
X113290876Y-117659684D02*
G01*
X112625876Y-117659684D01*
X112625876Y-117379684D01*
X113290876Y-117379684D01*
X113290876Y-117659684D01*
G37*
G36*
X113290876Y-117159684D02*
G01*
X112625876Y-117159684D01*
X112625876Y-116879684D01*
X113290876Y-116879684D01*
X113290876Y-117159684D01*
G37*
G36*
X113290876Y-116659684D02*
G01*
X112625876Y-116659684D01*
X112625876Y-116379684D01*
X113290876Y-116379684D01*
X113290876Y-116659684D01*
G37*
G36*
X113290876Y-116159684D02*
G01*
X112625876Y-116159684D01*
X112625876Y-115879684D01*
X113290876Y-115879684D01*
X113290876Y-116159684D01*
G37*
G36*
X112440876Y-118509684D02*
G01*
X112160876Y-118509684D01*
X112160876Y-117844684D01*
X112440876Y-117844684D01*
X112440876Y-118509684D01*
G37*
G36*
X112440876Y-115694684D02*
G01*
X112160876Y-115694684D01*
X112160876Y-115029684D01*
X112440876Y-115029684D01*
X112440876Y-115694684D01*
G37*
G36*
X112222876Y-117441684D02*
G01*
X110878876Y-117441684D01*
X110878876Y-116097684D01*
X112222876Y-116097684D01*
X112222876Y-117441684D01*
G37*
G36*
X111940876Y-118509684D02*
G01*
X111660876Y-118509684D01*
X111660876Y-117844684D01*
X111940876Y-117844684D01*
X111940876Y-118509684D01*
G37*
G36*
X111940876Y-115694684D02*
G01*
X111660876Y-115694684D01*
X111660876Y-115029684D01*
X111940876Y-115029684D01*
X111940876Y-115694684D01*
G37*
G36*
X111440876Y-118509684D02*
G01*
X111160876Y-118509684D01*
X111160876Y-117844684D01*
X111440876Y-117844684D01*
X111440876Y-118509684D01*
G37*
G36*
X111440876Y-115694684D02*
G01*
X111160876Y-115694684D01*
X111160876Y-115029684D01*
X111440876Y-115029684D01*
X111440876Y-115694684D01*
G37*
G36*
X110940876Y-118509684D02*
G01*
X110660876Y-118509684D01*
X110660876Y-117844684D01*
X110940876Y-117844684D01*
X110940876Y-118509684D01*
G37*
G36*
X110940876Y-115694684D02*
G01*
X110660876Y-115694684D01*
X110660876Y-115029684D01*
X110940876Y-115029684D01*
X110940876Y-115694684D01*
G37*
G36*
X110475876Y-117659684D02*
G01*
X109810876Y-117659684D01*
X109810876Y-117379684D01*
X110475876Y-117379684D01*
X110475876Y-117659684D01*
G37*
G36*
X110475876Y-117159684D02*
G01*
X109810876Y-117159684D01*
X109810876Y-116879684D01*
X110475876Y-116879684D01*
X110475876Y-117159684D01*
G37*
G36*
X110475876Y-116659684D02*
G01*
X109810876Y-116659684D01*
X109810876Y-116379684D01*
X110475876Y-116379684D01*
X110475876Y-116659684D01*
G37*
G36*
X110475876Y-116159684D02*
G01*
X109810876Y-116159684D01*
X109810876Y-115879684D01*
X110475876Y-115879684D01*
X110475876Y-116159684D01*
G37*
D10*
%TO.C,USB1*%
X124225552Y-127864680D02*
G75*
G03*
X123225552Y-127864680I-500000J0D01*
G01*
X124225552Y-131704680D02*
G75*
G03*
X123225552Y-131704680I-500000J0D01*
G01*
X123225552Y-128464680D02*
G75*
G03*
X124225552Y-128464680I500000J0D01*
G01*
X123225552Y-132504680D02*
G75*
G03*
X124225552Y-132504680I500000J0D01*
G01*
X132875552Y-127864680D02*
G75*
G03*
X131875552Y-127864680I-500000J0D01*
G01*
X132875552Y-131704680D02*
G75*
G03*
X131875552Y-131704680I-500000J0D01*
G01*
X131875552Y-128464680D02*
G75*
G03*
X132875552Y-128464680I500000J0D01*
G01*
X131875552Y-132504680D02*
G75*
G03*
X132875552Y-132504680I500000J0D01*
G01*
G36*
X125020552Y-128342680D02*
G01*
X124520552Y-128342680D01*
X124520552Y-127042680D01*
X125020552Y-127042680D01*
X125020552Y-128342680D01*
G37*
G36*
X125575552Y-128342680D02*
G01*
X125225552Y-128342680D01*
X125225552Y-127042680D01*
X125575552Y-127042680D01*
X125575552Y-128342680D01*
G37*
G36*
X126290552Y-128342680D02*
G01*
X125790552Y-128342680D01*
X125790552Y-127042680D01*
X126290552Y-127042680D01*
X126290552Y-128342680D01*
G37*
G36*
X126850552Y-128342680D02*
G01*
X126500552Y-128342680D01*
X126500552Y-127042680D01*
X126850552Y-127042680D01*
X126850552Y-128342680D01*
G37*
G36*
X127400552Y-128342680D02*
G01*
X127050552Y-128342680D01*
X127050552Y-127042680D01*
X127400552Y-127042680D01*
X127400552Y-128342680D01*
G37*
G36*
X127950552Y-128342680D02*
G01*
X127600552Y-128342680D01*
X127600552Y-127042680D01*
X127950552Y-127042680D01*
X127950552Y-128342680D01*
G37*
G36*
X128500552Y-128342680D02*
G01*
X128150552Y-128342680D01*
X128150552Y-127042680D01*
X128500552Y-127042680D01*
X128500552Y-128342680D01*
G37*
G36*
X129050552Y-128342680D02*
G01*
X128700552Y-128342680D01*
X128700552Y-127042680D01*
X129050552Y-127042680D01*
X129050552Y-128342680D01*
G37*
G36*
X129600552Y-128342680D02*
G01*
X129250552Y-128342680D01*
X129250552Y-127042680D01*
X129600552Y-127042680D01*
X129600552Y-128342680D01*
G37*
G36*
X130310552Y-128342680D02*
G01*
X129810552Y-128342680D01*
X129810552Y-127042680D01*
X130310552Y-127042680D01*
X130310552Y-128342680D01*
G37*
G36*
X130875552Y-128342680D02*
G01*
X130525552Y-128342680D01*
X130525552Y-127042680D01*
X130875552Y-127042680D01*
X130875552Y-128342680D01*
G37*
G36*
X131580552Y-128342680D02*
G01*
X131080552Y-128342680D01*
X131080552Y-127042680D01*
X131580552Y-127042680D01*
X131580552Y-128342680D01*
G37*
%TD*%
D11*
%TO.C,Q2*%
X100205244Y-124853241D03*
X102105244Y-124853241D03*
X101155244Y-127352241D03*
%TD*%
D12*
%TO.C,R3*%
X122233407Y-130889308D03*
X122233407Y-129969586D03*
%TD*%
%TO.C,R7*%
X112810847Y-114387642D03*
X112810847Y-113467920D03*
%TD*%
D11*
%TO.C,Q4*%
X100440662Y-116039267D03*
X102340662Y-116039267D03*
X101390662Y-118538267D03*
%TD*%
D13*
%TO.C,LED19*%
X88278402Y-123608948D03*
X89481898Y-122405452D03*
%TD*%
D14*
%TO.C,R18*%
X171029726Y-103170146D03*
X171029726Y-104077368D03*
%TD*%
D15*
%TO.C,U6*%
X90615495Y-105308201D03*
X91015546Y-105308201D03*
X91415342Y-105308201D03*
X91815393Y-105308201D03*
X92215444Y-105308201D03*
X92615495Y-105308201D03*
X93015546Y-105308201D03*
X93415342Y-105308201D03*
X93815393Y-105308201D03*
D16*
X94751385Y-104372209D03*
X94751385Y-103972158D03*
X94751385Y-103572108D03*
X94751385Y-103172057D03*
X94751385Y-102772260D03*
X94751385Y-102372209D03*
X94751385Y-101972158D03*
X94751385Y-101572108D03*
X94751385Y-101172057D03*
D15*
X93815393Y-100236065D03*
X93415342Y-100236065D03*
X93015546Y-100236065D03*
X92615495Y-100236065D03*
X92215444Y-100236065D03*
X91815393Y-100236065D03*
X91415342Y-100236065D03*
X91015546Y-100236065D03*
X90615495Y-100236065D03*
D16*
X89679503Y-101172057D03*
X89679503Y-101572108D03*
X89679503Y-101972158D03*
X89679503Y-102372209D03*
X89679503Y-102772260D03*
X89679503Y-103172057D03*
X89679503Y-103572108D03*
X89679503Y-103972158D03*
X89679503Y-104372209D03*
D17*
X92215444Y-102772260D03*
%TD*%
D18*
%TO.C,R26*%
X160486382Y-129575635D03*
X161406104Y-129575635D03*
%TD*%
D19*
%TO.C,Q1*%
X167657952Y-100645161D03*
X167657952Y-102544161D03*
X170127952Y-101594161D03*
%TD*%
D20*
%TO.C,LED32*%
X93362853Y-92705488D03*
X92655746Y-93412595D03*
X93829543Y-94586392D03*
X94536650Y-93879286D03*
%TD*%
D21*
%TO.C,LED2*%
X173987828Y-106479456D03*
X173357828Y-106479456D03*
X172727828Y-106479456D03*
X172727828Y-108359456D03*
X173357828Y-108359456D03*
X173987828Y-108359456D03*
%TD*%
D13*
%TO.C,LED23*%
X95261340Y-115011920D03*
X96464836Y-113808424D03*
%TD*%
%TO.C,LED26*%
X95261340Y-111511920D03*
X96464836Y-110308424D03*
%TD*%
D22*
%TO.C,C7*%
X145746212Y-114051061D03*
X146740934Y-114051061D03*
%TD*%
D23*
%TO.C,Q7*%
X102653568Y-102297533D03*
X102653568Y-100398533D03*
X100653568Y-101348533D03*
%TD*%
D24*
%TO.C,X1*%
X135456573Y-101731061D03*
X126350573Y-101731061D03*
%TD*%
D25*
%TO.C,C1*%
X133931997Y-131762317D03*
X133931997Y-130805095D03*
%TD*%
D12*
%TO.C,R2*%
X133938221Y-126668413D03*
X133938221Y-127588135D03*
%TD*%
D13*
%TO.C,LED20*%
X95261340Y-118511920D03*
X96464836Y-117308424D03*
%TD*%
%TO.C,LED25*%
X88261340Y-115011920D03*
X89464836Y-113808424D03*
%TD*%
D18*
%TO.C,R19*%
X86562145Y-102689458D03*
X87481867Y-102689458D03*
%TD*%
D26*
%TO.C,SW4*%
X190321250Y-131707966D03*
X190321250Y-127507966D03*
X192470250Y-131707966D03*
X192470250Y-127507966D03*
%TD*%
D21*
%TO.C,LED7*%
X173987828Y-121479456D03*
X173357828Y-121479456D03*
X172727828Y-121479456D03*
X172727828Y-123359456D03*
X173357828Y-123359456D03*
X173987828Y-123359456D03*
%TD*%
D25*
%TO.C,C23*%
X164503060Y-129387682D03*
X164503060Y-128430460D03*
%TD*%
D12*
%TO.C,R13*%
X129703573Y-119570922D03*
X129703573Y-118651200D03*
%TD*%
D26*
%TO.C,SW5*%
X190321250Y-124207966D03*
X190321250Y-120007966D03*
X192470250Y-124207966D03*
X192470250Y-120007966D03*
%TD*%
D20*
%TO.C,LED36*%
X96862853Y-89205488D03*
X96155746Y-89912595D03*
X97329543Y-91086392D03*
X98036650Y-90379286D03*
%TD*%
D27*
%TO.C,U3*%
X133973738Y-115271137D03*
X133973738Y-114871086D03*
X133973738Y-114471036D03*
X133973738Y-114070985D03*
X133973738Y-113671188D03*
X133973738Y-113271137D03*
X133973738Y-112871086D03*
X133973738Y-112471036D03*
X133973738Y-112070985D03*
X133973738Y-111671188D03*
X133973738Y-111271137D03*
X133973738Y-110871086D03*
X133973738Y-110471036D03*
X133973738Y-110070985D03*
D28*
X133023522Y-109121023D03*
X132623725Y-109121023D03*
X132223675Y-109121023D03*
X131823624Y-109121023D03*
X131423573Y-109121023D03*
X131023522Y-109121023D03*
X130623725Y-109121023D03*
X130223675Y-109121023D03*
X129823624Y-109121023D03*
X129423573Y-109121023D03*
X129023522Y-109121023D03*
X128623725Y-109121023D03*
X128223675Y-109121023D03*
X127823624Y-109121023D03*
D27*
X126873408Y-110070985D03*
X126873408Y-110471036D03*
X126873408Y-110871086D03*
X126873408Y-111271137D03*
X126873408Y-111671188D03*
X126873408Y-112070985D03*
X126873408Y-112471036D03*
X126873408Y-112871086D03*
X126873408Y-113271137D03*
X126873408Y-113671188D03*
X126873408Y-114070985D03*
X126873408Y-114471036D03*
X126873408Y-114871086D03*
X126873408Y-115271137D03*
D28*
X127823624Y-116221099D03*
X128223675Y-116221099D03*
X128623725Y-116221099D03*
X129023522Y-116221099D03*
X129423573Y-116221099D03*
X129823624Y-116221099D03*
X130223675Y-116221099D03*
X130623725Y-116221099D03*
X131023522Y-116221099D03*
X131423573Y-116221099D03*
X131823624Y-116221099D03*
X132223675Y-116221099D03*
X132623725Y-116221099D03*
X133023522Y-116221099D03*
D29*
X130423573Y-112671188D03*
%TD*%
D30*
%TO.C,D11*%
X180908250Y-105371466D03*
X180908250Y-108841466D03*
%TD*%
D21*
%TO.C,LED6*%
X173987828Y-118479456D03*
X173357828Y-118479456D03*
X172727828Y-118479456D03*
X172727828Y-120359456D03*
X173357828Y-120359456D03*
X173987828Y-120359456D03*
%TD*%
D18*
%TO.C,R11*%
X113998695Y-115478618D03*
X114918417Y-115478618D03*
%TD*%
D20*
%TO.C,LED31*%
X89862853Y-85705488D03*
X89155746Y-86412595D03*
X90329543Y-87586392D03*
X91036650Y-86879286D03*
%TD*%
D31*
%TO.C,U8*%
X109212863Y-102620425D03*
X110012863Y-102620425D03*
X110812863Y-102620425D03*
X111612863Y-102620425D03*
X112412863Y-102620425D03*
D32*
X112412863Y-103495425D03*
D31*
X112412863Y-104371425D03*
X111612863Y-104371425D03*
X110812863Y-104371425D03*
X110012863Y-104371425D03*
X109212863Y-104371425D03*
D32*
X109212863Y-103495425D03*
%TD*%
D25*
%TO.C,C19*%
X129833573Y-107809672D03*
X129833573Y-106852450D03*
%TD*%
D18*
%TO.C,R23*%
X104696064Y-123330120D03*
X103776342Y-123330120D03*
%TD*%
D21*
%TO.C,LED4*%
X173987828Y-112479456D03*
X173357828Y-112479456D03*
X172727828Y-112479456D03*
X172727828Y-114359456D03*
X173357828Y-114359456D03*
X173987828Y-114359456D03*
%TD*%
D13*
%TO.C,LED24*%
X91761340Y-115011920D03*
X92964836Y-113808424D03*
%TD*%
D21*
%TO.C,LED10*%
X173987828Y-130479456D03*
X173357828Y-130479456D03*
X172727828Y-130479456D03*
X172727828Y-132359456D03*
X173357828Y-132359456D03*
X173987828Y-132359456D03*
%TD*%
D30*
%TO.C,D8*%
X180908250Y-127871466D03*
X180908250Y-131341466D03*
%TD*%
D18*
%TO.C,R5*%
X109095899Y-117336240D03*
X108176177Y-117336240D03*
%TD*%
%TO.C,R8*%
X109094234Y-116392923D03*
X108174512Y-116392923D03*
%TD*%
D20*
%TO.C,LED35*%
X96862853Y-92705488D03*
X96155746Y-93412595D03*
X97329543Y-94586392D03*
X98036650Y-93879286D03*
%TD*%
D12*
%TO.C,R1*%
X122226778Y-126599060D03*
X122226778Y-127518782D03*
%TD*%
%TO.C,R4*%
X108339169Y-119565500D03*
X108339169Y-120485222D03*
%TD*%
D25*
%TO.C,C9*%
X133933625Y-123725014D03*
X133933625Y-124682236D03*
%TD*%
D13*
%TO.C,LED18*%
X91778402Y-123608948D03*
X92981898Y-122405452D03*
%TD*%
D33*
%TO.C,C28*%
X107500182Y-103411495D03*
X107500182Y-102416773D03*
%TD*%
D34*
%TO.C,SW1*%
X105017152Y-130114060D03*
X108017152Y-130114060D03*
X109517152Y-130114060D03*
D35*
X111067152Y-131011060D03*
X111067152Y-133281060D03*
X103467152Y-133281060D03*
X103467152Y-131011060D03*
%TD*%
D25*
%TO.C,C8*%
X132870166Y-123727389D03*
X132870166Y-124684611D03*
%TD*%
D36*
%TO.C,C4*%
X117456710Y-124216213D03*
X116459488Y-124216213D03*
%TD*%
%TO.C,C3*%
X114951775Y-116423966D03*
X113954553Y-116423966D03*
%TD*%
D26*
%TO.C,SW2*%
X148072651Y-128724227D03*
X148072651Y-132924227D03*
X145923651Y-128724227D03*
X145923651Y-132924227D03*
%TD*%
D20*
%TO.C,LED30*%
X89862853Y-89205488D03*
X89155746Y-89912595D03*
X90329543Y-91086392D03*
X91036650Y-90379286D03*
%TD*%
D25*
%TO.C,C6*%
X116277722Y-110084966D03*
X116277722Y-109127744D03*
%TD*%
D37*
%TO.C,C20*%
X128190784Y-117471061D03*
X127233562Y-117471061D03*
%TD*%
D13*
%TO.C,LED15*%
X91778402Y-127108948D03*
X92981898Y-125905452D03*
%TD*%
D26*
%TO.C,SW7*%
X190321250Y-109207966D03*
X190321250Y-105007966D03*
X192470250Y-109207966D03*
X192470250Y-105007966D03*
%TD*%
D38*
%TO.C,D3*%
X131064000Y-120428000D03*
X131064000Y-120928000D03*
X131064000Y-121428000D03*
X131064000Y-121928000D03*
X131064000Y-122428000D03*
X131933000Y-122428000D03*
X131933000Y-121928000D03*
X131933000Y-121428000D03*
X131933000Y-120928000D03*
X131933000Y-120428000D03*
%TD*%
D13*
%TO.C,LED22*%
X88261340Y-118511920D03*
X89464836Y-117308424D03*
%TD*%
D18*
%TO.C,R36*%
X100861247Y-108290658D03*
X101780969Y-108290658D03*
%TD*%
D25*
%TO.C,C24*%
X163513181Y-117427347D03*
X163513181Y-118384569D03*
%TD*%
D21*
%TO.C,LED1*%
X173987828Y-103479456D03*
X173357828Y-103479456D03*
X172727828Y-103479456D03*
X172727828Y-105359456D03*
X173357828Y-105359456D03*
X173987828Y-105359456D03*
%TD*%
D30*
%TO.C,D7*%
X188408250Y-105371466D03*
X188408250Y-108841466D03*
%TD*%
%TO.C,D6*%
X188408250Y-112871466D03*
X188408250Y-116341466D03*
%TD*%
D13*
%TO.C,LED27*%
X91761340Y-111511920D03*
X92964836Y-110308424D03*
%TD*%
D37*
%TO.C,C13*%
X131564962Y-105901061D03*
X132522184Y-105901061D03*
%TD*%
D25*
%TO.C,C5*%
X110302048Y-109913728D03*
X110302048Y-108956506D03*
%TD*%
D39*
%TO.C,R32*%
X109904267Y-100260286D03*
X109904267Y-101172508D03*
%TD*%
D40*
%TO.C,D1*%
X110186969Y-123178150D03*
X108749101Y-123178150D03*
%TD*%
D37*
%TO.C,C15*%
X136042184Y-115381061D03*
X135084962Y-115381061D03*
%TD*%
D33*
%TO.C,C26*%
X167305101Y-123925403D03*
X167305101Y-122930681D03*
%TD*%
D13*
%TO.C,LED16*%
X88278402Y-127108948D03*
X89481898Y-125905452D03*
%TD*%
D20*
%TO.C,LED33*%
X93362853Y-89205488D03*
X92655746Y-89912595D03*
X93829543Y-91086392D03*
X94536650Y-90379286D03*
%TD*%
D41*
%TO.C,R16*%
X133829308Y-122047730D03*
X134736530Y-122047730D03*
%TD*%
D18*
%TO.C,R14*%
X139103712Y-113801061D03*
X140023434Y-113801061D03*
%TD*%
D14*
%TO.C,R15*%
X149170467Y-128547016D03*
X149170467Y-127639794D03*
%TD*%
D26*
%TO.C,SW3*%
X144221926Y-128768421D03*
X144221926Y-132968421D03*
X142072926Y-128768421D03*
X142072926Y-132968421D03*
%TD*%
D42*
%TO.C,R33*%
X109994489Y-106043432D03*
X109082267Y-106043432D03*
%TD*%
D21*
%TO.C,LED9*%
X173987828Y-127479456D03*
X173357828Y-127479456D03*
X172727828Y-127479456D03*
X172727828Y-129359456D03*
X173357828Y-129359456D03*
X173987828Y-129359456D03*
%TD*%
D25*
%TO.C,C21*%
X131318000Y-118632350D03*
X131318000Y-119589572D03*
%TD*%
D18*
%TO.C,R21*%
X100449554Y-103531156D03*
X101369276Y-103531156D03*
%TD*%
%TO.C,R35*%
X104011268Y-105186422D03*
X104930990Y-105186422D03*
%TD*%
D20*
%TO.C,LED29*%
X89862853Y-92705488D03*
X89155746Y-93412595D03*
X90329543Y-94586392D03*
X91036650Y-93879286D03*
%TD*%
D43*
%TO.C,U7*%
X165757590Y-120763977D03*
X164487590Y-120763977D03*
X163217590Y-120763977D03*
X161947590Y-120763977D03*
X161947590Y-126128977D03*
X163217590Y-126128977D03*
X164487590Y-126128977D03*
X165757590Y-126128977D03*
%TD*%
D44*
%TO.C,Q5*%
X99822695Y-112196955D03*
X99822695Y-113146955D03*
X99822695Y-114096955D03*
X102222695Y-114096955D03*
X102222695Y-113146955D03*
X102222695Y-112196955D03*
%TD*%
D25*
%TO.C,C27*%
X107500780Y-104754738D03*
X107500780Y-105711960D03*
%TD*%
D20*
%TO.C,LED34*%
X93362853Y-85705488D03*
X92655746Y-86412595D03*
X93829543Y-87586392D03*
X94536650Y-86879286D03*
%TD*%
D12*
%TO.C,R6*%
X110054722Y-113452508D03*
X110054722Y-114372230D03*
%TD*%
D21*
%TO.C,LED5*%
X173987828Y-115479456D03*
X173357828Y-115479456D03*
X172727828Y-115479456D03*
X172727828Y-117359456D03*
X173357828Y-117359456D03*
X173987828Y-117359456D03*
%TD*%
D30*
%TO.C,D4*%
X188408250Y-127871466D03*
X188408250Y-131341466D03*
%TD*%
D13*
%TO.C,LED11*%
X95278402Y-130608948D03*
X96481898Y-129405452D03*
%TD*%
D26*
%TO.C,SW9*%
X182821250Y-124207966D03*
X182821250Y-120007966D03*
X184970250Y-124207966D03*
X184970250Y-120007966D03*
%TD*%
D21*
%TO.C,LED3*%
X173987828Y-109479456D03*
X173357828Y-109479456D03*
X172727828Y-109479456D03*
X172727828Y-111359456D03*
X173357828Y-111359456D03*
X173987828Y-111359456D03*
%TD*%
D18*
%TO.C,R22*%
X104830017Y-127097830D03*
X103910295Y-127097830D03*
%TD*%
D13*
%TO.C,LED12*%
X91778402Y-130608948D03*
X92981898Y-129405452D03*
%TD*%
D25*
%TO.C,C17*%
X128843573Y-107831072D03*
X128843573Y-106873850D03*
%TD*%
D44*
%TO.C,Q3*%
X100063021Y-121422752D03*
X100063021Y-122372752D03*
X100063021Y-123322752D03*
X102463021Y-123322752D03*
X102463021Y-122372752D03*
X102463021Y-121422752D03*
%TD*%
D45*
%TO.C,U4*%
X138803073Y-115576061D03*
X138803073Y-116846061D03*
X138803073Y-118116061D03*
X138803073Y-119386061D03*
X145864073Y-119386061D03*
X145864073Y-118116061D03*
X145864073Y-116846061D03*
X145864073Y-115576061D03*
%TD*%
D21*
%TO.C,LED8*%
X173987828Y-124479456D03*
X173357828Y-124479456D03*
X172727828Y-124479456D03*
X172727828Y-126359456D03*
X173357828Y-126359456D03*
X173987828Y-126359456D03*
%TD*%
D13*
%TO.C,LED13*%
X88278402Y-130608948D03*
X89481898Y-129405452D03*
%TD*%
%TO.C,LED17*%
X95278402Y-123608948D03*
X96481898Y-122405452D03*
%TD*%
D25*
%TO.C,C11*%
X128016000Y-104931389D03*
X128016000Y-105888611D03*
%TD*%
D46*
%TO.C,USB1*%
X123725552Y-128164680D03*
D47*
X123725552Y-132104680D03*
X132375552Y-132104680D03*
D46*
X132375552Y-128164680D03*
%TD*%
D13*
%TO.C,LED21*%
X91761340Y-118511920D03*
X92964836Y-117308424D03*
%TD*%
D18*
%TO.C,R9*%
X109099099Y-115443396D03*
X108179377Y-115443396D03*
%TD*%
D30*
%TO.C,D5*%
X188408250Y-120371466D03*
X188408250Y-123841466D03*
%TD*%
D37*
%TO.C,C18*%
X126385784Y-116367861D03*
X125428562Y-116367861D03*
%TD*%
D25*
%TO.C,C10*%
X136944043Y-105418313D03*
X136944043Y-106375535D03*
%TD*%
D13*
%TO.C,LED14*%
X95278402Y-127108948D03*
X96481898Y-125905452D03*
%TD*%
D26*
%TO.C,SW10*%
X182821250Y-116707966D03*
X182821250Y-112507966D03*
X184970250Y-116707966D03*
X184970250Y-112507966D03*
%TD*%
D25*
%TO.C,C14*%
X126975412Y-105718057D03*
X126975412Y-106675279D03*
%TD*%
D12*
%TO.C,R12*%
X128803573Y-119570822D03*
X128803573Y-118651100D03*
%TD*%
D25*
%TO.C,C25*%
X161225376Y-117438499D03*
X161225376Y-118395721D03*
%TD*%
D37*
%TO.C,C12*%
X130822184Y-105911061D03*
X129864962Y-105911061D03*
%TD*%
D26*
%TO.C,SW11*%
X182821250Y-109207966D03*
X182821250Y-105007966D03*
X184970250Y-109207966D03*
X184970250Y-105007966D03*
%TD*%
D13*
%TO.C,LED28*%
X88261340Y-111511920D03*
X89464836Y-110308424D03*
%TD*%
D14*
%TO.C,R10*%
X113414309Y-119207974D03*
X113414309Y-120115196D03*
%TD*%
%TO.C,R17*%
X130743573Y-106867450D03*
X130743573Y-107774672D03*
%TD*%
D30*
%TO.C,D9*%
X180908250Y-120371466D03*
X180908250Y-123841466D03*
%TD*%
D48*
%TO.C,CN1*%
X115925777Y-125929015D03*
X117925777Y-125929015D03*
D49*
X120175777Y-132279015D03*
X113675777Y-132279015D03*
%TD*%
D20*
%TO.C,LED37*%
X96862853Y-85705488D03*
X96155746Y-86412595D03*
X97329543Y-87586392D03*
X98036650Y-86879286D03*
%TD*%
D18*
%TO.C,R24*%
X104921655Y-118326256D03*
X104001933Y-118326256D03*
%TD*%
D50*
%TO.C,C2*%
X112493804Y-119172567D03*
X112493804Y-120169789D03*
%TD*%
D22*
%TO.C,C22*%
X86528896Y-101504462D03*
X87523618Y-101504462D03*
%TD*%
D23*
%TO.C,Q6*%
X102613259Y-107074999D03*
X102613259Y-105175999D03*
X100613259Y-106125999D03*
%TD*%
D26*
%TO.C,SW6*%
X190321250Y-116707966D03*
X190321250Y-112507966D03*
X192470250Y-116707966D03*
X192470250Y-112507966D03*
%TD*%
D40*
%TO.C,D2*%
X110187197Y-121825874D03*
X108749329Y-121825874D03*
%TD*%
D51*
%TO.C,U2*%
X112028331Y-108739775D03*
X112028331Y-109689775D03*
X112028331Y-110639775D03*
X114628331Y-110639775D03*
X114628331Y-108739775D03*
%TD*%
D39*
%TO.C,R34*%
X108840740Y-100276731D03*
X108840740Y-101188953D03*
%TD*%
D26*
%TO.C,SW8*%
X182821250Y-131707966D03*
X182821250Y-127507966D03*
X184970250Y-131707966D03*
X184970250Y-127507966D03*
%TD*%
D37*
%TO.C,C16*%
X135084962Y-111661061D03*
X136042184Y-111661061D03*
%TD*%
D18*
%TO.C,R20*%
X104113597Y-100412562D03*
X105033319Y-100412562D03*
%TD*%
%TO.C,R25*%
X104646644Y-114125173D03*
X103726922Y-114125173D03*
%TD*%
D30*
%TO.C,D10*%
X180908250Y-112871466D03*
X180908250Y-116341466D03*
%TD*%
M02*
