%TF.GenerationSoftware,KiCad,Pcbnew,7.0.2-6a45011f42~172~ubuntu22.04.1*%
%TF.CreationDate,2023-05-01T16:59:55-07:00*%
%TF.ProjectId,hackathon-2022,6861636b-6174-4686-9f6e-2d323032322e,rev?*%
%TF.SameCoordinates,Original*%
%TF.FileFunction,Copper,L6,Bot*%
%TF.FilePolarity,Positive*%
%FSLAX46Y46*%
G04 Gerber Fmt 4.6, Leading zero omitted, Abs format (unit mm)*
G04 Created by KiCad (PCBNEW 7.0.2-6a45011f42~172~ubuntu22.04.1) date 2023-05-01 16:59:55*
%MOMM*%
%LPD*%
G01*
G04 APERTURE LIST*
%TA.AperFunction,ComponentPad*%
%ADD10C,1.700000*%
%TD*%
%TA.AperFunction,ComponentPad*%
%ADD11O,3.000000X3.300000*%
%TD*%
%TA.AperFunction,ComponentPad*%
%ADD12C,1.520000*%
%TD*%
%TA.AperFunction,ComponentPad*%
%ADD13O,1.000000X1.600000*%
%TD*%
%TA.AperFunction,ComponentPad*%
%ADD14O,1.000000X1.800000*%
%TD*%
%TA.AperFunction,ViaPad*%
%ADD15C,0.460000*%
%TD*%
%TA.AperFunction,Conductor*%
%ADD16C,0.090000*%
%TD*%
%TA.AperFunction,Conductor*%
%ADD17C,0.381000*%
%TD*%
%TA.AperFunction,Conductor*%
%ADD18C,0.254000*%
%TD*%
G04 APERTURE END LIST*
D10*
%TO.P,R29,1,1*%
%TO.N,VDD*%
X165700513Y-95799691D03*
%TO.P,R29,2,2*%
%TO.N,in_adc3*%
X168200513Y-95799691D03*
%TO.P,R29,3,3*%
%TO.N,GND*%
X170700513Y-95799691D03*
D11*
%TO.P,R29,4,4*%
%TO.N,unconnected-(R29-Pad4)*%
X173200513Y-88799691D03*
%TO.P,R29,5,5*%
%TO.N,unconnected-(R29-Pad5)*%
X163200513Y-88799691D03*
%TD*%
D12*
%TO.P,J2,1,1*%
%TO.N,Net-(U3-SWD)*%
X124231509Y-108583566D03*
%TO.P,J2,2,2*%
%TO.N,Net-(U3-SWCLK)*%
X124231509Y-106043566D03*
%TD*%
D10*
%TO.P,R27,1,1*%
%TO.N,Net-(C25-Pad1)*%
X159343123Y-100595783D03*
%TO.P,R27,2,2*%
%TO.N,Net-(C24-Pad1)*%
X156843123Y-100595783D03*
%TO.P,R27,3,3*%
%TO.N,Net-(C23-Pad1)*%
X154343123Y-100595783D03*
D11*
%TO.P,R27,4,4*%
%TO.N,unconnected-(R27-Pad4)*%
X151843123Y-107595783D03*
%TO.P,R27,5,5*%
%TO.N,unconnected-(R27-Pad5)*%
X161843123Y-107595783D03*
%TD*%
D10*
%TO.P,R31,1,1*%
%TO.N,VDD*%
X148743714Y-95817671D03*
%TO.P,R31,2,2*%
%TO.N,in_adc1*%
X151243714Y-95817671D03*
%TO.P,R31,3,3*%
%TO.N,GND*%
X153743714Y-95817671D03*
D11*
%TO.P,R31,4,4*%
%TO.N,unconnected-(R31-Pad4)*%
X156243714Y-88817671D03*
%TO.P,R31,5,5*%
%TO.N,unconnected-(R31-Pad5)*%
X146243714Y-88817671D03*
%TD*%
D13*
%TO.P,USB1,16,SHELL3*%
%TO.N,Net-(USB1-SHELL0)*%
X132375552Y-128164680D03*
%TO.P,USB1,13,SHELL0*%
X123725552Y-128164680D03*
D14*
%TO.P,USB1,15,SHELL2*%
X132375552Y-132104680D03*
%TO.P,USB1,14,SHELL1*%
X123725552Y-132104680D03*
%TD*%
D10*
%TO.P,R28,1,1*%
%TO.N,VDD*%
X111670450Y-95837487D03*
%TO.P,R28,2,2*%
%TO.N,in_adc2*%
X114170450Y-95837487D03*
%TO.P,R28,3,3*%
%TO.N,GND*%
X116670450Y-95837487D03*
D11*
%TO.P,R28,4,4*%
%TO.N,unconnected-(R28-Pad4)*%
X119170450Y-88837487D03*
%TO.P,R28,5,5*%
%TO.N,unconnected-(R28-Pad5)*%
X109170450Y-88837487D03*
%TD*%
D12*
%TO.P,J3,1,1*%
%TO.N,Net-(U7-VO-)*%
X165277522Y-132263141D03*
%TO.P,J3,2,2*%
%TO.N,Net-(U7-VO+)*%
X162737522Y-132263141D03*
%TD*%
D10*
%TO.P,R30,1,1*%
%TO.N,VDD*%
X130091666Y-95868877D03*
%TO.P,R30,2,2*%
%TO.N,in_adc*%
X132591666Y-95868877D03*
%TO.P,R30,3,3*%
%TO.N,GND*%
X135091666Y-95868877D03*
D11*
%TO.P,R30,4,4*%
%TO.N,unconnected-(R30-Pad4)*%
X137591666Y-88868877D03*
%TO.P,R30,5,5*%
%TO.N,unconnected-(R30-Pad5)*%
X127591666Y-88868877D03*
%TD*%
D15*
%TO.N,RP-USB-NET-DN*%
X126746000Y-125730000D03*
X129286000Y-125476000D03*
%TO.N,unconnected-(U3-GPIO24-Pad36)*%
X128112742Y-113545967D03*
%TO.N,unconnected-(U3-GPIO22-Pad34)*%
X128083638Y-112623119D03*
%TO.N,SW-VOUT*%
X116363188Y-117432435D03*
X111209574Y-119343717D03*
%TO.N,led-data_gpio*%
X132223675Y-108071023D03*
X168692952Y-102544161D03*
%TO.N,VDD*%
X135084962Y-110861061D03*
X133096000Y-125222000D03*
X109082267Y-105243432D03*
X144239073Y-115576061D03*
X132761882Y-114333038D03*
X108300182Y-102435523D03*
X139103712Y-113001061D03*
X132118000Y-118632349D03*
X145746212Y-113251061D03*
X105033320Y-99612562D03*
X126385784Y-117167861D03*
X108300780Y-105730711D03*
X128067580Y-111803352D03*
X104930990Y-104386422D03*
X130765539Y-110462613D03*
X115628331Y-108739775D03*
X111670450Y-94417487D03*
%TO.N,cols2_gpio*%
X180649084Y-114817848D03*
X135023738Y-113671188D03*
%TO.N,GND*%
X111612863Y-101795425D03*
X112493804Y-120898678D03*
X132118000Y-119589572D03*
X117077722Y-110084966D03*
X111102048Y-109913729D03*
X113954553Y-117223966D03*
X113028331Y-109689775D03*
X95701385Y-102772260D03*
X165303060Y-128430459D03*
X145923651Y-129749227D03*
X133231073Y-105901061D03*
X107311376Y-117520684D03*
X110012863Y-101795425D03*
X129286000Y-105156000D03*
X173987828Y-104509456D03*
X87481867Y-103489458D03*
X132740151Y-113144387D03*
X173987828Y-131509456D03*
X115925777Y-127279015D03*
X164487590Y-124696477D03*
X131308896Y-126629195D03*
X125428562Y-115567861D03*
X114918417Y-114678618D03*
X173987828Y-102629456D03*
X108179377Y-114643396D03*
X113610847Y-113467920D03*
X173987828Y-107509456D03*
X173987828Y-110509456D03*
X108300780Y-104754738D03*
X173987828Y-125509456D03*
X147468573Y-114051061D03*
X130224000Y-121666000D03*
X121354158Y-127502030D03*
X136751073Y-115381061D03*
X124802841Y-129352499D03*
X173987828Y-113509456D03*
X113187863Y-103495425D03*
X99286056Y-124863044D03*
X127233562Y-116671061D03*
X110812863Y-101795425D03*
X173987828Y-119509456D03*
X114214309Y-120115196D03*
X110854722Y-113452508D03*
X173987828Y-128509456D03*
X173987828Y-116509456D03*
X137178073Y-119386061D03*
X99458588Y-115999237D03*
X169534421Y-97291841D03*
X137744043Y-106375535D03*
X173987828Y-122509456D03*
X109987863Y-103495425D03*
X136751073Y-111661061D03*
X93940450Y-102772260D03*
X142072926Y-129793421D03*
%TO.N,Net-(Q7-D)*%
X96668793Y-104700617D03*
X88646000Y-104013000D03*
%TO.N,rgb-drive26_gpio*%
X97171403Y-103727971D03*
%TO.N,tof-i2c_scl*%
X110911153Y-105583106D03*
X128088436Y-110821129D03*
%TO.N,cols1_gpio*%
X135023738Y-112471036D03*
X180709972Y-122347597D03*
%TO.N,rpi-led-i2c_scl*%
X103698884Y-103892986D03*
X125737445Y-111468671D03*
%TO.N,tof-en_gpio*%
X113162863Y-102620425D03*
X127894467Y-110079129D03*
X108040740Y-100276731D03*
%TO.N,Net-(U3-RUN)*%
X128623725Y-110171023D03*
X134736530Y-121247730D03*
%TO.N,rgb-drive2_gpio*%
X88138000Y-104902000D03*
X88957695Y-94828423D03*
%TO.N,rows1_gpio*%
X184120369Y-110950132D03*
X135023738Y-110070985D03*
%TO.N,/4: led-drive_u/SCL*%
X101559912Y-110344316D03*
%TO.N,cols3_gpio*%
X133023522Y-110171023D03*
X180689676Y-107369283D03*
%TO.N,VBAT*%
X107088057Y-116332143D03*
X114528309Y-119306337D03*
X111942415Y-114545263D03*
X111134486Y-114583767D03*
%TO.N,rpi-led-i2c_sda*%
X103550198Y-99250304D03*
X125564913Y-110534125D03*
%TO.N,rgb-drive25_gpio*%
X94809921Y-106595795D03*
X98323545Y-88225736D03*
%TO.N,QSPI_SD0*%
X131241388Y-114812071D03*
X141571144Y-119412436D03*
%TO.N,QSPI_SS*%
X140627231Y-116280918D03*
X147557265Y-125667432D03*
%TO.N,P4V2*%
X172727828Y-125329456D03*
X88251257Y-101504462D03*
X172727828Y-116329456D03*
X96275954Y-88618590D03*
X172727828Y-128329456D03*
X101369276Y-102731156D03*
X89275954Y-92118590D03*
X172727828Y-110329456D03*
X92775954Y-92118590D03*
X92775954Y-85118590D03*
X113028331Y-108739775D03*
X113028331Y-110639775D03*
X172727828Y-122329456D03*
X111102048Y-108956506D03*
X92775954Y-88618590D03*
X171829726Y-104077368D03*
X101463021Y-123322752D03*
X172727828Y-102629456D03*
X103222695Y-114096955D03*
X163217590Y-124696477D03*
X89275954Y-85118590D03*
X89275954Y-88618590D03*
X172727828Y-119329456D03*
X109517152Y-128714060D03*
X172727828Y-131329456D03*
X96275954Y-92118590D03*
X101780969Y-109090658D03*
X172727828Y-107329456D03*
X96275954Y-85118590D03*
X172727828Y-113329456D03*
%TO.N,QSPI_SD2*%
X132241274Y-115106832D03*
X136607162Y-118173551D03*
%TO.N,audio-enable_gpio*%
X165757590Y-119331477D03*
X136121731Y-114061377D03*
%TO.N,tof-i2c_sda*%
X127115141Y-108984663D03*
X112223764Y-105519847D03*
%TO.N,Net-(LED20-A)*%
X87575776Y-120879165D03*
X94323724Y-112819719D03*
X91151196Y-120790335D03*
X98695265Y-113002571D03*
X94548956Y-120745920D03*
%TO.N,enable0_gpio*%
X125823408Y-113271137D03*
X105732426Y-127098801D03*
%TO.N,Net-(USB1-CC2)*%
X134366000Y-125984000D03*
X128836236Y-126607479D03*
%TO.N,Net-(U3-DVDD0)*%
X129823624Y-110171023D03*
X127905947Y-107264682D03*
X130137101Y-114787067D03*
%TO.N,rgb-drive20_gpio*%
X96008808Y-94588387D03*
X93861950Y-103790449D03*
%TO.N,rgb-drive18_gpio*%
X96338641Y-103708907D03*
%TO.N,rows0_gpio*%
X132923738Y-111271137D03*
X191765116Y-107106866D03*
%TO.N,enable1_gpio*%
X125823408Y-112471036D03*
X104958831Y-119294795D03*
%TO.N,drive0_gpio*%
X97539888Y-130639109D03*
X95624744Y-120139599D03*
%TO.N,cols0_gpio*%
X180590062Y-129966549D03*
X135730053Y-113092137D03*
%TO.N,rgb-drive24_gpio*%
X98948125Y-85852334D03*
X95816779Y-105960680D03*
%TD*%
D16*
%TO.N,Net-(Q7-D)*%
X88646000Y-104013000D02*
X89333617Y-104700617D01*
X89333617Y-104700617D02*
X96668793Y-104700617D01*
%TO.N,rgb-drive2_gpio*%
X88138000Y-104177576D02*
X88118351Y-104157927D01*
X88116482Y-103956073D02*
G75*
G03*
X88118352Y-104157927I465118J-96627D01*
G01*
X88650200Y-101594627D02*
G75*
G03*
X88659852Y-101522642I-398900J90127D01*
G01*
X88138000Y-104902000D02*
X88138000Y-104177576D01*
X88116486Y-103956074D02*
X88650195Y-101594626D01*
X88659853Y-101522642D02*
X88957695Y-94828423D01*
%TO.N,RP-USB-NET-DN*%
X127000000Y-125476000D02*
X126746000Y-125730000D01*
X129286000Y-125476000D02*
X127000000Y-125476000D01*
%TO.N,Net-(USB1-CC2)*%
X134366000Y-125984000D02*
X134126854Y-126223146D01*
X131244791Y-126225250D02*
X128836236Y-126607479D01*
X134126854Y-126223146D02*
X131259705Y-126223146D01*
X131259705Y-126223146D02*
G75*
G03*
X131244791Y-126225250I56795J-456454D01*
G01*
D17*
%TO.N,SW-VOUT*%
X116363188Y-117432435D02*
X114697344Y-120387496D01*
X114444113Y-120619840D02*
G75*
G03*
X114697343Y-120387496I-229813J504640D01*
G01*
X114444111Y-120619836D02*
X112723606Y-121403318D01*
X111985663Y-121120615D02*
G75*
G03*
X112723606Y-121403317I508137J221915D01*
G01*
X111985657Y-121120618D02*
X111209574Y-119343717D01*
D16*
%TO.N,led-data_gpio*%
X168692952Y-102544161D02*
X132223675Y-108071023D01*
D18*
%TO.N,VDD*%
X111670450Y-94417487D02*
X111670450Y-95837487D01*
X165700513Y-95799691D02*
X153839111Y-94744904D01*
X153839111Y-94744904D02*
G75*
G03*
X153743714Y-94740671I-95411J-1073096D01*
G01*
X153743714Y-94740671D02*
X151243714Y-94740671D01*
X151243714Y-94740680D02*
G75*
G03*
X150779742Y-94845735I-14J-1077020D01*
G01*
X150779742Y-94845735D02*
X148743714Y-95817671D01*
X111670450Y-95837487D02*
X113706478Y-96809423D01*
X113706488Y-96809402D02*
G75*
G03*
X114170450Y-96914487I464012J971902D01*
G01*
X114170450Y-96914487D02*
X116670450Y-96914487D01*
X116670450Y-96914490D02*
G75*
G03*
X116754364Y-96911213I-50J1077290D01*
G01*
X116754364Y-96911213D02*
X130091666Y-95868877D01*
X148743714Y-95817671D02*
X132737030Y-94317673D01*
X132737030Y-94317669D02*
G75*
G03*
X132591666Y-94310877I-145330J-1551331D01*
G01*
X132591666Y-94310877D02*
X130091666Y-94310877D01*
X130091666Y-94310878D02*
G75*
G03*
X130047667Y-94311499I34J-1561422D01*
G01*
X130047667Y-94311499D02*
X114140035Y-94760916D01*
X114140034Y-94760898D02*
G75*
G03*
X113706478Y-94865551I30466J-1076602D01*
G01*
X113706478Y-94865551D02*
X111670450Y-95837487D01*
D16*
%TO.N,cols2_gpio*%
X135023738Y-113671188D02*
X134639221Y-112610419D01*
X135048405Y-112062771D02*
G75*
G03*
X134639221Y-112610419I-24705J-408229D01*
G01*
X135048404Y-112062780D02*
X180649084Y-114817848D01*
D17*
%TO.N,GND*%
X169534421Y-97291841D02*
X170700513Y-95799691D01*
X153743714Y-95817671D02*
X165593434Y-96935153D01*
X165593432Y-96935171D02*
G75*
G03*
X166741105Y-96266497I107068J1135471D01*
G01*
X166741106Y-96266497D02*
X167159921Y-95332885D01*
X168720799Y-94784807D02*
G75*
G03*
X167159921Y-95332885I-520299J-1014893D01*
G01*
X168720810Y-94784786D02*
X170700513Y-95799691D01*
X135091666Y-95868877D02*
X133111962Y-94853972D01*
X133111970Y-94853956D02*
G75*
G03*
X132591666Y-94728377I-520270J-1014944D01*
G01*
X132591666Y-94728377D02*
X130091666Y-94728377D01*
X130091666Y-94728375D02*
G75*
G03*
X129997407Y-94732280I34J-1140525D01*
G01*
X129997407Y-94732279D02*
X116670450Y-95837487D01*
X153743714Y-95817671D02*
X151764010Y-96832576D01*
X151243714Y-96958180D02*
G75*
G03*
X151764010Y-96832576I-14J1140480D01*
G01*
X151243714Y-96958171D02*
X148743714Y-96958171D01*
X148652700Y-96954537D02*
G75*
G03*
X148743714Y-96958171I91000J1137437D01*
G01*
X148652700Y-96954534D02*
X135091666Y-95868877D01*
D16*
%TO.N,tof-i2c_scl*%
X110911153Y-105583106D02*
X108481324Y-104387744D01*
X108481324Y-104387744D02*
G75*
G03*
X108390515Y-104355705I-180524J-366956D01*
G01*
X108390515Y-104355704D02*
X105104099Y-103616647D01*
X105104098Y-103616651D02*
G75*
G03*
X105002336Y-103600655I-173098J-769549D01*
G01*
X105002336Y-103600655D02*
X103735869Y-103485661D01*
X103735866Y-103485693D02*
G75*
G03*
X103813146Y-104285700I-36966J-407307D01*
G01*
X103813146Y-104285701D02*
X104816729Y-103993707D01*
X105164289Y-104050481D02*
G75*
G03*
X104816729Y-103993707I-233289J-335919D01*
G01*
X105164286Y-104050485D02*
X108067483Y-106066648D01*
X108067486Y-106066643D02*
G75*
G03*
X108185314Y-106123073I233314J335943D01*
G01*
X108185314Y-106123073D02*
X115743797Y-108347412D01*
X115765445Y-108354441D02*
G75*
G03*
X115743797Y-108347413I-136745J-384359D01*
G01*
X115765445Y-108354442D02*
X125600332Y-111854003D01*
X125600320Y-111854036D02*
G75*
G03*
X125910650Y-111839185I137080J385336D01*
G01*
X125910650Y-111839185D02*
X128088436Y-110821129D01*
%TO.N,cols1_gpio*%
X135023738Y-112471036D02*
X139010963Y-113399405D01*
X139010963Y-113399406D02*
G75*
G03*
X139021126Y-113401635I92037J395206D01*
G01*
X139021126Y-113401636D02*
X165840176Y-118930902D01*
X165849183Y-118932865D02*
G75*
G03*
X165840176Y-118930903I-91183J-396835D01*
G01*
X165849183Y-118932865D02*
X180709972Y-122347597D01*
%TO.N,rpi-led-i2c_scl*%
X103698884Y-103892986D02*
X104878755Y-103789704D01*
X105181770Y-103842443D02*
G75*
G03*
X104878755Y-103789705I-250770J-543957D01*
G01*
X105181769Y-103842445D02*
X108472013Y-105359281D01*
X108509616Y-105379045D02*
G75*
G03*
X108472013Y-105359281I-208716J-351455D01*
G01*
X108509616Y-105379045D02*
X108873431Y-105595097D01*
X108873433Y-105595094D02*
G75*
G03*
X108947921Y-105629737I208867J351694D01*
G01*
X108947921Y-105629737D02*
X125737445Y-111468671D01*
%TO.N,tof-en_gpio*%
X113162863Y-102620425D02*
X127274894Y-108608153D01*
X127504712Y-108860107D02*
G75*
G03*
X127274894Y-108608154I-389612J-124593D01*
G01*
X127504714Y-108860106D02*
X127894467Y-110079129D01*
X108040740Y-100276731D02*
X111732336Y-101404264D01*
X111883849Y-101489070D02*
G75*
G03*
X111732336Y-101404265I-270949J-306330D01*
G01*
X111883844Y-101489075D02*
X113162863Y-102620425D01*
%TO.N,Net-(U3-RUN)*%
X128623725Y-110171023D02*
X129739107Y-114881311D01*
X129739082Y-114881317D02*
G75*
G03*
X129816587Y-115041137I398018J94317D01*
G01*
X129816587Y-115041137D02*
X134736530Y-121247730D01*
%TO.N,rows1_gpio*%
X184120369Y-110950132D02*
X173986550Y-110918454D01*
X173978934Y-110918360D02*
G75*
G03*
X173986550Y-110918453I8766J402760D01*
G01*
X173978934Y-110918360D02*
X135023738Y-110070985D01*
%TO.N,cols3_gpio*%
X180689676Y-107369283D02*
X162027742Y-109389941D01*
X162012569Y-109390782D02*
G75*
G03*
X162027742Y-109389941I-469J145682D01*
G01*
X162012569Y-109390783D02*
X135021936Y-109471987D01*
X135021936Y-109472002D02*
G75*
G03*
X134816254Y-109509067I1764J-598998D01*
G01*
X134816254Y-109509067D02*
X133023522Y-110171023D01*
D17*
%TO.N,VBAT*%
X114528309Y-119306337D02*
X113475701Y-117503558D01*
X113462194Y-117479023D02*
G75*
G03*
X113475701Y-117503558I491906J254823D01*
G01*
X113462195Y-117479023D02*
X111942415Y-114545263D01*
X111134486Y-114583767D02*
X107088057Y-116332143D01*
D16*
%TO.N,rpi-led-i2c_sda*%
X125564913Y-110534125D02*
X104847621Y-99976975D01*
X104833380Y-99969362D02*
G75*
G03*
X104847621Y-99976974I200020J357062D01*
G01*
X104833381Y-99969361D02*
X103550198Y-99250304D01*
%TO.N,rgb-drive25_gpio*%
X94809921Y-106595795D02*
X95493003Y-105710780D01*
X95654330Y-105585324D02*
G75*
G03*
X95493004Y-105710780I162470J-375376D01*
G01*
X95654330Y-105585325D02*
X96831242Y-105075972D01*
X96831229Y-105075943D02*
G75*
G03*
X96809261Y-104316496I-162429J375343D01*
G01*
X96809261Y-104316495D02*
X96198173Y-104093029D01*
X95938538Y-103623900D02*
G75*
G03*
X96198173Y-104093029I400062J-85000D01*
G01*
X95938571Y-103623907D02*
X96101455Y-102857259D01*
X96101453Y-102857259D02*
G75*
G03*
X96105750Y-102833651I-400253J85059D01*
G01*
X96105751Y-102833651D02*
X98323545Y-88225736D01*
%TO.N,QSPI_SD0*%
X141571144Y-119412436D02*
X136540164Y-118577026D01*
X136372075Y-118508229D02*
G75*
G03*
X136540164Y-118577026I235125J334729D01*
G01*
X136372071Y-118508235D02*
X132006183Y-115441516D01*
X131980972Y-115422308D02*
G75*
G03*
X132006183Y-115441516I260228J315408D01*
G01*
X131980973Y-115422307D02*
X131241388Y-114812071D01*
%TO.N,QSPI_SS*%
X147557265Y-125667432D02*
X140627231Y-116280918D01*
%TO.N,QSPI_SD2*%
X132241274Y-115106832D02*
X136607162Y-118173551D01*
%TO.N,audio-enable_gpio*%
X165757590Y-119331477D02*
X144316921Y-115174538D01*
X144316921Y-115174536D02*
G75*
G03*
X144294090Y-115170778I-77621J-400364D01*
G01*
X144294090Y-115170778D02*
X136121731Y-114061377D01*
%TO.N,tof-i2c_sda*%
X112223764Y-105519847D02*
X125410091Y-110912690D01*
X125410089Y-110912696D02*
G75*
G03*
X125902950Y-110764369I154811J378596D01*
G01*
X125902950Y-110764369D02*
X127115141Y-108984663D01*
%TO.N,Net-(LED20-A)*%
X94323724Y-112819719D02*
X98695265Y-113002571D01*
%TO.N,enable0_gpio*%
X105732426Y-127098801D02*
X125823408Y-113271137D01*
%TO.N,Net-(U3-DVDD0)*%
X129823624Y-110171023D02*
X130137101Y-114787067D01*
X129823624Y-110171023D02*
X127905947Y-107264682D01*
%TO.N,rgb-drive20_gpio*%
X96008808Y-94588387D02*
X94341372Y-102853147D01*
X94301519Y-102964392D02*
G75*
G03*
X94341372Y-102853147I-361019J192092D01*
G01*
X94301514Y-102964389D02*
X93861950Y-103790449D01*
%TO.N,rows0_gpio*%
X191765116Y-107106866D02*
X162039905Y-109579630D01*
X162013141Y-109580781D02*
G75*
G03*
X162039905Y-109579630I-1041J335781D01*
G01*
X162013141Y-109580782D02*
X135022508Y-109661987D01*
X135022508Y-109662015D02*
G75*
G03*
X134763675Y-109755314I1192J-408985D01*
G01*
X134763675Y-109755314D02*
X132923738Y-111271137D01*
%TO.N,enable1_gpio*%
X125823408Y-112471036D02*
X111087438Y-114177482D01*
X111087438Y-114177481D02*
G75*
G03*
X110972262Y-114208316I47062J-406319D01*
G01*
X110972262Y-114208315D02*
X106925833Y-115956691D01*
X106925818Y-115956656D02*
G75*
G03*
X106731270Y-116132186I162282J-375444D01*
G01*
X106731269Y-116132186D02*
X104958831Y-119294795D01*
%TO.N,drive0_gpio*%
X97539888Y-130639109D02*
X95624744Y-120139599D01*
%TO.N,cols0_gpio*%
X135730053Y-113092137D02*
X135712797Y-114054041D01*
X135712798Y-114054041D02*
G75*
G03*
X136003156Y-114452811I408902J-7359D01*
G01*
X136003156Y-114452811D02*
X140745807Y-115889484D01*
X140763271Y-115895208D02*
G75*
G03*
X140745807Y-115889485I-136071J-385692D01*
G01*
X140763272Y-115895206D02*
X164623631Y-124310765D01*
X164624155Y-124310951D02*
G75*
G03*
X164623631Y-124310766I-27555J-77149D01*
G01*
X164624155Y-124310950D02*
X180590062Y-129966549D01*
%TO.N,rgb-drive24_gpio*%
X98948125Y-85852334D02*
X98730894Y-88262451D01*
X98729261Y-88277471D02*
G75*
G03*
X98730893Y-88262451I-408161J51971D01*
G01*
X98729260Y-88277471D02*
X96765688Y-103676237D01*
X96765710Y-103676240D02*
G75*
G03*
X96856717Y-103989225I405690J-51760D01*
G01*
X96856717Y-103989225D02*
X97129666Y-104317998D01*
X96992765Y-105204413D02*
G75*
G03*
X97129665Y-104317999I-323965J503813D01*
G01*
X96992780Y-105204436D02*
X95816779Y-105960680D01*
%TD*%
M02*
