M48
; DRILL file {KiCad 7.0.2-6a45011f42~172~ubuntu22.04.1} date Mon 01 May 2023 04:59:55 PM PDT
; FORMAT={-:-/ absolute / inch / decimal}
; #@! TF.CreationDate,2023-05-01T16:59:55-07:00
; #@! TF.GenerationSoftware,Kicad,Pcbnew,7.0.2-6a45011f42~172~ubuntu22.04.1
; #@! TF.FileFunction,Plated,1,6,PTH
FMAT,2
INCH
; #@! TA.AperFunction,Plated,PTH,ViaDrill
T1C0.0079
; #@! TA.AperFunction,Plated,PTH,ComponentDrill
T2C0.0240
; #@! TA.AperFunction,Plated,PTH,ComponentDrill
T3C0.0394
; #@! TA.AperFunction,Plated,PTH,ComponentDrill
T4C0.0433
; #@! TA.AperFunction,Plated,PTH,ComponentDrill
T5C0.0787
%
G90
G05
T1
X3.4442Y-4.0744
X3.4479Y-4.759
X3.47Y-4.13
X3.4745Y-3.9962
X3.49Y-4.095
X3.5023Y-3.7334
X3.5148Y-3.3511
X3.5148Y-3.4889
X3.5148Y-3.6267
X3.5886Y-4.7555
X3.6526Y-3.3511
X3.6526Y-3.4889
X3.6526Y-3.6267
X3.6954Y-4.0862
X3.6984Y-4.0462
X3.7135Y-4.4417
X3.7224Y-4.7538
X3.7327Y-4.1967
X3.7648Y-4.7299
X3.7678Y-4.0462
X3.7723Y-4.1717
X3.7799Y-3.724
X3.7904Y-3.3511
X3.7904Y-3.4889
X3.7904Y-3.6267
X3.7929Y-4.083
X3.8059Y-4.1221
X3.8256Y-4.0838
X3.8402Y-5.1433
X3.871Y-3.4735
X3.8856Y-4.4489
X3.8956Y-3.38
X3.9089Y-4.9159
X3.9157Y-4.5669
X3.9909Y-4.0445
X3.9946Y-4.8552
X3.9984Y-4.3443
X4.0071Y-4.2949
X4.0639Y-4.492
X4.0768Y-3.9075
X4.0826Y-4.0903
X4.1311Y-4.1097
X4.1322Y-4.6966
X4.1352Y-3.9218
X4.1627Y-5.0039
X4.2161Y-4.58
X4.2249Y-4.6268
X4.2536Y-3.9479
X4.259Y-4.5135
X4.2638Y-4.0329
X4.2638Y-4.1242
X4.2638Y-4.1626
X4.2946Y-4.1434
X4.3117Y-5.0675
X4.3302Y-4.0746
X4.3312Y-4.0077
X4.3627Y-4.0077
X4.3644Y-4.4666
X4.3666Y-4.1568
X4.3741Y-4.2896
X4.3741Y-4.3273
X4.3754Y-4.5112
X4.3783Y-4.6986
X4.3942Y-4.0077
X4.3965Y-3.7172
X4.4072Y-4.5097
X4.4183Y-4.1543
X4.4289Y-4.7598
X4.4499Y-4.2811
X4.4499Y-4.3185
X4.4499Y-4.3559
X4.4552Y-4.0402
X4.4562Y-4.0746
X4.4729Y-4.4672
X4.4864Y-4.6151
X4.4966Y-4.7289
X4.509Y-4.6971
X4.5243Y-4.5149
X4.5523Y-4.2811
X4.564Y-5.011
X4.5812Y-4.6233
X4.6094Y-4.3341
X4.7777Y-5.0198
X4.9135Y-5.0926
X4.9381Y-4.5499
X4.9435Y-4.3517
X4.9503Y-4.3885
X4.9537Y-4.428
X4.9537Y-4.4595
X4.9758Y-4.6129
X4.99Y-4.95
X5.0045Y-4.2907
X5.0092Y-4.5933
X5.0352Y-4.3338
X5.0357Y-4.223
X5.042Y-4.4017
X5.0427Y-4.434
X5.0429Y-4.363
X5.0438Y-4.4703
X5.0639Y-4.3374
X5.0723Y-4.9845
X5.09Y-4.14
X5.09Y-4.94
X5.1112Y-4.3374
X5.1235Y-4.5192
X5.1269Y-4.79
X5.1482Y-4.3489
X5.167Y-4.5202
X5.1696Y-4.9854
X5.2015Y-4.6706
X5.2015Y-4.7083
X5.2057Y-4.2548
X5.2063Y-4.5318
X5.226Y-4.4545
X5.2268Y-4.5013
X5.2332Y-4.3808
X5.2371Y-4.3374
X5.24Y-4.93
X5.2453Y-4.1693
X5.29Y-4.96
X5.3046Y-4.7735
X5.3159Y-4.3335
X5.3159Y-4.428
X5.3159Y-4.4752
X5.3183Y-4.3646
X5.3437Y-4.4524
X5.3591Y-4.4906
X5.3782Y-4.6525
X5.3839Y-4.3961
X5.3839Y-4.5426
X5.4007Y-4.7002
X5.423Y-4.188
X5.4765Y-4.4489
X5.5365Y-4.578
X5.5737Y-4.7013
X5.5934Y-5.11
X5.6787Y-4.5502
X5.738Y-4.4587
X5.745Y-5.1082
X5.8058Y-4.4902
X5.8093Y-4.9475
X6.4259Y-4.9093
X6.4759Y-4.9093
X6.508Y-5.0563
X6.5259Y-4.6981
X6.6415Y-4.0372
X6.6746Y-3.8304
X6.7649Y-4.0975
X6.8003Y-4.0405
X6.8003Y-4.2256
X6.8003Y-4.3437
X6.8003Y-4.4618
X6.8003Y-4.5799
X6.8003Y-4.698
X6.8003Y-4.8161
X6.8003Y-4.9342
X6.8003Y-5.0523
X6.8003Y-5.1705
X6.8499Y-4.0405
X6.8499Y-4.1145
X6.8499Y-4.2327
X6.8499Y-4.3508
X6.8499Y-4.4689
X6.8499Y-4.587
X6.8499Y-4.7051
X6.8499Y-4.8232
X6.8499Y-4.9413
X6.8499Y-5.0594
X6.8499Y-5.1775
X7.1098Y-5.1168
X7.1122Y-4.5204
X7.1138Y-4.2271
X7.1146Y-4.8168
X7.2488Y-4.3681
X7.5498Y-4.2168
T3
X4.891Y-4.1749
X4.891Y-4.2749
X6.407Y-5.2072
X6.507Y-5.2072
T4
X4.3965Y-3.7731
X4.4949Y-3.7731
X4.5933Y-3.7731
X5.1217Y-3.7744
X5.2201Y-3.7744
X5.3186Y-3.7744
X5.8561Y-3.7723
X5.9545Y-3.7723
X6.0529Y-3.7723
X6.0765Y-3.9605
X6.1749Y-3.9605
X6.2734Y-3.9605
X6.5236Y-3.7716
X6.6221Y-3.7716
X6.7205Y-3.7716
T2
G00X4.8711Y-5.0323
M15
G01X4.8711Y-5.0594
M16
G05
G00X4.8711Y-5.1835
M15
G01X4.8711Y-5.2185
M16
G05
G00X5.2116Y-5.0323
M15
G01X5.2116Y-5.0594
M16
G05
G00X5.2116Y-5.1835
M15
G01X5.2116Y-5.2185
M16
G05
T5
G00X4.298Y-3.4916
M15
G01X4.298Y-3.5034
M16
G05
G00X4.6917Y-3.4916
M15
G01X4.6917Y-3.5034
M16
G05
G00X5.0233Y-3.4929
M15
G01X5.0233Y-3.5047
M16
G05
G00X5.417Y-3.4929
M15
G01X5.417Y-3.5047
M16
G05
G00X5.7576Y-3.4909
M15
G01X5.7576Y-3.5027
M16
G05
G00X5.9781Y-4.242
M15
G01X5.9781Y-4.2301
M16
G05
G00X6.1513Y-3.4909
M15
G01X6.1513Y-3.5027
M16
G05
G00X6.3718Y-4.242
M15
G01X6.3718Y-4.2301
M16
G05
G00X6.4252Y-3.4901
M15
G01X6.4252Y-3.502
M16
G05
G00X6.8189Y-3.4901
M15
G01X6.8189Y-3.502
M16
G05
T0
M30
