%TF.GenerationSoftware,KiCad,Pcbnew,7.0.2-6a45011f42~172~ubuntu22.04.1*%
%TF.CreationDate,2023-05-01T16:59:55-07:00*%
%TF.ProjectId,hackathon-2022,6861636b-6174-4686-9f6e-2d323032322e,rev?*%
%TF.SameCoordinates,Original*%
%TF.FileFunction,Copper,L1,Top*%
%TF.FilePolarity,Positive*%
%FSLAX46Y46*%
G04 Gerber Fmt 4.6, Leading zero omitted, Abs format (unit mm)*
G04 Created by KiCad (PCBNEW 7.0.2-6a45011f42~172~ubuntu22.04.1) date 2023-05-01 16:59:55*
%MOMM*%
%LPD*%
G01*
G04 APERTURE LIST*
G04 Aperture macros list*
%AMRotRect*
0 Rectangle, with rotation*
0 The origin of the aperture is its center*
0 $1 length*
0 $2 width*
0 $3 Rotation angle, in degrees counterclockwise*
0 Add horizontal line*
21,1,$1,$2,0,0,$3*%
%AMFreePoly0*
4,1,5,0.100025,-0.600051,-0.099975,-0.600051,-0.099975,0.049911,0.100025,0.249886,0.100025,-0.600051,0.100025,-0.600051,$1*%
%AMFreePoly1*
4,1,5,0.099975,0.049936,0.099975,-0.600025,-0.100025,-0.600025,-0.100025,0.249911,0.099975,0.049936,0.099975,0.049936,$1*%
%AMFreePoly2*
4,1,5,0.599924,-0.100000,-0.050038,-0.100000,-0.250013,0.100000,0.599924,0.100000,0.599924,-0.100000,0.599924,-0.100000,$1*%
%AMFreePoly3*
4,1,5,0.600025,-0.100025,-0.249911,-0.100025,-0.049936,0.099975,0.600025,0.099975,0.600025,-0.100025,0.600025,-0.100025,$1*%
%AMFreePoly4*
4,1,5,0.100000,-0.050038,-0.100000,-0.250013,-0.100000,0.599924,0.100000,0.599924,0.100000,-0.050038,0.100000,-0.050038,$1*%
%AMFreePoly5*
4,1,5,0.100025,-0.249911,-0.099975,-0.049936,-0.099975,0.600025,0.100025,0.600025,0.100025,-0.249911,0.100025,-0.249911,$1*%
%AMFreePoly6*
4,1,5,0.250013,-0.100000,-0.599924,-0.100000,-0.599924,0.100000,0.050038,0.100000,0.250013,-0.100000,0.250013,-0.100000,$1*%
%AMFreePoly7*
4,1,5,0.050038,-0.099949,-0.599924,-0.099949,-0.599924,0.100051,0.250013,0.100051,0.050038,-0.099949,0.050038,-0.099949,$1*%
G04 Aperture macros list end*
%TA.AperFunction,SMDPad,CuDef*%
%ADD10R,0.600000X0.380278*%
%TD*%
%TA.AperFunction,SMDPad,CuDef*%
%ADD11R,1.000000X0.700000*%
%TD*%
%TA.AperFunction,SMDPad,CuDef*%
%ADD12R,0.500000X0.650000*%
%TD*%
%TA.AperFunction,SMDPad,CuDef*%
%ADD13R,0.550000X0.550000*%
%TD*%
%TA.AperFunction,SMDPad,CuDef*%
%ADD14RotRect,0.800000X0.800000X315.000000*%
%TD*%
%TA.AperFunction,SMDPad,CuDef*%
%ADD15R,0.700000X1.050000*%
%TD*%
%TA.AperFunction,SMDPad,CuDef*%
%ADD16R,0.380278X0.600000*%
%TD*%
%TA.AperFunction,SMDPad,CuDef*%
%ADD17R,1.070000X0.600000*%
%TD*%
%TA.AperFunction,SMDPad,CuDef*%
%ADD18RotRect,0.660000X0.700000X135.000000*%
%TD*%
%TA.AperFunction,SMDPad,CuDef*%
%ADD19R,1.000000X1.100000*%
%TD*%
%TA.AperFunction,SMDPad,CuDef*%
%ADD20R,0.455278X0.600000*%
%TD*%
%TA.AperFunction,SMDPad,CuDef*%
%ADD21R,0.320000X0.700000*%
%TD*%
%TA.AperFunction,SMDPad,CuDef*%
%ADD22R,0.600000X0.417778*%
%TD*%
%TA.AperFunction,SMDPad,CuDef*%
%ADD23R,5.500000X1.300000*%
%TD*%
%TA.AperFunction,ComponentPad*%
%ADD24C,1.700000*%
%TD*%
%TA.AperFunction,ComponentPad*%
%ADD25O,3.000000X3.300000*%
%TD*%
%TA.AperFunction,SMDPad,CuDef*%
%ADD26R,0.280000X0.665000*%
%TD*%
%TA.AperFunction,SMDPad,CuDef*%
%ADD27R,0.665000X0.280000*%
%TD*%
%TA.AperFunction,SMDPad,CuDef*%
%ADD28R,1.680000X1.680000*%
%TD*%
%TA.AperFunction,SMDPad,CuDef*%
%ADD29R,0.417778X0.600000*%
%TD*%
%TA.AperFunction,SMDPad,CuDef*%
%ADD30R,1.250000X0.700000*%
%TD*%
%TA.AperFunction,SMDPad,CuDef*%
%ADD31O,2.250000X0.630000*%
%TD*%
%TA.AperFunction,ComponentPad*%
%ADD32C,1.520000*%
%TD*%
%TA.AperFunction,SMDPad,CuDef*%
%ADD33FreePoly0,0.000000*%
%TD*%
%TA.AperFunction,SMDPad,CuDef*%
%ADD34R,0.200000X0.900000*%
%TD*%
%TA.AperFunction,SMDPad,CuDef*%
%ADD35FreePoly1,0.000000*%
%TD*%
%TA.AperFunction,SMDPad,CuDef*%
%ADD36FreePoly2,0.000000*%
%TD*%
%TA.AperFunction,SMDPad,CuDef*%
%ADD37R,0.900000X0.200000*%
%TD*%
%TA.AperFunction,SMDPad,CuDef*%
%ADD38FreePoly3,0.000000*%
%TD*%
%TA.AperFunction,SMDPad,CuDef*%
%ADD39FreePoly4,0.000000*%
%TD*%
%TA.AperFunction,SMDPad,CuDef*%
%ADD40FreePoly5,0.000000*%
%TD*%
%TA.AperFunction,SMDPad,CuDef*%
%ADD41FreePoly6,0.000000*%
%TD*%
%TA.AperFunction,SMDPad,CuDef*%
%ADD42FreePoly7,0.000000*%
%TD*%
%TA.AperFunction,SMDPad,CuDef*%
%ADD43R,2.450013X2.450013*%
%TD*%
%TA.AperFunction,SMDPad,CuDef*%
%ADD44R,0.700000X1.250000*%
%TD*%
%TA.AperFunction,SMDPad,CuDef*%
%ADD45R,0.512132X0.950000*%
%TD*%
%TA.AperFunction,SMDPad,CuDef*%
%ADD46R,0.600000X0.367778*%
%TD*%
%TA.AperFunction,SMDPad,CuDef*%
%ADD47R,1.100000X0.200000*%
%TD*%
%TA.AperFunction,SMDPad,CuDef*%
%ADD48R,0.200000X1.100000*%
%TD*%
%TA.AperFunction,SMDPad,CuDef*%
%ADD49R,3.100000X3.100000*%
%TD*%
%TA.AperFunction,SMDPad,CuDef*%
%ADD50R,0.600000X0.455278*%
%TD*%
%TA.AperFunction,SMDPad,CuDef*%
%ADD51R,0.500000X1.300000*%
%TD*%
%TA.AperFunction,SMDPad,CuDef*%
%ADD52R,0.350000X1.300000*%
%TD*%
%TA.AperFunction,ComponentPad*%
%ADD53O,1.000000X1.600000*%
%TD*%
%TA.AperFunction,ComponentPad*%
%ADD54O,1.000000X1.800000*%
%TD*%
%TA.AperFunction,SMDPad,CuDef*%
%ADD55O,0.630000X1.865000*%
%TD*%
%TA.AperFunction,SMDPad,CuDef*%
%ADD56R,0.457778X0.600000*%
%TD*%
%TA.AperFunction,SMDPad,CuDef*%
%ADD57R,0.367778X0.600000*%
%TD*%
%TA.AperFunction,SMDPad,CuDef*%
%ADD58R,0.600000X0.372778*%
%TD*%
%TA.AperFunction,SMDPad,CuDef*%
%ADD59R,0.680000X0.250000*%
%TD*%
%TA.AperFunction,SMDPad,CuDef*%
%ADD60R,0.900000X1.700000*%
%TD*%
%TA.AperFunction,SMDPad,CuDef*%
%ADD61R,0.800000X3.000000*%
%TD*%
%TA.AperFunction,SMDPad,CuDef*%
%ADD62R,0.372778X0.600000*%
%TD*%
%TA.AperFunction,SMDPad,CuDef*%
%ADD63R,0.600000X0.457778*%
%TD*%
%TA.AperFunction,SMDPad,CuDef*%
%ADD64R,0.900000X1.800000*%
%TD*%
%TA.AperFunction,SMDPad,CuDef*%
%ADD65R,1.100000X0.930000*%
%TD*%
%TA.AperFunction,SMDPad,CuDef*%
%ADD66R,1.000000X0.600000*%
%TD*%
%TA.AperFunction,ViaPad*%
%ADD67C,0.460000*%
%TD*%
%TA.AperFunction,Conductor*%
%ADD68C,0.090000*%
%TD*%
%TA.AperFunction,Conductor*%
%ADD69C,0.200000*%
%TD*%
%TA.AperFunction,Conductor*%
%ADD70C,0.381000*%
%TD*%
%TA.AperFunction,Conductor*%
%ADD71C,0.254000*%
%TD*%
G04 APERTURE END LIST*
D10*
%TO.P,R4,1,1*%
%TO.N,Net-(U1-CHG_NOT)*%
X108339169Y-119565500D03*
%TO.P,R4,2,2*%
%TO.N,Net-(D1-Padc)*%
X108339169Y-120485222D03*
%TD*%
D11*
%TO.P,Q5,1,D0*%
%TO.N,Net-(LED20-A)*%
X99822695Y-112196955D03*
%TO.P,Q5,2,D1*%
X99822695Y-113146955D03*
%TO.P,Q5,3,G*%
%TO.N,Net-(Q4-C)*%
X99822695Y-114096955D03*
%TO.P,Q5,4,S*%
%TO.N,P4V2*%
X102222695Y-114096955D03*
%TO.P,Q5,5,D2*%
%TO.N,Net-(LED20-A)*%
X102222695Y-113146955D03*
%TO.P,Q5,6,D3*%
X102222695Y-112196955D03*
%TD*%
D12*
%TO.P,U8,5,SHT*%
%TO.N,tof-en_gpio*%
X112412863Y-102620425D03*
%TO.P,U8,4,GND2*%
%TO.N,GND*%
X111612863Y-102620425D03*
%TO.P,U8,3,GND*%
X110812863Y-102620425D03*
%TO.P,U8,2,VSS*%
X110012863Y-102620425D03*
%TO.P,U8,1,VDD*%
%TO.N,VDD*%
X109212863Y-102620425D03*
%TO.P,U8,11,AVDD*%
X109212863Y-104371425D03*
%TO.P,U8,10,SCL*%
%TO.N,tof-i2c_scl*%
X110012863Y-104371425D03*
%TO.P,U8,9,SDA*%
%TO.N,tof-i2c_sda*%
X110812863Y-104371425D03*
%TO.P,U8,8,DNC*%
%TO.N,unconnected-(U8-DNC-Pad8)*%
X111612863Y-104371425D03*
%TO.P,U8,7,GP1*%
%TO.N,unconnected-(U8-GP1-Pad7)*%
X112412863Y-104371425D03*
D13*
%TO.P,U8,12,GND4*%
%TO.N,GND*%
X109212863Y-103495425D03*
%TO.P,U8,6,GND3*%
X112412863Y-103495425D03*
%TD*%
D14*
%TO.P,LED17,2,K*%
%TO.N,drive6_gpio*%
X96481898Y-122405452D03*
%TO.P,LED17,1,A*%
%TO.N,Net-(LED11-A)*%
X95278402Y-123608948D03*
%TD*%
%TO.P,LED28,2,K*%
%TO.N,drive8_gpio*%
X89464836Y-110308424D03*
%TO.P,LED28,1,A*%
%TO.N,Net-(LED20-A)*%
X88261340Y-111511920D03*
%TD*%
D15*
%TO.P,SW4,1,1*%
%TO.N,Net-(D4-K)*%
X190321250Y-131707966D03*
%TO.P,SW4,2,2*%
%TO.N,unconnected-(SW4-Pad2)*%
X190321250Y-127507966D03*
%TO.P,SW4,3,3*%
%TO.N,rows0_gpio*%
X192470250Y-131707966D03*
%TO.P,SW4,4,4*%
%TO.N,unconnected-(SW4-Pad4)*%
X192470250Y-127507966D03*
%TD*%
D16*
%TO.P,R8,1,1*%
%TO.N,Net-(U1-EN1)*%
X109094234Y-116392923D03*
%TO.P,R8,2,2*%
%TO.N,VBAT*%
X108174512Y-116392923D03*
%TD*%
D17*
%TO.P,Q1,1,G*%
%TO.N,VDD*%
X167657952Y-100645161D03*
%TO.P,Q1,2,S*%
%TO.N,led-data_gpio*%
X167657952Y-102544161D03*
%TO.P,Q1,3,D*%
%TO.N,Net-(LED1-DI)*%
X170127952Y-101594161D03*
%TD*%
D14*
%TO.P,LED12,2,K*%
%TO.N,drive1_gpio*%
X92981898Y-129405452D03*
%TO.P,LED12,1,A*%
%TO.N,Net-(LED11-A)*%
X91778402Y-130608948D03*
%TD*%
%TO.P,LED23,2,K*%
%TO.N,drive3_gpio*%
X96464836Y-113808424D03*
%TO.P,LED23,1,A*%
%TO.N,Net-(LED20-A)*%
X95261340Y-115011920D03*
%TD*%
D18*
%TO.P,LED36,4,R*%
%TO.N,rgb-drive21_gpio*%
X98036650Y-90379286D03*
%TO.P,LED36,3,G*%
%TO.N,rgb-drive22_gpio*%
X97329543Y-91086392D03*
%TO.P,LED36,2,B*%
%TO.N,rgb-drive23_gpio*%
X96155746Y-89912595D03*
%TO.P,LED36,1,1*%
%TO.N,P4V2*%
X96862853Y-89205488D03*
%TD*%
D19*
%TO.P,D11,1,K*%
%TO.N,Net-(D11-K)*%
X180908250Y-105371466D03*
%TO.P,D11,2,A*%
%TO.N,cols3_gpio*%
X180908250Y-108841466D03*
%TD*%
D20*
%TO.P,C7,1,1*%
%TO.N,VDD*%
X145746212Y-114051061D03*
%TO.P,C7,2,2*%
%TO.N,GND*%
X146740934Y-114051061D03*
%TD*%
D21*
%TO.P,LED5,1,BI*%
%TO.N,Net-(LED4-BO)*%
X173987828Y-115479456D03*
%TO.P,LED5,2,DI*%
%TO.N,Net-(LED4-DO)*%
X173357828Y-115479456D03*
%TO.P,LED5,3,VDD*%
%TO.N,P4V2*%
X172727828Y-115479456D03*
%TO.P,LED5,4,DO*%
%TO.N,Net-(LED5-DO)*%
X172727828Y-117359456D03*
%TO.P,LED5,5,BO*%
%TO.N,Net-(LED5-BO)*%
X173357828Y-117359456D03*
%TO.P,LED5,6,GND*%
%TO.N,GND*%
X173987828Y-117359456D03*
%TD*%
D16*
%TO.P,R35,1,1*%
%TO.N,rpi-led-i2c_scl*%
X104011268Y-105186422D03*
%TO.P,R35,2,2*%
%TO.N,VDD*%
X104930990Y-105186422D03*
%TD*%
%TO.P,R23,1,1*%
%TO.N,Net-(Q2-C)*%
X104696064Y-123330120D03*
%TO.P,R23,2,2*%
%TO.N,P4V2*%
X103776342Y-123330120D03*
%TD*%
D22*
%TO.P,C27,1,1*%
%TO.N,GND*%
X107500780Y-104754738D03*
%TO.P,C27,2,2*%
%TO.N,VDD*%
X107500780Y-105711960D03*
%TD*%
%TO.P,C1,1,1*%
%TO.N,Net-(USB1-SHELL0)*%
X133931997Y-131762317D03*
%TO.P,C1,2,2*%
%TO.N,GND*%
X133931997Y-130805095D03*
%TD*%
D16*
%TO.P,R5,1,1*%
%TO.N,Net-(U1-PGOOD_NOT)*%
X109095899Y-117336240D03*
%TO.P,R5,2,2*%
%TO.N,Net-(D2-Padc)*%
X108176177Y-117336240D03*
%TD*%
D18*
%TO.P,LED31,4,R*%
%TO.N,rgb-drive6_gpio*%
X91036650Y-86879286D03*
%TO.P,LED31,3,G*%
%TO.N,rgb-drive7_gpio*%
X90329543Y-87586392D03*
%TO.P,LED31,2,B*%
%TO.N,rgb-drive8_gpio*%
X89155746Y-86412595D03*
%TO.P,LED31,1,1*%
%TO.N,P4V2*%
X89862853Y-85705488D03*
%TD*%
D22*
%TO.P,C5,1,1*%
%TO.N,GND*%
X110302048Y-109913728D03*
%TO.P,C5,2,2*%
%TO.N,P4V2*%
X110302048Y-108956506D03*
%TD*%
D23*
%TO.P,X1,1,1*%
%TO.N,Net-(U3-XIN)*%
X135456573Y-101731061D03*
%TO.P,X1,2,2*%
%TO.N,Net-(C11-Pad1)*%
X126350573Y-101731061D03*
%TD*%
D15*
%TO.P,SW7,1,1*%
%TO.N,Net-(D7-K)*%
X190321250Y-109207966D03*
%TO.P,SW7,2,2*%
%TO.N,unconnected-(SW7-Pad2)*%
X190321250Y-105007966D03*
%TO.P,SW7,3,3*%
%TO.N,rows0_gpio*%
X192470250Y-109207966D03*
%TO.P,SW7,4,4*%
%TO.N,unconnected-(SW7-Pad4)*%
X192470250Y-105007966D03*
%TD*%
D24*
%TO.P,R29,1,1*%
%TO.N,VDD*%
X165700513Y-95799691D03*
%TO.P,R29,2,2*%
%TO.N,in_adc3*%
X168200513Y-95799691D03*
%TO.P,R29,3,3*%
%TO.N,GND*%
X170700513Y-95799691D03*
D25*
%TO.P,R29,4,4*%
%TO.N,unconnected-(R29-Pad4)*%
X173200513Y-88799691D03*
%TO.P,R29,5,5*%
%TO.N,unconnected-(R29-Pad5)*%
X163200513Y-88799691D03*
%TD*%
D16*
%TO.P,R9,1,1*%
%TO.N,Net-(U1-EN2)*%
X109099099Y-115443396D03*
%TO.P,R9,2,2*%
%TO.N,GND*%
X108179377Y-115443396D03*
%TD*%
%TO.P,R24,1,1*%
%TO.N,enable1_gpio*%
X104921655Y-118326256D03*
%TO.P,R24,2,2*%
%TO.N,Net-(Q4-B)*%
X104001933Y-118326256D03*
%TD*%
D19*
%TO.P,D6,2,A*%
%TO.N,cols2_gpio*%
X188408250Y-116341466D03*
%TO.P,D6,1,K*%
%TO.N,Net-(D6-K)*%
X188408250Y-112871466D03*
%TD*%
D26*
%TO.P,U1,1,TS*%
%TO.N,Net-(U1-TS)*%
X112300876Y-115362684D03*
%TO.P,U1,2,BAT0*%
%TO.N,VBAT*%
X111800876Y-115362684D03*
%TO.P,U1,3,BAT1*%
X111300876Y-115362684D03*
%TO.P,U1,4,CE_NOT*%
%TO.N,Net-(U1-CE_NOT)*%
X110800876Y-115362684D03*
%TO.P,U1,9,CHG_NOT*%
%TO.N,Net-(U1-CHG_NOT)*%
X110800876Y-118177684D03*
%TO.P,U1,10,OUT0*%
%TO.N,SW-VOUT*%
X111300876Y-118177684D03*
%TO.P,U1,11,OUT1*%
X111800876Y-118177684D03*
%TO.P,U1,12,ILIM*%
%TO.N,Net-(U1-ILIM)*%
X112300876Y-118177684D03*
D27*
%TO.P,U1,5,EN2*%
%TO.N,Net-(U1-EN2)*%
X110143876Y-116019684D03*
%TO.P,U1,6,EN1*%
%TO.N,Net-(U1-EN1)*%
X110143876Y-116520684D03*
%TO.P,U1,7,PGOOD_NOT*%
%TO.N,Net-(U1-PGOOD_NOT)*%
X110143876Y-117019684D03*
%TO.P,U1,8,VSS*%
%TO.N,GND*%
X110143876Y-117520684D03*
%TO.P,U1,13,IN*%
%TO.N,VBUS*%
X112957876Y-117520684D03*
%TO.P,U1,14,TMR*%
%TO.N,unconnected-(U1-TMR-Pad14)*%
X112957876Y-117019684D03*
%TO.P,U1,15,SYSOFF*%
%TO.N,GND*%
X112957876Y-116520684D03*
%TO.P,U1,16,ISET*%
%TO.N,Net-(U1-ISET)*%
X112957876Y-116019684D03*
D28*
%TO.P,U1,17,EP*%
%TO.N,GND*%
X111550876Y-116769684D03*
%TD*%
D21*
%TO.P,LED1,1,BI*%
%TO.N,GND*%
X173987828Y-103479456D03*
%TO.P,LED1,2,DI*%
%TO.N,Net-(LED1-DI)*%
X173357828Y-103479456D03*
%TO.P,LED1,3,VDD*%
%TO.N,P4V2*%
X172727828Y-103479456D03*
%TO.P,LED1,4,DO*%
%TO.N,Net-(LED1-DO)*%
X172727828Y-105359456D03*
%TO.P,LED1,5,BO*%
%TO.N,Net-(LED1-BO)*%
X173357828Y-105359456D03*
%TO.P,LED1,6,GND*%
%TO.N,GND*%
X173987828Y-105359456D03*
%TD*%
D14*
%TO.P,LED19,2,K*%
%TO.N,drive8_gpio*%
X89481898Y-122405452D03*
%TO.P,LED19,1,A*%
%TO.N,Net-(LED11-A)*%
X88278402Y-123608948D03*
%TD*%
D29*
%TO.P,C18,1,1*%
%TO.N,VDD*%
X126385784Y-116367861D03*
%TO.P,C18,2,2*%
%TO.N,GND*%
X125428562Y-116367861D03*
%TD*%
D21*
%TO.P,LED8,1,BI*%
%TO.N,Net-(LED7-BO)*%
X173987828Y-124479456D03*
%TO.P,LED8,2,DI*%
%TO.N,Net-(LED7-DO)*%
X173357828Y-124479456D03*
%TO.P,LED8,3,VDD*%
%TO.N,P4V2*%
X172727828Y-124479456D03*
%TO.P,LED8,4,DO*%
%TO.N,Net-(LED8-DO)*%
X172727828Y-126359456D03*
%TO.P,LED8,5,BO*%
%TO.N,Net-(LED8-BO)*%
X173357828Y-126359456D03*
%TO.P,LED8,6,GND*%
%TO.N,GND*%
X173987828Y-126359456D03*
%TD*%
D30*
%TO.P,Q7,1,G*%
%TO.N,VDD*%
X102653568Y-102297533D03*
%TO.P,Q7,2,S*%
%TO.N,rpi-led-i2c_sda*%
X102653568Y-100398533D03*
%TO.P,Q7,3,D*%
%TO.N,Net-(Q7-D)*%
X100653568Y-101348533D03*
%TD*%
D14*
%TO.P,LED14,2,K*%
%TO.N,drive3_gpio*%
X96481898Y-125905452D03*
%TO.P,LED14,1,A*%
%TO.N,Net-(LED11-A)*%
X95278402Y-127108948D03*
%TD*%
%TO.P,LED25,2,K*%
%TO.N,drive5_gpio*%
X89464836Y-113808424D03*
%TO.P,LED25,1,A*%
%TO.N,Net-(LED20-A)*%
X88261340Y-115011920D03*
%TD*%
D18*
%TO.P,LED37,4,R*%
%TO.N,rgb-drive24_gpio*%
X98036650Y-86879286D03*
%TO.P,LED37,3,G*%
%TO.N,rgb-drive25_gpio*%
X97329543Y-87586392D03*
%TO.P,LED37,2,B*%
%TO.N,rgb-drive26_gpio*%
X96155746Y-86412595D03*
%TO.P,LED37,1,1*%
%TO.N,P4V2*%
X96862853Y-85705488D03*
%TD*%
D16*
%TO.P,R14,1,1*%
%TO.N,VDD*%
X139103712Y-113801061D03*
%TO.P,R14,2,2*%
%TO.N,QSPI_SS*%
X140023434Y-113801061D03*
%TD*%
D22*
%TO.P,C10,1,1*%
%TO.N,Net-(U3-XIN)*%
X136944043Y-105418313D03*
%TO.P,C10,2,2*%
%TO.N,GND*%
X136944043Y-106375535D03*
%TD*%
%TO.P,C14,1,1*%
%TO.N,GND*%
X126975412Y-105718057D03*
%TO.P,C14,2,2*%
%TO.N,Net-(U3-DVDD0)*%
X126975412Y-106675279D03*
%TD*%
D16*
%TO.P,R36,1,1*%
%TO.N,/4: led-drive_u/SCL*%
X100861247Y-108290658D03*
%TO.P,R36,2,2*%
%TO.N,P4V2*%
X101780969Y-108290658D03*
%TD*%
D14*
%TO.P,LED20,2,K*%
%TO.N,drive0_gpio*%
X96464836Y-117308424D03*
%TO.P,LED20,1,A*%
%TO.N,Net-(LED20-A)*%
X95261340Y-118511920D03*
%TD*%
D15*
%TO.P,SW10,1,1*%
%TO.N,Net-(D10-K)*%
X182821250Y-116707966D03*
%TO.P,SW10,2,2*%
%TO.N,unconnected-(SW10-Pad2)*%
X182821250Y-112507966D03*
%TO.P,SW10,3,3*%
%TO.N,rows1_gpio*%
X184970250Y-116707966D03*
%TO.P,SW10,4,4*%
%TO.N,unconnected-(SW10-Pad4)*%
X184970250Y-112507966D03*
%TD*%
D31*
%TO.P,U4,1,NOT_CS*%
%TO.N,QSPI_SS*%
X138803073Y-115576061D03*
%TO.P,U4,2,DO_IO1*%
%TO.N,QSPI_SD1*%
X138803073Y-116846061D03*
%TO.P,U4,3,IO2*%
%TO.N,QSPI_SD2*%
X138803073Y-118116061D03*
%TO.P,U4,4,GND*%
%TO.N,GND*%
X138803073Y-119386061D03*
%TO.P,U4,8,VCC*%
%TO.N,VDD*%
X145864073Y-115576061D03*
%TO.P,U4,7,IO*%
%TO.N,QSPI_SD3*%
X145864073Y-116846061D03*
%TO.P,U4,6,CLK*%
%TO.N,QSPI_SCLK*%
X145864073Y-118116061D03*
%TO.P,U4,5,DI_IO0*%
%TO.N,QSPI_SD0*%
X145864073Y-119386061D03*
%TD*%
D16*
%TO.P,R25,1,1*%
%TO.N,Net-(Q4-C)*%
X104646644Y-114125173D03*
%TO.P,R25,2,2*%
%TO.N,P4V2*%
X103726922Y-114125173D03*
%TD*%
D18*
%TO.P,LED32,4,R*%
%TO.N,rgb-drive9_gpio*%
X94536650Y-93879286D03*
%TO.P,LED32,3,G*%
%TO.N,rgb-drive10_gpio*%
X93829543Y-94586392D03*
%TO.P,LED32,2,B*%
%TO.N,rgb-drive11_gpio*%
X92655746Y-93412595D03*
%TO.P,LED32,1,1*%
%TO.N,P4V2*%
X93362853Y-92705488D03*
%TD*%
D19*
%TO.P,D9,2,A*%
%TO.N,cols1_gpio*%
X180908250Y-123841466D03*
%TO.P,D9,1,K*%
%TO.N,Net-(D9-K)*%
X180908250Y-120371466D03*
%TD*%
D22*
%TO.P,C6,1,1*%
%TO.N,GND*%
X116277722Y-110084966D03*
%TO.P,C6,2,2*%
%TO.N,VDD*%
X116277722Y-109127744D03*
%TD*%
D32*
%TO.P,J2,1,1*%
%TO.N,Net-(U3-SWD)*%
X124231509Y-108583566D03*
%TO.P,J2,2,2*%
%TO.N,Net-(U3-SWCLK)*%
X124231509Y-106043566D03*
%TD*%
D33*
%TO.P,U6,1,OUT3*%
%TO.N,drive2_gpio*%
X90215444Y-105158087D03*
D34*
%TO.P,U6,2,OUT4*%
%TO.N,drive5_gpio*%
X90615495Y-105308201D03*
%TO.P,U6,3,OUT5*%
%TO.N,drive8_gpio*%
X91015546Y-105308201D03*
%TO.P,U6,4,OUT6*%
%TO.N,drive1_gpio*%
X91415342Y-105308201D03*
%TO.P,U6,5,OUT7*%
%TO.N,drive4_gpio*%
X91815393Y-105308201D03*
%TO.P,U6,6,OUT8*%
%TO.N,drive7_gpio*%
X92215444Y-105308201D03*
%TO.P,U6,7,OUT9*%
%TO.N,drive0_gpio*%
X92615495Y-105308201D03*
%TO.P,U6,8,OUT10*%
%TO.N,drive3_gpio*%
X93015546Y-105308201D03*
%TO.P,U6,9,OUT11*%
%TO.N,drive6_gpio*%
X93415342Y-105308201D03*
%TO.P,U6,10,OUT12*%
%TO.N,rgb-drive25_gpio*%
X93815393Y-105308201D03*
D35*
%TO.P,U6,11,OUT13*%
%TO.N,rgb-drive24_gpio*%
X94215444Y-105158087D03*
D36*
%TO.P,U6,12,OUT14*%
%TO.N,rgb-drive26_gpio*%
X94601525Y-104772260D03*
D37*
%TO.P,U6,13,OUT15*%
%TO.N,rgb-drive18_gpio*%
X94751385Y-104372209D03*
%TO.P,U6,14,OUT16*%
%TO.N,rgb-drive20_gpio*%
X94751385Y-103972158D03*
%TO.P,U6,15,OUT17*%
%TO.N,rgb-drive21_gpio*%
X94751385Y-103572108D03*
%TO.P,U6,16,OUT18*%
%TO.N,rgb-drive19_gpio*%
X94751385Y-103172057D03*
%TO.P,U6,17,GND0*%
%TO.N,GND*%
X94751385Y-102772260D03*
%TO.P,U6,18,OUT19*%
%TO.N,rgb-drive23_gpio*%
X94751385Y-102372209D03*
%TO.P,U6,19,OUT20*%
%TO.N,rgb-drive22_gpio*%
X94751385Y-101972158D03*
%TO.P,U6,20,OUT21*%
%TO.N,rgb-drive17_gpio*%
X94751385Y-101572108D03*
%TO.P,U6,21,OUT22*%
%TO.N,rgb-drive16_gpio*%
X94751385Y-101172057D03*
D38*
%TO.P,U6,22,OUT23*%
%TO.N,rgb-drive15_gpio*%
X94601271Y-100772260D03*
D39*
%TO.P,U6,23,OUT24*%
%TO.N,rgb-drive9_gpio*%
X94215444Y-100386179D03*
D34*
%TO.P,U6,24,OUT25*%
%TO.N,rgb-drive10_gpio*%
X93815393Y-100236065D03*
%TO.P,U6,25,OUT26*%
%TO.N,rgb-drive12_gpio*%
X93415342Y-100236065D03*
%TO.P,U6,26,OUT27*%
%TO.N,rgb-drive13_gpio*%
X93015546Y-100236065D03*
%TO.P,U6,27,OUT28*%
%TO.N,rgb-drive11_gpio*%
X92615495Y-100236065D03*
%TO.P,U6,28,OUT29*%
%TO.N,rgb-drive14_gpio*%
X92215444Y-100236065D03*
%TO.P,U6,29,OUT30*%
%TO.N,rgb-drive6_gpio*%
X91815393Y-100236065D03*
%TO.P,U6,30,OUT31*%
%TO.N,rgb-drive1_gpio*%
X91415342Y-100236065D03*
%TO.P,U6,31,OUT32*%
%TO.N,rgb-drive0_gpio*%
X91015546Y-100236065D03*
%TO.P,U6,32,OUT33*%
%TO.N,rgb-drive4_gpio*%
X90615495Y-100236065D03*
D40*
%TO.P,U6,33,OUT34*%
%TO.N,rgb-drive3_gpio*%
X90215444Y-100386433D03*
D41*
%TO.P,U6,34,OUT35*%
%TO.N,rgb-drive5_gpio*%
X89829363Y-100772260D03*
D37*
%TO.P,U6,35,OUT36*%
%TO.N,rgb-drive7_gpio*%
X89679503Y-101172057D03*
%TO.P,U6,36,SDB*%
%TO.N,P4V2*%
X89679503Y-101572108D03*
%TO.P,U6,37,AD*%
%TO.N,GND*%
X89679503Y-101972158D03*
%TO.P,U6,38,VCC*%
%TO.N,P4V2*%
X89679503Y-102372209D03*
%TO.P,U6,39,GND1*%
%TO.N,GND*%
X89679503Y-102772260D03*
%TO.P,U6,40,R-EXT*%
%TO.N,Net-(U6-R-EXT)*%
X89679503Y-103172057D03*
%TO.P,U6,41,SDA*%
%TO.N,Net-(Q7-D)*%
X89679503Y-103572108D03*
%TO.P,U6,42,SCL*%
%TO.N,/4: led-drive_u/SCL*%
X89679503Y-103972158D03*
%TO.P,U6,43,OUT1*%
%TO.N,rgb-drive2_gpio*%
X89679503Y-104372209D03*
D42*
%TO.P,U6,44,OUT2*%
%TO.N,rgb-drive8_gpio*%
X89829363Y-104772260D03*
D43*
%TO.P,U6,45,EPAD*%
%TO.N,GND*%
X92215444Y-102772260D03*
%TD*%
D44*
%TO.P,Q2,2,B*%
%TO.N,Net-(Q2-B)*%
X102105244Y-124853241D03*
%TO.P,Q2,1,E*%
%TO.N,GND*%
X100205244Y-124853241D03*
%TO.P,Q2,3,C*%
%TO.N,Net-(Q2-C)*%
X101155244Y-127352241D03*
%TD*%
D24*
%TO.P,R27,1,1*%
%TO.N,Net-(C25-Pad1)*%
X159343123Y-100595783D03*
%TO.P,R27,2,2*%
%TO.N,Net-(C24-Pad1)*%
X156843123Y-100595783D03*
%TO.P,R27,3,3*%
%TO.N,Net-(C23-Pad1)*%
X154343123Y-100595783D03*
D25*
%TO.P,R27,4,4*%
%TO.N,unconnected-(R27-Pad4)*%
X151843123Y-107595783D03*
%TO.P,R27,5,5*%
%TO.N,unconnected-(R27-Pad5)*%
X161843123Y-107595783D03*
%TD*%
D29*
%TO.P,C16,1,1*%
%TO.N,VDD*%
X135084962Y-111661061D03*
%TO.P,C16,2,2*%
%TO.N,GND*%
X136042184Y-111661061D03*
%TD*%
D21*
%TO.P,LED4,1,BI*%
%TO.N,Net-(LED3-BO)*%
X173987828Y-112479456D03*
%TO.P,LED4,2,DI*%
%TO.N,Net-(LED3-DO)*%
X173357828Y-112479456D03*
%TO.P,LED4,3,VDD*%
%TO.N,P4V2*%
X172727828Y-112479456D03*
%TO.P,LED4,4,DO*%
%TO.N,Net-(LED4-DO)*%
X172727828Y-114359456D03*
%TO.P,LED4,5,BO*%
%TO.N,Net-(LED4-BO)*%
X173357828Y-114359456D03*
%TO.P,LED4,6,GND*%
%TO.N,GND*%
X173987828Y-114359456D03*
%TD*%
D16*
%TO.P,R20,1,1*%
%TO.N,rpi-led-i2c_sda*%
X104113597Y-100412562D03*
%TO.P,R20,2,2*%
%TO.N,VDD*%
X105033319Y-100412562D03*
%TD*%
D22*
%TO.P,C23,1,1*%
%TO.N,Net-(C23-Pad1)*%
X164503060Y-129387682D03*
%TO.P,C23,2,2*%
%TO.N,GND*%
X164503060Y-128430460D03*
%TD*%
D45*
%TO.P,D2,c,c*%
%TO.N,Net-(D2-Padc)*%
X108749329Y-121825874D03*
%TO.P,D2,a,a*%
%TO.N,SW-VOUT*%
X110187197Y-121825874D03*
%TD*%
D15*
%TO.P,SW5,1,1*%
%TO.N,Net-(D5-K)*%
X190321250Y-124207966D03*
%TO.P,SW5,2,2*%
%TO.N,unconnected-(SW5-Pad2)*%
X190321250Y-120007966D03*
%TO.P,SW5,3,3*%
%TO.N,rows0_gpio*%
X192470250Y-124207966D03*
%TO.P,SW5,4,4*%
%TO.N,unconnected-(SW5-Pad4)*%
X192470250Y-120007966D03*
%TD*%
D10*
%TO.P,R1,1,1*%
%TO.N,Net-(USB1-CC1)*%
X122226778Y-126599060D03*
%TO.P,R1,2,2*%
%TO.N,GND*%
X122226778Y-127518782D03*
%TD*%
D46*
%TO.P,R10,1,1*%
%TO.N,Net-(U1-ILIM)*%
X113414309Y-119207974D03*
%TO.P,R10,2,2*%
%TO.N,GND*%
X113414309Y-120115196D03*
%TD*%
D47*
%TO.P,U3,1,IOVDD5*%
%TO.N,VDD*%
X133973738Y-115271137D03*
%TO.P,U3,2,GPIO0*%
%TO.N,pwm_timer*%
X133973738Y-114871086D03*
%TO.P,U3,3,GPIO1*%
%TO.N,audio-enable_gpio*%
X133973738Y-114471036D03*
%TO.P,U3,4,GPIO2*%
%TO.N,unconnected-(U3-GPIO2-Pad4)*%
X133973738Y-114070985D03*
%TO.P,U3,5,GPIO3*%
%TO.N,cols2_gpio*%
X133973738Y-113671188D03*
%TO.P,U3,6,GPIO4*%
%TO.N,unconnected-(U3-GPIO4-Pad6)*%
X133973738Y-113271137D03*
%TO.P,U3,7,GPIO5*%
%TO.N,cols0_gpio*%
X133973738Y-112871086D03*
%TO.P,U3,8,GPIO6*%
%TO.N,cols1_gpio*%
X133973738Y-112471036D03*
%TO.P,U3,9,GPIO7*%
%TO.N,unconnected-(U3-GPIO7-Pad9)*%
X133973738Y-112070985D03*
%TO.P,U3,10,IOVDD4*%
%TO.N,VDD*%
X133973738Y-111671188D03*
%TO.P,U3,11,GPIO8*%
%TO.N,rows0_gpio*%
X133973738Y-111271137D03*
%TO.P,U3,12,GPIO9*%
%TO.N,unconnected-(U3-GPIO9-Pad12)*%
X133973738Y-110871086D03*
%TO.P,U3,13,GPIO10*%
%TO.N,unconnected-(U3-GPIO10-Pad13)*%
X133973738Y-110471036D03*
%TO.P,U3,14,GPIO11*%
%TO.N,rows1_gpio*%
X133973738Y-110070985D03*
D48*
%TO.P,U3,15,GPIO12*%
%TO.N,cols3_gpio*%
X133023522Y-109121023D03*
%TO.P,U3,16,GPIO13*%
%TO.N,unconnected-(U3-GPIO13-Pad16)*%
X132623725Y-109121023D03*
%TO.P,U3,17,GPIO14*%
%TO.N,led-data_gpio*%
X132223675Y-109121023D03*
%TO.P,U3,18,GPIO15*%
%TO.N,unconnected-(U3-GPIO15-Pad18)*%
X131823624Y-109121023D03*
%TO.P,U3,19,TESTEN*%
%TO.N,unconnected-(U3-TESTEN-Pad19)*%
X131423573Y-109121023D03*
%TO.P,U3,20,XIN*%
%TO.N,Net-(U3-XIN)*%
X131023522Y-109121023D03*
%TO.P,U3,21,XOUT*%
%TO.N,Net-(U3-XOUT)*%
X130623725Y-109121023D03*
%TO.P,U3,22,IOVDD3*%
%TO.N,VDD*%
X130223675Y-109121023D03*
%TO.P,U3,23,DVDD1*%
%TO.N,Net-(U3-DVDD0)*%
X129823624Y-109121023D03*
%TO.P,U3,24,SWCLK*%
%TO.N,Net-(U3-SWCLK)*%
X129423573Y-109121023D03*
%TO.P,U3,25,SWD*%
%TO.N,Net-(U3-SWD)*%
X129023522Y-109121023D03*
%TO.P,U3,26,RUN*%
%TO.N,Net-(U3-RUN)*%
X128623725Y-109121023D03*
%TO.P,U3,27,GPIO16*%
%TO.N,unconnected-(U3-GPIO16-Pad27)*%
X128223675Y-109121023D03*
%TO.P,U3,28,GPIO17*%
%TO.N,tof-en_gpio*%
X127823624Y-109121023D03*
D47*
%TO.P,U3,29,GPIO18*%
%TO.N,tof-i2c_sda*%
X126873408Y-110070985D03*
%TO.P,U3,30,GPIO19*%
%TO.N,tof-i2c_scl*%
X126873408Y-110471036D03*
%TO.P,U3,31,GPIO20*%
%TO.N,rpi-led-i2c_sda*%
X126873408Y-110871086D03*
%TO.P,U3,32,GPIO21*%
%TO.N,rpi-led-i2c_scl*%
X126873408Y-111271137D03*
%TO.P,U3,33,IOVDD2*%
%TO.N,VDD*%
X126873408Y-111671188D03*
%TO.P,U3,34,GPIO22*%
%TO.N,unconnected-(U3-GPIO22-Pad34)*%
X126873408Y-112070985D03*
%TO.P,U3,35,GPIO23*%
%TO.N,enable1_gpio*%
X126873408Y-112471036D03*
%TO.P,U3,36,GPIO24*%
%TO.N,unconnected-(U3-GPIO24-Pad36)*%
X126873408Y-112871086D03*
%TO.P,U3,37,GPIO25*%
%TO.N,enable0_gpio*%
X126873408Y-113271137D03*
%TO.P,U3,38,GPIO26*%
%TO.N,in_adc3*%
X126873408Y-113671188D03*
%TO.P,U3,39,GPIO27*%
%TO.N,in_adc1*%
X126873408Y-114070985D03*
%TO.P,U3,40,GPIO28*%
%TO.N,in_adc*%
X126873408Y-114471036D03*
%TO.P,U3,41,GPIO29*%
%TO.N,in_adc2*%
X126873408Y-114871086D03*
%TO.P,U3,42,IOVDD1*%
%TO.N,VDD*%
X126873408Y-115271137D03*
D48*
%TO.P,U3,43,ADC_AVDD*%
X127823624Y-116221099D03*
%TO.P,U3,44,VREG_IN*%
X128223675Y-116221099D03*
%TO.P,U3,45,VREG_VOUT*%
%TO.N,Net-(U3-DVDD0)*%
X128623725Y-116221099D03*
%TO.P,U3,46,USB_DM*%
%TO.N,/2: rpi_mcu/RP-USB-DM*%
X129023522Y-116221099D03*
%TO.P,U3,47,USB_DP*%
%TO.N,/2: rpi_mcu/RP-USB-DP*%
X129423573Y-116221099D03*
%TO.P,U3,48,USB_VDD*%
%TO.N,VDD*%
X129823624Y-116221099D03*
%TO.P,U3,49,IOVDD0*%
X130223675Y-116221099D03*
%TO.P,U3,50,DVDD0*%
%TO.N,Net-(U3-DVDD0)*%
X130623725Y-116221099D03*
%TO.P,U3,51,QSPI_SD3*%
%TO.N,QSPI_SD3*%
X131023522Y-116221099D03*
%TO.P,U3,52,QSPI_SCLK*%
%TO.N,QSPI_SCLK*%
X131423573Y-116221099D03*
%TO.P,U3,53,QSPI_SD0*%
%TO.N,QSPI_SD0*%
X131823624Y-116221099D03*
%TO.P,U3,54,QSPI_SD2*%
%TO.N,QSPI_SD2*%
X132223675Y-116221099D03*
%TO.P,U3,55,QSPI_SD1*%
%TO.N,QSPI_SD1*%
X132623725Y-116221099D03*
%TO.P,U3,56,QSPI_SS*%
%TO.N,QSPI_SS*%
X133023522Y-116221099D03*
D49*
%TO.P,U3,57,GND*%
%TO.N,GND*%
X130423573Y-112671188D03*
%TD*%
D10*
%TO.P,R12,1,1*%
%TO.N,RP-USB-NET-DN*%
X128803573Y-119570822D03*
%TO.P,R12,2,2*%
%TO.N,/2: rpi_mcu/RP-USB-DM*%
X128803573Y-118651100D03*
%TD*%
D14*
%TO.P,LED16,2,K*%
%TO.N,drive5_gpio*%
X89481898Y-125905452D03*
%TO.P,LED16,1,A*%
%TO.N,Net-(LED11-A)*%
X88278402Y-127108948D03*
%TD*%
%TO.P,LED27,2,K*%
%TO.N,drive7_gpio*%
X92964836Y-110308424D03*
%TO.P,LED27,1,A*%
%TO.N,Net-(LED20-A)*%
X91761340Y-111511920D03*
%TD*%
D19*
%TO.P,D4,2,A*%
%TO.N,cols0_gpio*%
X188408250Y-131341466D03*
%TO.P,D4,1,K*%
%TO.N,Net-(D4-K)*%
X188408250Y-127871466D03*
%TD*%
D24*
%TO.P,R31,1,1*%
%TO.N,VDD*%
X148743714Y-95817671D03*
%TO.P,R31,2,2*%
%TO.N,in_adc1*%
X151243714Y-95817671D03*
%TO.P,R31,3,3*%
%TO.N,GND*%
X153743714Y-95817671D03*
D25*
%TO.P,R31,4,4*%
%TO.N,unconnected-(R31-Pad4)*%
X156243714Y-88817671D03*
%TO.P,R31,5,5*%
%TO.N,unconnected-(R31-Pad5)*%
X146243714Y-88817671D03*
%TD*%
D22*
%TO.P,C11,1,1*%
%TO.N,Net-(C11-Pad1)*%
X128016000Y-104931389D03*
%TO.P,C11,2,2*%
%TO.N,GND*%
X128016000Y-105888611D03*
%TD*%
D29*
%TO.P,C15,1,1*%
%TO.N,GND*%
X136042184Y-115381061D03*
%TO.P,C15,2,2*%
%TO.N,VDD*%
X135084962Y-115381061D03*
%TD*%
D14*
%TO.P,LED11,2,K*%
%TO.N,drive0_gpio*%
X96481898Y-129405452D03*
%TO.P,LED11,1,A*%
%TO.N,Net-(LED11-A)*%
X95278402Y-130608948D03*
%TD*%
%TO.P,LED22,2,K*%
%TO.N,drive2_gpio*%
X89464836Y-117308424D03*
%TO.P,LED22,1,A*%
%TO.N,Net-(LED20-A)*%
X88261340Y-118511920D03*
%TD*%
D22*
%TO.P,C19,1,1*%
%TO.N,VDD*%
X129833573Y-107809672D03*
%TO.P,C19,2,2*%
%TO.N,GND*%
X129833573Y-106852450D03*
%TD*%
D18*
%TO.P,LED33,4,R*%
%TO.N,rgb-drive12_gpio*%
X94536650Y-90379286D03*
%TO.P,LED33,3,G*%
%TO.N,rgb-drive13_gpio*%
X93829543Y-91086392D03*
%TO.P,LED33,2,B*%
%TO.N,rgb-drive14_gpio*%
X92655746Y-89912595D03*
%TO.P,LED33,1,1*%
%TO.N,P4V2*%
X93362853Y-89205488D03*
%TD*%
D50*
%TO.P,C26,1,1*%
%TO.N,GND*%
X167305101Y-123925403D03*
%TO.P,C26,2,2*%
%TO.N,P4V2*%
X167305101Y-122930681D03*
%TD*%
D15*
%TO.P,SW3,1,1*%
%TO.N,CH4*%
X144221926Y-128768421D03*
%TO.P,SW3,2,2*%
%TO.N,unconnected-(SW3-Pad2)*%
X144221926Y-132968421D03*
%TO.P,SW3,3,3*%
%TO.N,GND*%
X142072926Y-128768421D03*
%TO.P,SW3,4,4*%
%TO.N,unconnected-(SW3-Pad4)*%
X142072926Y-132968421D03*
%TD*%
D21*
%TO.P,LED7,1,BI*%
%TO.N,Net-(LED6-BO)*%
X173987828Y-121479456D03*
%TO.P,LED7,2,DI*%
%TO.N,Net-(LED6-DO)*%
X173357828Y-121479456D03*
%TO.P,LED7,3,VDD*%
%TO.N,P4V2*%
X172727828Y-121479456D03*
%TO.P,LED7,4,DO*%
%TO.N,Net-(LED7-DO)*%
X172727828Y-123359456D03*
%TO.P,LED7,5,BO*%
%TO.N,Net-(LED7-BO)*%
X173357828Y-123359456D03*
%TO.P,LED7,6,GND*%
%TO.N,GND*%
X173987828Y-123359456D03*
%TD*%
D15*
%TO.P,SW8,1,1*%
%TO.N,Net-(D8-K)*%
X182821250Y-131707966D03*
%TO.P,SW8,2,2*%
%TO.N,unconnected-(SW8-Pad2)*%
X182821250Y-127507966D03*
%TO.P,SW8,3,3*%
%TO.N,rows1_gpio*%
X184970250Y-131707966D03*
%TO.P,SW8,4,4*%
%TO.N,unconnected-(SW8-Pad4)*%
X184970250Y-127507966D03*
%TD*%
D51*
%TO.P,USB1,1,GND0*%
%TO.N,GND*%
X124770552Y-127692680D03*
%TO.P,USB1,3,VBUS0*%
%TO.N,VBUS*%
X126040552Y-127692680D03*
%TO.P,USB1,10,VBUS1*%
X130060552Y-127692680D03*
%TO.P,USB1,12,GND1*%
%TO.N,GND*%
X131330552Y-127692680D03*
D52*
%TO.P,USB1,2,CC1*%
%TO.N,Net-(USB1-CC1)*%
X125400552Y-127692680D03*
%TO.P,USB1,4,D+0*%
%TO.N,RP-USB-NET-DP*%
X126675552Y-127692680D03*
%TO.P,USB1,5,SBU2*%
%TO.N,unconnected-(USB1-SBU2-Pad5)*%
X127225552Y-127692680D03*
%TO.P,USB1,6,D-0*%
%TO.N,RP-USB-NET-DN*%
X127775552Y-127692680D03*
%TO.P,USB1,7,D+1*%
%TO.N,RP-USB-NET-DP*%
X128325552Y-127692680D03*
%TO.P,USB1,8,CC2*%
%TO.N,Net-(USB1-CC2)*%
X128875552Y-127692680D03*
%TO.P,USB1,9,D-1*%
%TO.N,RP-USB-NET-DN*%
X129425552Y-127692680D03*
%TO.P,USB1,11,SBU1*%
%TO.N,unconnected-(USB1-SBU1-Pad11)*%
X130700552Y-127692680D03*
D53*
%TO.P,USB1,16,SHELL3*%
%TO.N,Net-(USB1-SHELL0)*%
X132375552Y-128164680D03*
%TO.P,USB1,13,SHELL0*%
X123725552Y-128164680D03*
D54*
%TO.P,USB1,15,SHELL2*%
X132375552Y-132104680D03*
%TO.P,USB1,14,SHELL1*%
X123725552Y-132104680D03*
%TD*%
D46*
%TO.P,R17,1,1*%
%TO.N,Net-(C11-Pad1)*%
X130743573Y-106867450D03*
%TO.P,R17,2,2*%
%TO.N,Net-(U3-XOUT)*%
X130743573Y-107774672D03*
%TD*%
D16*
%TO.P,R21,1,1*%
%TO.N,Net-(Q7-D)*%
X100449554Y-103531156D03*
%TO.P,R21,2,2*%
%TO.N,P4V2*%
X101369276Y-103531156D03*
%TD*%
D44*
%TO.P,Q4,3,C*%
%TO.N,Net-(Q4-C)*%
X101390662Y-118538267D03*
%TO.P,Q4,1,E*%
%TO.N,GND*%
X100440662Y-116039267D03*
%TO.P,Q4,2,B*%
%TO.N,Net-(Q4-B)*%
X102340662Y-116039267D03*
%TD*%
D19*
%TO.P,D7,2,A*%
%TO.N,cols3_gpio*%
X188408250Y-108841466D03*
%TO.P,D7,1,K*%
%TO.N,Net-(D7-K)*%
X188408250Y-105371466D03*
%TD*%
D55*
%TO.P,U7,1,SD_NOT*%
%TO.N,audio-enable_gpio*%
X165757590Y-120763977D03*
%TO.P,U7,2,NC*%
%TO.N,unconnected-(U7-NC-Pad2)*%
X164487590Y-120763977D03*
%TO.P,U7,3,IN+*%
%TO.N,Net-(U7-IN+)*%
X163217590Y-120763977D03*
%TO.P,U7,4,IN-*%
%TO.N,/6: rpi_flash/IN-*%
X161947590Y-120763977D03*
%TO.P,U7,8,VO-*%
%TO.N,Net-(U7-VO-)*%
X165757590Y-126128977D03*
%TO.P,U7,7,GND*%
%TO.N,GND*%
X164487590Y-126128977D03*
%TO.P,U7,6,VDD*%
%TO.N,P4V2*%
X163217590Y-126128977D03*
%TO.P,U7,5,VO+*%
%TO.N,Net-(U7-VO+)*%
X161947590Y-126128977D03*
%TD*%
D22*
%TO.P,C24,1,1*%
%TO.N,Net-(C24-Pad1)*%
X163513181Y-117427347D03*
%TO.P,C24,2,2*%
%TO.N,Net-(U7-IN+)*%
X163513181Y-118384569D03*
%TD*%
D10*
%TO.P,R2,1,1*%
%TO.N,Net-(USB1-CC2)*%
X133938221Y-126668413D03*
%TO.P,R2,2,2*%
%TO.N,GND*%
X133938221Y-127588135D03*
%TD*%
D56*
%TO.P,C3,1,1*%
%TO.N,SW-VOUT*%
X114951775Y-116423966D03*
%TO.P,C3,2,2*%
%TO.N,GND*%
X113954553Y-116423966D03*
%TD*%
D16*
%TO.P,R11,1,1*%
%TO.N,Net-(U1-ISET)*%
X113998695Y-115478618D03*
%TO.P,R11,2,2*%
%TO.N,GND*%
X114918417Y-115478618D03*
%TD*%
D10*
%TO.P,R13,1,1*%
%TO.N,RP-USB-NET-DP*%
X129703573Y-119570922D03*
%TO.P,R13,2,2*%
%TO.N,/2: rpi_mcu/RP-USB-DP*%
X129703573Y-118651200D03*
%TD*%
D22*
%TO.P,C8,1,1*%
%TO.N,CH3*%
X132870166Y-123727389D03*
%TO.P,C8,2,2*%
%TO.N,VDD*%
X132870166Y-124684611D03*
%TD*%
%TO.P,C21,1,1*%
%TO.N,VDD*%
X131318000Y-118632350D03*
%TO.P,C21,2,2*%
%TO.N,GND*%
X131318000Y-119589572D03*
%TD*%
D14*
%TO.P,LED18,2,K*%
%TO.N,drive7_gpio*%
X92981898Y-122405452D03*
%TO.P,LED18,1,A*%
%TO.N,Net-(LED11-A)*%
X91778402Y-123608948D03*
%TD*%
D29*
%TO.P,C12,1,1*%
%TO.N,Net-(C11-Pad1)*%
X130822184Y-105911061D03*
%TO.P,C12,2,2*%
%TO.N,GND*%
X129864962Y-105911061D03*
%TD*%
D21*
%TO.P,LED3,1,BI*%
%TO.N,Net-(LED2-BO)*%
X173987828Y-109479456D03*
%TO.P,LED3,2,DI*%
%TO.N,Net-(LED2-DO)*%
X173357828Y-109479456D03*
%TO.P,LED3,3,VDD*%
%TO.N,P4V2*%
X172727828Y-109479456D03*
%TO.P,LED3,4,DO*%
%TO.N,Net-(LED3-DO)*%
X172727828Y-111359456D03*
%TO.P,LED3,5,BO*%
%TO.N,Net-(LED3-BO)*%
X173357828Y-111359456D03*
%TO.P,LED3,6,GND*%
%TO.N,GND*%
X173987828Y-111359456D03*
%TD*%
D14*
%TO.P,LED13,2,K*%
%TO.N,drive2_gpio*%
X89481898Y-129405452D03*
%TO.P,LED13,1,A*%
%TO.N,Net-(LED11-A)*%
X88278402Y-130608948D03*
%TD*%
%TO.P,LED24,2,K*%
%TO.N,drive4_gpio*%
X92964836Y-113808424D03*
%TO.P,LED24,1,A*%
%TO.N,Net-(LED20-A)*%
X91761340Y-115011920D03*
%TD*%
D15*
%TO.P,SW11,1,1*%
%TO.N,Net-(D11-K)*%
X182821250Y-109207966D03*
%TO.P,SW11,2,2*%
%TO.N,unconnected-(SW11-Pad2)*%
X182821250Y-105007966D03*
%TO.P,SW11,3,3*%
%TO.N,rows1_gpio*%
X184970250Y-109207966D03*
%TO.P,SW11,4,4*%
%TO.N,unconnected-(SW11-Pad4)*%
X184970250Y-105007966D03*
%TD*%
D10*
%TO.P,R6,1,1*%
%TO.N,GND*%
X110054722Y-113452508D03*
%TO.P,R6,2,2*%
%TO.N,Net-(U1-CE_NOT)*%
X110054722Y-114372230D03*
%TD*%
D21*
%TO.P,LED10,1,BI*%
%TO.N,Net-(LED10-BI)*%
X173987828Y-130479456D03*
%TO.P,LED10,2,DI*%
%TO.N,Net-(LED10-DI)*%
X173357828Y-130479456D03*
%TO.P,LED10,3,VDD*%
%TO.N,P4V2*%
X172727828Y-130479456D03*
%TO.P,LED10,4,DO*%
%TO.N,unconnected-(LED10-DO-Pad4)*%
X172727828Y-132359456D03*
%TO.P,LED10,5,BO*%
%TO.N,unconnected-(LED10-BO-Pad5)*%
X173357828Y-132359456D03*
%TO.P,LED10,6,GND*%
%TO.N,GND*%
X173987828Y-132359456D03*
%TD*%
D18*
%TO.P,LED34,4,R*%
%TO.N,rgb-drive15_gpio*%
X94536650Y-86879286D03*
%TO.P,LED34,3,G*%
%TO.N,rgb-drive16_gpio*%
X93829543Y-87586392D03*
%TO.P,LED34,2,B*%
%TO.N,rgb-drive17_gpio*%
X92655746Y-86412595D03*
%TO.P,LED34,1,1*%
%TO.N,P4V2*%
X93362853Y-85705488D03*
%TD*%
D19*
%TO.P,D10,2,A*%
%TO.N,cols2_gpio*%
X180908250Y-116341466D03*
%TO.P,D10,1,K*%
%TO.N,Net-(D10-K)*%
X180908250Y-112871466D03*
%TD*%
D15*
%TO.P,SW2,1,1*%
%TO.N,CH3*%
X148072651Y-128724227D03*
%TO.P,SW2,2,2*%
%TO.N,unconnected-(SW2-Pad2)*%
X148072651Y-132924227D03*
%TO.P,SW2,3,3*%
%TO.N,GND*%
X145923651Y-128724227D03*
%TO.P,SW2,4,4*%
%TO.N,unconnected-(SW2-Pad4)*%
X145923651Y-132924227D03*
%TD*%
D57*
%TO.P,R16,1,1*%
%TO.N,CH4*%
X133829308Y-122047730D03*
%TO.P,R16,2,2*%
%TO.N,Net-(U3-RUN)*%
X134736530Y-122047730D03*
%TD*%
D16*
%TO.P,R26,1,1*%
%TO.N,pwm_timer*%
X160486382Y-129575635D03*
%TO.P,R26,2,2*%
%TO.N,Net-(C23-Pad1)*%
X161406104Y-129575635D03*
%TD*%
D24*
%TO.P,R28,1,1*%
%TO.N,VDD*%
X111670450Y-95837487D03*
%TO.P,R28,2,2*%
%TO.N,in_adc2*%
X114170450Y-95837487D03*
%TO.P,R28,3,3*%
%TO.N,GND*%
X116670450Y-95837487D03*
D25*
%TO.P,R28,4,4*%
%TO.N,unconnected-(R28-Pad4)*%
X119170450Y-88837487D03*
%TO.P,R28,5,5*%
%TO.N,unconnected-(R28-Pad5)*%
X109170450Y-88837487D03*
%TD*%
D58*
%TO.P,R32,1,1*%
%TO.N,tof-i2c_sda*%
X109904267Y-100260286D03*
%TO.P,R32,2,2*%
%TO.N,VDD*%
X109904267Y-101172508D03*
%TD*%
D29*
%TO.P,C20,1,1*%
%TO.N,VDD*%
X128190784Y-117471061D03*
%TO.P,C20,2,2*%
%TO.N,GND*%
X127233562Y-117471061D03*
%TD*%
D18*
%TO.P,LED29,4,R*%
%TO.N,rgb-drive0_gpio*%
X91036650Y-93879286D03*
%TO.P,LED29,3,G*%
%TO.N,rgb-drive1_gpio*%
X90329543Y-94586392D03*
%TO.P,LED29,2,B*%
%TO.N,rgb-drive2_gpio*%
X89155746Y-93412595D03*
%TO.P,LED29,1,1*%
%TO.N,P4V2*%
X89862853Y-92705488D03*
%TD*%
D32*
%TO.P,J3,1,1*%
%TO.N,Net-(U7-VO-)*%
X165277522Y-132263141D03*
%TO.P,J3,2,2*%
%TO.N,Net-(U7-VO+)*%
X162737522Y-132263141D03*
%TD*%
D46*
%TO.P,R18,1,1*%
%TO.N,Net-(LED1-DI)*%
X171029726Y-103170146D03*
%TO.P,R18,2,2*%
%TO.N,P4V2*%
X171029726Y-104077368D03*
%TD*%
D11*
%TO.P,Q3,1,D0*%
%TO.N,Net-(LED11-A)*%
X100063021Y-121422752D03*
%TO.P,Q3,2,D1*%
X100063021Y-122372752D03*
%TO.P,Q3,3,G*%
%TO.N,Net-(Q2-C)*%
X100063021Y-123322752D03*
%TO.P,Q3,4,S*%
%TO.N,P4V2*%
X102463021Y-123322752D03*
%TO.P,Q3,5,D2*%
%TO.N,Net-(LED11-A)*%
X102463021Y-122372752D03*
%TO.P,Q3,6,D3*%
X102463021Y-121422752D03*
%TD*%
D15*
%TO.P,SW6,1,1*%
%TO.N,Net-(D6-K)*%
X190321250Y-116707966D03*
%TO.P,SW6,2,2*%
%TO.N,unconnected-(SW6-Pad2)*%
X190321250Y-112507966D03*
%TO.P,SW6,3,3*%
%TO.N,rows0_gpio*%
X192470250Y-116707966D03*
%TO.P,SW6,4,4*%
%TO.N,unconnected-(SW6-Pad4)*%
X192470250Y-112507966D03*
%TD*%
D22*
%TO.P,C25,1,1*%
%TO.N,Net-(C25-Pad1)*%
X161225376Y-117438499D03*
%TO.P,C25,2,2*%
%TO.N,/6: rpi_flash/IN-*%
X161225376Y-118395721D03*
%TD*%
D45*
%TO.P,D1,c,c*%
%TO.N,Net-(D1-Padc)*%
X108749101Y-123178150D03*
%TO.P,D1,a,a*%
%TO.N,SW-VOUT*%
X110186969Y-123178150D03*
%TD*%
D59*
%TO.P,D3,10,nc3*%
%TO.N,unconnected-(D3-nc3-Pad10)*%
X131933000Y-120428000D03*
%TO.P,D3,9,nc2*%
%TO.N,unconnected-(D3-nc2-Pad9)*%
X131933000Y-120928000D03*
%TO.P,D3,8,GND1*%
%TO.N,GND*%
X131933000Y-121428000D03*
%TO.P,D3,7,nc1*%
%TO.N,unconnected-(D3-nc1-Pad7)*%
X131933000Y-121928000D03*
%TO.P,D3,6,nc0*%
%TO.N,unconnected-(D3-nc0-Pad6)*%
X131933000Y-122428000D03*
%TO.P,D3,5,CH4*%
%TO.N,CH4*%
X131064000Y-122428000D03*
%TO.P,D3,4,CH3*%
%TO.N,CH3*%
X131064000Y-121928000D03*
%TO.P,D3,3,GND0*%
%TO.N,GND*%
X131064000Y-121428000D03*
%TO.P,D3,2,CH2*%
%TO.N,RP-USB-NET-DP*%
X131064000Y-120928000D03*
%TO.P,D3,1,CH1*%
%TO.N,RP-USB-NET-DN*%
X131064000Y-120428000D03*
%TD*%
D21*
%TO.P,LED6,1,BI*%
%TO.N,Net-(LED5-BO)*%
X173987828Y-118479456D03*
%TO.P,LED6,2,DI*%
%TO.N,Net-(LED5-DO)*%
X173357828Y-118479456D03*
%TO.P,LED6,3,VDD*%
%TO.N,P4V2*%
X172727828Y-118479456D03*
%TO.P,LED6,4,DO*%
%TO.N,Net-(LED6-DO)*%
X172727828Y-120359456D03*
%TO.P,LED6,5,BO*%
%TO.N,Net-(LED6-BO)*%
X173357828Y-120359456D03*
%TO.P,LED6,6,GND*%
%TO.N,GND*%
X173987828Y-120359456D03*
%TD*%
D16*
%TO.P,R19,1,1*%
%TO.N,Net-(U6-R-EXT)*%
X86562145Y-102689458D03*
%TO.P,R19,2,2*%
%TO.N,GND*%
X87481867Y-102689458D03*
%TD*%
D19*
%TO.P,D5,2,A*%
%TO.N,cols1_gpio*%
X188408250Y-123841466D03*
%TO.P,D5,1,K*%
%TO.N,Net-(D5-K)*%
X188408250Y-120371466D03*
%TD*%
D58*
%TO.P,R34,1,1*%
%TO.N,tof-en_gpio*%
X108840740Y-100276731D03*
%TO.P,R34,2,2*%
%TO.N,VDD*%
X108840740Y-101188953D03*
%TD*%
D60*
%TO.P,CN1,2,2*%
%TO.N,VBAT*%
X117925777Y-125929015D03*
%TO.P,CN1,1,1*%
%TO.N,GND*%
X115925777Y-125929015D03*
D61*
%TO.P,CN1,3,3*%
%TO.N,unconnected-(CN1-Pad3)*%
X120175777Y-132279015D03*
%TO.P,CN1,4,4*%
%TO.N,unconnected-(CN1-Pad4)*%
X113675777Y-132279015D03*
%TD*%
D29*
%TO.P,C13,1,1*%
%TO.N,Net-(U3-XIN)*%
X131564962Y-105901061D03*
%TO.P,C13,2,2*%
%TO.N,GND*%
X132522184Y-105901061D03*
%TD*%
D14*
%TO.P,LED15,2,K*%
%TO.N,drive4_gpio*%
X92981898Y-125905452D03*
%TO.P,LED15,1,A*%
%TO.N,Net-(LED11-A)*%
X91778402Y-127108948D03*
%TD*%
%TO.P,LED26,2,K*%
%TO.N,drive6_gpio*%
X96464836Y-110308424D03*
%TO.P,LED26,1,A*%
%TO.N,Net-(LED20-A)*%
X95261340Y-111511920D03*
%TD*%
D62*
%TO.P,R33,1,1*%
%TO.N,tof-i2c_scl*%
X109994489Y-106043432D03*
%TO.P,R33,2,2*%
%TO.N,VDD*%
X109082267Y-106043432D03*
%TD*%
D10*
%TO.P,R7,1,1*%
%TO.N,Net-(U1-TS)*%
X112810847Y-114387642D03*
%TO.P,R7,2,2*%
%TO.N,GND*%
X112810847Y-113467920D03*
%TD*%
D22*
%TO.P,C17,1,1*%
%TO.N,VDD*%
X128843573Y-107831072D03*
%TO.P,C17,2,2*%
%TO.N,GND*%
X128843573Y-106873850D03*
%TD*%
D14*
%TO.P,LED21,2,K*%
%TO.N,drive1_gpio*%
X92964836Y-117308424D03*
%TO.P,LED21,1,A*%
%TO.N,Net-(LED20-A)*%
X91761340Y-118511920D03*
%TD*%
D18*
%TO.P,LED35,4,R*%
%TO.N,rgb-drive18_gpio*%
X98036650Y-93879286D03*
%TO.P,LED35,3,G*%
%TO.N,rgb-drive19_gpio*%
X97329543Y-94586392D03*
%TO.P,LED35,2,B*%
%TO.N,rgb-drive20_gpio*%
X96155746Y-93412595D03*
%TO.P,LED35,1,1*%
%TO.N,P4V2*%
X96862853Y-92705488D03*
%TD*%
D24*
%TO.P,R30,1,1*%
%TO.N,VDD*%
X130091666Y-95868877D03*
%TO.P,R30,2,2*%
%TO.N,in_adc*%
X132591666Y-95868877D03*
%TO.P,R30,3,3*%
%TO.N,GND*%
X135091666Y-95868877D03*
D25*
%TO.P,R30,4,4*%
%TO.N,unconnected-(R30-Pad4)*%
X137591666Y-88868877D03*
%TO.P,R30,5,5*%
%TO.N,unconnected-(R30-Pad5)*%
X127591666Y-88868877D03*
%TD*%
D63*
%TO.P,C2,1,1*%
%TO.N,SW-VOUT*%
X112493804Y-119172567D03*
%TO.P,C2,2,2*%
%TO.N,GND*%
X112493804Y-120169789D03*
%TD*%
D46*
%TO.P,R15,1,1*%
%TO.N,CH3*%
X149170467Y-128547016D03*
%TO.P,R15,2,2*%
%TO.N,QSPI_SS*%
X149170467Y-127639794D03*
%TD*%
D22*
%TO.P,C9,1,1*%
%TO.N,CH4*%
X133933625Y-123725014D03*
%TO.P,C9,2,2*%
%TO.N,VDD*%
X133933625Y-124682236D03*
%TD*%
D15*
%TO.P,SW9,1,1*%
%TO.N,Net-(D9-K)*%
X182821250Y-124207966D03*
%TO.P,SW9,2,2*%
%TO.N,unconnected-(SW9-Pad2)*%
X182821250Y-120007966D03*
%TO.P,SW9,3,3*%
%TO.N,rows1_gpio*%
X184970250Y-124207966D03*
%TO.P,SW9,4,4*%
%TO.N,unconnected-(SW9-Pad4)*%
X184970250Y-120007966D03*
%TD*%
D50*
%TO.P,C28,1,1*%
%TO.N,GND*%
X107500182Y-103411495D03*
%TO.P,C28,2,2*%
%TO.N,VDD*%
X107500182Y-102416773D03*
%TD*%
D10*
%TO.P,R3,1,1*%
%TO.N,Net-(USB1-SHELL0)*%
X122233407Y-130889308D03*
%TO.P,R3,2,2*%
%TO.N,GND*%
X122233407Y-129969586D03*
%TD*%
D64*
%TO.P,SW1,1,1*%
%TO.N,unconnected-(SW1-Pad1)*%
X105017152Y-130114060D03*
%TO.P,SW1,2,2*%
%TO.N,SW-VOUT*%
X108017152Y-130114060D03*
%TO.P,SW1,3,3*%
%TO.N,P4V2*%
X109517152Y-130114060D03*
D65*
%TO.P,SW1,4,4*%
%TO.N,unconnected-(SW1-Pad4)*%
X111067152Y-131011060D03*
%TO.P,SW1,5,5*%
%TO.N,unconnected-(SW1-Pad5)*%
X111067152Y-133281060D03*
%TO.P,SW1,6,6*%
%TO.N,unconnected-(SW1-Pad6)*%
X103467152Y-133281060D03*
%TO.P,SW1,7,7*%
%TO.N,unconnected-(SW1-Pad7)*%
X103467152Y-131011060D03*
%TD*%
D21*
%TO.P,LED2,1,BI*%
%TO.N,Net-(LED1-BO)*%
X173987828Y-106479456D03*
%TO.P,LED2,2,DI*%
%TO.N,Net-(LED1-DO)*%
X173357828Y-106479456D03*
%TO.P,LED2,3,VDD*%
%TO.N,P4V2*%
X172727828Y-106479456D03*
%TO.P,LED2,4,DO*%
%TO.N,Net-(LED2-DO)*%
X172727828Y-108359456D03*
%TO.P,LED2,5,BO*%
%TO.N,Net-(LED2-BO)*%
X173357828Y-108359456D03*
%TO.P,LED2,6,GND*%
%TO.N,GND*%
X173987828Y-108359456D03*
%TD*%
D18*
%TO.P,LED30,4,R*%
%TO.N,rgb-drive3_gpio*%
X91036650Y-90379286D03*
%TO.P,LED30,3,G*%
%TO.N,rgb-drive4_gpio*%
X90329543Y-91086392D03*
%TO.P,LED30,2,B*%
%TO.N,rgb-drive5_gpio*%
X89155746Y-89912595D03*
%TO.P,LED30,1,1*%
%TO.N,P4V2*%
X89862853Y-89205488D03*
%TD*%
D19*
%TO.P,D8,2,A*%
%TO.N,cols0_gpio*%
X180908250Y-131341466D03*
%TO.P,D8,1,K*%
%TO.N,Net-(D8-K)*%
X180908250Y-127871466D03*
%TD*%
D56*
%TO.P,C4,1,1*%
%TO.N,VBAT*%
X117456710Y-124216213D03*
%TO.P,C4,2,2*%
%TO.N,GND*%
X116459488Y-124216213D03*
%TD*%
D66*
%TO.P,U2,5,VOUT*%
%TO.N,VDD*%
X114628331Y-108739775D03*
%TO.P,U2,4,NC*%
%TO.N,unconnected-(U2-NC-Pad4)*%
X114628331Y-110639775D03*
%TO.P,U2,3,CE*%
%TO.N,P4V2*%
X112028331Y-110639775D03*
%TO.P,U2,2,GND*%
%TO.N,GND*%
X112028331Y-109689775D03*
%TO.P,U2,1,VIN*%
%TO.N,P4V2*%
X112028331Y-108739775D03*
%TD*%
D21*
%TO.P,LED9,1,BI*%
%TO.N,Net-(LED8-BO)*%
X173987828Y-127479456D03*
%TO.P,LED9,2,DI*%
%TO.N,Net-(LED8-DO)*%
X173357828Y-127479456D03*
%TO.P,LED9,3,VDD*%
%TO.N,P4V2*%
X172727828Y-127479456D03*
%TO.P,LED9,4,DO*%
%TO.N,Net-(LED10-DI)*%
X172727828Y-129359456D03*
%TO.P,LED9,5,BO*%
%TO.N,Net-(LED10-BI)*%
X173357828Y-129359456D03*
%TO.P,LED9,6,GND*%
%TO.N,GND*%
X173987828Y-129359456D03*
%TD*%
D20*
%TO.P,C22,1,1*%
%TO.N,GND*%
X86528896Y-101504462D03*
%TO.P,C22,2,2*%
%TO.N,P4V2*%
X87523618Y-101504462D03*
%TD*%
D30*
%TO.P,Q6,1,G*%
%TO.N,VDD*%
X102613259Y-107074999D03*
%TO.P,Q6,2,S*%
%TO.N,rpi-led-i2c_scl*%
X102613259Y-105175999D03*
%TO.P,Q6,3,D*%
%TO.N,/4: led-drive_u/SCL*%
X100613259Y-106125999D03*
%TD*%
D16*
%TO.P,R22,1,1*%
%TO.N,enable0_gpio*%
X104830017Y-127097830D03*
%TO.P,R22,2,2*%
%TO.N,Net-(Q2-B)*%
X103910295Y-127097830D03*
%TD*%
D67*
%TO.N,RP-USB-NET-DN*%
X126746000Y-125730000D03*
X129286000Y-125476000D03*
%TO.N,unconnected-(U3-GPIO24-Pad36)*%
X128112742Y-113545967D03*
%TO.N,unconnected-(U3-GPIO22-Pad34)*%
X128083638Y-112623119D03*
%TO.N,SW-VOUT*%
X116363188Y-117432435D03*
X111209574Y-119343717D03*
%TO.N,led-data_gpio*%
X132223675Y-108071023D03*
X168692952Y-102544161D03*
%TO.N,VDD*%
X135084962Y-110861061D03*
X133096000Y-125222000D03*
X109082267Y-105243432D03*
X144239073Y-115576061D03*
X132761882Y-114333038D03*
X108300182Y-102435523D03*
X139103712Y-113001061D03*
X132118000Y-118632349D03*
X145746212Y-113251061D03*
X105033320Y-99612562D03*
X126385784Y-117167861D03*
X108300780Y-105730711D03*
X128067580Y-111803352D03*
X104930990Y-104386422D03*
X130765539Y-110462613D03*
X115628331Y-108739775D03*
X111670450Y-94417487D03*
%TO.N,cols2_gpio*%
X180649084Y-114817848D03*
X135023738Y-113671188D03*
%TO.N,GND*%
X111612863Y-101795425D03*
X112493804Y-120898678D03*
X132118000Y-119589572D03*
X117077722Y-110084966D03*
X111102048Y-109913729D03*
X113954553Y-117223966D03*
X113028331Y-109689775D03*
X95701385Y-102772260D03*
X165303060Y-128430459D03*
X145923651Y-129749227D03*
X133231073Y-105901061D03*
X107311376Y-117520684D03*
X110012863Y-101795425D03*
X129286000Y-105156000D03*
X173987828Y-104509456D03*
X87481867Y-103489458D03*
X132740151Y-113144387D03*
X173987828Y-131509456D03*
X115925777Y-127279015D03*
X164487590Y-124696477D03*
X131308896Y-126629195D03*
X125428562Y-115567861D03*
X114918417Y-114678618D03*
X173987828Y-102629456D03*
X108179377Y-114643396D03*
X113610847Y-113467920D03*
X173987828Y-107509456D03*
X173987828Y-110509456D03*
X108300780Y-104754738D03*
X173987828Y-125509456D03*
X147468573Y-114051061D03*
X130224000Y-121666000D03*
X121354158Y-127502030D03*
X136751073Y-115381061D03*
X124802841Y-129352499D03*
X173987828Y-113509456D03*
X113187863Y-103495425D03*
X99286056Y-124863044D03*
X127233562Y-116671061D03*
X110812863Y-101795425D03*
X173987828Y-119509456D03*
X114214309Y-120115196D03*
X110854722Y-113452508D03*
X173987828Y-128509456D03*
X173987828Y-116509456D03*
X137178073Y-119386061D03*
X99458588Y-115999237D03*
X169534421Y-97291841D03*
X137744043Y-106375535D03*
X173987828Y-122509456D03*
X109987863Y-103495425D03*
X136751073Y-111661061D03*
X93940450Y-102772260D03*
X142072926Y-129793421D03*
%TO.N,Net-(Q7-D)*%
X96668793Y-104700617D03*
X88646000Y-104013000D03*
%TO.N,rgb-drive26_gpio*%
X97171403Y-103727971D03*
%TO.N,tof-i2c_scl*%
X110911153Y-105583106D03*
X128088436Y-110821129D03*
%TO.N,cols1_gpio*%
X135023738Y-112471036D03*
X180709972Y-122347597D03*
%TO.N,rpi-led-i2c_scl*%
X103698884Y-103892986D03*
X125737445Y-111468671D03*
%TO.N,tof-en_gpio*%
X113162863Y-102620425D03*
X127894467Y-110079129D03*
X108040740Y-100276731D03*
%TO.N,Net-(U3-RUN)*%
X128623725Y-110171023D03*
X134736530Y-121247730D03*
%TO.N,rgb-drive2_gpio*%
X88138000Y-104902000D03*
X88957695Y-94828423D03*
%TO.N,rows1_gpio*%
X184120369Y-110950132D03*
X135023738Y-110070985D03*
%TO.N,/4: led-drive_u/SCL*%
X101559912Y-110344316D03*
%TO.N,cols3_gpio*%
X133023522Y-110171023D03*
X180689676Y-107369283D03*
%TO.N,VBAT*%
X107088057Y-116332143D03*
X114528309Y-119306337D03*
X111942415Y-114545263D03*
X111134486Y-114583767D03*
%TO.N,rpi-led-i2c_sda*%
X103550198Y-99250304D03*
X125564913Y-110534125D03*
%TO.N,rgb-drive25_gpio*%
X94809921Y-106595795D03*
X98323545Y-88225736D03*
%TO.N,QSPI_SD0*%
X131241388Y-114812071D03*
X141571144Y-119412436D03*
%TO.N,QSPI_SS*%
X140627231Y-116280918D03*
X147557265Y-125667432D03*
%TO.N,P4V2*%
X172727828Y-125329456D03*
X88251257Y-101504462D03*
X172727828Y-116329456D03*
X96275954Y-88618590D03*
X172727828Y-128329456D03*
X101369276Y-102731156D03*
X89275954Y-92118590D03*
X172727828Y-110329456D03*
X92775954Y-92118590D03*
X92775954Y-85118590D03*
X113028331Y-108739775D03*
X113028331Y-110639775D03*
X172727828Y-122329456D03*
X111102048Y-108956506D03*
X92775954Y-88618590D03*
X171829726Y-104077368D03*
X101463021Y-123322752D03*
X172727828Y-102629456D03*
X103222695Y-114096955D03*
X163217590Y-124696477D03*
X89275954Y-85118590D03*
X89275954Y-88618590D03*
X172727828Y-119329456D03*
X109517152Y-128714060D03*
X172727828Y-131329456D03*
X96275954Y-92118590D03*
X101780969Y-109090658D03*
X172727828Y-107329456D03*
X96275954Y-85118590D03*
X172727828Y-113329456D03*
%TO.N,QSPI_SD2*%
X132241274Y-115106832D03*
X136607162Y-118173551D03*
%TO.N,audio-enable_gpio*%
X165757590Y-119331477D03*
X136121731Y-114061377D03*
%TO.N,tof-i2c_sda*%
X127115141Y-108984663D03*
X112223764Y-105519847D03*
%TO.N,Net-(LED20-A)*%
X87575776Y-120879165D03*
X94323724Y-112819719D03*
X91151196Y-120790335D03*
X98695265Y-113002571D03*
X94548956Y-120745920D03*
%TO.N,enable0_gpio*%
X125823408Y-113271137D03*
X105732426Y-127098801D03*
%TO.N,Net-(USB1-CC2)*%
X134366000Y-125984000D03*
X128836236Y-126607479D03*
%TO.N,Net-(U3-DVDD0)*%
X129823624Y-110171023D03*
X127905947Y-107264682D03*
X130137101Y-114787067D03*
%TO.N,rgb-drive20_gpio*%
X96008808Y-94588387D03*
X93861950Y-103790449D03*
%TO.N,rgb-drive18_gpio*%
X96338641Y-103708907D03*
%TO.N,rows0_gpio*%
X132923738Y-111271137D03*
X191765116Y-107106866D03*
%TO.N,enable1_gpio*%
X125823408Y-112471036D03*
X104958831Y-119294795D03*
%TO.N,drive0_gpio*%
X97539888Y-130639109D03*
X95624744Y-120139599D03*
%TO.N,cols0_gpio*%
X180590062Y-129966549D03*
X135730053Y-113092137D03*
%TO.N,rgb-drive24_gpio*%
X98948125Y-85852334D03*
X95816779Y-105960680D03*
%TD*%
D68*
%TO.N,rgb-drive2_gpio*%
X89679503Y-104372209D02*
X89657712Y-104394000D01*
X89657712Y-104394000D02*
X88908188Y-104394000D01*
X88908188Y-104394000D02*
X88400188Y-104902000D01*
X88400188Y-104902000D02*
X88138000Y-104902000D01*
%TO.N,Net-(Q7-D)*%
X89184348Y-103734365D02*
G75*
G03*
X89172028Y-103738989I52252J-157935D01*
G01*
X88646000Y-104013000D02*
X88898017Y-104013000D01*
X88898017Y-104013000D02*
X89172028Y-103738989D01*
X89184349Y-103734367D02*
X89679503Y-103572108D01*
D69*
%TO.N,RP-USB-NET-DP*%
X129703573Y-121756427D02*
X129703573Y-121248427D01*
X129703573Y-121248427D02*
X130048000Y-120904000D01*
X131040000Y-120904000D02*
X131064000Y-120928000D01*
X130048000Y-120904000D02*
X131040000Y-120904000D01*
D70*
%TO.N,GND*%
X130224000Y-121666000D02*
X130462000Y-121428000D01*
X130462000Y-121428000D02*
X131064000Y-121428000D01*
X129864962Y-105734962D02*
X129864962Y-105911061D01*
X129286000Y-105156000D02*
X129864962Y-105734962D01*
D68*
%TO.N,rgb-drive8_gpio*%
X89155746Y-86412595D02*
X85852000Y-89716341D01*
X85852000Y-89716341D02*
X85852000Y-104394000D01*
X85852000Y-104394000D02*
X87630000Y-106172000D01*
X87630000Y-106172000D02*
X89029740Y-104772260D01*
X89029740Y-104772260D02*
X89829363Y-104772260D01*
D70*
%TO.N,GND*%
X127733967Y-106200033D02*
X127991024Y-106363364D01*
X126975412Y-105718056D02*
X127733967Y-106200033D01*
X127733967Y-106200033D02*
X127733967Y-106170644D01*
X127733967Y-106170644D02*
X128016000Y-105888611D01*
D68*
%TO.N,Net-(C11-Pad1)*%
X128016000Y-104931389D02*
X128016000Y-103396488D01*
X128016000Y-103396488D02*
X126350573Y-101731061D01*
X130822184Y-105911061D02*
X130822184Y-105521061D01*
X130822184Y-105521061D02*
X129949123Y-104648000D01*
X129949123Y-104648000D02*
X128299389Y-104648000D01*
X128299389Y-104648000D02*
X128016000Y-104931389D01*
%TO.N,RP-USB-NET-DN*%
X126746000Y-125730000D02*
X127775552Y-126759552D01*
X129425552Y-127692680D02*
X129425552Y-125615552D01*
X129425552Y-125615552D02*
X129286000Y-125476000D01*
X127775552Y-126759552D02*
X127775552Y-127692680D01*
%TO.N,in_adc3*%
X126873408Y-113671188D02*
X122815188Y-113671188D01*
X122815188Y-113671188D02*
X121412000Y-112268000D01*
X121412000Y-112268000D02*
X121412000Y-100076000D01*
X121412000Y-100076000D02*
X122936000Y-98552000D01*
X122936000Y-98552000D02*
X165448204Y-98552000D01*
X165448204Y-98552000D02*
X168200513Y-95799691D01*
%TO.N,in_adc1*%
X120904000Y-112522000D02*
X120904000Y-99568000D01*
X120904000Y-99568000D02*
X122428000Y-98044000D01*
X126873408Y-114070985D02*
X122452985Y-114070985D01*
X122452985Y-114070985D02*
X120904000Y-112522000D01*
X122428000Y-98044000D02*
X149017385Y-98044000D01*
X149017385Y-98044000D02*
X151243714Y-95817671D01*
%TO.N,in_adc*%
X120396000Y-99060000D02*
X122174000Y-97282000D01*
X122091036Y-114471036D02*
X120396000Y-112776000D01*
X126873408Y-114471036D02*
X122091036Y-114471036D01*
X120396000Y-112776000D02*
X120396000Y-99060000D01*
X122174000Y-97282000D02*
X131178543Y-97282000D01*
X131178543Y-97282000D02*
X132591666Y-95868877D01*
%TO.N,in_adc2*%
X121983086Y-114871086D02*
X119888000Y-112776000D01*
X126873408Y-114871086D02*
X121983086Y-114871086D01*
X119888000Y-101555037D02*
X114170450Y-95837487D01*
X119888000Y-112776000D02*
X119888000Y-101555037D01*
D71*
%TO.N,VDD*%
X133096000Y-125222000D02*
X133096000Y-124910445D01*
X133096000Y-124910445D02*
X132870166Y-124684611D01*
X133635764Y-124682236D02*
X133933625Y-124682236D01*
X133096000Y-125222000D02*
X133635764Y-124682236D01*
D68*
%TO.N,Net-(USB1-CC2)*%
X133938221Y-126668413D02*
X133938221Y-126411779D01*
X133938221Y-126411779D02*
X134366000Y-125984000D01*
%TO.N,CH3*%
X148072651Y-128724227D02*
X148072651Y-130057349D01*
X148072651Y-130057349D02*
X147066000Y-131064000D01*
X147066000Y-131064000D02*
X140716000Y-131064000D01*
X135220137Y-125568137D02*
X133765863Y-125568137D01*
X140716000Y-131064000D02*
X135220137Y-125568137D01*
X132080000Y-124517555D02*
X132870166Y-123727389D01*
X133765863Y-125568137D02*
X133575500Y-125758500D01*
X133575500Y-125758500D02*
X132616500Y-125758500D01*
X132616500Y-125758500D02*
X132080000Y-125222000D01*
X132080000Y-125222000D02*
X132080000Y-124517555D01*
%TO.N,CH4*%
X133933625Y-123725014D02*
X139178519Y-123725014D01*
X139178519Y-123725014D02*
X144221926Y-128768421D01*
%TO.N,CH3*%
X132870166Y-123727389D02*
X132617389Y-123727389D01*
X132617389Y-123727389D02*
X132334000Y-123444000D01*
%TO.N,CH4*%
X131572000Y-122936000D02*
X132842000Y-122936000D01*
X131064000Y-122428000D02*
X131572000Y-122936000D01*
X132842000Y-122936000D02*
X133730270Y-122047730D01*
X133730270Y-122047730D02*
X133829308Y-122047730D01*
X133933625Y-123725014D02*
X133933625Y-122152047D01*
X133933625Y-122152047D02*
X133829308Y-122047730D01*
%TO.N,CH3*%
X130302000Y-123444000D02*
X132334000Y-123444000D01*
X130548000Y-121928000D02*
X130048000Y-122428000D01*
X131064000Y-121928000D02*
X130548000Y-121928000D01*
X130048000Y-122428000D02*
X130048000Y-123190000D01*
X130048000Y-123190000D02*
X130302000Y-123444000D01*
D69*
%TO.N,RP-USB-NET-DN*%
X128803573Y-119570822D02*
X128913434Y-119570822D01*
X128913434Y-119570822D02*
X129293473Y-119190783D01*
X129293473Y-119190783D02*
X130193573Y-119190783D01*
X130556000Y-119553210D02*
X130556000Y-119920000D01*
X130193573Y-119190783D02*
X130556000Y-119553210D01*
X130556000Y-119920000D02*
X131064000Y-120428000D01*
D71*
%TO.N,VDD*%
X130304957Y-116831677D02*
X130304957Y-117619307D01*
X130304957Y-117619307D02*
X131318000Y-118632350D01*
D69*
%TO.N,/2: rpi_mcu/RP-USB-DP*%
X129703573Y-118651200D02*
X129423573Y-118371200D01*
X129423573Y-118371200D02*
X129423573Y-116221099D01*
%TO.N,/2: rpi_mcu/RP-USB-DM*%
X128803573Y-118651100D02*
X129023522Y-118431151D01*
X129023522Y-118431151D02*
X129023522Y-116221099D01*
%TO.N,RP-USB-NET-DN*%
X127775552Y-127692680D02*
X127775552Y-123176448D01*
X127775552Y-123176448D02*
X128803573Y-122148427D01*
X128803573Y-122148427D02*
X128803573Y-119570822D01*
%TO.N,RP-USB-NET-DP*%
X128325552Y-127692680D02*
X128325552Y-123134448D01*
X128325552Y-123134448D02*
X129703573Y-121756427D01*
X129703573Y-121756427D02*
X129703573Y-119570922D01*
%TO.N,GND*%
X90319503Y-102082209D02*
X90319503Y-102362000D01*
X90319503Y-102362000D02*
X90319503Y-102662209D01*
X90729763Y-102772260D02*
X90319503Y-102362000D01*
X92215444Y-102772260D02*
X90729763Y-102772260D01*
X89679503Y-101972158D02*
X90209452Y-101972158D01*
X90319503Y-102662209D02*
X90209452Y-102772260D01*
X90209452Y-101972158D02*
X90319503Y-102082209D01*
X90209452Y-102772260D02*
X89679503Y-102772260D01*
%TO.N,P4V2*%
X89679503Y-102372209D02*
X89119004Y-102372209D01*
X89119004Y-102372209D02*
X88251257Y-101504462D01*
%TO.N,GND*%
X89679503Y-102772260D02*
X87564669Y-102772260D01*
X87564669Y-102772260D02*
X87481867Y-102689458D01*
%TO.N,P4V2*%
X89679503Y-101572108D02*
X88318903Y-101572108D01*
X88318903Y-101572108D02*
X88251257Y-101504462D01*
D68*
%TO.N,unconnected-(U3-GPIO24-Pad36)*%
X128112742Y-113545967D02*
X127515022Y-113058745D01*
X127515015Y-113058753D02*
G75*
G03*
X127461506Y-113031232I-91615J-112347D01*
G01*
X127461506Y-113031231D02*
X126873408Y-112871086D01*
%TO.N,unconnected-(U3-GPIO22-Pad34)*%
X128083638Y-112623119D02*
X127501822Y-112249067D01*
X127501825Y-112249063D02*
G75*
G03*
X127461506Y-112231130I-78425J-122037D01*
G01*
X127461506Y-112231130D02*
X126873408Y-112070985D01*
%TO.N,Net-(U1-TS)*%
X112810847Y-114387643D02*
X112300876Y-115362684D01*
%TO.N,QSPI_SCLK*%
X145864073Y-118116061D02*
X146967494Y-117210771D01*
X146967489Y-117210765D02*
G75*
G03*
X146988889Y-117189077I-91989J112165D01*
G01*
X146988889Y-117189077D02*
X147078542Y-117076655D01*
X147078554Y-117076664D02*
G75*
G03*
X147106540Y-117018514I-113354J90364D01*
G01*
X147106541Y-117018514D02*
X147138539Y-116878326D01*
X147138555Y-116878330D02*
G75*
G03*
X147138538Y-116813795I-141355J32230D01*
G01*
X147138539Y-116813795D02*
X147106541Y-116673607D01*
X147106556Y-116673603D02*
G75*
G03*
X147078542Y-116615466I-141356J-32297D01*
G01*
X147078542Y-116615466D02*
X146988889Y-116503044D01*
X146988893Y-116503041D02*
G75*
G03*
X146938436Y-116462810I-113393J-90459D01*
G01*
X146938436Y-116462810D02*
X146808883Y-116400420D01*
X146808890Y-116400405D02*
G75*
G03*
X146745970Y-116386061I-62890J-130695D01*
G01*
X146745970Y-116386061D02*
X144982176Y-116386061D01*
X144982176Y-116386056D02*
G75*
G03*
X144957250Y-116388220I24J-144944D01*
G01*
X144957250Y-116388219D02*
X139709896Y-117303902D01*
X139684970Y-117306054D02*
G75*
G03*
X139709896Y-117303902I30J145054D01*
G01*
X139684970Y-117306061D02*
X137921176Y-117306061D01*
X137915384Y-117305944D02*
G75*
G03*
X137921176Y-117306061I5816J144544D01*
G01*
X137915384Y-117305945D02*
X132910139Y-117105831D01*
X132870476Y-117101874D02*
G75*
G03*
X132910139Y-117105830I53024J330774D01*
G01*
X132870476Y-117101872D02*
X131700664Y-116914269D01*
X131583701Y-116809201D02*
G75*
G03*
X131700664Y-116914268I139899J38101D01*
G01*
X131583719Y-116809196D02*
X131423573Y-116221099D01*
%TO.N,Net-(U3-SWCLK)*%
X124231509Y-106043566D02*
X128478667Y-108169622D01*
X128478671Y-108169614D02*
G75*
G03*
X128512442Y-108181579I64929J129614D01*
G01*
X128512442Y-108181579D02*
X128795649Y-108243835D01*
X128882926Y-108276280D02*
G75*
G03*
X128795649Y-108243836I-159226J-294720D01*
G01*
X128882931Y-108276271D02*
X129192432Y-108443444D01*
X129263403Y-108532932D02*
G75*
G03*
X129192432Y-108443444I-139903J-38068D01*
G01*
X129263428Y-108532925D02*
X129423573Y-109121023D01*
%TO.N,Net-(Q2-C)*%
X101155244Y-127352241D02*
X100698740Y-124207411D01*
X100698714Y-124207415D02*
G75*
G03*
X100671628Y-124141755I-143514J-20785D01*
G01*
X100671628Y-124141755D02*
X100063021Y-123322752D01*
X100063021Y-123322752D02*
X101343535Y-123713910D01*
X101343535Y-123713910D02*
G75*
G03*
X101396487Y-123726304I119465J391110D01*
G01*
X101396487Y-123726304D02*
X101939433Y-123815821D01*
X101939433Y-123815822D02*
G75*
G03*
X101963021Y-123817752I23567J142922D01*
G01*
X101963021Y-123817752D02*
X102963021Y-123817752D01*
X102963021Y-123817750D02*
G75*
G03*
X102969176Y-123817621I79J143550D01*
G01*
X102969176Y-123817622D02*
X103972635Y-123774989D01*
X103972634Y-123774976D02*
G75*
G03*
X104045334Y-123751805I-6134J144876D01*
G01*
X104045334Y-123751805D02*
X104696064Y-123330120D01*
%TO.N,rgb-drive13_gpio*%
X93829543Y-91086393D02*
X93987971Y-92676975D01*
X93970943Y-92760787D02*
G75*
G03*
X93987971Y-92676975I-127243J69487D01*
G01*
X93970968Y-92760801D02*
X93054642Y-94440070D01*
X93054628Y-94440063D02*
G75*
G03*
X93013710Y-94600644I294072J-160437D01*
G01*
X93013710Y-94600644D02*
X93015546Y-100236065D01*
D70*
%TO.N,SW-VOUT*%
X116363188Y-117432435D02*
X114951775Y-116423966D01*
X110187197Y-121825874D02*
X110186969Y-123178150D01*
X110187197Y-121825874D02*
X111209574Y-119343717D01*
X108017152Y-130114060D02*
X110186969Y-123178150D01*
X112493804Y-119172567D02*
X111973197Y-118731920D01*
X111875652Y-118565208D02*
G75*
G03*
X111973197Y-118731920I285248J55008D01*
G01*
X111875635Y-118565211D02*
X111800876Y-118177684D01*
X111209574Y-119343717D02*
X111300876Y-118177684D01*
X111300876Y-118177684D02*
X111800876Y-118177684D01*
D68*
%TO.N,Net-(LED6-BO)*%
X173357828Y-120359456D02*
X173987828Y-121479456D01*
%TO.N,led-data_gpio*%
X168692952Y-102544161D02*
X167657952Y-102544161D01*
X132223675Y-108071023D02*
X132223675Y-109121023D01*
D71*
%TO.N,VDD*%
X126873408Y-111671188D02*
X128067580Y-111803352D01*
X109082267Y-106043432D02*
X109469912Y-105544783D01*
X109469883Y-105544760D02*
G75*
G03*
X109526094Y-105033434I-387583J301360D01*
G01*
X109526094Y-105033434D02*
X109212863Y-104371425D01*
X105033320Y-99612562D02*
X105033320Y-100412562D01*
X108300780Y-105730711D02*
X107500780Y-105711961D01*
X129823624Y-116221099D02*
X130223675Y-116221099D01*
X135084962Y-111661061D02*
X135084962Y-110861061D01*
X109212863Y-102620425D02*
X108471075Y-102895824D01*
X107989921Y-102816056D02*
G75*
G03*
X108471075Y-102895823I310279J380556D01*
G01*
X107989912Y-102816067D02*
X107500182Y-102416773D01*
X104930990Y-104386422D02*
X104930990Y-105186422D01*
X104930990Y-105186422D02*
X102613259Y-107074999D01*
X132118000Y-118632349D02*
X131318000Y-118632349D01*
X126873408Y-115271137D02*
X126385784Y-116367861D01*
X102653568Y-102297533D02*
X104443964Y-100891070D01*
X104443964Y-100891070D02*
G75*
G03*
X104446826Y-100888785I-139564J177770D01*
G01*
X104446826Y-100888785D02*
X105033320Y-100412562D01*
X167657952Y-100645161D02*
X171488497Y-96533865D01*
X171488501Y-96533868D02*
G75*
G03*
X170700513Y-94722691I-788001J734168D01*
G01*
X170700513Y-94722691D02*
X168200513Y-94722691D01*
X168200513Y-94722698D02*
G75*
G03*
X167736542Y-94827755I-13J-1077002D01*
G01*
X167736542Y-94827755D02*
X165700513Y-95799691D01*
X128223675Y-116221099D02*
X127823624Y-116221099D01*
X126873408Y-115271137D02*
X127823624Y-116221099D01*
X139103712Y-113001061D02*
X139103712Y-113801061D01*
X108300182Y-102435523D02*
X107500182Y-102416773D01*
X129833573Y-107809672D02*
X128843573Y-107831072D01*
X128223675Y-116221099D02*
X128190784Y-117471061D01*
X144239073Y-115576061D02*
X145864073Y-115576061D01*
X145746212Y-113251061D02*
X145746212Y-114051061D01*
X132761882Y-114333038D02*
X133230716Y-115090549D01*
X133230699Y-115090559D02*
G75*
G03*
X133394612Y-115196208I193001J119459D01*
G01*
X133394612Y-115196209D02*
X133973738Y-115271137D01*
X145864073Y-115576061D02*
X145746212Y-114051061D01*
X135084962Y-111661061D02*
X133973738Y-111671188D01*
X109904267Y-101172509D02*
X108840740Y-101188953D01*
X115628331Y-108739775D02*
X114628331Y-108739775D01*
X133973738Y-115271137D02*
X135084962Y-115381061D01*
X130765539Y-110462613D02*
X130333141Y-109794338D01*
X130298589Y-109700151D02*
G75*
G03*
X130333141Y-109794338I225111J29151D01*
G01*
X130298601Y-109700149D02*
X130223675Y-109121023D01*
X129833573Y-107809672D02*
X130131050Y-108478808D01*
X130148739Y-108541897D02*
G75*
G03*
X130131049Y-108478808I-225139J-29103D01*
G01*
X130148748Y-108541896D02*
X130223675Y-109121023D01*
X130298607Y-116800224D02*
G75*
G03*
X130304958Y-116831677I225293J29124D01*
G01*
X130298601Y-116800225D02*
X130223675Y-116221099D01*
X108840740Y-101188953D02*
X109212863Y-102620425D01*
X109082267Y-105243432D02*
X109082267Y-106043432D01*
X114628331Y-108739775D02*
X115387250Y-109167514D01*
X115387242Y-109167529D02*
G75*
G03*
X115710355Y-109223875I241058J427729D01*
G01*
X115710355Y-109223875D02*
X116277722Y-109127743D01*
X126385784Y-117167861D02*
X126385784Y-116367861D01*
D68*
%TO.N,Net-(Q4-C)*%
X99822695Y-114096955D02*
X100899433Y-115318382D01*
X100934184Y-115393433D02*
G75*
G03*
X100899433Y-115318382I-143484J-20867D01*
G01*
X100934158Y-115393437D02*
X101390662Y-118538267D01*
X99822695Y-114096955D02*
X101685798Y-114587182D01*
X101685799Y-114587179D02*
G75*
G03*
X101722695Y-114591955I36901J140179D01*
G01*
X101722695Y-114591955D02*
X102722695Y-114591955D01*
X102722695Y-114591954D02*
G75*
G03*
X102725339Y-114591930I5J145654D01*
G01*
X102725339Y-114591931D02*
X103919704Y-114570149D01*
X103919704Y-114570132D02*
G75*
G03*
X103995914Y-114546857I-2604J144932D01*
G01*
X103995914Y-114546857D02*
X104646644Y-114125173D01*
%TO.N,rgb-drive7_gpio*%
X90329543Y-87586393D02*
X90487971Y-89176975D01*
X90446185Y-89293847D02*
G75*
G03*
X90487971Y-89176975I-102485J102547D01*
G01*
X90446215Y-89293877D02*
X89951241Y-89788852D01*
X89747730Y-89790398D02*
G75*
G03*
X89951241Y-89788852I100970J104098D01*
G01*
X89747740Y-89790388D02*
X89270858Y-89327696D01*
X89270870Y-89327684D02*
G75*
G03*
X89067357Y-89329232I-100970J-104116D01*
G01*
X89067357Y-89329232D02*
X88572382Y-89824207D01*
X88572366Y-89824191D02*
G75*
G03*
X88529913Y-89926737I102534J-102509D01*
G01*
X88529913Y-89926737D02*
X88529913Y-93426737D01*
X88529913Y-93426737D02*
G75*
G03*
X88529926Y-93428678I134387J-63D01*
G01*
X88529926Y-93428678D02*
X88548732Y-94833896D01*
X88548732Y-94833896D02*
G75*
G03*
X88550299Y-94864606I409268J5496D01*
G01*
X88550299Y-94864606D02*
X89085007Y-100885087D01*
X89085016Y-100885086D02*
G75*
G03*
X89184354Y-101010072I144384J12786D01*
G01*
X89184354Y-101010072D02*
X89679503Y-101172057D01*
%TO.N,cols2_gpio*%
X188408250Y-116341466D02*
X185334465Y-116038664D01*
X185334465Y-116038661D02*
G75*
G03*
X185320250Y-116037966I-14165J-143939D01*
G01*
X185320250Y-116037966D02*
X184620250Y-116037966D01*
X184620250Y-116038012D02*
G75*
G03*
X184517264Y-116080893I-50J-144988D01*
G01*
X184517264Y-116080893D02*
X183274236Y-117335039D01*
X183171250Y-117378011D02*
G75*
G03*
X183274236Y-117335039I-50J145011D01*
G01*
X183171250Y-117377966D02*
X182471250Y-117377966D01*
X182389513Y-117352691D02*
G75*
G03*
X182471250Y-117377966I81787J119691D01*
G01*
X182389494Y-117352719D02*
X180908250Y-116341466D01*
X180649084Y-114817848D02*
X180908250Y-116341466D01*
X135023738Y-113671188D02*
X133973738Y-113671188D01*
D70*
%TO.N,GND*%
X131308896Y-126629195D02*
X131330552Y-127692680D01*
X110012863Y-101795425D02*
X110012863Y-102620425D01*
X173987828Y-117359456D02*
X174390307Y-117969474D01*
X174437510Y-118107466D02*
G75*
G03*
X174390306Y-117969474I-289710J-22034D01*
G01*
X174437495Y-118107467D02*
X174540738Y-119467483D01*
X174408122Y-119871211D02*
G75*
G03*
X174540738Y-119467483I-420322J361711D01*
G01*
X174408093Y-119871186D02*
X173987828Y-120359456D01*
X164487590Y-124696477D02*
X164487590Y-126128977D01*
X125428562Y-115567861D02*
X125428562Y-116367861D01*
X173987828Y-116509456D02*
X173987828Y-117359456D01*
X113610847Y-113467920D02*
X112810847Y-113467920D01*
X113187863Y-103495425D02*
X112412863Y-103495425D01*
X142072926Y-129793421D02*
X142072926Y-128768421D01*
X129864962Y-105911061D02*
X129833573Y-106852449D01*
X173987828Y-111359456D02*
X174390307Y-111969474D01*
X174437510Y-112107466D02*
G75*
G03*
X174390306Y-111969474I-289710J-22034D01*
G01*
X174437495Y-112107467D02*
X174540738Y-113467483D01*
X174408122Y-113871211D02*
G75*
G03*
X174540738Y-113467483I-420322J361711D01*
G01*
X174408093Y-113871186D02*
X173987828Y-114359456D01*
X132118000Y-119589572D02*
X131318000Y-119589572D01*
X107311376Y-117520684D02*
X107820111Y-117874691D01*
X107820095Y-117874714D02*
G75*
G03*
X107986038Y-117926740I165905J238514D01*
G01*
X107986038Y-117926740D02*
X109286038Y-117926740D01*
X109286038Y-117926752D02*
G75*
G03*
X109419193Y-117894425I-38J290552D01*
G01*
X109419193Y-117894426D02*
X110143876Y-117520684D01*
X173987828Y-113509456D02*
X173987828Y-114359456D01*
X114918417Y-114678618D02*
X114918417Y-115478618D01*
X111612863Y-101795425D02*
X111612863Y-102620425D01*
X145923651Y-129749227D02*
X145923651Y-128724227D01*
X111612863Y-102620425D02*
X110812863Y-102620425D01*
X173987828Y-108359456D02*
X174390307Y-108969474D01*
X174437510Y-109107466D02*
G75*
G03*
X174390306Y-108969474I-289710J-22034D01*
G01*
X174437495Y-109107467D02*
X174540738Y-110467483D01*
X174408122Y-110871211D02*
G75*
G03*
X174540738Y-110467483I-420322J361711D01*
G01*
X174408093Y-110871186D02*
X173987828Y-111359456D01*
X112493804Y-120898678D02*
X112493804Y-120169789D01*
X111550876Y-116769684D02*
X112957876Y-116520684D01*
X173987828Y-102629456D02*
X173987828Y-103479456D01*
X173987828Y-129359456D02*
X173987828Y-128509456D01*
X108179377Y-114643396D02*
X108179377Y-115443396D01*
X133938221Y-127588136D02*
X132581817Y-127079723D01*
X132581817Y-127079724D02*
G75*
G03*
X132475008Y-127060363I-106817J-284976D01*
G01*
X132475008Y-127060363D02*
X132276096Y-127060363D01*
X132276096Y-127060356D02*
G75*
G03*
X132159639Y-127083528I4J-304244D01*
G01*
X132159639Y-127083528D02*
X131975868Y-127159648D01*
X131975871Y-127159655D02*
G75*
G03*
X131894340Y-127209694I116429J-281145D01*
G01*
X131894339Y-127209693D02*
X131330552Y-127692680D01*
X110812863Y-101795425D02*
X110812863Y-102620425D01*
X122233407Y-129969586D02*
X122226778Y-127518782D01*
X110012863Y-102620425D02*
X110812863Y-102620425D01*
X99458588Y-115999237D02*
X100440662Y-116039267D01*
X165303060Y-128430459D02*
X164503060Y-128430459D01*
X111550876Y-116769684D02*
X110641632Y-117398600D01*
X110532111Y-117444781D02*
G75*
G03*
X110641632Y-117398600I-55711J285081D01*
G01*
X110532112Y-117444788D02*
X110143876Y-117520684D01*
X173987828Y-104509456D02*
X173987828Y-105359456D01*
X173987828Y-131509456D02*
X173987828Y-132359456D01*
X110302048Y-109913729D02*
X111102048Y-109913729D01*
X133938221Y-127588136D02*
X133931997Y-130805095D01*
X136042184Y-115381061D02*
X136751073Y-115381061D01*
X111612863Y-102620425D02*
X111917514Y-103100969D01*
X111917518Y-103100967D02*
G75*
G03*
X111988782Y-103177989I245282J155467D01*
G01*
X111988782Y-103177989D02*
X112412863Y-103495425D01*
X99286056Y-124863044D02*
X100205244Y-124853241D01*
X107500780Y-104754738D02*
X108300780Y-104754738D01*
X112810847Y-113467920D02*
X111007706Y-113985487D01*
X110470368Y-113852218D02*
G75*
G03*
X111007706Y-113985487I384332J399718D01*
G01*
X110470384Y-113852201D02*
X110054722Y-113452508D01*
X173987828Y-110509456D02*
X173987828Y-111359456D01*
X173987828Y-107509456D02*
X173987828Y-108359456D01*
X114214309Y-120115196D02*
X113414309Y-120115196D01*
X129833573Y-106852449D02*
X128843573Y-106873849D01*
X87481867Y-102689458D02*
X86528896Y-101504462D01*
X137744043Y-106375535D02*
X136944043Y-106375535D01*
X109212863Y-103495425D02*
X107500182Y-103411496D01*
X167305101Y-123925403D02*
X164487590Y-124696477D01*
X130423573Y-112671188D02*
X132740151Y-113144387D01*
X127233562Y-117471061D02*
X127233562Y-116671061D01*
X109987863Y-103495425D02*
X109212863Y-103495425D01*
X114918417Y-115478618D02*
X114390487Y-114969510D01*
X114390487Y-114969510D02*
G75*
G03*
X114388541Y-114967651I-254587J-264490D01*
G01*
X114388541Y-114967651D02*
X113229649Y-113870609D01*
X113226509Y-113867613D02*
G75*
G03*
X113229649Y-113870609I459291J478213D01*
G01*
X113226509Y-113867613D02*
X112810847Y-113467920D01*
X173987828Y-119509456D02*
X173987828Y-120359456D01*
X117077722Y-110084966D02*
X116277722Y-110084966D01*
X93940450Y-102772260D02*
X92215444Y-102772260D01*
X127991024Y-106363364D02*
X128843573Y-106873849D01*
X115925777Y-127279015D02*
X115925777Y-125929015D01*
X146740934Y-114051061D02*
X147468573Y-114051061D01*
X173987828Y-114359456D02*
X174390307Y-114969474D01*
X174437510Y-115107466D02*
G75*
G03*
X174390306Y-114969474I-289710J-22034D01*
G01*
X174437495Y-115107467D02*
X174540738Y-116467483D01*
X174408122Y-116871211D02*
G75*
G03*
X174540738Y-116467483I-420322J361711D01*
G01*
X174408093Y-116871186D02*
X173987828Y-117359456D01*
X113954553Y-117223966D02*
X113954553Y-116423966D01*
X136042184Y-111661061D02*
X136751073Y-111661061D01*
X173987828Y-122509456D02*
X173987828Y-123359456D01*
X112028331Y-109689775D02*
X113028331Y-109689775D01*
X124770552Y-127692680D02*
X124802841Y-129352499D01*
X87481867Y-103489458D02*
X87481867Y-102689458D01*
X115925777Y-125929015D02*
X116459487Y-124216213D01*
X131933000Y-121428000D02*
X131064000Y-121428000D01*
X173987828Y-120359456D02*
X174390307Y-120969474D01*
X174437510Y-121107466D02*
G75*
G03*
X174390306Y-120969474I-289710J-22034D01*
G01*
X174437495Y-121107467D02*
X174540738Y-122467483D01*
X174408122Y-122871211D02*
G75*
G03*
X174540738Y-122467483I-420322J361711D01*
G01*
X174408093Y-122871186D02*
X173987828Y-123359456D01*
X133231073Y-105901061D02*
X132522184Y-105901061D01*
X137178073Y-119386061D02*
X138803073Y-119386061D01*
X173987828Y-125509456D02*
X173987828Y-126359456D01*
X110854722Y-113452508D02*
X110054722Y-113452508D01*
X121354158Y-127502030D02*
X122226778Y-127518782D01*
X95701385Y-102772260D02*
X94751385Y-102772260D01*
D68*
%TO.N,Net-(USB1-SHELL0)*%
X122233407Y-130889308D02*
X122655091Y-130238578D01*
X122655092Y-130238579D02*
G75*
G03*
X122662275Y-130226192I-121592J78779D01*
G01*
X122662275Y-130226192D02*
X123725552Y-128164680D01*
X132375552Y-128164680D02*
X132375552Y-132104680D01*
X132375552Y-132104680D02*
X133931997Y-131762318D01*
X123725552Y-132104680D02*
X132375552Y-132104680D01*
X123725552Y-132104680D02*
X122233407Y-130889308D01*
%TO.N,QSPI_SD1*%
X138803073Y-116846061D02*
X133125310Y-116916088D01*
X133123522Y-116916099D02*
G75*
G03*
X133125310Y-116916088I-122J159899D01*
G01*
X133123522Y-116916099D02*
X132923522Y-116916099D01*
X132783581Y-116809145D02*
G75*
G03*
X132923522Y-116916099I139919J38045D01*
G01*
X132783601Y-116809140D02*
X132623725Y-116221099D01*
%TO.N,Net-(LED2-DO)*%
X172727828Y-108359456D02*
X173357828Y-109479456D01*
%TO.N,Net-(LED11-A)*%
X91778402Y-127108947D02*
X91778402Y-130608947D01*
X100063021Y-122372752D02*
X102463021Y-122372752D01*
X100063021Y-122372752D02*
X99470799Y-122860859D01*
X99470811Y-122860873D02*
G75*
G03*
X99436881Y-122901242I92189J-111927D01*
G01*
X99436881Y-122901242D02*
X95790073Y-129333941D01*
X95790068Y-129333938D02*
G75*
G03*
X95781593Y-129351577I126332J-71562D01*
G01*
X95781592Y-129351577D02*
X95278402Y-130608947D01*
X88278402Y-130608947D02*
X91778402Y-130608947D01*
X88278402Y-130608947D02*
X88278402Y-127108947D01*
X95278402Y-123608947D02*
X95278402Y-127108947D01*
X88278402Y-127108947D02*
X88278402Y-123608947D01*
X91778402Y-123608947D02*
X91778402Y-127108947D01*
X100063021Y-121422752D02*
X100063021Y-122372752D01*
X95278402Y-127108947D02*
X95278402Y-130608947D01*
X102463021Y-121422752D02*
X102463021Y-122372752D01*
X95278402Y-130608947D02*
X91778402Y-130608947D01*
%TO.N,Net-(C23-Pad1)*%
X154343123Y-100595783D02*
X161406104Y-129575635D01*
X164503060Y-129387682D02*
X163607498Y-132512475D01*
X161843109Y-132401474D02*
G75*
G03*
X163607497Y-132512475I894391J138374D01*
G01*
X161843156Y-132401467D02*
X161406104Y-129575635D01*
%TO.N,rgb-drive3_gpio*%
X90215469Y-100161382D02*
X90954117Y-94591312D01*
X90954081Y-94591307D02*
G75*
G03*
X90914441Y-94471281I-143681J19107D01*
G01*
X90914442Y-94471280D02*
X90451750Y-93994399D01*
X90422594Y-93836101D02*
G75*
G03*
X90451750Y-93994399I133206J-57299D01*
G01*
X90422625Y-93836114D02*
X90825932Y-92898861D01*
X90825937Y-92898863D02*
G75*
G03*
X90861326Y-92778943I-482137J207463D01*
G01*
X90861326Y-92778943D02*
X91140679Y-91128146D01*
X91140662Y-91128143D02*
G75*
G03*
X91140995Y-91018259I-330262J55943D01*
G01*
X91140996Y-91018259D02*
X91036650Y-90379286D01*
%TO.N,rgb-drive9_gpio*%
X94536650Y-93879286D02*
X94215444Y-100161229D01*
%TO.N,Net-(D9-K)*%
X182821250Y-124207966D02*
X180908250Y-120371466D01*
%TO.N,QSPI_SD3*%
X131023522Y-116221099D02*
X131183668Y-116809196D01*
X131183682Y-116809192D02*
G75*
G03*
X131254707Y-116898701I139918J38092D01*
G01*
X131254707Y-116898701D02*
X131564519Y-117065905D01*
X131564516Y-117065911D02*
G75*
G03*
X131670578Y-117101871I159084J294811D01*
G01*
X131670578Y-117101872D02*
X132840390Y-117289475D01*
X132840390Y-117289477D02*
G75*
G03*
X132902549Y-117295680I83110J518277D01*
G01*
X132902549Y-117295680D02*
X137907794Y-117495793D01*
X137907794Y-117495792D02*
G75*
G03*
X137921176Y-117496061I13406J333992D01*
G01*
X137921176Y-117496061D02*
X139684970Y-117496061D01*
X139684970Y-117496056D02*
G75*
G03*
X139720115Y-117494212I30J335256D01*
G01*
X139720115Y-117494212D02*
X145864073Y-116846061D01*
%TO.N,Net-(Q7-D)*%
X100653568Y-101348533D02*
X100449553Y-103531156D01*
X100449553Y-103531156D02*
X96668793Y-104700617D01*
%TO.N,drive6_gpio*%
X96464836Y-110308423D02*
X93593380Y-105836546D01*
X93577614Y-105803350D02*
G75*
G03*
X93593381Y-105836545I137886J45150D01*
G01*
X93577602Y-105803354D02*
X93415342Y-105308201D01*
X96464836Y-110308423D02*
X97172598Y-113779453D01*
X97175300Y-113800552D02*
G75*
G03*
X97172598Y-113779453I-145000J-7848D01*
G01*
X97175308Y-113800552D02*
X97365028Y-117290238D01*
X97360536Y-117365962D02*
G75*
G03*
X97365027Y-117290238I-329936J57562D01*
G01*
X97360543Y-117365963D02*
X96481898Y-122405451D01*
%TO.N,rgb-drive26_gpio*%
X97171403Y-103727971D02*
X96531256Y-104069712D01*
X96496841Y-104086071D02*
G75*
G03*
X96531256Y-104069712I-158241J377271D01*
G01*
X96496841Y-104086072D02*
X95257470Y-104605922D01*
X95253574Y-104607492D02*
G75*
G03*
X95257470Y-104605922I-50574J131092D01*
G01*
X95253574Y-104607491D02*
X94826474Y-104772260D01*
X97171403Y-103727971D02*
X98660849Y-93886842D01*
X98660843Y-93886841D02*
G75*
G03*
X98662482Y-93865144I-143343J21741D01*
G01*
X98662482Y-93865144D02*
X98662482Y-90365144D01*
X98662459Y-90365144D02*
G75*
G03*
X98634388Y-90279367I-144959J44D01*
G01*
X98634389Y-90279366D02*
X96731803Y-87686312D01*
X96716460Y-87659983D02*
G75*
G03*
X96731803Y-87686312I132340J59483D01*
G01*
X96716457Y-87659984D02*
X96155746Y-86412595D01*
%TO.N,tof-i2c_scl*%
X126873408Y-110471036D02*
X127461506Y-110631180D01*
X127465466Y-110632318D02*
G75*
G03*
X127461506Y-110631180I-40966J-135082D01*
G01*
X127465466Y-110632319D02*
X128088436Y-110821129D01*
X110012863Y-104371425D02*
X109994490Y-106043432D01*
X110911153Y-105583106D02*
X110012863Y-104371425D01*
%TO.N,Net-(LED7-BO)*%
X173987828Y-124479456D02*
X173357828Y-123359456D01*
%TO.N,rgb-drive5_gpio*%
X89604413Y-100772260D02*
X89513746Y-94605459D01*
X89522484Y-94524333D02*
G75*
G03*
X89513747Y-94605459I326216J-76167D01*
G01*
X89522492Y-94524335D02*
X89777777Y-93431435D01*
X89777824Y-93431446D02*
G75*
G03*
X89740645Y-93297483I-141224J32946D01*
G01*
X89740645Y-93297483D02*
X89277953Y-92820601D01*
X89264180Y-92804113D02*
G75*
G03*
X89277953Y-92820601I117920J84513D01*
G01*
X89264176Y-92804116D02*
X88943552Y-92356897D01*
X88870515Y-92064856D02*
G75*
G03*
X88943553Y-92356896I405485J-53744D01*
G01*
X88870499Y-92064854D02*
X89155746Y-89912595D01*
%TO.N,rgb-drive11_gpio*%
X92615495Y-100236065D02*
X92655746Y-93412595D01*
%TO.N,cols1_gpio*%
X180908250Y-123841466D02*
X180709972Y-122347597D01*
X188408250Y-123841466D02*
X185334465Y-123538664D01*
X185334465Y-123538661D02*
G75*
G03*
X185320250Y-123537966I-14165J-143939D01*
G01*
X185320250Y-123537966D02*
X184620250Y-123537966D01*
X184620250Y-123538012D02*
G75*
G03*
X184517264Y-123580893I-50J-144988D01*
G01*
X184517264Y-123580893D02*
X183274236Y-124835039D01*
X183171250Y-124878011D02*
G75*
G03*
X183274236Y-124835039I-50J145011D01*
G01*
X183171250Y-124877966D02*
X182471250Y-124877966D01*
X182389513Y-124852691D02*
G75*
G03*
X182471250Y-124877966I81787J119691D01*
G01*
X182389494Y-124852719D02*
X180908250Y-123841466D01*
X135023738Y-112471036D02*
X133973738Y-112471036D01*
%TO.N,RP-USB-NET-DP*%
X128325552Y-127692680D02*
X128087783Y-128389505D01*
X127950552Y-128487647D02*
G75*
G03*
X128087782Y-128389505I48J144947D01*
G01*
X127950552Y-128487680D02*
X127050552Y-128487680D01*
X126913377Y-128389486D02*
G75*
G03*
X127050552Y-128487680I137223J46786D01*
G01*
X126913321Y-128389505D02*
X126675552Y-127692680D01*
%TO.N,Net-(USB1-CC1)*%
X125400552Y-127692680D02*
X125157480Y-126994976D01*
X125157531Y-126994958D02*
G75*
G03*
X125035921Y-126898497I-136931J-47742D01*
G01*
X125035921Y-126898496D02*
X122226778Y-126599060D01*
%TO.N,Net-(LED3-DO)*%
X172727828Y-111359456D02*
X173357828Y-112479456D01*
%TO.N,Net-(U3-XOUT)*%
X130743573Y-107774672D02*
X130623725Y-109121023D01*
%TO.N,rpi-led-i2c_scl*%
X103698884Y-103892986D02*
X104011267Y-105186422D01*
X104011267Y-105186422D02*
X102613259Y-105175999D01*
X125737445Y-111468671D02*
X126873408Y-111271137D01*
%TO.N,Net-(D4-K)*%
X190321250Y-131707966D02*
X188408250Y-127871466D01*
%TO.N,Net-(LED1-DI)*%
X171029726Y-103170146D02*
X170127952Y-101594161D01*
X173357828Y-103479456D02*
X173000515Y-103920707D01*
X172887828Y-103974494D02*
G75*
G03*
X173000515Y-103920707I-28J144994D01*
G01*
X172887828Y-103974456D02*
X172567828Y-103974456D01*
X172499364Y-103957284D02*
G75*
G03*
X172567828Y-103974456I68436J127784D01*
G01*
X172499368Y-103957277D02*
X171029726Y-103170146D01*
%TO.N,Net-(U7-IN+)*%
X163513181Y-118384569D02*
X163217590Y-120763977D01*
%TO.N,Net-(LED8-BO)*%
X173987828Y-127479456D02*
X173357828Y-126359456D01*
%TO.N,drive2_gpio*%
X89464836Y-117308423D02*
X88757074Y-113837394D01*
X88754799Y-113794645D02*
G75*
G03*
X88757074Y-113837394I144301J-13755D01*
G01*
X88754807Y-113794646D02*
X88971370Y-111525696D01*
X88971359Y-111525695D02*
G75*
G03*
X88963254Y-111462252I-144359J13795D01*
G01*
X88963254Y-111462252D02*
X88584417Y-110423172D01*
X88581879Y-110200843D02*
G75*
G03*
X88584418Y-110423172I317221J-107557D01*
G01*
X88581893Y-110200848D02*
X90215469Y-105383163D01*
X89464836Y-117308423D02*
X88586191Y-122347911D01*
X88586216Y-122347915D02*
G75*
G03*
X88601479Y-122520200I329984J-57585D01*
G01*
X88601478Y-122520200D02*
X88980316Y-123559280D01*
X88988412Y-123622722D02*
G75*
G03*
X88980316Y-123559280I-144312J13822D01*
G01*
X88988431Y-123622724D02*
X88771868Y-125891674D01*
X88771853Y-125891673D02*
G75*
G03*
X88774136Y-125934422I144347J-13727D01*
G01*
X88774136Y-125934422D02*
X89481898Y-129405451D01*
%TO.N,Net-(Q2-B)*%
X102105244Y-124853241D02*
X103910295Y-127097830D01*
%TO.N,Net-(D1-Padc)*%
X108339169Y-120485222D02*
X109107548Y-121247966D01*
X109150415Y-121350874D02*
G75*
G03*
X109107547Y-121247967I-145015J-26D01*
G01*
X109150395Y-121350874D02*
X109150395Y-122300874D01*
X109136373Y-122363107D02*
G75*
G03*
X109150395Y-122300874I-130973J62207D01*
G01*
X109136363Y-122363102D02*
X108749101Y-123178150D01*
%TO.N,Net-(U1-EN1)*%
X110143876Y-116520684D02*
X109094234Y-116392923D01*
%TO.N,Net-(LED4-DO)*%
X172727828Y-114359456D02*
X173357828Y-115479456D01*
%TO.N,rgb-drive0_gpio*%
X91015546Y-100236065D02*
X91145287Y-94579933D01*
X91145295Y-94579933D02*
G75*
G03*
X91140996Y-94518259I-334995J7633D01*
G01*
X91140996Y-94518259D02*
X91036650Y-93879286D01*
%TO.N,Net-(U1-CE_NOT)*%
X110054722Y-114372231D02*
X110800876Y-115362684D01*
%TO.N,Net-(D7-K)*%
X188408250Y-105371466D02*
X190321250Y-109207966D01*
%TO.N,tof-en_gpio*%
X112412863Y-102620425D02*
X113162863Y-102620425D01*
X127894467Y-110079129D02*
X127823624Y-109121023D01*
X108040740Y-100276731D02*
X108840740Y-100276731D01*
%TO.N,Net-(U1-CHG_NOT)*%
X108339169Y-119565500D02*
X110800876Y-118177684D01*
%TO.N,Net-(U1-EN2)*%
X110143876Y-116019684D02*
X109099099Y-115443396D01*
%TO.N,Net-(U3-RUN)*%
X134736530Y-122047730D02*
X134736530Y-121247730D01*
X128623725Y-110171023D02*
X128623725Y-109121023D01*
%TO.N,rgb-drive22_gpio*%
X94751385Y-101972158D02*
X95246538Y-101809898D01*
X95246534Y-101809885D02*
G75*
G03*
X95328986Y-101740974I-45134J137785D01*
G01*
X95328987Y-101740974D02*
X95496191Y-101431161D01*
X95496172Y-101431151D02*
G75*
G03*
X95532896Y-101320270I-294772J159151D01*
G01*
X95532897Y-101320270D02*
X96517198Y-94552321D01*
X96554634Y-94440065D02*
G75*
G03*
X96517199Y-94552321I294066J-160435D01*
G01*
X96554642Y-94440070D02*
X97470968Y-92760801D01*
X97470943Y-92760787D02*
G75*
G03*
X97487971Y-92676975I-127243J69487D01*
G01*
X97487971Y-92676975D02*
X97329543Y-91086393D01*
%TO.N,rgb-drive2_gpio*%
X88957695Y-94828423D02*
X89155746Y-93412595D01*
%TO.N,rows1_gpio*%
X184970250Y-109207966D02*
X189031258Y-115714693D01*
X189053275Y-115791466D02*
G75*
G03*
X189031257Y-115714693I-144975J-34D01*
G01*
X189053250Y-115791466D02*
X189053250Y-116891466D01*
X188908250Y-117036450D02*
G75*
G03*
X189053250Y-116891466I50J144950D01*
G01*
X188908250Y-117036466D02*
X187908250Y-117036466D01*
X187892095Y-117035557D02*
G75*
G03*
X187908250Y-117036466I16205J144057D01*
G01*
X187892094Y-117035563D02*
X184970250Y-116707966D01*
X184970250Y-124207966D02*
X189031258Y-130714693D01*
X189053275Y-130791466D02*
G75*
G03*
X189031257Y-130714693I-144975J-34D01*
G01*
X189053250Y-130791466D02*
X189053250Y-131891466D01*
X188908250Y-132036450D02*
G75*
G03*
X189053250Y-131891466I50J144950D01*
G01*
X188908250Y-132036466D02*
X187908250Y-132036466D01*
X187892095Y-132035557D02*
G75*
G03*
X187908250Y-132036466I16205J144057D01*
G01*
X187892094Y-132035563D02*
X184970250Y-131707966D01*
X133973738Y-110070985D02*
X135023738Y-110070985D01*
X184970250Y-116707966D02*
X189031258Y-123214693D01*
X189053275Y-123291466D02*
G75*
G03*
X189031257Y-123214693I-144975J-34D01*
G01*
X189053250Y-123291466D02*
X189053250Y-124391466D01*
X188908250Y-124536450D02*
G75*
G03*
X189053250Y-124391466I50J144950D01*
G01*
X188908250Y-124536466D02*
X187908250Y-124536466D01*
X187892095Y-124535557D02*
G75*
G03*
X187908250Y-124536466I16205J144057D01*
G01*
X187892094Y-124535563D02*
X184970250Y-124207966D01*
X184970250Y-109207966D02*
X184120369Y-110950132D01*
%TO.N,Net-(LED1-BO)*%
X173987828Y-106479456D02*
X173357828Y-105359456D01*
%TO.N,Net-(LED10-BI)*%
X173357828Y-129359456D02*
X173987828Y-130479456D01*
%TO.N,/4: led-drive_u/SCL*%
X101559912Y-110344316D02*
X100861247Y-108290658D01*
X100613259Y-106125999D02*
X100861247Y-108290658D01*
X100613259Y-106125999D02*
X94525452Y-105014903D01*
X94464627Y-104988348D02*
G75*
G03*
X94525452Y-105014903I86873J116048D01*
G01*
X94464619Y-104988359D02*
X94202286Y-104792076D01*
X94202284Y-104792079D02*
G75*
G03*
X94150565Y-104767501I-86884J-116121D01*
G01*
X94150565Y-104767500D02*
X93950539Y-104717525D01*
X93950539Y-104717526D02*
G75*
G03*
X93940308Y-104715358I-35239J-141074D01*
G01*
X93940308Y-104715357D02*
X89679503Y-103972158D01*
%TO.N,drive1_gpio*%
X91415342Y-105308201D02*
X92066912Y-110351348D01*
X92066906Y-110351349D02*
G75*
G03*
X92084418Y-110423172I332194J42949D01*
G01*
X92084417Y-110423172D02*
X92463254Y-111462252D01*
X92471359Y-111525695D02*
G75*
G03*
X92463254Y-111462252I-144359J13795D01*
G01*
X92471370Y-111525696D02*
X92254807Y-113794646D01*
X92254799Y-113794645D02*
G75*
G03*
X92257074Y-113837394I144301J-13755D01*
G01*
X92257074Y-113837394D02*
X92964836Y-117308423D01*
X92981898Y-129405451D02*
X92274136Y-125934422D01*
X92271853Y-125891673D02*
G75*
G03*
X92274136Y-125934422I144347J-13727D01*
G01*
X92271868Y-125891674D02*
X92488431Y-123622724D01*
X92488412Y-123622722D02*
G75*
G03*
X92480316Y-123559280I-144312J13822D01*
G01*
X92480316Y-123559280D02*
X92101478Y-122520200D01*
X92086216Y-122347915D02*
G75*
G03*
X92101479Y-122520200I329984J-57585D01*
G01*
X92086191Y-122347911D02*
X92964836Y-117308423D01*
%TO.N,rgb-drive19_gpio*%
X97329543Y-94586393D02*
X96105955Y-102832293D01*
X95697414Y-103181260D02*
G75*
G03*
X96105955Y-102832293I3986J408960D01*
G01*
X95697414Y-103181240D02*
X94751385Y-103172057D01*
%TO.N,cols3_gpio*%
X180689676Y-107369283D02*
X180908250Y-108841466D01*
X133023522Y-109121023D02*
X133023522Y-110171023D01*
X188408250Y-108841466D02*
X185334465Y-108538664D01*
X185334465Y-108538661D02*
G75*
G03*
X185320250Y-108537966I-14165J-143939D01*
G01*
X185320250Y-108537966D02*
X184620250Y-108537966D01*
X184620250Y-108538012D02*
G75*
G03*
X184517264Y-108580893I-50J-144988D01*
G01*
X184517264Y-108580893D02*
X183274236Y-109835039D01*
X183171250Y-109878011D02*
G75*
G03*
X183274236Y-109835039I-50J145011D01*
G01*
X183171250Y-109877966D02*
X182471250Y-109877966D01*
X182389513Y-109852691D02*
G75*
G03*
X182471250Y-109877966I81787J119691D01*
G01*
X182389494Y-109852719D02*
X180908250Y-108841466D01*
%TO.N,Net-(U7-VO+)*%
X162737522Y-132263141D02*
X161947590Y-126128977D01*
D70*
%TO.N,VBAT*%
X117925777Y-125929015D02*
X117456710Y-124216213D01*
X111942415Y-114545263D02*
X111800876Y-115362684D01*
X111300876Y-115362684D02*
X111800876Y-115362684D01*
X111134486Y-114583767D02*
X111223690Y-114963801D01*
X111226118Y-114975158D02*
G75*
G03*
X111223689Y-114963801I-286118J-55242D01*
G01*
X111226117Y-114975158D02*
X111300876Y-115362684D01*
X117456710Y-124216213D02*
X114528309Y-119306337D01*
X107088057Y-116332143D02*
X108174512Y-116392923D01*
D68*
%TO.N,Net-(LED5-DO)*%
X172727828Y-117359456D02*
X173357828Y-118479456D01*
%TO.N,/6: rpi_flash/IN-*%
X161225376Y-118395721D02*
X161947590Y-120763977D01*
%TO.N,Net-(U3-SWD)*%
X124231509Y-108583566D02*
X127717083Y-108426170D01*
X127723624Y-108426026D02*
G75*
G03*
X127717083Y-108426171I-24J-146574D01*
G01*
X127723624Y-108426023D02*
X128723725Y-108426023D01*
X128863606Y-108532992D02*
G75*
G03*
X128723725Y-108426023I-139906J-38008D01*
G01*
X128863646Y-108532981D02*
X129023522Y-109121023D01*
%TO.N,rgb-drive12_gpio*%
X94536650Y-90379286D02*
X94454411Y-91088942D01*
X94453345Y-91096444D02*
G75*
G03*
X94454410Y-91088942I-143045J24144D01*
G01*
X94453343Y-91096444D02*
X94173989Y-92747242D01*
X94137739Y-92851803D02*
G75*
G03*
X94173989Y-92747242I-294039J160503D01*
G01*
X94137753Y-92851811D02*
X93221427Y-94531080D01*
X93221412Y-94531072D02*
G75*
G03*
X93203813Y-94605979I127288J-69428D01*
G01*
X93203812Y-94605979D02*
X93415342Y-100236065D01*
%TO.N,Net-(D10-K)*%
X180908250Y-112871466D02*
X182821250Y-116707966D01*
%TO.N,rpi-led-i2c_sda*%
X102653568Y-100398533D02*
X104113597Y-100412562D01*
X125564913Y-110534125D02*
X126873408Y-110871086D01*
X104113597Y-100412562D02*
X103550198Y-99250304D01*
%TO.N,Net-(Q4-B)*%
X104001933Y-118326256D02*
X102340662Y-116039267D01*
%TO.N,rgb-drive25_gpio*%
X94809921Y-106595795D02*
X94017121Y-105864707D01*
X93977620Y-105803269D02*
G75*
G03*
X94017122Y-105864706I137780J45169D01*
G01*
X93977629Y-105803266D02*
X93815393Y-105308201D01*
X98323545Y-88225736D02*
X97329543Y-87586393D01*
%TO.N,rgb-drive6_gpio*%
X91036650Y-86879286D02*
X91843475Y-90287982D01*
X91852469Y-90366520D02*
G75*
G03*
X91843474Y-90287982I-334969J1420D01*
G01*
X91852479Y-90366520D02*
X91839916Y-93425362D01*
X91839916Y-93425362D02*
G75*
G03*
X91840057Y-93436558I337084J-1338D01*
G01*
X91840057Y-93436558D02*
X91852338Y-93855323D01*
X91852478Y-93867094D02*
G75*
G03*
X91852338Y-93855323I-336378J1894D01*
G01*
X91852477Y-93867094D02*
X91815393Y-100236065D01*
%TO.N,QSPI_SD0*%
X141571144Y-119412436D02*
X145864073Y-119386061D01*
X131241388Y-114812071D02*
X131652291Y-115604340D01*
X131663473Y-115633003D02*
G75*
G03*
X131652290Y-115604340I-139973J-38097D01*
G01*
X131663479Y-115633001D02*
X131823624Y-116221099D01*
%TO.N,Net-(LED2-BO)*%
X173357828Y-108359456D02*
X173987828Y-109479456D01*
%TO.N,drive3_gpio*%
X96481898Y-125905451D02*
X95774136Y-122434422D01*
X95776521Y-122366663D02*
G75*
G03*
X95774136Y-122434422I139679J-38837D01*
G01*
X95776498Y-122366657D02*
X97170236Y-117347218D01*
X97170225Y-117347215D02*
G75*
G03*
X97172598Y-117279453I-139725J38815D01*
G01*
X97172598Y-117279453D02*
X96464836Y-113808423D01*
X93015546Y-105308201D02*
X93177530Y-105803290D01*
X93177521Y-105803293D02*
G75*
G03*
X93187276Y-105826202I137679J45093D01*
G01*
X93187276Y-105826202D02*
X96122902Y-111354813D01*
X96159194Y-111468532D02*
G75*
G03*
X96122901Y-111354813I-332194J-43368D01*
G01*
X96159204Y-111468531D02*
X96464836Y-113808423D01*
%TO.N,rgb-drive14_gpio*%
X92215444Y-100236065D02*
X92042289Y-93850912D01*
X92042257Y-93849753D02*
G75*
G03*
X92042289Y-93850912I12172243J335453D01*
G01*
X92042257Y-93849753D02*
X92029975Y-93430988D01*
X92032168Y-93401223D02*
G75*
G03*
X92029975Y-93430988I142732J-25477D01*
G01*
X92032175Y-93401224D02*
X92655746Y-89912595D01*
%TO.N,rgb-drive23_gpio*%
X94751385Y-102372209D02*
X95246538Y-102209948D01*
X95246541Y-102209958D02*
G75*
G03*
X95328987Y-102141024I-45141J137758D01*
G01*
X95328987Y-102141024D02*
X95496191Y-101831213D01*
X95496192Y-101831213D02*
G75*
G03*
X95496191Y-101831212I-1J0D01*
G01*
X95496191Y-101831212D02*
X95663394Y-101521400D01*
X95663375Y-101521390D02*
G75*
G03*
X95720918Y-101347615I-461975J249390D01*
G01*
X95720919Y-101347615D02*
X96705220Y-94579666D01*
X96721419Y-94531075D02*
G75*
G03*
X96705221Y-94579666I127281J-69425D01*
G01*
X96721427Y-94531080D02*
X97637753Y-92851811D01*
X97637739Y-92851803D02*
G75*
G03*
X97673989Y-92747242I-294039J160503D01*
G01*
X97673989Y-92747242D02*
X97953343Y-91096444D01*
X97953392Y-91096452D02*
G75*
G03*
X97912905Y-90969721I-142992J24152D01*
G01*
X97912906Y-90969720D02*
X97446215Y-90503029D01*
X97446209Y-90503035D02*
G75*
G03*
X97403134Y-90473307I-102509J-102465D01*
G01*
X97403134Y-90473307D02*
X96155746Y-89912595D01*
%TO.N,Net-(U1-ILIM)*%
X113414309Y-119207974D02*
X112300876Y-118177684D01*
%TO.N,QSPI_SS*%
X133023522Y-116221099D02*
X138803073Y-115576061D01*
X140023434Y-113801061D02*
X138803073Y-115576061D01*
X147557265Y-125667432D02*
X149170467Y-127639794D01*
X140627231Y-116280918D02*
X138803073Y-115576061D01*
%TO.N,Net-(LED6-DO)*%
X172727828Y-120359456D02*
X173357828Y-121479456D01*
D70*
%TO.N,P4V2*%
X172727828Y-116329456D02*
X172727828Y-115479456D01*
X163217590Y-124696477D02*
X163217590Y-126128977D01*
X89862852Y-89205489D02*
X89275954Y-88618590D01*
X172727828Y-125329456D02*
X172727828Y-124479456D01*
X101463021Y-123322752D02*
X102463021Y-123322752D01*
X93362852Y-89205489D02*
X92775954Y-88618590D01*
X171029726Y-104077368D02*
X171829726Y-104077368D01*
X113028331Y-108739775D02*
X112028331Y-108739775D01*
X96275954Y-88618590D02*
X96862852Y-89205489D01*
X103776342Y-123330120D02*
X102463021Y-123322752D01*
X172727828Y-102629456D02*
X172727828Y-103479456D01*
X172727828Y-110329456D02*
X172727828Y-109479456D01*
X101369276Y-102731156D02*
X101369276Y-103531156D01*
X96275954Y-85118590D02*
X96862852Y-85705489D01*
X172727828Y-113329456D02*
X172727828Y-112479456D01*
X172727828Y-119329456D02*
X172727828Y-118479456D01*
X87523618Y-101504462D02*
X88251257Y-101504462D01*
X101780969Y-108290658D02*
X101780969Y-109090658D01*
X92775954Y-85118590D02*
X93362852Y-85705489D01*
X163217590Y-124696477D02*
X164245487Y-124197621D01*
X164275599Y-124184096D02*
G75*
G03*
X164245487Y-124197621I212201J-512704D01*
G01*
X164275600Y-124184099D02*
X167305101Y-122930681D01*
X172727828Y-122329456D02*
X172727828Y-121479456D01*
X172727828Y-128329456D02*
X172727828Y-127479456D01*
X96275954Y-92118590D02*
X96862852Y-92705489D01*
X89862852Y-85705489D02*
X89275954Y-85118590D01*
X172727828Y-107329456D02*
X172727828Y-106479456D01*
X172727828Y-131329456D02*
X172727828Y-130479456D01*
X113028331Y-110639775D02*
X112028331Y-110639775D01*
X93362852Y-92705489D02*
X92775954Y-92118590D01*
X109517152Y-128714060D02*
X109517152Y-130114060D01*
X110302048Y-108956506D02*
X111102048Y-108956506D01*
X103222695Y-114096955D02*
X102222695Y-114096955D01*
X89862852Y-92705489D02*
X89275954Y-92118590D01*
X103726922Y-114125173D02*
X103222695Y-114096955D01*
%TO.N,VBUS*%
X126040552Y-127692680D02*
X126218548Y-128412421D01*
X126218531Y-128412425D02*
G75*
G03*
X126400197Y-128615294I281969J69725D01*
G01*
X126400197Y-128615295D02*
X126884561Y-128793598D01*
X126884565Y-128793587D02*
G75*
G03*
X127050552Y-128823180I166035J450987D01*
G01*
X127050552Y-128823180D02*
X127950552Y-128823180D01*
X127950552Y-128823185D02*
G75*
G03*
X128005882Y-128819983I-52J480485D01*
G01*
X128005882Y-128819983D02*
X129634003Y-128631247D01*
X129634000Y-128631221D02*
G75*
G03*
X129882556Y-128412421I-33400J288521D01*
G01*
X129882556Y-128412421D02*
X130060552Y-127692680D01*
X112957876Y-117520684D02*
X114847821Y-118853146D01*
X114855214Y-118858449D02*
G75*
G03*
X114847821Y-118853147I-325914J-446651D01*
G01*
X114855214Y-118858449D02*
X125746816Y-126808033D01*
X125857124Y-126971092D02*
G75*
G03*
X125746816Y-126808033I-281524J-71608D01*
G01*
X125857095Y-126971099D02*
X126040552Y-127692680D01*
D68*
%TO.N,QSPI_SD2*%
X136607162Y-118173551D02*
X138803073Y-118116061D01*
X132241274Y-115106832D02*
X132223675Y-116221099D01*
%TO.N,drive4_gpio*%
X92964836Y-113808423D02*
X92659204Y-111468531D01*
X92659198Y-111468532D02*
G75*
G03*
X92641759Y-111397170I-332198J-43368D01*
G01*
X92641760Y-111397170D02*
X92262923Y-110358091D01*
X92254702Y-110321082D02*
G75*
G03*
X92262924Y-110358091I144498J12682D01*
G01*
X92254704Y-110321082D02*
X91815393Y-105308201D01*
X92981898Y-125905451D02*
X92676266Y-123565559D01*
X92676256Y-123565560D02*
G75*
G03*
X92658822Y-123494198I-332156J-43340D01*
G01*
X92658822Y-123494198D02*
X92279984Y-122455119D01*
X92276527Y-122366665D02*
G75*
G03*
X92279985Y-122455119I139673J-38835D01*
G01*
X92276498Y-122366657D02*
X93670236Y-117347218D01*
X93670225Y-117347215D02*
G75*
G03*
X93672598Y-117279453I-139725J38815D01*
G01*
X93672598Y-117279453D02*
X92964836Y-113808423D01*
%TO.N,rgb-drive15_gpio*%
X94826321Y-100772285D02*
X95351511Y-93890636D01*
X95351506Y-93890636D02*
G75*
G03*
X95352337Y-93855323I-334206J25536D01*
G01*
X95352338Y-93855323D02*
X95340057Y-93436558D01*
X95339916Y-93425362D02*
G75*
G03*
X95340057Y-93436558I337084J-1338D01*
G01*
X95339916Y-93425362D02*
X95352479Y-90366520D01*
X95352469Y-90366520D02*
G75*
G03*
X95343474Y-90287982I-334969J1420D01*
G01*
X95343475Y-90287982D02*
X94536650Y-86879286D01*
%TO.N,Net-(D5-K)*%
X190321250Y-124207966D02*
X188408250Y-120371466D01*
%TO.N,audio-enable_gpio*%
X133973738Y-114471036D02*
X136121731Y-114061377D01*
X165757590Y-120763977D02*
X165757590Y-119331477D01*
%TO.N,tof-i2c_sda*%
X110812863Y-104371425D02*
X111262688Y-104801259D01*
X111262701Y-104801245D02*
G75*
G03*
X111362863Y-104841425I100199J104845D01*
G01*
X111362863Y-104841425D02*
X112662863Y-104841425D01*
X112662863Y-104841384D02*
G75*
G03*
X112781303Y-104780073I37J144984D01*
G01*
X112781303Y-104780073D02*
X113521946Y-103731370D01*
X113521927Y-103731357D02*
G75*
G03*
X113596696Y-103483744I-334027J235957D01*
G01*
X113596696Y-103483744D02*
X113571696Y-102608744D01*
X113571693Y-102608744D02*
G75*
G03*
X113367862Y-102266510I-408793J-11656D01*
G01*
X113367862Y-102266509D02*
X109904267Y-100260286D01*
X127115141Y-108984663D02*
X126873408Y-110070985D01*
X112223764Y-105519847D02*
X111208732Y-104993862D01*
X111066517Y-104852631D02*
G75*
G03*
X111208732Y-104993862I296383J156231D01*
G01*
X111066512Y-104852634D02*
X110812863Y-104371425D01*
%TO.N,Net-(LED20-A)*%
X94323724Y-112819719D02*
X95261341Y-111511919D01*
X95261341Y-111511919D02*
X95261341Y-115011919D01*
X95261341Y-118511919D02*
X94548956Y-120745920D01*
X99822695Y-113146955D02*
X98695265Y-113002571D01*
X91151196Y-120790335D02*
X91761341Y-118511919D01*
X99822695Y-113146955D02*
X99822695Y-112196955D01*
X87575776Y-120879165D02*
X88261341Y-118511919D01*
X102222695Y-113146955D02*
X102222695Y-112196955D01*
X88261341Y-118511919D02*
X88261341Y-115011919D01*
X99822695Y-112196955D02*
X102222695Y-112196955D01*
X91761341Y-118511919D02*
X91761341Y-115011919D01*
X95261341Y-115011919D02*
X95261341Y-118511919D01*
X88261341Y-115011919D02*
X88261341Y-111511919D01*
X91761341Y-111511919D02*
X91761341Y-115011919D01*
%TO.N,rgb-drive4_gpio*%
X90329543Y-91086393D02*
X90487971Y-92676975D01*
X90476855Y-92748650D02*
G75*
G03*
X90487971Y-92676975I-133155J57350D01*
G01*
X90476877Y-92748660D02*
X90073570Y-93685913D01*
X90073569Y-93685913D02*
G75*
G03*
X90071365Y-93691112I526231J-226187D01*
G01*
X90071365Y-93691112D02*
X89714909Y-94544657D01*
X89714897Y-94544652D02*
G75*
G03*
X89703862Y-94607156I133803J-55848D01*
G01*
X89703861Y-94607156D02*
X89970620Y-100442990D01*
X89970650Y-100442989D02*
G75*
G03*
X90012944Y-100538905I144850J6589D01*
G01*
X90012944Y-100538905D02*
X90212944Y-100738880D01*
X90212992Y-100738832D02*
G75*
G03*
X90451721Y-100685945I102508J102532D01*
G01*
X90451721Y-100685945D02*
X90615495Y-100236065D01*
%TO.N,rgb-drive10_gpio*%
X93829543Y-94586393D02*
X93815393Y-100236065D01*
%TO.N,Net-(LED3-BO)*%
X173987828Y-112479456D02*
X173357828Y-111359456D01*
%TO.N,drive5_gpio*%
X89464836Y-113808423D02*
X89159204Y-111468531D01*
X89159198Y-111468532D02*
G75*
G03*
X89141759Y-111397170I-332198J-43368D01*
G01*
X89141760Y-111397170D02*
X88762923Y-110358091D01*
X88763567Y-110256980D02*
G75*
G03*
X88762924Y-110358091I135633J-51420D01*
G01*
X88763581Y-110256985D02*
X90451038Y-105809576D01*
X90451038Y-105809576D02*
G75*
G03*
X90453259Y-105803290I-134038J50876D01*
G01*
X90453259Y-105803290D02*
X90615495Y-105308201D01*
X89481898Y-125905451D02*
X89176266Y-123565559D01*
X89176256Y-123565560D02*
G75*
G03*
X89158822Y-123494198I-332156J-43340D01*
G01*
X89158822Y-123494198D02*
X88779984Y-122455119D01*
X88776527Y-122366665D02*
G75*
G03*
X88779985Y-122455119I139673J-38835D01*
G01*
X88776498Y-122366657D02*
X90170236Y-117347218D01*
X90170225Y-117347215D02*
G75*
G03*
X90172598Y-117279453I-139725J38815D01*
G01*
X90172598Y-117279453D02*
X89464836Y-113808423D01*
%TO.N,rgb-drive17_gpio*%
X92655746Y-86412595D02*
X94538619Y-86253965D01*
X94653336Y-86295909D02*
G75*
G03*
X94538619Y-86253965I-102536J-102591D01*
G01*
X94653322Y-86295923D02*
X95120013Y-86762613D01*
X95161604Y-86849403D02*
G75*
G03*
X95120012Y-86762614I-144104J-15697D01*
G01*
X95161625Y-86849401D02*
X95539379Y-90308144D01*
X95542482Y-90367300D02*
G75*
G03*
X95539378Y-90308144I-525282J2100D01*
G01*
X95542478Y-90367300D02*
X95529914Y-93426142D01*
X95529916Y-93426142D02*
G75*
G03*
X95529975Y-93430988I143284J-658D01*
G01*
X95529975Y-93430988D02*
X95542257Y-93849753D01*
X95542296Y-93879048D02*
G75*
G03*
X95542257Y-93849753I-524496J13948D01*
G01*
X95542298Y-93879048D02*
X95346334Y-101275897D01*
X95246547Y-101409875D02*
G75*
G03*
X95346333Y-101275897I-45147J137775D01*
G01*
X95246538Y-101409847D02*
X94751385Y-101572108D01*
%TO.N,Net-(C11-Pad1)*%
X130743573Y-106867449D02*
X130822184Y-105911061D01*
%TO.N,Net-(LED7-DO)*%
X172727828Y-123359456D02*
X173357828Y-124479456D01*
%TO.N,enable0_gpio*%
X105732426Y-127098801D02*
X104830017Y-127097830D01*
X125823408Y-113271137D02*
X126873408Y-113271137D01*
%TO.N,Net-(D8-K)*%
X180908250Y-127871466D02*
X182821250Y-131707966D01*
%TO.N,Net-(C24-Pad1)*%
X156843123Y-100595783D02*
X163513181Y-117427347D01*
%TO.N,Net-(USB1-CC2)*%
X128836236Y-126607479D02*
X128875552Y-127692680D01*
%TO.N,Net-(U1-ISET)*%
X113998695Y-115478618D02*
X112957876Y-116019684D01*
%TO.N,CH3*%
X148072651Y-128724227D02*
X149170467Y-128547016D01*
%TO.N,Net-(U3-DVDD0)*%
X130623725Y-116221099D02*
X130463581Y-115633001D01*
X130463604Y-115632995D02*
G75*
G03*
X130323675Y-115526099I-139904J-38105D01*
G01*
X130323675Y-115526099D02*
X128923522Y-115526099D01*
X128923522Y-115526121D02*
G75*
G03*
X128783601Y-115633057I-22J-144979D01*
G01*
X128783601Y-115633057D02*
X128623725Y-116221099D01*
X129823624Y-109121023D02*
X129823624Y-110171023D01*
X130623725Y-116221099D02*
X130657974Y-115692769D01*
X130657978Y-115692769D02*
G75*
G03*
X130602442Y-115485319I-334278J21669D01*
G01*
X130602442Y-115485319D02*
X130137101Y-114787067D01*
X126975412Y-106675279D02*
X127905947Y-107264682D01*
%TO.N,Net-(LED4-BO)*%
X173357828Y-114359456D02*
X173987828Y-115479456D01*
%TO.N,drive7_gpio*%
X92981898Y-122405451D02*
X93860543Y-117365963D01*
X93860536Y-117365962D02*
G75*
G03*
X93865027Y-117290238I-329936J57562D01*
G01*
X93865028Y-117290238D02*
X93675308Y-113800552D01*
X93675300Y-113800552D02*
G75*
G03*
X93672598Y-113779453I-145000J-7848D01*
G01*
X93672598Y-113779453D02*
X92964836Y-110308423D01*
X92964836Y-110308423D02*
X92215444Y-105308201D01*
%TO.N,rgb-drive20_gpio*%
X94751385Y-103972158D02*
X93861950Y-103790449D01*
X96155746Y-93412595D02*
X96008808Y-94588387D01*
%TO.N,Net-(LED8-DO)*%
X172727828Y-126359456D02*
X173357828Y-127479456D01*
%TO.N,rgb-drive16_gpio*%
X94751385Y-101172057D02*
X94301802Y-101008553D01*
X94235294Y-100785443D02*
G75*
G03*
X94301802Y-101008553I116106J-86857D01*
G01*
X94235260Y-100785417D02*
X94431543Y-100523084D01*
X94431542Y-100523083D02*
G75*
G03*
X94459622Y-100451620I-116142J86883D01*
G01*
X94459623Y-100451620D02*
X95161662Y-93880547D01*
X95161657Y-93880546D02*
G75*
G03*
X95162419Y-93860893I-144457J15446D01*
G01*
X95162420Y-93860893D02*
X95150139Y-93442128D01*
X95149918Y-93424581D02*
G75*
G03*
X95150140Y-93442128I527382J-2119D01*
G01*
X95149917Y-93424581D02*
X95162481Y-90365739D01*
X95162463Y-90365739D02*
G75*
G03*
X95147920Y-90301814I-144963J639D01*
G01*
X95147921Y-90301814D02*
X93829543Y-87586393D01*
%TO.N,Net-(D2-Padc)*%
X108176177Y-117336240D02*
X107420755Y-117126581D01*
X107420757Y-117126573D02*
G75*
G03*
X106921670Y-117644818I-109357J-394127D01*
G01*
X106921669Y-117644818D02*
X107901009Y-120719369D01*
X107901026Y-120719364D02*
G75*
G03*
X107924662Y-120764316I138174J43964D01*
G01*
X107924662Y-120764316D02*
X108749329Y-121825874D01*
%TO.N,drive8_gpio*%
X89481898Y-122405451D02*
X90360543Y-117365963D01*
X90360536Y-117365962D02*
G75*
G03*
X90365027Y-117290238I-329936J57562D01*
G01*
X90365028Y-117290238D02*
X90175308Y-113800552D01*
X90175300Y-113800552D02*
G75*
G03*
X90172598Y-113779453I-145000J-7848D01*
G01*
X90172598Y-113779453D02*
X89464836Y-110308423D01*
X91015546Y-105308201D02*
X89464836Y-110308423D01*
%TO.N,rgb-drive21_gpio*%
X98036650Y-90379286D02*
X98140996Y-91018259D01*
X98140662Y-91128143D02*
G75*
G03*
X98140995Y-91018259I-330262J55943D01*
G01*
X98140679Y-91128146D02*
X97861326Y-92778943D01*
X97825937Y-92898863D02*
G75*
G03*
X97861326Y-92778943I-482137J207463D01*
G01*
X97825932Y-92898861D02*
X97422625Y-93836114D01*
X97422594Y-93836101D02*
G75*
G03*
X97451750Y-93994399I133206J-57299D01*
G01*
X97451750Y-93994399D02*
X97914442Y-94471280D01*
X97952589Y-94600796D02*
G75*
G03*
X97914442Y-94471280I-142189J28496D01*
G01*
X97952540Y-94600786D02*
X96288670Y-102890142D01*
X95818325Y-103359753D02*
G75*
G03*
X96288670Y-102890142I-116925J587453D01*
G01*
X95818321Y-103359735D02*
X94751385Y-103572108D01*
%TO.N,rgb-drive1_gpio*%
X91415342Y-100236065D02*
X91662373Y-93870767D01*
X91662370Y-93870767D02*
G75*
G03*
X91662420Y-93860893I-144170J5667D01*
G01*
X91662420Y-93860893D02*
X91650139Y-93442128D01*
X91649918Y-93424581D02*
G75*
G03*
X91650140Y-93442128I527382J-2119D01*
G01*
X91649917Y-93424581D02*
X91662481Y-90365739D01*
X91662455Y-90365739D02*
G75*
G03*
X91620012Y-90262614I-144955J639D01*
G01*
X91620013Y-90262613D02*
X91153322Y-89795923D01*
X91153322Y-89795923D02*
G75*
G03*
X90948261Y-89795923I-102530J-102529D01*
G01*
X90948261Y-89795923D02*
X90453286Y-90290897D01*
X90453259Y-90290870D02*
G75*
G03*
X90451750Y-90494399I102541J-102530D01*
G01*
X90451750Y-90494399D02*
X90914442Y-90971280D01*
X90953391Y-91096452D02*
G75*
G03*
X90914442Y-90971280I-142991J24152D01*
G01*
X90953343Y-91096444D02*
X90673989Y-92747242D01*
X90651394Y-92823756D02*
G75*
G03*
X90673989Y-92747242I-307694J132456D01*
G01*
X90651405Y-92823761D02*
X90248097Y-93761014D01*
X90248084Y-93761008D02*
G75*
G03*
X90225196Y-93947419I307716J-132392D01*
G01*
X90225196Y-93947419D02*
X90329543Y-94586393D01*
%TO.N,Net-(D11-K)*%
X182821250Y-109207966D02*
X180908250Y-105371466D01*
%TO.N,pwm_timer*%
X160486382Y-129575635D02*
X147111020Y-116355194D01*
X147111009Y-116355206D02*
G75*
G03*
X147020874Y-116291626I-235509J-238194D01*
G01*
X147020874Y-116291626D02*
X146891321Y-116229236D01*
X146891327Y-116229224D02*
G75*
G03*
X146773727Y-116197213I-145327J-301876D01*
G01*
X146773727Y-116197213D02*
X144205184Y-115983654D01*
X144008627Y-115913934D02*
G75*
G03*
X144205184Y-115983653I230473J337834D01*
G01*
X144008615Y-115913951D02*
X140295276Y-113381271D01*
X140295279Y-113381267D02*
G75*
G03*
X140213573Y-113356061I-81679J-119733D01*
G01*
X140213573Y-113356061D02*
X139833296Y-113356061D01*
X139833296Y-113356083D02*
G75*
G03*
X139697831Y-113449350I4J-145017D01*
G01*
X139697830Y-113449350D02*
X139429317Y-114152771D01*
X139310741Y-114245058D02*
G75*
G03*
X139429317Y-114152771I-16841J143958D01*
G01*
X139310743Y-114245073D02*
X133973738Y-114871086D01*
%TO.N,rgb-drive18_gpio*%
X96338641Y-103708907D02*
X95261952Y-104203902D01*
X95246538Y-104209948D02*
G75*
G03*
X95261952Y-104203902I-45138J137748D01*
G01*
X95246538Y-104209948D02*
X94751385Y-104372209D01*
X96338641Y-103708907D02*
X98138967Y-94637463D01*
X98138983Y-94637466D02*
G75*
G03*
X98140995Y-94518259I-328583J65166D01*
G01*
X98140996Y-94518259D02*
X98036650Y-93879286D01*
%TO.N,rows0_gpio*%
X132923738Y-111271137D02*
X133973738Y-111271137D01*
X192470250Y-109207966D02*
X191765116Y-107106866D01*
X192470250Y-116707966D02*
X191976555Y-113052372D01*
X191975257Y-113032966D02*
G75*
G03*
X191976556Y-113052372I145143J-34D01*
G01*
X191975250Y-113032966D02*
X191975250Y-111982966D01*
X191977529Y-111957389D02*
G75*
G03*
X191975250Y-111982966I142771J-25611D01*
G01*
X191977524Y-111957388D02*
X192470250Y-109207966D01*
X192470250Y-124207966D02*
X192963946Y-120552372D01*
X192963949Y-120552372D02*
G75*
G03*
X192965250Y-120532966I-143549J19372D01*
G01*
X192965250Y-120532966D02*
X192965250Y-119482966D01*
X192965255Y-119482966D02*
G75*
G03*
X192962976Y-119457388I-145055J-34D01*
G01*
X192962976Y-119457388D02*
X192470250Y-116707966D01*
X192470250Y-131707966D02*
X192963946Y-128052372D01*
X192963949Y-128052372D02*
G75*
G03*
X192965250Y-128032966I-143549J19372D01*
G01*
X192965250Y-128032966D02*
X192965250Y-126982966D01*
X192965255Y-126982966D02*
G75*
G03*
X192962976Y-126957388I-145055J-34D01*
G01*
X192962976Y-126957388D02*
X192470250Y-124207966D01*
%TO.N,Net-(U7-VO-)*%
X165757590Y-126128977D02*
X165711981Y-128438535D01*
X165709429Y-128476813D02*
G75*
G03*
X165711980Y-128438535I-406429J46313D01*
G01*
X165709425Y-128476813D02*
X165277522Y-132263141D01*
%TO.N,Net-(U1-PGOOD_NOT)*%
X110143876Y-117019684D02*
X109095899Y-117336240D01*
%TO.N,Net-(LED5-BO)*%
X173987828Y-118479456D02*
X173357828Y-117359456D01*
%TO.N,enable1_gpio*%
X104958831Y-119294795D02*
X104921655Y-118326256D01*
X125823408Y-112471036D02*
X126873408Y-112471036D01*
%TO.N,Net-(C25-Pad1)*%
X161225376Y-117438499D02*
X163188393Y-117779101D01*
X163188393Y-117779099D02*
G75*
G03*
X163213181Y-117781236I24807J142899D01*
G01*
X163213181Y-117781236D02*
X163813181Y-117781236D01*
X163813181Y-117781181D02*
G75*
G03*
X163958181Y-117636236I19J144981D01*
G01*
X163958181Y-117636236D02*
X163958181Y-117218458D01*
X163958198Y-117218458D02*
G75*
G03*
X163947188Y-117163078I-144998J-42D01*
G01*
X163947189Y-117163078D02*
X160284332Y-108299716D01*
X160276984Y-108276600D02*
G75*
G03*
X160284333Y-108299716I141316J32200D01*
G01*
X160276975Y-108276602D02*
X160201759Y-107947058D01*
X160199098Y-107931598D02*
G75*
G03*
X160201759Y-107947058I143802J16798D01*
G01*
X160199100Y-107931598D02*
X159343123Y-100595783D01*
%TO.N,Net-(LED1-DO)*%
X172727828Y-105359456D02*
X173357828Y-106479456D01*
%TO.N,Net-(LED10-DI)*%
X172727828Y-129359456D02*
X173357828Y-130479456D01*
%TO.N,Net-(U6-R-EXT)*%
X86562145Y-102689458D02*
X87125462Y-103690098D01*
X87125513Y-103690069D02*
G75*
G03*
X87615358Y-103876060I356387J200569D01*
G01*
X87615358Y-103876060D02*
X89182177Y-103335048D01*
X89184349Y-103334317D02*
G75*
G03*
X89182177Y-103335049I41651J-127283D01*
G01*
X89184349Y-103334317D02*
X89679503Y-103172057D01*
%TO.N,drive0_gpio*%
X97539888Y-130639109D02*
X96481898Y-129405451D01*
X96464836Y-117308423D02*
X95624744Y-120139599D01*
X92615495Y-105308201D02*
X92777755Y-105803354D01*
X92777760Y-105803352D02*
G75*
G03*
X92789242Y-105829421I137840J45152D01*
G01*
X92789242Y-105829421D02*
X95953330Y-111440699D01*
X95971355Y-111525695D02*
G75*
G03*
X95953330Y-111440699I-144355J13795D01*
G01*
X95971370Y-111525696D02*
X95754807Y-113794646D01*
X95754799Y-113794645D02*
G75*
G03*
X95757074Y-113837394I144301J-13755D01*
G01*
X95757074Y-113837394D02*
X96464836Y-117308423D01*
%TO.N,cols0_gpio*%
X188408250Y-131341466D02*
X185334465Y-131038664D01*
X185334465Y-131038661D02*
G75*
G03*
X185320250Y-131037966I-14165J-143939D01*
G01*
X185320250Y-131037966D02*
X184620250Y-131037966D01*
X184620250Y-131038012D02*
G75*
G03*
X184517264Y-131080893I-50J-144988D01*
G01*
X184517264Y-131080893D02*
X183274236Y-132335039D01*
X183171250Y-132378011D02*
G75*
G03*
X183274236Y-132335039I-50J145011D01*
G01*
X183171250Y-132377966D02*
X182471250Y-132377966D01*
X182389513Y-132352691D02*
G75*
G03*
X182471250Y-132377966I81787J119691D01*
G01*
X182389494Y-132352719D02*
X180908250Y-131341466D01*
X135730053Y-113092137D02*
X133973738Y-112871086D01*
X180908250Y-131341466D02*
X180590062Y-129966549D01*
%TO.N,Net-(U3-XIN)*%
X131564962Y-105901061D02*
X131023522Y-109121023D01*
X136944043Y-105418312D02*
X135456573Y-101731061D01*
X131564962Y-105901061D02*
X132236015Y-105478371D01*
X132312114Y-105456070D02*
G75*
G03*
X132236015Y-105478372I1186J-145030D01*
G01*
X132312114Y-105456065D02*
X136944043Y-105418312D01*
%TO.N,rgb-drive24_gpio*%
X95816779Y-105960680D02*
X94215419Y-105383137D01*
X98948125Y-85852334D02*
X98036650Y-86879286D01*
%TO.N,Net-(D6-K)*%
X188408250Y-112871466D02*
X190321250Y-116707966D01*
%TD*%
M02*
