%TF.GenerationSoftware,KiCad,Pcbnew,7.0.2-6a45011f42~172~ubuntu22.04.1*%
%TF.CreationDate,2023-05-01T16:59:55-07:00*%
%TF.ProjectId,hackathon-2022,6861636b-6174-4686-9f6e-2d323032322e,rev?*%
%TF.SameCoordinates,Original*%
%TF.FileFunction,Profile,NP*%
%FSLAX46Y46*%
G04 Gerber Fmt 4.6, Leading zero omitted, Abs format (unit mm)*
G04 Created by KiCad (PCBNEW 7.0.2-6a45011f42~172~ubuntu22.04.1) date 2023-05-01 16:59:55*
%MOMM*%
%LPD*%
G01*
G04 APERTURE LIST*
%TA.AperFunction,Profile*%
%ADD10C,0.050000*%
%TD*%
G04 APERTURE END LIST*
D10*
X194500000Y-82250000D02*
X194495196Y-82201227D01*
X194495196Y-82201227D02*
X194480970Y-82154329D01*
X194480970Y-82154329D02*
X194457867Y-82111107D01*
X194457867Y-82111107D02*
X194426777Y-82073223D01*
X194426777Y-82073223D02*
X194388893Y-82042133D01*
X194388893Y-82042133D02*
X194345671Y-82019030D01*
X194345671Y-82019030D02*
X194298773Y-82004804D01*
X194298773Y-82004804D02*
X194250000Y-82000000D01*
X194250000Y-82000000D02*
X84750000Y-82000000D01*
X84750000Y-82000000D02*
X84701227Y-82004804D01*
X84701227Y-82004804D02*
X84654329Y-82019030D01*
X84654329Y-82019030D02*
X84611107Y-82042133D01*
X84611107Y-82042133D02*
X84573223Y-82073223D01*
X84573223Y-82073223D02*
X84542133Y-82111107D01*
X84542133Y-82111107D02*
X84519030Y-82154329D01*
X84519030Y-82154329D02*
X84504804Y-82201227D01*
X84504804Y-82201227D02*
X84500000Y-82250000D01*
X84500000Y-82250000D02*
X84500000Y-133750000D01*
X84500000Y-133750000D02*
X84504804Y-133798773D01*
X84504804Y-133798773D02*
X84519030Y-133845671D01*
X84519030Y-133845671D02*
X84542133Y-133888893D01*
X84542133Y-133888893D02*
X84573223Y-133926777D01*
X84573223Y-133926777D02*
X84611107Y-133957867D01*
X84611107Y-133957867D02*
X84654329Y-133980970D01*
X84654329Y-133980970D02*
X84701227Y-133995196D01*
X84701227Y-133995196D02*
X84750000Y-134000000D01*
X84750000Y-134000000D02*
X194250000Y-134000000D01*
X194250000Y-134000000D02*
X194298773Y-133995196D01*
X194298773Y-133995196D02*
X194345671Y-133980970D01*
X194345671Y-133980970D02*
X194388893Y-133957867D01*
X194388893Y-133957867D02*
X194426777Y-133926777D01*
X194426777Y-133926777D02*
X194457867Y-133888893D01*
X194457867Y-133888893D02*
X194480970Y-133845671D01*
X194480970Y-133845671D02*
X194495196Y-133798773D01*
X194495196Y-133798773D02*
X194500000Y-133750000D01*
X194500000Y-133750000D02*
X194500000Y-82250000D01*
M02*
