M48
; DRILL file {KiCad 7.0.6} date Tue 11 Jul 2023 12:05:29 PM PDT
; FORMAT={-:-/ absolute / inch / decimal}
; #@! TF.CreationDate,2023-07-11T12:05:29-07:00
; #@! TF.GenerationSoftware,Kicad,Pcbnew,7.0.6
; #@! TF.FileFunction,Plated,1,2,PTH
FMAT,2
INCH
; #@! TA.AperFunction,Plated,PTH,ViaDrill
T1C0.0079
%
G90
G05
T1
X4.92Y-4.13
X4.92Y-4.17
X4.92Y-4.21
X4.92Y-4.25
X4.97Y-4.23
X5.01Y-4.12
X5.04Y-3.85
X5.2Y-3.83
X5.2313Y-4.1143
X5.2333Y-4.0862
X5.2343Y-4.1429
X5.2348Y-4.0397
X5.26Y-3.9
X5.26Y-4.81
X5.3Y-4.81
X5.32Y-4.38
X5.33Y-3.87
X5.3395Y-4.2195
X5.34Y-4.81
X5.39Y-4.81
X5.4359Y-3.9297
X5.5182Y-4.0828
X5.52Y-4.36
X5.5227Y-3.9976
X5.5358Y-4.1111
X5.55Y-4.27
X5.71Y-3.84
X5.7426Y-4.2061
X5.8215Y-4.4369
X5.8297Y-4.0675
X5.8416Y-4.1906
X5.8457Y-4.1598
X5.8464Y-4.301
T0
M30
