%TF.GenerationSoftware,KiCad,Pcbnew,7.0.2-0*%
%TF.CreationDate,2023-06-27T10:53:37-07:00*%
%TF.ProjectId,jitx-design,6a697478-2d64-4657-9369-676e2e6b6963,rev?*%
%TF.SameCoordinates,Original*%
%TF.FileFunction,Copper,L1,Top*%
%TF.FilePolarity,Positive*%
%FSLAX46Y46*%
G04 Gerber Fmt 4.6, Leading zero omitted, Abs format (unit mm)*
G04 Created by KiCad (PCBNEW 7.0.2-0) date 2023-06-27 10:53:37*
%MOMM*%
%LPD*%
G01*
G04 APERTURE LIST*
%TA.AperFunction,SMDPad,CuDef*%
%ADD10R,0.417778X0.600000*%
%TD*%
%TA.AperFunction,SMDPad,CuDef*%
%ADD11R,0.600000X0.417778*%
%TD*%
%TA.AperFunction,SMDPad,CuDef*%
%ADD12R,0.600000X0.372778*%
%TD*%
%TA.AperFunction,SMDPad,CuDef*%
%ADD13R,0.380278X0.600000*%
%TD*%
%TA.AperFunction,SMDPad,CuDef*%
%ADD14R,0.600000X0.380278*%
%TD*%
%TA.AperFunction,SMDPad,CuDef*%
%ADD15C,2.000000*%
%TD*%
%TA.AperFunction,SMDPad,CuDef*%
%ADD16R,0.367778X0.600000*%
%TD*%
%TA.AperFunction,SMDPad,CuDef*%
%ADD17O,0.588000X2.045000*%
%TD*%
%TA.AperFunction,SMDPad,CuDef*%
%ADD18R,0.600000X0.430278*%
%TD*%
%TA.AperFunction,SMDPad,CuDef*%
%ADD19R,0.512132X0.950000*%
%TD*%
%TA.AperFunction,SMDPad,CuDef*%
%ADD20R,0.566000X0.540000*%
%TD*%
%TA.AperFunction,SMDPad,CuDef*%
%ADD21R,1.064000X2.218000*%
%TD*%
%TA.AperFunction,SMDPad,CuDef*%
%ADD22R,5.554000X5.204000*%
%TD*%
%TA.AperFunction,SMDPad,CuDef*%
%ADD23R,1.200000X1.400000*%
%TD*%
%TA.AperFunction,SMDPad,CuDef*%
%ADD24R,0.890000X0.280000*%
%TD*%
%TA.AperFunction,SMDPad,CuDef*%
%ADD25R,0.280000X0.890000*%
%TD*%
%TA.AperFunction,SMDPad,CuDef*%
%ADD26R,4.100000X4.100000*%
%TD*%
%TA.AperFunction,ViaPad*%
%ADD27C,0.460000*%
%TD*%
%TA.AperFunction,Conductor*%
%ADD28C,0.381000*%
%TD*%
%TA.AperFunction,Conductor*%
%ADD29C,0.090000*%
%TD*%
G04 APERTURE END LIST*
D10*
%TO.P,C3,1,1*%
%TO.N,gnd*%
X143060672Y-110835572D03*
%TO.P,C3,2,2*%
%TO.N,vdd33*%
X142103450Y-110835572D03*
%TD*%
D11*
%TO.P,C1,1,1*%
%TO.N,Net-(USB1-GND2)*%
X148622184Y-114216203D03*
%TO.P,C1,2,2*%
%TO.N,gnd*%
X148622184Y-115173425D03*
%TD*%
%TO.P,C6,1,1*%
%TO.N,gnd*%
X137482233Y-108498823D03*
%TO.P,C6,2,2*%
%TO.N,Net-(U5-VDD18PLL)*%
X137482233Y-107541601D03*
%TD*%
D12*
%TO.P,R5,1,1*%
%TO.N,Net-(U5-RBIAS)*%
X138129245Y-109574220D03*
%TO.P,R5,2,2*%
%TO.N,gnd*%
X138129245Y-110486442D03*
%TD*%
D11*
%TO.P,C10,1,1*%
%TO.N,gnd*%
X138644942Y-108548873D03*
%TO.P,C10,2,2*%
%TO.N,vdd33*%
X138644942Y-107591651D03*
%TD*%
%TO.P,C5,1,1*%
%TO.N,gnd*%
X137089343Y-98689029D03*
%TO.P,C5,2,2*%
%TO.N,Net-(U5-VDD18)*%
X137089343Y-99646251D03*
%TD*%
D13*
%TO.P,R4,1,1*%
%TO.N,Net-(U4-WC_NOT)*%
X128202801Y-106729721D03*
%TO.P,R4,2,2*%
%TO.N,vdd33*%
X129122523Y-106729721D03*
%TD*%
D14*
%TO.P,R1,1,1*%
%TO.N,gnd*%
X148106609Y-101082516D03*
%TO.P,R1,2,2*%
%TO.N,Net-(USB1-GND0)*%
X148106609Y-102002238D03*
%TD*%
D10*
%TO.P,C8,1,1*%
%TO.N,gnd*%
X137486311Y-97138773D03*
%TO.P,C8,2,2*%
%TO.N,vdd33*%
X136529089Y-97138773D03*
%TD*%
D13*
%TO.P,R3,1,1*%
%TO.N,TXD_SCK_MS_SKT_SEL*%
X126883250Y-108885762D03*
%TO.P,R3,2,2*%
%TO.N,vdd33*%
X127802972Y-108885762D03*
%TD*%
D15*
%TO.P,U8,tp,p*%
%TO.N,RXD_SDA*%
X129640552Y-96501199D03*
%TD*%
%TO.P,U6,tp,p*%
%TO.N,vdd33*%
X126859670Y-98770685D03*
%TD*%
D10*
%TO.P,C12,1,1*%
%TO.N,Net-(U5-XTAL1_CLKIN)*%
X137573127Y-112571302D03*
%TO.P,C12,2,2*%
%TO.N,gnd*%
X138530349Y-112571302D03*
%TD*%
D16*
%TO.P,R6,1,1*%
%TO.N,Net-(U5-RESET_N)*%
X134502123Y-97122587D03*
%TO.P,R6,2,2*%
%TO.N,vdd33*%
X135409345Y-97122587D03*
%TD*%
D13*
%TO.P,R2,1,1*%
%TO.N,RXD_SDA*%
X125847533Y-110727391D03*
%TO.P,R2,2,2*%
%TO.N,vdd33*%
X126767255Y-110727391D03*
%TD*%
D17*
%TO.P,U4,1,NC*%
%TO.N,unconnected-(U4-NC-Pad1)*%
X126467171Y-121212230D03*
%TO.P,U4,2,E1*%
%TO.N,unconnected-(U4-E1-Pad2)*%
X127737171Y-121212230D03*
%TO.P,U4,3,E2*%
%TO.N,unconnected-(U4-E2-Pad3)*%
X129007171Y-121212230D03*
%TO.P,U4,4,VSS*%
%TO.N,gnd*%
X130277171Y-121212230D03*
%TO.P,U4,5,SDA*%
%TO.N,RXD_SDA*%
X130277171Y-115667230D03*
%TO.P,U4,6,SCL*%
%TO.N,TXD_SCK_MS_SKT_SEL*%
X129007171Y-115667230D03*
%TO.P,U4,7,WC_NOT*%
%TO.N,Net-(U4-WC_NOT)*%
X127737171Y-115667230D03*
%TO.P,U4,8,VCC*%
%TO.N,vdd33*%
X126467171Y-115667230D03*
%TD*%
D10*
%TO.P,C9,1,1*%
%TO.N,gnd*%
X130884467Y-103715096D03*
%TO.P,C9,2,2*%
%TO.N,vdd33*%
X131841689Y-103715096D03*
%TD*%
D18*
%TO.P,C11,1,1*%
%TO.N,gnd*%
X132381115Y-100722671D03*
%TO.P,C11,2,2*%
%TO.N,Net-(Card1-VDD)*%
X132381115Y-101692393D03*
%TD*%
D19*
%TO.P,LED1,1,a*%
%TO.N,Net-(LED1-a)*%
X143607724Y-106840352D03*
%TO.P,LED1,2,c*%
%TO.N,gnd*%
X145045592Y-106840352D03*
%TD*%
D10*
%TO.P,C7,1,1*%
%TO.N,gnd*%
X141652863Y-103134378D03*
%TO.P,C7,2,2*%
%TO.N,vdd33*%
X140695641Y-103134378D03*
%TD*%
D15*
%TO.P,U7,tp,p*%
%TO.N,gnd*%
X126853950Y-96515848D03*
%TD*%
D10*
%TO.P,C13,1,1*%
%TO.N,Net-(U5-XTAL2)*%
X134168661Y-108309522D03*
%TO.P,C13,2,2*%
%TO.N,gnd*%
X133211439Y-108309522D03*
%TD*%
D15*
%TO.P,U9,tp,p*%
%TO.N,TXD_SCK_MS_SKT_SEL*%
X129639143Y-98796163D03*
%TD*%
D10*
%TO.P,C2,1,1*%
%TO.N,gnd*%
X145699373Y-110839534D03*
%TO.P,C2,2,2*%
%TO.N,vdd50*%
X146656595Y-110839534D03*
%TD*%
D13*
%TO.P,R7,1,1*%
%TO.N,Net-(U5-XTAL1_CLKIN)*%
X134176631Y-114068215D03*
%TO.P,R7,2,2*%
%TO.N,Net-(U5-XTAL2)*%
X133256909Y-114068215D03*
%TD*%
D20*
%TO.P,R8,1,1*%
%TO.N,Net-(U5-LED)*%
X140693658Y-106840852D03*
%TO.P,R8,2,2*%
%TO.N,Net-(LED1-a)*%
X141559658Y-106840852D03*
%TD*%
D21*
%TO.P,U3,1,VCC*%
%TO.N,vdd50*%
X146659619Y-113037221D03*
D22*
%TO.P,U3,2,FIN*%
%TO.N,gnd*%
X144360619Y-119734221D03*
D21*
%TO.P,U3,3,VOUT*%
%TO.N,vdd33*%
X142060619Y-113037221D03*
%TD*%
D23*
%TO.P,X1,1,IN*%
%TO.N,Net-(U5-XTAL1_CLKIN)*%
X135973506Y-112346485D03*
%TO.P,X1,2,GND0*%
%TO.N,gnd*%
X135973506Y-110146485D03*
%TO.P,X1,3,OUT*%
%TO.N,Net-(U5-XTAL2)*%
X134273506Y-110146485D03*
%TO.P,X1,4,GND1*%
%TO.N,gnd*%
X134273506Y-112346485D03*
%TD*%
D24*
%TO.P,U5,1,LED*%
%TO.N,Net-(U5-LED)*%
X139405865Y-105604046D03*
%TO.P,U5,2,USB+*%
%TO.N,USB+*%
X139405865Y-105104046D03*
%TO.P,U5,3,USB-*%
%TO.N,USB-*%
X139405865Y-104604046D03*
%TO.P,U5,4,xD_D3_SD_D1_MS_D5*%
%TO.N,Net-(Card1-DAT1)*%
X139405865Y-104104046D03*
%TO.P,U5,5,xD_D2_SD_D0_MS_D4*%
%TO.N,Net-(Card1-DAT0)*%
X139405865Y-103604046D03*
%TO.P,U5,6,VDD330*%
%TO.N,vdd33*%
X139405865Y-103104046D03*
%TO.P,U5,7,xD_D1_SD_D7_MS_D6*%
%TO.N,unconnected-(U5-xD_D1_SD_D7_MS_D6-Pad7)*%
X139405865Y-102604046D03*
%TO.P,U5,8,xD_D0_SD_D6_MS_D7*%
%TO.N,unconnected-(U5-xD_D0_SD_D6_MS_D7-Pad8)*%
X139405865Y-102104046D03*
%TO.P,U5,9,xD_nWP_SD_CLK_MS_BS*%
%TO.N,Net-(Card1-CLK)*%
X139405865Y-101604046D03*
D25*
%TO.P,U5,10,xD_ALE_SD_D5_MS_D1*%
%TO.N,unconnected-(U5-xD_ALE_SD_D5_MS_D1-Pad10)*%
X138595865Y-100795046D03*
%TO.P,U5,11,xD_CLE_SD_CMD_MS_D0*%
%TO.N,Net-(Card1-CMD)*%
X138095865Y-100795046D03*
%TO.P,U5,12,xD_nWE*%
%TO.N,unconnected-(U5-xD_nWE-Pad12)*%
X137595865Y-100795046D03*
%TO.P,U5,13,VDD18*%
%TO.N,Net-(U5-VDD18)*%
X137095865Y-100795046D03*
%TO.P,U5,14,VDD331*%
%TO.N,vdd33*%
X136595865Y-100795046D03*
%TO.P,U5,15,xD_nCE*%
%TO.N,unconnected-(U5-xD_nCE-Pad15)*%
X136095865Y-100795046D03*
%TO.P,U5,16,xD_nRE*%
%TO.N,unconnected-(U5-xD_nRE-Pad16)*%
X135595865Y-100795046D03*
%TO.P,U5,17,xD_nB_R*%
%TO.N,unconnected-(U5-xD_nB_R-Pad17)*%
X135095865Y-100795046D03*
%TO.P,U5,18,RESET_N*%
%TO.N,Net-(U5-RESET_N)*%
X134595865Y-100795046D03*
D24*
%TO.P,U5,19,xD_nCD*%
%TO.N,unconnected-(U5-xD_nCD-Pad19)*%
X133785865Y-101604046D03*
%TO.P,U5,20,xD_D7_SD_D4_MS_D2*%
%TO.N,unconnected-(U5-xD_D7_SD_D4_MS_D2-Pad20)*%
X133785865Y-102104046D03*
%TO.P,U5,21,CRD_PWR*%
%TO.N,Net-(Card1-VDD)*%
X133785865Y-102604046D03*
%TO.P,U5,22,VDD332*%
%TO.N,vdd33*%
X133785865Y-103104046D03*
%TO.P,U5,23,xD_D6_SD_D3_MS_D3*%
%TO.N,Net-(Card1-CD_DAT3)*%
X133785865Y-103604046D03*
%TO.P,U5,24,MS_INS*%
%TO.N,unconnected-(U5-MS_INS-Pad24)*%
X133785865Y-104104046D03*
%TO.P,U5,25,xD_D5_SD_D2*%
%TO.N,Net-(Card1-DAT2)*%
X133785865Y-104604046D03*
%TO.P,U5,26,SD_nCD*%
%TO.N,Net-(Card1-CD)*%
X133785865Y-105104046D03*
%TO.P,U5,27,RXD_SDA*%
%TO.N,RXD_SDA*%
X133785865Y-105604046D03*
D25*
%TO.P,U5,28,TEST*%
%TO.N,gnd*%
X134595865Y-106414046D03*
%TO.P,U5,29,NC*%
%TO.N,unconnected-(U5-NC-Pad29)*%
X135095865Y-106414046D03*
%TO.P,U5,30,xD_D4_SD_WP_MS_SCLK*%
%TO.N,Net-(Card1-WP)*%
X135595865Y-106414046D03*
%TO.P,U5,31,TXD_SCK_MS_SKT_SEL*%
%TO.N,TXD_SCK_MS_SKT_SEL*%
X136095865Y-106414046D03*
%TO.P,U5,32,XTAL2*%
%TO.N,Net-(U5-XTAL2)*%
X136595865Y-106414046D03*
%TO.P,U5,33,XTAL1_CLKIN*%
%TO.N,Net-(U5-XTAL1_CLKIN)*%
X137095865Y-106414046D03*
%TO.P,U5,34,VDD18PLL*%
%TO.N,Net-(U5-VDD18PLL)*%
X137595865Y-106414046D03*
%TO.P,U5,35,RBIAS*%
%TO.N,Net-(U5-RBIAS)*%
X138095865Y-106414046D03*
%TO.P,U5,36,VDDA33*%
%TO.N,vdd33*%
X138595865Y-106414046D03*
D26*
%TO.P,U5,37,GND*%
%TO.N,gnd*%
X136595865Y-103604046D03*
%TD*%
D10*
%TO.P,C4,1,1*%
%TO.N,gnd*%
X135731734Y-99695657D03*
%TO.P,C4,2,2*%
%TO.N,Net-(U5-RESET_N)*%
X134774512Y-99695657D03*
%TD*%
D27*
%TO.N,Net-(USB1-GND2)*%
X147864967Y-112698484D03*
%TO.N,USB-*%
X148479985Y-105658221D03*
%TO.N,Net-(Card1-VDD)*%
X132964004Y-102607356D03*
%TO.N,vdd50*%
X148499059Y-109244183D03*
%TO.N,Net-(Card1-CD_DAT3)*%
X132924651Y-103789389D03*
%TO.N,USB+*%
X148376429Y-106441460D03*
%TO.N,Net-(Card1-CMD)*%
X138071854Y-99815084D03*
%TO.N,Net-(Card1-CLK)*%
X140277779Y-101538626D03*
%TO.N,Net-(Card1-DAT0)*%
X140163333Y-103703554D03*
%TO.N,Net-(Card1-DAT1)*%
X140608833Y-104422235D03*
%TO.N,Net-(Card1-DAT2)*%
X132875267Y-104504289D03*
%TO.N,Net-(Card1-CD)*%
X132950211Y-105229456D03*
%TO.N,Net-(Card1-WP)*%
X135623659Y-107175070D03*
%TO.N,Net-(USB1-GND0)*%
X148074784Y-103313947D03*
%TO.N,gnd*%
X133223000Y-122047000D03*
X126238000Y-106934000D03*
X125095000Y-104013000D03*
X132334000Y-97028000D03*
X134874000Y-122047000D03*
X145862665Y-106835359D03*
X125095000Y-105537000D03*
X136398000Y-122047000D03*
X140716000Y-108077000D03*
X138176000Y-122047000D03*
X145288000Y-97282000D03*
X125095000Y-107061000D03*
X135128000Y-111252000D03*
X130556000Y-100203000D03*
X140081000Y-110617000D03*
X127889000Y-97663000D03*
X127254000Y-104394000D03*
X135382000Y-98298000D03*
X125095000Y-108585000D03*
X133731000Y-99060000D03*
%TD*%
D28*
%TO.N,vdd33*%
X148585451Y-105113844D02*
X141388721Y-103719575D01*
X127267333Y-114578656D02*
X126467171Y-115667230D01*
X127802972Y-108885762D02*
X126767255Y-110727391D01*
X138644942Y-107591651D02*
X142103449Y-110835572D01*
X134888907Y-96614684D02*
X135409345Y-97122587D01*
X142103449Y-110835572D02*
X142653791Y-110322993D01*
X131841689Y-103715096D02*
X131790731Y-101915756D01*
X140695641Y-103134378D02*
X140830195Y-101586651D01*
X131832794Y-100356777D02*
X134069913Y-96671832D01*
X136498843Y-99855140D02*
X136498843Y-98480140D01*
X127425205Y-114439911D02*
X127320278Y-114523588D01*
X140695641Y-103134378D02*
X139405865Y-103104046D01*
X138644942Y-107591651D02*
X138595865Y-106414046D01*
X134366770Y-114658715D02*
X133066770Y-114658715D01*
X141245983Y-103646956D02*
X140695641Y-103134378D01*
X130277171Y-114346669D02*
X127737171Y-114346669D01*
X136595865Y-100795046D02*
X136500429Y-99885453D01*
X129122524Y-106729721D02*
X127802972Y-108885762D01*
X140663412Y-101140182D02*
X136529089Y-97138773D01*
X131790615Y-101907532D02*
X131790615Y-100507532D01*
X126859670Y-98770685D02*
X129122524Y-106729721D01*
X126467171Y-115667230D02*
X126767255Y-110727391D01*
X148926145Y-106514141D02*
X149029701Y-105730902D01*
X136498917Y-98473575D02*
X136529089Y-97138773D01*
X138833330Y-113146142D02*
X134460862Y-114643055D01*
X142708813Y-110282689D02*
X148649327Y-106924158D01*
X142103449Y-110835572D02*
X138907583Y-113108051D01*
X133034097Y-114656872D02*
X130309845Y-114348512D01*
X134318234Y-96532087D02*
X134686011Y-96532087D01*
X136529089Y-97138773D02*
X135409345Y-97122587D01*
X142060619Y-113037221D02*
X142103449Y-110835572D01*
X132674690Y-103294424D02*
X131841689Y-103715096D01*
X133785865Y-103104046D02*
X132844985Y-103240641D01*
X127672529Y-114353952D02*
X127541687Y-114383816D01*
X131790615Y-101907532D02*
G75*
G03*
X131790732Y-101915756I291585J32D01*
G01*
X149029688Y-105730900D02*
G75*
G03*
X148585451Y-105113845I-549688J72700D01*
G01*
X127737171Y-114346666D02*
G75*
G03*
X127672529Y-114353953I29J-290634D01*
G01*
X148649348Y-106924196D02*
G75*
G03*
X148926145Y-106514141I-272948J482696D01*
G01*
X127541688Y-114383822D02*
G75*
G03*
X127425205Y-114439911I64612J-283178D01*
G01*
X136498847Y-99855140D02*
G75*
G03*
X136500430Y-99885453I289953J-60D01*
G01*
X141245995Y-103646943D02*
G75*
G03*
X141388721Y-103719575I198005J212543D01*
G01*
X138833333Y-113146150D02*
G75*
G03*
X138907583Y-113108051I-94133J274850D01*
G01*
X134366770Y-114658704D02*
G75*
G03*
X134460862Y-114643054I30J290504D01*
G01*
X140830180Y-101586650D02*
G75*
G03*
X140663411Y-101140183I-552380J48050D01*
G01*
X132844983Y-103240628D02*
G75*
G03*
X132674690Y-103294424I79717J-548772D01*
G01*
X127320277Y-114523586D02*
G75*
G03*
X127267333Y-114578656I181123J-227114D01*
G01*
X133034097Y-114656869D02*
G75*
G03*
X133066770Y-114658715I32703J288669D01*
G01*
X142708813Y-110282690D02*
G75*
G03*
X142653792Y-110322994I142987J-252910D01*
G01*
X134318234Y-96532123D02*
G75*
G03*
X134069914Y-96671832I-34J-290477D01*
G01*
X134888904Y-96614687D02*
G75*
G03*
X134686011Y-96532087I-202904J-207913D01*
G01*
X131832782Y-100356770D02*
G75*
G03*
X131790615Y-100507532I248318J-150730D01*
G01*
X136498918Y-98473575D02*
G75*
G03*
X136498843Y-98480140I283482J-6525D01*
G01*
X130309845Y-114348509D02*
G75*
G03*
X130277171Y-114346669I-32645J-288691D01*
G01*
D29*
%TO.N,Net-(USB1-GND2)*%
X147864967Y-112698484D02*
X148622184Y-114216203D01*
%TO.N,Net-(U5-RESET_N)*%
X134595865Y-100795046D02*
X134774512Y-99695657D01*
X134774512Y-99695657D02*
X134502123Y-97122587D01*
%TO.N,Net-(U5-VDD18)*%
X137089343Y-99646251D02*
X137095865Y-100795046D01*
%TO.N,USB-*%
X140530445Y-104823653D02*
X139405865Y-104604046D01*
X148479985Y-105658221D02*
X140566211Y-104829008D01*
X140530444Y-104823656D02*
G75*
G03*
X140566211Y-104829008I78356J401456D01*
G01*
%TO.N,Net-(U5-VDD18PLL)*%
X137482233Y-107541601D02*
X137595865Y-106414046D01*
%TO.N,Net-(Card1-VDD)*%
X133785865Y-102604046D02*
X132964004Y-102607356D01*
X132381115Y-101692393D02*
X132964004Y-102607356D01*
D28*
%TO.N,vdd50*%
X146659619Y-113037221D02*
X146656595Y-110839534D01*
X148499059Y-109244183D02*
X146656595Y-110839534D01*
D29*
%TO.N,Net-(U5-XTAL1_CLKIN)*%
X137573127Y-112571302D02*
X135973506Y-112346485D01*
X135973506Y-112346485D02*
X136702758Y-110912203D01*
X135973506Y-112346485D02*
X134176631Y-114068215D01*
X136717985Y-110858768D02*
X137095865Y-106414046D01*
X136702763Y-110912206D02*
G75*
G03*
X136717984Y-110858768I-129263J65706D01*
G01*
%TO.N,Net-(U5-XTAL2)*%
X136346671Y-106952571D02*
X135936209Y-107438876D01*
X135797386Y-107545340D02*
X134168661Y-108309522D01*
X136595865Y-106414046D02*
X136368020Y-106918711D01*
X133256909Y-114068215D02*
X133529403Y-111630378D01*
X133544254Y-111580767D02*
X134273506Y-110146485D01*
X134273506Y-110146485D02*
X134168661Y-108309522D01*
X136346676Y-106952575D02*
G75*
G03*
X136368020Y-106918711I-110776J93475D01*
G01*
X133544259Y-111580769D02*
G75*
G03*
X133529403Y-111630378I129241J-65731D01*
G01*
X135797383Y-107545334D02*
G75*
G03*
X135936209Y-107438876I-173683J370234D01*
G01*
%TO.N,Net-(Card1-CD_DAT3)*%
X132924651Y-103789389D02*
X133785865Y-103604046D01*
%TO.N,USB+*%
X139405865Y-105104046D02*
X148376429Y-106441460D01*
%TO.N,Net-(Card1-CMD)*%
X138071854Y-99815084D02*
X138095865Y-100795046D01*
%TO.N,Net-(Card1-CLK)*%
X139405865Y-101604046D02*
X140277779Y-101538626D01*
%TO.N,Net-(Card1-DAT0)*%
X140163333Y-103703554D02*
X139405865Y-103604046D01*
%TO.N,RXD_SDA*%
X131426840Y-103383268D02*
X131488456Y-104028872D01*
X129228420Y-116780792D02*
X129333347Y-116697115D01*
X129640552Y-96501199D02*
X130631807Y-98225511D01*
X126545715Y-117216382D02*
X129028864Y-116840659D01*
X126219506Y-117179264D02*
X126350348Y-117209128D01*
X131519888Y-104106067D02*
X132631720Y-105486058D01*
X129349966Y-116681580D02*
X130277171Y-115667230D01*
X125904070Y-116994211D02*
X126008997Y-117077888D01*
X130773422Y-98639843D02*
X131425219Y-103369360D01*
X125524674Y-98774072D02*
X125518954Y-96519235D01*
X129039437Y-116838655D02*
X129170279Y-116808791D01*
X125648171Y-114871626D02*
X125648171Y-116462833D01*
X127487341Y-95340672D02*
X129640552Y-96501199D01*
X132967211Y-105638102D02*
X133785865Y-105604046D01*
X125700163Y-116690622D02*
X125758393Y-116811539D01*
X125847533Y-110727391D02*
X125648782Y-114846323D01*
X125847533Y-110727391D02*
X125525157Y-98806775D01*
X129333346Y-116697114D02*
G75*
G03*
X129349965Y-116681579I-90346J113314D01*
G01*
X129028864Y-116840661D02*
G75*
G03*
X129039437Y-116838654I-21764J143561D01*
G01*
X125648780Y-114846323D02*
G75*
G03*
X125648171Y-114871626I524420J-25277D01*
G01*
X130773429Y-98639842D02*
G75*
G03*
X130631806Y-98225511I-1134329J-156358D01*
G01*
X126350351Y-117209117D02*
G75*
G03*
X126545715Y-117216382I116849J511817D01*
G01*
X125524675Y-98774072D02*
G75*
G03*
X125525157Y-98806775I1330425J3272D01*
G01*
X127487326Y-95340699D02*
G75*
G03*
X125518954Y-96519235I-633426J-1175101D01*
G01*
X125758409Y-116811531D02*
G75*
G03*
X125904070Y-116994211I472991J227731D01*
G01*
X125648161Y-116462833D02*
G75*
G03*
X125700164Y-116690622I525039J33D01*
G01*
X126008987Y-117077901D02*
G75*
G03*
X126219506Y-117179263I327313J410501D01*
G01*
X129170279Y-116808791D02*
G75*
G03*
X129228420Y-116780792I-32279J141391D01*
G01*
X132631727Y-105486052D02*
G75*
G03*
X132967211Y-105638101I318473J256552D01*
G01*
X131488459Y-104028872D02*
G75*
G03*
X131519889Y-104106066I144341J13772D01*
G01*
X131426839Y-103383268D02*
G75*
G03*
X131425219Y-103369360I-334539J-31932D01*
G01*
%TO.N,Net-(Card1-DAT1)*%
X140608833Y-104422235D02*
X139405865Y-104104046D01*
%TO.N,Net-(Card1-DAT2)*%
X132875267Y-104504289D02*
X133785865Y-104604046D01*
%TO.N,Net-(Card1-CD)*%
X132950211Y-105229456D02*
X133785865Y-105104046D01*
%TO.N,Net-(Card1-WP)*%
X135623659Y-107175070D02*
X135595865Y-106414046D01*
%TO.N,Net-(LED1-a)*%
X143607724Y-106840352D02*
X141559658Y-106840852D01*
%TO.N,Net-(USB1-GND0)*%
X148074784Y-103313947D02*
X148106609Y-102002238D01*
%TO.N,Net-(U4-WC_NOT)*%
X126028171Y-116462833D02*
X126028171Y-114871626D01*
X126100761Y-116646663D02*
X126042531Y-116525746D01*
X127208854Y-109237473D02*
X127477368Y-108534051D01*
X127478300Y-108531671D02*
X128202801Y-106729721D01*
X126457350Y-110345654D02*
X127193155Y-109267499D01*
X126630279Y-116808791D02*
X126499437Y-116838655D01*
X126793347Y-116697115D02*
X126688420Y-116780792D01*
X126434906Y-116838655D02*
X126304064Y-116808791D01*
X126245923Y-116780792D02*
X126140996Y-116697115D01*
X126028767Y-114858501D02*
X126432712Y-110414266D01*
X127737171Y-115667230D02*
X126809966Y-116681580D01*
X127478301Y-108531671D02*
G75*
G03*
X127477368Y-108534051I140699J-56529D01*
G01*
X126434906Y-116838655D02*
G75*
G03*
X126499437Y-116838655I32265J141382D01*
G01*
X126457356Y-110345658D02*
G75*
G03*
X126432712Y-110414266I119744J-81742D01*
G01*
X126630279Y-116808791D02*
G75*
G03*
X126688420Y-116780792I-32279J141391D01*
G01*
X126100777Y-116646655D02*
G75*
G03*
X126140996Y-116697115I130623J62855D01*
G01*
X127193160Y-109267502D02*
G75*
G03*
X127208854Y-109237473I-119760J81702D01*
G01*
X126028765Y-114858501D02*
G75*
G03*
X126028171Y-114871626I144135J-13099D01*
G01*
X126028161Y-116462833D02*
G75*
G03*
X126042532Y-116525746I145039J33D01*
G01*
X126793346Y-116697114D02*
G75*
G03*
X126809965Y-116681579I-90346J113314D01*
G01*
X126245913Y-116780805D02*
G75*
G03*
X126304064Y-116808791I90387J113405D01*
G01*
%TO.N,Net-(U5-RBIAS)*%
X138129245Y-109574220D02*
X138095865Y-106414046D01*
%TO.N,Net-(U5-LED)*%
X140693658Y-106840852D02*
X139405865Y-105604046D01*
%TO.N,TXD_SCK_MS_SKT_SEL*%
X129007171Y-115667230D02*
X128079966Y-116681580D01*
X126392627Y-117023891D02*
X126261785Y-116994027D01*
X125838171Y-116462833D02*
X125838171Y-114871626D01*
X127823433Y-95906646D02*
X129639143Y-98796163D01*
X134404618Y-105833404D02*
X134282111Y-105879688D01*
X125839547Y-114841302D02*
X126243492Y-110397067D01*
X134230865Y-105889046D02*
X133340865Y-105889046D01*
X131230297Y-103367430D02*
X129639143Y-98796163D01*
X126127460Y-116929340D02*
X126022533Y-116845663D01*
X131299316Y-104046923D02*
X131237700Y-103401320D01*
X128063347Y-116697115D02*
X127958420Y-116780792D01*
X127758864Y-116840659D02*
X126517290Y-117028520D01*
X126269990Y-110293606D02*
X126883250Y-108885762D01*
X125929577Y-116729101D02*
X125871347Y-116608184D01*
X135735865Y-105824046D02*
X134455865Y-105824046D01*
X125714673Y-98773590D02*
X125708953Y-96518753D01*
X133320305Y-105887581D02*
X132865278Y-105822404D01*
X126883250Y-108885762D02*
X125722334Y-98902948D01*
X127900279Y-116808791D02*
X127769437Y-116838655D01*
X136095865Y-106414046D02*
X135868020Y-105909381D01*
X132483766Y-105605262D02*
X131371934Y-104225271D01*
X134455865Y-105824038D02*
G75*
G03*
X134404618Y-105833405I35J-145062D01*
G01*
X126127450Y-116929352D02*
G75*
G03*
X126261785Y-116994026I208850J261952D01*
G01*
X132483774Y-105605256D02*
G75*
G03*
X132865278Y-105822403I466426J375756D01*
G01*
X131299319Y-104046923D02*
G75*
G03*
X131371935Y-104225270I333481J31823D01*
G01*
X126392629Y-117023881D02*
G75*
G03*
X126517290Y-117028520I74571J326581D01*
G01*
X127758864Y-116840661D02*
G75*
G03*
X127769437Y-116838654I-21764J143561D01*
G01*
X134230865Y-105889030D02*
G75*
G03*
X134282111Y-105879688I35J145030D01*
G01*
X133320305Y-105887578D02*
G75*
G03*
X133340865Y-105889046I20595J143678D01*
G01*
X125714676Y-98773590D02*
G75*
G03*
X125722335Y-98902948I1145024J2890D01*
G01*
X127900279Y-116808791D02*
G75*
G03*
X127958420Y-116780792I-32279J141391D01*
G01*
X135868025Y-105909379D02*
G75*
G03*
X135735865Y-105824046I-132125J-59621D01*
G01*
X125838161Y-116462833D02*
G75*
G03*
X125871348Y-116608184I335039J33D01*
G01*
X125839545Y-114841302D02*
G75*
G03*
X125838171Y-114871626I333355J-30298D01*
G01*
X125929593Y-116729093D02*
G75*
G03*
X126022533Y-116845663I301807J145293D01*
G01*
X127823377Y-95906681D02*
G75*
G03*
X125708954Y-96518753I-969477J-609119D01*
G01*
X128063346Y-116697114D02*
G75*
G03*
X128079965Y-116681579I-90346J113314D01*
G01*
X126269994Y-110293608D02*
G75*
G03*
X126243492Y-110397067I307106J-133792D01*
G01*
X131237697Y-103401320D02*
G75*
G03*
X131230296Y-103367430I-144397J-13780D01*
G01*
%TD*%
%TA.AperFunction,Conductor*%
%TO.N,gnd*%
G36*
X126889163Y-96479219D02*
G01*
X127671311Y-97261367D01*
X127671313Y-97261367D01*
X127671529Y-97261170D01*
X127794560Y-97098251D01*
X127885562Y-96915496D01*
X127941431Y-96719136D01*
X127955992Y-96561994D01*
X127973765Y-96528276D01*
X128010175Y-96517001D01*
X128043893Y-96534774D01*
X128047746Y-96540093D01*
X128910725Y-97913436D01*
X128917111Y-97951012D01*
X128902109Y-97976734D01*
X128821192Y-98050500D01*
X128698104Y-98213494D01*
X128607062Y-98396332D01*
X128551167Y-98592782D01*
X128533906Y-98779058D01*
X128532321Y-98796163D01*
X128536319Y-98839303D01*
X128551167Y-98999543D01*
X128607062Y-99195993D01*
X128698104Y-99378831D01*
X128821190Y-99541822D01*
X128972134Y-99679427D01*
X129139233Y-99782889D01*
X129145790Y-99786949D01*
X129336247Y-99860733D01*
X129537018Y-99898263D01*
X129741268Y-99898263D01*
X129817218Y-99884065D01*
X129854511Y-99891932D01*
X129873400Y-99916646D01*
X131032734Y-103247325D01*
X131030535Y-103285377D01*
X131002073Y-103310728D01*
X130985702Y-103313496D01*
X130935267Y-103313496D01*
X130935267Y-104116695D01*
X131103360Y-104116695D01*
X131112324Y-104114912D01*
X131149706Y-104122348D01*
X131169767Y-104149539D01*
X131184135Y-104197778D01*
X131192616Y-104213917D01*
X131227862Y-104280990D01*
X131230198Y-104283883D01*
X131256925Y-104316987D01*
X131257386Y-104317559D01*
X131277693Y-104342765D01*
X132373729Y-105703150D01*
X132411162Y-105749751D01*
X132413183Y-105752266D01*
X132520094Y-105843244D01*
X132642105Y-105912692D01*
X132746967Y-105948592D01*
X132774923Y-105958163D01*
X132843716Y-105967916D01*
X133318617Y-106035941D01*
X133318619Y-106035940D01*
X133320053Y-106036146D01*
X133340830Y-106036146D01*
X133374404Y-106036154D01*
X133374405Y-106036153D01*
X133385504Y-106036156D01*
X133385553Y-106036146D01*
X134250967Y-106036146D01*
X134255277Y-106035311D01*
X134283389Y-106031919D01*
X134292602Y-106029659D01*
X134330276Y-106035436D01*
X134352831Y-106066161D01*
X134354265Y-106078025D01*
X134354265Y-106363246D01*
X134596865Y-106363246D01*
X134632079Y-106377832D01*
X134646665Y-106413046D01*
X134646665Y-106960645D01*
X134745871Y-106960645D01*
X134775506Y-106954751D01*
X134817351Y-106926792D01*
X134819247Y-106929630D01*
X134835810Y-106918546D01*
X134873199Y-106925954D01*
X134875170Y-106927923D01*
X134916027Y-106955222D01*
X134923421Y-106956692D01*
X134945810Y-106961146D01*
X135245919Y-106961145D01*
X135250823Y-106961145D01*
X135250823Y-106962837D01*
X135281497Y-106968936D01*
X135302675Y-107000626D01*
X135298205Y-107032954D01*
X135282307Y-107064155D01*
X135266645Y-107163043D01*
X135264740Y-107175070D01*
X135282307Y-107285982D01*
X135333287Y-107386037D01*
X135412691Y-107465442D01*
X135412692Y-107465442D01*
X135422022Y-107470196D01*
X135446776Y-107499178D01*
X135443786Y-107537176D01*
X135420567Y-107559652D01*
X134529900Y-107977544D01*
X134491825Y-107979297D01*
X134467340Y-107960128D01*
X134451160Y-107935912D01*
X134451158Y-107935911D01*
X134451158Y-107935910D01*
X134417387Y-107913345D01*
X134387606Y-107907422D01*
X133949716Y-107907422D01*
X133919936Y-107913345D01*
X133886160Y-107935913D01*
X133863595Y-107969684D01*
X133857672Y-107999465D01*
X133857672Y-108619578D01*
X133863595Y-108649357D01*
X133863595Y-108649358D01*
X133863596Y-108649359D01*
X133886161Y-108683130D01*
X133886163Y-108683133D01*
X133919934Y-108705698D01*
X133927328Y-108707168D01*
X133949717Y-108711622D01*
X133997232Y-108711621D01*
X134032445Y-108726206D01*
X134046951Y-108758583D01*
X134077381Y-109291747D01*
X134064825Y-109327735D01*
X134030500Y-109344304D01*
X134027662Y-109344385D01*
X133663450Y-109344385D01*
X133633670Y-109350308D01*
X133599894Y-109372876D01*
X133577329Y-109406647D01*
X133571406Y-109436428D01*
X133571406Y-110856541D01*
X133577329Y-110886320D01*
X133577329Y-110886321D01*
X133577330Y-110886322D01*
X133580504Y-110891072D01*
X133599897Y-110920096D01*
X133641905Y-110948165D01*
X133641711Y-110948454D01*
X133664464Y-110963656D01*
X133671903Y-111001038D01*
X133667451Y-111013897D01*
X133409475Y-111521283D01*
X133405278Y-111529524D01*
X133405265Y-111529551D01*
X133405199Y-111529681D01*
X133405181Y-111529728D01*
X133405175Y-111529741D01*
X133404014Y-111532026D01*
X133402821Y-111536175D01*
X133393169Y-111562553D01*
X133392830Y-111563990D01*
X133392830Y-111563993D01*
X133386721Y-111589953D01*
X133385448Y-111594035D01*
X133385167Y-111596543D01*
X133385162Y-111596573D01*
X133385151Y-111596627D01*
X133385130Y-111596811D01*
X133385130Y-111596815D01*
X133383215Y-111614022D01*
X133378486Y-111656287D01*
X133378488Y-111656306D01*
X133158786Y-113621847D01*
X133140378Y-113655223D01*
X133109295Y-113666115D01*
X133056714Y-113666115D01*
X133026934Y-113672038D01*
X132993158Y-113694606D01*
X132970593Y-113728377D01*
X132964669Y-113758158D01*
X132964670Y-114298789D01*
X132950084Y-114334003D01*
X132914870Y-114348589D01*
X132909269Y-114348273D01*
X130402776Y-114064562D01*
X130402739Y-114064551D01*
X130351609Y-114058768D01*
X130347239Y-114058273D01*
X130334860Y-114055228D01*
X130331867Y-114054069D01*
X130331866Y-114054069D01*
X130288145Y-114054069D01*
X130288114Y-114054068D01*
X130288096Y-114054068D01*
X130288047Y-114054068D01*
X130287169Y-114054059D01*
X130277142Y-114054069D01*
X127797376Y-114054069D01*
X127797340Y-114054063D01*
X127757773Y-114054066D01*
X127757768Y-114054064D01*
X127715349Y-114054067D01*
X127715298Y-114054069D01*
X127710056Y-114054069D01*
X127709221Y-114054225D01*
X127703815Y-114054931D01*
X127673665Y-114057192D01*
X127662741Y-114056808D01*
X127660745Y-114056516D01*
X127596765Y-114071120D01*
X127562589Y-114078920D01*
X127562582Y-114078920D01*
X127482378Y-114097228D01*
X127476593Y-114098548D01*
X127450184Y-114104576D01*
X127450175Y-114104578D01*
X127450146Y-114104585D01*
X127450135Y-114104588D01*
X127450120Y-114104593D01*
X127433996Y-114108273D01*
X127352629Y-114140202D01*
X127297466Y-114172048D01*
X127287461Y-114176440D01*
X127285534Y-114177043D01*
X127242773Y-114211146D01*
X127206529Y-114240048D01*
X127206528Y-114240049D01*
X127182274Y-114259391D01*
X127182272Y-114259393D01*
X127140348Y-114292826D01*
X127117986Y-114310649D01*
X127117953Y-114310676D01*
X127117784Y-114310811D01*
X127117733Y-114310858D01*
X127117690Y-114310894D01*
X127116324Y-114311985D01*
X127114100Y-114314318D01*
X127081431Y-114345439D01*
X127081415Y-114345455D01*
X127080643Y-114346191D01*
X127079941Y-114346987D01*
X127079926Y-114347004D01*
X127076338Y-114351080D01*
X127065731Y-114360162D01*
X127063968Y-114361285D01*
X127046847Y-114384576D01*
X127046778Y-114384665D01*
X127046753Y-114384695D01*
X127046677Y-114384798D01*
X127046659Y-114384822D01*
X127033146Y-114403218D01*
X126919514Y-114557807D01*
X126886905Y-114577541D01*
X126849893Y-114568438D01*
X126830159Y-114535829D01*
X126829680Y-114525292D01*
X126829925Y-114521268D01*
X127037550Y-111103426D01*
X127045850Y-111078780D01*
X127053570Y-111067228D01*
X127059494Y-111037446D01*
X127059493Y-110817706D01*
X127065887Y-110793296D01*
X127091640Y-110747504D01*
X127898253Y-109313249D01*
X127928227Y-109289706D01*
X127941659Y-109287861D01*
X128003167Y-109287861D01*
X128018056Y-109284899D01*
X128032948Y-109281938D01*
X128066721Y-109259372D01*
X128089287Y-109225599D01*
X128095211Y-109195817D01*
X128095210Y-108982812D01*
X128102534Y-108956817D01*
X128184536Y-108822833D01*
X128467604Y-108360322D01*
X132900951Y-108360322D01*
X132900951Y-108619528D01*
X132906844Y-108649163D01*
X132929299Y-108682770D01*
X132962908Y-108705227D01*
X132992543Y-108711121D01*
X133160638Y-108711121D01*
X133160639Y-108711120D01*
X133160639Y-108360322D01*
X133262239Y-108360322D01*
X133262239Y-108711121D01*
X133430334Y-108711121D01*
X133459969Y-108705227D01*
X133493576Y-108682772D01*
X133516033Y-108649163D01*
X133521928Y-108619528D01*
X133521928Y-108360322D01*
X133262239Y-108360322D01*
X133160639Y-108360322D01*
X132900951Y-108360322D01*
X128467604Y-108360322D01*
X128529786Y-108258722D01*
X132900950Y-108258722D01*
X133160639Y-108258722D01*
X133160639Y-107907922D01*
X133262239Y-107907922D01*
X133262239Y-108258722D01*
X133521927Y-108258722D01*
X133521927Y-107999515D01*
X133516033Y-107969880D01*
X133493578Y-107936273D01*
X133459969Y-107913816D01*
X133430334Y-107907922D01*
X133262239Y-107907922D01*
X133160639Y-107907922D01*
X132992543Y-107907922D01*
X132962908Y-107913816D01*
X132929301Y-107936271D01*
X132906844Y-107969880D01*
X132900950Y-107999515D01*
X132900950Y-108258722D01*
X128529786Y-108258722D01*
X129204910Y-107155623D01*
X129235733Y-107133203D01*
X129247386Y-107131820D01*
X129322718Y-107131820D01*
X129337607Y-107128858D01*
X129352499Y-107125897D01*
X129386272Y-107103331D01*
X129408838Y-107069558D01*
X129414762Y-107039776D01*
X129414761Y-106793765D01*
X129415440Y-106790082D01*
X129415403Y-106782899D01*
X129415205Y-106744953D01*
X129415418Y-106740101D01*
X129418928Y-106702314D01*
X129416774Y-106694738D01*
X129414876Y-106681377D01*
X129414836Y-106673508D01*
X129414835Y-106673507D01*
X129414788Y-106664166D01*
X129414821Y-106664165D01*
X129414761Y-106663845D01*
X129414761Y-106464846D01*
X134354266Y-106464846D01*
X134354266Y-106869052D01*
X134360159Y-106898687D01*
X134382614Y-106932294D01*
X134416223Y-106954751D01*
X134445859Y-106960645D01*
X134545065Y-106960645D01*
X134545065Y-106464846D01*
X134354266Y-106464846D01*
X129414761Y-106464846D01*
X129414761Y-106419664D01*
X129408838Y-106389885D01*
X129408838Y-106389884D01*
X129386272Y-106356111D01*
X129386270Y-106356110D01*
X129386270Y-106356109D01*
X129352499Y-106333544D01*
X129341639Y-106331384D01*
X129309947Y-106310208D01*
X129303453Y-106296160D01*
X129302197Y-106291742D01*
X128584067Y-103765896D01*
X130573979Y-103765896D01*
X130573979Y-104025102D01*
X130579872Y-104054737D01*
X130602327Y-104088344D01*
X130635936Y-104110801D01*
X130665571Y-104116695D01*
X130833665Y-104116695D01*
X130833666Y-104116694D01*
X130833667Y-103765896D01*
X130573979Y-103765896D01*
X128584067Y-103765896D01*
X128555181Y-103664296D01*
X130573978Y-103664296D01*
X130833666Y-103664296D01*
X130833666Y-103313496D01*
X130665571Y-103313496D01*
X130635936Y-103319390D01*
X130602329Y-103341845D01*
X130579872Y-103375454D01*
X130573978Y-103405089D01*
X130573978Y-103664296D01*
X128555181Y-103664296D01*
X127441989Y-99748915D01*
X127446389Y-99711057D01*
X127463676Y-99692957D01*
X127526676Y-99653950D01*
X127526676Y-99653949D01*
X127526679Y-99653948D01*
X127677621Y-99516346D01*
X127800709Y-99353352D01*
X127891751Y-99170515D01*
X127947646Y-98974063D01*
X127966492Y-98770685D01*
X127947646Y-98567307D01*
X127891751Y-98370855D01*
X127800709Y-98188018D01*
X127800708Y-98188017D01*
X127800708Y-98188016D01*
X127677622Y-98025025D01*
X127526678Y-97887420D01*
X127353022Y-97779898D01*
X127162566Y-97706115D01*
X127084002Y-97691429D01*
X127052068Y-97670621D01*
X127044201Y-97633326D01*
X127065009Y-97601392D01*
X127084002Y-97593525D01*
X127156709Y-97579933D01*
X127347078Y-97506184D01*
X127520658Y-97398708D01*
X127596147Y-97329888D01*
X127596148Y-97329888D01*
X126853950Y-96587690D01*
X126111751Y-97329888D01*
X126187241Y-97398708D01*
X126360821Y-97506184D01*
X126551190Y-97579933D01*
X126629617Y-97594594D01*
X126661551Y-97615402D01*
X126669418Y-97652697D01*
X126648610Y-97684631D01*
X126629617Y-97692498D01*
X126556773Y-97706115D01*
X126366317Y-97779898D01*
X126192661Y-97887420D01*
X126041717Y-98025026D01*
X125949648Y-98146944D01*
X125916787Y-98166255D01*
X125879896Y-98156674D01*
X125860585Y-98123813D01*
X125860107Y-98117059D01*
X125859628Y-97928332D01*
X125857713Y-97173297D01*
X125872210Y-97138048D01*
X125907387Y-97123372D01*
X125942637Y-97137869D01*
X125947254Y-97143161D01*
X126036366Y-97261166D01*
X126036586Y-97261366D01*
X126818735Y-96479219D01*
X126853949Y-96464633D01*
X126889163Y-96479219D01*
G37*
%TD.AperFunction*%
%TA.AperFunction,Conductor*%
G36*
X136873515Y-106926413D02*
G01*
X136874731Y-106927629D01*
X136878523Y-106930163D01*
X136881055Y-106933953D01*
X136887284Y-106940182D01*
X136887770Y-106940910D01*
X136886340Y-106941864D01*
X136899697Y-106961855D01*
X136900475Y-106975788D01*
X136701114Y-109320726D01*
X136683597Y-109354577D01*
X136647274Y-109366128D01*
X136623825Y-109357914D01*
X136613147Y-109350779D01*
X136583512Y-109344885D01*
X136024306Y-109344885D01*
X136024306Y-110948084D01*
X136438302Y-110948084D01*
X136473516Y-110962670D01*
X136488102Y-110997884D01*
X136482694Y-111020455D01*
X136230150Y-111517156D01*
X136201188Y-111541934D01*
X136185758Y-111544385D01*
X135363449Y-111544385D01*
X135333670Y-111550308D01*
X135299894Y-111572876D01*
X135277329Y-111606647D01*
X135271406Y-111636428D01*
X135271406Y-112794241D01*
X135256820Y-112829455D01*
X135256060Y-112830199D01*
X135059360Y-113018673D01*
X135023843Y-113032504D01*
X134988948Y-113017169D01*
X134975106Y-112982715D01*
X134975106Y-112397285D01*
X134324306Y-112397285D01*
X134324306Y-113148084D01*
X134800346Y-113148084D01*
X134835560Y-113162670D01*
X134850146Y-113197884D01*
X134835560Y-113233098D01*
X134834800Y-113233842D01*
X134398107Y-113652273D01*
X134363653Y-113666115D01*
X133976436Y-113666115D01*
X133946656Y-113672038D01*
X133912880Y-113694606D01*
X133890315Y-113728377D01*
X133884392Y-113758158D01*
X133884392Y-113758160D01*
X133884392Y-114058768D01*
X133884393Y-114316315D01*
X133869807Y-114351529D01*
X133834593Y-114366115D01*
X133598948Y-114366115D01*
X133563734Y-114351529D01*
X133549148Y-114316315D01*
X133549147Y-113758159D01*
X133543224Y-113728379D01*
X133543224Y-113728378D01*
X133520658Y-113694605D01*
X133520656Y-113694604D01*
X133520656Y-113694603D01*
X133478649Y-113666535D01*
X133480382Y-113663940D01*
X133463185Y-113652443D01*
X133455107Y-113619256D01*
X133508596Y-113140726D01*
X133527003Y-113107353D01*
X133563619Y-113096769D01*
X133596995Y-113115177D01*
X133599493Y-113118592D01*
X133600255Y-113119733D01*
X133633864Y-113142190D01*
X133663499Y-113148084D01*
X134222705Y-113148084D01*
X134222706Y-113148083D01*
X134222706Y-111544885D01*
X134324306Y-111544885D01*
X134324306Y-112295685D01*
X134975105Y-112295685D01*
X134975105Y-111636478D01*
X134969211Y-111606843D01*
X134946756Y-111573236D01*
X134913147Y-111550779D01*
X134883512Y-111544885D01*
X134324306Y-111544885D01*
X134222706Y-111544885D01*
X133808708Y-111544885D01*
X133773494Y-111530299D01*
X133758908Y-111495085D01*
X133764316Y-111472514D01*
X133795768Y-111410656D01*
X133928505Y-111149590D01*
X134016861Y-110975813D01*
X134045823Y-110951035D01*
X134061253Y-110948584D01*
X134883562Y-110948584D01*
X134902391Y-110944839D01*
X134913343Y-110942661D01*
X134947116Y-110920095D01*
X134969682Y-110886322D01*
X134975606Y-110856540D01*
X134975605Y-110197285D01*
X135271907Y-110197285D01*
X135271907Y-110856491D01*
X135277800Y-110886126D01*
X135300255Y-110919733D01*
X135333864Y-110942190D01*
X135363499Y-110948084D01*
X135922706Y-110948084D01*
X135922706Y-110197285D01*
X135271907Y-110197285D01*
X134975605Y-110197285D01*
X134975605Y-110095685D01*
X135271906Y-110095685D01*
X135922706Y-110095685D01*
X135922706Y-109344885D01*
X135363499Y-109344885D01*
X135333864Y-109350779D01*
X135300257Y-109373234D01*
X135277800Y-109406843D01*
X135271906Y-109436478D01*
X135271906Y-110095685D01*
X134975605Y-110095685D01*
X134975605Y-109436431D01*
X134975605Y-109436430D01*
X134975605Y-109436428D01*
X134969682Y-109406649D01*
X134969682Y-109406648D01*
X134947116Y-109372875D01*
X134947114Y-109372874D01*
X134947114Y-109372873D01*
X134913343Y-109350308D01*
X134883562Y-109344385D01*
X134883561Y-109344385D01*
X134422104Y-109344385D01*
X134386890Y-109329799D01*
X134372385Y-109297423D01*
X134353628Y-108968784D01*
X134341954Y-108764258D01*
X134354510Y-108728271D01*
X134383164Y-108714439D01*
X134382794Y-108712578D01*
X134400691Y-108709018D01*
X134417387Y-108705698D01*
X134451160Y-108683132D01*
X134473726Y-108649359D01*
X134479650Y-108619577D01*
X134479649Y-108357737D01*
X134494235Y-108322524D01*
X134508296Y-108312654D01*
X134628512Y-108256250D01*
X135877399Y-107670285D01*
X135877400Y-107670283D01*
X135883721Y-107667318D01*
X135883818Y-107667253D01*
X135896083Y-107661494D01*
X135962933Y-107617471D01*
X136022790Y-107564328D01*
X136031669Y-107553817D01*
X136031741Y-107553754D01*
X136170832Y-107388962D01*
X136433003Y-107078347D01*
X136433032Y-107078321D01*
X136437440Y-107073096D01*
X136437442Y-107073096D01*
X136445843Y-107063139D01*
X136445861Y-107063130D01*
X136459099Y-107047440D01*
X136459100Y-107047441D01*
X136467803Y-107037127D01*
X136467827Y-107037090D01*
X136467864Y-107037044D01*
X136471573Y-107032652D01*
X136471574Y-107032648D01*
X136471901Y-107032262D01*
X136475338Y-107026309D01*
X136483232Y-107014982D01*
X136490008Y-107003042D01*
X136493915Y-106997345D01*
X136494119Y-106996891D01*
X136494121Y-106996890D01*
X136496524Y-106991564D01*
X136496539Y-106991532D01*
X136496554Y-106991509D01*
X136496677Y-106991235D01*
X136497018Y-106990482D01*
X136497084Y-106990419D01*
X136497868Y-106988817D01*
X136497906Y-106988745D01*
X136497091Y-106990413D01*
X136524785Y-106964372D01*
X136542419Y-106961145D01*
X136745921Y-106961145D01*
X136760810Y-106958183D01*
X136775702Y-106955222D01*
X136809475Y-106932656D01*
X136809475Y-106932655D01*
X136817712Y-106927152D01*
X136819632Y-106930025D01*
X136836129Y-106918993D01*
X136873515Y-106926413D01*
G37*
%TD.AperFunction*%
%TA.AperFunction,Conductor*%
G36*
X137941544Y-107785475D02*
G01*
X137962720Y-107817167D01*
X137963674Y-107826357D01*
X137967833Y-108220140D01*
X137953620Y-108255506D01*
X137918562Y-108270463D01*
X137883196Y-108256250D01*
X137876629Y-108248333D01*
X137855483Y-108216685D01*
X137821874Y-108194228D01*
X137792239Y-108188334D01*
X137533033Y-108188334D01*
X137533033Y-108809311D01*
X137792239Y-108809311D01*
X137821874Y-108803417D01*
X137855481Y-108780962D01*
X137882414Y-108740655D01*
X137914106Y-108719480D01*
X137951489Y-108726916D01*
X137972664Y-108758608D01*
X137973618Y-108767797D01*
X137978557Y-109235405D01*
X137964344Y-109270771D01*
X137929286Y-109285728D01*
X137928760Y-109285731D01*
X137819189Y-109285731D01*
X137789409Y-109291654D01*
X137755633Y-109314222D01*
X137733068Y-109347993D01*
X137727145Y-109377774D01*
X137727145Y-109770664D01*
X137733068Y-109800444D01*
X137733068Y-109800445D01*
X137733069Y-109800446D01*
X137755634Y-109834217D01*
X137755636Y-109834220D01*
X137789407Y-109856785D01*
X137796801Y-109858255D01*
X137819190Y-109862709D01*
X138439299Y-109862708D01*
X138439301Y-109862708D01*
X138454190Y-109859746D01*
X138469082Y-109856785D01*
X138502855Y-109834219D01*
X138525421Y-109800446D01*
X138531345Y-109770664D01*
X138531344Y-109377777D01*
X138531343Y-109377774D01*
X138525421Y-109347995D01*
X138525421Y-109347994D01*
X138502855Y-109314221D01*
X138502853Y-109314220D01*
X138502853Y-109314219D01*
X138469082Y-109291654D01*
X138439301Y-109285731D01*
X138439300Y-109285731D01*
X138322581Y-109285731D01*
X138287367Y-109271145D01*
X138272784Y-109236458D01*
X138269309Y-108907511D01*
X138283522Y-108872148D01*
X138318580Y-108857191D01*
X138328824Y-108858145D01*
X138334940Y-108859361D01*
X138594141Y-108859361D01*
X138594142Y-108859360D01*
X138594142Y-108599673D01*
X138695742Y-108599673D01*
X138695742Y-108859361D01*
X138954948Y-108859361D01*
X138984583Y-108853467D01*
X139018190Y-108831012D01*
X139040647Y-108797403D01*
X139046542Y-108767768D01*
X139046542Y-108599673D01*
X138695742Y-108599673D01*
X138594142Y-108599673D01*
X138594142Y-108238384D01*
X138334937Y-108238384D01*
X138321268Y-108241103D01*
X138283885Y-108233664D01*
X138262712Y-108201971D01*
X138261760Y-108192800D01*
X138259183Y-107948785D01*
X138273395Y-107913422D01*
X138308453Y-107898465D01*
X138318692Y-107899418D01*
X138334887Y-107902640D01*
X138529097Y-107902639D01*
X138563166Y-107916116D01*
X138814932Y-108152261D01*
X138830637Y-108186990D01*
X138817186Y-108222653D01*
X138782457Y-108238358D01*
X138780863Y-108238384D01*
X138695742Y-108238384D01*
X138695742Y-108498073D01*
X139046541Y-108498073D01*
X139046541Y-108484487D01*
X139061127Y-108449273D01*
X139096341Y-108434687D01*
X139130408Y-108448163D01*
X141598056Y-110762704D01*
X141613761Y-110797433D01*
X141600310Y-110833096D01*
X141592846Y-110839613D01*
X138919496Y-112740546D01*
X138882345Y-112749065D01*
X138850051Y-112728819D01*
X138840837Y-112699959D01*
X138840838Y-112622102D01*
X138219861Y-112622102D01*
X138219861Y-112881308D01*
X138225754Y-112910943D01*
X138248209Y-112944550D01*
X138256186Y-112949880D01*
X138277361Y-112981572D01*
X138269925Y-113018955D01*
X138244648Y-113038402D01*
X134534799Y-114308469D01*
X134496759Y-114306075D01*
X134471554Y-114277484D01*
X134468869Y-114261354D01*
X134468869Y-114013177D01*
X134483455Y-113977963D01*
X134484177Y-113977255D01*
X135334571Y-113162425D01*
X135369021Y-113148584D01*
X136583560Y-113148584D01*
X136583562Y-113148584D01*
X136598451Y-113145622D01*
X136613343Y-113142661D01*
X136647116Y-113120095D01*
X136669682Y-113086322D01*
X136675606Y-113056540D01*
X136675605Y-112650993D01*
X136690191Y-112615780D01*
X136725405Y-112601194D01*
X136732332Y-112601678D01*
X137083220Y-112650994D01*
X137219269Y-112670115D01*
X137252110Y-112689460D01*
X137262138Y-112719430D01*
X137262138Y-112881357D01*
X137268061Y-112911137D01*
X137268061Y-112911138D01*
X137268062Y-112911139D01*
X137290386Y-112944550D01*
X137290629Y-112944913D01*
X137324400Y-112967478D01*
X137331794Y-112968948D01*
X137354183Y-112973402D01*
X137792070Y-112973401D01*
X137792071Y-112973401D01*
X137801997Y-112971426D01*
X137821853Y-112967478D01*
X137855626Y-112944912D01*
X137878192Y-112911139D01*
X137884116Y-112881357D01*
X137884115Y-112520502D01*
X138219860Y-112520502D01*
X138479549Y-112520502D01*
X138479549Y-112169702D01*
X138581149Y-112169702D01*
X138581149Y-112520502D01*
X138840837Y-112520502D01*
X138840837Y-112261295D01*
X138834943Y-112231660D01*
X138812488Y-112198053D01*
X138778879Y-112175596D01*
X138749244Y-112169702D01*
X138581149Y-112169702D01*
X138479549Y-112169702D01*
X138311453Y-112169702D01*
X138281818Y-112175596D01*
X138248211Y-112198051D01*
X138225754Y-112231660D01*
X138219860Y-112261295D01*
X138219860Y-112520502D01*
X137884115Y-112520502D01*
X137884115Y-112261248D01*
X137884115Y-112261247D01*
X137884115Y-112261245D01*
X137878192Y-112231466D01*
X137878192Y-112231465D01*
X137855626Y-112197692D01*
X137855624Y-112197691D01*
X137855624Y-112197690D01*
X137821853Y-112175125D01*
X137792072Y-112169202D01*
X137354182Y-112169202D01*
X137324402Y-112175125D01*
X137290626Y-112197693D01*
X137268061Y-112231464D01*
X137262138Y-112261245D01*
X137262138Y-112321759D01*
X137247552Y-112356973D01*
X137212338Y-112371559D01*
X137205407Y-112371074D01*
X136718474Y-112302639D01*
X136685633Y-112283294D01*
X136675605Y-112253324D01*
X136675605Y-111636428D01*
X136669682Y-111606649D01*
X136669682Y-111606648D01*
X136647116Y-111572875D01*
X136647114Y-111572874D01*
X136647114Y-111572873D01*
X136605107Y-111544805D01*
X136605299Y-111544516D01*
X136582540Y-111529307D01*
X136575107Y-111491923D01*
X136579553Y-111479079D01*
X136815591Y-111014844D01*
X136815612Y-111014814D01*
X136818674Y-111008788D01*
X136818676Y-111008788D01*
X136824074Y-110998167D01*
X136824095Y-110998150D01*
X136833894Y-110978860D01*
X136833895Y-110978861D01*
X136842409Y-110962103D01*
X136842410Y-110962098D01*
X136842659Y-110961610D01*
X136842659Y-110961608D01*
X136842791Y-110961349D01*
X136843103Y-110960737D01*
X136843895Y-110957924D01*
X136854470Y-110928195D01*
X136855008Y-110926684D01*
X136862014Y-110894321D01*
X136862835Y-110891470D01*
X136862915Y-110890527D01*
X136862916Y-110890525D01*
X136892951Y-110537242D01*
X137727646Y-110537242D01*
X137727646Y-110682837D01*
X137733539Y-110712472D01*
X137755994Y-110746079D01*
X137789603Y-110768536D01*
X137819238Y-110774430D01*
X138078445Y-110774430D01*
X138078445Y-110537242D01*
X138180045Y-110537242D01*
X138180045Y-110774430D01*
X138439251Y-110774430D01*
X138468886Y-110768536D01*
X138502493Y-110746081D01*
X138524950Y-110712472D01*
X138530845Y-110682837D01*
X138530845Y-110537242D01*
X138180045Y-110537242D01*
X138078445Y-110537242D01*
X137727646Y-110537242D01*
X136892951Y-110537242D01*
X136901589Y-110435642D01*
X137727645Y-110435642D01*
X138078445Y-110435642D01*
X138078445Y-110198453D01*
X138180045Y-110198453D01*
X138180045Y-110435642D01*
X138530844Y-110435642D01*
X138530844Y-110290046D01*
X138524950Y-110260411D01*
X138502495Y-110226804D01*
X138468886Y-110204347D01*
X138439251Y-110198453D01*
X138180045Y-110198453D01*
X138078445Y-110198453D01*
X137819238Y-110198453D01*
X137789603Y-110204347D01*
X137755996Y-110226802D01*
X137733539Y-110260411D01*
X137727645Y-110290046D01*
X137727645Y-110435642D01*
X136901589Y-110435642D01*
X137038706Y-108822830D01*
X137056222Y-108788982D01*
X137092545Y-108777431D01*
X137115994Y-108785645D01*
X137142591Y-108803417D01*
X137172226Y-108809311D01*
X137431433Y-108809311D01*
X137431433Y-108188334D01*
X137172229Y-108188334D01*
X137156222Y-108191518D01*
X137118840Y-108184079D01*
X137097666Y-108152386D01*
X137096889Y-108138463D01*
X137117324Y-107898102D01*
X137134840Y-107864254D01*
X137167273Y-107853940D01*
X137167273Y-107852590D01*
X137172177Y-107852589D01*
X137172178Y-107852590D01*
X137792032Y-107852589D01*
X137792289Y-107852589D01*
X137807178Y-107849627D01*
X137822070Y-107846666D01*
X137855843Y-107824100D01*
X137872470Y-107799215D01*
X137904161Y-107778040D01*
X137941544Y-107785475D01*
G37*
%TD.AperFunction*%
%TA.AperFunction,Conductor*%
G36*
X134192178Y-97130231D02*
G01*
X134214709Y-97160973D01*
X134216134Y-97172800D01*
X134216134Y-97432642D01*
X134222057Y-97462422D01*
X134222057Y-97462423D01*
X134222058Y-97462424D01*
X134244624Y-97496197D01*
X134244625Y-97496198D01*
X134278396Y-97518763D01*
X134285790Y-97520233D01*
X134308179Y-97524687D01*
X134351961Y-97524686D01*
X134387174Y-97539271D01*
X134401484Y-97569243D01*
X134578649Y-99242798D01*
X134567851Y-99279352D01*
X134538841Y-99296884D01*
X134525788Y-99299480D01*
X134525786Y-99299480D01*
X134525786Y-99299481D01*
X134520518Y-99303001D01*
X134492011Y-99322048D01*
X134469446Y-99355819D01*
X134463523Y-99385600D01*
X134463523Y-100005713D01*
X134469446Y-100035492D01*
X134469446Y-100035493D01*
X134469447Y-100035494D01*
X134492013Y-100069267D01*
X134525786Y-100091833D01*
X134525787Y-100091833D01*
X134531021Y-100095330D01*
X134552197Y-100127022D01*
X134552509Y-100144726D01*
X134542530Y-100206134D01*
X134522485Y-100238552D01*
X134493376Y-100247946D01*
X134445809Y-100247946D01*
X134416029Y-100253869D01*
X134382253Y-100276437D01*
X134359688Y-100310208D01*
X134353765Y-100339989D01*
X134353765Y-101250102D01*
X134359688Y-101279881D01*
X134359688Y-101279882D01*
X134359689Y-101279883D01*
X134382254Y-101313654D01*
X134382256Y-101313657D01*
X134416027Y-101336222D01*
X134423421Y-101337692D01*
X134445810Y-101342146D01*
X134745919Y-101342145D01*
X134745920Y-101342145D01*
X134755846Y-101340170D01*
X134775702Y-101336222D01*
X134809475Y-101313656D01*
X134809475Y-101313655D01*
X134817712Y-101308152D01*
X134819632Y-101311025D01*
X134836129Y-101299993D01*
X134873515Y-101307413D01*
X134874732Y-101308630D01*
X134916027Y-101336222D01*
X134923421Y-101337692D01*
X134945810Y-101342146D01*
X135245919Y-101342145D01*
X135245920Y-101342145D01*
X135255846Y-101340170D01*
X135275702Y-101336222D01*
X135309475Y-101313656D01*
X135309475Y-101313655D01*
X135317712Y-101308152D01*
X135319632Y-101311025D01*
X135336129Y-101299993D01*
X135373515Y-101307413D01*
X135374732Y-101308630D01*
X135416027Y-101336222D01*
X135423421Y-101337692D01*
X135445810Y-101342146D01*
X135745919Y-101342145D01*
X135745920Y-101342145D01*
X135755846Y-101340170D01*
X135775702Y-101336222D01*
X135809475Y-101313656D01*
X135809475Y-101313655D01*
X135817712Y-101308152D01*
X135819632Y-101311025D01*
X135836129Y-101299993D01*
X135873515Y-101307413D01*
X135874732Y-101308630D01*
X135916027Y-101336222D01*
X135923421Y-101337692D01*
X135945810Y-101342146D01*
X136245919Y-101342145D01*
X136245920Y-101342145D01*
X136255846Y-101340170D01*
X136275702Y-101336222D01*
X136309475Y-101313656D01*
X136309475Y-101313655D01*
X136317712Y-101308152D01*
X136319632Y-101311025D01*
X136336129Y-101299993D01*
X136373515Y-101307413D01*
X136374732Y-101308630D01*
X136416027Y-101336222D01*
X136423421Y-101337692D01*
X136445810Y-101342146D01*
X136745919Y-101342145D01*
X136745920Y-101342145D01*
X136755846Y-101340170D01*
X136775702Y-101336222D01*
X136809475Y-101313656D01*
X136809475Y-101313655D01*
X136817712Y-101308152D01*
X136819632Y-101311025D01*
X136836129Y-101299993D01*
X136873515Y-101307413D01*
X136874732Y-101308630D01*
X136916027Y-101336222D01*
X136923421Y-101337692D01*
X136945810Y-101342146D01*
X137245919Y-101342145D01*
X137245920Y-101342145D01*
X137255846Y-101340170D01*
X137275702Y-101336222D01*
X137309475Y-101313656D01*
X137309475Y-101313655D01*
X137317712Y-101308152D01*
X137319632Y-101311025D01*
X137336129Y-101299993D01*
X137373515Y-101307413D01*
X137374732Y-101308630D01*
X137416027Y-101336222D01*
X137423421Y-101337692D01*
X137445810Y-101342146D01*
X137745919Y-101342145D01*
X137745920Y-101342145D01*
X137755846Y-101340170D01*
X137775702Y-101336222D01*
X137809475Y-101313656D01*
X137809475Y-101313655D01*
X137817712Y-101308152D01*
X137819632Y-101311025D01*
X137836129Y-101299993D01*
X137873515Y-101307413D01*
X137874732Y-101308630D01*
X137916027Y-101336222D01*
X137923421Y-101337692D01*
X137945810Y-101342146D01*
X138245919Y-101342145D01*
X138245920Y-101342145D01*
X138255846Y-101340170D01*
X138275702Y-101336222D01*
X138309475Y-101313656D01*
X138309475Y-101313655D01*
X138317712Y-101308152D01*
X138319632Y-101311025D01*
X138336129Y-101299993D01*
X138373515Y-101307413D01*
X138374732Y-101308630D01*
X138416027Y-101336222D01*
X138423421Y-101337692D01*
X138445810Y-101342146D01*
X138745919Y-101342145D01*
X138745920Y-101342145D01*
X138755846Y-101340170D01*
X138775702Y-101336222D01*
X138809475Y-101313656D01*
X138832041Y-101279883D01*
X138837965Y-101250101D01*
X138837964Y-100339992D01*
X138837964Y-100339991D01*
X138837964Y-100339989D01*
X138832041Y-100310210D01*
X138832041Y-100310209D01*
X138809475Y-100276436D01*
X138809473Y-100276435D01*
X138809473Y-100276434D01*
X138775702Y-100253869D01*
X138745921Y-100247946D01*
X138445809Y-100247946D01*
X138416029Y-100253869D01*
X138374018Y-100281940D01*
X138372097Y-100279066D01*
X138355522Y-100290113D01*
X138318148Y-100282634D01*
X138316938Y-100281422D01*
X138275702Y-100253869D01*
X138268616Y-100252460D01*
X138236925Y-100231284D01*
X138228547Y-100204838D01*
X138227580Y-100165345D01*
X138241300Y-100129786D01*
X138254756Y-100119754D01*
X138282821Y-100105456D01*
X138362226Y-100026051D01*
X138413206Y-99925996D01*
X138430773Y-99815084D01*
X138413206Y-99704172D01*
X138362226Y-99604117D01*
X138282821Y-99524712D01*
X138182766Y-99473732D01*
X138071854Y-99456165D01*
X137960941Y-99473732D01*
X137860887Y-99524712D01*
X137781482Y-99604117D01*
X137730502Y-99704171D01*
X137718034Y-99782889D01*
X137712935Y-99815084D01*
X137730502Y-99925996D01*
X137781482Y-100026051D01*
X137824336Y-100068905D01*
X137860887Y-100105456D01*
X137906271Y-100128580D01*
X137931025Y-100157562D01*
X137933448Y-100171734D01*
X137934475Y-100213696D01*
X137920755Y-100249256D01*
X137912358Y-100256321D01*
X137874019Y-100281939D01*
X137872098Y-100279065D01*
X137855522Y-100290113D01*
X137818148Y-100282634D01*
X137816938Y-100281422D01*
X137775702Y-100253869D01*
X137745921Y-100247946D01*
X137445809Y-100247946D01*
X137416029Y-100253869D01*
X137374018Y-100281940D01*
X137372097Y-100279066D01*
X137355522Y-100290113D01*
X137318148Y-100282634D01*
X137316938Y-100281422D01*
X137267466Y-100248366D01*
X137268333Y-100247067D01*
X137248015Y-100233490D01*
X137239623Y-100206107D01*
X137238495Y-100007321D01*
X137252881Y-99972025D01*
X137288011Y-99957240D01*
X137288294Y-99957239D01*
X137399399Y-99957239D01*
X137414288Y-99954277D01*
X137429180Y-99951316D01*
X137462953Y-99928750D01*
X137485519Y-99894977D01*
X137491443Y-99865195D01*
X137491442Y-99427308D01*
X137485519Y-99397525D01*
X137462953Y-99363752D01*
X137462951Y-99363751D01*
X137462951Y-99363750D01*
X137429180Y-99341185D01*
X137399399Y-99335262D01*
X137399398Y-99335262D01*
X136841243Y-99335262D01*
X136806029Y-99320676D01*
X136791443Y-99285462D01*
X136791443Y-99049317D01*
X136806029Y-99014103D01*
X136841243Y-98999517D01*
X137038543Y-98999517D01*
X137038543Y-98739829D01*
X137140143Y-98739829D01*
X137140143Y-98999517D01*
X137399349Y-98999517D01*
X137428984Y-98993623D01*
X137462591Y-98971168D01*
X137485048Y-98937559D01*
X137490943Y-98907924D01*
X137490943Y-98739829D01*
X137140143Y-98739829D01*
X137038543Y-98739829D01*
X137038543Y-98378540D01*
X136844677Y-98378540D01*
X136809463Y-98363954D01*
X136794877Y-98328740D01*
X136794890Y-98327615D01*
X136803915Y-97928329D01*
X136819293Y-97893456D01*
X136854827Y-97879670D01*
X136888336Y-97893673D01*
X137300882Y-98292956D01*
X137316041Y-98327927D01*
X137302032Y-98363374D01*
X137267061Y-98378533D01*
X137266248Y-98378540D01*
X137140143Y-98378540D01*
X137140143Y-98638229D01*
X137490942Y-98638229D01*
X137490942Y-98594408D01*
X137505528Y-98559194D01*
X137540742Y-98544608D01*
X137575374Y-98558623D01*
X140206185Y-101104855D01*
X140211043Y-101109557D01*
X140226202Y-101144528D01*
X140212193Y-101179975D01*
X140184201Y-101194528D01*
X140166866Y-101197274D01*
X140066812Y-101248254D01*
X139987406Y-101327659D01*
X139973003Y-101355928D01*
X139944020Y-101380682D01*
X139906022Y-101377691D01*
X139900964Y-101374726D01*
X139890702Y-101367869D01*
X139860921Y-101361946D01*
X138950808Y-101361946D01*
X138921029Y-101367869D01*
X138887253Y-101390437D01*
X138864688Y-101424208D01*
X138858765Y-101453989D01*
X138858765Y-101754101D01*
X138864688Y-101783881D01*
X138864688Y-101783882D01*
X138864689Y-101783883D01*
X138887255Y-101817656D01*
X138892759Y-101825893D01*
X138889885Y-101827813D01*
X138900923Y-101844341D01*
X138893479Y-101881723D01*
X138892264Y-101882937D01*
X138864688Y-101924208D01*
X138858765Y-101953989D01*
X138858765Y-102254101D01*
X138864688Y-102283881D01*
X138864688Y-102283882D01*
X138864689Y-102283883D01*
X138886806Y-102316984D01*
X138892759Y-102325893D01*
X138889885Y-102327813D01*
X138900923Y-102344341D01*
X138893479Y-102381723D01*
X138892264Y-102382937D01*
X138864688Y-102424208D01*
X138858765Y-102453989D01*
X138858765Y-102754101D01*
X138864688Y-102783881D01*
X138864688Y-102783882D01*
X138864689Y-102783883D01*
X138882064Y-102809887D01*
X138892759Y-102825893D01*
X138889885Y-102827813D01*
X138900923Y-102844341D01*
X138893479Y-102881723D01*
X138892264Y-102882937D01*
X138864688Y-102924208D01*
X138858765Y-102953989D01*
X138858765Y-103254101D01*
X138864688Y-103283881D01*
X138864688Y-103283882D01*
X138864689Y-103283883D01*
X138884776Y-103313946D01*
X138892759Y-103325893D01*
X138889885Y-103327813D01*
X138900923Y-103344341D01*
X138893479Y-103381723D01*
X138892264Y-103382937D01*
X138864688Y-103424208D01*
X138858765Y-103453989D01*
X138858765Y-103754101D01*
X138864688Y-103783881D01*
X138864688Y-103783882D01*
X138864689Y-103783883D01*
X138868368Y-103789389D01*
X138892759Y-103825893D01*
X138889885Y-103827813D01*
X138900923Y-103844341D01*
X138893479Y-103881723D01*
X138892264Y-103882937D01*
X138864688Y-103924208D01*
X138858765Y-103953989D01*
X138858765Y-104254101D01*
X138864688Y-104283881D01*
X138864688Y-104283882D01*
X138864689Y-104283883D01*
X138887202Y-104317576D01*
X138892759Y-104325893D01*
X138889885Y-104327813D01*
X138900923Y-104344341D01*
X138893479Y-104381723D01*
X138892264Y-104382937D01*
X138864688Y-104424208D01*
X138858765Y-104453989D01*
X138858765Y-104754101D01*
X138864688Y-104783881D01*
X138892759Y-104825893D01*
X138889885Y-104827813D01*
X138900923Y-104844341D01*
X138893479Y-104881723D01*
X138892264Y-104882937D01*
X138864688Y-104924208D01*
X138858765Y-104953989D01*
X138858765Y-105254101D01*
X138864688Y-105283881D01*
X138892759Y-105325893D01*
X138889885Y-105327813D01*
X138900923Y-105344341D01*
X138893479Y-105381723D01*
X138892264Y-105382937D01*
X138864688Y-105424208D01*
X138858765Y-105453989D01*
X138858765Y-105754101D01*
X138864688Y-105783881D01*
X138864688Y-105783882D01*
X138864689Y-105783883D01*
X138887255Y-105817656D01*
X138887256Y-105817657D01*
X138921027Y-105840222D01*
X138928421Y-105841692D01*
X138950810Y-105846146D01*
X139425540Y-105846145D01*
X139460036Y-105860027D01*
X139623488Y-106017007D01*
X140293254Y-106660255D01*
X140308548Y-106695166D01*
X140308558Y-106696172D01*
X140308558Y-107120907D01*
X140314481Y-107150687D01*
X140314481Y-107150688D01*
X140314482Y-107150689D01*
X140337047Y-107184460D01*
X140337049Y-107184463D01*
X140370820Y-107207028D01*
X140378214Y-107208498D01*
X140400603Y-107212952D01*
X140986712Y-107212951D01*
X140986714Y-107212951D01*
X141003436Y-107209625D01*
X141016495Y-107207028D01*
X141050268Y-107184462D01*
X141072834Y-107150689D01*
X141077815Y-107125646D01*
X141098989Y-107093955D01*
X141136372Y-107086518D01*
X141168064Y-107107692D01*
X141175501Y-107125647D01*
X141180481Y-107150686D01*
X141180482Y-107150689D01*
X141203047Y-107184460D01*
X141203049Y-107184463D01*
X141236820Y-107207028D01*
X141244214Y-107208498D01*
X141266603Y-107212952D01*
X141852712Y-107212951D01*
X141852714Y-107212951D01*
X141869436Y-107209625D01*
X141882495Y-107207028D01*
X141916268Y-107184462D01*
X141938834Y-107150689D01*
X141944758Y-107120907D01*
X141944757Y-107037645D01*
X141959343Y-107002431D01*
X141994543Y-106987845D01*
X143199746Y-106987551D01*
X143234963Y-107002128D01*
X143249558Y-107037339D01*
X143249558Y-107325407D01*
X143255481Y-107355187D01*
X143255481Y-107355188D01*
X143255482Y-107355189D01*
X143278047Y-107388960D01*
X143278049Y-107388963D01*
X143311820Y-107411528D01*
X143319214Y-107412998D01*
X143341603Y-107417452D01*
X143873844Y-107417451D01*
X143873845Y-107417451D01*
X143883771Y-107415476D01*
X143903627Y-107411528D01*
X143937400Y-107388962D01*
X143959966Y-107355189D01*
X143965890Y-107325407D01*
X143965889Y-106891152D01*
X144687927Y-106891152D01*
X144687927Y-107325358D01*
X144693820Y-107354993D01*
X144716275Y-107388600D01*
X144749884Y-107411057D01*
X144779519Y-107416951D01*
X144994792Y-107416951D01*
X144994792Y-106891152D01*
X145096392Y-106891152D01*
X145096392Y-107416951D01*
X145311664Y-107416951D01*
X145341299Y-107411057D01*
X145374906Y-107388602D01*
X145397363Y-107354993D01*
X145403257Y-107325358D01*
X145403258Y-106891152D01*
X145096392Y-106891152D01*
X144994792Y-106891152D01*
X144687927Y-106891152D01*
X143965889Y-106891152D01*
X143965889Y-106789552D01*
X144687926Y-106789552D01*
X144994792Y-106789552D01*
X144994792Y-106263752D01*
X145096392Y-106263752D01*
X145096392Y-106789552D01*
X145403257Y-106789552D01*
X145403257Y-106355345D01*
X145397363Y-106325710D01*
X145374908Y-106292103D01*
X145341299Y-106269646D01*
X145311664Y-106263752D01*
X145096392Y-106263752D01*
X144994792Y-106263752D01*
X144779519Y-106263752D01*
X144749884Y-106269646D01*
X144716277Y-106292101D01*
X144693820Y-106325710D01*
X144687926Y-106355345D01*
X144687926Y-106789552D01*
X143965889Y-106789552D01*
X143965889Y-106355298D01*
X143965889Y-106355297D01*
X143965889Y-106355295D01*
X143959966Y-106325516D01*
X143959966Y-106325515D01*
X143937400Y-106291742D01*
X143937398Y-106291741D01*
X143937398Y-106291740D01*
X143903627Y-106269175D01*
X143873846Y-106263252D01*
X143341602Y-106263252D01*
X143311822Y-106269175D01*
X143278046Y-106291743D01*
X143255481Y-106325514D01*
X143249558Y-106355295D01*
X143249558Y-106643551D01*
X143234972Y-106678765D01*
X143199770Y-106693351D01*
X141994569Y-106693645D01*
X141959352Y-106679068D01*
X141944757Y-106643857D01*
X141944757Y-106560795D01*
X141938834Y-106531016D01*
X141938834Y-106531015D01*
X141916268Y-106497242D01*
X141916266Y-106497241D01*
X141916266Y-106497240D01*
X141882495Y-106474675D01*
X141852714Y-106468752D01*
X141266601Y-106468752D01*
X141236822Y-106474675D01*
X141203046Y-106497243D01*
X141180481Y-106531014D01*
X141175500Y-106556058D01*
X141154324Y-106587749D01*
X141116941Y-106595185D01*
X141085250Y-106574009D01*
X141077814Y-106556058D01*
X141072834Y-106531015D01*
X141050268Y-106497242D01*
X141050266Y-106497241D01*
X141050266Y-106497240D01*
X141016495Y-106474675D01*
X140986714Y-106468752D01*
X140986713Y-106468752D01*
X140538623Y-106468752D01*
X140504127Y-106454870D01*
X139919716Y-105893598D01*
X139904422Y-105858686D01*
X139918294Y-105823184D01*
X139923943Y-105818452D01*
X139947041Y-105783883D01*
X139951780Y-105760056D01*
X139952965Y-105754101D01*
X139952964Y-105453992D01*
X139952963Y-105453989D01*
X139947041Y-105424208D01*
X139942170Y-105416918D01*
X139934735Y-105379535D01*
X139955912Y-105347844D01*
X139990918Y-105339996D01*
X148002485Y-106534434D01*
X148035164Y-106554054D01*
X148039514Y-106561081D01*
X148046101Y-106574009D01*
X148086057Y-106652427D01*
X148165462Y-106731832D01*
X148203569Y-106751248D01*
X148228323Y-106780231D01*
X148225332Y-106818229D01*
X148205469Y-106838971D01*
X142609793Y-110002543D01*
X142609721Y-110002586D01*
X142564809Y-110027978D01*
X142559469Y-110030997D01*
X142544891Y-110039237D01*
X142545547Y-110038860D01*
X142541222Y-110041309D01*
X142540846Y-110041626D01*
X142536632Y-110044803D01*
X142507748Y-110064268D01*
X142507739Y-110064274D01*
X142506943Y-110064811D01*
X142506662Y-110065033D01*
X142495909Y-110070993D01*
X142494395Y-110071598D01*
X142494392Y-110071600D01*
X142494393Y-110071600D01*
X142471149Y-110093247D01*
X142471126Y-110093269D01*
X142471121Y-110093274D01*
X142471116Y-110093279D01*
X142463828Y-110100066D01*
X142454373Y-110108873D01*
X142432801Y-110128963D01*
X142413382Y-110147049D01*
X142413372Y-110147060D01*
X142138211Y-110403339D01*
X142102502Y-110416666D01*
X142070201Y-110403220D01*
X139062772Y-107582388D01*
X139047067Y-107547659D01*
X139047041Y-107546065D01*
X139047041Y-107372705D01*
X139041118Y-107342926D01*
X139041118Y-107342925D01*
X139018552Y-107309152D01*
X139018550Y-107309151D01*
X139018550Y-107309150D01*
X138984780Y-107286585D01*
X138962993Y-107282252D01*
X138931302Y-107261076D01*
X138922952Y-107235483D01*
X138921874Y-107209625D01*
X138887082Y-106374775D01*
X138868714Y-106295052D01*
X138851480Y-106269646D01*
X138846551Y-106262379D01*
X138837964Y-106234423D01*
X138837964Y-105958989D01*
X138832041Y-105929210D01*
X138832041Y-105929209D01*
X138809475Y-105895436D01*
X138809473Y-105895435D01*
X138809473Y-105895434D01*
X138775702Y-105872869D01*
X138745921Y-105866946D01*
X138445809Y-105866946D01*
X138416029Y-105872869D01*
X138374018Y-105900940D01*
X138372097Y-105898066D01*
X138355522Y-105909113D01*
X138318148Y-105901634D01*
X138316938Y-105900422D01*
X138275702Y-105872869D01*
X138245921Y-105866946D01*
X137945809Y-105866946D01*
X137916029Y-105872869D01*
X137874018Y-105900940D01*
X137872097Y-105898066D01*
X137855522Y-105909113D01*
X137818148Y-105901634D01*
X137816938Y-105900422D01*
X137775702Y-105872869D01*
X137745921Y-105866946D01*
X137445809Y-105866946D01*
X137416029Y-105872869D01*
X137374018Y-105900940D01*
X137372097Y-105898066D01*
X137355522Y-105909113D01*
X137318148Y-105901634D01*
X137316938Y-105900422D01*
X137275702Y-105872869D01*
X137245921Y-105866946D01*
X136945809Y-105866946D01*
X136916029Y-105872869D01*
X136874018Y-105900940D01*
X136872097Y-105898066D01*
X136855522Y-105909113D01*
X136818148Y-105901634D01*
X136816938Y-105900422D01*
X136775702Y-105872869D01*
X136745921Y-105866946D01*
X136445809Y-105866946D01*
X136416029Y-105872869D01*
X136374018Y-105900940D01*
X136372097Y-105898066D01*
X136355522Y-105909113D01*
X136318148Y-105901634D01*
X136316938Y-105900422D01*
X136275702Y-105872869D01*
X136245921Y-105866946D01*
X136245920Y-105866946D01*
X136042415Y-105866946D01*
X136007201Y-105852360D01*
X135997041Y-105837670D01*
X135996690Y-105836894D01*
X135996685Y-105836882D01*
X135994121Y-105831202D01*
X135994119Y-105831200D01*
X135991743Y-105825936D01*
X135990548Y-105787839D01*
X136016641Y-105760056D01*
X136037132Y-105755645D01*
X136545065Y-105755645D01*
X136545065Y-103654846D01*
X136646665Y-103654846D01*
X136646665Y-105755645D01*
X138655871Y-105755645D01*
X138685506Y-105749751D01*
X138719113Y-105727296D01*
X138741570Y-105693687D01*
X138747465Y-105664052D01*
X138747465Y-103654846D01*
X136646665Y-103654846D01*
X136545065Y-103654846D01*
X134444266Y-103654846D01*
X134444266Y-105632250D01*
X134429680Y-105667464D01*
X134403633Y-105681130D01*
X134403273Y-105681174D01*
X134401830Y-105681528D01*
X134401822Y-105681530D01*
X134394644Y-105683294D01*
X134356967Y-105677530D01*
X134334402Y-105646812D01*
X134332964Y-105634932D01*
X134332964Y-105453989D01*
X134327041Y-105424210D01*
X134327041Y-105424209D01*
X134304475Y-105390436D01*
X134304474Y-105390435D01*
X134298971Y-105382199D01*
X134301844Y-105380278D01*
X134290803Y-105363734D01*
X134298259Y-105326355D01*
X134299472Y-105325143D01*
X134327041Y-105283883D01*
X134327041Y-105283881D01*
X134332965Y-105254101D01*
X134332964Y-104953992D01*
X134332963Y-104953989D01*
X134327041Y-104924210D01*
X134327041Y-104924209D01*
X134304475Y-104890436D01*
X134304474Y-104890435D01*
X134298971Y-104882199D01*
X134301844Y-104880278D01*
X134290803Y-104863734D01*
X134298259Y-104826355D01*
X134299472Y-104825143D01*
X134327041Y-104783883D01*
X134327041Y-104783881D01*
X134332965Y-104754101D01*
X134332964Y-104453992D01*
X134332963Y-104453989D01*
X134327041Y-104424210D01*
X134327041Y-104424209D01*
X134304475Y-104390436D01*
X134304474Y-104390435D01*
X134298971Y-104382199D01*
X134301844Y-104380278D01*
X134290803Y-104363734D01*
X134298259Y-104326355D01*
X134299472Y-104325143D01*
X134304540Y-104317559D01*
X134327041Y-104283883D01*
X134332965Y-104254101D01*
X134332964Y-103953992D01*
X134332963Y-103953989D01*
X134327041Y-103924210D01*
X134327041Y-103924209D01*
X134304475Y-103890436D01*
X134304474Y-103890435D01*
X134298971Y-103882199D01*
X134301844Y-103880278D01*
X134290803Y-103863734D01*
X134298259Y-103826355D01*
X134299472Y-103825143D01*
X134327041Y-103783883D01*
X134329686Y-103770586D01*
X134332965Y-103754101D01*
X134332964Y-103553246D01*
X134444265Y-103553246D01*
X136545065Y-103553246D01*
X136545065Y-101452446D01*
X136646665Y-101452446D01*
X136646665Y-103553246D01*
X138747464Y-103553246D01*
X138747464Y-101544039D01*
X138741570Y-101514404D01*
X138719115Y-101480797D01*
X138685506Y-101458340D01*
X138655871Y-101452446D01*
X136646665Y-101452446D01*
X136545065Y-101452446D01*
X134535858Y-101452446D01*
X134506223Y-101458340D01*
X134472616Y-101480795D01*
X134450159Y-101514404D01*
X134444265Y-101544039D01*
X134444265Y-103553246D01*
X134332964Y-103553246D01*
X134332964Y-103453992D01*
X134332963Y-103453989D01*
X134327041Y-103424210D01*
X134327041Y-103424209D01*
X134304475Y-103390436D01*
X134304474Y-103390435D01*
X134298971Y-103382199D01*
X134301844Y-103380278D01*
X134290803Y-103363734D01*
X134298259Y-103326355D01*
X134299472Y-103325143D01*
X134307255Y-103313496D01*
X134327041Y-103283883D01*
X134332965Y-103254101D01*
X134332964Y-102953992D01*
X134332963Y-102953989D01*
X134327041Y-102924210D01*
X134327041Y-102924209D01*
X134304475Y-102890436D01*
X134304474Y-102890435D01*
X134298971Y-102882199D01*
X134301844Y-102880278D01*
X134290803Y-102863734D01*
X134298259Y-102826355D01*
X134299472Y-102825143D01*
X134311590Y-102807008D01*
X134327041Y-102783883D01*
X134332965Y-102754101D01*
X134332964Y-102453992D01*
X134332963Y-102453989D01*
X134327041Y-102424210D01*
X134327041Y-102424209D01*
X134304475Y-102390436D01*
X134304474Y-102390435D01*
X134298971Y-102382199D01*
X134301844Y-102380278D01*
X134290803Y-102363734D01*
X134298259Y-102326355D01*
X134299472Y-102325143D01*
X134307162Y-102313635D01*
X134327041Y-102283883D01*
X134332965Y-102254101D01*
X134332964Y-101953992D01*
X134332963Y-101953989D01*
X134327041Y-101924210D01*
X134327041Y-101924209D01*
X134304475Y-101890436D01*
X134304474Y-101890435D01*
X134298971Y-101882199D01*
X134301844Y-101880278D01*
X134290803Y-101863734D01*
X134298259Y-101826355D01*
X134299472Y-101825143D01*
X134327041Y-101783883D01*
X134329352Y-101772263D01*
X134332965Y-101754101D01*
X134332964Y-101453992D01*
X134332963Y-101453989D01*
X134327041Y-101424210D01*
X134327041Y-101424209D01*
X134304475Y-101390436D01*
X134304473Y-101390435D01*
X134304473Y-101390434D01*
X134270702Y-101367869D01*
X134240921Y-101361946D01*
X133330808Y-101361946D01*
X133301029Y-101367869D01*
X133267253Y-101390437D01*
X133244688Y-101424208D01*
X133238765Y-101453989D01*
X133238765Y-101754101D01*
X133244688Y-101783881D01*
X133244688Y-101783882D01*
X133244689Y-101783883D01*
X133267255Y-101817656D01*
X133272759Y-101825893D01*
X133269885Y-101827813D01*
X133280923Y-101844341D01*
X133273479Y-101881723D01*
X133272264Y-101882937D01*
X133244688Y-101924208D01*
X133238765Y-101953989D01*
X133238765Y-102254098D01*
X133239850Y-102259550D01*
X133232412Y-102296933D01*
X133200719Y-102318107D01*
X133168398Y-102313635D01*
X133074916Y-102266004D01*
X133074796Y-102265985D01*
X132964002Y-102248436D01*
X132946981Y-102251132D01*
X132909919Y-102242233D01*
X132897192Y-102228704D01*
X132764379Y-102020226D01*
X132757762Y-101982691D01*
X132764972Y-101965804D01*
X132777291Y-101947369D01*
X132783215Y-101917587D01*
X132783214Y-101467200D01*
X132777291Y-101437417D01*
X132754725Y-101403644D01*
X132754723Y-101403643D01*
X132754723Y-101403642D01*
X132720952Y-101381077D01*
X132691171Y-101375154D01*
X132691170Y-101375154D01*
X132133015Y-101375154D01*
X132097801Y-101360568D01*
X132083215Y-101325354D01*
X132083215Y-101089209D01*
X132097801Y-101053995D01*
X132133015Y-101039409D01*
X132330315Y-101039409D01*
X132330315Y-100773471D01*
X132431915Y-100773471D01*
X132431915Y-101039409D01*
X132691121Y-101039409D01*
X132720756Y-101033515D01*
X132754363Y-101011060D01*
X132776820Y-100977451D01*
X132782715Y-100947816D01*
X132782715Y-100773471D01*
X132431915Y-100773471D01*
X132330315Y-100773471D01*
X132330315Y-100405932D01*
X132431915Y-100405932D01*
X132431915Y-100671871D01*
X132782714Y-100671871D01*
X132782714Y-100497525D01*
X132776820Y-100467890D01*
X132754365Y-100434283D01*
X132720756Y-100411826D01*
X132691121Y-100405932D01*
X132431915Y-100405932D01*
X132330315Y-100405932D01*
X132233742Y-100405932D01*
X132198528Y-100391346D01*
X132183942Y-100356132D01*
X132191171Y-100330291D01*
X134123766Y-97146954D01*
X134154507Y-97124425D01*
X134192178Y-97130231D01*
G37*
%TD.AperFunction*%
%TA.AperFunction,Conductor*%
G36*
X125819770Y-101114716D02*
G01*
X125834987Y-101145115D01*
X126133419Y-103711356D01*
X126682987Y-108437138D01*
X126672566Y-108473802D01*
X126661187Y-108484298D01*
X126619500Y-108512151D01*
X126596934Y-108545924D01*
X126591011Y-108575705D01*
X126591011Y-109177927D01*
X126586867Y-109197815D01*
X126141151Y-110221038D01*
X126135617Y-110233742D01*
X126125432Y-110257122D01*
X126125385Y-110257246D01*
X126124855Y-110258465D01*
X126124458Y-110259728D01*
X126124456Y-110259735D01*
X126113966Y-110293155D01*
X126089503Y-110322384D01*
X126056736Y-110327083D01*
X126047727Y-110325291D01*
X126032284Y-110325291D01*
X125997070Y-110310705D01*
X125982502Y-110276837D01*
X125897960Y-107150687D01*
X125735739Y-101152213D01*
X125749368Y-101116620D01*
X125784175Y-101101087D01*
X125819770Y-101114716D01*
G37*
%TD.AperFunction*%
%TA.AperFunction,Conductor*%
G36*
X126025094Y-99496989D02*
G01*
X126033924Y-99506024D01*
X126041717Y-99516344D01*
X126192661Y-99653949D01*
X126366317Y-99761471D01*
X126556774Y-99835255D01*
X126757545Y-99872785D01*
X126831199Y-99872785D01*
X126866413Y-99887371D01*
X126879100Y-99908965D01*
X127468687Y-101982691D01*
X128800033Y-106665377D01*
X128795633Y-106703237D01*
X128794607Y-106704993D01*
X128587315Y-107043690D01*
X128556492Y-107066110D01*
X128518842Y-107060169D01*
X128496422Y-107029346D01*
X128495039Y-107017701D01*
X128495039Y-106419667D01*
X128495039Y-106419666D01*
X128495039Y-106419664D01*
X128489116Y-106389885D01*
X128489116Y-106389884D01*
X128466550Y-106356111D01*
X128466548Y-106356110D01*
X128466548Y-106356109D01*
X128432777Y-106333544D01*
X128402996Y-106327621D01*
X128002606Y-106327621D01*
X127972826Y-106333544D01*
X127939050Y-106356112D01*
X127916485Y-106389883D01*
X127910562Y-106419664D01*
X127910562Y-107039775D01*
X127910661Y-107040268D01*
X127910562Y-107041318D01*
X127910563Y-107044679D01*
X127910250Y-107044679D01*
X127908022Y-107068557D01*
X127358446Y-108435440D01*
X127358414Y-108435487D01*
X127349826Y-108456862D01*
X127348374Y-108459496D01*
X127340863Y-108479173D01*
X127332987Y-108498762D01*
X127332270Y-108501653D01*
X127328258Y-108512150D01*
X127323991Y-108523312D01*
X127323977Y-108523405D01*
X127271814Y-108660058D01*
X127245629Y-108687755D01*
X127207528Y-108688824D01*
X127179831Y-108662639D01*
X127175488Y-108642298D01*
X127175488Y-108575705D01*
X127169565Y-108545926D01*
X127169565Y-108545925D01*
X127146999Y-108512152D01*
X127146997Y-108512151D01*
X127146997Y-108512150D01*
X127113226Y-108489585D01*
X127083445Y-108483662D01*
X127083444Y-108483662D01*
X127028925Y-108483662D01*
X126993711Y-108469076D01*
X126979458Y-108439615D01*
X126218671Y-101897545D01*
X125944716Y-99541787D01*
X125955137Y-99505124D01*
X125988430Y-99486568D01*
X126025094Y-99496989D01*
G37*
%TD.AperFunction*%
%TA.AperFunction,Conductor*%
G36*
X130689881Y-99270249D02*
G01*
X130714901Y-99299002D01*
X130717017Y-99308029D01*
X131136183Y-102349548D01*
X131126541Y-102386424D01*
X131093648Y-102405681D01*
X131056772Y-102396039D01*
X131039817Y-102372718D01*
X131030337Y-102345484D01*
X130365092Y-100434283D01*
X130151602Y-99820941D01*
X130153801Y-99782889D01*
X130172416Y-99762230D01*
X130259209Y-99708491D01*
X130306151Y-99679427D01*
X130344072Y-99644857D01*
X130457094Y-99541824D01*
X130580182Y-99378830D01*
X130623104Y-99292629D01*
X130651857Y-99267610D01*
X130689881Y-99270249D01*
G37*
%TD.AperFunction*%
%TA.AperFunction,Conductor*%
G36*
X134872692Y-97007705D02*
G01*
X135108338Y-97237677D01*
X135123352Y-97272709D01*
X135123356Y-97273316D01*
X135123356Y-97432642D01*
X135129279Y-97462422D01*
X135129279Y-97462423D01*
X135129280Y-97462424D01*
X135151846Y-97496197D01*
X135151847Y-97496198D01*
X135185618Y-97518763D01*
X135193012Y-97520233D01*
X135215401Y-97524687D01*
X135603288Y-97524686D01*
X135603289Y-97524686D01*
X135613215Y-97522711D01*
X135633071Y-97518763D01*
X135666844Y-97496197D01*
X135689410Y-97462424D01*
X135689878Y-97460070D01*
X135711049Y-97428379D01*
X135739439Y-97419988D01*
X136173462Y-97426262D01*
X136208460Y-97441356D01*
X136221584Y-97466343D01*
X136225956Y-97488325D01*
X136224572Y-97488600D01*
X136228222Y-97501143D01*
X136207594Y-98413741D01*
X136206243Y-98420549D01*
X136206243Y-98472988D01*
X136206230Y-98474115D01*
X136205757Y-98494986D01*
X136206243Y-98500951D01*
X136206243Y-99845651D01*
X136204505Y-99858690D01*
X136203951Y-99860733D01*
X136203719Y-99861589D01*
X136209426Y-99915982D01*
X136215751Y-99976281D01*
X136215753Y-99976286D01*
X136238485Y-100192950D01*
X136227653Y-100229493D01*
X136194153Y-100247674D01*
X136188957Y-100247946D01*
X135945809Y-100247946D01*
X135916029Y-100253869D01*
X135874018Y-100281940D01*
X135872097Y-100279066D01*
X135855522Y-100290113D01*
X135818148Y-100282634D01*
X135816938Y-100281422D01*
X135775702Y-100253869D01*
X135745921Y-100247946D01*
X135445809Y-100247946D01*
X135416029Y-100253869D01*
X135374018Y-100281940D01*
X135372097Y-100279066D01*
X135355522Y-100290113D01*
X135318148Y-100282634D01*
X135316938Y-100281422D01*
X135275702Y-100253869D01*
X135245921Y-100247946D01*
X134945809Y-100247946D01*
X134906312Y-100255802D01*
X134906145Y-100254964D01*
X134880498Y-100260064D01*
X134848808Y-100238886D01*
X134841062Y-100203234D01*
X134851408Y-100139568D01*
X134871453Y-100107150D01*
X134900563Y-100097756D01*
X134993457Y-100097756D01*
X135008346Y-100094794D01*
X135023238Y-100091833D01*
X135057011Y-100069267D01*
X135079577Y-100035494D01*
X135085501Y-100005712D01*
X135085500Y-99746457D01*
X135421246Y-99746457D01*
X135421246Y-100005663D01*
X135427139Y-100035298D01*
X135449594Y-100068905D01*
X135483203Y-100091362D01*
X135512838Y-100097256D01*
X135680934Y-100097256D01*
X135680934Y-99746457D01*
X135782534Y-99746457D01*
X135782534Y-100097256D01*
X135950629Y-100097256D01*
X135980264Y-100091362D01*
X136013871Y-100068907D01*
X136036328Y-100035298D01*
X136042223Y-100005663D01*
X136042223Y-99746457D01*
X135782534Y-99746457D01*
X135680934Y-99746457D01*
X135421246Y-99746457D01*
X135085500Y-99746457D01*
X135085500Y-99644857D01*
X135421245Y-99644857D01*
X135680934Y-99644857D01*
X135680934Y-99294057D01*
X135782534Y-99294057D01*
X135782534Y-99644857D01*
X136042222Y-99644857D01*
X136042222Y-99385650D01*
X136036328Y-99356015D01*
X136013873Y-99322408D01*
X135980264Y-99299951D01*
X135950629Y-99294057D01*
X135782534Y-99294057D01*
X135680934Y-99294057D01*
X135512838Y-99294057D01*
X135483203Y-99299951D01*
X135449596Y-99322406D01*
X135427139Y-99356015D01*
X135421245Y-99385650D01*
X135421245Y-99644857D01*
X135085500Y-99644857D01*
X135085500Y-99385603D01*
X135085500Y-99385602D01*
X135085500Y-99385600D01*
X135079577Y-99355821D01*
X135079577Y-99355820D01*
X135057011Y-99322047D01*
X135057009Y-99322046D01*
X135057009Y-99322045D01*
X135023238Y-99299480D01*
X134993457Y-99293557D01*
X134993456Y-99293557D01*
X134924672Y-99293557D01*
X134889458Y-99278971D01*
X134875149Y-99249000D01*
X134697389Y-97569823D01*
X134708187Y-97533271D01*
X134719246Y-97523174D01*
X134725847Y-97518763D01*
X134725849Y-97518763D01*
X134759622Y-97496197D01*
X134759624Y-97496195D01*
X134782188Y-97462424D01*
X134784816Y-97449211D01*
X134788112Y-97432642D01*
X134788111Y-97043345D01*
X134802697Y-97008132D01*
X134837911Y-96993546D01*
X134872692Y-97007705D01*
G37*
%TD.AperFunction*%
%TA.AperFunction,Conductor*%
G36*
X149284914Y-93215086D02*
G01*
X149299500Y-93250300D01*
X149299500Y-95045763D01*
X149307119Y-95061586D01*
X149310801Y-95072109D01*
X149314709Y-95089231D01*
X149325658Y-95102960D01*
X149331590Y-95112400D01*
X149339211Y-95128223D01*
X149352941Y-95139173D01*
X149360825Y-95147057D01*
X149370561Y-95159265D01*
X149371776Y-95160788D01*
X149387595Y-95168406D01*
X149397037Y-95174339D01*
X149410769Y-95185290D01*
X149427890Y-95189198D01*
X149438414Y-95192880D01*
X149454237Y-95200500D01*
X149477410Y-95200500D01*
X154249700Y-95200500D01*
X154284914Y-95215086D01*
X154299500Y-95250300D01*
X154299500Y-103627700D01*
X154284914Y-103662914D01*
X154249700Y-103677500D01*
X151135910Y-103677500D01*
X151132615Y-103678252D01*
X151121535Y-103679500D01*
X151109735Y-103679500D01*
X151099104Y-103684619D01*
X151088582Y-103688301D01*
X151069267Y-103692709D01*
X151053775Y-103705064D01*
X151044336Y-103710995D01*
X151027276Y-103719211D01*
X151015465Y-103734020D01*
X151007586Y-103741899D01*
X150997711Y-103749775D01*
X150992233Y-103761149D01*
X150986303Y-103770586D01*
X150970209Y-103790767D01*
X150964466Y-103815930D01*
X150960786Y-103826449D01*
X150958000Y-103832235D01*
X150958000Y-103838652D01*
X150956752Y-103849731D01*
X150955000Y-103857408D01*
X150955000Y-112152592D01*
X150970209Y-112219229D01*
X150970210Y-112219231D01*
X151027276Y-112290788D01*
X151067097Y-112309965D01*
X151073070Y-112313717D01*
X151079715Y-112316041D01*
X151109737Y-112330500D01*
X151109738Y-112330500D01*
X151208021Y-112330500D01*
X151216783Y-112328500D01*
X154249700Y-112328500D01*
X154284914Y-112343086D01*
X154299500Y-112378300D01*
X154299500Y-120749700D01*
X154284914Y-120784914D01*
X154249700Y-120799500D01*
X149454235Y-120799500D01*
X149438412Y-120807119D01*
X149427891Y-120810801D01*
X149410769Y-120814709D01*
X149397033Y-120825663D01*
X149387595Y-120831593D01*
X149371775Y-120839212D01*
X149360824Y-120852943D01*
X149352943Y-120860824D01*
X149339212Y-120871775D01*
X149331593Y-120887595D01*
X149325663Y-120897033D01*
X149314709Y-120910769D01*
X149310801Y-120927891D01*
X149307119Y-120938412D01*
X149299500Y-120954235D01*
X149299500Y-122749700D01*
X149284914Y-122784914D01*
X149249700Y-122799500D01*
X124750300Y-122799500D01*
X124715086Y-122784914D01*
X124700500Y-122749700D01*
X124700500Y-121971900D01*
X126071070Y-121971900D01*
X126085737Y-122064501D01*
X126085762Y-122064657D01*
X126142725Y-122176454D01*
X126231447Y-122265176D01*
X126343244Y-122322139D01*
X126467171Y-122341767D01*
X126591098Y-122322139D01*
X126702895Y-122265176D01*
X126791617Y-122176454D01*
X126848580Y-122064657D01*
X126863271Y-121971901D01*
X127341071Y-121971901D01*
X127355762Y-122064657D01*
X127412725Y-122176454D01*
X127501447Y-122265176D01*
X127613244Y-122322139D01*
X127737171Y-122341767D01*
X127861098Y-122322139D01*
X127972895Y-122265176D01*
X128061617Y-122176454D01*
X128118580Y-122064657D01*
X128133271Y-121971901D01*
X128611071Y-121971901D01*
X128625762Y-122064657D01*
X128682725Y-122176454D01*
X128771447Y-122265176D01*
X128883244Y-122322139D01*
X129007171Y-122341767D01*
X129131098Y-122322139D01*
X129242895Y-122265176D01*
X129331617Y-122176454D01*
X129388580Y-122064657D01*
X129403271Y-121971901D01*
X129403271Y-121263030D01*
X129881571Y-121263030D01*
X129881571Y-121971863D01*
X129896243Y-122064501D01*
X129953134Y-122176155D01*
X130041745Y-122264766D01*
X130153399Y-122321657D01*
X130226371Y-122333214D01*
X130226371Y-121263030D01*
X130327971Y-121263030D01*
X130327971Y-122333214D01*
X130400942Y-122321657D01*
X130512596Y-122264766D01*
X130601207Y-122176155D01*
X130658098Y-122064501D01*
X130672771Y-121971863D01*
X130672771Y-121263030D01*
X130327971Y-121263030D01*
X130226371Y-121263030D01*
X129881571Y-121263030D01*
X129403271Y-121263030D01*
X129403271Y-121161430D01*
X129881571Y-121161430D01*
X130226371Y-121161430D01*
X130226371Y-120091244D01*
X130327971Y-120091244D01*
X130327971Y-121161430D01*
X130672771Y-121161430D01*
X130672771Y-120452596D01*
X130658098Y-120359958D01*
X130601207Y-120248304D01*
X130512596Y-120159693D01*
X130400942Y-120102802D01*
X130327971Y-120091244D01*
X130226371Y-120091244D01*
X130153399Y-120102802D01*
X130041745Y-120159693D01*
X129953134Y-120248304D01*
X129896243Y-120359958D01*
X129881571Y-120452596D01*
X129881571Y-121161430D01*
X129403271Y-121161430D01*
X129403271Y-120452559D01*
X129388580Y-120359803D01*
X129331617Y-120248006D01*
X129242895Y-120159284D01*
X129131098Y-120102321D01*
X129131097Y-120102321D01*
X129007170Y-120082692D01*
X128883243Y-120102321D01*
X128771446Y-120159284D01*
X128682725Y-120248005D01*
X128625762Y-120359802D01*
X128625761Y-120359803D01*
X128625762Y-120359803D01*
X128611071Y-120452559D01*
X128611071Y-121971901D01*
X128133271Y-121971901D01*
X128133271Y-120452559D01*
X128118580Y-120359803D01*
X128061617Y-120248006D01*
X127972895Y-120159284D01*
X127861098Y-120102321D01*
X127861097Y-120102321D01*
X127737170Y-120082692D01*
X127613243Y-120102321D01*
X127501446Y-120159284D01*
X127412725Y-120248005D01*
X127355762Y-120359802D01*
X127355761Y-120359803D01*
X127355762Y-120359803D01*
X127341071Y-120452559D01*
X127341071Y-121971901D01*
X126863271Y-121971901D01*
X126863271Y-120452559D01*
X126848580Y-120359803D01*
X126791617Y-120248006D01*
X126702895Y-120159284D01*
X126591098Y-120102321D01*
X126467170Y-120082692D01*
X126343243Y-120102321D01*
X126231446Y-120159284D01*
X126142725Y-120248005D01*
X126085762Y-120359802D01*
X126071070Y-120452559D01*
X126071070Y-121971900D01*
X124700500Y-121971900D01*
X124700500Y-119453465D01*
X139416722Y-119453465D01*
X139426783Y-119639056D01*
X139476508Y-119818148D01*
X139521289Y-119902615D01*
X139563569Y-119982362D01*
X139683895Y-120124021D01*
X139831861Y-120236502D01*
X140000548Y-120314545D01*
X140182067Y-120354500D01*
X140182069Y-120354500D01*
X140319981Y-120354500D01*
X140321332Y-120354500D01*
X140459775Y-120339443D01*
X140635911Y-120280096D01*
X140795171Y-120184273D01*
X140930108Y-120056454D01*
X141034413Y-119902615D01*
X141081267Y-119785021D01*
X141482020Y-119785021D01*
X141482020Y-122346227D01*
X141487913Y-122375862D01*
X141510368Y-122409469D01*
X141543977Y-122431926D01*
X141573612Y-122437820D01*
X144309819Y-122437820D01*
X144309819Y-119785021D01*
X144411419Y-119785021D01*
X144411419Y-122437820D01*
X147147625Y-122437820D01*
X147177260Y-122431926D01*
X147210867Y-122409471D01*
X147233324Y-122375862D01*
X147239219Y-122346227D01*
X147239219Y-119785021D01*
X144411419Y-119785021D01*
X144309819Y-119785021D01*
X141482020Y-119785021D01*
X141081267Y-119785021D01*
X141103209Y-119729951D01*
X141110837Y-119683421D01*
X141482019Y-119683421D01*
X144309819Y-119683421D01*
X144309819Y-117030621D01*
X144411419Y-117030621D01*
X144411419Y-119683421D01*
X147239218Y-119683421D01*
X147239218Y-118490179D01*
X148641692Y-118490179D01*
X148651839Y-118729042D01*
X148702207Y-118962755D01*
X148791352Y-119184599D01*
X148916701Y-119388180D01*
X148916703Y-119388182D01*
X149074658Y-119567653D01*
X149163089Y-119639056D01*
X149260670Y-119717848D01*
X149260672Y-119717849D01*
X149469393Y-119834448D01*
X149694817Y-119914095D01*
X149930459Y-119954500D01*
X149930460Y-119954500D01*
X150108617Y-119954500D01*
X150109664Y-119954500D01*
X150288220Y-119939303D01*
X150519587Y-119879059D01*
X150737444Y-119780581D01*
X150935525Y-119646702D01*
X151108131Y-119481273D01*
X151250297Y-119289052D01*
X151357932Y-119075570D01*
X151427940Y-118846969D01*
X151458308Y-118609824D01*
X151448161Y-118370958D01*
X151397792Y-118137243D01*
X151308649Y-117915403D01*
X151183297Y-117711818D01*
X151025342Y-117532347D01*
X150927442Y-117453298D01*
X150839329Y-117382151D01*
X150630606Y-117265551D01*
X150405187Y-117185906D01*
X150405184Y-117185905D01*
X150405183Y-117185905D01*
X150169541Y-117145500D01*
X149990336Y-117145500D01*
X149989307Y-117145587D01*
X149989296Y-117145588D01*
X149811777Y-117160697D01*
X149580413Y-117220941D01*
X149362557Y-117319418D01*
X149164474Y-117453299D01*
X148991868Y-117618726D01*
X148849703Y-117810947D01*
X148742067Y-118024431D01*
X148672060Y-118253028D01*
X148641692Y-118490179D01*
X147239218Y-118490179D01*
X147239218Y-117122214D01*
X147233324Y-117092579D01*
X147210869Y-117058972D01*
X147177260Y-117036515D01*
X147147625Y-117030621D01*
X144411419Y-117030621D01*
X144309819Y-117030621D01*
X141573612Y-117030621D01*
X141543977Y-117036515D01*
X141510370Y-117058970D01*
X141487913Y-117092579D01*
X141482019Y-117122214D01*
X141482019Y-119683421D01*
X141110837Y-119683421D01*
X141133278Y-119546535D01*
X141123216Y-119360942D01*
X141073492Y-119181852D01*
X140986431Y-119017638D01*
X140866105Y-118875979D01*
X140718139Y-118763498D01*
X140718138Y-118763497D01*
X140549455Y-118685456D01*
X140549453Y-118685455D01*
X140549452Y-118685455D01*
X140367933Y-118645500D01*
X140228668Y-118645500D01*
X140227325Y-118645646D01*
X140227326Y-118645646D01*
X140090223Y-118660557D01*
X139914088Y-118719903D01*
X139754830Y-118815726D01*
X139619891Y-118943545D01*
X139515587Y-119097385D01*
X139446790Y-119270049D01*
X139416722Y-119453465D01*
X124700500Y-119453465D01*
X124700500Y-96409975D01*
X125371659Y-96409975D01*
X125371808Y-96493805D01*
X125371789Y-96493960D01*
X125377546Y-98763149D01*
X125377601Y-98785450D01*
X125377459Y-98786688D01*
X125377602Y-98791968D01*
X125377620Y-98793175D01*
X125377625Y-98795014D01*
X125377627Y-98795019D01*
X125377636Y-98798560D01*
X125377813Y-98799779D01*
X125688142Y-110274956D01*
X125674513Y-110310551D01*
X125648075Y-110325145D01*
X125617558Y-110331214D01*
X125583782Y-110353782D01*
X125561217Y-110387553D01*
X125555294Y-110417334D01*
X125555294Y-111037447D01*
X125561217Y-111067226D01*
X125583785Y-111101002D01*
X125617556Y-111123567D01*
X125638444Y-111127722D01*
X125670136Y-111148897D01*
X125678471Y-111178965D01*
X125503873Y-114797358D01*
X125503870Y-114797373D01*
X125502812Y-114819332D01*
X125502808Y-114819341D01*
X125501590Y-114844636D01*
X125501580Y-114844862D01*
X125501511Y-114846296D01*
X125501071Y-114849114D01*
X125501070Y-114854263D01*
X125501013Y-114856624D01*
X125500766Y-114861772D01*
X125501071Y-114864610D01*
X125501071Y-114866169D01*
X125501070Y-114866232D01*
X125501071Y-114871600D01*
X125501071Y-114871649D01*
X125501071Y-116419671D01*
X125501068Y-116419687D01*
X125501069Y-116442204D01*
X125501060Y-116442227D01*
X125501063Y-116513211D01*
X125516081Y-116612812D01*
X125516082Y-116612816D01*
X125545778Y-116709073D01*
X125559227Y-116736998D01*
X125559228Y-116736999D01*
X125595410Y-116812132D01*
X125624726Y-116873008D01*
X125625641Y-116874909D01*
X125637022Y-116898541D01*
X125637085Y-116898638D01*
X125647720Y-116920724D01*
X125704460Y-117003960D01*
X125755496Y-117058970D01*
X125772972Y-117077807D01*
X125791493Y-117092579D01*
X125792857Y-117093667D01*
X125792867Y-117093677D01*
X125797213Y-117097143D01*
X125797214Y-117097144D01*
X125812348Y-117109213D01*
X125838597Y-117130148D01*
X125838598Y-117130148D01*
X125845208Y-117135420D01*
X125845217Y-117135425D01*
X125857850Y-117145500D01*
X125882453Y-117165120D01*
X125882464Y-117165134D01*
X125901346Y-117180189D01*
X125901367Y-117180226D01*
X125956658Y-117224314D01*
X126043904Y-117274678D01*
X126100882Y-117297035D01*
X126137677Y-117311473D01*
X126171430Y-117319174D01*
X126342132Y-117358136D01*
X126348149Y-117359512D01*
X126358565Y-117361895D01*
X126442176Y-117370250D01*
X126526176Y-117368128D01*
X126565241Y-117362202D01*
X126567720Y-117361828D01*
X126608790Y-117355614D01*
X126608799Y-117355610D01*
X129011681Y-116992031D01*
X129011789Y-116992028D01*
X129017716Y-116991129D01*
X129017718Y-116991130D01*
X129045265Y-116986952D01*
X129052574Y-116986539D01*
X129053288Y-116986375D01*
X129053291Y-116986376D01*
X129059801Y-116984889D01*
X129063413Y-116984205D01*
X129070018Y-116983206D01*
X129070021Y-116983204D01*
X129070739Y-116983096D01*
X129077687Y-116980806D01*
X129164559Y-116960979D01*
X129164575Y-116960978D01*
X129170286Y-116959673D01*
X129170287Y-116959674D01*
X129193421Y-116954392D01*
X129221892Y-116947894D01*
X129221893Y-116947892D01*
X129224811Y-116947227D01*
X129225395Y-116946922D01*
X129265107Y-116931336D01*
X129300279Y-116911029D01*
X129301817Y-116910408D01*
X129323883Y-116892811D01*
X129346333Y-116874909D01*
X129346381Y-116874871D01*
X129346381Y-116874870D01*
X129352017Y-116870376D01*
X129352023Y-116870369D01*
X129422317Y-116814311D01*
X129425051Y-116812132D01*
X129425050Y-116812131D01*
X129442382Y-116798319D01*
X129442476Y-116798236D01*
X129443031Y-116797792D01*
X129445473Y-116795120D01*
X129445475Y-116795120D01*
X129447136Y-116793303D01*
X129458539Y-116780829D01*
X129481192Y-116756048D01*
X129481192Y-116756047D01*
X129487480Y-116749169D01*
X129487484Y-116749160D01*
X129796681Y-116410903D01*
X129831205Y-116394754D01*
X129867038Y-116407747D01*
X129882625Y-116436713D01*
X129895762Y-116519657D01*
X129952725Y-116631454D01*
X130041447Y-116720176D01*
X130153244Y-116777139D01*
X130255300Y-116793303D01*
X130277170Y-116796767D01*
X130277170Y-116796766D01*
X130277171Y-116796767D01*
X130401098Y-116777139D01*
X130512895Y-116720176D01*
X130601617Y-116631454D01*
X130658580Y-116519657D01*
X130673271Y-116426901D01*
X130673271Y-115224225D01*
X148220585Y-115224225D01*
X148220585Y-115392320D01*
X148226478Y-115421955D01*
X148248933Y-115455562D01*
X148282542Y-115478019D01*
X148312177Y-115483913D01*
X148571382Y-115483913D01*
X148571383Y-115483912D01*
X148571384Y-115224225D01*
X148672984Y-115224225D01*
X148672984Y-115483913D01*
X148932190Y-115483913D01*
X148961825Y-115478019D01*
X148995432Y-115455564D01*
X149017889Y-115421955D01*
X149023784Y-115392320D01*
X149023784Y-115224225D01*
X148672984Y-115224225D01*
X148571384Y-115224225D01*
X148220585Y-115224225D01*
X130673271Y-115224225D01*
X130673271Y-115122625D01*
X148220584Y-115122625D01*
X148571383Y-115122625D01*
X148571383Y-114862936D01*
X148672984Y-114862936D01*
X148672984Y-115122625D01*
X149023783Y-115122625D01*
X149023783Y-114954529D01*
X149017889Y-114924894D01*
X148995434Y-114891287D01*
X148961825Y-114868830D01*
X148932190Y-114862936D01*
X148672984Y-114862936D01*
X148571383Y-114862936D01*
X148312177Y-114862936D01*
X148282542Y-114868830D01*
X148248935Y-114891285D01*
X148226478Y-114924894D01*
X148220584Y-114954529D01*
X148220584Y-115122625D01*
X130673271Y-115122625D01*
X130673271Y-114907559D01*
X130658580Y-114814803D01*
X130629056Y-114756860D01*
X130626066Y-114718863D01*
X130650820Y-114689880D01*
X130679027Y-114684768D01*
X132996686Y-114947105D01*
X133009071Y-114950151D01*
X133012074Y-114951315D01*
X133012076Y-114951315D01*
X133066740Y-114951315D01*
X133118333Y-114951320D01*
X133118335Y-114951319D01*
X133126938Y-114951320D01*
X133126974Y-114951315D01*
X134397379Y-114951315D01*
X134397443Y-114951311D01*
X134398827Y-114951312D01*
X134462615Y-114944277D01*
X134479552Y-114940492D01*
X134487886Y-114938631D01*
X134500732Y-114937472D01*
X134503886Y-114937598D01*
X134517402Y-114932970D01*
X134517413Y-114932968D01*
X134525244Y-114930286D01*
X134525245Y-114930286D01*
X134531070Y-114928291D01*
X134543336Y-114924092D01*
X134555603Y-114919893D01*
X134570252Y-114914878D01*
X134604416Y-114903187D01*
X134604417Y-114903185D01*
X134614146Y-114899856D01*
X134614169Y-114899841D01*
X138870189Y-113442794D01*
X138870229Y-113442789D01*
X138879324Y-113439673D01*
X138879326Y-113439674D01*
X138909005Y-113429509D01*
X138909023Y-113429510D01*
X138909022Y-113429506D01*
X138928138Y-113422964D01*
X138928139Y-113422965D01*
X138954665Y-113413889D01*
X139005725Y-113390715D01*
X139017485Y-113383947D01*
X139030077Y-113378840D01*
X139032569Y-113378208D01*
X139054178Y-113362841D01*
X139054245Y-113362795D01*
X139054327Y-113362750D01*
X139076568Y-113346921D01*
X141719035Y-111467947D01*
X141756183Y-111459429D01*
X141788477Y-111479675D01*
X141797682Y-111509503D01*
X141792473Y-111777290D01*
X141777204Y-111812213D01*
X141742682Y-111826121D01*
X141518563Y-111826121D01*
X141488783Y-111832044D01*
X141455007Y-111854612D01*
X141432442Y-111888383D01*
X141426519Y-111918164D01*
X141426519Y-114156277D01*
X141432442Y-114186056D01*
X141455010Y-114219832D01*
X141488781Y-114242397D01*
X141493387Y-114243313D01*
X141518564Y-114248321D01*
X142602673Y-114248320D01*
X142602675Y-114248320D01*
X142617564Y-114245358D01*
X142632456Y-114242397D01*
X142666229Y-114219831D01*
X142688795Y-114186058D01*
X142694719Y-114156277D01*
X146025519Y-114156277D01*
X146031442Y-114186056D01*
X146054010Y-114219832D01*
X146087781Y-114242397D01*
X146092387Y-114243313D01*
X146117564Y-114248321D01*
X147201673Y-114248320D01*
X147201675Y-114248320D01*
X147216564Y-114245358D01*
X147231456Y-114242397D01*
X147265229Y-114219831D01*
X147287795Y-114186058D01*
X147293719Y-114156276D01*
X147293718Y-112698484D01*
X147506048Y-112698484D01*
X147523615Y-112809396D01*
X147574595Y-112909451D01*
X147654000Y-112988856D01*
X147754055Y-113039836D01*
X147855580Y-113055916D01*
X147888079Y-113075831D01*
X147892352Y-113082870D01*
X148280189Y-113860227D01*
X148282858Y-113898249D01*
X148263295Y-113923867D01*
X148248573Y-113933704D01*
X148226007Y-113967476D01*
X148220084Y-113997257D01*
X148220084Y-114435147D01*
X148226007Y-114464927D01*
X148248575Y-114498703D01*
X148282346Y-114521268D01*
X148289740Y-114522738D01*
X148312129Y-114527192D01*
X148932238Y-114527191D01*
X148932240Y-114527191D01*
X148947129Y-114524229D01*
X148962021Y-114521268D01*
X148995794Y-114498702D01*
X149018360Y-114464929D01*
X149024284Y-114435147D01*
X149024283Y-113997260D01*
X149024282Y-113997257D01*
X149018360Y-113967478D01*
X149018360Y-113967477D01*
X148995794Y-113933704D01*
X148995792Y-113933703D01*
X148995792Y-113933702D01*
X148962021Y-113911137D01*
X148932240Y-113905214D01*
X148932239Y-113905214D01*
X148662226Y-113905214D01*
X148627012Y-113890628D01*
X148617664Y-113877647D01*
X148558050Y-113758161D01*
X148196007Y-113032504D01*
X148156077Y-112952470D01*
X148153408Y-112914448D01*
X148156263Y-112907637D01*
X148206319Y-112809396D01*
X148223886Y-112698484D01*
X148206319Y-112587572D01*
X148155339Y-112487517D01*
X148075934Y-112408112D01*
X147975879Y-112357132D01*
X147864967Y-112339565D01*
X147754054Y-112357132D01*
X147654000Y-112408112D01*
X147574595Y-112487517D01*
X147523615Y-112587571D01*
X147521381Y-112601679D01*
X147506048Y-112698484D01*
X147293718Y-112698484D01*
X147293718Y-111918167D01*
X147293718Y-111918166D01*
X147293718Y-111918164D01*
X147287795Y-111888385D01*
X147287795Y-111888384D01*
X147265229Y-111854611D01*
X147265227Y-111854610D01*
X147265227Y-111854609D01*
X147231456Y-111832044D01*
X147201675Y-111826121D01*
X147201674Y-111826121D01*
X147000284Y-111826121D01*
X146965070Y-111811535D01*
X146950484Y-111776390D01*
X146950189Y-111562553D01*
X146949707Y-111212431D01*
X146958099Y-111184698D01*
X146961660Y-111179371D01*
X146967584Y-111149589D01*
X146967583Y-110980052D01*
X146982169Y-110944839D01*
X146984768Y-110942419D01*
X148528057Y-109606117D01*
X148552865Y-109594579D01*
X148609971Y-109585535D01*
X148710026Y-109534555D01*
X148789431Y-109455150D01*
X148840411Y-109355095D01*
X148857978Y-109244183D01*
X148840411Y-109133271D01*
X148789431Y-109033216D01*
X148710026Y-108953811D01*
X148609971Y-108902831D01*
X148499059Y-108885264D01*
X148388146Y-108902831D01*
X148288092Y-108953811D01*
X148208687Y-109033216D01*
X148157705Y-109133273D01*
X148156982Y-109137841D01*
X148140395Y-109167696D01*
X146688014Y-110425282D01*
X146655415Y-110437434D01*
X146437650Y-110437434D01*
X146407870Y-110443357D01*
X146374094Y-110465925D01*
X146351529Y-110499696D01*
X146345606Y-110529477D01*
X146345606Y-111149590D01*
X146351529Y-111179371D01*
X146356116Y-111186235D01*
X146364509Y-111213833D01*
X146365283Y-111776252D01*
X146350745Y-111811486D01*
X146315552Y-111826121D01*
X146117563Y-111826121D01*
X146087783Y-111832044D01*
X146054007Y-111854612D01*
X146031442Y-111888383D01*
X146025519Y-111918164D01*
X146025519Y-114156277D01*
X142694719Y-114156277D01*
X142694719Y-114156276D01*
X142694718Y-111918167D01*
X142694718Y-111918166D01*
X142694718Y-111918164D01*
X142688795Y-111888385D01*
X142688795Y-111888384D01*
X142666229Y-111854611D01*
X142666227Y-111854610D01*
X142666227Y-111854609D01*
X142632456Y-111832044D01*
X142602675Y-111826121D01*
X142602674Y-111826121D01*
X142427613Y-111826121D01*
X142392399Y-111811535D01*
X142377813Y-111776321D01*
X142377822Y-111775352D01*
X142384916Y-111410656D01*
X142388638Y-111219304D01*
X142397020Y-111192610D01*
X142408515Y-111175409D01*
X142414439Y-111145627D01*
X142414438Y-110967445D01*
X142429024Y-110932232D01*
X142430297Y-110931004D01*
X142433313Y-110928195D01*
X142478217Y-110886372D01*
X142750184Y-110886372D01*
X142750184Y-111145578D01*
X142756077Y-111175213D01*
X142778532Y-111208820D01*
X142812141Y-111231277D01*
X142841776Y-111237171D01*
X143009872Y-111237171D01*
X143009872Y-110886372D01*
X143111472Y-110886372D01*
X143111472Y-111237171D01*
X143279567Y-111237171D01*
X143309202Y-111231277D01*
X143342809Y-111208822D01*
X143365266Y-111175213D01*
X143371161Y-111145578D01*
X143371161Y-110890334D01*
X145388885Y-110890334D01*
X145388885Y-111149540D01*
X145394778Y-111179175D01*
X145417233Y-111212782D01*
X145450842Y-111235239D01*
X145480477Y-111241133D01*
X145648572Y-111241133D01*
X145648573Y-111241132D01*
X145648573Y-110890334D01*
X145750173Y-110890334D01*
X145750173Y-111241133D01*
X145918268Y-111241133D01*
X145947903Y-111235239D01*
X145981510Y-111212784D01*
X146003967Y-111179175D01*
X146009862Y-111149540D01*
X146009862Y-110890334D01*
X145750173Y-110890334D01*
X145648573Y-110890334D01*
X145388885Y-110890334D01*
X143371161Y-110890334D01*
X143371161Y-110886372D01*
X143111472Y-110886372D01*
X143009872Y-110886372D01*
X142750184Y-110886372D01*
X142478217Y-110886372D01*
X142583048Y-110788734D01*
X145388884Y-110788734D01*
X145648573Y-110788734D01*
X145648573Y-110437934D01*
X145750173Y-110437934D01*
X145750173Y-110788734D01*
X146009861Y-110788734D01*
X146009861Y-110529527D01*
X146003967Y-110499892D01*
X145981512Y-110466285D01*
X145947903Y-110443828D01*
X145918268Y-110437934D01*
X145750173Y-110437934D01*
X145648573Y-110437934D01*
X145480477Y-110437934D01*
X145450842Y-110443828D01*
X145417235Y-110466283D01*
X145394778Y-110499892D01*
X145388884Y-110529527D01*
X145388884Y-110788734D01*
X142583048Y-110788734D01*
X142666444Y-110711060D01*
X142702151Y-110697735D01*
X142736825Y-110713563D01*
X142750183Y-110747504D01*
X142750183Y-110784772D01*
X143371160Y-110784772D01*
X143371160Y-110525565D01*
X143365266Y-110495930D01*
X143342811Y-110462323D01*
X143309202Y-110439866D01*
X143279567Y-110433972D01*
X143225029Y-110433972D01*
X143189815Y-110419386D01*
X143175229Y-110384172D01*
X143189815Y-110348958D01*
X143200517Y-110340823D01*
X148738929Y-107209624D01*
X148738958Y-107209616D01*
X148757153Y-107199326D01*
X148775233Y-107189101D01*
X148775348Y-107189087D01*
X148793371Y-107178893D01*
X148793372Y-107178895D01*
X148861757Y-107140219D01*
X148981975Y-107039043D01*
X149081537Y-106917484D01*
X149157046Y-106779688D01*
X149205925Y-106630357D01*
X149211287Y-106589807D01*
X149213767Y-106571041D01*
X149213769Y-106571039D01*
X149216223Y-106552471D01*
X149216224Y-106552471D01*
X149218174Y-106537714D01*
X149321845Y-105753603D01*
X149330344Y-105689728D01*
X149330299Y-105688953D01*
X149321142Y-105529520D01*
X149321142Y-105529518D01*
X149282024Y-105373885D01*
X149214383Y-105228363D01*
X149120623Y-105098128D01*
X149120620Y-105098125D01*
X149004078Y-104987810D01*
X148868900Y-104901341D01*
X148868897Y-104901340D01*
X148868896Y-104901339D01*
X148719882Y-104841784D01*
X148719877Y-104841782D01*
X148642596Y-104826874D01*
X141995541Y-103539097D01*
X141963744Y-103518079D01*
X141956122Y-103480734D01*
X141956170Y-103480491D01*
X141963352Y-103444384D01*
X141963352Y-103185178D01*
X141342375Y-103185178D01*
X141342374Y-103222443D01*
X141327787Y-103257657D01*
X141292573Y-103272242D01*
X141258633Y-103258884D01*
X141070412Y-103083578D01*
X141342374Y-103083578D01*
X141602063Y-103083578D01*
X141602063Y-102732778D01*
X141703663Y-102732778D01*
X141703663Y-103083578D01*
X141963351Y-103083578D01*
X141963351Y-102824371D01*
X141957457Y-102794736D01*
X141935002Y-102761129D01*
X141901393Y-102738672D01*
X141871758Y-102732778D01*
X141703663Y-102732778D01*
X141602063Y-102732778D01*
X141433967Y-102732778D01*
X141404332Y-102738672D01*
X141370725Y-102761127D01*
X141348268Y-102794736D01*
X141342374Y-102824371D01*
X141342374Y-103083578D01*
X141070412Y-103083578D01*
X141022488Y-103038942D01*
X141006660Y-103004268D01*
X141006629Y-103002500D01*
X141006629Y-102937720D01*
X141006816Y-102933407D01*
X141070365Y-102202432D01*
X147704509Y-102202432D01*
X147710432Y-102232212D01*
X147710432Y-102232213D01*
X147710433Y-102232214D01*
X147728698Y-102259550D01*
X147733000Y-102265988D01*
X147766771Y-102288553D01*
X147774165Y-102290023D01*
X147796554Y-102294477D01*
X147901352Y-102294476D01*
X147936566Y-102309062D01*
X147951152Y-102344276D01*
X147951137Y-102345484D01*
X147936293Y-102957329D01*
X147920857Y-102992179D01*
X147909117Y-103000493D01*
X147863817Y-103023574D01*
X147784412Y-103102980D01*
X147733432Y-103203034D01*
X147722471Y-103272242D01*
X147715865Y-103313947D01*
X147733432Y-103424859D01*
X147784412Y-103524914D01*
X147863817Y-103604319D01*
X147963872Y-103655299D01*
X148074784Y-103672866D01*
X148185696Y-103655299D01*
X148285751Y-103604319D01*
X148365156Y-103524914D01*
X148416136Y-103424859D01*
X148433703Y-103313947D01*
X148416136Y-103203035D01*
X148365156Y-103102980D01*
X148285751Y-103023575D01*
X148257600Y-103009231D01*
X148232847Y-102980249D01*
X148230425Y-102963655D01*
X148245482Y-102343067D01*
X148260918Y-102308218D01*
X148295267Y-102294476D01*
X148416665Y-102294476D01*
X148431554Y-102291514D01*
X148446446Y-102288553D01*
X148480219Y-102265987D01*
X148502785Y-102232214D01*
X148508709Y-102202432D01*
X148508708Y-101802045D01*
X148508707Y-101802042D01*
X148502785Y-101772263D01*
X148502785Y-101772262D01*
X148480219Y-101738489D01*
X148480217Y-101738488D01*
X148480217Y-101738487D01*
X148446446Y-101715922D01*
X148416665Y-101709999D01*
X147796552Y-101709999D01*
X147766773Y-101715922D01*
X147732997Y-101738490D01*
X147710432Y-101772261D01*
X147704509Y-101802042D01*
X147704509Y-102202432D01*
X141070365Y-102202432D01*
X141123100Y-101595840D01*
X141128288Y-101536830D01*
X141114583Y-101386520D01*
X141074523Y-101241000D01*
X141022992Y-101133316D01*
X147705010Y-101133316D01*
X147705010Y-101282661D01*
X147710903Y-101312296D01*
X147733358Y-101345903D01*
X147766967Y-101368360D01*
X147796602Y-101374254D01*
X148055809Y-101374254D01*
X148055809Y-101133316D01*
X148157409Y-101133316D01*
X148157409Y-101374254D01*
X148416615Y-101374254D01*
X148446250Y-101368360D01*
X148479857Y-101345905D01*
X148502314Y-101312296D01*
X148508209Y-101282661D01*
X148508209Y-101133316D01*
X148157409Y-101133316D01*
X148055809Y-101133316D01*
X147705010Y-101133316D01*
X141022992Y-101133316D01*
X141009371Y-101104853D01*
X140956712Y-101031716D01*
X147705009Y-101031716D01*
X148055809Y-101031716D01*
X148055809Y-100790777D01*
X148157409Y-100790777D01*
X148157409Y-101031716D01*
X148508208Y-101031716D01*
X148508208Y-100882370D01*
X148502314Y-100852735D01*
X148479859Y-100819128D01*
X148446250Y-100796671D01*
X148416615Y-100790777D01*
X148157409Y-100790777D01*
X148055809Y-100790777D01*
X147796602Y-100790777D01*
X147766967Y-100796671D01*
X147733360Y-100819126D01*
X147710903Y-100852735D01*
X147705009Y-100882370D01*
X147705009Y-101031716D01*
X140956712Y-101031716D01*
X140921180Y-100982366D01*
X140867714Y-100930714D01*
X140867379Y-100930390D01*
X140830427Y-100894625D01*
X140830425Y-100894624D01*
X140829832Y-100894050D01*
X140829831Y-100894049D01*
X138301712Y-98447207D01*
X139116733Y-98447207D01*
X139121472Y-98546700D01*
X139126769Y-98657904D01*
X139170777Y-98839303D01*
X139176499Y-98862890D01*
X139264124Y-99054762D01*
X139386478Y-99226584D01*
X139539138Y-99372145D01*
X139716587Y-99486184D01*
X139912411Y-99564580D01*
X140119533Y-99604500D01*
X140276432Y-99604500D01*
X140277613Y-99604500D01*
X140434979Y-99589473D01*
X140637368Y-99530047D01*
X140824854Y-99433391D01*
X140965980Y-99322408D01*
X140990658Y-99303001D01*
X140994123Y-99299002D01*
X141128792Y-99143587D01*
X141234259Y-98960913D01*
X141303248Y-98761580D01*
X141333267Y-98552793D01*
X141323231Y-98342098D01*
X141273501Y-98137110D01*
X141185876Y-97945238D01*
X141063522Y-97773416D01*
X140910862Y-97627855D01*
X140733413Y-97513816D01*
X140556523Y-97443000D01*
X140537587Y-97435419D01*
X140330467Y-97395500D01*
X140172387Y-97395500D01*
X140171222Y-97395611D01*
X140171206Y-97395612D01*
X140015023Y-97410526D01*
X139812631Y-97469953D01*
X139625143Y-97566610D01*
X139459341Y-97696998D01*
X139321208Y-97856412D01*
X139215740Y-98039086D01*
X139146752Y-98238420D01*
X139119390Y-98428728D01*
X139116733Y-98447207D01*
X138301712Y-98447207D01*
X137437083Y-97610375D01*
X137421925Y-97575405D01*
X137435511Y-97541028D01*
X137435511Y-97189573D01*
X137537111Y-97189573D01*
X137537111Y-97540372D01*
X137705206Y-97540372D01*
X137734841Y-97534478D01*
X137768448Y-97512023D01*
X137790905Y-97478414D01*
X137796800Y-97448779D01*
X137796800Y-97390179D01*
X148641692Y-97390179D01*
X148651839Y-97629042D01*
X148702207Y-97862755D01*
X148728558Y-97928332D01*
X148777650Y-98050502D01*
X148791352Y-98084599D01*
X148916701Y-98288180D01*
X148931146Y-98304592D01*
X149074658Y-98467653D01*
X149115897Y-98500951D01*
X149260670Y-98617848D01*
X149297154Y-98638229D01*
X149469393Y-98734448D01*
X149694817Y-98814095D01*
X149930459Y-98854500D01*
X149930460Y-98854500D01*
X150108617Y-98854500D01*
X150109664Y-98854500D01*
X150288220Y-98839303D01*
X150519587Y-98779059D01*
X150737444Y-98680581D01*
X150935525Y-98546702D01*
X151108131Y-98381273D01*
X151250297Y-98189052D01*
X151357932Y-97975570D01*
X151427940Y-97746969D01*
X151458308Y-97509824D01*
X151448161Y-97270958D01*
X151397792Y-97037243D01*
X151308649Y-96815403D01*
X151207936Y-96651834D01*
X151183298Y-96611819D01*
X151130607Y-96551951D01*
X151025342Y-96432347D01*
X150927442Y-96353298D01*
X150839329Y-96282151D01*
X150630606Y-96165551D01*
X150405187Y-96085906D01*
X150405184Y-96085905D01*
X150405183Y-96085905D01*
X150169541Y-96045500D01*
X149990336Y-96045500D01*
X149989307Y-96045587D01*
X149989296Y-96045588D01*
X149811777Y-96060697D01*
X149580413Y-96120941D01*
X149362557Y-96219418D01*
X149164474Y-96353299D01*
X148991868Y-96518726D01*
X148849703Y-96710947D01*
X148742067Y-96924431D01*
X148672060Y-97153028D01*
X148659344Y-97252333D01*
X148643223Y-97378225D01*
X148641692Y-97390179D01*
X137796800Y-97390179D01*
X137796800Y-97189573D01*
X137537111Y-97189573D01*
X137435511Y-97189573D01*
X137175823Y-97189573D01*
X137175822Y-97240011D01*
X137161235Y-97275224D01*
X137126021Y-97289810D01*
X137091388Y-97275794D01*
X137090799Y-97275224D01*
X136940990Y-97130231D01*
X136897329Y-97087973D01*
X137175822Y-97087973D01*
X137435511Y-97087973D01*
X137435511Y-96737173D01*
X137537111Y-96737173D01*
X137537111Y-97087973D01*
X137796799Y-97087973D01*
X137796799Y-96828766D01*
X137790905Y-96799131D01*
X137768450Y-96765524D01*
X137734841Y-96743067D01*
X137705206Y-96737173D01*
X137537111Y-96737173D01*
X137435511Y-96737173D01*
X137267415Y-96737173D01*
X137237780Y-96743067D01*
X137204173Y-96765522D01*
X137181716Y-96799131D01*
X137175822Y-96828766D01*
X137175822Y-97087973D01*
X136897329Y-97087973D01*
X136855243Y-97047240D01*
X136840084Y-97012269D01*
X136840077Y-97011456D01*
X136840077Y-96828716D01*
X136834154Y-96798937D01*
X136834154Y-96798936D01*
X136811588Y-96765163D01*
X136811586Y-96765162D01*
X136811586Y-96765161D01*
X136777815Y-96742596D01*
X136748034Y-96736673D01*
X136310144Y-96736673D01*
X136280364Y-96742596D01*
X136246588Y-96765164D01*
X136224023Y-96798935D01*
X136223626Y-96800933D01*
X136202448Y-96832624D01*
X136174063Y-96841010D01*
X135739900Y-96834734D01*
X135704901Y-96819640D01*
X135691777Y-96794654D01*
X135689410Y-96782750D01*
X135666844Y-96748977D01*
X135666842Y-96748976D01*
X135666842Y-96748975D01*
X135633071Y-96726410D01*
X135603290Y-96720487D01*
X135603289Y-96720487D01*
X135436532Y-96720487D01*
X135401750Y-96706328D01*
X135121391Y-96432722D01*
X135086301Y-96398476D01*
X135086290Y-96398467D01*
X135070842Y-96383391D01*
X135070421Y-96383050D01*
X135052756Y-96365861D01*
X135052755Y-96365860D01*
X134958191Y-96303915D01*
X134853486Y-96261289D01*
X134743535Y-96239764D01*
X134742574Y-96239487D01*
X134740707Y-96239487D01*
X134686022Y-96239487D01*
X134634429Y-96239485D01*
X134634428Y-96239485D01*
X134624844Y-96239485D01*
X134624834Y-96239487D01*
X134287014Y-96239487D01*
X134286263Y-96239555D01*
X134258289Y-96239586D01*
X134140841Y-96263996D01*
X134030817Y-96311810D01*
X133932838Y-96381022D01*
X133850748Y-96469005D01*
X133819812Y-96519963D01*
X133788945Y-96570792D01*
X133788930Y-96570830D01*
X131612560Y-100155708D01*
X131612548Y-100155723D01*
X131593238Y-100187535D01*
X131593161Y-100187591D01*
X131576758Y-100214682D01*
X131566386Y-100231767D01*
X131566271Y-100232003D01*
X131555121Y-100250422D01*
X131517294Y-100349810D01*
X131499514Y-100446544D01*
X131498015Y-100451849D01*
X131498015Y-101847423D01*
X131498008Y-101847464D01*
X131498009Y-101857092D01*
X131496586Y-101865356D01*
X131497995Y-101915091D01*
X131498015Y-101916501D01*
X131498015Y-101934997D01*
X131498753Y-101941900D01*
X131499240Y-101959043D01*
X131504321Y-102138494D01*
X131490737Y-102174107D01*
X131455951Y-102189684D01*
X131420338Y-102176100D01*
X131405208Y-102146706D01*
X130924756Y-98660479D01*
X130924757Y-98660474D01*
X130921952Y-98640127D01*
X130921957Y-98640106D01*
X130910724Y-98558624D01*
X130907820Y-98537556D01*
X130864317Y-98377406D01*
X130800688Y-98224135D01*
X130799896Y-98222757D01*
X130799891Y-98222747D01*
X130772243Y-98174652D01*
X130772243Y-98174651D01*
X130642343Y-97948687D01*
X130334335Y-97412900D01*
X130329431Y-97375102D01*
X130343958Y-97351281D01*
X130458503Y-97246860D01*
X130581591Y-97083866D01*
X130672633Y-96901029D01*
X130728528Y-96704577D01*
X130747374Y-96501199D01*
X130728528Y-96297821D01*
X130672633Y-96101369D01*
X130581591Y-95918532D01*
X130581590Y-95918531D01*
X130581590Y-95918530D01*
X130458504Y-95755539D01*
X130307560Y-95617934D01*
X130133904Y-95510412D01*
X129943448Y-95436629D01*
X129742677Y-95399099D01*
X129538427Y-95399099D01*
X129337655Y-95436629D01*
X129147199Y-95510412D01*
X128973543Y-95617934D01*
X128822601Y-95755538D01*
X128774446Y-95819303D01*
X128741584Y-95838614D01*
X128711077Y-95833129D01*
X127629710Y-95250300D01*
X127540086Y-95201995D01*
X127540085Y-95201994D01*
X127534540Y-95199006D01*
X127534188Y-95198872D01*
X127496376Y-95178528D01*
X127460571Y-95159264D01*
X127254337Y-95084755D01*
X127039382Y-95041406D01*
X126820397Y-95030164D01*
X126820395Y-95030164D01*
X126820393Y-95030164D01*
X126602131Y-95051269D01*
X126389350Y-95104265D01*
X126331362Y-95128223D01*
X126186682Y-95187997D01*
X125998547Y-95300641D01*
X125829040Y-95439741D01*
X125681841Y-95602281D01*
X125560171Y-95784703D01*
X125466665Y-95983054D01*
X125403370Y-96192992D01*
X125382579Y-96335256D01*
X125372346Y-96405277D01*
X125371659Y-96409975D01*
X124700500Y-96409975D01*
X124700500Y-93250300D01*
X124715086Y-93215086D01*
X124750300Y-93200500D01*
X149249700Y-93200500D01*
X149284914Y-93215086D01*
G37*
%TD.AperFunction*%
%TD*%
M02*
