%TF.GenerationSoftware,KiCad,Pcbnew,7.0.5*%
%TF.CreationDate,2023-06-23T15:18:34+05:00*%
%TF.ProjectId,jitx-design,6a697478-2d64-4657-9369-676e2e6b6963,rev?*%
%TF.SameCoordinates,Original*%
%TF.FileFunction,Soldermask,Bot*%
%TF.FilePolarity,Negative*%
%FSLAX46Y46*%
G04 Gerber Fmt 4.6, Leading zero omitted, Abs format (unit mm)*
G04 Created by KiCad (PCBNEW 7.0.5) date 2023-06-23 15:18:34*
%MOMM*%
%LPD*%
G01*
G04 APERTURE LIST*
G04 Aperture macros list*
%AMRoundRect*
0 Rectangle with rounded corners*
0 $1 Rounding radius*
0 $2 $3 $4 $5 $6 $7 $8 $9 X,Y pos of 4 corners*
0 Add a 4 corners polygon primitive as box body*
4,1,4,$2,$3,$4,$5,$6,$7,$8,$9,$2,$3,0*
0 Add four circle primitives for the rounded corners*
1,1,$1+$1,$2,$3*
1,1,$1+$1,$4,$5*
1,1,$1+$1,$6,$7*
1,1,$1+$1,$8,$9*
0 Add four rect primitives between the rounded corners*
20,1,$1+$1,$2,$3,$4,$5,0*
20,1,$1+$1,$4,$5,$6,$7,0*
20,1,$1+$1,$6,$7,$8,$9,0*
20,1,$1+$1,$8,$9,$2,$3,0*%
G04 Aperture macros list end*
%ADD10C,3.700000*%
%ADD11C,2.402000*%
%ADD12C,1.640000*%
%ADD13RoundRect,0.050000X0.500000X-0.150000X0.500000X0.150000X-0.500000X0.150000X-0.500000X-0.150000X0*%
%ADD14RoundRect,0.050000X0.600000X-0.250000X0.600000X0.250000X-0.600000X0.250000X-0.600000X-0.250000X0*%
%ADD15RoundRect,0.050000X1.050000X-0.650000X1.050000X0.650000X-1.050000X0.650000X-1.050000X-0.650000X0*%
%ADD16RoundRect,0.051000X-1.400000X0.750000X-1.400000X-0.750000X1.400000X-0.750000X1.400000X0.750000X0*%
%ADD17RoundRect,0.051000X-1.000000X0.350000X-1.000000X-0.350000X1.000000X-0.350000X1.000000X0.350000X0*%
%ADD18RoundRect,0.051000X-1.000000X0.500000X-1.000000X-0.500000X1.000000X-0.500000X1.000000X0.500000X0*%
%ADD19C,1.802000*%
%ADD20C,1.302000*%
G04 APERTURE END LIST*
D10*
%TO.C,U1*%
X150050000Y-97450000D03*
D11*
X150050000Y-97450000D03*
%TD*%
D12*
%TO.C,J2*%
X127956411Y-96246728D03*
%TD*%
D13*
%TO.C,USB1*%
X149437500Y-110750000D03*
X149437500Y-110250000D03*
X149437500Y-109750000D03*
X149437500Y-109250000D03*
X149437500Y-107250000D03*
X149437500Y-107750000D03*
X149437500Y-108250000D03*
X149437500Y-108750000D03*
X149437500Y-106750000D03*
X149437500Y-106250000D03*
X149437500Y-105750000D03*
X149437500Y-105250000D03*
D14*
X150336500Y-104425000D03*
X150336500Y-111575000D03*
D15*
X149887500Y-103300000D03*
X149887500Y-112700000D03*
%TD*%
D16*
%TO.C,Card1*%
X141225000Y-96550000D03*
X126725000Y-94350000D03*
X126825000Y-121650000D03*
X141325000Y-121650000D03*
D17*
X143275000Y-120260000D03*
X143275000Y-119060000D03*
D18*
X143275000Y-98630000D03*
X143275000Y-117760000D03*
X143275000Y-116060000D03*
X143275000Y-113630000D03*
X143275000Y-111130000D03*
X143275000Y-108630000D03*
X143275000Y-106130000D03*
X143275000Y-103630000D03*
X143275000Y-101130000D03*
D19*
X140225000Y-98500000D03*
D20*
X140275000Y-119500000D03*
%TD*%
D12*
%TO.C,J3*%
X131056577Y-98778237D03*
%TD*%
D10*
%TO.C,U2*%
X150050000Y-118550000D03*
D11*
X150050000Y-118550000D03*
%TD*%
D12*
%TO.C,J4*%
X130823239Y-96092553D03*
%TD*%
%TO.C,J1*%
X127748804Y-99107199D03*
%TD*%
M02*
