%TF.GenerationSoftware,KiCad,Pcbnew,7.0.5*%
%TF.CreationDate,2023-06-23T15:18:34+05:00*%
%TF.ProjectId,jitx-design,6a697478-2d64-4657-9369-676e2e6b6963,rev?*%
%TF.SameCoordinates,Original*%
%TF.FileFunction,Legend,Top*%
%TF.FilePolarity,Positive*%
%FSLAX46Y46*%
G04 Gerber Fmt 4.6, Leading zero omitted, Abs format (unit mm)*
G04 Created by KiCad (PCBNEW 7.0.5) date 2023-06-23 15:18:34*
%MOMM*%
%LPD*%
G01*
G04 APERTURE LIST*
G04 Aperture macros list*
%AMRoundRect*
0 Rectangle with rounded corners*
0 $1 Rounding radius*
0 $2 $3 $4 $5 $6 $7 $8 $9 X,Y pos of 4 corners*
0 Add a 4 corners polygon primitive as box body*
4,1,4,$2,$3,$4,$5,$6,$7,$8,$9,$2,$3,0*
0 Add four circle primitives for the rounded corners*
1,1,$1+$1,$2,$3*
1,1,$1+$1,$4,$5*
1,1,$1+$1,$6,$7*
1,1,$1+$1,$8,$9*
0 Add four rect primitives between the rounded corners*
20,1,$1+$1,$2,$3,$4,$5,0*
20,1,$1+$1,$4,$5,$6,$7,0*
20,1,$1+$1,$6,$7,$8,$9,0*
20,1,$1+$1,$8,$9,$2,$3,0*%
G04 Aperture macros list end*
%ADD10C,0.100000*%
%ADD11C,0.152000*%
%ADD12C,0.150000*%
%ADD13O,0.690000X2.147000*%
%ADD14RoundRect,0.050000X0.300000X0.215139X-0.300000X0.215139X-0.300000X-0.215139X0.300000X-0.215139X0*%
%ADD15C,3.700000*%
%ADD16C,2.402000*%
%ADD17RoundRect,0.050000X-0.300000X-0.208889X0.300000X-0.208889X0.300000X0.208889X-0.300000X0.208889X0*%
%ADD18C,1.640000*%
%ADD19RoundRect,0.050000X-0.208889X0.300000X-0.208889X-0.300000X0.208889X-0.300000X0.208889X0.300000X0*%
%ADD20RoundRect,0.051000X0.600000X-0.700000X0.600000X0.700000X-0.600000X0.700000X-0.600000X-0.700000X0*%
%ADD21RoundRect,0.050000X0.208889X-0.300000X0.208889X0.300000X-0.208889X0.300000X-0.208889X-0.300000X0*%
%ADD22RoundRect,0.050000X0.300000X0.208889X-0.300000X0.208889X-0.300000X-0.208889X0.300000X-0.208889X0*%
%ADD23RoundRect,0.050000X0.190139X-0.300000X0.190139X0.300000X-0.190139X0.300000X-0.190139X-0.300000X0*%
%ADD24RoundRect,0.050000X-0.190139X0.300000X-0.190139X-0.300000X0.190139X-0.300000X0.190139X0.300000X0*%
%ADD25RoundRect,0.050000X-0.300000X-0.190139X0.300000X-0.190139X0.300000X0.190139X-0.300000X0.190139X0*%
%ADD26RoundRect,0.050000X2.050000X2.050000X-2.050000X2.050000X-2.050000X-2.050000X2.050000X-2.050000X0*%
%ADD27RoundRect,0.050000X-0.445000X0.140000X-0.445000X-0.140000X0.445000X-0.140000X0.445000X0.140000X0*%
%ADD28RoundRect,0.050000X-0.140000X-0.445000X0.140000X-0.445000X0.140000X0.445000X-0.140000X0.445000X0*%
%ADD29RoundRect,0.051000X-0.283000X-0.270000X0.283000X-0.270000X0.283000X0.270000X-0.283000X0.270000X0*%
%ADD30C,1.802000*%
%ADD31C,1.302000*%
%ADD32RoundRect,0.050000X0.256066X-0.475000X0.256066X0.475000X-0.256066X0.475000X-0.256066X-0.475000X0*%
%ADD33RoundRect,0.051000X0.532000X-1.109000X0.532000X1.109000X-0.532000X1.109000X-0.532000X-1.109000X0*%
%ADD34RoundRect,0.051000X2.777000X-2.602000X2.777000X2.602000X-2.777000X2.602000X-2.777000X-2.602000X0*%
G04 APERTURE END LIST*
D10*
%TO.C,U4*%
X127176055Y-113419049D02*
X127176055Y-114228572D01*
X127176055Y-114228572D02*
X127223674Y-114323810D01*
X127223674Y-114323810D02*
X127271293Y-114371430D01*
X127271293Y-114371430D02*
X127366531Y-114419049D01*
X127366531Y-114419049D02*
X127557007Y-114419049D01*
X127557007Y-114419049D02*
X127652245Y-114371430D01*
X127652245Y-114371430D02*
X127699864Y-114323810D01*
X127699864Y-114323810D02*
X127747483Y-114228572D01*
X127747483Y-114228572D02*
X127747483Y-113419049D01*
X128652245Y-113752382D02*
X128652245Y-114419049D01*
X128414150Y-113371430D02*
X128176055Y-114085715D01*
X128176055Y-114085715D02*
X128795102Y-114085715D01*
%TO.C,C11*%
X131793295Y-101850389D02*
X131840915Y-101898008D01*
X131840915Y-101898008D02*
X131888534Y-102040865D01*
X131888534Y-102040865D02*
X131888534Y-102136103D01*
X131888534Y-102136103D02*
X131840915Y-102278960D01*
X131840915Y-102278960D02*
X131745676Y-102374198D01*
X131745676Y-102374198D02*
X131650438Y-102421817D01*
X131650438Y-102421817D02*
X131459962Y-102469436D01*
X131459962Y-102469436D02*
X131317105Y-102469436D01*
X131317105Y-102469436D02*
X131126629Y-102421817D01*
X131126629Y-102421817D02*
X131031391Y-102374198D01*
X131031391Y-102374198D02*
X130936153Y-102278960D01*
X130936153Y-102278960D02*
X130888534Y-102136103D01*
X130888534Y-102136103D02*
X130888534Y-102040865D01*
X130888534Y-102040865D02*
X130936153Y-101898008D01*
X130936153Y-101898008D02*
X130983772Y-101850389D01*
X131888534Y-100898008D02*
X131888534Y-101469436D01*
X131888534Y-101183722D02*
X130888534Y-101183722D01*
X130888534Y-101183722D02*
X131031391Y-101278960D01*
X131031391Y-101278960D02*
X131126629Y-101374198D01*
X131126629Y-101374198D02*
X131174248Y-101469436D01*
X131888534Y-99945627D02*
X131888534Y-100517055D01*
X131888534Y-100231341D02*
X130888534Y-100231341D01*
X130888534Y-100231341D02*
X131031391Y-100326579D01*
X131031391Y-100326579D02*
X131126629Y-100421817D01*
X131126629Y-100421817D02*
X131174248Y-100517055D01*
%TO.C,C10*%
X139957122Y-108713119D02*
X140004742Y-108760738D01*
X140004742Y-108760738D02*
X140052361Y-108903595D01*
X140052361Y-108903595D02*
X140052361Y-108998833D01*
X140052361Y-108998833D02*
X140004742Y-109141690D01*
X140004742Y-109141690D02*
X139909503Y-109236928D01*
X139909503Y-109236928D02*
X139814265Y-109284547D01*
X139814265Y-109284547D02*
X139623789Y-109332166D01*
X139623789Y-109332166D02*
X139480932Y-109332166D01*
X139480932Y-109332166D02*
X139290456Y-109284547D01*
X139290456Y-109284547D02*
X139195218Y-109236928D01*
X139195218Y-109236928D02*
X139099980Y-109141690D01*
X139099980Y-109141690D02*
X139052361Y-108998833D01*
X139052361Y-108998833D02*
X139052361Y-108903595D01*
X139052361Y-108903595D02*
X139099980Y-108760738D01*
X139099980Y-108760738D02*
X139147599Y-108713119D01*
X140052361Y-107760738D02*
X140052361Y-108332166D01*
X140052361Y-108046452D02*
X139052361Y-108046452D01*
X139052361Y-108046452D02*
X139195218Y-108141690D01*
X139195218Y-108141690D02*
X139290456Y-108236928D01*
X139290456Y-108236928D02*
X139338075Y-108332166D01*
X139052361Y-107141690D02*
X139052361Y-107046452D01*
X139052361Y-107046452D02*
X139099980Y-106951214D01*
X139099980Y-106951214D02*
X139147599Y-106903595D01*
X139147599Y-106903595D02*
X139242837Y-106855976D01*
X139242837Y-106855976D02*
X139433313Y-106808357D01*
X139433313Y-106808357D02*
X139671408Y-106808357D01*
X139671408Y-106808357D02*
X139861884Y-106855976D01*
X139861884Y-106855976D02*
X139957122Y-106903595D01*
X139957122Y-106903595D02*
X140004742Y-106951214D01*
X140004742Y-106951214D02*
X140052361Y-107046452D01*
X140052361Y-107046452D02*
X140052361Y-107141690D01*
X140052361Y-107141690D02*
X140004742Y-107236928D01*
X140004742Y-107236928D02*
X139957122Y-107284547D01*
X139957122Y-107284547D02*
X139861884Y-107332166D01*
X139861884Y-107332166D02*
X139671408Y-107379785D01*
X139671408Y-107379785D02*
X139433313Y-107379785D01*
X139433313Y-107379785D02*
X139242837Y-107332166D01*
X139242837Y-107332166D02*
X139147599Y-107284547D01*
X139147599Y-107284547D02*
X139099980Y-107236928D01*
X139099980Y-107236928D02*
X139052361Y-107141690D01*
%TO.C,J2*%
X127623077Y-95704147D02*
X127623077Y-96418432D01*
X127623077Y-96418432D02*
X127575458Y-96561289D01*
X127575458Y-96561289D02*
X127480220Y-96656528D01*
X127480220Y-96656528D02*
X127337363Y-96704147D01*
X127337363Y-96704147D02*
X127242125Y-96704147D01*
X128051649Y-95799385D02*
X128099268Y-95751766D01*
X128099268Y-95751766D02*
X128194506Y-95704147D01*
X128194506Y-95704147D02*
X128432601Y-95704147D01*
X128432601Y-95704147D02*
X128527839Y-95751766D01*
X128527839Y-95751766D02*
X128575458Y-95799385D01*
X128575458Y-95799385D02*
X128623077Y-95894623D01*
X128623077Y-95894623D02*
X128623077Y-95989861D01*
X128623077Y-95989861D02*
X128575458Y-96132718D01*
X128575458Y-96132718D02*
X128004030Y-96704147D01*
X128004030Y-96704147D02*
X128623077Y-96704147D01*
%TO.C,C9*%
X131196411Y-105027276D02*
X131148792Y-105074896D01*
X131148792Y-105074896D02*
X131005935Y-105122515D01*
X131005935Y-105122515D02*
X130910697Y-105122515D01*
X130910697Y-105122515D02*
X130767840Y-105074896D01*
X130767840Y-105074896D02*
X130672602Y-104979657D01*
X130672602Y-104979657D02*
X130624983Y-104884419D01*
X130624983Y-104884419D02*
X130577364Y-104693943D01*
X130577364Y-104693943D02*
X130577364Y-104551086D01*
X130577364Y-104551086D02*
X130624983Y-104360610D01*
X130624983Y-104360610D02*
X130672602Y-104265372D01*
X130672602Y-104265372D02*
X130767840Y-104170134D01*
X130767840Y-104170134D02*
X130910697Y-104122515D01*
X130910697Y-104122515D02*
X131005935Y-104122515D01*
X131005935Y-104122515D02*
X131148792Y-104170134D01*
X131148792Y-104170134D02*
X131196411Y-104217753D01*
X131672602Y-105122515D02*
X131863078Y-105122515D01*
X131863078Y-105122515D02*
X131958316Y-105074896D01*
X131958316Y-105074896D02*
X132005935Y-105027276D01*
X132005935Y-105027276D02*
X132101173Y-104884419D01*
X132101173Y-104884419D02*
X132148792Y-104693943D01*
X132148792Y-104693943D02*
X132148792Y-104312991D01*
X132148792Y-104312991D02*
X132101173Y-104217753D01*
X132101173Y-104217753D02*
X132053554Y-104170134D01*
X132053554Y-104170134D02*
X131958316Y-104122515D01*
X131958316Y-104122515D02*
X131767840Y-104122515D01*
X131767840Y-104122515D02*
X131672602Y-104170134D01*
X131672602Y-104170134D02*
X131624983Y-104217753D01*
X131624983Y-104217753D02*
X131577364Y-104312991D01*
X131577364Y-104312991D02*
X131577364Y-104551086D01*
X131577364Y-104551086D02*
X131624983Y-104646324D01*
X131624983Y-104646324D02*
X131672602Y-104693943D01*
X131672602Y-104693943D02*
X131767840Y-104741562D01*
X131767840Y-104741562D02*
X131958316Y-104741562D01*
X131958316Y-104741562D02*
X132053554Y-104693943D01*
X132053554Y-104693943D02*
X132101173Y-104646324D01*
X132101173Y-104646324D02*
X132148792Y-104551086D01*
%TO.C,X1*%
X131196325Y-112651838D02*
X132196325Y-111985172D01*
X131196325Y-111985172D02*
X132196325Y-112651838D01*
X132196325Y-111080410D02*
X132196325Y-111651838D01*
X132196325Y-111366124D02*
X131196325Y-111366124D01*
X131196325Y-111366124D02*
X131339182Y-111461362D01*
X131339182Y-111461362D02*
X131434420Y-111556600D01*
X131434420Y-111556600D02*
X131482039Y-111651838D01*
%TO.C,C8*%
X136841033Y-96550953D02*
X136793414Y-96598573D01*
X136793414Y-96598573D02*
X136650557Y-96646192D01*
X136650557Y-96646192D02*
X136555319Y-96646192D01*
X136555319Y-96646192D02*
X136412462Y-96598573D01*
X136412462Y-96598573D02*
X136317224Y-96503334D01*
X136317224Y-96503334D02*
X136269605Y-96408096D01*
X136269605Y-96408096D02*
X136221986Y-96217620D01*
X136221986Y-96217620D02*
X136221986Y-96074763D01*
X136221986Y-96074763D02*
X136269605Y-95884287D01*
X136269605Y-95884287D02*
X136317224Y-95789049D01*
X136317224Y-95789049D02*
X136412462Y-95693811D01*
X136412462Y-95693811D02*
X136555319Y-95646192D01*
X136555319Y-95646192D02*
X136650557Y-95646192D01*
X136650557Y-95646192D02*
X136793414Y-95693811D01*
X136793414Y-95693811D02*
X136841033Y-95741430D01*
X137412462Y-96074763D02*
X137317224Y-96027144D01*
X137317224Y-96027144D02*
X137269605Y-95979525D01*
X137269605Y-95979525D02*
X137221986Y-95884287D01*
X137221986Y-95884287D02*
X137221986Y-95836668D01*
X137221986Y-95836668D02*
X137269605Y-95741430D01*
X137269605Y-95741430D02*
X137317224Y-95693811D01*
X137317224Y-95693811D02*
X137412462Y-95646192D01*
X137412462Y-95646192D02*
X137602938Y-95646192D01*
X137602938Y-95646192D02*
X137698176Y-95693811D01*
X137698176Y-95693811D02*
X137745795Y-95741430D01*
X137745795Y-95741430D02*
X137793414Y-95836668D01*
X137793414Y-95836668D02*
X137793414Y-95884287D01*
X137793414Y-95884287D02*
X137745795Y-95979525D01*
X137745795Y-95979525D02*
X137698176Y-96027144D01*
X137698176Y-96027144D02*
X137602938Y-96074763D01*
X137602938Y-96074763D02*
X137412462Y-96074763D01*
X137412462Y-96074763D02*
X137317224Y-96122382D01*
X137317224Y-96122382D02*
X137269605Y-96170001D01*
X137269605Y-96170001D02*
X137221986Y-96265239D01*
X137221986Y-96265239D02*
X137221986Y-96455715D01*
X137221986Y-96455715D02*
X137269605Y-96550953D01*
X137269605Y-96550953D02*
X137317224Y-96598573D01*
X137317224Y-96598573D02*
X137412462Y-96646192D01*
X137412462Y-96646192D02*
X137602938Y-96646192D01*
X137602938Y-96646192D02*
X137698176Y-96598573D01*
X137698176Y-96598573D02*
X137745795Y-96550953D01*
X137745795Y-96550953D02*
X137793414Y-96455715D01*
X137793414Y-96455715D02*
X137793414Y-96265239D01*
X137793414Y-96265239D02*
X137745795Y-96170001D01*
X137745795Y-96170001D02*
X137698176Y-96122382D01*
X137698176Y-96122382D02*
X137602938Y-96074763D01*
%TO.C,C1*%
X148275338Y-115022129D02*
X148322958Y-115069748D01*
X148322958Y-115069748D02*
X148370577Y-115212605D01*
X148370577Y-115212605D02*
X148370577Y-115307843D01*
X148370577Y-115307843D02*
X148322958Y-115450700D01*
X148322958Y-115450700D02*
X148227719Y-115545938D01*
X148227719Y-115545938D02*
X148132481Y-115593557D01*
X148132481Y-115593557D02*
X147942005Y-115641176D01*
X147942005Y-115641176D02*
X147799148Y-115641176D01*
X147799148Y-115641176D02*
X147608672Y-115593557D01*
X147608672Y-115593557D02*
X147513434Y-115545938D01*
X147513434Y-115545938D02*
X147418196Y-115450700D01*
X147418196Y-115450700D02*
X147370577Y-115307843D01*
X147370577Y-115307843D02*
X147370577Y-115212605D01*
X147370577Y-115212605D02*
X147418196Y-115069748D01*
X147418196Y-115069748D02*
X147465815Y-115022129D01*
X148370577Y-114069748D02*
X148370577Y-114641176D01*
X148370577Y-114355462D02*
X147370577Y-114355462D01*
X147370577Y-114355462D02*
X147513434Y-114450700D01*
X147513434Y-114450700D02*
X147608672Y-114545938D01*
X147608672Y-114545938D02*
X147656291Y-114641176D01*
%TO.C,R4*%
X128495995Y-106237140D02*
X128162662Y-105760949D01*
X127924567Y-106237140D02*
X127924567Y-105237140D01*
X127924567Y-105237140D02*
X128305519Y-105237140D01*
X128305519Y-105237140D02*
X128400757Y-105284759D01*
X128400757Y-105284759D02*
X128448376Y-105332378D01*
X128448376Y-105332378D02*
X128495995Y-105427616D01*
X128495995Y-105427616D02*
X128495995Y-105570473D01*
X128495995Y-105570473D02*
X128448376Y-105665711D01*
X128448376Y-105665711D02*
X128400757Y-105713330D01*
X128400757Y-105713330D02*
X128305519Y-105760949D01*
X128305519Y-105760949D02*
X127924567Y-105760949D01*
X129353138Y-105570473D02*
X129353138Y-106237140D01*
X129115043Y-105189521D02*
X128876948Y-105903806D01*
X128876948Y-105903806D02*
X129495995Y-105903806D01*
%TO.C,C7*%
X141007585Y-102546558D02*
X140959966Y-102594178D01*
X140959966Y-102594178D02*
X140817109Y-102641797D01*
X140817109Y-102641797D02*
X140721871Y-102641797D01*
X140721871Y-102641797D02*
X140579014Y-102594178D01*
X140579014Y-102594178D02*
X140483776Y-102498939D01*
X140483776Y-102498939D02*
X140436157Y-102403701D01*
X140436157Y-102403701D02*
X140388538Y-102213225D01*
X140388538Y-102213225D02*
X140388538Y-102070368D01*
X140388538Y-102070368D02*
X140436157Y-101879892D01*
X140436157Y-101879892D02*
X140483776Y-101784654D01*
X140483776Y-101784654D02*
X140579014Y-101689416D01*
X140579014Y-101689416D02*
X140721871Y-101641797D01*
X140721871Y-101641797D02*
X140817109Y-101641797D01*
X140817109Y-101641797D02*
X140959966Y-101689416D01*
X140959966Y-101689416D02*
X141007585Y-101737035D01*
X141340919Y-101641797D02*
X142007585Y-101641797D01*
X142007585Y-101641797D02*
X141579014Y-102641797D01*
%TO.C,R7*%
X133550103Y-115475634D02*
X133216770Y-114999443D01*
X132978675Y-115475634D02*
X132978675Y-114475634D01*
X132978675Y-114475634D02*
X133359627Y-114475634D01*
X133359627Y-114475634D02*
X133454865Y-114523253D01*
X133454865Y-114523253D02*
X133502484Y-114570872D01*
X133502484Y-114570872D02*
X133550103Y-114666110D01*
X133550103Y-114666110D02*
X133550103Y-114808967D01*
X133550103Y-114808967D02*
X133502484Y-114904205D01*
X133502484Y-114904205D02*
X133454865Y-114951824D01*
X133454865Y-114951824D02*
X133359627Y-114999443D01*
X133359627Y-114999443D02*
X132978675Y-114999443D01*
X133883437Y-114475634D02*
X134550103Y-114475634D01*
X134550103Y-114475634D02*
X134121532Y-115475634D01*
%TO.C,R1*%
X149514028Y-101709043D02*
X149037837Y-102042376D01*
X149514028Y-102280471D02*
X148514028Y-102280471D01*
X148514028Y-102280471D02*
X148514028Y-101899519D01*
X148514028Y-101899519D02*
X148561647Y-101804281D01*
X148561647Y-101804281D02*
X148609266Y-101756662D01*
X148609266Y-101756662D02*
X148704504Y-101709043D01*
X148704504Y-101709043D02*
X148847361Y-101709043D01*
X148847361Y-101709043D02*
X148942599Y-101756662D01*
X148942599Y-101756662D02*
X148990218Y-101804281D01*
X148990218Y-101804281D02*
X149037837Y-101899519D01*
X149037837Y-101899519D02*
X149037837Y-102280471D01*
X149514028Y-100756662D02*
X149514028Y-101328090D01*
X149514028Y-101042376D02*
X148514028Y-101042376D01*
X148514028Y-101042376D02*
X148656885Y-101137614D01*
X148656885Y-101137614D02*
X148752123Y-101232852D01*
X148752123Y-101232852D02*
X148799742Y-101328090D01*
%TO.C,C3*%
X141600675Y-110373976D02*
X141553056Y-110421596D01*
X141553056Y-110421596D02*
X141410199Y-110469215D01*
X141410199Y-110469215D02*
X141314961Y-110469215D01*
X141314961Y-110469215D02*
X141172104Y-110421596D01*
X141172104Y-110421596D02*
X141076866Y-110326357D01*
X141076866Y-110326357D02*
X141029247Y-110231119D01*
X141029247Y-110231119D02*
X140981628Y-110040643D01*
X140981628Y-110040643D02*
X140981628Y-109897786D01*
X140981628Y-109897786D02*
X141029247Y-109707310D01*
X141029247Y-109707310D02*
X141076866Y-109612072D01*
X141076866Y-109612072D02*
X141172104Y-109516834D01*
X141172104Y-109516834D02*
X141314961Y-109469215D01*
X141314961Y-109469215D02*
X141410199Y-109469215D01*
X141410199Y-109469215D02*
X141553056Y-109516834D01*
X141553056Y-109516834D02*
X141600675Y-109564453D01*
X141934009Y-109469215D02*
X142553056Y-109469215D01*
X142553056Y-109469215D02*
X142219723Y-109850167D01*
X142219723Y-109850167D02*
X142362580Y-109850167D01*
X142362580Y-109850167D02*
X142457818Y-109897786D01*
X142457818Y-109897786D02*
X142505437Y-109945405D01*
X142505437Y-109945405D02*
X142553056Y-110040643D01*
X142553056Y-110040643D02*
X142553056Y-110278738D01*
X142553056Y-110278738D02*
X142505437Y-110373976D01*
X142505437Y-110373976D02*
X142457818Y-110421596D01*
X142457818Y-110421596D02*
X142362580Y-110469215D01*
X142362580Y-110469215D02*
X142076866Y-110469215D01*
X142076866Y-110469215D02*
X141981628Y-110421596D01*
X141981628Y-110421596D02*
X141934009Y-110373976D01*
%TO.C,R3*%
X127176444Y-108393181D02*
X126843111Y-107916990D01*
X126605016Y-108393181D02*
X126605016Y-107393181D01*
X126605016Y-107393181D02*
X126985968Y-107393181D01*
X126985968Y-107393181D02*
X127081206Y-107440800D01*
X127081206Y-107440800D02*
X127128825Y-107488419D01*
X127128825Y-107488419D02*
X127176444Y-107583657D01*
X127176444Y-107583657D02*
X127176444Y-107726514D01*
X127176444Y-107726514D02*
X127128825Y-107821752D01*
X127128825Y-107821752D02*
X127081206Y-107869371D01*
X127081206Y-107869371D02*
X126985968Y-107916990D01*
X126985968Y-107916990D02*
X126605016Y-107916990D01*
X127509778Y-107393181D02*
X128128825Y-107393181D01*
X128128825Y-107393181D02*
X127795492Y-107774133D01*
X127795492Y-107774133D02*
X127938349Y-107774133D01*
X127938349Y-107774133D02*
X128033587Y-107821752D01*
X128033587Y-107821752D02*
X128081206Y-107869371D01*
X128081206Y-107869371D02*
X128128825Y-107964609D01*
X128128825Y-107964609D02*
X128128825Y-108202704D01*
X128128825Y-108202704D02*
X128081206Y-108297942D01*
X128081206Y-108297942D02*
X128033587Y-108345562D01*
X128033587Y-108345562D02*
X127938349Y-108393181D01*
X127938349Y-108393181D02*
X127652635Y-108393181D01*
X127652635Y-108393181D02*
X127557397Y-108345562D01*
X127557397Y-108345562D02*
X127509778Y-108297942D01*
%TO.C,U5*%
X136268171Y-108022065D02*
X136268171Y-108831588D01*
X136268171Y-108831588D02*
X136315790Y-108926826D01*
X136315790Y-108926826D02*
X136363409Y-108974446D01*
X136363409Y-108974446D02*
X136458647Y-109022065D01*
X136458647Y-109022065D02*
X136649123Y-109022065D01*
X136649123Y-109022065D02*
X136744361Y-108974446D01*
X136744361Y-108974446D02*
X136791980Y-108926826D01*
X136791980Y-108926826D02*
X136839599Y-108831588D01*
X136839599Y-108831588D02*
X136839599Y-108022065D01*
X137791980Y-108022065D02*
X137315790Y-108022065D01*
X137315790Y-108022065D02*
X137268171Y-108498255D01*
X137268171Y-108498255D02*
X137315790Y-108450636D01*
X137315790Y-108450636D02*
X137411028Y-108403017D01*
X137411028Y-108403017D02*
X137649123Y-108403017D01*
X137649123Y-108403017D02*
X137744361Y-108450636D01*
X137744361Y-108450636D02*
X137791980Y-108498255D01*
X137791980Y-108498255D02*
X137839599Y-108593493D01*
X137839599Y-108593493D02*
X137839599Y-108831588D01*
X137839599Y-108831588D02*
X137791980Y-108926826D01*
X137791980Y-108926826D02*
X137744361Y-108974446D01*
X137744361Y-108974446D02*
X137649123Y-109022065D01*
X137649123Y-109022065D02*
X137411028Y-109022065D01*
X137411028Y-109022065D02*
X137315790Y-108974446D01*
X137315790Y-108974446D02*
X137268171Y-108926826D01*
%TO.C,C6*%
X138794413Y-108186878D02*
X138842033Y-108234497D01*
X138842033Y-108234497D02*
X138889652Y-108377354D01*
X138889652Y-108377354D02*
X138889652Y-108472592D01*
X138889652Y-108472592D02*
X138842033Y-108615449D01*
X138842033Y-108615449D02*
X138746794Y-108710687D01*
X138746794Y-108710687D02*
X138651556Y-108758306D01*
X138651556Y-108758306D02*
X138461080Y-108805925D01*
X138461080Y-108805925D02*
X138318223Y-108805925D01*
X138318223Y-108805925D02*
X138127747Y-108758306D01*
X138127747Y-108758306D02*
X138032509Y-108710687D01*
X138032509Y-108710687D02*
X137937271Y-108615449D01*
X137937271Y-108615449D02*
X137889652Y-108472592D01*
X137889652Y-108472592D02*
X137889652Y-108377354D01*
X137889652Y-108377354D02*
X137937271Y-108234497D01*
X137937271Y-108234497D02*
X137984890Y-108186878D01*
X137889652Y-107329735D02*
X137889652Y-107520211D01*
X137889652Y-107520211D02*
X137937271Y-107615449D01*
X137937271Y-107615449D02*
X137984890Y-107663068D01*
X137984890Y-107663068D02*
X138127747Y-107758306D01*
X138127747Y-107758306D02*
X138318223Y-107805925D01*
X138318223Y-107805925D02*
X138699175Y-107805925D01*
X138699175Y-107805925D02*
X138794413Y-107758306D01*
X138794413Y-107758306D02*
X138842033Y-107710687D01*
X138842033Y-107710687D02*
X138889652Y-107615449D01*
X138889652Y-107615449D02*
X138889652Y-107424973D01*
X138889652Y-107424973D02*
X138842033Y-107329735D01*
X138842033Y-107329735D02*
X138794413Y-107282116D01*
X138794413Y-107282116D02*
X138699175Y-107234497D01*
X138699175Y-107234497D02*
X138461080Y-107234497D01*
X138461080Y-107234497D02*
X138365842Y-107282116D01*
X138365842Y-107282116D02*
X138318223Y-107329735D01*
X138318223Y-107329735D02*
X138270604Y-107424973D01*
X138270604Y-107424973D02*
X138270604Y-107615449D01*
X138270604Y-107615449D02*
X138318223Y-107710687D01*
X138318223Y-107710687D02*
X138365842Y-107758306D01*
X138365842Y-107758306D02*
X138461080Y-107805925D01*
%TO.C,C13*%
X133047192Y-109621702D02*
X132999573Y-109669322D01*
X132999573Y-109669322D02*
X132856716Y-109716941D01*
X132856716Y-109716941D02*
X132761478Y-109716941D01*
X132761478Y-109716941D02*
X132618621Y-109669322D01*
X132618621Y-109669322D02*
X132523383Y-109574083D01*
X132523383Y-109574083D02*
X132475764Y-109478845D01*
X132475764Y-109478845D02*
X132428145Y-109288369D01*
X132428145Y-109288369D02*
X132428145Y-109145512D01*
X132428145Y-109145512D02*
X132475764Y-108955036D01*
X132475764Y-108955036D02*
X132523383Y-108859798D01*
X132523383Y-108859798D02*
X132618621Y-108764560D01*
X132618621Y-108764560D02*
X132761478Y-108716941D01*
X132761478Y-108716941D02*
X132856716Y-108716941D01*
X132856716Y-108716941D02*
X132999573Y-108764560D01*
X132999573Y-108764560D02*
X133047192Y-108812179D01*
X133999573Y-109716941D02*
X133428145Y-109716941D01*
X133713859Y-109716941D02*
X133713859Y-108716941D01*
X133713859Y-108716941D02*
X133618621Y-108859798D01*
X133618621Y-108859798D02*
X133523383Y-108955036D01*
X133523383Y-108955036D02*
X133428145Y-109002655D01*
X134332907Y-108716941D02*
X134951954Y-108716941D01*
X134951954Y-108716941D02*
X134618621Y-109097893D01*
X134618621Y-109097893D02*
X134761478Y-109097893D01*
X134761478Y-109097893D02*
X134856716Y-109145512D01*
X134856716Y-109145512D02*
X134904335Y-109193131D01*
X134904335Y-109193131D02*
X134951954Y-109288369D01*
X134951954Y-109288369D02*
X134951954Y-109526464D01*
X134951954Y-109526464D02*
X134904335Y-109621702D01*
X134904335Y-109621702D02*
X134856716Y-109669322D01*
X134856716Y-109669322D02*
X134761478Y-109716941D01*
X134761478Y-109716941D02*
X134475764Y-109716941D01*
X134475764Y-109716941D02*
X134380526Y-109669322D01*
X134380526Y-109669322D02*
X134332907Y-109621702D01*
%TO.C,R8*%
X138418011Y-107297771D02*
X138084678Y-106821580D01*
X137846583Y-107297771D02*
X137846583Y-106297771D01*
X137846583Y-106297771D02*
X138227535Y-106297771D01*
X138227535Y-106297771D02*
X138322773Y-106345390D01*
X138322773Y-106345390D02*
X138370392Y-106393009D01*
X138370392Y-106393009D02*
X138418011Y-106488247D01*
X138418011Y-106488247D02*
X138418011Y-106631104D01*
X138418011Y-106631104D02*
X138370392Y-106726342D01*
X138370392Y-106726342D02*
X138322773Y-106773961D01*
X138322773Y-106773961D02*
X138227535Y-106821580D01*
X138227535Y-106821580D02*
X137846583Y-106821580D01*
X138989440Y-106726342D02*
X138894202Y-106678723D01*
X138894202Y-106678723D02*
X138846583Y-106631104D01*
X138846583Y-106631104D02*
X138798964Y-106535866D01*
X138798964Y-106535866D02*
X138798964Y-106488247D01*
X138798964Y-106488247D02*
X138846583Y-106393009D01*
X138846583Y-106393009D02*
X138894202Y-106345390D01*
X138894202Y-106345390D02*
X138989440Y-106297771D01*
X138989440Y-106297771D02*
X139179916Y-106297771D01*
X139179916Y-106297771D02*
X139275154Y-106345390D01*
X139275154Y-106345390D02*
X139322773Y-106393009D01*
X139322773Y-106393009D02*
X139370392Y-106488247D01*
X139370392Y-106488247D02*
X139370392Y-106535866D01*
X139370392Y-106535866D02*
X139322773Y-106631104D01*
X139322773Y-106631104D02*
X139275154Y-106678723D01*
X139275154Y-106678723D02*
X139179916Y-106726342D01*
X139179916Y-106726342D02*
X138989440Y-106726342D01*
X138989440Y-106726342D02*
X138894202Y-106773961D01*
X138894202Y-106773961D02*
X138846583Y-106821580D01*
X138846583Y-106821580D02*
X138798964Y-106916818D01*
X138798964Y-106916818D02*
X138798964Y-107107294D01*
X138798964Y-107107294D02*
X138846583Y-107202532D01*
X138846583Y-107202532D02*
X138894202Y-107250152D01*
X138894202Y-107250152D02*
X138989440Y-107297771D01*
X138989440Y-107297771D02*
X139179916Y-107297771D01*
X139179916Y-107297771D02*
X139275154Y-107250152D01*
X139275154Y-107250152D02*
X139322773Y-107202532D01*
X139322773Y-107202532D02*
X139370392Y-107107294D01*
X139370392Y-107107294D02*
X139370392Y-106916818D01*
X139370392Y-106916818D02*
X139322773Y-106821580D01*
X139322773Y-106821580D02*
X139275154Y-106773961D01*
X139275154Y-106773961D02*
X139179916Y-106726342D01*
%TO.C,C2*%
X145245917Y-109376763D02*
X145293537Y-109424382D01*
X145293537Y-109424382D02*
X145341156Y-109567239D01*
X145341156Y-109567239D02*
X145341156Y-109662477D01*
X145341156Y-109662477D02*
X145293537Y-109805334D01*
X145293537Y-109805334D02*
X145198298Y-109900572D01*
X145198298Y-109900572D02*
X145103060Y-109948191D01*
X145103060Y-109948191D02*
X144912584Y-109995810D01*
X144912584Y-109995810D02*
X144769727Y-109995810D01*
X144769727Y-109995810D02*
X144579251Y-109948191D01*
X144579251Y-109948191D02*
X144484013Y-109900572D01*
X144484013Y-109900572D02*
X144388775Y-109805334D01*
X144388775Y-109805334D02*
X144341156Y-109662477D01*
X144341156Y-109662477D02*
X144341156Y-109567239D01*
X144341156Y-109567239D02*
X144388775Y-109424382D01*
X144388775Y-109424382D02*
X144436394Y-109376763D01*
X144436394Y-108995810D02*
X144388775Y-108948191D01*
X144388775Y-108948191D02*
X144341156Y-108852953D01*
X144341156Y-108852953D02*
X144341156Y-108614858D01*
X144341156Y-108614858D02*
X144388775Y-108519620D01*
X144388775Y-108519620D02*
X144436394Y-108472001D01*
X144436394Y-108472001D02*
X144531632Y-108424382D01*
X144531632Y-108424382D02*
X144626870Y-108424382D01*
X144626870Y-108424382D02*
X144769727Y-108472001D01*
X144769727Y-108472001D02*
X145341156Y-109043429D01*
X145341156Y-109043429D02*
X145341156Y-108424382D01*
%TO.C,R2*%
X126140727Y-110234810D02*
X125807394Y-109758619D01*
X125569299Y-110234810D02*
X125569299Y-109234810D01*
X125569299Y-109234810D02*
X125950251Y-109234810D01*
X125950251Y-109234810D02*
X126045489Y-109282429D01*
X126045489Y-109282429D02*
X126093108Y-109330048D01*
X126093108Y-109330048D02*
X126140727Y-109425286D01*
X126140727Y-109425286D02*
X126140727Y-109568143D01*
X126140727Y-109568143D02*
X126093108Y-109663381D01*
X126093108Y-109663381D02*
X126045489Y-109711000D01*
X126045489Y-109711000D02*
X125950251Y-109758619D01*
X125950251Y-109758619D02*
X125569299Y-109758619D01*
X126521680Y-109330048D02*
X126569299Y-109282429D01*
X126569299Y-109282429D02*
X126664537Y-109234810D01*
X126664537Y-109234810D02*
X126902632Y-109234810D01*
X126902632Y-109234810D02*
X126997870Y-109282429D01*
X126997870Y-109282429D02*
X127045489Y-109330048D01*
X127045489Y-109330048D02*
X127093108Y-109425286D01*
X127093108Y-109425286D02*
X127093108Y-109520524D01*
X127093108Y-109520524D02*
X127045489Y-109663381D01*
X127045489Y-109663381D02*
X126474061Y-110234810D01*
X126474061Y-110234810D02*
X127093108Y-110234810D01*
%TO.C,C5*%
X136501523Y-99334306D02*
X136549143Y-99381925D01*
X136549143Y-99381925D02*
X136596762Y-99524782D01*
X136596762Y-99524782D02*
X136596762Y-99620020D01*
X136596762Y-99620020D02*
X136549143Y-99762877D01*
X136549143Y-99762877D02*
X136453904Y-99858115D01*
X136453904Y-99858115D02*
X136358666Y-99905734D01*
X136358666Y-99905734D02*
X136168190Y-99953353D01*
X136168190Y-99953353D02*
X136025333Y-99953353D01*
X136025333Y-99953353D02*
X135834857Y-99905734D01*
X135834857Y-99905734D02*
X135739619Y-99858115D01*
X135739619Y-99858115D02*
X135644381Y-99762877D01*
X135644381Y-99762877D02*
X135596762Y-99620020D01*
X135596762Y-99620020D02*
X135596762Y-99524782D01*
X135596762Y-99524782D02*
X135644381Y-99381925D01*
X135644381Y-99381925D02*
X135692000Y-99334306D01*
X135596762Y-98429544D02*
X135596762Y-98905734D01*
X135596762Y-98905734D02*
X136072952Y-98953353D01*
X136072952Y-98953353D02*
X136025333Y-98905734D01*
X136025333Y-98905734D02*
X135977714Y-98810496D01*
X135977714Y-98810496D02*
X135977714Y-98572401D01*
X135977714Y-98572401D02*
X136025333Y-98477163D01*
X136025333Y-98477163D02*
X136072952Y-98429544D01*
X136072952Y-98429544D02*
X136168190Y-98381925D01*
X136168190Y-98381925D02*
X136406285Y-98381925D01*
X136406285Y-98381925D02*
X136501523Y-98429544D01*
X136501523Y-98429544D02*
X136549143Y-98477163D01*
X136549143Y-98477163D02*
X136596762Y-98572401D01*
X136596762Y-98572401D02*
X136596762Y-98810496D01*
X136596762Y-98810496D02*
X136549143Y-98905734D01*
X136549143Y-98905734D02*
X136501523Y-98953353D01*
%TO.C,LED1*%
X147808487Y-107297771D02*
X147332297Y-107297771D01*
X147332297Y-107297771D02*
X147332297Y-106297771D01*
X148141821Y-106773961D02*
X148475154Y-106773961D01*
X148618011Y-107297771D02*
X148141821Y-107297771D01*
X148141821Y-107297771D02*
X148141821Y-106297771D01*
X148141821Y-106297771D02*
X148618011Y-106297771D01*
X149046583Y-107297771D02*
X149046583Y-106297771D01*
X149046583Y-106297771D02*
X149284678Y-106297771D01*
X149284678Y-106297771D02*
X149427535Y-106345390D01*
X149427535Y-106345390D02*
X149522773Y-106440628D01*
X149522773Y-106440628D02*
X149570392Y-106535866D01*
X149570392Y-106535866D02*
X149618011Y-106726342D01*
X149618011Y-106726342D02*
X149618011Y-106869199D01*
X149618011Y-106869199D02*
X149570392Y-107059675D01*
X149570392Y-107059675D02*
X149522773Y-107154913D01*
X149522773Y-107154913D02*
X149427535Y-107250152D01*
X149427535Y-107250152D02*
X149284678Y-107297771D01*
X149284678Y-107297771D02*
X149046583Y-107297771D01*
X150570392Y-107297771D02*
X149998964Y-107297771D01*
X150284678Y-107297771D02*
X150284678Y-106297771D01*
X150284678Y-106297771D02*
X150189440Y-106440628D01*
X150189440Y-106440628D02*
X150094202Y-106535866D01*
X150094202Y-106535866D02*
X149998964Y-106583485D01*
%TO.C,J3*%
X130723243Y-98235656D02*
X130723243Y-98949941D01*
X130723243Y-98949941D02*
X130675624Y-99092798D01*
X130675624Y-99092798D02*
X130580386Y-99188037D01*
X130580386Y-99188037D02*
X130437529Y-99235656D01*
X130437529Y-99235656D02*
X130342291Y-99235656D01*
X131104196Y-98235656D02*
X131723243Y-98235656D01*
X131723243Y-98235656D02*
X131389910Y-98616608D01*
X131389910Y-98616608D02*
X131532767Y-98616608D01*
X131532767Y-98616608D02*
X131628005Y-98664227D01*
X131628005Y-98664227D02*
X131675624Y-98711846D01*
X131675624Y-98711846D02*
X131723243Y-98807084D01*
X131723243Y-98807084D02*
X131723243Y-99045179D01*
X131723243Y-99045179D02*
X131675624Y-99140417D01*
X131675624Y-99140417D02*
X131628005Y-99188037D01*
X131628005Y-99188037D02*
X131532767Y-99235656D01*
X131532767Y-99235656D02*
X131247053Y-99235656D01*
X131247053Y-99235656D02*
X131151815Y-99188037D01*
X131151815Y-99188037D02*
X131104196Y-99140417D01*
%TO.C,C12*%
X137408880Y-111983482D02*
X137361261Y-112031102D01*
X137361261Y-112031102D02*
X137218404Y-112078721D01*
X137218404Y-112078721D02*
X137123166Y-112078721D01*
X137123166Y-112078721D02*
X136980309Y-112031102D01*
X136980309Y-112031102D02*
X136885071Y-111935863D01*
X136885071Y-111935863D02*
X136837452Y-111840625D01*
X136837452Y-111840625D02*
X136789833Y-111650149D01*
X136789833Y-111650149D02*
X136789833Y-111507292D01*
X136789833Y-111507292D02*
X136837452Y-111316816D01*
X136837452Y-111316816D02*
X136885071Y-111221578D01*
X136885071Y-111221578D02*
X136980309Y-111126340D01*
X136980309Y-111126340D02*
X137123166Y-111078721D01*
X137123166Y-111078721D02*
X137218404Y-111078721D01*
X137218404Y-111078721D02*
X137361261Y-111126340D01*
X137361261Y-111126340D02*
X137408880Y-111173959D01*
X138361261Y-112078721D02*
X137789833Y-112078721D01*
X138075547Y-112078721D02*
X138075547Y-111078721D01*
X138075547Y-111078721D02*
X137980309Y-111221578D01*
X137980309Y-111221578D02*
X137885071Y-111316816D01*
X137885071Y-111316816D02*
X137789833Y-111364435D01*
X138742214Y-111173959D02*
X138789833Y-111126340D01*
X138789833Y-111126340D02*
X138885071Y-111078721D01*
X138885071Y-111078721D02*
X139123166Y-111078721D01*
X139123166Y-111078721D02*
X139218404Y-111126340D01*
X139218404Y-111126340D02*
X139266023Y-111173959D01*
X139266023Y-111173959D02*
X139313642Y-111269197D01*
X139313642Y-111269197D02*
X139313642Y-111364435D01*
X139313642Y-111364435D02*
X139266023Y-111507292D01*
X139266023Y-111507292D02*
X138694595Y-112078721D01*
X138694595Y-112078721D02*
X139313642Y-112078721D01*
%TO.C,C4*%
X135086456Y-99107837D02*
X135038837Y-99155457D01*
X135038837Y-99155457D02*
X134895980Y-99203076D01*
X134895980Y-99203076D02*
X134800742Y-99203076D01*
X134800742Y-99203076D02*
X134657885Y-99155457D01*
X134657885Y-99155457D02*
X134562647Y-99060218D01*
X134562647Y-99060218D02*
X134515028Y-98964980D01*
X134515028Y-98964980D02*
X134467409Y-98774504D01*
X134467409Y-98774504D02*
X134467409Y-98631647D01*
X134467409Y-98631647D02*
X134515028Y-98441171D01*
X134515028Y-98441171D02*
X134562647Y-98345933D01*
X134562647Y-98345933D02*
X134657885Y-98250695D01*
X134657885Y-98250695D02*
X134800742Y-98203076D01*
X134800742Y-98203076D02*
X134895980Y-98203076D01*
X134895980Y-98203076D02*
X135038837Y-98250695D01*
X135038837Y-98250695D02*
X135086456Y-98298314D01*
X135943599Y-98536409D02*
X135943599Y-99203076D01*
X135705504Y-98155457D02*
X135467409Y-98869742D01*
X135467409Y-98869742D02*
X136086456Y-98869742D01*
%TO.C,R6*%
X134789067Y-96630006D02*
X134455734Y-96153815D01*
X134217639Y-96630006D02*
X134217639Y-95630006D01*
X134217639Y-95630006D02*
X134598591Y-95630006D01*
X134598591Y-95630006D02*
X134693829Y-95677625D01*
X134693829Y-95677625D02*
X134741448Y-95725244D01*
X134741448Y-95725244D02*
X134789067Y-95820482D01*
X134789067Y-95820482D02*
X134789067Y-95963339D01*
X134789067Y-95963339D02*
X134741448Y-96058577D01*
X134741448Y-96058577D02*
X134693829Y-96106196D01*
X134693829Y-96106196D02*
X134598591Y-96153815D01*
X134598591Y-96153815D02*
X134217639Y-96153815D01*
X135646210Y-95630006D02*
X135455734Y-95630006D01*
X135455734Y-95630006D02*
X135360496Y-95677625D01*
X135360496Y-95677625D02*
X135312877Y-95725244D01*
X135312877Y-95725244D02*
X135217639Y-95868101D01*
X135217639Y-95868101D02*
X135170020Y-96058577D01*
X135170020Y-96058577D02*
X135170020Y-96439529D01*
X135170020Y-96439529D02*
X135217639Y-96534767D01*
X135217639Y-96534767D02*
X135265258Y-96582387D01*
X135265258Y-96582387D02*
X135360496Y-96630006D01*
X135360496Y-96630006D02*
X135550972Y-96630006D01*
X135550972Y-96630006D02*
X135646210Y-96582387D01*
X135646210Y-96582387D02*
X135693829Y-96534767D01*
X135693829Y-96534767D02*
X135741448Y-96439529D01*
X135741448Y-96439529D02*
X135741448Y-96201434D01*
X135741448Y-96201434D02*
X135693829Y-96106196D01*
X135693829Y-96106196D02*
X135646210Y-96058577D01*
X135646210Y-96058577D02*
X135550972Y-96010958D01*
X135550972Y-96010958D02*
X135360496Y-96010958D01*
X135360496Y-96010958D02*
X135265258Y-96058577D01*
X135265258Y-96058577D02*
X135217639Y-96106196D01*
X135217639Y-96106196D02*
X135170020Y-96201434D01*
%TO.C,R5*%
X139536664Y-110196997D02*
X139060473Y-110530330D01*
X139536664Y-110768425D02*
X138536664Y-110768425D01*
X138536664Y-110768425D02*
X138536664Y-110387473D01*
X138536664Y-110387473D02*
X138584283Y-110292235D01*
X138584283Y-110292235D02*
X138631902Y-110244616D01*
X138631902Y-110244616D02*
X138727140Y-110196997D01*
X138727140Y-110196997D02*
X138869997Y-110196997D01*
X138869997Y-110196997D02*
X138965235Y-110244616D01*
X138965235Y-110244616D02*
X139012854Y-110292235D01*
X139012854Y-110292235D02*
X139060473Y-110387473D01*
X139060473Y-110387473D02*
X139060473Y-110768425D01*
X138536664Y-109292235D02*
X138536664Y-109768425D01*
X138536664Y-109768425D02*
X139012854Y-109816044D01*
X139012854Y-109816044D02*
X138965235Y-109768425D01*
X138965235Y-109768425D02*
X138917616Y-109673187D01*
X138917616Y-109673187D02*
X138917616Y-109435092D01*
X138917616Y-109435092D02*
X138965235Y-109339854D01*
X138965235Y-109339854D02*
X139012854Y-109292235D01*
X139012854Y-109292235D02*
X139108092Y-109244616D01*
X139108092Y-109244616D02*
X139346187Y-109244616D01*
X139346187Y-109244616D02*
X139441425Y-109292235D01*
X139441425Y-109292235D02*
X139489045Y-109339854D01*
X139489045Y-109339854D02*
X139536664Y-109435092D01*
X139536664Y-109435092D02*
X139536664Y-109673187D01*
X139536664Y-109673187D02*
X139489045Y-109768425D01*
X139489045Y-109768425D02*
X139441425Y-109816044D01*
%TO.C,J4*%
X130489905Y-95549972D02*
X130489905Y-96264257D01*
X130489905Y-96264257D02*
X130442286Y-96407114D01*
X130442286Y-96407114D02*
X130347048Y-96502353D01*
X130347048Y-96502353D02*
X130204191Y-96549972D01*
X130204191Y-96549972D02*
X130108953Y-96549972D01*
X131394667Y-95883305D02*
X131394667Y-96549972D01*
X131156572Y-95502353D02*
X130918477Y-96216638D01*
X130918477Y-96216638D02*
X131537524Y-96216638D01*
%TO.C,U3*%
X138735438Y-118343836D02*
X139544961Y-118343836D01*
X139544961Y-118343836D02*
X139640199Y-118296217D01*
X139640199Y-118296217D02*
X139687819Y-118248598D01*
X139687819Y-118248598D02*
X139735438Y-118153360D01*
X139735438Y-118153360D02*
X139735438Y-117962884D01*
X139735438Y-117962884D02*
X139687819Y-117867646D01*
X139687819Y-117867646D02*
X139640199Y-117820027D01*
X139640199Y-117820027D02*
X139544961Y-117772408D01*
X139544961Y-117772408D02*
X138735438Y-117772408D01*
X138735438Y-117391455D02*
X138735438Y-116772408D01*
X138735438Y-116772408D02*
X139116390Y-117105741D01*
X139116390Y-117105741D02*
X139116390Y-116962884D01*
X139116390Y-116962884D02*
X139164009Y-116867646D01*
X139164009Y-116867646D02*
X139211628Y-116820027D01*
X139211628Y-116820027D02*
X139306866Y-116772408D01*
X139306866Y-116772408D02*
X139544961Y-116772408D01*
X139544961Y-116772408D02*
X139640199Y-116820027D01*
X139640199Y-116820027D02*
X139687819Y-116867646D01*
X139687819Y-116867646D02*
X139735438Y-116962884D01*
X139735438Y-116962884D02*
X139735438Y-117248598D01*
X139735438Y-117248598D02*
X139687819Y-117343836D01*
X139687819Y-117343836D02*
X139640199Y-117391455D01*
%TO.C,J1*%
X127415470Y-98564618D02*
X127415470Y-99278903D01*
X127415470Y-99278903D02*
X127367851Y-99421760D01*
X127367851Y-99421760D02*
X127272613Y-99516999D01*
X127272613Y-99516999D02*
X127129756Y-99564618D01*
X127129756Y-99564618D02*
X127034518Y-99564618D01*
X128415470Y-99564618D02*
X127844042Y-99564618D01*
X128129756Y-99564618D02*
X128129756Y-98564618D01*
X128129756Y-98564618D02*
X128034518Y-98707475D01*
X128034518Y-98707475D02*
X127939280Y-98802713D01*
X127939280Y-98802713D02*
X127844042Y-98850332D01*
D11*
%TO.C,U4*%
X125846171Y-119961230D02*
X125846171Y-116918230D01*
X125846171Y-116918230D02*
X130898171Y-116918230D01*
X130898171Y-116918230D02*
X130898171Y-119961230D01*
X130898171Y-119961230D02*
X125846171Y-119961230D01*
G36*
X126496435Y-119062112D02*
G01*
X126524574Y-119070648D01*
X126550507Y-119084510D01*
X126573237Y-119103164D01*
X126591891Y-119125894D01*
X126605753Y-119151827D01*
X126614289Y-119179966D01*
X126617171Y-119209230D01*
X126614289Y-119238494D01*
X126605753Y-119266633D01*
X126591891Y-119292566D01*
X126573237Y-119315296D01*
X126550507Y-119333950D01*
X126524574Y-119347812D01*
X126496435Y-119356348D01*
X126467171Y-119359230D01*
X126437907Y-119356348D01*
X126409768Y-119347812D01*
X126383835Y-119333950D01*
X126361105Y-119315296D01*
X126342451Y-119292566D01*
X126328589Y-119266633D01*
X126320053Y-119238494D01*
X126317171Y-119209230D01*
X126320053Y-119179966D01*
X126328589Y-119151827D01*
X126342451Y-119125894D01*
X126361105Y-119103164D01*
X126383835Y-119084510D01*
X126409768Y-119070648D01*
X126437907Y-119062112D01*
X126467171Y-119059230D01*
X126496435Y-119062112D01*
G37*
G36*
X125750435Y-121065112D02*
G01*
X125778574Y-121073648D01*
X125804507Y-121087510D01*
X125827237Y-121106164D01*
X125845891Y-121128894D01*
X125859753Y-121154827D01*
X125868289Y-121182966D01*
X125871171Y-121212230D01*
X125868289Y-121241494D01*
X125859753Y-121269633D01*
X125845891Y-121295566D01*
X125827237Y-121318296D01*
X125804507Y-121336950D01*
X125778574Y-121350812D01*
X125750435Y-121359348D01*
X125721171Y-121362230D01*
X125691907Y-121359348D01*
X125663768Y-121350812D01*
X125637835Y-121336950D01*
X125615105Y-121318296D01*
X125596451Y-121295566D01*
X125582589Y-121269633D01*
X125574053Y-121241494D01*
X125571171Y-121212230D01*
X125574053Y-121182966D01*
X125582589Y-121154827D01*
X125596451Y-121128894D01*
X125615105Y-121106164D01*
X125637835Y-121087510D01*
X125663768Y-121073648D01*
X125691907Y-121065112D01*
X125721171Y-121062230D01*
X125750435Y-121065112D01*
G37*
%TO.C,X1*%
X136801506Y-113275485D02*
X133444506Y-113275485D01*
X133444506Y-113275485D02*
X133444506Y-109217485D01*
X133444506Y-109217485D02*
X136801506Y-109217485D01*
X136801506Y-109217485D02*
X136801506Y-113275485D01*
X135373506Y-113503485D02*
X137030506Y-113503485D01*
X137030506Y-113503485D02*
X137030506Y-111646485D01*
D12*
%TO.C,U5*%
X134195865Y-100604046D02*
X133595865Y-100604046D01*
X133595865Y-100604046D02*
X133595865Y-101204046D01*
X139595865Y-100604046D02*
X138995865Y-100604046D01*
X139595865Y-101204046D02*
X139595865Y-100604046D01*
X133595865Y-106004046D02*
X133595865Y-106604046D01*
X133595865Y-106604046D02*
X134195865Y-106604046D01*
X138995865Y-106604046D02*
X139595865Y-106604046D01*
X139595865Y-106604046D02*
X139595865Y-106004046D01*
G36*
X140308129Y-105996928D02*
G01*
X140336268Y-106005464D01*
X140362201Y-106019326D01*
X140384931Y-106037980D01*
X140403585Y-106060710D01*
X140417447Y-106086643D01*
X140425983Y-106114782D01*
X140428865Y-106144046D01*
X140425983Y-106173310D01*
X140417447Y-106201449D01*
X140403585Y-106227382D01*
X140384931Y-106250112D01*
X140362201Y-106268766D01*
X140336268Y-106282628D01*
X140308129Y-106291164D01*
X140278865Y-106294046D01*
X140249601Y-106291164D01*
X140221462Y-106282628D01*
X140195529Y-106268766D01*
X140172799Y-106250112D01*
X140154145Y-106227382D01*
X140140283Y-106201449D01*
X140131747Y-106173310D01*
X140128865Y-106144046D01*
X140131747Y-106114782D01*
X140140283Y-106086643D01*
X140154145Y-106060710D01*
X140172799Y-106037980D01*
X140195529Y-106019326D01*
X140221462Y-106005464D01*
X140249601Y-105996928D01*
X140278865Y-105994046D01*
X140308129Y-105996928D01*
G37*
%TO.C,JITX1*%
G36*
X151497799Y-106119896D02*
G01*
X150453512Y-106557348D01*
X149617038Y-105944114D01*
X151497684Y-105213548D01*
X151497799Y-106119896D01*
G37*
G36*
X147824227Y-104373882D02*
G01*
X147876588Y-104534296D01*
X147962394Y-104679595D01*
X148077587Y-104802903D01*
X149617038Y-105944114D01*
X148805431Y-106259394D01*
X148023328Y-105714131D01*
X147924924Y-105589242D01*
X147854551Y-105446664D01*
X147815269Y-105292593D01*
X147808784Y-105133726D01*
X147807790Y-104205941D01*
X147824227Y-104373882D01*
G37*
G36*
X149104706Y-107844047D02*
G01*
X149105730Y-108539120D01*
X151497761Y-108960018D01*
X151497773Y-109484338D01*
X148039421Y-108875966D01*
X148039383Y-108351890D01*
X148564074Y-108443405D01*
X148564369Y-107749907D01*
X149104706Y-107844047D01*
G37*
G36*
X148315661Y-109261910D02*
G01*
X148366142Y-109278204D01*
X148411732Y-109305321D01*
X148463705Y-109339356D01*
X148507826Y-109383093D01*
X148542315Y-109434765D01*
X148565779Y-109492289D01*
X148577273Y-109553341D01*
X148576332Y-109615459D01*
X148562994Y-109676136D01*
X148537839Y-109715930D01*
X148505404Y-109750052D01*
X148466936Y-109777191D01*
X148423912Y-109796303D01*
X148377986Y-109806655D01*
X148330923Y-109807848D01*
X148284532Y-109799837D01*
X148240595Y-109782929D01*
X148240596Y-109782930D01*
X148173533Y-109743465D01*
X148117271Y-109689713D01*
X148074790Y-109624520D01*
X148048341Y-109551341D01*
X148039324Y-109474053D01*
X148052362Y-109410119D01*
X148079846Y-109350940D01*
X148116429Y-109312528D01*
X148160642Y-109283218D01*
X148210268Y-109264482D01*
X148262820Y-109257259D01*
X148315661Y-109261910D01*
G37*
G36*
X151562755Y-110623035D02*
G01*
X151887442Y-110751484D01*
X152179375Y-110943046D01*
X152426448Y-111189777D01*
X152618413Y-111481444D01*
X152747312Y-111805953D01*
X152807798Y-112149846D01*
X152285065Y-112062916D01*
X152261225Y-111861265D01*
X152195400Y-111669174D01*
X152090552Y-111495282D01*
X151951395Y-111347408D01*
X151784185Y-111232201D01*
X151596443Y-111154842D01*
X148873958Y-110675719D01*
X148873983Y-110150835D01*
X151562755Y-110623035D01*
G37*
G36*
X149111619Y-109391209D02*
G01*
X151266898Y-109764134D01*
X151311888Y-109765835D01*
X151356128Y-109757482D01*
X151397400Y-109739494D01*
X151433635Y-109712773D01*
X151463016Y-109678658D01*
X151484068Y-109638862D01*
X151495738Y-109595378D01*
X151496672Y-110048514D01*
X151491449Y-110087975D01*
X151478628Y-110125659D01*
X151458701Y-110160118D01*
X151432434Y-110190027D01*
X151400838Y-110214237D01*
X151365125Y-110231817D01*
X151326669Y-110242093D01*
X151286947Y-110244668D01*
X149106535Y-109868930D01*
X149060362Y-109868604D01*
X149015250Y-109878448D01*
X148973411Y-109897979D01*
X148936896Y-109926239D01*
X148907497Y-109961843D01*
X148886654Y-110003045D01*
X148875391Y-110047823D01*
X148874406Y-109578875D01*
X148885245Y-109532224D01*
X148906193Y-109489155D01*
X148936200Y-109451826D01*
X148973760Y-109422111D01*
X149016992Y-109401499D01*
X149063726Y-109391023D01*
X149111619Y-109391209D01*
G37*
G36*
X150453512Y-106557348D02*
G01*
X151222061Y-107139307D01*
X151338331Y-107259695D01*
X151425530Y-107402553D01*
X151479457Y-107560995D01*
X151497511Y-107727386D01*
X151497645Y-108667893D01*
X151449234Y-108457828D01*
X151353505Y-108264679D01*
X151215661Y-108098938D01*
X149656693Y-106917624D01*
X147809787Y-107610085D01*
X147810658Y-106645829D01*
X148805431Y-106259394D01*
X149617038Y-105944114D01*
X150453512Y-106557348D01*
G37*
D11*
%TO.C,R8*%
X140900658Y-107338852D02*
X140182658Y-107338852D01*
X140182658Y-107338852D02*
X140182658Y-106341852D01*
X140182658Y-106341852D02*
X140900658Y-106341852D01*
X141352658Y-107338852D02*
X142070658Y-107338852D01*
X142070658Y-107338852D02*
X142070658Y-106341852D01*
X142070658Y-106341852D02*
X141352658Y-106341852D01*
%TO.C,U3*%
X147736619Y-121258221D02*
X147736619Y-115006221D01*
X140983619Y-121258221D02*
X140983619Y-115006221D01*
X147736619Y-115006221D02*
X140983619Y-115006221D01*
%TD*%
%LPC*%
D13*
%TO.C,U4*%
X126467171Y-121212230D03*
X127737171Y-121212230D03*
X129007171Y-121212230D03*
X130277171Y-121212230D03*
X126467171Y-115667230D03*
X127737171Y-115667230D03*
X129007171Y-115667230D03*
X130277171Y-115667230D03*
%TD*%
D14*
%TO.C,C11*%
X132381115Y-101692393D03*
X132381115Y-100722671D03*
%TD*%
D15*
%TO.C,U1*%
X150050000Y-97450000D03*
D16*
X150050000Y-97450000D03*
%TD*%
D17*
%TO.C,C10*%
X138644942Y-107591651D03*
X138644942Y-108548873D03*
%TD*%
D18*
%TO.C,J2*%
X127956411Y-96246728D03*
%TD*%
D19*
%TO.C,C9*%
X131841689Y-103715096D03*
X130884467Y-103715096D03*
%TD*%
D20*
%TO.C,X1*%
X135973506Y-112346485D03*
X135973506Y-110146485D03*
X134273506Y-110146485D03*
X134273506Y-112346485D03*
%TD*%
D21*
%TO.C,C8*%
X136529089Y-97138773D03*
X137486311Y-97138773D03*
%TD*%
D22*
%TO.C,C1*%
X148863158Y-115334074D03*
X148863158Y-114376852D03*
%TD*%
D23*
%TO.C,R4*%
X128202801Y-106729721D03*
X129122523Y-106729721D03*
%TD*%
D21*
%TO.C,C7*%
X140695641Y-103134378D03*
X141652863Y-103134378D03*
%TD*%
D24*
%TO.C,R7*%
X134176631Y-114068215D03*
X133256909Y-114068215D03*
%TD*%
D25*
%TO.C,R1*%
X148106609Y-101082516D03*
X148106609Y-102002238D03*
%TD*%
D21*
%TO.C,C3*%
X141288731Y-110961796D03*
X142245953Y-110961796D03*
%TD*%
D23*
%TO.C,R3*%
X126883250Y-108885762D03*
X127802972Y-108885762D03*
%TD*%
D26*
%TO.C,U5*%
X136595865Y-103604046D03*
D27*
X139405865Y-103604046D03*
X139405865Y-104104046D03*
X139405865Y-104604046D03*
X139405865Y-105104046D03*
X139405865Y-105604046D03*
X139405865Y-103104046D03*
X139405865Y-102604046D03*
X139405865Y-102104046D03*
X139405865Y-101604046D03*
X133785865Y-101604046D03*
X133785865Y-102104046D03*
X133785865Y-102604046D03*
X133785865Y-103104046D03*
X133785865Y-105604046D03*
X133785865Y-105104046D03*
X133785865Y-104604046D03*
X133785865Y-104104046D03*
X133785865Y-103604046D03*
D28*
X134595865Y-100795046D03*
X135095865Y-100795046D03*
X135595865Y-100795046D03*
X136095865Y-100795046D03*
X138595865Y-100795046D03*
X138095865Y-100795046D03*
X137595865Y-100795046D03*
X137095865Y-100795046D03*
X136595865Y-100795046D03*
X134595865Y-106414046D03*
X135095865Y-106414046D03*
X135595865Y-106414046D03*
X136095865Y-106414046D03*
X138595865Y-106414046D03*
X138095865Y-106414046D03*
X137595865Y-106414046D03*
X137095865Y-106414046D03*
X136595865Y-106414046D03*
%TD*%
D17*
%TO.C,C6*%
X137482233Y-107541601D03*
X137482233Y-108498823D03*
%TD*%
D19*
%TO.C,C13*%
X134168661Y-108309522D03*
X133211439Y-108309522D03*
%TD*%
D29*
%TO.C,R8*%
X141559658Y-106840852D03*
X140693658Y-106840852D03*
%TD*%
D22*
%TO.C,C2*%
X145833737Y-109688708D03*
X145833737Y-108731486D03*
%TD*%
D23*
%TO.C,R2*%
X125847533Y-110727391D03*
X126767255Y-110727391D03*
%TD*%
D22*
%TO.C,C5*%
X137089343Y-99646251D03*
X137089343Y-98689029D03*
%TD*%
D30*
%TO.C,Card1*%
X140225000Y-98500000D03*
D31*
X140275000Y-119500000D03*
%TD*%
D32*
%TO.C,LED1*%
X143607724Y-106840352D03*
X145045592Y-106840352D03*
%TD*%
D18*
%TO.C,J3*%
X131056577Y-98778237D03*
%TD*%
D21*
%TO.C,C12*%
X137573127Y-112571302D03*
X138530349Y-112571302D03*
%TD*%
%TO.C,C4*%
X134774512Y-99695657D03*
X135731734Y-99695657D03*
%TD*%
D23*
%TO.C,R6*%
X134495873Y-97122587D03*
X135415595Y-97122587D03*
%TD*%
D25*
%TO.C,R5*%
X138129245Y-109570470D03*
X138129245Y-110490192D03*
%TD*%
D15*
%TO.C,U2*%
X150050000Y-118550000D03*
D16*
X150050000Y-118550000D03*
%TD*%
D18*
%TO.C,J4*%
X130823239Y-96092553D03*
%TD*%
D33*
%TO.C,U3*%
X146659619Y-113037221D03*
X142060619Y-113037221D03*
D34*
X144360619Y-119734221D03*
%TD*%
D18*
%TO.C,J1*%
X127748804Y-99107199D03*
%TD*%
%LPD*%
M02*
