M48
; DRILL file {KiCad 7.0.2-0} date 2023 June 27, Tuesday 10:53:37
; FORMAT={-:-/ absolute / inch / decimal}
; #@! TF.CreationDate,2023-06-27T10:53:37-07:00
; #@! TF.GenerationSoftware,Kicad,Pcbnew,7.0.2-0
; #@! TF.FileFunction,Plated,1,2,PTH
FMAT,2
INCH
; #@! TA.AperFunction,Plated,PTH,ViaDrill
T1C0.0079
%
G90
G05
T1
X4.925Y-4.095
X4.925Y-4.155
X4.925Y-4.215
X4.925Y-4.275
X4.97Y-4.21
X5.01Y-4.11
X5.035Y-3.845
X5.14Y-3.945
X5.21Y-3.82
X5.2313Y-4.1143
X5.2333Y-4.0862
X5.2343Y-4.1429
X5.2348Y-4.0397
X5.245Y-4.805
X5.265Y-3.9
X5.31Y-4.805
X5.32Y-4.38
X5.33Y-3.87
X5.3395Y-4.2195
X5.37Y-4.805
X5.4359Y-3.9297
X5.44Y-4.805
X5.515Y-4.355
X5.5182Y-4.0828
X5.5227Y-3.9976
X5.5358Y-4.1111
X5.54Y-4.255
X5.72Y-3.83
X5.7426Y-4.2061
X5.8215Y-4.4369
X5.8297Y-4.0675
X5.8416Y-4.1906
X5.8457Y-4.1598
X5.8464Y-4.301
T0
M30
