%TF.GenerationSoftware,KiCad,Pcbnew,7.0.5*%
%TF.CreationDate,2023-06-23T15:18:34+05:00*%
%TF.ProjectId,jitx-design,6a697478-2d64-4657-9369-676e2e6b6963,rev?*%
%TF.SameCoordinates,Original*%
%TF.FileFunction,Copper,L2,Bot*%
%TF.FilePolarity,Positive*%
%FSLAX46Y46*%
G04 Gerber Fmt 4.6, Leading zero omitted, Abs format (unit mm)*
G04 Created by KiCad (PCBNEW 7.0.5) date 2023-06-23 15:18:34*
%MOMM*%
%LPD*%
G01*
G04 APERTURE LIST*
%TA.AperFunction,ComponentPad*%
%ADD10C,1.540000*%
%TD*%
%TA.AperFunction,SMDPad,CuDef*%
%ADD11R,1.000000X0.300000*%
%TD*%
%TA.AperFunction,SMDPad,CuDef*%
%ADD12R,1.200000X0.500000*%
%TD*%
%TA.AperFunction,SMDPad,CuDef*%
%ADD13R,2.100000X1.300000*%
%TD*%
%TA.AperFunction,SMDPad,CuDef*%
%ADD14R,2.800000X1.500000*%
%TD*%
%TA.AperFunction,SMDPad,CuDef*%
%ADD15R,2.000000X0.700000*%
%TD*%
%TA.AperFunction,SMDPad,CuDef*%
%ADD16R,2.000000X1.000000*%
%TD*%
%TA.AperFunction,ViaPad*%
%ADD17C,0.460000*%
%TD*%
%TA.AperFunction,Conductor*%
%ADD18C,0.090000*%
%TD*%
%TA.AperFunction,Conductor*%
%ADD19C,0.381000*%
%TD*%
G04 APERTURE END LIST*
D10*
%TO.P,J2,p*%
%TO.N,gnd*%
X127956411Y-96246728D03*
%TD*%
D11*
%TO.P,USB1,A1*%
%TO.N,gnd*%
X149437500Y-110750000D03*
%TO.P,USB1,A2*%
%TO.N,SSTXP1*%
X149437500Y-110250000D03*
%TO.P,USB1,A3*%
%TO.N,SSTXN1*%
X149437500Y-109750000D03*
%TO.P,USB1,A4*%
%TO.N,vdd50*%
X149437500Y-109250000D03*
%TO.P,USB1,B9*%
X149437500Y-107250000D03*
%TO.P,USB1,B10*%
%TO.N,SSRXN1*%
X149437500Y-107750000D03*
%TO.P,USB1,B11*%
%TO.N,SSRXP1*%
X149437500Y-108250000D03*
%TO.P,USB1,B12*%
%TO.N,gnd*%
X149437500Y-108750000D03*
%TO.P,USB1,A5*%
%TO.N,CC1*%
X149437500Y-106750000D03*
%TO.P,USB1,A6*%
%TO.N,USB+*%
X149437500Y-106250000D03*
%TO.P,USB1,A7*%
%TO.N,USB-*%
X149437500Y-105750000D03*
%TO.P,USB1,A12*%
%TO.N,gnd*%
X149437500Y-105250000D03*
D12*
%TO.P,USB1,13*%
X150336500Y-104425000D03*
%TO.P,USB1,16*%
X150336500Y-111575000D03*
D13*
%TO.P,USB1,14*%
%TO.N,GND0*%
X149887500Y-103300000D03*
%TO.P,USB1,15*%
%TO.N,GND2*%
X149887500Y-112700000D03*
%TD*%
D14*
%TO.P,Card1,15*%
%TO.N,gnd*%
X141225000Y-96550000D03*
%TO.P,Card1,14*%
X126725000Y-94350000D03*
%TO.P,Card1,13*%
X126825000Y-121650000D03*
%TO.P,Card1,12*%
X141325000Y-121650000D03*
D15*
%TO.P,Card1,11*%
%TO.N,xD_D4_SD_WP_MS_SCLK*%
X143275000Y-120260000D03*
%TO.P,Card1,10*%
%TO.N,SD_nCD*%
X143275000Y-119060000D03*
D16*
%TO.P,Card1,9*%
%TO.N,xD_D5_SD_D2*%
X143275000Y-98630000D03*
%TO.P,Card1,8*%
%TO.N,xD_D3_SD_D1_MS_D5*%
X143275000Y-117760000D03*
%TO.P,Card1,7*%
%TO.N,xD_D2_SD_D0_MS_D4*%
X143275000Y-116060000D03*
%TO.P,Card1,6*%
%TO.N,gnd*%
X143275000Y-113630000D03*
%TO.P,Card1,5*%
%TO.N,xD_nWP_SD_CLK_MS_BS*%
X143275000Y-111130000D03*
%TO.P,Card1,4*%
%TO.N,CRD_PWR*%
X143275000Y-108630000D03*
%TO.P,Card1,3*%
%TO.N,gnd*%
X143275000Y-106130000D03*
%TO.P,Card1,2*%
%TO.N,xD_CLE_SD_CMD_MS_D0*%
X143275000Y-103630000D03*
%TO.P,Card1,1*%
%TO.N,xD_D6_SD_D3_MS_D3*%
X143275000Y-101130000D03*
%TD*%
D10*
%TO.P,J3,p*%
%TO.N,RXD_SDA*%
X131056577Y-98778237D03*
%TD*%
%TO.P,J4,p*%
%TO.N,TXD_SCK_MS_SKT_SEL*%
X130823239Y-96092553D03*
%TD*%
%TO.P,J1,p*%
%TO.N,vdd33*%
X127748804Y-99107199D03*
%TD*%
D17*
%TO.N,xD_D5_SD_D2*%
X132875267Y-104504289D03*
%TO.N,xD_nWP_SD_CLK_MS_BS*%
X140277779Y-101538626D03*
%TO.N,USB+*%
X148376429Y-106441460D03*
%TO.N,SD_nCD*%
X132950211Y-105229456D03*
%TO.N,vdd50*%
X148499059Y-109244183D03*
%TO.N,xD_D3_SD_D1_MS_D5*%
X140608833Y-104422235D03*
%TO.N,xD_CLE_SD_CMD_MS_D0*%
X138071854Y-99815084D03*
%TO.N,xD_D6_SD_D3_MS_D3*%
X132924651Y-103789389D03*
%TO.N,xD_D2_SD_D0_MS_D4*%
X140163333Y-103703554D03*
%TO.N,GND2*%
X147864967Y-112698484D03*
%TO.N,CRD_PWR*%
X132964004Y-102607356D03*
%TO.N,GND0*%
X148074784Y-103313947D03*
%TO.N,xD_D4_SD_WP_MS_SCLK*%
X135623659Y-107175070D03*
%TO.N,USB-*%
X148479985Y-105658221D03*
%TD*%
D18*
%TO.N,xD_nWP_SD_CLK_MS_BS*%
X140277779Y-101538626D02*
X142138658Y-106679354D01*
X142138658Y-106679354D02*
G75*
G03*
X142211891Y-106760546I136342J49354D01*
G01*
X142211891Y-106760546D02*
X144420804Y-107828394D01*
X144609999Y-108130000D02*
G75*
G03*
X144420804Y-107828395I-334999J0D01*
G01*
X144610000Y-108130000D02*
X144610000Y-109130000D01*
X144548806Y-109323016D02*
G75*
G03*
X144610000Y-109130000I-273806J193016D01*
G01*
X144548806Y-109323016D02*
X143275000Y-111130000D01*
%TO.N,USB+*%
X149437500Y-106250000D02*
X148376429Y-106441460D01*
%TO.N,SD_nCD*%
X143275000Y-119060000D02*
X142141444Y-118567226D01*
X141998554Y-118449215D02*
G75*
G03*
X142141444Y-118567226I276446J189215D01*
G01*
X141998554Y-118449215D02*
X132950211Y-105229456D01*
D19*
%TO.N,vdd50*%
X149437500Y-109250000D02*
X149970734Y-109188593D01*
X149970734Y-109188593D02*
G75*
G03*
X150228000Y-108900000I-33234J288593D01*
G01*
X150228000Y-108900000D02*
X150228000Y-107600000D01*
X150228000Y-107600000D02*
G75*
G03*
X149970734Y-107311407I-290500J0D01*
G01*
X149970734Y-107311407D02*
X149437500Y-107250000D01*
X149437500Y-109250000D02*
X148499059Y-109244183D01*
D18*
%TO.N,xD_CLE_SD_CMD_MS_D0*%
X143275000Y-103630000D02*
X144400214Y-101703119D01*
X144400214Y-101703119D02*
G75*
G03*
X144419581Y-101641020I-125214J73119D01*
G01*
X144419581Y-101641020D02*
X144609031Y-99155460D01*
X144609030Y-99155460D02*
G75*
G03*
X144610000Y-99130000I-333530J25460D01*
G01*
X144610000Y-99130000D02*
X144610000Y-98130000D01*
X144610000Y-98130000D02*
G75*
G03*
X144275000Y-97795000I-335000J0D01*
G01*
X144275000Y-97795000D02*
X142275000Y-97795000D01*
X142275000Y-97795000D02*
G75*
G03*
X141997095Y-97942933I0J-335000D01*
G01*
X141997095Y-97942933D02*
X141186467Y-99147195D01*
X140307233Y-99656078D02*
G75*
G03*
X141186466Y-99147195I-82233J1156078D01*
G01*
X140307233Y-99656079D02*
X138071854Y-99815084D01*
%TO.N,xD_D6_SD_D3_MS_D3*%
X143275000Y-101130000D02*
X144400214Y-99203119D01*
X144400214Y-99203119D02*
G75*
G03*
X144420000Y-99130000I-125214J73119D01*
G01*
X144420000Y-99130000D02*
X144420000Y-98130000D01*
X144420000Y-98130000D02*
G75*
G03*
X144275000Y-97985000I-145000J0D01*
G01*
X144275000Y-97985000D02*
X142275000Y-97985000D01*
X142275000Y-97985001D02*
G75*
G03*
X142154714Y-98049031I0J-144999D01*
G01*
X142154713Y-98049031D02*
X141344085Y-99253293D01*
X140626839Y-99787760D02*
G75*
G03*
X141344085Y-99253293I-401839J1287760D01*
G01*
X140626839Y-99787760D02*
X132842172Y-102216923D01*
X132842190Y-102216980D02*
G75*
G03*
X132575747Y-102735949I121810J-390420D01*
G01*
X132575746Y-102735949D02*
X132924651Y-103789389D01*
%TO.N,xD_D2_SD_D0_MS_D4*%
X140163333Y-103703554D02*
X140808855Y-104065483D01*
X140989507Y-104272765D02*
G75*
G03*
X140808855Y-104065483I-380707J-149435D01*
G01*
X140989538Y-104272753D02*
X141963176Y-106752437D01*
X141963177Y-106752437D02*
G75*
G03*
X142129196Y-106931605I311823J122437D01*
G01*
X142129196Y-106931606D02*
X144338109Y-107999454D01*
X144420000Y-108130000D02*
G75*
G03*
X144338109Y-107999454I-145000J0D01*
G01*
X144420000Y-108130000D02*
X144420000Y-109130000D01*
X144347957Y-109255309D02*
G75*
G03*
X144420000Y-109130000I-72957J125309D01*
G01*
X144347957Y-109255309D02*
X142202043Y-110504691D01*
X142202043Y-110504691D02*
G75*
G03*
X142130000Y-110630000I72957J-125309D01*
G01*
X142130000Y-110630000D02*
X142130000Y-114130000D01*
X142130000Y-114130000D02*
G75*
G03*
X142150992Y-114205147I145000J0D01*
G01*
X142150992Y-114205147D02*
X143275000Y-116060000D01*
%TO.N,GND2*%
X147864967Y-112698484D02*
X149887500Y-112700000D01*
%TO.N,CRD_PWR*%
X143275000Y-108630000D02*
X132964004Y-102607356D01*
%TO.N,GND0*%
X148074784Y-103313947D02*
X149887500Y-103300000D01*
%TO.N,xD_D4_SD_WP_MS_SCLK*%
X135623659Y-107175070D02*
X142149836Y-118333206D01*
X142149837Y-118333205D02*
G75*
G03*
X142263503Y-118404542I125163J73205D01*
G01*
X142263503Y-118404543D02*
X144286497Y-118565457D01*
X144419999Y-118710000D02*
G75*
G03*
X144286497Y-118565458I-144999J0D01*
G01*
X144420000Y-118710000D02*
X144420000Y-119410000D01*
X144356128Y-119530180D02*
G75*
G03*
X144420000Y-119410000I-81128J120180D01*
G01*
X144356128Y-119530180D02*
X143275000Y-120260000D01*
%TO.N,USB-*%
X148479985Y-105658221D02*
X149437500Y-105750000D01*
%TD*%
%TA.AperFunction,Conductor*%
%TO.N,gnd*%
G36*
X149295399Y-93204601D02*
G01*
X149299500Y-93214500D01*
X149299500Y-95045762D01*
X149308868Y-95065218D01*
X149309903Y-95068176D01*
X149314709Y-95089230D01*
X149314710Y-95089231D01*
X149325652Y-95102952D01*
X149328176Y-95106116D01*
X149329841Y-95108766D01*
X149339212Y-95128224D01*
X149339213Y-95128225D01*
X149356094Y-95141688D01*
X149358310Y-95143904D01*
X149371774Y-95160786D01*
X149371776Y-95160788D01*
X149371777Y-95160788D01*
X149371778Y-95160789D01*
X149391229Y-95170157D01*
X149393883Y-95171824D01*
X149405809Y-95181335D01*
X149410769Y-95185290D01*
X149431824Y-95190095D01*
X149434776Y-95191128D01*
X149454237Y-95200500D01*
X149477410Y-95200500D01*
X154285500Y-95200500D01*
X154295399Y-95204601D01*
X154299500Y-95214500D01*
X154299500Y-103663500D01*
X154295399Y-103673399D01*
X154285500Y-103677500D01*
X151135909Y-103677500D01*
X151128685Y-103679149D01*
X151125570Y-103679500D01*
X151109735Y-103679500D01*
X151095471Y-103686368D01*
X151092514Y-103687403D01*
X151069270Y-103692709D01*
X151069267Y-103692710D01*
X151060727Y-103699521D01*
X151050430Y-103702487D01*
X151041053Y-103697303D01*
X151037999Y-103688575D01*
X151037999Y-102640103D01*
X151037096Y-102635561D01*
X151032169Y-102610787D01*
X151009957Y-102577543D01*
X150976713Y-102555331D01*
X150976712Y-102555330D01*
X150976711Y-102555330D01*
X150954676Y-102550947D01*
X150947399Y-102549500D01*
X150947398Y-102549500D01*
X148827603Y-102549500D01*
X148798287Y-102555331D01*
X148765043Y-102577543D01*
X148742830Y-102610788D01*
X148737000Y-102640101D01*
X148737000Y-103149453D01*
X148732899Y-103159352D01*
X148723108Y-103163453D01*
X148405899Y-103165894D01*
X148395968Y-103161869D01*
X148393317Y-103158250D01*
X148365155Y-103102978D01*
X148285752Y-103023575D01*
X148185696Y-102972595D01*
X148185697Y-102972595D01*
X148074784Y-102955028D01*
X147963871Y-102972595D01*
X147863815Y-103023575D01*
X147784412Y-103102978D01*
X147733432Y-103203034D01*
X147715865Y-103313947D01*
X147733432Y-103424859D01*
X147784412Y-103524915D01*
X147863815Y-103604318D01*
X147863817Y-103604319D01*
X147963872Y-103655299D01*
X148074784Y-103672866D01*
X148185696Y-103655299D01*
X148285751Y-103604319D01*
X148365156Y-103524914D01*
X148395923Y-103464526D01*
X148404069Y-103457569D01*
X148408284Y-103456884D01*
X148722893Y-103454464D01*
X148732823Y-103458489D01*
X148737000Y-103468356D01*
X148737000Y-103959896D01*
X148741383Y-103981934D01*
X148742831Y-103989213D01*
X148765043Y-104022457D01*
X148798287Y-104044669D01*
X148827601Y-104050500D01*
X150941000Y-104050499D01*
X150950899Y-104054600D01*
X150955000Y-104064499D01*
X150955000Y-104131084D01*
X150950899Y-104140983D01*
X150941000Y-104145084D01*
X150939631Y-104145017D01*
X150939458Y-104145000D01*
X150354000Y-104145000D01*
X150354000Y-104704999D01*
X150939447Y-104704999D01*
X150939618Y-104704982D01*
X150939674Y-104704999D01*
X150940143Y-104704999D01*
X150940143Y-104705140D01*
X150949874Y-104708086D01*
X150954932Y-104717532D01*
X150955000Y-104718914D01*
X150955000Y-111281084D01*
X150950899Y-111290983D01*
X150941000Y-111295084D01*
X150939631Y-111295017D01*
X150939458Y-111295000D01*
X150354000Y-111295000D01*
X150354000Y-111854999D01*
X150939447Y-111854999D01*
X150939618Y-111854982D01*
X150939674Y-111854999D01*
X150940143Y-111854999D01*
X150940143Y-111855140D01*
X150949874Y-111858086D01*
X150954932Y-111867532D01*
X150955000Y-111868914D01*
X150955000Y-111935500D01*
X150950899Y-111945399D01*
X150941000Y-111949500D01*
X148827603Y-111949500D01*
X148798287Y-111955331D01*
X148765043Y-111977543D01*
X148742830Y-112010788D01*
X148737000Y-112040101D01*
X148737000Y-112539626D01*
X148732899Y-112549525D01*
X148723000Y-112553626D01*
X148722990Y-112553626D01*
X148197391Y-112553232D01*
X148187494Y-112549124D01*
X148184927Y-112545588D01*
X148181889Y-112539626D01*
X148155339Y-112487517D01*
X148155338Y-112487515D01*
X148075935Y-112408112D01*
X147975879Y-112357132D01*
X147975880Y-112357132D01*
X147864967Y-112339565D01*
X147754054Y-112357132D01*
X147653998Y-112408112D01*
X147574595Y-112487515D01*
X147523615Y-112587571D01*
X147506048Y-112698484D01*
X147523615Y-112809396D01*
X147574595Y-112909452D01*
X147653998Y-112988855D01*
X147654000Y-112988856D01*
X147754055Y-113039836D01*
X147864967Y-113057403D01*
X147975879Y-113039836D01*
X148075934Y-112988856D01*
X148155339Y-112909451D01*
X148184673Y-112851875D01*
X148192820Y-112844917D01*
X148197154Y-112844232D01*
X148723011Y-112844626D01*
X148732907Y-112848734D01*
X148737000Y-112858626D01*
X148737000Y-113359896D01*
X148737001Y-113359899D01*
X148742831Y-113389213D01*
X148765043Y-113422457D01*
X148798287Y-113444669D01*
X148827601Y-113450500D01*
X150947398Y-113450499D01*
X150976713Y-113444669D01*
X151009957Y-113422457D01*
X151032169Y-113389213D01*
X151038000Y-113359899D01*
X151037999Y-112318232D01*
X151042099Y-112308334D01*
X151051999Y-112304233D01*
X151058074Y-112305620D01*
X151070731Y-112311716D01*
X151073133Y-112313225D01*
X151073397Y-112313352D01*
X151076077Y-112314289D01*
X151109737Y-112330500D01*
X151201263Y-112330500D01*
X151201915Y-112330185D01*
X151202539Y-112329886D01*
X151208612Y-112328500D01*
X154285500Y-112328500D01*
X154295399Y-112332601D01*
X154299500Y-112342500D01*
X154299500Y-120785500D01*
X154295399Y-120795399D01*
X154285500Y-120799500D01*
X149454235Y-120799500D01*
X149434779Y-120808868D01*
X149431822Y-120809903D01*
X149410770Y-120814709D01*
X149410767Y-120814710D01*
X149393881Y-120828176D01*
X149391228Y-120829843D01*
X149371778Y-120839210D01*
X149371774Y-120839213D01*
X149358311Y-120856095D01*
X149356095Y-120858311D01*
X149339213Y-120871774D01*
X149339210Y-120871778D01*
X149329843Y-120891228D01*
X149328176Y-120893881D01*
X149314710Y-120910767D01*
X149314709Y-120910770D01*
X149309903Y-120931822D01*
X149308868Y-120934779D01*
X149299500Y-120954235D01*
X149299500Y-122785500D01*
X149295399Y-122795399D01*
X149285500Y-122799500D01*
X124714500Y-122799500D01*
X124704601Y-122795399D01*
X124700500Y-122785500D01*
X124700500Y-122402952D01*
X125395000Y-122402952D01*
X125396739Y-122411705D01*
X125403371Y-122421630D01*
X125413293Y-122428259D01*
X125422044Y-122429999D01*
X126807499Y-122429999D01*
X126842499Y-122429999D01*
X128227952Y-122429999D01*
X128236705Y-122428260D01*
X128246630Y-122421628D01*
X128253259Y-122411707D01*
X128253259Y-122411705D01*
X128255000Y-122402955D01*
X128255000Y-121667500D01*
X139895001Y-121667500D01*
X139895001Y-122402952D01*
X139896739Y-122411705D01*
X139903371Y-122421630D01*
X139913293Y-122428259D01*
X139922044Y-122429999D01*
X141307500Y-122429999D01*
X141307500Y-121667500D01*
X141342500Y-121667500D01*
X141342500Y-122429999D01*
X142727952Y-122429999D01*
X142736705Y-122428260D01*
X142746630Y-122421628D01*
X142753259Y-122411707D01*
X142753259Y-122411705D01*
X142755000Y-122402955D01*
X142755000Y-121667500D01*
X141342500Y-121667500D01*
X141307500Y-121667500D01*
X139895001Y-121667500D01*
X128255000Y-121667500D01*
X126842500Y-121667500D01*
X126842499Y-122429999D01*
X126807499Y-122429999D01*
X126807500Y-121667500D01*
X125395001Y-121667500D01*
X125395000Y-122402952D01*
X124700500Y-122402952D01*
X124700500Y-121632500D01*
X125395000Y-121632500D01*
X126807500Y-121632500D01*
X126807499Y-120870000D01*
X126842499Y-120870000D01*
X126842500Y-121632500D01*
X128254999Y-121632500D01*
X139895000Y-121632500D01*
X141307500Y-121632500D01*
X141307500Y-120870000D01*
X141342500Y-120870000D01*
X141342500Y-121632500D01*
X142754999Y-121632500D01*
X142754999Y-120897047D01*
X142753260Y-120888294D01*
X142746628Y-120878369D01*
X142736706Y-120871740D01*
X142727956Y-120870000D01*
X141342500Y-120870000D01*
X141307500Y-120870000D01*
X139922047Y-120870000D01*
X139913294Y-120871739D01*
X139903369Y-120878371D01*
X139896740Y-120888292D01*
X139896740Y-120888294D01*
X139895000Y-120897044D01*
X139895000Y-121632500D01*
X128254999Y-121632500D01*
X128254999Y-120897047D01*
X128253260Y-120888294D01*
X128246628Y-120878369D01*
X128236706Y-120871740D01*
X128227956Y-120870000D01*
X126842499Y-120870000D01*
X126807499Y-120870000D01*
X125422047Y-120870000D01*
X125413294Y-120871739D01*
X125403369Y-120878371D01*
X125396740Y-120888292D01*
X125396740Y-120888294D01*
X125395000Y-120897044D01*
X125395000Y-121632500D01*
X124700500Y-121632500D01*
X124700500Y-119453472D01*
X139416721Y-119453472D01*
X139426783Y-119639057D01*
X139476507Y-119818147D01*
X139476507Y-119818148D01*
X139563568Y-119982360D01*
X139563573Y-119982367D01*
X139683894Y-120124021D01*
X139831855Y-120236498D01*
X139831856Y-120236498D01*
X139831861Y-120236502D01*
X140000548Y-120314545D01*
X140182067Y-120354500D01*
X140182068Y-120354500D01*
X140321325Y-120354500D01*
X140321332Y-120354500D01*
X140459775Y-120339443D01*
X140635911Y-120280096D01*
X140795171Y-120184273D01*
X140930108Y-120056454D01*
X141034413Y-119902615D01*
X141103209Y-119729951D01*
X141133278Y-119546535D01*
X141132712Y-119536103D01*
X141123216Y-119360942D01*
X141073492Y-119181852D01*
X141073492Y-119181851D01*
X141017145Y-119075570D01*
X140986431Y-119017638D01*
X140923496Y-118943545D01*
X140866105Y-118875978D01*
X140718144Y-118763501D01*
X140718141Y-118763499D01*
X140718139Y-118763498D01*
X140549452Y-118685455D01*
X140367933Y-118645500D01*
X140228668Y-118645500D01*
X140228660Y-118645500D01*
X140090227Y-118660556D01*
X140090216Y-118660559D01*
X139914097Y-118719900D01*
X139914090Y-118719903D01*
X139754830Y-118815726D01*
X139754828Y-118815727D01*
X139619892Y-118943545D01*
X139515586Y-119097386D01*
X139446791Y-119270047D01*
X139416721Y-119453472D01*
X124700500Y-119453472D01*
X124700500Y-102595921D01*
X132406128Y-102595921D01*
X132411150Y-102649840D01*
X132417842Y-102721697D01*
X132417842Y-102721698D01*
X132431420Y-102762877D01*
X132431524Y-102763277D01*
X132437618Y-102781679D01*
X132437619Y-102781681D01*
X132437620Y-102781682D01*
X132448058Y-102813208D01*
X132448467Y-102814443D01*
X132448479Y-102814470D01*
X132682063Y-103519725D01*
X132681283Y-103530412D01*
X132678673Y-103534026D01*
X132634278Y-103578422D01*
X132583299Y-103678476D01*
X132565732Y-103789389D01*
X132583299Y-103900301D01*
X132634279Y-104000357D01*
X132713682Y-104079760D01*
X132811841Y-104129774D01*
X132818800Y-104137922D01*
X132817959Y-104148604D01*
X132809811Y-104155563D01*
X132807678Y-104156075D01*
X132778774Y-104160653D01*
X132764354Y-104162937D01*
X132664298Y-104213917D01*
X132584895Y-104293320D01*
X132533915Y-104393376D01*
X132516348Y-104504289D01*
X132533915Y-104615201D01*
X132584895Y-104715257D01*
X132664298Y-104794660D01*
X132664300Y-104794661D01*
X132764355Y-104845641D01*
X132848575Y-104858980D01*
X132857709Y-104864578D01*
X132860211Y-104874997D01*
X132854612Y-104884133D01*
X132848574Y-104886634D01*
X132839303Y-104888103D01*
X132839298Y-104888104D01*
X132739242Y-104939084D01*
X132659839Y-105018487D01*
X132608859Y-105118543D01*
X132591292Y-105229456D01*
X132608859Y-105340368D01*
X132659839Y-105440424D01*
X132739242Y-105519827D01*
X132739244Y-105519828D01*
X132839299Y-105570808D01*
X132950211Y-105588375D01*
X133004032Y-105579849D01*
X133014449Y-105582351D01*
X133017773Y-105585769D01*
X141860094Y-118504529D01*
X141860095Y-118504529D01*
X141873719Y-118524433D01*
X141873726Y-118524466D01*
X141878868Y-118531955D01*
X141889481Y-118547461D01*
X141889661Y-118547690D01*
X141903944Y-118568515D01*
X141967704Y-118632065D01*
X141967708Y-118632068D01*
X141967712Y-118632072D01*
X142042173Y-118682676D01*
X142048549Y-118685455D01*
X142065323Y-118692767D01*
X142065580Y-118692899D01*
X142065865Y-118693022D01*
X142065869Y-118693026D01*
X142083437Y-118700663D01*
X142099900Y-118707820D01*
X142113890Y-118713902D01*
X142113893Y-118713903D01*
X142120823Y-118716916D01*
X142120828Y-118716917D01*
X142166081Y-118736589D01*
X142173525Y-118744296D01*
X142174500Y-118749428D01*
X142174500Y-119419896D01*
X142176342Y-119429156D01*
X142180331Y-119449213D01*
X142202543Y-119482457D01*
X142235787Y-119504669D01*
X142265101Y-119510500D01*
X144079468Y-119510499D01*
X144089367Y-119514599D01*
X144093468Y-119524499D01*
X144089368Y-119534398D01*
X144087301Y-119536103D01*
X143685850Y-119807104D01*
X143678017Y-119809500D01*
X142265103Y-119809500D01*
X142235787Y-119815331D01*
X142202543Y-119837543D01*
X142180330Y-119870788D01*
X142174500Y-119900101D01*
X142174500Y-120619896D01*
X142174501Y-120619899D01*
X142180331Y-120649213D01*
X142202543Y-120682457D01*
X142235787Y-120704669D01*
X142265101Y-120710500D01*
X144284898Y-120710499D01*
X144314213Y-120704669D01*
X144347457Y-120682457D01*
X144369669Y-120649213D01*
X144375500Y-120619899D01*
X144375499Y-119900102D01*
X144369669Y-119870787D01*
X144347457Y-119837543D01*
X144314213Y-119815331D01*
X144314212Y-119815330D01*
X144314211Y-119815330D01*
X144284899Y-119809500D01*
X144248168Y-119809500D01*
X144238269Y-119805399D01*
X144234168Y-119795500D01*
X144238269Y-119785601D01*
X144240335Y-119783896D01*
X144253670Y-119774893D01*
X144453413Y-119640057D01*
X144453415Y-119640054D01*
X144453626Y-119639912D01*
X144453917Y-119639685D01*
X144467058Y-119630791D01*
X144514751Y-119577792D01*
X144548212Y-119514832D01*
X144565454Y-119445650D01*
X144565474Y-119429788D01*
X144565500Y-119429409D01*
X144565500Y-118707820D01*
X144565503Y-118700661D01*
X144565519Y-118666347D01*
X144539861Y-118582897D01*
X144505266Y-118531955D01*
X144490813Y-118510673D01*
X144483152Y-118504529D01*
X144465264Y-118490183D01*
X148641691Y-118490183D01*
X148651838Y-118729034D01*
X148651838Y-118729040D01*
X148651839Y-118729042D01*
X148670521Y-118815726D01*
X148702209Y-118962762D01*
X148791348Y-119184593D01*
X148791350Y-119184596D01*
X148916695Y-119388171D01*
X148916706Y-119388186D01*
X149074656Y-119567651D01*
X149074658Y-119567653D01*
X149260672Y-119717849D01*
X149469393Y-119834448D01*
X149694817Y-119914095D01*
X149930459Y-119954500D01*
X149930462Y-119954500D01*
X150109657Y-119954500D01*
X150109664Y-119954500D01*
X150288220Y-119939303D01*
X150519587Y-119879059D01*
X150737444Y-119780581D01*
X150935525Y-119646702D01*
X151108131Y-119481273D01*
X151250297Y-119289052D01*
X151357932Y-119075570D01*
X151427940Y-118846969D01*
X151458308Y-118609824D01*
X151458294Y-118609500D01*
X151450269Y-118420574D01*
X151448161Y-118370958D01*
X151397792Y-118137243D01*
X151397790Y-118137237D01*
X151308651Y-117915406D01*
X151308649Y-117915403D01*
X151183304Y-117711828D01*
X151183293Y-117711813D01*
X151025343Y-117532348D01*
X151025342Y-117532347D01*
X150839328Y-117382151D01*
X150630607Y-117265552D01*
X150503912Y-117220788D01*
X150405184Y-117185905D01*
X150346272Y-117175803D01*
X150169541Y-117145500D01*
X149990336Y-117145500D01*
X149990333Y-117145500D01*
X149811779Y-117160697D01*
X149811774Y-117160698D01*
X149580412Y-117220941D01*
X149580410Y-117220942D01*
X149362561Y-117319416D01*
X149362553Y-117319421D01*
X149164470Y-117453301D01*
X148991872Y-117618723D01*
X148991869Y-117618726D01*
X148849704Y-117810944D01*
X148742069Y-118024426D01*
X148742066Y-118024433D01*
X148672060Y-118253027D01*
X148672060Y-118253028D01*
X148641691Y-118490183D01*
X144465264Y-118490183D01*
X144422704Y-118456051D01*
X144422702Y-118456050D01*
X144422699Y-118456048D01*
X144341552Y-118423857D01*
X144341549Y-118423856D01*
X144300043Y-118420574D01*
X144300042Y-118420573D01*
X144300041Y-118420573D01*
X144299038Y-118420494D01*
X144298036Y-118420415D01*
X144298035Y-118420414D01*
X144298034Y-118420415D01*
X144290880Y-118419846D01*
X143896238Y-118388455D01*
X143886695Y-118383582D01*
X143883392Y-118373389D01*
X143888265Y-118363846D01*
X143897348Y-118360499D01*
X144284897Y-118360499D01*
X144284898Y-118360499D01*
X144314213Y-118354669D01*
X144347457Y-118332457D01*
X144369669Y-118299213D01*
X144375500Y-118269899D01*
X144375499Y-117250102D01*
X144369669Y-117220787D01*
X144347457Y-117187543D01*
X144314213Y-117165331D01*
X144314212Y-117165330D01*
X144314211Y-117165330D01*
X144292176Y-117160947D01*
X144284899Y-117159500D01*
X144284898Y-117159500D01*
X142265103Y-117159500D01*
X142235787Y-117165331D01*
X142202543Y-117187543D01*
X142180330Y-117220788D01*
X142174500Y-117250101D01*
X142174500Y-118035514D01*
X142170399Y-118045413D01*
X142160500Y-118049514D01*
X142150601Y-118045413D01*
X142148415Y-118042582D01*
X139262490Y-113108369D01*
X135918627Y-107391198D01*
X135917170Y-107380584D01*
X135918237Y-107377778D01*
X135965011Y-107285982D01*
X135982578Y-107175070D01*
X135965011Y-107064158D01*
X135914031Y-106964103D01*
X135914030Y-106964101D01*
X135834627Y-106884698D01*
X135734571Y-106833718D01*
X135734572Y-106833718D01*
X135623659Y-106816151D01*
X135512746Y-106833718D01*
X135412690Y-106884698D01*
X135333287Y-106964101D01*
X135282307Y-107064157D01*
X135264740Y-107175070D01*
X135282307Y-107285982D01*
X135333287Y-107386038D01*
X135412690Y-107465441D01*
X135412692Y-107465442D01*
X135512747Y-107516422D01*
X135623659Y-107533989D01*
X135652071Y-107529488D01*
X135662489Y-107531990D01*
X135666345Y-107536248D01*
X141111489Y-116846087D01*
X141112947Y-116856702D01*
X141106472Y-116865240D01*
X141095857Y-116866698D01*
X141087852Y-116861064D01*
X133258225Y-105421866D01*
X133256017Y-105411380D01*
X133257302Y-105407605D01*
X133291563Y-105340368D01*
X133309130Y-105229456D01*
X133291563Y-105118544D01*
X133240583Y-105018489D01*
X133240582Y-105018487D01*
X133161179Y-104939084D01*
X133061123Y-104888104D01*
X133061124Y-104888104D01*
X133021746Y-104881867D01*
X132976903Y-104874764D01*
X132967768Y-104869166D01*
X132965266Y-104858747D01*
X132970865Y-104849611D01*
X132976899Y-104847110D01*
X132986179Y-104845641D01*
X133086234Y-104794661D01*
X133165639Y-104715256D01*
X133216619Y-104615201D01*
X133234186Y-104504289D01*
X133216619Y-104393377D01*
X133165639Y-104293322D01*
X133165638Y-104293320D01*
X133086235Y-104213917D01*
X132988076Y-104163903D01*
X132981117Y-104155755D01*
X132981958Y-104145073D01*
X132990106Y-104138114D01*
X132992223Y-104137605D01*
X133035563Y-104130741D01*
X133135618Y-104079761D01*
X133215023Y-104000356D01*
X133266003Y-103900301D01*
X133283570Y-103789389D01*
X133266003Y-103678477D01*
X133215023Y-103578422D01*
X133215022Y-103578420D01*
X133135619Y-103499017D01*
X133035563Y-103448037D01*
X132969371Y-103437552D01*
X132960235Y-103431953D01*
X132958272Y-103428129D01*
X132799315Y-102948191D01*
X132800095Y-102937506D01*
X132808203Y-102930501D01*
X132818889Y-102931280D01*
X132853092Y-102948708D01*
X132964004Y-102966275D01*
X133074916Y-102948708D01*
X133166919Y-102901829D01*
X133177599Y-102900989D01*
X133180328Y-102902212D01*
X142167562Y-108151648D01*
X142174041Y-108160181D01*
X142174500Y-108163736D01*
X142174500Y-109139896D01*
X142176561Y-109150258D01*
X142180331Y-109169213D01*
X142202543Y-109202457D01*
X142235787Y-109224669D01*
X142265101Y-109230500D01*
X144049519Y-109230499D01*
X144059418Y-109234599D01*
X144063519Y-109244499D01*
X144059419Y-109254398D01*
X144056563Y-109256598D01*
X142127906Y-110379489D01*
X142095884Y-110398114D01*
X142042138Y-110452155D01*
X142042135Y-110452158D01*
X142004144Y-110518240D01*
X141984482Y-110591882D01*
X141984500Y-110630004D01*
X141984500Y-114149454D01*
X141984520Y-114149764D01*
X141984528Y-114156449D01*
X141994080Y-114208473D01*
X142003477Y-114233197D01*
X142012873Y-114257920D01*
X142012874Y-114257921D01*
X142016340Y-114263656D01*
X142016480Y-114263923D01*
X142016628Y-114264167D01*
X142016629Y-114264170D01*
X142026556Y-114280553D01*
X142026557Y-114280553D01*
X142045663Y-114312086D01*
X142045671Y-114312095D01*
X142728096Y-115438244D01*
X142729720Y-115448836D01*
X142723379Y-115457473D01*
X142716123Y-115459500D01*
X142265103Y-115459500D01*
X142235787Y-115465331D01*
X142202543Y-115487543D01*
X142180330Y-115520788D01*
X142174500Y-115550101D01*
X142174500Y-116569896D01*
X142174501Y-116569899D01*
X142180331Y-116599213D01*
X142202543Y-116632457D01*
X142235787Y-116654669D01*
X142265101Y-116660500D01*
X144284898Y-116660499D01*
X144314213Y-116654669D01*
X144347457Y-116632457D01*
X144369669Y-116599213D01*
X144375500Y-116569899D01*
X144375499Y-115550102D01*
X144369669Y-115520787D01*
X144347457Y-115487543D01*
X144314213Y-115465331D01*
X144314212Y-115465330D01*
X144314211Y-115465330D01*
X144284899Y-115459500D01*
X143089124Y-115459500D01*
X143079225Y-115455399D01*
X143077151Y-115452756D01*
X142306645Y-114181255D01*
X142305021Y-114170663D01*
X142311362Y-114162026D01*
X142318618Y-114159999D01*
X143257500Y-114159999D01*
X143257500Y-113647500D01*
X143292500Y-113647500D01*
X143292500Y-114159999D01*
X144277952Y-114159999D01*
X144286705Y-114158260D01*
X144296630Y-114151628D01*
X144303259Y-114141707D01*
X144303259Y-114141705D01*
X144305000Y-114132955D01*
X144305000Y-113647500D01*
X143292500Y-113647500D01*
X143257500Y-113647500D01*
X143257500Y-113100000D01*
X143292500Y-113100000D01*
X143292500Y-113612500D01*
X144304999Y-113612500D01*
X144304999Y-113127047D01*
X144303260Y-113118294D01*
X144296628Y-113108369D01*
X144286706Y-113101740D01*
X144277956Y-113100000D01*
X143292500Y-113100000D01*
X143257500Y-113100000D01*
X142289500Y-113100000D01*
X142279601Y-113095899D01*
X142275500Y-113086000D01*
X142275500Y-111744499D01*
X142279601Y-111734600D01*
X142289500Y-111730499D01*
X144284897Y-111730499D01*
X144284898Y-111730499D01*
X144314213Y-111724669D01*
X144347457Y-111702457D01*
X144369669Y-111669213D01*
X144375500Y-111639899D01*
X144375500Y-111592500D01*
X149706501Y-111592500D01*
X149706501Y-111827952D01*
X149708239Y-111836705D01*
X149714871Y-111846630D01*
X149724793Y-111853259D01*
X149733544Y-111854999D01*
X150319000Y-111854999D01*
X150319000Y-111592500D01*
X149706501Y-111592500D01*
X144375500Y-111592500D01*
X144375500Y-111557500D01*
X149706500Y-111557500D01*
X150319000Y-111557500D01*
X150319000Y-111295000D01*
X149733547Y-111295000D01*
X149724794Y-111296739D01*
X149714869Y-111303371D01*
X149708240Y-111313292D01*
X149708240Y-111313294D01*
X149706500Y-111322044D01*
X149706500Y-111557500D01*
X144375500Y-111557500D01*
X144375499Y-110767500D01*
X148907501Y-110767500D01*
X148907501Y-110902952D01*
X148909239Y-110911705D01*
X148915871Y-110921630D01*
X148925793Y-110928259D01*
X148934544Y-110929999D01*
X149420000Y-110929999D01*
X149420000Y-110767500D01*
X149455000Y-110767500D01*
X149455000Y-110929999D01*
X149940452Y-110929999D01*
X149949205Y-110928260D01*
X149959130Y-110921628D01*
X149965759Y-110911707D01*
X149965759Y-110911705D01*
X149967500Y-110902955D01*
X149967500Y-110767500D01*
X149455000Y-110767500D01*
X149420000Y-110767500D01*
X148907501Y-110767500D01*
X144375499Y-110767500D01*
X144375499Y-110732500D01*
X148907500Y-110732500D01*
X149420000Y-110732500D01*
X149420000Y-110570000D01*
X149455000Y-110570000D01*
X149455000Y-110732500D01*
X149967499Y-110732500D01*
X149967499Y-110597047D01*
X149965760Y-110588294D01*
X149959128Y-110578369D01*
X149949206Y-110571740D01*
X149940456Y-110570000D01*
X149455000Y-110570000D01*
X149420000Y-110570000D01*
X148934547Y-110570000D01*
X148925794Y-110571739D01*
X148915869Y-110578371D01*
X148909240Y-110588292D01*
X148909240Y-110588294D01*
X148907500Y-110597044D01*
X148907500Y-110732500D01*
X144375499Y-110732500D01*
X144375499Y-110620102D01*
X144369669Y-110590787D01*
X144347457Y-110557543D01*
X144314213Y-110535331D01*
X144314212Y-110535330D01*
X144314211Y-110535330D01*
X144284899Y-110529500D01*
X143903329Y-110529500D01*
X143893430Y-110525399D01*
X143889329Y-110515500D01*
X143891886Y-110507434D01*
X143896775Y-110500499D01*
X144646623Y-109436784D01*
X144646629Y-109436779D01*
X144649801Y-109432280D01*
X144667728Y-109406848D01*
X144667805Y-109406737D01*
X144678765Y-109391191D01*
X144678766Y-109391187D01*
X144678938Y-109390944D01*
X144679082Y-109390705D01*
X144696117Y-109366492D01*
X144735394Y-109275963D01*
X144755451Y-109179341D01*
X144755479Y-109150243D01*
X144755500Y-109149953D01*
X144755500Y-108732500D01*
X148907500Y-108732500D01*
X149420000Y-108732500D01*
X149420000Y-108570000D01*
X148934547Y-108570000D01*
X148925794Y-108571739D01*
X148915869Y-108578371D01*
X148909240Y-108588292D01*
X148909240Y-108588294D01*
X148907500Y-108597044D01*
X148907500Y-108732500D01*
X144755500Y-108732500D01*
X144755500Y-108120102D01*
X144755500Y-108120095D01*
X144755507Y-108075933D01*
X144731476Y-107970503D01*
X144684617Y-107873049D01*
X144617273Y-107788446D01*
X144532811Y-107720924D01*
X144532810Y-107720923D01*
X144512458Y-107711088D01*
X144493427Y-107701892D01*
X143477824Y-107210922D01*
X142393237Y-106686603D01*
X142386109Y-106678603D01*
X142386726Y-106667906D01*
X142394726Y-106660778D01*
X142399330Y-106659999D01*
X143257500Y-106659999D01*
X143257500Y-106147500D01*
X143292500Y-106147500D01*
X143292500Y-106659999D01*
X144277952Y-106659999D01*
X144286705Y-106658260D01*
X144296630Y-106651628D01*
X144303259Y-106641707D01*
X144303259Y-106641705D01*
X144305000Y-106632955D01*
X144305000Y-106441460D01*
X148017510Y-106441460D01*
X148035077Y-106552372D01*
X148086057Y-106652428D01*
X148165460Y-106731831D01*
X148165462Y-106731832D01*
X148265517Y-106782812D01*
X148376429Y-106800379D01*
X148487341Y-106782812D01*
X148587396Y-106731832D01*
X148666801Y-106652427D01*
X148717781Y-106552372D01*
X148720245Y-106536811D01*
X148725844Y-106527676D01*
X148731587Y-106525225D01*
X148853252Y-106503271D01*
X148863722Y-106505548D01*
X148869515Y-106514562D01*
X148867238Y-106525032D01*
X148865641Y-106526944D01*
X148865045Y-106527540D01*
X148842830Y-106560788D01*
X148837000Y-106590101D01*
X148837000Y-106909896D01*
X148839723Y-106923584D01*
X148842831Y-106939213D01*
X148865043Y-106972457D01*
X148888498Y-106988128D01*
X148888843Y-106988359D01*
X148894796Y-106997269D01*
X148892706Y-107007778D01*
X148888843Y-107011641D01*
X148865043Y-107027543D01*
X148842830Y-107060788D01*
X148837000Y-107090101D01*
X148837000Y-107409896D01*
X148841383Y-107431934D01*
X148842831Y-107439213D01*
X148865043Y-107472457D01*
X148888498Y-107488128D01*
X148888843Y-107488359D01*
X148894796Y-107497269D01*
X148892706Y-107507778D01*
X148888843Y-107511641D01*
X148865043Y-107527543D01*
X148842830Y-107560788D01*
X148837000Y-107590101D01*
X148837000Y-107909896D01*
X148841383Y-107931934D01*
X148842831Y-107939213D01*
X148865043Y-107972457D01*
X148888498Y-107988128D01*
X148888843Y-107988359D01*
X148894796Y-107997269D01*
X148892706Y-108007778D01*
X148888843Y-108011641D01*
X148865043Y-108027543D01*
X148842830Y-108060788D01*
X148837000Y-108090101D01*
X148837000Y-108409896D01*
X148841383Y-108431934D01*
X148842831Y-108439213D01*
X148865043Y-108472457D01*
X148898287Y-108494669D01*
X148927601Y-108500500D01*
X149923000Y-108500499D01*
X149932899Y-108504599D01*
X149937000Y-108514499D01*
X149937000Y-108556000D01*
X149932899Y-108565899D01*
X149923000Y-108570000D01*
X149455000Y-108570000D01*
X149455000Y-108753500D01*
X149450899Y-108763399D01*
X149441000Y-108767500D01*
X148907501Y-108767500D01*
X148907501Y-108902952D01*
X148909239Y-108911705D01*
X148915871Y-108921630D01*
X148925792Y-108928259D01*
X148927069Y-108928788D01*
X148926815Y-108929400D01*
X148933725Y-108934003D01*
X148935831Y-108944509D01*
X148929891Y-108953427D01*
X148922009Y-108955798D01*
X148714679Y-108954513D01*
X148708410Y-108952987D01*
X148609971Y-108902831D01*
X148609972Y-108902831D01*
X148499059Y-108885264D01*
X148388146Y-108902831D01*
X148288090Y-108953811D01*
X148208687Y-109033214D01*
X148157707Y-109133270D01*
X148140140Y-109244183D01*
X148157707Y-109355095D01*
X148208687Y-109455151D01*
X148288090Y-109534554D01*
X148288092Y-109534555D01*
X148388147Y-109585535D01*
X148499059Y-109603102D01*
X148609971Y-109585535D01*
X148703225Y-109538018D01*
X148709666Y-109536493D01*
X148832450Y-109537254D01*
X148842323Y-109541416D01*
X148846362Y-109551341D01*
X148844005Y-109559029D01*
X148842830Y-109560787D01*
X148837000Y-109590101D01*
X148837000Y-109909896D01*
X148837001Y-109909899D01*
X148842831Y-109939213D01*
X148865043Y-109972457D01*
X148888498Y-109988128D01*
X148888843Y-109988359D01*
X148894796Y-109997269D01*
X148892706Y-110007778D01*
X148888843Y-110011641D01*
X148865043Y-110027543D01*
X148842830Y-110060788D01*
X148837000Y-110090101D01*
X148837000Y-110409896D01*
X148837001Y-110409899D01*
X148842831Y-110439213D01*
X148865043Y-110472457D01*
X148898287Y-110494669D01*
X148927601Y-110500500D01*
X149947398Y-110500499D01*
X149976713Y-110494669D01*
X150009957Y-110472457D01*
X150032169Y-110439213D01*
X150038000Y-110409899D01*
X150037999Y-110090102D01*
X150032169Y-110060787D01*
X150009957Y-110027543D01*
X149986155Y-110011639D01*
X149980203Y-110002732D01*
X149982293Y-109992222D01*
X149986154Y-109988360D01*
X150009957Y-109972457D01*
X150032169Y-109939213D01*
X150038000Y-109909899D01*
X150037999Y-109590102D01*
X150032169Y-109560787D01*
X150009957Y-109527543D01*
X149986154Y-109511639D01*
X149980202Y-109502731D01*
X149982292Y-109492221D01*
X149986149Y-109488363D01*
X149998932Y-109479821D01*
X150005112Y-109477556D01*
X150064337Y-109470780D01*
X150179482Y-109432280D01*
X150284194Y-109370830D01*
X150373957Y-109289080D01*
X150444902Y-109190553D01*
X150493969Y-109079499D01*
X150519043Y-108960705D01*
X150519000Y-108900000D01*
X150519000Y-108848689D01*
X150519000Y-108848688D01*
X150519000Y-107600000D01*
X150519043Y-107539295D01*
X150493969Y-107420501D01*
X150444902Y-107309447D01*
X150373957Y-107210920D01*
X150284194Y-107129170D01*
X150284192Y-107129168D01*
X150284189Y-107129166D01*
X150179480Y-107067719D01*
X150179479Y-107067718D01*
X150064339Y-107029220D01*
X150064336Y-107029219D01*
X150005114Y-107022442D01*
X149998930Y-107020174D01*
X149986156Y-107011640D01*
X149980203Y-107002730D01*
X149982293Y-106992221D01*
X149986154Y-106988360D01*
X150009957Y-106972457D01*
X150032169Y-106939213D01*
X150038000Y-106909899D01*
X150037999Y-106590102D01*
X150032169Y-106560787D01*
X150009957Y-106527543D01*
X149986155Y-106511639D01*
X149980203Y-106502732D01*
X149982293Y-106492222D01*
X149986154Y-106488360D01*
X150009957Y-106472457D01*
X150032169Y-106439213D01*
X150038000Y-106409899D01*
X150037999Y-106090102D01*
X150032169Y-106060787D01*
X150009957Y-106027543D01*
X149986155Y-106011639D01*
X149980203Y-106002732D01*
X149982293Y-105992222D01*
X149986154Y-105988360D01*
X150009957Y-105972457D01*
X150032169Y-105939213D01*
X150038000Y-105909899D01*
X150037999Y-105590102D01*
X150032169Y-105560787D01*
X150009957Y-105527543D01*
X149976713Y-105505331D01*
X149976712Y-105505330D01*
X149976711Y-105505330D01*
X149954676Y-105500947D01*
X149947399Y-105499500D01*
X149947398Y-105499500D01*
X148927603Y-105499500D01*
X148898287Y-105505331D01*
X148865041Y-105527544D01*
X148856240Y-105540716D01*
X148847331Y-105546669D01*
X148843265Y-105546874D01*
X148827628Y-105545376D01*
X148818165Y-105540350D01*
X148816489Y-105537796D01*
X148796977Y-105499501D01*
X148770357Y-105447254D01*
X148770356Y-105447252D01*
X148690953Y-105367849D01*
X148590897Y-105316869D01*
X148590898Y-105316869D01*
X148479985Y-105299302D01*
X148369072Y-105316869D01*
X148269016Y-105367849D01*
X148189613Y-105447252D01*
X148138633Y-105547308D01*
X148121066Y-105658221D01*
X148138633Y-105769133D01*
X148189613Y-105869189D01*
X148269016Y-105948592D01*
X148269018Y-105948593D01*
X148369073Y-105999573D01*
X148479985Y-106017140D01*
X148590897Y-105999573D01*
X148690952Y-105948593D01*
X148770357Y-105869188D01*
X148783989Y-105842430D01*
X148792136Y-105835471D01*
X148797798Y-105834850D01*
X148824336Y-105837394D01*
X148833799Y-105842420D01*
X148837000Y-105851330D01*
X148837000Y-105909896D01*
X148837001Y-105909899D01*
X148842831Y-105939213D01*
X148865043Y-105972457D01*
X148888498Y-105988128D01*
X148888843Y-105988359D01*
X148894796Y-105997269D01*
X148892706Y-106007778D01*
X148888843Y-106011641D01*
X148865043Y-106027543D01*
X148842830Y-106060788D01*
X148837000Y-106090101D01*
X148837000Y-106198803D01*
X148832899Y-106208702D01*
X148825486Y-106212581D01*
X148682041Y-106238464D01*
X148671571Y-106236186D01*
X148667081Y-106231041D01*
X148666801Y-106230493D01*
X148666801Y-106230492D01*
X148587397Y-106151088D01*
X148487341Y-106100108D01*
X148487342Y-106100108D01*
X148376429Y-106082541D01*
X148265516Y-106100108D01*
X148165460Y-106151088D01*
X148086057Y-106230491D01*
X148035077Y-106330547D01*
X148017510Y-106441460D01*
X144305000Y-106441460D01*
X144305000Y-106147500D01*
X143292500Y-106147500D01*
X143257500Y-106147500D01*
X142245001Y-106147500D01*
X142245000Y-106465850D01*
X142240899Y-106475750D01*
X142231000Y-106479850D01*
X142221100Y-106475749D01*
X142217837Y-106470617D01*
X142088203Y-106112500D01*
X142245000Y-106112500D01*
X143257500Y-106112500D01*
X143257500Y-105600000D01*
X143292500Y-105600000D01*
X143292500Y-106112500D01*
X144304999Y-106112500D01*
X144304999Y-105627047D01*
X144303260Y-105618294D01*
X144296628Y-105608369D01*
X144286706Y-105601740D01*
X144277956Y-105600000D01*
X143292500Y-105600000D01*
X143257500Y-105600000D01*
X142272047Y-105600000D01*
X142263294Y-105601739D01*
X142253369Y-105608371D01*
X142246740Y-105618292D01*
X142246740Y-105618294D01*
X142245000Y-105627044D01*
X142245000Y-106112500D01*
X142088203Y-106112500D01*
X141782324Y-105267500D01*
X148907501Y-105267500D01*
X148907501Y-105402952D01*
X148909239Y-105411705D01*
X148915871Y-105421630D01*
X148925793Y-105428259D01*
X148934544Y-105429999D01*
X149420000Y-105429999D01*
X149420000Y-105267500D01*
X149455000Y-105267500D01*
X149455000Y-105429999D01*
X149940452Y-105429999D01*
X149949205Y-105428260D01*
X149959130Y-105421628D01*
X149965759Y-105411707D01*
X149965759Y-105411705D01*
X149967500Y-105402955D01*
X149967500Y-105267500D01*
X149455000Y-105267500D01*
X149420000Y-105267500D01*
X148907501Y-105267500D01*
X141782324Y-105267500D01*
X141769654Y-105232500D01*
X148907500Y-105232500D01*
X149420000Y-105232500D01*
X149420000Y-105070000D01*
X149455000Y-105070000D01*
X149455000Y-105232500D01*
X149967499Y-105232500D01*
X149967499Y-105097047D01*
X149965760Y-105088294D01*
X149959128Y-105078369D01*
X149949206Y-105071740D01*
X149940456Y-105070000D01*
X149455000Y-105070000D01*
X149420000Y-105070000D01*
X148934547Y-105070000D01*
X148925794Y-105071739D01*
X148915869Y-105078371D01*
X148909240Y-105088292D01*
X148909240Y-105088294D01*
X148907500Y-105097044D01*
X148907500Y-105232500D01*
X141769654Y-105232500D01*
X141483685Y-104442500D01*
X149706501Y-104442500D01*
X149706501Y-104677952D01*
X149708239Y-104686705D01*
X149714871Y-104696630D01*
X149724793Y-104703259D01*
X149733544Y-104704999D01*
X150319000Y-104704999D01*
X150319000Y-104442500D01*
X149706501Y-104442500D01*
X141483685Y-104442500D01*
X141471015Y-104407500D01*
X149706500Y-104407500D01*
X150319000Y-104407500D01*
X150319000Y-104145000D01*
X149733547Y-104145000D01*
X149724794Y-104146739D01*
X149714869Y-104153371D01*
X149708240Y-104163292D01*
X149708240Y-104163294D01*
X149706500Y-104172044D01*
X149706500Y-104407500D01*
X141471015Y-104407500D01*
X140527666Y-101801473D01*
X140528152Y-101790772D01*
X140530928Y-101786814D01*
X140568151Y-101749593D01*
X140619131Y-101649538D01*
X140636698Y-101538626D01*
X140619131Y-101427714D01*
X140568151Y-101327659D01*
X140568150Y-101327657D01*
X140488747Y-101248254D01*
X140388691Y-101197274D01*
X140388692Y-101197274D01*
X140277779Y-101179707D01*
X140166866Y-101197274D01*
X140066810Y-101248254D01*
X139987407Y-101327657D01*
X139936427Y-101427713D01*
X139918860Y-101538626D01*
X139936427Y-101649538D01*
X139987407Y-101749594D01*
X140066810Y-101828997D01*
X140066812Y-101828998D01*
X140166867Y-101879978D01*
X140243292Y-101892082D01*
X140252428Y-101897681D01*
X140254266Y-101901145D01*
X141015856Y-104005058D01*
X141015370Y-104015762D01*
X141007457Y-104022987D01*
X140996753Y-104022501D01*
X140993867Y-104020691D01*
X140921556Y-103961912D01*
X140921554Y-103961911D01*
X140921552Y-103961909D01*
X140904059Y-103952081D01*
X140897229Y-103948243D01*
X140897000Y-103948094D01*
X140877044Y-103936904D01*
X140877041Y-103936904D01*
X140849824Y-103921639D01*
X140849782Y-103921620D01*
X140525749Y-103739943D01*
X140519120Y-103731525D01*
X140518768Y-103725545D01*
X140522252Y-103703554D01*
X140504685Y-103592642D01*
X140453705Y-103492587D01*
X140453704Y-103492585D01*
X140374301Y-103413182D01*
X140274245Y-103362202D01*
X140274246Y-103362202D01*
X140163333Y-103344635D01*
X140052420Y-103362202D01*
X139952364Y-103413182D01*
X139872961Y-103492585D01*
X139821981Y-103592641D01*
X139804414Y-103703554D01*
X139821981Y-103814466D01*
X139872961Y-103914522D01*
X139952364Y-103993925D01*
X139952366Y-103993926D01*
X140052421Y-104044906D01*
X140163333Y-104062473D01*
X140274245Y-104044906D01*
X140372561Y-103994811D01*
X140383242Y-103993971D01*
X140385764Y-103995074D01*
X140496510Y-104057167D01*
X140503138Y-104065584D01*
X140501874Y-104076225D01*
X140496018Y-104081852D01*
X140397864Y-104131863D01*
X140318461Y-104211266D01*
X140267481Y-104311322D01*
X140249914Y-104422235D01*
X140267481Y-104533147D01*
X140318461Y-104633203D01*
X140397864Y-104712606D01*
X140397866Y-104712607D01*
X140497921Y-104763587D01*
X140608833Y-104781154D01*
X140719745Y-104763587D01*
X140819800Y-104712607D01*
X140899205Y-104633202D01*
X140927743Y-104577190D01*
X140935889Y-104570233D01*
X140946572Y-104571074D01*
X140953247Y-104578431D01*
X141815120Y-106773473D01*
X141815123Y-106773477D01*
X141815604Y-106774702D01*
X141815604Y-106774703D01*
X141818225Y-106781378D01*
X141822983Y-106793496D01*
X141827740Y-106805613D01*
X141827741Y-106805615D01*
X141834855Y-106823733D01*
X141834978Y-106823993D01*
X141844208Y-106847441D01*
X141844211Y-106847447D01*
X141892020Y-106923579D01*
X141892023Y-106923583D01*
X141953127Y-106989527D01*
X141953134Y-106989534D01*
X141963591Y-106997269D01*
X142025414Y-107043000D01*
X142048089Y-107053985D01*
X142048345Y-107054131D01*
X143427648Y-107720923D01*
X143879195Y-107939213D01*
X144010928Y-108002896D01*
X144018056Y-108010896D01*
X144017439Y-108021593D01*
X144009439Y-108028721D01*
X144004835Y-108029500D01*
X142539193Y-108029500D01*
X142532132Y-108027589D01*
X142532053Y-108027543D01*
X133325221Y-102649839D01*
X133318742Y-102641306D01*
X133318455Y-102635561D01*
X133322923Y-102607356D01*
X133305356Y-102496444D01*
X133254376Y-102396389D01*
X133254375Y-102396387D01*
X133174972Y-102316984D01*
X133142917Y-102300651D01*
X133135958Y-102292503D01*
X133136799Y-102281821D01*
X133144947Y-102274862D01*
X140670633Y-99926513D01*
X140670639Y-99926513D01*
X140670639Y-99926511D01*
X140766767Y-99896591D01*
X140766769Y-99896590D01*
X140766776Y-99896588D01*
X140950039Y-99810839D01*
X141120075Y-99701175D01*
X141273781Y-99569597D01*
X141408354Y-99418506D01*
X141464783Y-99334546D01*
X141464789Y-99334542D01*
X141464787Y-99334541D01*
X141590746Y-99147417D01*
X142148887Y-98318247D01*
X142157816Y-98312326D01*
X142168318Y-98314452D01*
X142174240Y-98323382D01*
X142174500Y-98326066D01*
X142174500Y-99139896D01*
X142175794Y-99146402D01*
X142180331Y-99169213D01*
X142202543Y-99202457D01*
X142235787Y-99224669D01*
X142265101Y-99230500D01*
X144191344Y-99230499D01*
X144201243Y-99234599D01*
X144205344Y-99244499D01*
X144203434Y-99251559D01*
X143461225Y-100522560D01*
X143452692Y-100529041D01*
X143449135Y-100529500D01*
X142265103Y-100529500D01*
X142235787Y-100535331D01*
X142202543Y-100557543D01*
X142180330Y-100590788D01*
X142174500Y-100620101D01*
X142174500Y-101639896D01*
X142176418Y-101649538D01*
X142180331Y-101669213D01*
X142202543Y-101702457D01*
X142235787Y-101724669D01*
X142265101Y-101730500D01*
X144191344Y-101730499D01*
X144201243Y-101734599D01*
X144205344Y-101744499D01*
X144203434Y-101751559D01*
X143461225Y-103022560D01*
X143452692Y-103029041D01*
X143449135Y-103029500D01*
X142265103Y-103029500D01*
X142235787Y-103035331D01*
X142202543Y-103057543D01*
X142180330Y-103090788D01*
X142174500Y-103120101D01*
X142174500Y-104139896D01*
X142177718Y-104156076D01*
X142180331Y-104169213D01*
X142202543Y-104202457D01*
X142235787Y-104224669D01*
X142265101Y-104230500D01*
X144284898Y-104230499D01*
X144314213Y-104224669D01*
X144347457Y-104202457D01*
X144369669Y-104169213D01*
X144375500Y-104139899D01*
X144375499Y-103120102D01*
X144369669Y-103090787D01*
X144347457Y-103057543D01*
X144314213Y-103035331D01*
X144314212Y-103035330D01*
X144314211Y-103035330D01*
X144284899Y-103029500D01*
X143818545Y-103029500D01*
X143808646Y-103025399D01*
X143804545Y-103015500D01*
X143806455Y-103008440D01*
X143827387Y-102972595D01*
X144535520Y-101759949D01*
X144535521Y-101759944D01*
X144535953Y-101759205D01*
X144536032Y-101759045D01*
X144536916Y-101757531D01*
X144553105Y-101716731D01*
X144562979Y-101673961D01*
X144563112Y-101672220D01*
X144563137Y-101672050D01*
X144563203Y-101671181D01*
X144563204Y-101671179D01*
X144564660Y-101652078D01*
X144567184Y-101618965D01*
X144567183Y-101618964D01*
X144654613Y-100471884D01*
X144755329Y-99150525D01*
X144755370Y-99150132D01*
X144755500Y-99149156D01*
X144755500Y-99148543D01*
X144755519Y-99148030D01*
X144755566Y-99147417D01*
X144755564Y-99147410D01*
X144755510Y-99146402D01*
X144755500Y-99146020D01*
X144755500Y-98066744D01*
X144755500Y-98066741D01*
X144722755Y-97944534D01*
X144671881Y-97856417D01*
X144659497Y-97834967D01*
X144659495Y-97834964D01*
X144570035Y-97745504D01*
X144570032Y-97745502D01*
X144460470Y-97682247D01*
X144460468Y-97682246D01*
X144460466Y-97682245D01*
X144338259Y-97649500D01*
X144294156Y-97649500D01*
X142255844Y-97649500D01*
X142255600Y-97649500D01*
X142255167Y-97649528D01*
X142215952Y-97649585D01*
X142101382Y-97678180D01*
X142101375Y-97678183D01*
X141997141Y-97733669D01*
X141997132Y-97733675D01*
X141909438Y-97812747D01*
X141909433Y-97812754D01*
X141887484Y-97845258D01*
X141887212Y-97845611D01*
X141346286Y-98649205D01*
X141337356Y-98655127D01*
X141326854Y-98653001D01*
X141320932Y-98644071D01*
X141320815Y-98639394D01*
X141327528Y-98592711D01*
X141333267Y-98552793D01*
X141323231Y-98342098D01*
X141316008Y-98312326D01*
X141273501Y-98137111D01*
X141273501Y-98137110D01*
X141185876Y-97945238D01*
X141063522Y-97773416D01*
X140910862Y-97627855D01*
X140733413Y-97513816D01*
X140723441Y-97509824D01*
X140537589Y-97435420D01*
X140330467Y-97395500D01*
X140172387Y-97395500D01*
X140034691Y-97408648D01*
X140015020Y-97410527D01*
X140015015Y-97410528D01*
X139812636Y-97469951D01*
X139812632Y-97469953D01*
X139625145Y-97566609D01*
X139459337Y-97697003D01*
X139459335Y-97697005D01*
X139321208Y-97856412D01*
X139321204Y-97856417D01*
X139215743Y-98039082D01*
X139215740Y-98039089D01*
X139146751Y-98238420D01*
X139136126Y-98312326D01*
X139116733Y-98447207D01*
X139116733Y-98447211D01*
X139116733Y-98447213D01*
X139126769Y-98657903D01*
X139126770Y-98657911D01*
X139176498Y-98862888D01*
X139176499Y-98862890D01*
X139264124Y-99054762D01*
X139386478Y-99226584D01*
X139539138Y-99372145D01*
X139716587Y-99486184D01*
X139800109Y-99519621D01*
X139807776Y-99527107D01*
X139807903Y-99537821D01*
X139800417Y-99545488D01*
X139795899Y-99546583D01*
X138393333Y-99646348D01*
X138383168Y-99642960D01*
X138379866Y-99638739D01*
X138371177Y-99621686D01*
X138362226Y-99604117D01*
X138362225Y-99604115D01*
X138282822Y-99524712D01*
X138182766Y-99473732D01*
X138182767Y-99473732D01*
X138071854Y-99456165D01*
X137960941Y-99473732D01*
X137860885Y-99524712D01*
X137781482Y-99604115D01*
X137730502Y-99704171D01*
X137712935Y-99815084D01*
X137730502Y-99925996D01*
X137781482Y-100026052D01*
X137860885Y-100105455D01*
X137860887Y-100105456D01*
X137960942Y-100156436D01*
X138071854Y-100174003D01*
X138182766Y-100156436D01*
X138282821Y-100105456D01*
X138362226Y-100026051D01*
X138403971Y-99944117D01*
X138412119Y-99937159D01*
X138415445Y-99936510D01*
X139909520Y-99830235D01*
X139919684Y-99833623D01*
X139924477Y-99843207D01*
X139921089Y-99853372D01*
X139914682Y-99857564D01*
X132780551Y-102083730D01*
X132780371Y-102083814D01*
X132779530Y-102084137D01*
X132772147Y-102086451D01*
X132738586Y-102096967D01*
X132738583Y-102096968D01*
X132629549Y-102160750D01*
X132537653Y-102247426D01*
X132467605Y-102352555D01*
X132423007Y-102470726D01*
X132423005Y-102470735D01*
X132406128Y-102595914D01*
X132406128Y-102595918D01*
X132406128Y-102595921D01*
X124700500Y-102595921D01*
X124700500Y-99107202D01*
X126873509Y-99107202D01*
X126892634Y-99289179D01*
X126892635Y-99289181D01*
X126907374Y-99334541D01*
X126937970Y-99428708D01*
X126949182Y-99463213D01*
X126949184Y-99463218D01*
X127040676Y-99621686D01*
X127163119Y-99757672D01*
X127226696Y-99803863D01*
X127311156Y-99865227D01*
X127478323Y-99939654D01*
X127657311Y-99977699D01*
X127657312Y-99977699D01*
X127840296Y-99977699D01*
X127840297Y-99977699D01*
X128019285Y-99939654D01*
X128186452Y-99865227D01*
X128334491Y-99757670D01*
X128456933Y-99621684D01*
X128548426Y-99463214D01*
X128604972Y-99289183D01*
X128604972Y-99289180D01*
X128604973Y-99289179D01*
X128624099Y-99107202D01*
X128624099Y-99107195D01*
X128604973Y-98925218D01*
X128604972Y-98925216D01*
X128584721Y-98862890D01*
X128557217Y-98778240D01*
X130181282Y-98778240D01*
X130200407Y-98960217D01*
X130200408Y-98960219D01*
X130256955Y-99134251D01*
X130256957Y-99134256D01*
X130348449Y-99292724D01*
X130470892Y-99428710D01*
X130528789Y-99470774D01*
X130618929Y-99536265D01*
X130786096Y-99610692D01*
X130918047Y-99638739D01*
X130953844Y-99646348D01*
X130965084Y-99648737D01*
X130965085Y-99648737D01*
X131148069Y-99648737D01*
X131148070Y-99648737D01*
X131327058Y-99610692D01*
X131494225Y-99536265D01*
X131642264Y-99428708D01*
X131764706Y-99292722D01*
X131856199Y-99134252D01*
X131912745Y-98960221D01*
X131912745Y-98960218D01*
X131912746Y-98960217D01*
X131931872Y-98778240D01*
X131931872Y-98778233D01*
X131912746Y-98596256D01*
X131912745Y-98596254D01*
X131898622Y-98552787D01*
X131856199Y-98422222D01*
X131764706Y-98263752D01*
X131764705Y-98263751D01*
X131764704Y-98263749D01*
X131642261Y-98127763D01*
X131494226Y-98020210D01*
X131494225Y-98020209D01*
X131393963Y-97975570D01*
X131327058Y-97945782D01*
X131327051Y-97945780D01*
X131148074Y-97907737D01*
X131148070Y-97907737D01*
X130965084Y-97907737D01*
X130965079Y-97907737D01*
X130786102Y-97945780D01*
X130786096Y-97945782D01*
X130618927Y-98020210D01*
X130470892Y-98127763D01*
X130348449Y-98263749D01*
X130256957Y-98422217D01*
X130256955Y-98422222D01*
X130200408Y-98596254D01*
X130200407Y-98596256D01*
X130181282Y-98778233D01*
X130181282Y-98778240D01*
X128557217Y-98778240D01*
X128548426Y-98751184D01*
X128456933Y-98592714D01*
X128456932Y-98592713D01*
X128456931Y-98592711D01*
X128334488Y-98456725D01*
X128239121Y-98387437D01*
X128186452Y-98349171D01*
X128049467Y-98288182D01*
X128019285Y-98274744D01*
X128019278Y-98274742D01*
X127840301Y-98236699D01*
X127840297Y-98236699D01*
X127657311Y-98236699D01*
X127657306Y-98236699D01*
X127478329Y-98274742D01*
X127478323Y-98274744D01*
X127311154Y-98349172D01*
X127163119Y-98456725D01*
X127040676Y-98592711D01*
X126949184Y-98751179D01*
X126949182Y-98751184D01*
X126892635Y-98925216D01*
X126892634Y-98925218D01*
X126873509Y-99107195D01*
X126873509Y-99107202D01*
X124700500Y-99107202D01*
X124700500Y-97390183D01*
X148641691Y-97390183D01*
X148651838Y-97629034D01*
X148651838Y-97629040D01*
X148651839Y-97629042D01*
X148666485Y-97697000D01*
X148702209Y-97862762D01*
X148791348Y-98084593D01*
X148791350Y-98084596D01*
X148916695Y-98288171D01*
X148916706Y-98288186D01*
X149074656Y-98467651D01*
X149074658Y-98467653D01*
X149260672Y-98617849D01*
X149469393Y-98734448D01*
X149694817Y-98814095D01*
X149930459Y-98854500D01*
X149930462Y-98854500D01*
X150109657Y-98854500D01*
X150109664Y-98854500D01*
X150288220Y-98839303D01*
X150519587Y-98779059D01*
X150737444Y-98680581D01*
X150935525Y-98546702D01*
X151108131Y-98381273D01*
X151250297Y-98189052D01*
X151357932Y-97975570D01*
X151427940Y-97746969D01*
X151458308Y-97509824D01*
X151456614Y-97469953D01*
X151450595Y-97328259D01*
X151448161Y-97270958D01*
X151397792Y-97037243D01*
X151397790Y-97037237D01*
X151308651Y-96815406D01*
X151308649Y-96815403D01*
X151183304Y-96611828D01*
X151183293Y-96611813D01*
X151025343Y-96432348D01*
X151017320Y-96425870D01*
X150839328Y-96282151D01*
X150630607Y-96165552D01*
X150504345Y-96120941D01*
X150405184Y-96085905D01*
X150346272Y-96075803D01*
X150169541Y-96045500D01*
X149990336Y-96045500D01*
X149990333Y-96045500D01*
X149811779Y-96060697D01*
X149811774Y-96060698D01*
X149580412Y-96120941D01*
X149580410Y-96120942D01*
X149362561Y-96219416D01*
X149362553Y-96219421D01*
X149164470Y-96353301D01*
X148991872Y-96518723D01*
X148991869Y-96518726D01*
X148849704Y-96710944D01*
X148742069Y-96924426D01*
X148742066Y-96924433D01*
X148672060Y-97153027D01*
X148672060Y-97153028D01*
X148641691Y-97390183D01*
X124700500Y-97390183D01*
X124700500Y-96246728D01*
X127151349Y-96246728D01*
X127171533Y-96425870D01*
X127171535Y-96425874D01*
X127231073Y-96596028D01*
X127231074Y-96596029D01*
X127326986Y-96748674D01*
X127378350Y-96800038D01*
X127581605Y-96596782D01*
X127608124Y-96619761D01*
X127403099Y-96824787D01*
X127403100Y-96824789D01*
X127454462Y-96876151D01*
X127607109Y-96972064D01*
X127607110Y-96972065D01*
X127777264Y-97031603D01*
X127777268Y-97031605D01*
X127956411Y-97051789D01*
X128135553Y-97031605D01*
X128135557Y-97031603D01*
X128305711Y-96972065D01*
X128305712Y-96972064D01*
X128458359Y-96876151D01*
X128458361Y-96876149D01*
X128509722Y-96824789D01*
X128509722Y-96824787D01*
X128304697Y-96619762D01*
X128331215Y-96596784D01*
X128534470Y-96800039D01*
X128534472Y-96800039D01*
X128585832Y-96748678D01*
X128585834Y-96748676D01*
X128681747Y-96596029D01*
X128681748Y-96596028D01*
X128741286Y-96425874D01*
X128741288Y-96425870D01*
X128761472Y-96246728D01*
X128744101Y-96092556D01*
X129947944Y-96092556D01*
X129967069Y-96274533D01*
X129967070Y-96274535D01*
X129992662Y-96353298D01*
X130018346Y-96432347D01*
X130023617Y-96448567D01*
X130023619Y-96448572D01*
X130115111Y-96607040D01*
X130237554Y-96743026D01*
X130301131Y-96789217D01*
X130385591Y-96850581D01*
X130552758Y-96925008D01*
X130731746Y-96963053D01*
X130731747Y-96963053D01*
X130914731Y-96963053D01*
X130914732Y-96963053D01*
X131093720Y-96925008D01*
X131260887Y-96850581D01*
X131408926Y-96743024D01*
X131531368Y-96607038D01*
X131554196Y-96567500D01*
X139795001Y-96567500D01*
X139795001Y-97302952D01*
X139796739Y-97311705D01*
X139803371Y-97321630D01*
X139813293Y-97328259D01*
X139822044Y-97329999D01*
X141207500Y-97329999D01*
X141207500Y-96567500D01*
X141242500Y-96567500D01*
X141242500Y-97329999D01*
X142627952Y-97329999D01*
X142636705Y-97328260D01*
X142646630Y-97321628D01*
X142653259Y-97311707D01*
X142653259Y-97311705D01*
X142655000Y-97302955D01*
X142655000Y-96567500D01*
X141242500Y-96567500D01*
X141207500Y-96567500D01*
X139795001Y-96567500D01*
X131554196Y-96567500D01*
X131574403Y-96532500D01*
X139795000Y-96532500D01*
X141207500Y-96532500D01*
X141207500Y-95770000D01*
X141242500Y-95770000D01*
X141242500Y-96532500D01*
X142654999Y-96532500D01*
X142654999Y-95797047D01*
X142653260Y-95788294D01*
X142646628Y-95778369D01*
X142636706Y-95771740D01*
X142627956Y-95770000D01*
X141242500Y-95770000D01*
X141207500Y-95770000D01*
X139822047Y-95770000D01*
X139813294Y-95771739D01*
X139803369Y-95778371D01*
X139796740Y-95788292D01*
X139796740Y-95788294D01*
X139795000Y-95797044D01*
X139795000Y-96532500D01*
X131574403Y-96532500D01*
X131622861Y-96448568D01*
X131679407Y-96274537D01*
X131679407Y-96274534D01*
X131679408Y-96274533D01*
X131698534Y-96092556D01*
X131698534Y-96092549D01*
X131679408Y-95910572D01*
X131679407Y-95910570D01*
X131679407Y-95910569D01*
X131622861Y-95736538D01*
X131531368Y-95578068D01*
X131531367Y-95578067D01*
X131531366Y-95578065D01*
X131408923Y-95442079D01*
X131260888Y-95334526D01*
X131260887Y-95334525D01*
X131093720Y-95260098D01*
X131093713Y-95260096D01*
X130914736Y-95222053D01*
X130914732Y-95222053D01*
X130731746Y-95222053D01*
X130731741Y-95222053D01*
X130552764Y-95260096D01*
X130552758Y-95260098D01*
X130385589Y-95334526D01*
X130237554Y-95442079D01*
X130115111Y-95578065D01*
X130023619Y-95736533D01*
X130023617Y-95736538D01*
X129967070Y-95910570D01*
X129967069Y-95910572D01*
X129947944Y-96092549D01*
X129947944Y-96092556D01*
X128744101Y-96092556D01*
X128741288Y-96067585D01*
X128741286Y-96067581D01*
X128681748Y-95897427D01*
X128681747Y-95897426D01*
X128585834Y-95744779D01*
X128534472Y-95693417D01*
X128534470Y-95693417D01*
X128331214Y-95896671D01*
X128304695Y-95873692D01*
X128509721Y-95668668D01*
X128509721Y-95668667D01*
X128458357Y-95617303D01*
X128305712Y-95521391D01*
X128305711Y-95521390D01*
X128135557Y-95461852D01*
X128135553Y-95461850D01*
X127956410Y-95441666D01*
X127777268Y-95461850D01*
X127777264Y-95461852D01*
X127607110Y-95521390D01*
X127607109Y-95521391D01*
X127454464Y-95617303D01*
X127403099Y-95668668D01*
X127608124Y-95873693D01*
X127581606Y-95896671D01*
X127378351Y-95693416D01*
X127326986Y-95744781D01*
X127231074Y-95897426D01*
X127231073Y-95897427D01*
X127171535Y-96067581D01*
X127171533Y-96067585D01*
X127151349Y-96246728D01*
X124700500Y-96246728D01*
X124700500Y-95102952D01*
X125295000Y-95102952D01*
X125296739Y-95111705D01*
X125303371Y-95121630D01*
X125313293Y-95128259D01*
X125322044Y-95129999D01*
X126707500Y-95129999D01*
X126707500Y-94367500D01*
X126742500Y-94367500D01*
X126742500Y-95129999D01*
X128127952Y-95129999D01*
X128136705Y-95128260D01*
X128146630Y-95121628D01*
X128153259Y-95111707D01*
X128153259Y-95111705D01*
X128155000Y-95102955D01*
X128155000Y-94367500D01*
X126742500Y-94367500D01*
X126707500Y-94367500D01*
X125295001Y-94367500D01*
X125295000Y-95102952D01*
X124700500Y-95102952D01*
X124700500Y-94332500D01*
X125295000Y-94332500D01*
X126707500Y-94332500D01*
X126707500Y-93570000D01*
X126742500Y-93570000D01*
X126742500Y-94332500D01*
X128154999Y-94332500D01*
X128154999Y-93597047D01*
X128153260Y-93588294D01*
X128146628Y-93578369D01*
X128136706Y-93571740D01*
X128127956Y-93570000D01*
X126742500Y-93570000D01*
X126707500Y-93570000D01*
X125322047Y-93570000D01*
X125313294Y-93571739D01*
X125303369Y-93578371D01*
X125296740Y-93588292D01*
X125296740Y-93588294D01*
X125295000Y-93597044D01*
X125295000Y-94332500D01*
X124700500Y-94332500D01*
X124700500Y-93214500D01*
X124704601Y-93204601D01*
X124714500Y-93200500D01*
X149285500Y-93200500D01*
X149295399Y-93204601D01*
G37*
%TD.AperFunction*%
%TD*%
M02*
