%TF.GenerationSoftware,KiCad,Pcbnew,7.0.5*%
%TF.CreationDate,2023-06-23T15:18:34+05:00*%
%TF.ProjectId,jitx-design,6a697478-2d64-4657-9369-676e2e6b6963,rev?*%
%TF.SameCoordinates,Original*%
%TF.FileFunction,Paste,Top*%
%TF.FilePolarity,Positive*%
%FSLAX46Y46*%
G04 Gerber Fmt 4.6, Leading zero omitted, Abs format (unit mm)*
G04 Created by KiCad (PCBNEW 7.0.5) date 2023-06-23 15:18:34*
%MOMM*%
%LPD*%
G01*
G04 APERTURE LIST*
%ADD10O,0.588000X2.045000*%
%ADD11R,0.600000X0.430278*%
%ADD12R,0.600000X0.417778*%
%ADD13R,0.417778X0.600000*%
%ADD14R,1.200000X1.400000*%
%ADD15R,0.380278X0.600000*%
%ADD16R,0.600000X0.380278*%
%ADD17R,0.512132X0.950000*%
%ADD18R,1.064000X2.218000*%
%ADD19R,5.554000X5.204000*%
G04 APERTURE END LIST*
%TO.C,U5*%
G36*
X134735865Y-106859046D02*
G01*
X134455865Y-106859046D01*
X134455865Y-105969046D01*
X134735865Y-105969046D01*
X134735865Y-106859046D01*
G37*
G36*
X136735865Y-106859046D02*
G01*
X136455865Y-106859046D01*
X136455865Y-105969046D01*
X136735865Y-105969046D01*
X136735865Y-106859046D01*
G37*
G36*
X137235865Y-106859046D02*
G01*
X136955865Y-106859046D01*
X136955865Y-105969046D01*
X137235865Y-105969046D01*
X137235865Y-106859046D01*
G37*
G36*
X137735865Y-106859046D02*
G01*
X137455865Y-106859046D01*
X137455865Y-105969046D01*
X137735865Y-105969046D01*
X137735865Y-106859046D01*
G37*
G36*
X135235865Y-106859046D02*
G01*
X134955865Y-106859046D01*
X134955865Y-105969046D01*
X135235865Y-105969046D01*
X135235865Y-106859046D01*
G37*
G36*
X138235865Y-106859046D02*
G01*
X137955865Y-106859046D01*
X137955865Y-105969046D01*
X138235865Y-105969046D01*
X138235865Y-106859046D01*
G37*
G36*
X138735865Y-106859046D02*
G01*
X138455865Y-106859046D01*
X138455865Y-105969046D01*
X138735865Y-105969046D01*
X138735865Y-106859046D01*
G37*
G36*
X136235865Y-106859046D02*
G01*
X135955865Y-106859046D01*
X135955865Y-105969046D01*
X136235865Y-105969046D01*
X136235865Y-106859046D01*
G37*
G36*
X135735865Y-106859046D02*
G01*
X135455865Y-106859046D01*
X135455865Y-105969046D01*
X135735865Y-105969046D01*
X135735865Y-106859046D01*
G37*
G36*
X139850865Y-105744046D02*
G01*
X138960865Y-105744046D01*
X138960865Y-105464046D01*
X139850865Y-105464046D01*
X139850865Y-105744046D01*
G37*
G36*
X134230865Y-105744046D02*
G01*
X133340865Y-105744046D01*
X133340865Y-105464046D01*
X134230865Y-105464046D01*
X134230865Y-105744046D01*
G37*
G36*
X139850865Y-105244046D02*
G01*
X138960865Y-105244046D01*
X138960865Y-104964046D01*
X139850865Y-104964046D01*
X139850865Y-105244046D01*
G37*
G36*
X134230865Y-105244046D02*
G01*
X133340865Y-105244046D01*
X133340865Y-104964046D01*
X134230865Y-104964046D01*
X134230865Y-105244046D01*
G37*
G36*
X134230865Y-104744046D02*
G01*
X133340865Y-104744046D01*
X133340865Y-104464046D01*
X134230865Y-104464046D01*
X134230865Y-104744046D01*
G37*
G36*
X139850865Y-104744046D02*
G01*
X138960865Y-104744046D01*
X138960865Y-104464046D01*
X139850865Y-104464046D01*
X139850865Y-104744046D01*
G37*
G36*
X134230865Y-104244046D02*
G01*
X133340865Y-104244046D01*
X133340865Y-103964046D01*
X134230865Y-103964046D01*
X134230865Y-104244046D01*
G37*
G36*
X139850865Y-104244046D02*
G01*
X138960865Y-104244046D01*
X138960865Y-103964046D01*
X139850865Y-103964046D01*
X139850865Y-104244046D01*
G37*
G36*
X134230865Y-103744046D02*
G01*
X133340865Y-103744046D01*
X133340865Y-103464046D01*
X134230865Y-103464046D01*
X134230865Y-103744046D01*
G37*
G36*
X139850865Y-103744046D02*
G01*
X138960865Y-103744046D01*
X138960865Y-103464046D01*
X139850865Y-103464046D01*
X139850865Y-103744046D01*
G37*
G36*
X134230865Y-103244046D02*
G01*
X133340865Y-103244046D01*
X133340865Y-102964046D01*
X134230865Y-102964046D01*
X134230865Y-103244046D01*
G37*
G36*
X139850865Y-103244046D02*
G01*
X138960865Y-103244046D01*
X138960865Y-102964046D01*
X139850865Y-102964046D01*
X139850865Y-103244046D01*
G37*
G36*
X134230865Y-102744046D02*
G01*
X133340865Y-102744046D01*
X133340865Y-102464046D01*
X134230865Y-102464046D01*
X134230865Y-102744046D01*
G37*
G36*
X139850865Y-102744046D02*
G01*
X138960865Y-102744046D01*
X138960865Y-102464046D01*
X139850865Y-102464046D01*
X139850865Y-102744046D01*
G37*
G36*
X134230865Y-102244046D02*
G01*
X133340865Y-102244046D01*
X133340865Y-101964046D01*
X134230865Y-101964046D01*
X134230865Y-102244046D01*
G37*
G36*
X139850865Y-102244046D02*
G01*
X138960865Y-102244046D01*
X138960865Y-101964046D01*
X139850865Y-101964046D01*
X139850865Y-102244046D01*
G37*
G36*
X134230865Y-101744046D02*
G01*
X133340865Y-101744046D01*
X133340865Y-101464046D01*
X134230865Y-101464046D01*
X134230865Y-101744046D01*
G37*
G36*
X139850865Y-101744046D02*
G01*
X138960865Y-101744046D01*
X138960865Y-101464046D01*
X139850865Y-101464046D01*
X139850865Y-101744046D01*
G37*
G36*
X136735865Y-101239046D02*
G01*
X136455865Y-101239046D01*
X136455865Y-100349046D01*
X136735865Y-100349046D01*
X136735865Y-101239046D01*
G37*
G36*
X137235865Y-101239046D02*
G01*
X136955865Y-101239046D01*
X136955865Y-100349046D01*
X137235865Y-100349046D01*
X137235865Y-101239046D01*
G37*
G36*
X137735865Y-101239046D02*
G01*
X137455865Y-101239046D01*
X137455865Y-100349046D01*
X137735865Y-100349046D01*
X137735865Y-101239046D01*
G37*
G36*
X134735865Y-101239046D02*
G01*
X134455865Y-101239046D01*
X134455865Y-100349046D01*
X134735865Y-100349046D01*
X134735865Y-101239046D01*
G37*
G36*
X138235865Y-101239046D02*
G01*
X137955865Y-101239046D01*
X137955865Y-100349046D01*
X138235865Y-100349046D01*
X138235865Y-101239046D01*
G37*
G36*
X138735865Y-101239046D02*
G01*
X138455865Y-101239046D01*
X138455865Y-100349046D01*
X138735865Y-100349046D01*
X138735865Y-101239046D01*
G37*
G36*
X136235865Y-101239046D02*
G01*
X135955865Y-101239046D01*
X135955865Y-100349046D01*
X136235865Y-100349046D01*
X136235865Y-101239046D01*
G37*
G36*
X135235865Y-101239046D02*
G01*
X134955865Y-101239046D01*
X134955865Y-100349046D01*
X135235865Y-100349046D01*
X135235865Y-101239046D01*
G37*
G36*
X135735865Y-101239046D02*
G01*
X135455865Y-101239046D01*
X135455865Y-100349046D01*
X135735865Y-100349046D01*
X135735865Y-101239046D01*
G37*
G36*
X138235865Y-105244046D02*
G01*
X134955865Y-105244046D01*
X134955865Y-101964046D01*
X138235865Y-101964046D01*
X138235865Y-105244046D01*
G37*
%TO.C,R8*%
G36*
X141842658Y-106610852D02*
G01*
X141842658Y-107070852D01*
X141802658Y-107110852D01*
X141301658Y-107110852D01*
X141261658Y-107070852D01*
X141261658Y-106610852D01*
X141301658Y-106570852D01*
X141802658Y-106570852D01*
X141842658Y-106610852D01*
G37*
G36*
X140991658Y-106610852D02*
G01*
X140991658Y-107070852D01*
X140951658Y-107110852D01*
X140450658Y-107110852D01*
X140410658Y-107070852D01*
X140410658Y-106610852D01*
X140450658Y-106570852D01*
X140951658Y-106570852D01*
X140991658Y-106610852D01*
G37*
%TD*%
D10*
%TO.C,U4*%
X126467171Y-121212230D03*
X127737171Y-121212230D03*
X129007171Y-121212230D03*
X130277171Y-121212230D03*
X126467171Y-115667230D03*
X127737171Y-115667230D03*
X129007171Y-115667230D03*
X130277171Y-115667230D03*
%TD*%
D11*
%TO.C,C11*%
X132381115Y-101692393D03*
X132381115Y-100722671D03*
%TD*%
D12*
%TO.C,C10*%
X138644942Y-107591651D03*
X138644942Y-108548873D03*
%TD*%
D13*
%TO.C,C9*%
X131841689Y-103715096D03*
X130884467Y-103715096D03*
%TD*%
D14*
%TO.C,X1*%
X135973506Y-112346485D03*
X135973506Y-110146485D03*
X134273506Y-110146485D03*
X134273506Y-112346485D03*
%TD*%
D13*
%TO.C,C8*%
X136529089Y-97138773D03*
X137486311Y-97138773D03*
%TD*%
D12*
%TO.C,C1*%
X148863158Y-115334074D03*
X148863158Y-114376852D03*
%TD*%
D15*
%TO.C,R4*%
X128202801Y-106729721D03*
X129122523Y-106729721D03*
%TD*%
D13*
%TO.C,C7*%
X140695641Y-103134378D03*
X141652863Y-103134378D03*
%TD*%
D15*
%TO.C,R7*%
X134176631Y-114068215D03*
X133256909Y-114068215D03*
%TD*%
D16*
%TO.C,R1*%
X148106609Y-101082516D03*
X148106609Y-102002238D03*
%TD*%
D13*
%TO.C,C3*%
X141288731Y-110961796D03*
X142245953Y-110961796D03*
%TD*%
D15*
%TO.C,R3*%
X126883250Y-108885762D03*
X127802972Y-108885762D03*
%TD*%
D12*
%TO.C,C6*%
X137482233Y-107541601D03*
X137482233Y-108498823D03*
%TD*%
D13*
%TO.C,C13*%
X134168661Y-108309522D03*
X133211439Y-108309522D03*
%TD*%
D12*
%TO.C,C2*%
X145833737Y-109688708D03*
X145833737Y-108731486D03*
%TD*%
D15*
%TO.C,R2*%
X125847533Y-110727391D03*
X126767255Y-110727391D03*
%TD*%
D12*
%TO.C,C5*%
X137089343Y-99646251D03*
X137089343Y-98689029D03*
%TD*%
D17*
%TO.C,LED1*%
X143607724Y-106840352D03*
X145045592Y-106840352D03*
%TD*%
D13*
%TO.C,C12*%
X137573127Y-112571302D03*
X138530349Y-112571302D03*
%TD*%
%TO.C,C4*%
X134774512Y-99695657D03*
X135731734Y-99695657D03*
%TD*%
D15*
%TO.C,R6*%
X134495873Y-97122587D03*
X135415595Y-97122587D03*
%TD*%
D16*
%TO.C,R5*%
X138129245Y-109570470D03*
X138129245Y-110490192D03*
%TD*%
D18*
%TO.C,U3*%
X146659619Y-113037221D03*
X142060619Y-113037221D03*
D19*
X144360619Y-119734221D03*
%TD*%
M02*
