%TF.GenerationSoftware,KiCad,Pcbnew,7.0.2-0*%
%TF.CreationDate,2023-06-27T10:53:37-07:00*%
%TF.ProjectId,jitx-design,6a697478-2d64-4657-9369-676e2e6b6963,rev?*%
%TF.SameCoordinates,Original*%
%TF.FileFunction,Legend,Bot*%
%TF.FilePolarity,Positive*%
%FSLAX46Y46*%
G04 Gerber Fmt 4.6, Leading zero omitted, Abs format (unit mm)*
G04 Created by KiCad (PCBNEW 7.0.2-0) date 2023-06-27 10:53:37*
%MOMM*%
%LPD*%
G01*
G04 APERTURE LIST*
G04 Aperture macros list*
%AMRoundRect*
0 Rectangle with rounded corners*
0 $1 Rounding radius*
0 $2 $3 $4 $5 $6 $7 $8 $9 X,Y pos of 4 corners*
0 Add a 4 corners polygon primitive as box body*
4,1,4,$2,$3,$4,$5,$6,$7,$8,$9,$2,$3,0*
0 Add four circle primitives for the rounded corners*
1,1,$1+$1,$2,$3*
1,1,$1+$1,$4,$5*
1,1,$1+$1,$6,$7*
1,1,$1+$1,$8,$9*
0 Add four rect primitives between the rounded corners*
20,1,$1+$1,$2,$3,$4,$5,0*
20,1,$1+$1,$4,$5,$6,$7,0*
20,1,$1+$1,$6,$7,$8,$9,0*
20,1,$1+$1,$8,$9,$2,$3,0*%
G04 Aperture macros list end*
%ADD10C,0.100000*%
%ADD11C,0.254000*%
%ADD12C,2.300000*%
%ADD13C,3.700000*%
%ADD14RoundRect,0.050000X0.600000X-0.250000X0.600000X0.250000X-0.600000X0.250000X-0.600000X-0.250000X0*%
%ADD15RoundRect,0.050000X1.050000X-0.650000X1.050000X0.650000X-1.050000X0.650000X-1.050000X-0.650000X0*%
%ADD16RoundRect,0.050000X0.500000X-0.150000X0.500000X0.150000X-0.500000X0.150000X-0.500000X-0.150000X0*%
%ADD17C,1.700000*%
%ADD18C,1.200000*%
%ADD19RoundRect,0.051000X-1.000000X0.500000X-1.000000X-0.500000X1.000000X-0.500000X1.000000X0.500000X0*%
%ADD20RoundRect,0.051000X-1.000000X0.350000X-1.000000X-0.350000X1.000000X-0.350000X1.000000X0.350000X0*%
%ADD21RoundRect,0.051000X-1.400000X0.750000X-1.400000X-0.750000X1.400000X-0.750000X1.400000X0.750000X0*%
G04 APERTURE END LIST*
D10*
%TO.C,USB1*%
X146544519Y-106738095D02*
X147354042Y-106738095D01*
X147354042Y-106738095D02*
X147449280Y-106785714D01*
X147449280Y-106785714D02*
X147496900Y-106833333D01*
X147496900Y-106833333D02*
X147544519Y-106928571D01*
X147544519Y-106928571D02*
X147544519Y-107119047D01*
X147544519Y-107119047D02*
X147496900Y-107214285D01*
X147496900Y-107214285D02*
X147449280Y-107261904D01*
X147449280Y-107261904D02*
X147354042Y-107309523D01*
X147354042Y-107309523D02*
X146544519Y-107309523D01*
X147496900Y-107738095D02*
X147544519Y-107880952D01*
X147544519Y-107880952D02*
X147544519Y-108119047D01*
X147544519Y-108119047D02*
X147496900Y-108214285D01*
X147496900Y-108214285D02*
X147449280Y-108261904D01*
X147449280Y-108261904D02*
X147354042Y-108309523D01*
X147354042Y-108309523D02*
X147258804Y-108309523D01*
X147258804Y-108309523D02*
X147163566Y-108261904D01*
X147163566Y-108261904D02*
X147115947Y-108214285D01*
X147115947Y-108214285D02*
X147068328Y-108119047D01*
X147068328Y-108119047D02*
X147020709Y-107928571D01*
X147020709Y-107928571D02*
X146973090Y-107833333D01*
X146973090Y-107833333D02*
X146925471Y-107785714D01*
X146925471Y-107785714D02*
X146830233Y-107738095D01*
X146830233Y-107738095D02*
X146734995Y-107738095D01*
X146734995Y-107738095D02*
X146639757Y-107785714D01*
X146639757Y-107785714D02*
X146592138Y-107833333D01*
X146592138Y-107833333D02*
X146544519Y-107928571D01*
X146544519Y-107928571D02*
X146544519Y-108166666D01*
X146544519Y-108166666D02*
X146592138Y-108309523D01*
X147020709Y-109071428D02*
X147068328Y-109214285D01*
X147068328Y-109214285D02*
X147115947Y-109261904D01*
X147115947Y-109261904D02*
X147211185Y-109309523D01*
X147211185Y-109309523D02*
X147354042Y-109309523D01*
X147354042Y-109309523D02*
X147449280Y-109261904D01*
X147449280Y-109261904D02*
X147496900Y-109214285D01*
X147496900Y-109214285D02*
X147544519Y-109119047D01*
X147544519Y-109119047D02*
X147544519Y-108738095D01*
X147544519Y-108738095D02*
X146544519Y-108738095D01*
X146544519Y-108738095D02*
X146544519Y-109071428D01*
X146544519Y-109071428D02*
X146592138Y-109166666D01*
X146592138Y-109166666D02*
X146639757Y-109214285D01*
X146639757Y-109214285D02*
X146734995Y-109261904D01*
X146734995Y-109261904D02*
X146830233Y-109261904D01*
X146830233Y-109261904D02*
X146925471Y-109214285D01*
X146925471Y-109214285D02*
X146973090Y-109166666D01*
X146973090Y-109166666D02*
X147020709Y-109071428D01*
X147020709Y-109071428D02*
X147020709Y-108738095D01*
X147544519Y-110261904D02*
X147544519Y-109690476D01*
X147544519Y-109976190D02*
X146544519Y-109976190D01*
X146544519Y-109976190D02*
X146687376Y-109880952D01*
X146687376Y-109880952D02*
X146782614Y-109785714D01*
X146782614Y-109785714D02*
X146830233Y-109690476D01*
%TO.C,Card1*%
X145347980Y-105928570D02*
X145395600Y-105880951D01*
X145395600Y-105880951D02*
X145443219Y-105738094D01*
X145443219Y-105738094D02*
X145443219Y-105642856D01*
X145443219Y-105642856D02*
X145395600Y-105499999D01*
X145395600Y-105499999D02*
X145300361Y-105404761D01*
X145300361Y-105404761D02*
X145205123Y-105357142D01*
X145205123Y-105357142D02*
X145014647Y-105309523D01*
X145014647Y-105309523D02*
X144871790Y-105309523D01*
X144871790Y-105309523D02*
X144681314Y-105357142D01*
X144681314Y-105357142D02*
X144586076Y-105404761D01*
X144586076Y-105404761D02*
X144490838Y-105499999D01*
X144490838Y-105499999D02*
X144443219Y-105642856D01*
X144443219Y-105642856D02*
X144443219Y-105738094D01*
X144443219Y-105738094D02*
X144490838Y-105880951D01*
X144490838Y-105880951D02*
X144538457Y-105928570D01*
X145443219Y-106785713D02*
X144919409Y-106785713D01*
X144919409Y-106785713D02*
X144824171Y-106738094D01*
X144824171Y-106738094D02*
X144776552Y-106642856D01*
X144776552Y-106642856D02*
X144776552Y-106452380D01*
X144776552Y-106452380D02*
X144824171Y-106357142D01*
X145395600Y-106785713D02*
X145443219Y-106690475D01*
X145443219Y-106690475D02*
X145443219Y-106452380D01*
X145443219Y-106452380D02*
X145395600Y-106357142D01*
X145395600Y-106357142D02*
X145300361Y-106309523D01*
X145300361Y-106309523D02*
X145205123Y-106309523D01*
X145205123Y-106309523D02*
X145109885Y-106357142D01*
X145109885Y-106357142D02*
X145062266Y-106452380D01*
X145062266Y-106452380D02*
X145062266Y-106690475D01*
X145062266Y-106690475D02*
X145014647Y-106785713D01*
X145443219Y-107261904D02*
X144776552Y-107261904D01*
X144967028Y-107261904D02*
X144871790Y-107309523D01*
X144871790Y-107309523D02*
X144824171Y-107357142D01*
X144824171Y-107357142D02*
X144776552Y-107452380D01*
X144776552Y-107452380D02*
X144776552Y-107547618D01*
X145443219Y-108309523D02*
X144443219Y-108309523D01*
X145395600Y-108309523D02*
X145443219Y-108214285D01*
X145443219Y-108214285D02*
X145443219Y-108023809D01*
X145443219Y-108023809D02*
X145395600Y-107928571D01*
X145395600Y-107928571D02*
X145347980Y-107880952D01*
X145347980Y-107880952D02*
X145252742Y-107833333D01*
X145252742Y-107833333D02*
X144967028Y-107833333D01*
X144967028Y-107833333D02*
X144871790Y-107880952D01*
X144871790Y-107880952D02*
X144824171Y-107928571D01*
X144824171Y-107928571D02*
X144776552Y-108023809D01*
X144776552Y-108023809D02*
X144776552Y-108214285D01*
X144776552Y-108214285D02*
X144824171Y-108309523D01*
X145443219Y-109309523D02*
X145443219Y-108738095D01*
X145443219Y-109023809D02*
X144443219Y-109023809D01*
X144443219Y-109023809D02*
X144586076Y-108928571D01*
X144586076Y-108928571D02*
X144681314Y-108833333D01*
X144681314Y-108833333D02*
X144728933Y-108738095D01*
D11*
%TO.C,USB1*%
X162387500Y-112150000D02*
X151168500Y-112150000D01*
X148787500Y-111075000D02*
X148787500Y-111824000D01*
X162187500Y-111000000D02*
X151687500Y-111000000D01*
X162387500Y-105061000D02*
X151687500Y-105061000D01*
X148787500Y-104176000D02*
X148787500Y-104925000D01*
X162387500Y-103850000D02*
X162387500Y-112150000D01*
X162387500Y-103850000D02*
X151168500Y-103850000D01*
%TO.C,Card1*%
X135225000Y-94800000D02*
X137425000Y-97000000D01*
X128357000Y-94800000D02*
X135225000Y-94800000D01*
X125725000Y-95331000D02*
X125725000Y-120669000D01*
X137425000Y-97000000D02*
X139594000Y-97000000D01*
X142225000Y-97904000D02*
X142225000Y-97531000D01*
X142225000Y-100404000D02*
X142225000Y-99355000D01*
X142225000Y-102904000D02*
X142225000Y-101856000D01*
X142225000Y-105404000D02*
X142225000Y-104355000D01*
X142225000Y-107904000D02*
X142225000Y-106856000D01*
X142225000Y-110404000D02*
X142225000Y-109356000D01*
X142225000Y-112904000D02*
X142225000Y-111856000D01*
X142225000Y-115400000D02*
X142225000Y-114356000D01*
X128456000Y-121200000D02*
X139694000Y-121200000D01*
%TD*%
%LPC*%
D12*
%TO.C,U1*%
X150050000Y-97450000D03*
D13*
X150050000Y-97450000D03*
%TD*%
D12*
%TO.C,U2*%
X150050000Y-118550000D03*
D13*
X150050000Y-118550000D03*
%TD*%
D14*
%TO.C,USB1*%
X150336500Y-104425000D03*
D15*
X149887500Y-103300000D03*
X149887500Y-112700000D03*
D14*
X150336500Y-111575000D03*
D16*
X149437500Y-110750000D03*
X149437500Y-110250000D03*
X149437500Y-109750000D03*
X149437500Y-109250000D03*
X149437500Y-106750000D03*
X149437500Y-106250000D03*
X149437500Y-105750000D03*
X149437500Y-105250000D03*
X149437500Y-107250000D03*
X149437500Y-107750000D03*
X149437500Y-108250000D03*
X149437500Y-108750000D03*
%TD*%
D17*
%TO.C,Card1*%
X140225000Y-98500000D03*
D18*
X140275000Y-119500000D03*
D19*
X143275000Y-101130000D03*
X143275000Y-103630000D03*
X143275000Y-106130000D03*
X143275000Y-108630000D03*
X143275000Y-111130000D03*
X143275000Y-113630000D03*
X143275000Y-116060000D03*
X143275000Y-117760000D03*
X143275000Y-98630000D03*
D20*
X143275000Y-119060000D03*
X143275000Y-120260000D03*
D21*
X141325000Y-121650000D03*
X126825000Y-121650000D03*
X126725000Y-94350000D03*
X141225000Y-96550000D03*
%TD*%
%LPD*%
M02*
