%TF.GenerationSoftware,KiCad,Pcbnew,7.0.6*%
%TF.CreationDate,2023-07-11T12:05:29-07:00*%
%TF.ProjectId,jitx-design,6a697478-2d64-4657-9369-676e2e6b6963,rev?*%
%TF.SameCoordinates,Original*%
%TF.FileFunction,Legend,Top*%
%TF.FilePolarity,Positive*%
%FSLAX46Y46*%
G04 Gerber Fmt 4.6, Leading zero omitted, Abs format (unit mm)*
G04 Created by KiCad (PCBNEW 7.0.6) date 2023-07-11 12:05:29*
%MOMM*%
%LPD*%
G01*
G04 APERTURE LIST*
G04 Aperture macros list*
%AMRoundRect*
0 Rectangle with rounded corners*
0 $1 Rounding radius*
0 $2 $3 $4 $5 $6 $7 $8 $9 X,Y pos of 4 corners*
0 Add a 4 corners polygon primitive as box body*
4,1,4,$2,$3,$4,$5,$6,$7,$8,$9,$2,$3,0*
0 Add four circle primitives for the rounded corners*
1,1,$1+$1,$2,$3*
1,1,$1+$1,$4,$5*
1,1,$1+$1,$6,$7*
1,1,$1+$1,$8,$9*
0 Add four rect primitives between the rounded corners*
20,1,$1+$1,$2,$3,$4,$5,0*
20,1,$1+$1,$4,$5,$6,$7,0*
20,1,$1+$1,$6,$7,$8,$9,0*
20,1,$1+$1,$8,$9,$2,$3,0*%
G04 Aperture macros list end*
%ADD10C,0.100000*%
%ADD11C,0.152000*%
%ADD12C,0.150000*%
%ADD13RoundRect,0.051000X-0.283000X-0.270000X0.283000X-0.270000X0.283000X0.270000X-0.283000X0.270000X0*%
%ADD14RoundRect,0.050000X-0.300000X-0.186389X0.300000X-0.186389X0.300000X0.186389X-0.300000X0.186389X0*%
%ADD15RoundRect,0.050000X-0.208889X0.300000X-0.208889X-0.300000X0.208889X-0.300000X0.208889X0.300000X0*%
%ADD16RoundRect,0.051000X0.532000X-1.109000X0.532000X1.109000X-0.532000X1.109000X-0.532000X-1.109000X0*%
%ADD17RoundRect,0.051000X2.777000X-2.602000X2.777000X2.602000X-2.777000X2.602000X-2.777000X-2.602000X0*%
%ADD18RoundRect,0.050000X-0.190139X0.300000X-0.190139X-0.300000X0.190139X-0.300000X0.190139X0.300000X0*%
%ADD19C,2.100000*%
%ADD20RoundRect,0.050000X0.183889X-0.300000X0.183889X0.300000X-0.183889X0.300000X-0.183889X-0.300000X0*%
%ADD21RoundRect,0.051000X0.600000X-0.700000X0.600000X0.700000X-0.600000X0.700000X-0.600000X-0.700000X0*%
%ADD22RoundRect,0.050000X-0.300000X-0.190139X0.300000X-0.190139X0.300000X0.190139X-0.300000X0.190139X0*%
%ADD23O,0.690000X2.147000*%
%ADD24RoundRect,0.050000X0.300000X0.208889X-0.300000X0.208889X-0.300000X-0.208889X0.300000X-0.208889X0*%
%ADD25RoundRect,0.050000X-0.300000X-0.208889X0.300000X-0.208889X0.300000X0.208889X-0.300000X0.208889X0*%
%ADD26RoundRect,0.050000X-0.300000X-0.215139X0.300000X-0.215139X0.300000X0.215139X-0.300000X0.215139X0*%
%ADD27C,2.300000*%
%ADD28C,3.700000*%
%ADD29RoundRect,0.050000X0.208889X-0.300000X0.208889X0.300000X-0.208889X0.300000X-0.208889X-0.300000X0*%
%ADD30RoundRect,0.050000X0.256066X-0.475000X0.256066X0.475000X-0.256066X0.475000X-0.256066X-0.475000X0*%
%ADD31RoundRect,0.050000X0.190139X-0.300000X0.190139X0.300000X-0.190139X0.300000X-0.190139X-0.300000X0*%
%ADD32RoundRect,0.050000X-0.445000X0.140000X-0.445000X-0.140000X0.445000X-0.140000X0.445000X0.140000X0*%
%ADD33RoundRect,0.050000X-0.140000X-0.445000X0.140000X-0.445000X0.140000X0.445000X-0.140000X0.445000X0*%
%ADD34RoundRect,0.050000X2.050000X2.050000X-2.050000X2.050000X-2.050000X-2.050000X2.050000X-2.050000X0*%
%ADD35C,1.700000*%
%ADD36C,1.200000*%
G04 APERTURE END LIST*
D10*
X141031353Y-105867419D02*
X140698020Y-105391228D01*
X140459925Y-105867419D02*
X140459925Y-104867419D01*
X140459925Y-104867419D02*
X140840877Y-104867419D01*
X140840877Y-104867419D02*
X140936115Y-104915038D01*
X140936115Y-104915038D02*
X140983734Y-104962657D01*
X140983734Y-104962657D02*
X141031353Y-105057895D01*
X141031353Y-105057895D02*
X141031353Y-105200752D01*
X141031353Y-105200752D02*
X140983734Y-105295990D01*
X140983734Y-105295990D02*
X140936115Y-105343609D01*
X140936115Y-105343609D02*
X140840877Y-105391228D01*
X140840877Y-105391228D02*
X140459925Y-105391228D01*
X141602782Y-105295990D02*
X141507544Y-105248371D01*
X141507544Y-105248371D02*
X141459925Y-105200752D01*
X141459925Y-105200752D02*
X141412306Y-105105514D01*
X141412306Y-105105514D02*
X141412306Y-105057895D01*
X141412306Y-105057895D02*
X141459925Y-104962657D01*
X141459925Y-104962657D02*
X141507544Y-104915038D01*
X141507544Y-104915038D02*
X141602782Y-104867419D01*
X141602782Y-104867419D02*
X141793258Y-104867419D01*
X141793258Y-104867419D02*
X141888496Y-104915038D01*
X141888496Y-104915038D02*
X141936115Y-104962657D01*
X141936115Y-104962657D02*
X141983734Y-105057895D01*
X141983734Y-105057895D02*
X141983734Y-105105514D01*
X141983734Y-105105514D02*
X141936115Y-105200752D01*
X141936115Y-105200752D02*
X141888496Y-105248371D01*
X141888496Y-105248371D02*
X141793258Y-105295990D01*
X141793258Y-105295990D02*
X141602782Y-105295990D01*
X141602782Y-105295990D02*
X141507544Y-105343609D01*
X141507544Y-105343609D02*
X141459925Y-105391228D01*
X141459925Y-105391228D02*
X141412306Y-105486466D01*
X141412306Y-105486466D02*
X141412306Y-105676942D01*
X141412306Y-105676942D02*
X141459925Y-105772180D01*
X141459925Y-105772180D02*
X141507544Y-105819800D01*
X141507544Y-105819800D02*
X141602782Y-105867419D01*
X141602782Y-105867419D02*
X141793258Y-105867419D01*
X141793258Y-105867419D02*
X141888496Y-105819800D01*
X141888496Y-105819800D02*
X141936115Y-105772180D01*
X141936115Y-105772180D02*
X141983734Y-105676942D01*
X141983734Y-105676942D02*
X141983734Y-105486466D01*
X141983734Y-105486466D02*
X141936115Y-105391228D01*
X141936115Y-105391228D02*
X141888496Y-105343609D01*
X141888496Y-105343609D02*
X141793258Y-105295990D01*
X139649419Y-111418666D02*
X139173228Y-111751999D01*
X139649419Y-111990094D02*
X138649419Y-111990094D01*
X138649419Y-111990094D02*
X138649419Y-111609142D01*
X138649419Y-111609142D02*
X138697038Y-111513904D01*
X138697038Y-111513904D02*
X138744657Y-111466285D01*
X138744657Y-111466285D02*
X138839895Y-111418666D01*
X138839895Y-111418666D02*
X138982752Y-111418666D01*
X138982752Y-111418666D02*
X139077990Y-111466285D01*
X139077990Y-111466285D02*
X139125609Y-111513904D01*
X139125609Y-111513904D02*
X139173228Y-111609142D01*
X139173228Y-111609142D02*
X139173228Y-111990094D01*
X138649419Y-110513904D02*
X138649419Y-110990094D01*
X138649419Y-110990094D02*
X139125609Y-111037713D01*
X139125609Y-111037713D02*
X139077990Y-110990094D01*
X139077990Y-110990094D02*
X139030371Y-110894856D01*
X139030371Y-110894856D02*
X139030371Y-110656761D01*
X139030371Y-110656761D02*
X139077990Y-110561523D01*
X139077990Y-110561523D02*
X139125609Y-110513904D01*
X139125609Y-110513904D02*
X139220847Y-110466285D01*
X139220847Y-110466285D02*
X139458942Y-110466285D01*
X139458942Y-110466285D02*
X139554180Y-110513904D01*
X139554180Y-110513904D02*
X139601800Y-110561523D01*
X139601800Y-110561523D02*
X139649419Y-110656761D01*
X139649419Y-110656761D02*
X139649419Y-110894856D01*
X139649419Y-110894856D02*
X139601800Y-110990094D01*
X139601800Y-110990094D02*
X139554180Y-111037713D01*
X142415394Y-110090180D02*
X142367775Y-110137800D01*
X142367775Y-110137800D02*
X142224918Y-110185419D01*
X142224918Y-110185419D02*
X142129680Y-110185419D01*
X142129680Y-110185419D02*
X141986823Y-110137800D01*
X141986823Y-110137800D02*
X141891585Y-110042561D01*
X141891585Y-110042561D02*
X141843966Y-109947323D01*
X141843966Y-109947323D02*
X141796347Y-109756847D01*
X141796347Y-109756847D02*
X141796347Y-109613990D01*
X141796347Y-109613990D02*
X141843966Y-109423514D01*
X141843966Y-109423514D02*
X141891585Y-109328276D01*
X141891585Y-109328276D02*
X141986823Y-109233038D01*
X141986823Y-109233038D02*
X142129680Y-109185419D01*
X142129680Y-109185419D02*
X142224918Y-109185419D01*
X142224918Y-109185419D02*
X142367775Y-109233038D01*
X142367775Y-109233038D02*
X142415394Y-109280657D01*
X142748728Y-109185419D02*
X143367775Y-109185419D01*
X143367775Y-109185419D02*
X143034442Y-109566371D01*
X143034442Y-109566371D02*
X143177299Y-109566371D01*
X143177299Y-109566371D02*
X143272537Y-109613990D01*
X143272537Y-109613990D02*
X143320156Y-109661609D01*
X143320156Y-109661609D02*
X143367775Y-109756847D01*
X143367775Y-109756847D02*
X143367775Y-109994942D01*
X143367775Y-109994942D02*
X143320156Y-110090180D01*
X143320156Y-110090180D02*
X143272537Y-110137800D01*
X143272537Y-110137800D02*
X143177299Y-110185419D01*
X143177299Y-110185419D02*
X142891585Y-110185419D01*
X142891585Y-110185419D02*
X142796347Y-110137800D01*
X142796347Y-110137800D02*
X142748728Y-110090180D01*
X139665419Y-117044115D02*
X140474942Y-117044115D01*
X140474942Y-117044115D02*
X140570180Y-116996496D01*
X140570180Y-116996496D02*
X140617800Y-116948877D01*
X140617800Y-116948877D02*
X140665419Y-116853639D01*
X140665419Y-116853639D02*
X140665419Y-116663163D01*
X140665419Y-116663163D02*
X140617800Y-116567925D01*
X140617800Y-116567925D02*
X140570180Y-116520306D01*
X140570180Y-116520306D02*
X140474942Y-116472687D01*
X140474942Y-116472687D02*
X139665419Y-116472687D01*
X139665419Y-116091734D02*
X139665419Y-115472687D01*
X139665419Y-115472687D02*
X140046371Y-115806020D01*
X140046371Y-115806020D02*
X140046371Y-115663163D01*
X140046371Y-115663163D02*
X140093990Y-115567925D01*
X140093990Y-115567925D02*
X140141609Y-115520306D01*
X140141609Y-115520306D02*
X140236847Y-115472687D01*
X140236847Y-115472687D02*
X140474942Y-115472687D01*
X140474942Y-115472687D02*
X140570180Y-115520306D01*
X140570180Y-115520306D02*
X140617800Y-115567925D01*
X140617800Y-115567925D02*
X140665419Y-115663163D01*
X140665419Y-115663163D02*
X140665419Y-115948877D01*
X140665419Y-115948877D02*
X140617800Y-116044115D01*
X140617800Y-116044115D02*
X140570180Y-116091734D01*
X133550103Y-115519419D02*
X133216770Y-115043228D01*
X132978675Y-115519419D02*
X132978675Y-114519419D01*
X132978675Y-114519419D02*
X133359627Y-114519419D01*
X133359627Y-114519419D02*
X133454865Y-114567038D01*
X133454865Y-114567038D02*
X133502484Y-114614657D01*
X133502484Y-114614657D02*
X133550103Y-114709895D01*
X133550103Y-114709895D02*
X133550103Y-114852752D01*
X133550103Y-114852752D02*
X133502484Y-114947990D01*
X133502484Y-114947990D02*
X133454865Y-114995609D01*
X133454865Y-114995609D02*
X133359627Y-115043228D01*
X133359627Y-115043228D02*
X132978675Y-115043228D01*
X133883437Y-114519419D02*
X134550103Y-114519419D01*
X134550103Y-114519419D02*
X134121532Y-115519419D01*
X134789067Y-96630006D02*
X134455734Y-96153815D01*
X134217639Y-96630006D02*
X134217639Y-95630006D01*
X134217639Y-95630006D02*
X134598591Y-95630006D01*
X134598591Y-95630006D02*
X134693829Y-95677625D01*
X134693829Y-95677625D02*
X134741448Y-95725244D01*
X134741448Y-95725244D02*
X134789067Y-95820482D01*
X134789067Y-95820482D02*
X134789067Y-95963339D01*
X134789067Y-95963339D02*
X134741448Y-96058577D01*
X134741448Y-96058577D02*
X134693829Y-96106196D01*
X134693829Y-96106196D02*
X134598591Y-96153815D01*
X134598591Y-96153815D02*
X134217639Y-96153815D01*
X135646210Y-95630006D02*
X135455734Y-95630006D01*
X135455734Y-95630006D02*
X135360496Y-95677625D01*
X135360496Y-95677625D02*
X135312877Y-95725244D01*
X135312877Y-95725244D02*
X135217639Y-95868101D01*
X135217639Y-95868101D02*
X135170020Y-96058577D01*
X135170020Y-96058577D02*
X135170020Y-96439529D01*
X135170020Y-96439529D02*
X135217639Y-96534767D01*
X135217639Y-96534767D02*
X135265258Y-96582387D01*
X135265258Y-96582387D02*
X135360496Y-96630006D01*
X135360496Y-96630006D02*
X135550972Y-96630006D01*
X135550972Y-96630006D02*
X135646210Y-96582387D01*
X135646210Y-96582387D02*
X135693829Y-96534767D01*
X135693829Y-96534767D02*
X135741448Y-96439529D01*
X135741448Y-96439529D02*
X135741448Y-96201434D01*
X135741448Y-96201434D02*
X135693829Y-96106196D01*
X135693829Y-96106196D02*
X135646210Y-96058577D01*
X135646210Y-96058577D02*
X135550972Y-96010958D01*
X135550972Y-96010958D02*
X135360496Y-96010958D01*
X135360496Y-96010958D02*
X135265258Y-96058577D01*
X135265258Y-96058577D02*
X135217639Y-96106196D01*
X135217639Y-96106196D02*
X135170020Y-96201434D01*
X131196325Y-112651838D02*
X132196325Y-111985172D01*
X131196325Y-111985172D02*
X132196325Y-112651838D01*
X132196325Y-111080410D02*
X132196325Y-111651838D01*
X132196325Y-111366124D02*
X131196325Y-111366124D01*
X131196325Y-111366124D02*
X131339182Y-111461362D01*
X131339182Y-111461362D02*
X131434420Y-111556600D01*
X131434420Y-111556600D02*
X131482039Y-111651838D01*
X136739333Y-96374180D02*
X136691714Y-96421800D01*
X136691714Y-96421800D02*
X136548857Y-96469419D01*
X136548857Y-96469419D02*
X136453619Y-96469419D01*
X136453619Y-96469419D02*
X136310762Y-96421800D01*
X136310762Y-96421800D02*
X136215524Y-96326561D01*
X136215524Y-96326561D02*
X136167905Y-96231323D01*
X136167905Y-96231323D02*
X136120286Y-96040847D01*
X136120286Y-96040847D02*
X136120286Y-95897990D01*
X136120286Y-95897990D02*
X136167905Y-95707514D01*
X136167905Y-95707514D02*
X136215524Y-95612276D01*
X136215524Y-95612276D02*
X136310762Y-95517038D01*
X136310762Y-95517038D02*
X136453619Y-95469419D01*
X136453619Y-95469419D02*
X136548857Y-95469419D01*
X136548857Y-95469419D02*
X136691714Y-95517038D01*
X136691714Y-95517038D02*
X136739333Y-95564657D01*
X137310762Y-95897990D02*
X137215524Y-95850371D01*
X137215524Y-95850371D02*
X137167905Y-95802752D01*
X137167905Y-95802752D02*
X137120286Y-95707514D01*
X137120286Y-95707514D02*
X137120286Y-95659895D01*
X137120286Y-95659895D02*
X137167905Y-95564657D01*
X137167905Y-95564657D02*
X137215524Y-95517038D01*
X137215524Y-95517038D02*
X137310762Y-95469419D01*
X137310762Y-95469419D02*
X137501238Y-95469419D01*
X137501238Y-95469419D02*
X137596476Y-95517038D01*
X137596476Y-95517038D02*
X137644095Y-95564657D01*
X137644095Y-95564657D02*
X137691714Y-95659895D01*
X137691714Y-95659895D02*
X137691714Y-95707514D01*
X137691714Y-95707514D02*
X137644095Y-95802752D01*
X137644095Y-95802752D02*
X137596476Y-95850371D01*
X137596476Y-95850371D02*
X137501238Y-95897990D01*
X137501238Y-95897990D02*
X137310762Y-95897990D01*
X137310762Y-95897990D02*
X137215524Y-95945609D01*
X137215524Y-95945609D02*
X137167905Y-95993228D01*
X137167905Y-95993228D02*
X137120286Y-96088466D01*
X137120286Y-96088466D02*
X137120286Y-96278942D01*
X137120286Y-96278942D02*
X137167905Y-96374180D01*
X137167905Y-96374180D02*
X137215524Y-96421800D01*
X137215524Y-96421800D02*
X137310762Y-96469419D01*
X137310762Y-96469419D02*
X137501238Y-96469419D01*
X137501238Y-96469419D02*
X137596476Y-96421800D01*
X137596476Y-96421800D02*
X137644095Y-96374180D01*
X137644095Y-96374180D02*
X137691714Y-96278942D01*
X137691714Y-96278942D02*
X137691714Y-96088466D01*
X137691714Y-96088466D02*
X137644095Y-95993228D01*
X137644095Y-95993228D02*
X137596476Y-95945609D01*
X137596476Y-95945609D02*
X137501238Y-95897990D01*
X149809419Y-101709043D02*
X149333228Y-102042376D01*
X149809419Y-102280471D02*
X148809419Y-102280471D01*
X148809419Y-102280471D02*
X148809419Y-101899519D01*
X148809419Y-101899519D02*
X148857038Y-101804281D01*
X148857038Y-101804281D02*
X148904657Y-101756662D01*
X148904657Y-101756662D02*
X148999895Y-101709043D01*
X148999895Y-101709043D02*
X149142752Y-101709043D01*
X149142752Y-101709043D02*
X149237990Y-101756662D01*
X149237990Y-101756662D02*
X149285609Y-101804281D01*
X149285609Y-101804281D02*
X149333228Y-101899519D01*
X149333228Y-101899519D02*
X149333228Y-102280471D01*
X149809419Y-100756662D02*
X149809419Y-101328090D01*
X149809419Y-101042376D02*
X148809419Y-101042376D01*
X148809419Y-101042376D02*
X148952276Y-101137614D01*
X148952276Y-101137614D02*
X149047514Y-101232852D01*
X149047514Y-101232852D02*
X149095133Y-101328090D01*
X127176055Y-113419049D02*
X127176055Y-114228572D01*
X127176055Y-114228572D02*
X127223674Y-114323810D01*
X127223674Y-114323810D02*
X127271293Y-114371430D01*
X127271293Y-114371430D02*
X127366531Y-114419049D01*
X127366531Y-114419049D02*
X127557007Y-114419049D01*
X127557007Y-114419049D02*
X127652245Y-114371430D01*
X127652245Y-114371430D02*
X127699864Y-114323810D01*
X127699864Y-114323810D02*
X127747483Y-114228572D01*
X127747483Y-114228572D02*
X127747483Y-113419049D01*
X128652245Y-113752382D02*
X128652245Y-114419049D01*
X128414150Y-113371430D02*
X128176055Y-114085715D01*
X128176055Y-114085715D02*
X128795102Y-114085715D01*
X136894413Y-108186878D02*
X136942033Y-108234497D01*
X136942033Y-108234497D02*
X136989652Y-108377354D01*
X136989652Y-108377354D02*
X136989652Y-108472592D01*
X136989652Y-108472592D02*
X136942033Y-108615449D01*
X136942033Y-108615449D02*
X136846794Y-108710687D01*
X136846794Y-108710687D02*
X136751556Y-108758306D01*
X136751556Y-108758306D02*
X136561080Y-108805925D01*
X136561080Y-108805925D02*
X136418223Y-108805925D01*
X136418223Y-108805925D02*
X136227747Y-108758306D01*
X136227747Y-108758306D02*
X136132509Y-108710687D01*
X136132509Y-108710687D02*
X136037271Y-108615449D01*
X136037271Y-108615449D02*
X135989652Y-108472592D01*
X135989652Y-108472592D02*
X135989652Y-108377354D01*
X135989652Y-108377354D02*
X136037271Y-108234497D01*
X136037271Y-108234497D02*
X136084890Y-108186878D01*
X135989652Y-107329735D02*
X135989652Y-107520211D01*
X135989652Y-107520211D02*
X136037271Y-107615449D01*
X136037271Y-107615449D02*
X136084890Y-107663068D01*
X136084890Y-107663068D02*
X136227747Y-107758306D01*
X136227747Y-107758306D02*
X136418223Y-107805925D01*
X136418223Y-107805925D02*
X136799175Y-107805925D01*
X136799175Y-107805925D02*
X136894413Y-107758306D01*
X136894413Y-107758306D02*
X136942033Y-107710687D01*
X136942033Y-107710687D02*
X136989652Y-107615449D01*
X136989652Y-107615449D02*
X136989652Y-107424973D01*
X136989652Y-107424973D02*
X136942033Y-107329735D01*
X136942033Y-107329735D02*
X136894413Y-107282116D01*
X136894413Y-107282116D02*
X136799175Y-107234497D01*
X136799175Y-107234497D02*
X136561080Y-107234497D01*
X136561080Y-107234497D02*
X136465842Y-107282116D01*
X136465842Y-107282116D02*
X136418223Y-107329735D01*
X136418223Y-107329735D02*
X136370604Y-107424973D01*
X136370604Y-107424973D02*
X136370604Y-107615449D01*
X136370604Y-107615449D02*
X136418223Y-107710687D01*
X136418223Y-107710687D02*
X136465842Y-107758306D01*
X136465842Y-107758306D02*
X136561080Y-107805925D01*
X135086456Y-98914180D02*
X135038837Y-98961800D01*
X135038837Y-98961800D02*
X134895980Y-99009419D01*
X134895980Y-99009419D02*
X134800742Y-99009419D01*
X134800742Y-99009419D02*
X134657885Y-98961800D01*
X134657885Y-98961800D02*
X134562647Y-98866561D01*
X134562647Y-98866561D02*
X134515028Y-98771323D01*
X134515028Y-98771323D02*
X134467409Y-98580847D01*
X134467409Y-98580847D02*
X134467409Y-98437990D01*
X134467409Y-98437990D02*
X134515028Y-98247514D01*
X134515028Y-98247514D02*
X134562647Y-98152276D01*
X134562647Y-98152276D02*
X134657885Y-98057038D01*
X134657885Y-98057038D02*
X134800742Y-98009419D01*
X134800742Y-98009419D02*
X134895980Y-98009419D01*
X134895980Y-98009419D02*
X135038837Y-98057038D01*
X135038837Y-98057038D02*
X135086456Y-98104657D01*
X135943599Y-98342752D02*
X135943599Y-99009419D01*
X135705504Y-97961800D02*
X135467409Y-98676085D01*
X135467409Y-98676085D02*
X136086456Y-98676085D01*
X149934364Y-114861480D02*
X149981984Y-114909099D01*
X149981984Y-114909099D02*
X150029603Y-115051956D01*
X150029603Y-115051956D02*
X150029603Y-115147194D01*
X150029603Y-115147194D02*
X149981984Y-115290051D01*
X149981984Y-115290051D02*
X149886745Y-115385289D01*
X149886745Y-115385289D02*
X149791507Y-115432908D01*
X149791507Y-115432908D02*
X149601031Y-115480527D01*
X149601031Y-115480527D02*
X149458174Y-115480527D01*
X149458174Y-115480527D02*
X149267698Y-115432908D01*
X149267698Y-115432908D02*
X149172460Y-115385289D01*
X149172460Y-115385289D02*
X149077222Y-115290051D01*
X149077222Y-115290051D02*
X149029603Y-115147194D01*
X149029603Y-115147194D02*
X149029603Y-115051956D01*
X149029603Y-115051956D02*
X149077222Y-114909099D01*
X149077222Y-114909099D02*
X149124841Y-114861480D01*
X150029603Y-113909099D02*
X150029603Y-114480527D01*
X150029603Y-114194813D02*
X149029603Y-114194813D01*
X149029603Y-114194813D02*
X149172460Y-114290051D01*
X149172460Y-114290051D02*
X149267698Y-114385289D01*
X149267698Y-114385289D02*
X149315317Y-114480527D01*
X131680180Y-101480857D02*
X131727800Y-101528476D01*
X131727800Y-101528476D02*
X131775419Y-101671333D01*
X131775419Y-101671333D02*
X131775419Y-101766571D01*
X131775419Y-101766571D02*
X131727800Y-101909428D01*
X131727800Y-101909428D02*
X131632561Y-102004666D01*
X131632561Y-102004666D02*
X131537323Y-102052285D01*
X131537323Y-102052285D02*
X131346847Y-102099904D01*
X131346847Y-102099904D02*
X131203990Y-102099904D01*
X131203990Y-102099904D02*
X131013514Y-102052285D01*
X131013514Y-102052285D02*
X130918276Y-102004666D01*
X130918276Y-102004666D02*
X130823038Y-101909428D01*
X130823038Y-101909428D02*
X130775419Y-101766571D01*
X130775419Y-101766571D02*
X130775419Y-101671333D01*
X130775419Y-101671333D02*
X130823038Y-101528476D01*
X130823038Y-101528476D02*
X130870657Y-101480857D01*
X131775419Y-100528476D02*
X131775419Y-101099904D01*
X131775419Y-100814190D02*
X130775419Y-100814190D01*
X130775419Y-100814190D02*
X130918276Y-100909428D01*
X130918276Y-100909428D02*
X131013514Y-101004666D01*
X131013514Y-101004666D02*
X131061133Y-101099904D01*
X131775419Y-99576095D02*
X131775419Y-100147523D01*
X131775419Y-99861809D02*
X130775419Y-99861809D01*
X130775419Y-99861809D02*
X130918276Y-99957047D01*
X130918276Y-99957047D02*
X131013514Y-100052285D01*
X131013514Y-100052285D02*
X131061133Y-100147523D01*
X141007585Y-104446558D02*
X140959966Y-104494178D01*
X140959966Y-104494178D02*
X140817109Y-104541797D01*
X140817109Y-104541797D02*
X140721871Y-104541797D01*
X140721871Y-104541797D02*
X140579014Y-104494178D01*
X140579014Y-104494178D02*
X140483776Y-104398939D01*
X140483776Y-104398939D02*
X140436157Y-104303701D01*
X140436157Y-104303701D02*
X140388538Y-104113225D01*
X140388538Y-104113225D02*
X140388538Y-103970368D01*
X140388538Y-103970368D02*
X140436157Y-103779892D01*
X140436157Y-103779892D02*
X140483776Y-103684654D01*
X140483776Y-103684654D02*
X140579014Y-103589416D01*
X140579014Y-103589416D02*
X140721871Y-103541797D01*
X140721871Y-103541797D02*
X140817109Y-103541797D01*
X140817109Y-103541797D02*
X140959966Y-103589416D01*
X140959966Y-103589416D02*
X141007585Y-103637035D01*
X141340919Y-103541797D02*
X142007585Y-103541797D01*
X142007585Y-103541797D02*
X141579014Y-104541797D01*
X137787142Y-114154180D02*
X137739523Y-114201800D01*
X137739523Y-114201800D02*
X137596666Y-114249419D01*
X137596666Y-114249419D02*
X137501428Y-114249419D01*
X137501428Y-114249419D02*
X137358571Y-114201800D01*
X137358571Y-114201800D02*
X137263333Y-114106561D01*
X137263333Y-114106561D02*
X137215714Y-114011323D01*
X137215714Y-114011323D02*
X137168095Y-113820847D01*
X137168095Y-113820847D02*
X137168095Y-113677990D01*
X137168095Y-113677990D02*
X137215714Y-113487514D01*
X137215714Y-113487514D02*
X137263333Y-113392276D01*
X137263333Y-113392276D02*
X137358571Y-113297038D01*
X137358571Y-113297038D02*
X137501428Y-113249419D01*
X137501428Y-113249419D02*
X137596666Y-113249419D01*
X137596666Y-113249419D02*
X137739523Y-113297038D01*
X137739523Y-113297038D02*
X137787142Y-113344657D01*
X138739523Y-114249419D02*
X138168095Y-114249419D01*
X138453809Y-114249419D02*
X138453809Y-113249419D01*
X138453809Y-113249419D02*
X138358571Y-113392276D01*
X138358571Y-113392276D02*
X138263333Y-113487514D01*
X138263333Y-113487514D02*
X138168095Y-113535133D01*
X139120476Y-113344657D02*
X139168095Y-113297038D01*
X139168095Y-113297038D02*
X139263333Y-113249419D01*
X139263333Y-113249419D02*
X139501428Y-113249419D01*
X139501428Y-113249419D02*
X139596666Y-113297038D01*
X139596666Y-113297038D02*
X139644285Y-113344657D01*
X139644285Y-113344657D02*
X139691904Y-113439895D01*
X139691904Y-113439895D02*
X139691904Y-113535133D01*
X139691904Y-113535133D02*
X139644285Y-113677990D01*
X139644285Y-113677990D02*
X139072857Y-114249419D01*
X139072857Y-114249419D02*
X139691904Y-114249419D01*
X140062180Y-109354857D02*
X140109800Y-109402476D01*
X140109800Y-109402476D02*
X140157419Y-109545333D01*
X140157419Y-109545333D02*
X140157419Y-109640571D01*
X140157419Y-109640571D02*
X140109800Y-109783428D01*
X140109800Y-109783428D02*
X140014561Y-109878666D01*
X140014561Y-109878666D02*
X139919323Y-109926285D01*
X139919323Y-109926285D02*
X139728847Y-109973904D01*
X139728847Y-109973904D02*
X139585990Y-109973904D01*
X139585990Y-109973904D02*
X139395514Y-109926285D01*
X139395514Y-109926285D02*
X139300276Y-109878666D01*
X139300276Y-109878666D02*
X139205038Y-109783428D01*
X139205038Y-109783428D02*
X139157419Y-109640571D01*
X139157419Y-109640571D02*
X139157419Y-109545333D01*
X139157419Y-109545333D02*
X139205038Y-109402476D01*
X139205038Y-109402476D02*
X139252657Y-109354857D01*
X140157419Y-108402476D02*
X140157419Y-108973904D01*
X140157419Y-108688190D02*
X139157419Y-108688190D01*
X139157419Y-108688190D02*
X139300276Y-108783428D01*
X139300276Y-108783428D02*
X139395514Y-108878666D01*
X139395514Y-108878666D02*
X139443133Y-108973904D01*
X139157419Y-107783428D02*
X139157419Y-107688190D01*
X139157419Y-107688190D02*
X139205038Y-107592952D01*
X139205038Y-107592952D02*
X139252657Y-107545333D01*
X139252657Y-107545333D02*
X139347895Y-107497714D01*
X139347895Y-107497714D02*
X139538371Y-107450095D01*
X139538371Y-107450095D02*
X139776466Y-107450095D01*
X139776466Y-107450095D02*
X139966942Y-107497714D01*
X139966942Y-107497714D02*
X140062180Y-107545333D01*
X140062180Y-107545333D02*
X140109800Y-107592952D01*
X140109800Y-107592952D02*
X140157419Y-107688190D01*
X140157419Y-107688190D02*
X140157419Y-107783428D01*
X140157419Y-107783428D02*
X140109800Y-107878666D01*
X140109800Y-107878666D02*
X140062180Y-107926285D01*
X140062180Y-107926285D02*
X139966942Y-107973904D01*
X139966942Y-107973904D02*
X139776466Y-108021523D01*
X139776466Y-108021523D02*
X139538371Y-108021523D01*
X139538371Y-108021523D02*
X139347895Y-107973904D01*
X139347895Y-107973904D02*
X139252657Y-107926285D01*
X139252657Y-107926285D02*
X139205038Y-107878666D01*
X139205038Y-107878666D02*
X139157419Y-107783428D01*
X143285829Y-105867419D02*
X142809639Y-105867419D01*
X142809639Y-105867419D02*
X142809639Y-104867419D01*
X143619163Y-105343609D02*
X143952496Y-105343609D01*
X144095353Y-105867419D02*
X143619163Y-105867419D01*
X143619163Y-105867419D02*
X143619163Y-104867419D01*
X143619163Y-104867419D02*
X144095353Y-104867419D01*
X144523925Y-105867419D02*
X144523925Y-104867419D01*
X144523925Y-104867419D02*
X144762020Y-104867419D01*
X144762020Y-104867419D02*
X144904877Y-104915038D01*
X144904877Y-104915038D02*
X145000115Y-105010276D01*
X145000115Y-105010276D02*
X145047734Y-105105514D01*
X145047734Y-105105514D02*
X145095353Y-105295990D01*
X145095353Y-105295990D02*
X145095353Y-105438847D01*
X145095353Y-105438847D02*
X145047734Y-105629323D01*
X145047734Y-105629323D02*
X145000115Y-105724561D01*
X145000115Y-105724561D02*
X144904877Y-105819800D01*
X144904877Y-105819800D02*
X144762020Y-105867419D01*
X144762020Y-105867419D02*
X144523925Y-105867419D01*
X146047734Y-105867419D02*
X145476306Y-105867419D01*
X145762020Y-105867419D02*
X145762020Y-104867419D01*
X145762020Y-104867419D02*
X145666782Y-105010276D01*
X145666782Y-105010276D02*
X145571544Y-105105514D01*
X145571544Y-105105514D02*
X145476306Y-105153133D01*
X138401523Y-99334306D02*
X138449143Y-99381925D01*
X138449143Y-99381925D02*
X138496762Y-99524782D01*
X138496762Y-99524782D02*
X138496762Y-99620020D01*
X138496762Y-99620020D02*
X138449143Y-99762877D01*
X138449143Y-99762877D02*
X138353904Y-99858115D01*
X138353904Y-99858115D02*
X138258666Y-99905734D01*
X138258666Y-99905734D02*
X138068190Y-99953353D01*
X138068190Y-99953353D02*
X137925333Y-99953353D01*
X137925333Y-99953353D02*
X137734857Y-99905734D01*
X137734857Y-99905734D02*
X137639619Y-99858115D01*
X137639619Y-99858115D02*
X137544381Y-99762877D01*
X137544381Y-99762877D02*
X137496762Y-99620020D01*
X137496762Y-99620020D02*
X137496762Y-99524782D01*
X137496762Y-99524782D02*
X137544381Y-99381925D01*
X137544381Y-99381925D02*
X137592000Y-99334306D01*
X137496762Y-98429544D02*
X137496762Y-98905734D01*
X137496762Y-98905734D02*
X137972952Y-98953353D01*
X137972952Y-98953353D02*
X137925333Y-98905734D01*
X137925333Y-98905734D02*
X137877714Y-98810496D01*
X137877714Y-98810496D02*
X137877714Y-98572401D01*
X137877714Y-98572401D02*
X137925333Y-98477163D01*
X137925333Y-98477163D02*
X137972952Y-98429544D01*
X137972952Y-98429544D02*
X138068190Y-98381925D01*
X138068190Y-98381925D02*
X138306285Y-98381925D01*
X138306285Y-98381925D02*
X138401523Y-98429544D01*
X138401523Y-98429544D02*
X138449143Y-98477163D01*
X138449143Y-98477163D02*
X138496762Y-98572401D01*
X138496762Y-98572401D02*
X138496762Y-98810496D01*
X138496762Y-98810496D02*
X138449143Y-98905734D01*
X138449143Y-98905734D02*
X138401523Y-98953353D01*
X126140727Y-112217419D02*
X125807394Y-111741228D01*
X125569299Y-112217419D02*
X125569299Y-111217419D01*
X125569299Y-111217419D02*
X125950251Y-111217419D01*
X125950251Y-111217419D02*
X126045489Y-111265038D01*
X126045489Y-111265038D02*
X126093108Y-111312657D01*
X126093108Y-111312657D02*
X126140727Y-111407895D01*
X126140727Y-111407895D02*
X126140727Y-111550752D01*
X126140727Y-111550752D02*
X126093108Y-111645990D01*
X126093108Y-111645990D02*
X126045489Y-111693609D01*
X126045489Y-111693609D02*
X125950251Y-111741228D01*
X125950251Y-111741228D02*
X125569299Y-111741228D01*
X126521680Y-111312657D02*
X126569299Y-111265038D01*
X126569299Y-111265038D02*
X126664537Y-111217419D01*
X126664537Y-111217419D02*
X126902632Y-111217419D01*
X126902632Y-111217419D02*
X126997870Y-111265038D01*
X126997870Y-111265038D02*
X127045489Y-111312657D01*
X127045489Y-111312657D02*
X127093108Y-111407895D01*
X127093108Y-111407895D02*
X127093108Y-111503133D01*
X127093108Y-111503133D02*
X127045489Y-111645990D01*
X127045489Y-111645990D02*
X126474061Y-112217419D01*
X126474061Y-112217419D02*
X127093108Y-112217419D01*
X131196411Y-103127276D02*
X131148792Y-103174896D01*
X131148792Y-103174896D02*
X131005935Y-103222515D01*
X131005935Y-103222515D02*
X130910697Y-103222515D01*
X130910697Y-103222515D02*
X130767840Y-103174896D01*
X130767840Y-103174896D02*
X130672602Y-103079657D01*
X130672602Y-103079657D02*
X130624983Y-102984419D01*
X130624983Y-102984419D02*
X130577364Y-102793943D01*
X130577364Y-102793943D02*
X130577364Y-102651086D01*
X130577364Y-102651086D02*
X130624983Y-102460610D01*
X130624983Y-102460610D02*
X130672602Y-102365372D01*
X130672602Y-102365372D02*
X130767840Y-102270134D01*
X130767840Y-102270134D02*
X130910697Y-102222515D01*
X130910697Y-102222515D02*
X131005935Y-102222515D01*
X131005935Y-102222515D02*
X131148792Y-102270134D01*
X131148792Y-102270134D02*
X131196411Y-102317753D01*
X131672602Y-103222515D02*
X131863078Y-103222515D01*
X131863078Y-103222515D02*
X131958316Y-103174896D01*
X131958316Y-103174896D02*
X132005935Y-103127276D01*
X132005935Y-103127276D02*
X132101173Y-102984419D01*
X132101173Y-102984419D02*
X132148792Y-102793943D01*
X132148792Y-102793943D02*
X132148792Y-102412991D01*
X132148792Y-102412991D02*
X132101173Y-102317753D01*
X132101173Y-102317753D02*
X132053554Y-102270134D01*
X132053554Y-102270134D02*
X131958316Y-102222515D01*
X131958316Y-102222515D02*
X131767840Y-102222515D01*
X131767840Y-102222515D02*
X131672602Y-102270134D01*
X131672602Y-102270134D02*
X131624983Y-102317753D01*
X131624983Y-102317753D02*
X131577364Y-102412991D01*
X131577364Y-102412991D02*
X131577364Y-102651086D01*
X131577364Y-102651086D02*
X131624983Y-102746324D01*
X131624983Y-102746324D02*
X131672602Y-102793943D01*
X131672602Y-102793943D02*
X131767840Y-102841562D01*
X131767840Y-102841562D02*
X131958316Y-102841562D01*
X131958316Y-102841562D02*
X132053554Y-102793943D01*
X132053554Y-102793943D02*
X132101173Y-102746324D01*
X132101173Y-102746324D02*
X132148792Y-102651086D01*
X146011317Y-110251714D02*
X145963698Y-110299334D01*
X145963698Y-110299334D02*
X145820841Y-110346953D01*
X145820841Y-110346953D02*
X145725603Y-110346953D01*
X145725603Y-110346953D02*
X145582746Y-110299334D01*
X145582746Y-110299334D02*
X145487508Y-110204095D01*
X145487508Y-110204095D02*
X145439889Y-110108857D01*
X145439889Y-110108857D02*
X145392270Y-109918381D01*
X145392270Y-109918381D02*
X145392270Y-109775524D01*
X145392270Y-109775524D02*
X145439889Y-109585048D01*
X145439889Y-109585048D02*
X145487508Y-109489810D01*
X145487508Y-109489810D02*
X145582746Y-109394572D01*
X145582746Y-109394572D02*
X145725603Y-109346953D01*
X145725603Y-109346953D02*
X145820841Y-109346953D01*
X145820841Y-109346953D02*
X145963698Y-109394572D01*
X145963698Y-109394572D02*
X146011317Y-109442191D01*
X146392270Y-109442191D02*
X146439889Y-109394572D01*
X146439889Y-109394572D02*
X146535127Y-109346953D01*
X146535127Y-109346953D02*
X146773222Y-109346953D01*
X146773222Y-109346953D02*
X146868460Y-109394572D01*
X146868460Y-109394572D02*
X146916079Y-109442191D01*
X146916079Y-109442191D02*
X146963698Y-109537429D01*
X146963698Y-109537429D02*
X146963698Y-109632667D01*
X146963698Y-109632667D02*
X146916079Y-109775524D01*
X146916079Y-109775524D02*
X146344651Y-110346953D01*
X146344651Y-110346953D02*
X146963698Y-110346953D01*
X128495995Y-106237140D02*
X128162662Y-105760949D01*
X127924567Y-106237140D02*
X127924567Y-105237140D01*
X127924567Y-105237140D02*
X128305519Y-105237140D01*
X128305519Y-105237140D02*
X128400757Y-105284759D01*
X128400757Y-105284759D02*
X128448376Y-105332378D01*
X128448376Y-105332378D02*
X128495995Y-105427616D01*
X128495995Y-105427616D02*
X128495995Y-105570473D01*
X128495995Y-105570473D02*
X128448376Y-105665711D01*
X128448376Y-105665711D02*
X128400757Y-105713330D01*
X128400757Y-105713330D02*
X128305519Y-105760949D01*
X128305519Y-105760949D02*
X127924567Y-105760949D01*
X129353138Y-105570473D02*
X129353138Y-106237140D01*
X129115043Y-105189521D02*
X128876948Y-105903806D01*
X128876948Y-105903806D02*
X129495995Y-105903806D01*
X127176444Y-108393181D02*
X126843111Y-107916990D01*
X126605016Y-108393181D02*
X126605016Y-107393181D01*
X126605016Y-107393181D02*
X126985968Y-107393181D01*
X126985968Y-107393181D02*
X127081206Y-107440800D01*
X127081206Y-107440800D02*
X127128825Y-107488419D01*
X127128825Y-107488419D02*
X127176444Y-107583657D01*
X127176444Y-107583657D02*
X127176444Y-107726514D01*
X127176444Y-107726514D02*
X127128825Y-107821752D01*
X127128825Y-107821752D02*
X127081206Y-107869371D01*
X127081206Y-107869371D02*
X126985968Y-107916990D01*
X126985968Y-107916990D02*
X126605016Y-107916990D01*
X127509778Y-107393181D02*
X128128825Y-107393181D01*
X128128825Y-107393181D02*
X127795492Y-107774133D01*
X127795492Y-107774133D02*
X127938349Y-107774133D01*
X127938349Y-107774133D02*
X128033587Y-107821752D01*
X128033587Y-107821752D02*
X128081206Y-107869371D01*
X128081206Y-107869371D02*
X128128825Y-107964609D01*
X128128825Y-107964609D02*
X128128825Y-108202704D01*
X128128825Y-108202704D02*
X128081206Y-108297942D01*
X128081206Y-108297942D02*
X128033587Y-108345562D01*
X128033587Y-108345562D02*
X127938349Y-108393181D01*
X127938349Y-108393181D02*
X127652635Y-108393181D01*
X127652635Y-108393181D02*
X127557397Y-108345562D01*
X127557397Y-108345562D02*
X127509778Y-108297942D01*
X131791419Y-106729693D02*
X132600942Y-106729693D01*
X132600942Y-106729693D02*
X132696180Y-106682074D01*
X132696180Y-106682074D02*
X132743800Y-106634455D01*
X132743800Y-106634455D02*
X132791419Y-106539217D01*
X132791419Y-106539217D02*
X132791419Y-106348741D01*
X132791419Y-106348741D02*
X132743800Y-106253503D01*
X132743800Y-106253503D02*
X132696180Y-106205884D01*
X132696180Y-106205884D02*
X132600942Y-106158265D01*
X132600942Y-106158265D02*
X131791419Y-106158265D01*
X131791419Y-105205884D02*
X131791419Y-105682074D01*
X131791419Y-105682074D02*
X132267609Y-105729693D01*
X132267609Y-105729693D02*
X132219990Y-105682074D01*
X132219990Y-105682074D02*
X132172371Y-105586836D01*
X132172371Y-105586836D02*
X132172371Y-105348741D01*
X132172371Y-105348741D02*
X132219990Y-105253503D01*
X132219990Y-105253503D02*
X132267609Y-105205884D01*
X132267609Y-105205884D02*
X132362847Y-105158265D01*
X132362847Y-105158265D02*
X132600942Y-105158265D01*
X132600942Y-105158265D02*
X132696180Y-105205884D01*
X132696180Y-105205884D02*
X132743800Y-105253503D01*
X132743800Y-105253503D02*
X132791419Y-105348741D01*
X132791419Y-105348741D02*
X132791419Y-105586836D01*
X132791419Y-105586836D02*
X132743800Y-105682074D01*
X132743800Y-105682074D02*
X132696180Y-105729693D01*
X130675142Y-108820180D02*
X130627523Y-108867800D01*
X130627523Y-108867800D02*
X130484666Y-108915419D01*
X130484666Y-108915419D02*
X130389428Y-108915419D01*
X130389428Y-108915419D02*
X130246571Y-108867800D01*
X130246571Y-108867800D02*
X130151333Y-108772561D01*
X130151333Y-108772561D02*
X130103714Y-108677323D01*
X130103714Y-108677323D02*
X130056095Y-108486847D01*
X130056095Y-108486847D02*
X130056095Y-108343990D01*
X130056095Y-108343990D02*
X130103714Y-108153514D01*
X130103714Y-108153514D02*
X130151333Y-108058276D01*
X130151333Y-108058276D02*
X130246571Y-107963038D01*
X130246571Y-107963038D02*
X130389428Y-107915419D01*
X130389428Y-107915419D02*
X130484666Y-107915419D01*
X130484666Y-107915419D02*
X130627523Y-107963038D01*
X130627523Y-107963038D02*
X130675142Y-108010657D01*
X131627523Y-108915419D02*
X131056095Y-108915419D01*
X131341809Y-108915419D02*
X131341809Y-107915419D01*
X131341809Y-107915419D02*
X131246571Y-108058276D01*
X131246571Y-108058276D02*
X131151333Y-108153514D01*
X131151333Y-108153514D02*
X131056095Y-108201133D01*
X131960857Y-107915419D02*
X132579904Y-107915419D01*
X132579904Y-107915419D02*
X132246571Y-108296371D01*
X132246571Y-108296371D02*
X132389428Y-108296371D01*
X132389428Y-108296371D02*
X132484666Y-108343990D01*
X132484666Y-108343990D02*
X132532285Y-108391609D01*
X132532285Y-108391609D02*
X132579904Y-108486847D01*
X132579904Y-108486847D02*
X132579904Y-108724942D01*
X132579904Y-108724942D02*
X132532285Y-108820180D01*
X132532285Y-108820180D02*
X132484666Y-108867800D01*
X132484666Y-108867800D02*
X132389428Y-108915419D01*
X132389428Y-108915419D02*
X132103714Y-108915419D01*
X132103714Y-108915419D02*
X132008476Y-108867800D01*
X132008476Y-108867800D02*
X131960857Y-108820180D01*
D11*
%TO.C,R8*%
X140182658Y-106341852D02*
X140900658Y-106341852D01*
X140182658Y-107338852D02*
X140182658Y-106341852D01*
X140900658Y-107338852D02*
X140182658Y-107338852D01*
X141352658Y-107338852D02*
X142070658Y-107338852D01*
X142070658Y-106341852D02*
X141352658Y-106341852D01*
X142070658Y-107338852D02*
X142070658Y-106341852D01*
%TO.C,U3*%
X140983619Y-121258221D02*
X140983619Y-115006221D01*
X147736619Y-121258221D02*
X147736619Y-115006221D01*
X147736619Y-115006221D02*
X140983619Y-115006221D01*
%TO.C,X1*%
X135373506Y-113503485D02*
X137030506Y-113503485D01*
X137030506Y-113503485D02*
X137030506Y-111646485D01*
X133444506Y-113275485D02*
X133444506Y-109217485D01*
X136801506Y-113275485D02*
X133444506Y-113275485D01*
X133444506Y-109217485D02*
X136801506Y-109217485D01*
X136801506Y-109217485D02*
X136801506Y-113275485D01*
%TO.C,U4*%
X125846171Y-116918230D02*
X130898171Y-116918230D01*
X125846171Y-119961230D02*
X125846171Y-116918230D01*
X130898171Y-116918230D02*
X130898171Y-119961230D01*
X130898171Y-119961230D02*
X125846171Y-119961230D01*
G36*
X125750435Y-121065112D02*
G01*
X125778574Y-121073648D01*
X125804507Y-121087510D01*
X125827237Y-121106164D01*
X125845891Y-121128894D01*
X125859753Y-121154827D01*
X125868289Y-121182966D01*
X125871171Y-121212230D01*
X125868289Y-121241494D01*
X125859753Y-121269633D01*
X125845891Y-121295566D01*
X125827237Y-121318296D01*
X125804507Y-121336950D01*
X125778574Y-121350812D01*
X125750435Y-121359348D01*
X125721171Y-121362230D01*
X125691907Y-121359348D01*
X125663768Y-121350812D01*
X125637835Y-121336950D01*
X125615105Y-121318296D01*
X125596451Y-121295566D01*
X125582589Y-121269633D01*
X125574053Y-121241494D01*
X125571171Y-121212230D01*
X125574053Y-121182966D01*
X125582589Y-121154827D01*
X125596451Y-121128894D01*
X125615105Y-121106164D01*
X125637835Y-121087510D01*
X125663768Y-121073648D01*
X125691907Y-121065112D01*
X125721171Y-121062230D01*
X125750435Y-121065112D01*
G37*
G36*
X126496435Y-119062112D02*
G01*
X126524574Y-119070648D01*
X126550507Y-119084510D01*
X126573237Y-119103164D01*
X126591891Y-119125894D01*
X126605753Y-119151827D01*
X126614289Y-119179966D01*
X126617171Y-119209230D01*
X126614289Y-119238494D01*
X126605753Y-119266633D01*
X126591891Y-119292566D01*
X126573237Y-119315296D01*
X126550507Y-119333950D01*
X126524574Y-119347812D01*
X126496435Y-119356348D01*
X126467171Y-119359230D01*
X126437907Y-119356348D01*
X126409768Y-119347812D01*
X126383835Y-119333950D01*
X126361105Y-119315296D01*
X126342451Y-119292566D01*
X126328589Y-119266633D01*
X126320053Y-119238494D01*
X126317171Y-119209230D01*
X126320053Y-119179966D01*
X126328589Y-119151827D01*
X126342451Y-119125894D01*
X126361105Y-119103164D01*
X126383835Y-119084510D01*
X126409768Y-119070648D01*
X126437907Y-119062112D01*
X126467171Y-119059230D01*
X126496435Y-119062112D01*
G37*
%TO.C,JITX1*%
G36*
X138419474Y-119654074D02*
G01*
X137513126Y-119654189D01*
X137075674Y-118609902D01*
X137688908Y-117773428D01*
X138419474Y-119654074D01*
G37*
G36*
X135189617Y-116720464D02*
G01*
X135883115Y-116720759D01*
X135788975Y-117261096D01*
X135093902Y-117262120D01*
X134673004Y-119654151D01*
X134148684Y-119654163D01*
X134757056Y-116195811D01*
X135281132Y-116195773D01*
X135189617Y-116720464D01*
G37*
G36*
X139259140Y-115980617D02*
G01*
X139098726Y-116032978D01*
X138953427Y-116118784D01*
X138830119Y-116233977D01*
X137688908Y-117773428D01*
X137373628Y-116961821D01*
X137918891Y-116179718D01*
X138043780Y-116081314D01*
X138186358Y-116010941D01*
X138340429Y-115971659D01*
X138499296Y-115965174D01*
X139427081Y-115964180D01*
X139259140Y-115980617D01*
G37*
G36*
X136987193Y-115967048D02*
G01*
X137373628Y-116961821D01*
X137688908Y-117773428D01*
X137075674Y-118609902D01*
X136493715Y-119378451D01*
X136373327Y-119494721D01*
X136230469Y-119581920D01*
X136072027Y-119635847D01*
X135905636Y-119653901D01*
X134965129Y-119654035D01*
X135175194Y-119605624D01*
X135368343Y-119509895D01*
X135534084Y-119372051D01*
X136715398Y-117813083D01*
X136022937Y-115966177D01*
X136987193Y-115967048D01*
G37*
G36*
X133482187Y-117030373D02*
G01*
X133009987Y-119719145D01*
X132881538Y-120043832D01*
X132689976Y-120335765D01*
X132443245Y-120582838D01*
X132151578Y-120774803D01*
X131827069Y-120903702D01*
X131483176Y-120964188D01*
X131570106Y-120441455D01*
X131771757Y-120417615D01*
X131963848Y-120351790D01*
X132137740Y-120246942D01*
X132285614Y-120107785D01*
X132400821Y-119940575D01*
X132478180Y-119752833D01*
X132957303Y-117030348D01*
X133482187Y-117030373D01*
G37*
G36*
X134222903Y-116208752D02*
G01*
X134282082Y-116236236D01*
X134320494Y-116272819D01*
X134349804Y-116317032D01*
X134368540Y-116366658D01*
X134375763Y-116419210D01*
X134371112Y-116472051D01*
X134354818Y-116522532D01*
X134327701Y-116568122D01*
X134293666Y-116620095D01*
X134249929Y-116664216D01*
X134198257Y-116698705D01*
X134140733Y-116722169D01*
X134079681Y-116733663D01*
X134017563Y-116732722D01*
X133956886Y-116719384D01*
X133917092Y-116694229D01*
X133882970Y-116661794D01*
X133855831Y-116623326D01*
X133836719Y-116580302D01*
X133826367Y-116534376D01*
X133825174Y-116487313D01*
X133833185Y-116440922D01*
X133850093Y-116396985D01*
X133850092Y-116396986D01*
X133889557Y-116329923D01*
X133943309Y-116273661D01*
X134008502Y-116231180D01*
X134081681Y-116204731D01*
X134158969Y-116195714D01*
X134222903Y-116208752D01*
G37*
G36*
X134100798Y-117041635D02*
G01*
X134143867Y-117062583D01*
X134181196Y-117092590D01*
X134210911Y-117130150D01*
X134231523Y-117173382D01*
X134241999Y-117220116D01*
X134241813Y-117268009D01*
X133868888Y-119423288D01*
X133867187Y-119468278D01*
X133875540Y-119512518D01*
X133893528Y-119553790D01*
X133920249Y-119590025D01*
X133954364Y-119619406D01*
X133994160Y-119640458D01*
X134037644Y-119652128D01*
X133584508Y-119653062D01*
X133545047Y-119647839D01*
X133507363Y-119635018D01*
X133472904Y-119615091D01*
X133442995Y-119588824D01*
X133418785Y-119557228D01*
X133401205Y-119521515D01*
X133390929Y-119483059D01*
X133388354Y-119443337D01*
X133764092Y-117262925D01*
X133764418Y-117216752D01*
X133754574Y-117171640D01*
X133735043Y-117129801D01*
X133706783Y-117093286D01*
X133671179Y-117063887D01*
X133629977Y-117043044D01*
X133585199Y-117031781D01*
X134054147Y-117030796D01*
X134100798Y-117041635D01*
G37*
D12*
%TO.C,U5*%
X139595865Y-106604046D02*
X139595865Y-106004046D01*
X139595865Y-101204046D02*
X139595865Y-100604046D01*
X139595865Y-100604046D02*
X138995865Y-100604046D01*
X138995865Y-106604046D02*
X139595865Y-106604046D01*
X134195865Y-100604046D02*
X133595865Y-100604046D01*
X133595865Y-106604046D02*
X134195865Y-106604046D01*
X133595865Y-106004046D02*
X133595865Y-106604046D01*
X133595865Y-100604046D02*
X133595865Y-101204046D01*
G36*
X140308129Y-105996928D02*
G01*
X140336268Y-106005464D01*
X140362201Y-106019326D01*
X140384931Y-106037980D01*
X140403585Y-106060710D01*
X140417447Y-106086643D01*
X140425983Y-106114782D01*
X140428865Y-106144046D01*
X140425983Y-106173310D01*
X140417447Y-106201449D01*
X140403585Y-106227382D01*
X140384931Y-106250112D01*
X140362201Y-106268766D01*
X140336268Y-106282628D01*
X140308129Y-106291164D01*
X140278865Y-106294046D01*
X140249601Y-106291164D01*
X140221462Y-106282628D01*
X140195529Y-106268766D01*
X140172799Y-106250112D01*
X140154145Y-106227382D01*
X140140283Y-106201449D01*
X140131747Y-106173310D01*
X140128865Y-106144046D01*
X140131747Y-106114782D01*
X140140283Y-106086643D01*
X140154145Y-106060710D01*
X140172799Y-106037980D01*
X140195529Y-106019326D01*
X140221462Y-106005464D01*
X140249601Y-105996928D01*
X140278865Y-105994046D01*
X140308129Y-105996928D01*
G37*
%TD*%
%LPC*%
D13*
%TO.C,R8*%
X140693658Y-106840852D03*
X141559658Y-106840852D03*
%TD*%
D14*
%TO.C,R5*%
X138129245Y-109574220D03*
X138129245Y-110486442D03*
%TD*%
D15*
%TO.C,C3*%
X143060672Y-110835572D03*
X142103450Y-110835572D03*
%TD*%
D16*
%TO.C,U3*%
X146659619Y-113037221D03*
D17*
X144360619Y-119734221D03*
D16*
X142060619Y-113037221D03*
%TD*%
D18*
%TO.C,R7*%
X134176631Y-114068215D03*
X133256909Y-114068215D03*
%TD*%
D19*
%TO.C,U6*%
X126859670Y-98770685D03*
%TD*%
D20*
%TO.C,R6*%
X134502123Y-97122587D03*
X135409345Y-97122587D03*
%TD*%
D21*
%TO.C,X1*%
X135973506Y-112346485D03*
X135973506Y-110146485D03*
X134273506Y-110146485D03*
X134273506Y-112346485D03*
%TD*%
D19*
%TO.C,U8*%
X129640552Y-96501199D03*
%TD*%
D15*
%TO.C,C8*%
X137486311Y-97138773D03*
X136529089Y-97138773D03*
%TD*%
D22*
%TO.C,R1*%
X148106609Y-101082516D03*
X148106609Y-102002238D03*
%TD*%
D23*
%TO.C,U4*%
X126467171Y-121212230D03*
X127737171Y-121212230D03*
X129007171Y-121212230D03*
X130277171Y-121212230D03*
X130277171Y-115667230D03*
X129007171Y-115667230D03*
X127737171Y-115667230D03*
X126467171Y-115667230D03*
%TD*%
D24*
%TO.C,C6*%
X137482233Y-108498823D03*
X137482233Y-107541601D03*
%TD*%
D15*
%TO.C,C4*%
X135731734Y-99695657D03*
X134774512Y-99695657D03*
%TD*%
D25*
%TO.C,C1*%
X148622184Y-114216203D03*
X148622184Y-115173425D03*
%TD*%
D26*
%TO.C,C11*%
X132381115Y-100722671D03*
X132381115Y-101692393D03*
%TD*%
D15*
%TO.C,C7*%
X141652863Y-103134378D03*
X140695641Y-103134378D03*
%TD*%
D27*
%TO.C,U1*%
X150050000Y-97450000D03*
D28*
X150050000Y-97450000D03*
%TD*%
D29*
%TO.C,C12*%
X137573127Y-112571302D03*
X138530349Y-112571302D03*
%TD*%
D24*
%TO.C,C10*%
X138644942Y-108548873D03*
X138644942Y-107591651D03*
%TD*%
D30*
%TO.C,LED1*%
X143607724Y-106840352D03*
X145045592Y-106840352D03*
%TD*%
D19*
%TO.C,U9*%
X129639143Y-98796163D03*
%TD*%
D25*
%TO.C,C5*%
X137089343Y-98689029D03*
X137089343Y-99646251D03*
%TD*%
D31*
%TO.C,R2*%
X125847533Y-110727391D03*
X126767255Y-110727391D03*
%TD*%
D29*
%TO.C,C9*%
X130884467Y-103715096D03*
X131841689Y-103715096D03*
%TD*%
%TO.C,C2*%
X145699373Y-110839534D03*
X146656595Y-110839534D03*
%TD*%
D31*
%TO.C,R4*%
X128202801Y-106729721D03*
X129122523Y-106729721D03*
%TD*%
%TO.C,R3*%
X126883250Y-108885762D03*
X127802972Y-108885762D03*
%TD*%
D32*
%TO.C,U5*%
X139405865Y-105604046D03*
X139405865Y-105104046D03*
X139405865Y-104604046D03*
X139405865Y-104104046D03*
X139405865Y-103604046D03*
X139405865Y-103104046D03*
X139405865Y-102604046D03*
X139405865Y-102104046D03*
X139405865Y-101604046D03*
D33*
X138595865Y-100795046D03*
X138095865Y-100795046D03*
X137595865Y-100795046D03*
X137095865Y-100795046D03*
X136595865Y-100795046D03*
X136095865Y-100795046D03*
X135595865Y-100795046D03*
X135095865Y-100795046D03*
X134595865Y-100795046D03*
D32*
X133785865Y-101604046D03*
X133785865Y-102104046D03*
X133785865Y-102604046D03*
X133785865Y-103104046D03*
X133785865Y-103604046D03*
X133785865Y-104104046D03*
X133785865Y-104604046D03*
X133785865Y-105104046D03*
X133785865Y-105604046D03*
D33*
X134595865Y-106414046D03*
X135095865Y-106414046D03*
X135595865Y-106414046D03*
X136095865Y-106414046D03*
X136595865Y-106414046D03*
X137095865Y-106414046D03*
X137595865Y-106414046D03*
X138095865Y-106414046D03*
X138595865Y-106414046D03*
D34*
X136595865Y-103604046D03*
%TD*%
D19*
%TO.C,U7*%
X126853950Y-96515848D03*
%TD*%
D27*
%TO.C,U2*%
X150050000Y-118550000D03*
D28*
X150050000Y-118550000D03*
%TD*%
D15*
%TO.C,C13*%
X134168661Y-108309522D03*
X133211439Y-108309522D03*
%TD*%
D35*
%TO.C,Card1*%
X140225000Y-98500000D03*
D36*
X140275000Y-119500000D03*
%TD*%
%LPD*%
M02*
