%TF.GenerationSoftware,KiCad,Pcbnew,7.0.5*%
%TF.CreationDate,2023-06-27T10:39:10+05:00*%
%TF.ProjectId,jitx-design,6a697478-2d64-4657-9369-676e2e6b6963,rev?*%
%TF.SameCoordinates,Original*%
%TF.FileFunction,Copper,L2,Bot*%
%TF.FilePolarity,Positive*%
%FSLAX46Y46*%
G04 Gerber Fmt 4.6, Leading zero omitted, Abs format (unit mm)*
G04 Created by KiCad (PCBNEW 7.0.5) date 2023-06-27 10:39:10*
%MOMM*%
%LPD*%
G01*
G04 APERTURE LIST*
%TA.AperFunction,SMDPad,CuDef*%
%ADD10R,1.200000X0.500000*%
%TD*%
%TA.AperFunction,SMDPad,CuDef*%
%ADD11R,2.100000X1.300000*%
%TD*%
%TA.AperFunction,SMDPad,CuDef*%
%ADD12R,1.000000X0.300000*%
%TD*%
%TA.AperFunction,SMDPad,CuDef*%
%ADD13R,2.000000X1.000000*%
%TD*%
%TA.AperFunction,SMDPad,CuDef*%
%ADD14R,2.000000X0.700000*%
%TD*%
%TA.AperFunction,SMDPad,CuDef*%
%ADD15R,2.800000X1.500000*%
%TD*%
%TA.AperFunction,ViaPad*%
%ADD16C,0.460000*%
%TD*%
%TA.AperFunction,Conductor*%
%ADD17C,0.090000*%
%TD*%
%TA.AperFunction,Conductor*%
%ADD18C,0.381000*%
%TD*%
G04 APERTURE END LIST*
D10*
%TO.P,USB1,13,GND1*%
%TO.N,gnd*%
X150336500Y-104425000D03*
D11*
%TO.P,USB1,14,GND0*%
%TO.N,Net-(USB1-GND0)*%
X149887500Y-103300000D03*
%TO.P,USB1,15,GND2*%
%TO.N,Net-(USB1-GND2)*%
X149887500Y-112700000D03*
D10*
%TO.P,USB1,16,GND3*%
%TO.N,gnd*%
X150336500Y-111575000D03*
D12*
%TO.P,USB1,A1,GND6*%
X149437500Y-110750000D03*
%TO.P,USB1,A2,SSTXP1*%
%TO.N,unconnected-(USB1-SSTXP1-PadA2)*%
X149437500Y-110250000D03*
%TO.P,USB1,A3,SSTXN1*%
%TO.N,unconnected-(USB1-SSTXN1-PadA3)*%
X149437500Y-109750000D03*
%TO.P,USB1,A4,VBUS1*%
%TO.N,vdd50*%
X149437500Y-109250000D03*
%TO.P,USB1,A5,CC1*%
%TO.N,unconnected-(USB1-CC1-PadA5)*%
X149437500Y-106750000D03*
%TO.P,USB1,A6,DP1*%
%TO.N,USB+*%
X149437500Y-106250000D03*
%TO.P,USB1,A7,DN1*%
%TO.N,USB-*%
X149437500Y-105750000D03*
%TO.P,USB1,A12,GND5*%
%TO.N,gnd*%
X149437500Y-105250000D03*
%TO.P,USB1,B9,VBUS0*%
%TO.N,vdd50*%
X149437500Y-107250000D03*
%TO.P,USB1,B10,SSRXN1*%
%TO.N,unconnected-(USB1-SSRXN1-PadB10)*%
X149437500Y-107750000D03*
%TO.P,USB1,B11,SSRXP1*%
%TO.N,unconnected-(USB1-SSRXP1-PadB11)*%
X149437500Y-108250000D03*
%TO.P,USB1,B12,GND4*%
%TO.N,gnd*%
X149437500Y-108750000D03*
%TD*%
D13*
%TO.P,Card1,1,CD_DAT3*%
%TO.N,Net-(Card1-CD_DAT3)*%
X143275000Y-101130000D03*
%TO.P,Card1,2,CMD*%
%TO.N,Net-(Card1-CMD)*%
X143275000Y-103630000D03*
%TO.P,Card1,3,VSS1*%
%TO.N,gnd*%
X143275000Y-106130000D03*
%TO.P,Card1,4,VDD*%
%TO.N,Net-(Card1-VDD)*%
X143275000Y-108630000D03*
%TO.P,Card1,5,CLK*%
%TO.N,Net-(Card1-CLK)*%
X143275000Y-111130000D03*
%TO.P,Card1,6,VSS2*%
%TO.N,gnd*%
X143275000Y-113630000D03*
%TO.P,Card1,7,DAT0*%
%TO.N,Net-(Card1-DAT0)*%
X143275000Y-116060000D03*
%TO.P,Card1,8,DAT1*%
%TO.N,Net-(Card1-DAT1)*%
X143275000Y-117760000D03*
%TO.P,Card1,9,DAT2*%
%TO.N,Net-(Card1-DAT2)*%
X143275000Y-98630000D03*
D14*
%TO.P,Card1,10,CD*%
%TO.N,Net-(Card1-CD)*%
X143275000Y-119060000D03*
%TO.P,Card1,11,WP*%
%TO.N,Net-(Card1-WP)*%
X143275000Y-120260000D03*
D15*
%TO.P,Card1,12,SHELL0*%
%TO.N,gnd*%
X141325000Y-121650000D03*
%TO.P,Card1,13,SHELL1*%
X126825000Y-121650000D03*
%TO.P,Card1,14,SHELL2*%
X126725000Y-94350000D03*
%TO.P,Card1,15,SHELL3*%
X141225000Y-96550000D03*
%TD*%
D16*
%TO.N,Net-(Card1-DAT1)*%
X140608833Y-104422235D03*
%TO.N,USB-*%
X148479985Y-105658221D03*
%TO.N,Net-(Card1-DAT2)*%
X132875267Y-104504289D03*
%TO.N,vdd50*%
X148499059Y-109244183D03*
%TO.N,Net-(Card1-CD)*%
X132950211Y-105229456D03*
%TO.N,USB+*%
X148376429Y-106441460D03*
%TO.N,Net-(USB1-GND0)*%
X148074784Y-103313947D03*
%TO.N,Net-(Card1-WP)*%
X135623659Y-107175070D03*
%TO.N,Net-(USB1-GND2)*%
X147864967Y-112698484D03*
%TO.N,Net-(Card1-CMD)*%
X138071854Y-99815084D03*
%TO.N,Net-(Card1-CD_DAT3)*%
X132924651Y-103789389D03*
%TO.N,Net-(Card1-CLK)*%
X140277779Y-101538626D03*
%TO.N,gnd*%
X133223000Y-122047000D03*
X126238000Y-106934000D03*
X125095000Y-104013000D03*
X132334000Y-97028000D03*
X134874000Y-122047000D03*
X145862665Y-106835359D03*
X125095000Y-105537000D03*
X136398000Y-122047000D03*
X140716000Y-108077000D03*
X138176000Y-122047000D03*
X145288000Y-97282000D03*
X125095000Y-107061000D03*
X135128000Y-111252000D03*
X130556000Y-100203000D03*
X140081000Y-110617000D03*
X127889000Y-97663000D03*
X127254000Y-104394000D03*
X135382000Y-98298000D03*
X125095000Y-108585000D03*
X133731000Y-99060000D03*
%TO.N,Net-(Card1-VDD)*%
X132964004Y-102607356D03*
%TO.N,Net-(Card1-DAT0)*%
X140163333Y-103703554D03*
%TD*%
D17*
%TO.N,Net-(Card1-DAT1)*%
X144327729Y-107994927D02*
X142084083Y-107119056D01*
X143275000Y-117760000D02*
X142172706Y-116662766D01*
X144420000Y-109130000D02*
X144420000Y-108130000D01*
X142130444Y-116571337D02*
X141941026Y-114156193D01*
X141803534Y-106860965D02*
X140608833Y-104422235D01*
X141940000Y-114130000D02*
X141940000Y-110630000D01*
X142129196Y-110328394D02*
X144338109Y-109260546D01*
X142129196Y-110328394D02*
G75*
G03*
X141940000Y-110630000I145804J-301606D01*
G01*
X141939998Y-114130000D02*
G75*
G03*
X141941026Y-114156193I334102J0D01*
G01*
X142130445Y-116571337D02*
G75*
G03*
X142172706Y-116662766I144555J11337D01*
G01*
X144420000Y-108130000D02*
G75*
G03*
X144327729Y-107994927I-145000J0D01*
G01*
X141803534Y-106860965D02*
G75*
G03*
X142084083Y-107119056I471466J230965D01*
G01*
X144338109Y-109260546D02*
G75*
G03*
X144420000Y-109130000I-63109J130546D01*
G01*
%TO.N,USB-*%
X148479985Y-105658221D02*
X149437500Y-105750000D01*
%TO.N,Net-(Card1-DAT2)*%
X132659360Y-102880253D02*
X133229295Y-103516492D01*
X140648995Y-99979442D02*
X132851325Y-102214184D01*
X143275000Y-98630000D02*
X140943556Y-99860955D01*
X133243606Y-104045413D02*
X132875267Y-104504289D01*
X140648995Y-99979442D02*
G75*
G03*
X140943556Y-99860955I-423995J1479442D01*
G01*
X132851345Y-102214255D02*
G75*
G03*
X132659360Y-102880253I112655J-393145D01*
G01*
X133243618Y-104045423D02*
G75*
G03*
X133229295Y-103516492I-318918J256023D01*
G01*
D18*
%TO.N,vdd50*%
X149437500Y-109250000D02*
X149970734Y-109188593D01*
X150228000Y-108900000D02*
X150228000Y-107600000D01*
X149437500Y-109250000D02*
X148499059Y-109244183D01*
X149970734Y-107311407D02*
X149437500Y-107250000D01*
X149970734Y-109188593D02*
G75*
G03*
X150228000Y-108900000I-33234J288593D01*
G01*
X150228000Y-107600000D02*
G75*
G03*
X149970734Y-107311407I-290500J0D01*
G01*
D17*
%TO.N,Net-(Card1-CD)*%
X143275000Y-119060000D02*
X142141444Y-118567226D01*
X141998554Y-118449215D02*
X132950211Y-105229456D01*
X141998554Y-118449215D02*
G75*
G03*
X142141444Y-118567226I276446J189215D01*
G01*
%TO.N,USB+*%
X149437500Y-106250000D02*
X148376429Y-106441460D01*
%TO.N,Net-(USB1-GND0)*%
X148074784Y-103313947D02*
X149887500Y-103300000D01*
%TO.N,Net-(Card1-WP)*%
X144420000Y-118710000D02*
X144420000Y-119410000D01*
X142263503Y-118404543D02*
X144286497Y-118565457D01*
X135623659Y-107175070D02*
X142149836Y-118333206D01*
X144356128Y-119530180D02*
X143275000Y-120260000D01*
X142149837Y-118333205D02*
G75*
G03*
X142263503Y-118404542I125163J73205D01*
G01*
X144419999Y-118710000D02*
G75*
G03*
X144286497Y-118565458I-144999J0D01*
G01*
X144356128Y-119530180D02*
G75*
G03*
X144420000Y-119410000I-81128J120180D01*
G01*
%TO.N,Net-(USB1-GND2)*%
X147864967Y-112698484D02*
X149887500Y-112700000D01*
%TO.N,Net-(Card1-CMD)*%
X144419581Y-101641020D02*
X144609031Y-99155460D01*
X143275000Y-103630000D02*
X144400214Y-101703119D01*
X141997095Y-97942933D02*
X141186467Y-99147195D01*
X144275000Y-97795000D02*
X142275000Y-97795000D01*
X140307233Y-99656079D02*
X138071854Y-99815084D01*
X144610000Y-99130000D02*
X144610000Y-98130000D01*
X144609030Y-99155460D02*
G75*
G03*
X144610000Y-99130000I-333530J25460D01*
G01*
X140307233Y-99656078D02*
G75*
G03*
X141186466Y-99147195I-82233J1156078D01*
G01*
X142275000Y-97795000D02*
G75*
G03*
X141997095Y-97942933I0J-335000D01*
G01*
X144400214Y-101703119D02*
G75*
G03*
X144419581Y-101641020I-125214J73119D01*
G01*
X144610000Y-98130000D02*
G75*
G03*
X144275000Y-97795000I-335000J0D01*
G01*
%TO.N,Net-(Card1-CD_DAT3)*%
X142154713Y-98049031D02*
X141344085Y-99253293D01*
X144420000Y-99130000D02*
X144420000Y-98130000D01*
X132437705Y-102893379D02*
X132924651Y-103789389D01*
X140596650Y-99796795D02*
X132798980Y-102031536D01*
X143275000Y-101130000D02*
X144400214Y-99203119D01*
X144275000Y-97985000D02*
X142275000Y-97985000D01*
X140596650Y-99796795D02*
G75*
G03*
X141344085Y-99253293I-371650J1296795D01*
G01*
X142275000Y-97985001D02*
G75*
G03*
X142154714Y-98049031I0J-144999D01*
G01*
X144400214Y-99203119D02*
G75*
G03*
X144420000Y-99130000I-125214J73119D01*
G01*
X132798999Y-102031601D02*
G75*
G03*
X132437705Y-102893379I165001J-575799D01*
G01*
X144420000Y-98130000D02*
G75*
G03*
X144275000Y-97985000I-145000J0D01*
G01*
%TO.N,Net-(Card1-CLK)*%
X144676323Y-109468474D02*
X143275000Y-111130000D01*
X144800000Y-108130000D02*
X144800000Y-109130000D01*
X142222271Y-106765073D02*
X144465917Y-107640944D01*
X140277779Y-101538626D02*
X142138658Y-106679354D01*
X144800000Y-108130000D02*
G75*
G03*
X144465917Y-107640944I-525000J0D01*
G01*
X144676323Y-109468474D02*
G75*
G03*
X144800000Y-109130000I-401323J338474D01*
G01*
X142138658Y-106679354D02*
G75*
G03*
X142222271Y-106765073I136342J49354D01*
G01*
%TO.N,Net-(Card1-VDD)*%
X143275000Y-108630000D02*
X132964004Y-102607356D01*
%TO.N,Net-(Card1-DAT0)*%
X142130000Y-110630000D02*
X142130000Y-114130000D01*
X144610000Y-108130000D02*
X144610000Y-109130000D01*
X140163333Y-103703554D02*
X140808855Y-104065483D01*
X142153177Y-106942064D02*
X144396823Y-107817936D01*
X140989538Y-104272753D02*
X141963176Y-106752437D01*
X144420804Y-109431606D02*
X142211891Y-110499454D01*
X142150992Y-114205147D02*
X143275000Y-116060000D01*
X144609999Y-108130000D02*
G75*
G03*
X144396823Y-107817937I-334999J0D01*
G01*
X144420804Y-109431606D02*
G75*
G03*
X144610000Y-109130000I-145804J301606D01*
G01*
X142211891Y-110499454D02*
G75*
G03*
X142130000Y-110630000I63109J-130546D01*
G01*
X140989507Y-104272765D02*
G75*
G03*
X140808855Y-104065483I-380707J-149435D01*
G01*
X141963177Y-106752437D02*
G75*
G03*
X142153177Y-106942063I311823J122437D01*
G01*
X142130000Y-114130000D02*
G75*
G03*
X142150992Y-114205147I145000J0D01*
G01*
%TD*%
%TA.AperFunction,Conductor*%
%TO.N,gnd*%
G36*
X133180328Y-102902212D02*
G01*
X142167562Y-108151648D01*
X142174041Y-108160181D01*
X142174500Y-108163736D01*
X142174500Y-109139896D01*
X142176537Y-109150138D01*
X142180331Y-109169213D01*
X142202543Y-109202457D01*
X142235787Y-109224669D01*
X142265101Y-109230500D01*
X144004836Y-109230499D01*
X144014735Y-109234599D01*
X144018836Y-109244499D01*
X144014736Y-109254398D01*
X144010929Y-109257103D01*
X142085723Y-110187798D01*
X142085724Y-110187799D01*
X142078557Y-110191264D01*
X142065869Y-110197398D01*
X142041944Y-110208959D01*
X142017188Y-110220922D01*
X142017187Y-110220923D01*
X141932726Y-110288444D01*
X141865382Y-110373048D01*
X141818523Y-110470502D01*
X141794492Y-110575929D01*
X141794492Y-110575931D01*
X141794500Y-110630001D01*
X141794500Y-114124199D01*
X141794498Y-114124203D01*
X141794498Y-114136299D01*
X141794500Y-114136473D01*
X141794500Y-114147782D01*
X141794491Y-114148146D01*
X141794473Y-114148473D01*
X141794478Y-114148527D01*
X141794500Y-114149078D01*
X141794500Y-114149162D01*
X141794544Y-114149497D01*
X141794583Y-114149863D01*
X141795476Y-114161260D01*
X141795479Y-114161313D01*
X141795974Y-114167602D01*
X141983219Y-116555067D01*
X141983221Y-116555070D01*
X141985102Y-116579058D01*
X141986899Y-116601966D01*
X141986981Y-116602532D01*
X141988152Y-116617106D01*
X142009511Y-116682715D01*
X142009512Y-116682716D01*
X142045649Y-116741498D01*
X142045651Y-116741500D01*
X142055988Y-116751827D01*
X142056368Y-116752258D01*
X142056481Y-116752370D01*
X142056482Y-116752372D01*
X142228203Y-116923305D01*
X142441455Y-117135578D01*
X142445578Y-117145468D01*
X142441500Y-117155377D01*
X142431610Y-117159500D01*
X142265103Y-117159500D01*
X142235787Y-117165331D01*
X142202543Y-117187543D01*
X142180330Y-117220788D01*
X142174500Y-117250101D01*
X142174500Y-118035514D01*
X142170399Y-118045413D01*
X142160500Y-118049514D01*
X142150601Y-118045413D01*
X142148415Y-118042582D01*
X139262490Y-113108369D01*
X135918627Y-107391198D01*
X135917170Y-107380584D01*
X135918237Y-107377778D01*
X135965011Y-107285982D01*
X135982578Y-107175070D01*
X135965011Y-107064158D01*
X135914031Y-106964103D01*
X135914030Y-106964101D01*
X135834627Y-106884698D01*
X135734571Y-106833718D01*
X135734572Y-106833718D01*
X135623659Y-106816151D01*
X135512746Y-106833718D01*
X135412690Y-106884698D01*
X135333287Y-106964101D01*
X135282307Y-107064157D01*
X135264740Y-107175070D01*
X135282307Y-107285982D01*
X135333287Y-107386038D01*
X135412690Y-107465441D01*
X135412692Y-107465442D01*
X135512747Y-107516422D01*
X135623659Y-107533989D01*
X135652071Y-107529488D01*
X135662489Y-107531990D01*
X135666345Y-107536248D01*
X141111489Y-116846087D01*
X141112947Y-116856702D01*
X141106472Y-116865240D01*
X141095857Y-116866698D01*
X141087852Y-116861064D01*
X133258225Y-105421866D01*
X133256017Y-105411380D01*
X133257302Y-105407605D01*
X133291563Y-105340368D01*
X133309130Y-105229456D01*
X133291563Y-105118544D01*
X133240583Y-105018489D01*
X133240582Y-105018487D01*
X133161179Y-104939084D01*
X133061123Y-104888104D01*
X133061124Y-104888104D01*
X133021746Y-104881867D01*
X132976903Y-104874764D01*
X132967768Y-104869166D01*
X132965266Y-104858747D01*
X132970865Y-104849611D01*
X132976899Y-104847110D01*
X132986179Y-104845641D01*
X133086234Y-104794661D01*
X133165639Y-104715256D01*
X133216619Y-104615201D01*
X133234186Y-104504289D01*
X133216619Y-104393377D01*
X133195197Y-104351335D01*
X133194357Y-104340654D01*
X133196752Y-104336218D01*
X133353515Y-104140923D01*
X133353560Y-104140899D01*
X133357079Y-104136507D01*
X133357080Y-104136508D01*
X133368917Y-104121737D01*
X133369064Y-104121554D01*
X133370543Y-104119710D01*
X133370555Y-104119690D01*
X133397917Y-104085547D01*
X133453778Y-103967484D01*
X133480677Y-103839673D01*
X133477141Y-103709110D01*
X133443365Y-103582943D01*
X133411961Y-103524919D01*
X133381197Y-103468077D01*
X133368924Y-103454356D01*
X133350810Y-103434102D01*
X133350662Y-103433911D01*
X133035093Y-103081632D01*
X132952665Y-102989615D01*
X132949115Y-102979507D01*
X132953753Y-102969847D01*
X132963094Y-102966275D01*
X132964002Y-102966275D01*
X132964002Y-102966274D01*
X132964004Y-102966275D01*
X133074916Y-102948708D01*
X133166919Y-102901829D01*
X133177599Y-102900989D01*
X133180328Y-102902212D01*
G37*
%TD.AperFunction*%
%TA.AperFunction,Conductor*%
G36*
X149295399Y-93204601D02*
G01*
X149299500Y-93214500D01*
X149299500Y-95045762D01*
X149308868Y-95065218D01*
X149309903Y-95068176D01*
X149314709Y-95089230D01*
X149314710Y-95089231D01*
X149325652Y-95102952D01*
X149328176Y-95106116D01*
X149329841Y-95108766D01*
X149339212Y-95128224D01*
X149339213Y-95128225D01*
X149356094Y-95141688D01*
X149358310Y-95143904D01*
X149371774Y-95160786D01*
X149371776Y-95160788D01*
X149371777Y-95160788D01*
X149371778Y-95160789D01*
X149391229Y-95170157D01*
X149393883Y-95171824D01*
X149405809Y-95181335D01*
X149410769Y-95185290D01*
X149431824Y-95190095D01*
X149434776Y-95191128D01*
X149454237Y-95200500D01*
X149477410Y-95200500D01*
X154285500Y-95200500D01*
X154295399Y-95204601D01*
X154299500Y-95214500D01*
X154299500Y-103663500D01*
X154295399Y-103673399D01*
X154285500Y-103677500D01*
X151135909Y-103677500D01*
X151128685Y-103679149D01*
X151125570Y-103679500D01*
X151109735Y-103679500D01*
X151095471Y-103686368D01*
X151092514Y-103687403D01*
X151069270Y-103692709D01*
X151069267Y-103692710D01*
X151060727Y-103699521D01*
X151050430Y-103702487D01*
X151041053Y-103697303D01*
X151037999Y-103688575D01*
X151037999Y-102640103D01*
X151037096Y-102635561D01*
X151032169Y-102610787D01*
X151009957Y-102577543D01*
X150976713Y-102555331D01*
X150976712Y-102555330D01*
X150976711Y-102555330D01*
X150954676Y-102550947D01*
X150947399Y-102549500D01*
X150947398Y-102549500D01*
X148827603Y-102549500D01*
X148798287Y-102555331D01*
X148765043Y-102577543D01*
X148742830Y-102610788D01*
X148737000Y-102640101D01*
X148737000Y-103149453D01*
X148732899Y-103159352D01*
X148723108Y-103163453D01*
X148405899Y-103165894D01*
X148395968Y-103161869D01*
X148393317Y-103158250D01*
X148365155Y-103102978D01*
X148285752Y-103023575D01*
X148185696Y-102972595D01*
X148185697Y-102972595D01*
X148074784Y-102955028D01*
X147963871Y-102972595D01*
X147863815Y-103023575D01*
X147784412Y-103102978D01*
X147733432Y-103203034D01*
X147715865Y-103313947D01*
X147733432Y-103424859D01*
X147784412Y-103524915D01*
X147863815Y-103604318D01*
X147863817Y-103604319D01*
X147963872Y-103655299D01*
X148074784Y-103672866D01*
X148185696Y-103655299D01*
X148285751Y-103604319D01*
X148365156Y-103524914D01*
X148395923Y-103464526D01*
X148404069Y-103457569D01*
X148408284Y-103456884D01*
X148722893Y-103454464D01*
X148732823Y-103458489D01*
X148737000Y-103468356D01*
X148737000Y-103959896D01*
X148741383Y-103981934D01*
X148742831Y-103989213D01*
X148765043Y-104022457D01*
X148798287Y-104044669D01*
X148827601Y-104050500D01*
X150941000Y-104050499D01*
X150950899Y-104054600D01*
X150955000Y-104064499D01*
X150955000Y-104131084D01*
X150950899Y-104140983D01*
X150941000Y-104145084D01*
X150939631Y-104145017D01*
X150939458Y-104145000D01*
X150354000Y-104145000D01*
X150354000Y-104704999D01*
X150939447Y-104704999D01*
X150939618Y-104704982D01*
X150939674Y-104704999D01*
X150940143Y-104704999D01*
X150940143Y-104705140D01*
X150949874Y-104708086D01*
X150954932Y-104717532D01*
X150955000Y-104718914D01*
X150955000Y-111281084D01*
X150950899Y-111290983D01*
X150941000Y-111295084D01*
X150939631Y-111295017D01*
X150939458Y-111295000D01*
X150354000Y-111295000D01*
X150354000Y-111854999D01*
X150939447Y-111854999D01*
X150939618Y-111854982D01*
X150939674Y-111854999D01*
X150940143Y-111854999D01*
X150940143Y-111855140D01*
X150949874Y-111858086D01*
X150954932Y-111867532D01*
X150955000Y-111868914D01*
X150955000Y-111935500D01*
X150950899Y-111945399D01*
X150941000Y-111949500D01*
X148827603Y-111949500D01*
X148798287Y-111955331D01*
X148765043Y-111977543D01*
X148742830Y-112010788D01*
X148737000Y-112040101D01*
X148737000Y-112539626D01*
X148732899Y-112549525D01*
X148723000Y-112553626D01*
X148722990Y-112553626D01*
X148197391Y-112553232D01*
X148187494Y-112549124D01*
X148184927Y-112545588D01*
X148181889Y-112539626D01*
X148155339Y-112487517D01*
X148155338Y-112487515D01*
X148075935Y-112408112D01*
X147975879Y-112357132D01*
X147975880Y-112357132D01*
X147864967Y-112339565D01*
X147754054Y-112357132D01*
X147653998Y-112408112D01*
X147574595Y-112487515D01*
X147523615Y-112587571D01*
X147506048Y-112698484D01*
X147523615Y-112809396D01*
X147574595Y-112909452D01*
X147653998Y-112988855D01*
X147654000Y-112988856D01*
X147754055Y-113039836D01*
X147864967Y-113057403D01*
X147975879Y-113039836D01*
X148075934Y-112988856D01*
X148155339Y-112909451D01*
X148184673Y-112851875D01*
X148192820Y-112844917D01*
X148197154Y-112844232D01*
X148723011Y-112844626D01*
X148732907Y-112848734D01*
X148737000Y-112858626D01*
X148737000Y-113359896D01*
X148737001Y-113359899D01*
X148742831Y-113389213D01*
X148765043Y-113422457D01*
X148798287Y-113444669D01*
X148827601Y-113450500D01*
X150947398Y-113450499D01*
X150976713Y-113444669D01*
X151009957Y-113422457D01*
X151032169Y-113389213D01*
X151038000Y-113359899D01*
X151037999Y-112318232D01*
X151042099Y-112308334D01*
X151051999Y-112304233D01*
X151058074Y-112305620D01*
X151070731Y-112311716D01*
X151073133Y-112313225D01*
X151073397Y-112313352D01*
X151076077Y-112314289D01*
X151109737Y-112330500D01*
X151201263Y-112330500D01*
X151201915Y-112330185D01*
X151202539Y-112329886D01*
X151208612Y-112328500D01*
X154285500Y-112328500D01*
X154295399Y-112332601D01*
X154299500Y-112342500D01*
X154299500Y-120785500D01*
X154295399Y-120795399D01*
X154285500Y-120799500D01*
X149454235Y-120799500D01*
X149434779Y-120808868D01*
X149431822Y-120809903D01*
X149410770Y-120814709D01*
X149410767Y-120814710D01*
X149393881Y-120828176D01*
X149391228Y-120829843D01*
X149371778Y-120839210D01*
X149371774Y-120839213D01*
X149358311Y-120856095D01*
X149356095Y-120858311D01*
X149339213Y-120871774D01*
X149339210Y-120871778D01*
X149329843Y-120891228D01*
X149328176Y-120893881D01*
X149314710Y-120910767D01*
X149314709Y-120910770D01*
X149309903Y-120931822D01*
X149308868Y-120934779D01*
X149299500Y-120954235D01*
X149299500Y-122785500D01*
X149295399Y-122795399D01*
X149285500Y-122799500D01*
X124714500Y-122799500D01*
X124704601Y-122795399D01*
X124700500Y-122785500D01*
X124700500Y-122402952D01*
X125395000Y-122402952D01*
X125396739Y-122411705D01*
X125403371Y-122421630D01*
X125413293Y-122428259D01*
X125422044Y-122429999D01*
X126807499Y-122429999D01*
X126842499Y-122429999D01*
X128227952Y-122429999D01*
X128236705Y-122428260D01*
X128246630Y-122421628D01*
X128253259Y-122411707D01*
X128253259Y-122411705D01*
X128255000Y-122402955D01*
X128255000Y-121667500D01*
X139895001Y-121667500D01*
X139895001Y-122402952D01*
X139896739Y-122411705D01*
X139903371Y-122421630D01*
X139913293Y-122428259D01*
X139922044Y-122429999D01*
X141307500Y-122429999D01*
X141307500Y-121667500D01*
X141342500Y-121667500D01*
X141342500Y-122429999D01*
X142727952Y-122429999D01*
X142736705Y-122428260D01*
X142746630Y-122421628D01*
X142753259Y-122411707D01*
X142753259Y-122411705D01*
X142755000Y-122402955D01*
X142755000Y-121667500D01*
X141342500Y-121667500D01*
X141307500Y-121667500D01*
X139895001Y-121667500D01*
X128255000Y-121667500D01*
X126842500Y-121667500D01*
X126842499Y-122429999D01*
X126807499Y-122429999D01*
X126807500Y-121667500D01*
X125395001Y-121667500D01*
X125395000Y-122402952D01*
X124700500Y-122402952D01*
X124700500Y-121632500D01*
X125395000Y-121632500D01*
X126807500Y-121632500D01*
X126807499Y-120870000D01*
X126842499Y-120870000D01*
X126842500Y-121632500D01*
X128254999Y-121632500D01*
X139895000Y-121632500D01*
X141307500Y-121632500D01*
X141307500Y-120870000D01*
X141342500Y-120870000D01*
X141342500Y-121632500D01*
X142754999Y-121632500D01*
X142754999Y-120897047D01*
X142753260Y-120888294D01*
X142746628Y-120878369D01*
X142736706Y-120871740D01*
X142727956Y-120870000D01*
X141342500Y-120870000D01*
X141307500Y-120870000D01*
X139922047Y-120870000D01*
X139913294Y-120871739D01*
X139903369Y-120878371D01*
X139896740Y-120888292D01*
X139896740Y-120888294D01*
X139895000Y-120897044D01*
X139895000Y-121632500D01*
X128254999Y-121632500D01*
X128254999Y-120897047D01*
X128253260Y-120888294D01*
X128246628Y-120878369D01*
X128236706Y-120871740D01*
X128227956Y-120870000D01*
X126842499Y-120870000D01*
X126807499Y-120870000D01*
X125422047Y-120870000D01*
X125413294Y-120871739D01*
X125403369Y-120878371D01*
X125396740Y-120888292D01*
X125396740Y-120888294D01*
X125395000Y-120897044D01*
X125395000Y-121632500D01*
X124700500Y-121632500D01*
X124700500Y-119453472D01*
X139416721Y-119453472D01*
X139426783Y-119639057D01*
X139476507Y-119818147D01*
X139476507Y-119818148D01*
X139563568Y-119982360D01*
X139563573Y-119982367D01*
X139683894Y-120124021D01*
X139831855Y-120236498D01*
X139831856Y-120236498D01*
X139831861Y-120236502D01*
X140000548Y-120314545D01*
X140182067Y-120354500D01*
X140182068Y-120354500D01*
X140321325Y-120354500D01*
X140321332Y-120354500D01*
X140459775Y-120339443D01*
X140635911Y-120280096D01*
X140795171Y-120184273D01*
X140930108Y-120056454D01*
X141034413Y-119902615D01*
X141103209Y-119729951D01*
X141133278Y-119546535D01*
X141132712Y-119536103D01*
X141123216Y-119360942D01*
X141073492Y-119181852D01*
X141073492Y-119181851D01*
X141017145Y-119075570D01*
X140986431Y-119017638D01*
X140923496Y-118943545D01*
X140866105Y-118875978D01*
X140718144Y-118763501D01*
X140718141Y-118763499D01*
X140718139Y-118763498D01*
X140549452Y-118685455D01*
X140367933Y-118645500D01*
X140228668Y-118645500D01*
X140228660Y-118645500D01*
X140090227Y-118660556D01*
X140090216Y-118660559D01*
X139914097Y-118719900D01*
X139914090Y-118719903D01*
X139754830Y-118815726D01*
X139754828Y-118815727D01*
X139619892Y-118943545D01*
X139515586Y-119097386D01*
X139446791Y-119270047D01*
X139416721Y-119453472D01*
X124700500Y-119453472D01*
X124700500Y-102607910D01*
X132215924Y-102607910D01*
X132220135Y-102649840D01*
X132230762Y-102755656D01*
X132274492Y-102897566D01*
X132277011Y-102902215D01*
X132300434Y-102945449D01*
X132300597Y-102945802D01*
X132300716Y-102946021D01*
X132300717Y-102946024D01*
X132302176Y-102948708D01*
X132309023Y-102961308D01*
X132309024Y-102961310D01*
X132326523Y-102993515D01*
X132326534Y-102993531D01*
X132635849Y-103562688D01*
X132636973Y-103573344D01*
X132634877Y-103577598D01*
X132634280Y-103578420D01*
X132583299Y-103678476D01*
X132565732Y-103789389D01*
X132583299Y-103900301D01*
X132634279Y-104000357D01*
X132713682Y-104079760D01*
X132811841Y-104129774D01*
X132818800Y-104137922D01*
X132817959Y-104148604D01*
X132809811Y-104155563D01*
X132807678Y-104156075D01*
X132778774Y-104160653D01*
X132764354Y-104162937D01*
X132664298Y-104213917D01*
X132584895Y-104293320D01*
X132533915Y-104393376D01*
X132516348Y-104504289D01*
X132533915Y-104615201D01*
X132584895Y-104715257D01*
X132664298Y-104794660D01*
X132664300Y-104794661D01*
X132764355Y-104845641D01*
X132848575Y-104858980D01*
X132857709Y-104864578D01*
X132860211Y-104874997D01*
X132854612Y-104884133D01*
X132848574Y-104886634D01*
X132839303Y-104888103D01*
X132839298Y-104888104D01*
X132739242Y-104939084D01*
X132659839Y-105018487D01*
X132608859Y-105118543D01*
X132591292Y-105229456D01*
X132608859Y-105340368D01*
X132659839Y-105440424D01*
X132739242Y-105519827D01*
X132739244Y-105519828D01*
X132839299Y-105570808D01*
X132950211Y-105588375D01*
X133004032Y-105579849D01*
X133014449Y-105582351D01*
X133017773Y-105585769D01*
X141860094Y-118504529D01*
X141860095Y-118504529D01*
X141873719Y-118524433D01*
X141873726Y-118524466D01*
X141878868Y-118531955D01*
X141889481Y-118547461D01*
X141889661Y-118547690D01*
X141903944Y-118568515D01*
X141967704Y-118632065D01*
X141967708Y-118632068D01*
X141967712Y-118632072D01*
X142042173Y-118682676D01*
X142048549Y-118685455D01*
X142065323Y-118692767D01*
X142065580Y-118692899D01*
X142065865Y-118693022D01*
X142065869Y-118693026D01*
X142083437Y-118700663D01*
X142099900Y-118707820D01*
X142113890Y-118713902D01*
X142113893Y-118713903D01*
X142120823Y-118716916D01*
X142120828Y-118716917D01*
X142166081Y-118736589D01*
X142173525Y-118744296D01*
X142174500Y-118749428D01*
X142174500Y-119419896D01*
X142176342Y-119429156D01*
X142180331Y-119449213D01*
X142202543Y-119482457D01*
X142235787Y-119504669D01*
X142265101Y-119510500D01*
X144079468Y-119510499D01*
X144089367Y-119514599D01*
X144093468Y-119524499D01*
X144089368Y-119534398D01*
X144087301Y-119536103D01*
X143685850Y-119807104D01*
X143678017Y-119809500D01*
X142265103Y-119809500D01*
X142235787Y-119815331D01*
X142202543Y-119837543D01*
X142180330Y-119870788D01*
X142174500Y-119900101D01*
X142174500Y-120619896D01*
X142174501Y-120619899D01*
X142180331Y-120649213D01*
X142202543Y-120682457D01*
X142235787Y-120704669D01*
X142265101Y-120710500D01*
X144284898Y-120710499D01*
X144314213Y-120704669D01*
X144347457Y-120682457D01*
X144369669Y-120649213D01*
X144375500Y-120619899D01*
X144375499Y-119900102D01*
X144369669Y-119870787D01*
X144347457Y-119837543D01*
X144314213Y-119815331D01*
X144314212Y-119815330D01*
X144314211Y-119815330D01*
X144284899Y-119809500D01*
X144248168Y-119809500D01*
X144238269Y-119805399D01*
X144234168Y-119795500D01*
X144238269Y-119785601D01*
X144240335Y-119783896D01*
X144253670Y-119774893D01*
X144453413Y-119640057D01*
X144453415Y-119640054D01*
X144453626Y-119639912D01*
X144453917Y-119639685D01*
X144467058Y-119630791D01*
X144514751Y-119577792D01*
X144548212Y-119514832D01*
X144565454Y-119445650D01*
X144565474Y-119429788D01*
X144565500Y-119429409D01*
X144565500Y-118707820D01*
X144565503Y-118700661D01*
X144565519Y-118666347D01*
X144539861Y-118582897D01*
X144505266Y-118531955D01*
X144490813Y-118510673D01*
X144483152Y-118504529D01*
X144465264Y-118490183D01*
X148641691Y-118490183D01*
X148651838Y-118729034D01*
X148651838Y-118729040D01*
X148651839Y-118729042D01*
X148670521Y-118815726D01*
X148702209Y-118962762D01*
X148791348Y-119184593D01*
X148791350Y-119184596D01*
X148916695Y-119388171D01*
X148916706Y-119388186D01*
X149074656Y-119567651D01*
X149074658Y-119567653D01*
X149260672Y-119717849D01*
X149469393Y-119834448D01*
X149694817Y-119914095D01*
X149930459Y-119954500D01*
X149930462Y-119954500D01*
X150109657Y-119954500D01*
X150109664Y-119954500D01*
X150288220Y-119939303D01*
X150519587Y-119879059D01*
X150737444Y-119780581D01*
X150935525Y-119646702D01*
X151108131Y-119481273D01*
X151250297Y-119289052D01*
X151357932Y-119075570D01*
X151427940Y-118846969D01*
X151458308Y-118609824D01*
X151458294Y-118609500D01*
X151450269Y-118420574D01*
X151448161Y-118370958D01*
X151397792Y-118137243D01*
X151397790Y-118137237D01*
X151308651Y-117915406D01*
X151308649Y-117915403D01*
X151183304Y-117711828D01*
X151183293Y-117711813D01*
X151025343Y-117532348D01*
X151025342Y-117532347D01*
X150839328Y-117382151D01*
X150630607Y-117265552D01*
X150503912Y-117220788D01*
X150405184Y-117185905D01*
X150346272Y-117175803D01*
X150169541Y-117145500D01*
X149990336Y-117145500D01*
X149990333Y-117145500D01*
X149811779Y-117160697D01*
X149811774Y-117160698D01*
X149580412Y-117220941D01*
X149580410Y-117220942D01*
X149362561Y-117319416D01*
X149362553Y-117319421D01*
X149164470Y-117453301D01*
X148991872Y-117618723D01*
X148991869Y-117618726D01*
X148849704Y-117810944D01*
X148742069Y-118024426D01*
X148742066Y-118024433D01*
X148672060Y-118253027D01*
X148672060Y-118253028D01*
X148641691Y-118490183D01*
X144465264Y-118490183D01*
X144422704Y-118456051D01*
X144422702Y-118456050D01*
X144422699Y-118456048D01*
X144341552Y-118423857D01*
X144341549Y-118423856D01*
X144300043Y-118420574D01*
X144300042Y-118420573D01*
X144300041Y-118420573D01*
X144299038Y-118420494D01*
X144298036Y-118420415D01*
X144298035Y-118420414D01*
X144298034Y-118420415D01*
X144290880Y-118419846D01*
X143896238Y-118388455D01*
X143886695Y-118383582D01*
X143883392Y-118373389D01*
X143888265Y-118363846D01*
X143897348Y-118360499D01*
X144284897Y-118360499D01*
X144284898Y-118360499D01*
X144314213Y-118354669D01*
X144347457Y-118332457D01*
X144369669Y-118299213D01*
X144375500Y-118269899D01*
X144375499Y-117250102D01*
X144369669Y-117220787D01*
X144347457Y-117187543D01*
X144314213Y-117165331D01*
X144314212Y-117165330D01*
X144314211Y-117165330D01*
X144284899Y-117159500D01*
X142883754Y-117159500D01*
X142873877Y-117155422D01*
X142583822Y-116866698D01*
X142400704Y-116684420D01*
X142396582Y-116674531D01*
X142400660Y-116664622D01*
X142410550Y-116660499D01*
X144284897Y-116660499D01*
X144284898Y-116660499D01*
X144314213Y-116654669D01*
X144347457Y-116632457D01*
X144369669Y-116599213D01*
X144375500Y-116569899D01*
X144375499Y-115550102D01*
X144369669Y-115520787D01*
X144347457Y-115487543D01*
X144314213Y-115465331D01*
X144314212Y-115465330D01*
X144314211Y-115465330D01*
X144284899Y-115459500D01*
X143089124Y-115459500D01*
X143079225Y-115455399D01*
X143077151Y-115452756D01*
X142306645Y-114181255D01*
X142305021Y-114170663D01*
X142311362Y-114162026D01*
X142318618Y-114159999D01*
X143257500Y-114159999D01*
X143257500Y-113647500D01*
X143292500Y-113647500D01*
X143292500Y-114159999D01*
X144277952Y-114159999D01*
X144286705Y-114158260D01*
X144296630Y-114151628D01*
X144303259Y-114141707D01*
X144303259Y-114141705D01*
X144305000Y-114132955D01*
X144305000Y-113647500D01*
X143292500Y-113647500D01*
X143257500Y-113647500D01*
X143257500Y-113100000D01*
X143292500Y-113100000D01*
X143292500Y-113612500D01*
X144304999Y-113612500D01*
X144304999Y-113127047D01*
X144303260Y-113118294D01*
X144296628Y-113108369D01*
X144286706Y-113101740D01*
X144277956Y-113100000D01*
X143292500Y-113100000D01*
X143257500Y-113100000D01*
X142289500Y-113100000D01*
X142279601Y-113095899D01*
X142275500Y-113086000D01*
X142275500Y-111744499D01*
X142279601Y-111734600D01*
X142289500Y-111730499D01*
X144284897Y-111730499D01*
X144284898Y-111730499D01*
X144314213Y-111724669D01*
X144347457Y-111702457D01*
X144369669Y-111669213D01*
X144375500Y-111639899D01*
X144375500Y-111592500D01*
X149706501Y-111592500D01*
X149706501Y-111827952D01*
X149708239Y-111836705D01*
X149714871Y-111846630D01*
X149724793Y-111853259D01*
X149733544Y-111854999D01*
X150319000Y-111854999D01*
X150319000Y-111592500D01*
X149706501Y-111592500D01*
X144375500Y-111592500D01*
X144375500Y-111557500D01*
X149706500Y-111557500D01*
X150319000Y-111557500D01*
X150319000Y-111295000D01*
X149733547Y-111295000D01*
X149724794Y-111296739D01*
X149714869Y-111303371D01*
X149708240Y-111313292D01*
X149708240Y-111313294D01*
X149706500Y-111322044D01*
X149706500Y-111557500D01*
X144375500Y-111557500D01*
X144375499Y-110767500D01*
X148907501Y-110767500D01*
X148907501Y-110902952D01*
X148909239Y-110911705D01*
X148915871Y-110921630D01*
X148925793Y-110928259D01*
X148934544Y-110929999D01*
X149420000Y-110929999D01*
X149420000Y-110767500D01*
X149455000Y-110767500D01*
X149455000Y-110929999D01*
X149940452Y-110929999D01*
X149949205Y-110928260D01*
X149959130Y-110921628D01*
X149965759Y-110911707D01*
X149965759Y-110911705D01*
X149967500Y-110902955D01*
X149967500Y-110767500D01*
X149455000Y-110767500D01*
X149420000Y-110767500D01*
X148907501Y-110767500D01*
X144375499Y-110767500D01*
X144375499Y-110732500D01*
X148907500Y-110732500D01*
X149420000Y-110732500D01*
X149420000Y-110570000D01*
X149455000Y-110570000D01*
X149455000Y-110732500D01*
X149967499Y-110732500D01*
X149967499Y-110597047D01*
X149965760Y-110588294D01*
X149959128Y-110578369D01*
X149949206Y-110571740D01*
X149940456Y-110570000D01*
X149455000Y-110570000D01*
X149420000Y-110570000D01*
X148934547Y-110570000D01*
X148925794Y-110571739D01*
X148915869Y-110578371D01*
X148909240Y-110588292D01*
X148909240Y-110588294D01*
X148907500Y-110597044D01*
X148907500Y-110732500D01*
X144375499Y-110732500D01*
X144375499Y-110620102D01*
X144369669Y-110590787D01*
X144347457Y-110557543D01*
X144314213Y-110535331D01*
X144314212Y-110535330D01*
X144314211Y-110535330D01*
X144284899Y-110529500D01*
X144001919Y-110529500D01*
X143992020Y-110525399D01*
X143987919Y-110515500D01*
X143991217Y-110506474D01*
X144047946Y-110439212D01*
X144775000Y-109577156D01*
X144787547Y-109562280D01*
X144788594Y-109561036D01*
X144799897Y-109547636D01*
X144799898Y-109547632D01*
X144800492Y-109546929D01*
X144800534Y-109546870D01*
X144825488Y-109517265D01*
X144884552Y-109415407D01*
X144924962Y-109304814D01*
X144945481Y-109188872D01*
X144945492Y-109150228D01*
X144945500Y-109150138D01*
X144945500Y-108732500D01*
X148907500Y-108732500D01*
X149420000Y-108732500D01*
X149420000Y-108570000D01*
X148934547Y-108570000D01*
X148925794Y-108571739D01*
X148915869Y-108578371D01*
X148909240Y-108588292D01*
X148909240Y-108588294D01*
X148907500Y-108597044D01*
X148907500Y-108732500D01*
X144945500Y-108732500D01*
X144945500Y-108130010D01*
X144945501Y-108128932D01*
X144945599Y-108062794D01*
X144918926Y-107931055D01*
X144918925Y-107931054D01*
X144918925Y-107931051D01*
X144866642Y-107807232D01*
X144866640Y-107807228D01*
X144790822Y-107696241D01*
X144790820Y-107696239D01*
X144694491Y-107602509D01*
X144690601Y-107600005D01*
X144581469Y-107529753D01*
X144581468Y-107529752D01*
X144581464Y-107529750D01*
X144519022Y-107505481D01*
X144519006Y-107505466D01*
X144519004Y-107505474D01*
X144491325Y-107494669D01*
X144487893Y-107493329D01*
X144487892Y-107493329D01*
X144486677Y-107492854D01*
X142422489Y-106687040D01*
X142414758Y-106679621D01*
X142414539Y-106668908D01*
X142421958Y-106661177D01*
X142427580Y-106659999D01*
X143257500Y-106659999D01*
X143257500Y-106147500D01*
X143292500Y-106147500D01*
X143292500Y-106659999D01*
X144277952Y-106659999D01*
X144286705Y-106658260D01*
X144296630Y-106651628D01*
X144303259Y-106641707D01*
X144303259Y-106641705D01*
X144305000Y-106632955D01*
X144305000Y-106441460D01*
X148017510Y-106441460D01*
X148035077Y-106552372D01*
X148086057Y-106652428D01*
X148165460Y-106731831D01*
X148165462Y-106731832D01*
X148265517Y-106782812D01*
X148376429Y-106800379D01*
X148487341Y-106782812D01*
X148587396Y-106731832D01*
X148666801Y-106652427D01*
X148717781Y-106552372D01*
X148720245Y-106536811D01*
X148725844Y-106527676D01*
X148731587Y-106525225D01*
X148853252Y-106503271D01*
X148863722Y-106505548D01*
X148869515Y-106514562D01*
X148867238Y-106525032D01*
X148865641Y-106526944D01*
X148865045Y-106527540D01*
X148842830Y-106560788D01*
X148837000Y-106590101D01*
X148837000Y-106909896D01*
X148837001Y-106909899D01*
X148842831Y-106939213D01*
X148865043Y-106972457D01*
X148888498Y-106988128D01*
X148888843Y-106988359D01*
X148894796Y-106997269D01*
X148892706Y-107007778D01*
X148888843Y-107011641D01*
X148865043Y-107027543D01*
X148842830Y-107060788D01*
X148837000Y-107090101D01*
X148837000Y-107409896D01*
X148841383Y-107431934D01*
X148842831Y-107439213D01*
X148865043Y-107472457D01*
X148888498Y-107488128D01*
X148888843Y-107488359D01*
X148894796Y-107497269D01*
X148892706Y-107507778D01*
X148888843Y-107511641D01*
X148865043Y-107527543D01*
X148842830Y-107560788D01*
X148837000Y-107590101D01*
X148837000Y-107909896D01*
X148841208Y-107931051D01*
X148842831Y-107939213D01*
X148865043Y-107972457D01*
X148888498Y-107988128D01*
X148888843Y-107988359D01*
X148894796Y-107997269D01*
X148892706Y-108007778D01*
X148888843Y-108011641D01*
X148865043Y-108027543D01*
X148842830Y-108060788D01*
X148837000Y-108090101D01*
X148837000Y-108409896D01*
X148841383Y-108431934D01*
X148842831Y-108439213D01*
X148865043Y-108472457D01*
X148898287Y-108494669D01*
X148927601Y-108500500D01*
X149923000Y-108500499D01*
X149932899Y-108504599D01*
X149937000Y-108514499D01*
X149937000Y-108556000D01*
X149932899Y-108565899D01*
X149923000Y-108570000D01*
X149455000Y-108570000D01*
X149455000Y-108753500D01*
X149450899Y-108763399D01*
X149441000Y-108767500D01*
X148907501Y-108767500D01*
X148907501Y-108902952D01*
X148909239Y-108911705D01*
X148915871Y-108921630D01*
X148925792Y-108928259D01*
X148927069Y-108928788D01*
X148926815Y-108929400D01*
X148933725Y-108934003D01*
X148935831Y-108944509D01*
X148929891Y-108953427D01*
X148922009Y-108955798D01*
X148714679Y-108954513D01*
X148708410Y-108952987D01*
X148609971Y-108902831D01*
X148609972Y-108902831D01*
X148499059Y-108885264D01*
X148388146Y-108902831D01*
X148288090Y-108953811D01*
X148208687Y-109033214D01*
X148157707Y-109133270D01*
X148140140Y-109244183D01*
X148157707Y-109355095D01*
X148208687Y-109455151D01*
X148288090Y-109534554D01*
X148288092Y-109534555D01*
X148388147Y-109585535D01*
X148499059Y-109603102D01*
X148609971Y-109585535D01*
X148703225Y-109538018D01*
X148709666Y-109536493D01*
X148832450Y-109537254D01*
X148842323Y-109541416D01*
X148846362Y-109551341D01*
X148844005Y-109559029D01*
X148842830Y-109560787D01*
X148837000Y-109590101D01*
X148837000Y-109909896D01*
X148837001Y-109909899D01*
X148842831Y-109939213D01*
X148865043Y-109972457D01*
X148888498Y-109988128D01*
X148888843Y-109988359D01*
X148894796Y-109997269D01*
X148892706Y-110007778D01*
X148888843Y-110011641D01*
X148865043Y-110027543D01*
X148842830Y-110060788D01*
X148837000Y-110090101D01*
X148837000Y-110409896D01*
X148837001Y-110409899D01*
X148842831Y-110439213D01*
X148865043Y-110472457D01*
X148898287Y-110494669D01*
X148927601Y-110500500D01*
X149947398Y-110500499D01*
X149976713Y-110494669D01*
X150009957Y-110472457D01*
X150032169Y-110439213D01*
X150038000Y-110409899D01*
X150037999Y-110090102D01*
X150032169Y-110060787D01*
X150009957Y-110027543D01*
X149986155Y-110011639D01*
X149980203Y-110002732D01*
X149982293Y-109992222D01*
X149986154Y-109988360D01*
X150009957Y-109972457D01*
X150032169Y-109939213D01*
X150038000Y-109909899D01*
X150037999Y-109590102D01*
X150032169Y-109560787D01*
X150009957Y-109527543D01*
X149986154Y-109511639D01*
X149980202Y-109502731D01*
X149982292Y-109492221D01*
X149986149Y-109488363D01*
X149998932Y-109479821D01*
X150005112Y-109477556D01*
X150064337Y-109470780D01*
X150179482Y-109432280D01*
X150284194Y-109370830D01*
X150373957Y-109289080D01*
X150444902Y-109190553D01*
X150493969Y-109079499D01*
X150519043Y-108960705D01*
X150519000Y-108900000D01*
X150519000Y-108848689D01*
X150519000Y-108848688D01*
X150519000Y-107600000D01*
X150519043Y-107539295D01*
X150493969Y-107420501D01*
X150444902Y-107309447D01*
X150373957Y-107210920D01*
X150284194Y-107129170D01*
X150284192Y-107129168D01*
X150284189Y-107129166D01*
X150179480Y-107067719D01*
X150179479Y-107067718D01*
X150064339Y-107029220D01*
X150064336Y-107029219D01*
X150005114Y-107022442D01*
X149998930Y-107020174D01*
X149986156Y-107011640D01*
X149980203Y-107002730D01*
X149982293Y-106992221D01*
X149986154Y-106988360D01*
X150009957Y-106972457D01*
X150032169Y-106939213D01*
X150038000Y-106909899D01*
X150037999Y-106590102D01*
X150032169Y-106560787D01*
X150009957Y-106527543D01*
X149986155Y-106511639D01*
X149980203Y-106502732D01*
X149982293Y-106492222D01*
X149986154Y-106488360D01*
X150009957Y-106472457D01*
X150032169Y-106439213D01*
X150038000Y-106409899D01*
X150037999Y-106090102D01*
X150032169Y-106060787D01*
X150009957Y-106027543D01*
X149986155Y-106011639D01*
X149980203Y-106002732D01*
X149982293Y-105992222D01*
X149986154Y-105988360D01*
X150009957Y-105972457D01*
X150032169Y-105939213D01*
X150038000Y-105909899D01*
X150037999Y-105590102D01*
X150032169Y-105560787D01*
X150009957Y-105527543D01*
X149976713Y-105505331D01*
X149976712Y-105505330D01*
X149976711Y-105505330D01*
X149954676Y-105500947D01*
X149947399Y-105499500D01*
X149947398Y-105499500D01*
X148927603Y-105499500D01*
X148898287Y-105505331D01*
X148865041Y-105527544D01*
X148856240Y-105540716D01*
X148847331Y-105546669D01*
X148843265Y-105546874D01*
X148827628Y-105545376D01*
X148818165Y-105540350D01*
X148816489Y-105537796D01*
X148796977Y-105499501D01*
X148770357Y-105447254D01*
X148770356Y-105447252D01*
X148690953Y-105367849D01*
X148590897Y-105316869D01*
X148590898Y-105316869D01*
X148479985Y-105299302D01*
X148369072Y-105316869D01*
X148269016Y-105367849D01*
X148189613Y-105447252D01*
X148138633Y-105547308D01*
X148121066Y-105658221D01*
X148138633Y-105769133D01*
X148189613Y-105869189D01*
X148269016Y-105948592D01*
X148269018Y-105948593D01*
X148369073Y-105999573D01*
X148479985Y-106017140D01*
X148590897Y-105999573D01*
X148690952Y-105948593D01*
X148770357Y-105869188D01*
X148783989Y-105842430D01*
X148792136Y-105835471D01*
X148797798Y-105834850D01*
X148824336Y-105837394D01*
X148833799Y-105842420D01*
X148837000Y-105851330D01*
X148837000Y-105909896D01*
X148837001Y-105909899D01*
X148842831Y-105939213D01*
X148865043Y-105972457D01*
X148888498Y-105988128D01*
X148888843Y-105988359D01*
X148894796Y-105997269D01*
X148892706Y-106007778D01*
X148888843Y-106011641D01*
X148865043Y-106027543D01*
X148842830Y-106060788D01*
X148837000Y-106090101D01*
X148837000Y-106198803D01*
X148832899Y-106208702D01*
X148825486Y-106212581D01*
X148682041Y-106238464D01*
X148671571Y-106236186D01*
X148667081Y-106231041D01*
X148666801Y-106230493D01*
X148666801Y-106230492D01*
X148587397Y-106151088D01*
X148487341Y-106100108D01*
X148487342Y-106100108D01*
X148376429Y-106082541D01*
X148265516Y-106100108D01*
X148165460Y-106151088D01*
X148086057Y-106230491D01*
X148035077Y-106330547D01*
X148017510Y-106441460D01*
X144305000Y-106441460D01*
X144305000Y-106147500D01*
X143292500Y-106147500D01*
X143257500Y-106147500D01*
X142245001Y-106147500D01*
X142245000Y-106465851D01*
X142240899Y-106475751D01*
X142231000Y-106479851D01*
X142221100Y-106475750D01*
X142217838Y-106470619D01*
X142088203Y-106112500D01*
X142245000Y-106112500D01*
X143257500Y-106112500D01*
X143257500Y-105600000D01*
X143292500Y-105600000D01*
X143292500Y-106112500D01*
X144304999Y-106112500D01*
X144304999Y-105627047D01*
X144303260Y-105618294D01*
X144296628Y-105608369D01*
X144286706Y-105601740D01*
X144277956Y-105600000D01*
X143292500Y-105600000D01*
X143257500Y-105600000D01*
X142272047Y-105600000D01*
X142263294Y-105601739D01*
X142253369Y-105608371D01*
X142246740Y-105618292D01*
X142246740Y-105618294D01*
X142245000Y-105627044D01*
X142245000Y-106112500D01*
X142088203Y-106112500D01*
X141782324Y-105267500D01*
X148907501Y-105267500D01*
X148907501Y-105402952D01*
X148909239Y-105411705D01*
X148915871Y-105421630D01*
X148925793Y-105428259D01*
X148934544Y-105429999D01*
X149420000Y-105429999D01*
X149420000Y-105267500D01*
X149455000Y-105267500D01*
X149455000Y-105429999D01*
X149940452Y-105429999D01*
X149949205Y-105428260D01*
X149959130Y-105421628D01*
X149965759Y-105411707D01*
X149965759Y-105411705D01*
X149967500Y-105402955D01*
X149967500Y-105267500D01*
X149455000Y-105267500D01*
X149420000Y-105267500D01*
X148907501Y-105267500D01*
X141782324Y-105267500D01*
X141769654Y-105232500D01*
X148907500Y-105232500D01*
X149420000Y-105232500D01*
X149420000Y-105070000D01*
X149455000Y-105070000D01*
X149455000Y-105232500D01*
X149967499Y-105232500D01*
X149967499Y-105097047D01*
X149965760Y-105088294D01*
X149959128Y-105078369D01*
X149949206Y-105071740D01*
X149940456Y-105070000D01*
X149455000Y-105070000D01*
X149420000Y-105070000D01*
X148934547Y-105070000D01*
X148925794Y-105071739D01*
X148915869Y-105078371D01*
X148909240Y-105088292D01*
X148909240Y-105088294D01*
X148907500Y-105097044D01*
X148907500Y-105232500D01*
X141769654Y-105232500D01*
X141483685Y-104442500D01*
X149706501Y-104442500D01*
X149706501Y-104677952D01*
X149708239Y-104686705D01*
X149714871Y-104696630D01*
X149724793Y-104703259D01*
X149733544Y-104704999D01*
X150319000Y-104704999D01*
X150319000Y-104442500D01*
X149706501Y-104442500D01*
X141483685Y-104442500D01*
X141471015Y-104407500D01*
X149706500Y-104407500D01*
X150319000Y-104407500D01*
X150319000Y-104145000D01*
X149733547Y-104145000D01*
X149724794Y-104146739D01*
X149714869Y-104153371D01*
X149708240Y-104163292D01*
X149708240Y-104163294D01*
X149706500Y-104172044D01*
X149706500Y-104407500D01*
X141471015Y-104407500D01*
X140527666Y-101801473D01*
X140528152Y-101790772D01*
X140530928Y-101786814D01*
X140568151Y-101749593D01*
X140619131Y-101649538D01*
X140636698Y-101538626D01*
X140619131Y-101427714D01*
X140568151Y-101327659D01*
X140568150Y-101327657D01*
X140488747Y-101248254D01*
X140388691Y-101197274D01*
X140388692Y-101197274D01*
X140277779Y-101179707D01*
X140166866Y-101197274D01*
X140066810Y-101248254D01*
X139987407Y-101327657D01*
X139936427Y-101427713D01*
X139918860Y-101538626D01*
X139936427Y-101649538D01*
X139987407Y-101749594D01*
X140066810Y-101828997D01*
X140066812Y-101828998D01*
X140166867Y-101879978D01*
X140243292Y-101892082D01*
X140252428Y-101897681D01*
X140254266Y-101901145D01*
X141015856Y-104005058D01*
X141015370Y-104015762D01*
X141007457Y-104022987D01*
X140996753Y-104022501D01*
X140993867Y-104020691D01*
X140921556Y-103961912D01*
X140921554Y-103961911D01*
X140921552Y-103961909D01*
X140904059Y-103952081D01*
X140897229Y-103948243D01*
X140897000Y-103948094D01*
X140877283Y-103937038D01*
X140877280Y-103937038D01*
X140849824Y-103921639D01*
X140849782Y-103921620D01*
X140525749Y-103739943D01*
X140519120Y-103731525D01*
X140518768Y-103725545D01*
X140522252Y-103703554D01*
X140504685Y-103592642D01*
X140453705Y-103492587D01*
X140453704Y-103492585D01*
X140374301Y-103413182D01*
X140274245Y-103362202D01*
X140274246Y-103362202D01*
X140163333Y-103344635D01*
X140052420Y-103362202D01*
X139952364Y-103413182D01*
X139872961Y-103492585D01*
X139821981Y-103592641D01*
X139804414Y-103703554D01*
X139821981Y-103814466D01*
X139872961Y-103914522D01*
X139952364Y-103993925D01*
X139952366Y-103993926D01*
X140052421Y-104044906D01*
X140163333Y-104062473D01*
X140274245Y-104044906D01*
X140372561Y-103994811D01*
X140383242Y-103993971D01*
X140385764Y-103995074D01*
X140496510Y-104057167D01*
X140503138Y-104065584D01*
X140501874Y-104076225D01*
X140496018Y-104081852D01*
X140397864Y-104131863D01*
X140318461Y-104211266D01*
X140267481Y-104311322D01*
X140249914Y-104422235D01*
X140267481Y-104533147D01*
X140318461Y-104633203D01*
X140397864Y-104712606D01*
X140397866Y-104712607D01*
X140497921Y-104763587D01*
X140608833Y-104781154D01*
X140611431Y-104780742D01*
X140621849Y-104783241D01*
X140626195Y-104788410D01*
X140674314Y-104886634D01*
X141658259Y-106895150D01*
X141658260Y-106895152D01*
X141660935Y-106900612D01*
X141681454Y-106942498D01*
X141681532Y-106942635D01*
X141688638Y-106957121D01*
X141700370Y-106981042D01*
X141700378Y-106981056D01*
X141775099Y-107081142D01*
X141775100Y-107081142D01*
X141775103Y-107081146D01*
X141867033Y-107165717D01*
X141973002Y-107231853D01*
X141973004Y-107231854D01*
X141973006Y-107231855D01*
X142012836Y-107247425D01*
X142012967Y-107247486D01*
X142013322Y-107247624D01*
X142013327Y-107247628D01*
X142046290Y-107260496D01*
X142062107Y-107266671D01*
X142062107Y-107266670D01*
X142068986Y-107269356D01*
X142068991Y-107269357D01*
X142760467Y-107539295D01*
X143946913Y-108002459D01*
X143954644Y-108009878D01*
X143954863Y-108020591D01*
X143947444Y-108028322D01*
X143941822Y-108029500D01*
X142539193Y-108029500D01*
X142532132Y-108027589D01*
X142532053Y-108027543D01*
X133325221Y-102649839D01*
X133318742Y-102641306D01*
X133318455Y-102635561D01*
X133322923Y-102607356D01*
X133305356Y-102496444D01*
X133254376Y-102396389D01*
X133254375Y-102396387D01*
X133174972Y-102316984D01*
X133151128Y-102304835D01*
X133144169Y-102296687D01*
X133145010Y-102286005D01*
X133153158Y-102279046D01*
X133153593Y-102278913D01*
X140653488Y-100129511D01*
X140653492Y-100129511D01*
X140657155Y-100128460D01*
X140657156Y-100128461D01*
X140668000Y-100125352D01*
X140695398Y-100117500D01*
X140744881Y-100103324D01*
X140854013Y-100063735D01*
X140960161Y-100016727D01*
X141011490Y-99989622D01*
X141040857Y-99974117D01*
X141040857Y-99974116D01*
X141044297Y-99972300D01*
X141044298Y-99972299D01*
X142222109Y-99350439D01*
X142446209Y-99232119D01*
X142452746Y-99230499D01*
X144191345Y-99230499D01*
X144201244Y-99234600D01*
X144205345Y-99244499D01*
X144203435Y-99251558D01*
X144133018Y-99372145D01*
X143461225Y-100522560D01*
X143452692Y-100529041D01*
X143449135Y-100529500D01*
X142265103Y-100529500D01*
X142235787Y-100535331D01*
X142202543Y-100557543D01*
X142180330Y-100590788D01*
X142174500Y-100620101D01*
X142174500Y-101639896D01*
X142176418Y-101649538D01*
X142180331Y-101669213D01*
X142202543Y-101702457D01*
X142235787Y-101724669D01*
X142265101Y-101730500D01*
X144191344Y-101730499D01*
X144201243Y-101734599D01*
X144205344Y-101744499D01*
X144203434Y-101751559D01*
X143461225Y-103022560D01*
X143452692Y-103029041D01*
X143449135Y-103029500D01*
X142265103Y-103029500D01*
X142235787Y-103035331D01*
X142202543Y-103057543D01*
X142180330Y-103090788D01*
X142174500Y-103120101D01*
X142174500Y-104139896D01*
X142176232Y-104148604D01*
X142180331Y-104169213D01*
X142202543Y-104202457D01*
X142235787Y-104224669D01*
X142265101Y-104230500D01*
X144284898Y-104230499D01*
X144314213Y-104224669D01*
X144347457Y-104202457D01*
X144369669Y-104169213D01*
X144375500Y-104139899D01*
X144375499Y-103120102D01*
X144369669Y-103090787D01*
X144347457Y-103057543D01*
X144314213Y-103035331D01*
X144314212Y-103035330D01*
X144314211Y-103035330D01*
X144284899Y-103029500D01*
X143818545Y-103029500D01*
X143808646Y-103025399D01*
X143804545Y-103015500D01*
X143806455Y-103008440D01*
X143816039Y-102992028D01*
X144535520Y-101759949D01*
X144535521Y-101759944D01*
X144535953Y-101759205D01*
X144536032Y-101759045D01*
X144536916Y-101757531D01*
X144553105Y-101716731D01*
X144562979Y-101673961D01*
X144563112Y-101672220D01*
X144563137Y-101672050D01*
X144563203Y-101671181D01*
X144563204Y-101671179D01*
X144564660Y-101652078D01*
X144567184Y-101618965D01*
X144567183Y-101618964D01*
X144654613Y-100471884D01*
X144755329Y-99150525D01*
X144755370Y-99150132D01*
X144755500Y-99149156D01*
X144755500Y-99148543D01*
X144755519Y-99148030D01*
X144755566Y-99147417D01*
X144755564Y-99147410D01*
X144755510Y-99146402D01*
X144755500Y-99146020D01*
X144755500Y-98066744D01*
X144755500Y-98066741D01*
X144722755Y-97944534D01*
X144671881Y-97856417D01*
X144659497Y-97834967D01*
X144659495Y-97834964D01*
X144570035Y-97745504D01*
X144570032Y-97745502D01*
X144460470Y-97682247D01*
X144460468Y-97682246D01*
X144460466Y-97682245D01*
X144338259Y-97649500D01*
X144294156Y-97649500D01*
X142255844Y-97649500D01*
X142255600Y-97649500D01*
X142255167Y-97649528D01*
X142215952Y-97649585D01*
X142101382Y-97678180D01*
X142101375Y-97678183D01*
X141997141Y-97733669D01*
X141997132Y-97733675D01*
X141909438Y-97812747D01*
X141909433Y-97812754D01*
X141887484Y-97845258D01*
X141887212Y-97845611D01*
X141346286Y-98649205D01*
X141337356Y-98655127D01*
X141326854Y-98653001D01*
X141320932Y-98644071D01*
X141320815Y-98639394D01*
X141333267Y-98552793D01*
X141323231Y-98342098D01*
X141316008Y-98312326D01*
X141273501Y-98137111D01*
X141273501Y-98137110D01*
X141185876Y-97945238D01*
X141063522Y-97773416D01*
X140910862Y-97627855D01*
X140733413Y-97513816D01*
X140723441Y-97509824D01*
X140537589Y-97435420D01*
X140330467Y-97395500D01*
X140172387Y-97395500D01*
X140034691Y-97408648D01*
X140015020Y-97410527D01*
X140015015Y-97410528D01*
X139812636Y-97469951D01*
X139812632Y-97469953D01*
X139625145Y-97566609D01*
X139459337Y-97697003D01*
X139459335Y-97697005D01*
X139321208Y-97856412D01*
X139321204Y-97856417D01*
X139215743Y-98039082D01*
X139215740Y-98039089D01*
X139146751Y-98238420D01*
X139136126Y-98312326D01*
X139116733Y-98447207D01*
X139116733Y-98447211D01*
X139116733Y-98447213D01*
X139126769Y-98657903D01*
X139126770Y-98657911D01*
X139176498Y-98862888D01*
X139176499Y-98862890D01*
X139264124Y-99054762D01*
X139386478Y-99226584D01*
X139539138Y-99372145D01*
X139716587Y-99486184D01*
X139800109Y-99519621D01*
X139807776Y-99527107D01*
X139807903Y-99537821D01*
X139800417Y-99545488D01*
X139795899Y-99546583D01*
X138393333Y-99646348D01*
X138383168Y-99642960D01*
X138379866Y-99638739D01*
X138362225Y-99604115D01*
X138282822Y-99524712D01*
X138182766Y-99473732D01*
X138182767Y-99473732D01*
X138071854Y-99456165D01*
X137960941Y-99473732D01*
X137860885Y-99524712D01*
X137781482Y-99604115D01*
X137730502Y-99704171D01*
X137712935Y-99815084D01*
X137730502Y-99925996D01*
X137781482Y-100026052D01*
X137860885Y-100105455D01*
X137860887Y-100105456D01*
X137960942Y-100156436D01*
X138071854Y-100174003D01*
X138182766Y-100156436D01*
X138282821Y-100105456D01*
X138362226Y-100026051D01*
X138403971Y-99944117D01*
X138412119Y-99937159D01*
X138415445Y-99936510D01*
X139832074Y-99835744D01*
X139842239Y-99839132D01*
X139847032Y-99848716D01*
X139843644Y-99858881D01*
X139836924Y-99863167D01*
X132740473Y-101896945D01*
X132740234Y-101897049D01*
X132739394Y-101897350D01*
X132687571Y-101912270D01*
X132687562Y-101912274D01*
X132555712Y-101980567D01*
X132555711Y-101980567D01*
X132439940Y-102073565D01*
X132439937Y-102073568D01*
X132344821Y-102187596D01*
X132274101Y-102318165D01*
X132274100Y-102318167D01*
X132230563Y-102460132D01*
X132230563Y-102460134D01*
X132215979Y-102607356D01*
X132215924Y-102607910D01*
X124700500Y-102607910D01*
X124700500Y-97390183D01*
X148641691Y-97390183D01*
X148651838Y-97629034D01*
X148651838Y-97629040D01*
X148651839Y-97629042D01*
X148666485Y-97697000D01*
X148702209Y-97862762D01*
X148791348Y-98084593D01*
X148791350Y-98084596D01*
X148916695Y-98288171D01*
X148916706Y-98288186D01*
X148998636Y-98381276D01*
X149074658Y-98467653D01*
X149260672Y-98617849D01*
X149469393Y-98734448D01*
X149694817Y-98814095D01*
X149930459Y-98854500D01*
X149930462Y-98854500D01*
X150109657Y-98854500D01*
X150109664Y-98854500D01*
X150288220Y-98839303D01*
X150519587Y-98779059D01*
X150737444Y-98680581D01*
X150935525Y-98546702D01*
X151108131Y-98381273D01*
X151250297Y-98189052D01*
X151357932Y-97975570D01*
X151427940Y-97746969D01*
X151458308Y-97509824D01*
X151456614Y-97469953D01*
X151450595Y-97328259D01*
X151448161Y-97270958D01*
X151397792Y-97037243D01*
X151397790Y-97037237D01*
X151308651Y-96815406D01*
X151308649Y-96815403D01*
X151183304Y-96611828D01*
X151183293Y-96611813D01*
X151025343Y-96432348D01*
X151025342Y-96432347D01*
X150839328Y-96282151D01*
X150630607Y-96165552D01*
X150504345Y-96120941D01*
X150405184Y-96085905D01*
X150346272Y-96075803D01*
X150169541Y-96045500D01*
X149990336Y-96045500D01*
X149990333Y-96045500D01*
X149811779Y-96060697D01*
X149811774Y-96060698D01*
X149580412Y-96120941D01*
X149580410Y-96120942D01*
X149362561Y-96219416D01*
X149362553Y-96219421D01*
X149164470Y-96353301D01*
X148991872Y-96518723D01*
X148991869Y-96518726D01*
X148849704Y-96710944D01*
X148742069Y-96924426D01*
X148742066Y-96924433D01*
X148672060Y-97153027D01*
X148672060Y-97153028D01*
X148641691Y-97390183D01*
X124700500Y-97390183D01*
X124700500Y-96567500D01*
X139795001Y-96567500D01*
X139795001Y-97302952D01*
X139796739Y-97311705D01*
X139803371Y-97321630D01*
X139813293Y-97328259D01*
X139822044Y-97329999D01*
X141207500Y-97329999D01*
X141207500Y-96567500D01*
X141242500Y-96567500D01*
X141242500Y-97329999D01*
X142627952Y-97329999D01*
X142636705Y-97328260D01*
X142646630Y-97321628D01*
X142653259Y-97311707D01*
X142653259Y-97311705D01*
X142655000Y-97302955D01*
X142655000Y-96567500D01*
X141242500Y-96567500D01*
X141207500Y-96567500D01*
X139795001Y-96567500D01*
X124700500Y-96567500D01*
X124700500Y-96532500D01*
X139795000Y-96532500D01*
X141207500Y-96532500D01*
X141207500Y-95770000D01*
X141242500Y-95770000D01*
X141242500Y-96532500D01*
X142654999Y-96532500D01*
X142654999Y-95797047D01*
X142653260Y-95788294D01*
X142646628Y-95778369D01*
X142636706Y-95771740D01*
X142627956Y-95770000D01*
X141242500Y-95770000D01*
X141207500Y-95770000D01*
X139822047Y-95770000D01*
X139813294Y-95771739D01*
X139803369Y-95778371D01*
X139796740Y-95788292D01*
X139796740Y-95788294D01*
X139795000Y-95797044D01*
X139795000Y-96532500D01*
X124700500Y-96532500D01*
X124700500Y-95102952D01*
X125295000Y-95102952D01*
X125296739Y-95111705D01*
X125303371Y-95121630D01*
X125313293Y-95128259D01*
X125322044Y-95129999D01*
X126707500Y-95129999D01*
X126707500Y-94367500D01*
X126742500Y-94367500D01*
X126742500Y-95129999D01*
X128127952Y-95129999D01*
X128136705Y-95128260D01*
X128146630Y-95121628D01*
X128153259Y-95111707D01*
X128153259Y-95111705D01*
X128155000Y-95102955D01*
X128155000Y-94367500D01*
X126742500Y-94367500D01*
X126707500Y-94367500D01*
X125295001Y-94367500D01*
X125295000Y-95102952D01*
X124700500Y-95102952D01*
X124700500Y-94332500D01*
X125295000Y-94332500D01*
X126707500Y-94332500D01*
X126707500Y-93570000D01*
X126742500Y-93570000D01*
X126742500Y-94332500D01*
X128154999Y-94332500D01*
X128154999Y-93597047D01*
X128153260Y-93588294D01*
X128146628Y-93578369D01*
X128136706Y-93571740D01*
X128127956Y-93570000D01*
X126742500Y-93570000D01*
X126707500Y-93570000D01*
X125322047Y-93570000D01*
X125313294Y-93571739D01*
X125303369Y-93578371D01*
X125296740Y-93588292D01*
X125296740Y-93588294D01*
X125295000Y-93597044D01*
X125295000Y-94332500D01*
X124700500Y-94332500D01*
X124700500Y-93214500D01*
X124704601Y-93204601D01*
X124714500Y-93200500D01*
X149285500Y-93200500D01*
X149295399Y-93204601D01*
G37*
%TD.AperFunction*%
%TD*%
M02*
