%TF.GenerationSoftware,KiCad,Pcbnew,7.0.5*%
%TF.CreationDate,2023-06-23T15:18:34+05:00*%
%TF.ProjectId,jitx-design,6a697478-2d64-4657-9369-676e2e6b6963,rev?*%
%TF.SameCoordinates,Original*%
%TF.FileFunction,Legend,Bot*%
%TF.FilePolarity,Positive*%
%FSLAX46Y46*%
G04 Gerber Fmt 4.6, Leading zero omitted, Abs format (unit mm)*
G04 Created by KiCad (PCBNEW 7.0.5) date 2023-06-23 15:18:34*
%MOMM*%
%LPD*%
G01*
G04 APERTURE LIST*
G04 Aperture macros list*
%AMRoundRect*
0 Rectangle with rounded corners*
0 $1 Rounding radius*
0 $2 $3 $4 $5 $6 $7 $8 $9 X,Y pos of 4 corners*
0 Add a 4 corners polygon primitive as box body*
4,1,4,$2,$3,$4,$5,$6,$7,$8,$9,$2,$3,0*
0 Add four circle primitives for the rounded corners*
1,1,$1+$1,$2,$3*
1,1,$1+$1,$4,$5*
1,1,$1+$1,$6,$7*
1,1,$1+$1,$8,$9*
0 Add four rect primitives between the rounded corners*
20,1,$1+$1,$2,$3,$4,$5,0*
20,1,$1+$1,$4,$5,$6,$7,0*
20,1,$1+$1,$6,$7,$8,$9,0*
20,1,$1+$1,$8,$9,$2,$3,0*%
G04 Aperture macros list end*
%ADD10C,0.100000*%
%ADD11C,0.254000*%
%ADD12C,3.700000*%
%ADD13C,2.402000*%
%ADD14C,1.640000*%
%ADD15RoundRect,0.050000X0.500000X-0.150000X0.500000X0.150000X-0.500000X0.150000X-0.500000X-0.150000X0*%
%ADD16RoundRect,0.050000X0.600000X-0.250000X0.600000X0.250000X-0.600000X0.250000X-0.600000X-0.250000X0*%
%ADD17RoundRect,0.050000X1.050000X-0.650000X1.050000X0.650000X-1.050000X0.650000X-1.050000X-0.650000X0*%
%ADD18RoundRect,0.051000X-1.400000X0.750000X-1.400000X-0.750000X1.400000X-0.750000X1.400000X0.750000X0*%
%ADD19RoundRect,0.051000X-1.000000X0.350000X-1.000000X-0.350000X1.000000X-0.350000X1.000000X0.350000X0*%
%ADD20RoundRect,0.051000X-1.000000X0.500000X-1.000000X-0.500000X1.000000X-0.500000X1.000000X0.500000X0*%
%ADD21C,1.802000*%
%ADD22C,1.302000*%
G04 APERTURE END LIST*
D10*
%TO.C,USB1*%
X146539319Y-106803884D02*
X147348842Y-106803884D01*
X147348842Y-106803884D02*
X147444080Y-106851503D01*
X147444080Y-106851503D02*
X147491700Y-106899122D01*
X147491700Y-106899122D02*
X147539319Y-106994360D01*
X147539319Y-106994360D02*
X147539319Y-107184836D01*
X147539319Y-107184836D02*
X147491700Y-107280074D01*
X147491700Y-107280074D02*
X147444080Y-107327693D01*
X147444080Y-107327693D02*
X147348842Y-107375312D01*
X147348842Y-107375312D02*
X146539319Y-107375312D01*
X147491700Y-107803884D02*
X147539319Y-107946741D01*
X147539319Y-107946741D02*
X147539319Y-108184836D01*
X147539319Y-108184836D02*
X147491700Y-108280074D01*
X147491700Y-108280074D02*
X147444080Y-108327693D01*
X147444080Y-108327693D02*
X147348842Y-108375312D01*
X147348842Y-108375312D02*
X147253604Y-108375312D01*
X147253604Y-108375312D02*
X147158366Y-108327693D01*
X147158366Y-108327693D02*
X147110747Y-108280074D01*
X147110747Y-108280074D02*
X147063128Y-108184836D01*
X147063128Y-108184836D02*
X147015509Y-107994360D01*
X147015509Y-107994360D02*
X146967890Y-107899122D01*
X146967890Y-107899122D02*
X146920271Y-107851503D01*
X146920271Y-107851503D02*
X146825033Y-107803884D01*
X146825033Y-107803884D02*
X146729795Y-107803884D01*
X146729795Y-107803884D02*
X146634557Y-107851503D01*
X146634557Y-107851503D02*
X146586938Y-107899122D01*
X146586938Y-107899122D02*
X146539319Y-107994360D01*
X146539319Y-107994360D02*
X146539319Y-108232455D01*
X146539319Y-108232455D02*
X146586938Y-108375312D01*
X147015509Y-109137217D02*
X147063128Y-109280074D01*
X147063128Y-109280074D02*
X147110747Y-109327693D01*
X147110747Y-109327693D02*
X147205985Y-109375312D01*
X147205985Y-109375312D02*
X147348842Y-109375312D01*
X147348842Y-109375312D02*
X147444080Y-109327693D01*
X147444080Y-109327693D02*
X147491700Y-109280074D01*
X147491700Y-109280074D02*
X147539319Y-109184836D01*
X147539319Y-109184836D02*
X147539319Y-108803884D01*
X147539319Y-108803884D02*
X146539319Y-108803884D01*
X146539319Y-108803884D02*
X146539319Y-109137217D01*
X146539319Y-109137217D02*
X146586938Y-109232455D01*
X146586938Y-109232455D02*
X146634557Y-109280074D01*
X146634557Y-109280074D02*
X146729795Y-109327693D01*
X146729795Y-109327693D02*
X146825033Y-109327693D01*
X146825033Y-109327693D02*
X146920271Y-109280074D01*
X146920271Y-109280074D02*
X146967890Y-109232455D01*
X146967890Y-109232455D02*
X147015509Y-109137217D01*
X147015509Y-109137217D02*
X147015509Y-108803884D01*
X147539319Y-110327693D02*
X147539319Y-109756265D01*
X147539319Y-110041979D02*
X146539319Y-110041979D01*
X146539319Y-110041979D02*
X146682176Y-109946741D01*
X146682176Y-109946741D02*
X146777414Y-109851503D01*
X146777414Y-109851503D02*
X146825033Y-109756265D01*
%TO.C,Card1*%
X145342780Y-105862781D02*
X145390400Y-105815162D01*
X145390400Y-105815162D02*
X145438019Y-105672305D01*
X145438019Y-105672305D02*
X145438019Y-105577067D01*
X145438019Y-105577067D02*
X145390400Y-105434210D01*
X145390400Y-105434210D02*
X145295161Y-105338972D01*
X145295161Y-105338972D02*
X145199923Y-105291353D01*
X145199923Y-105291353D02*
X145009447Y-105243734D01*
X145009447Y-105243734D02*
X144866590Y-105243734D01*
X144866590Y-105243734D02*
X144676114Y-105291353D01*
X144676114Y-105291353D02*
X144580876Y-105338972D01*
X144580876Y-105338972D02*
X144485638Y-105434210D01*
X144485638Y-105434210D02*
X144438019Y-105577067D01*
X144438019Y-105577067D02*
X144438019Y-105672305D01*
X144438019Y-105672305D02*
X144485638Y-105815162D01*
X144485638Y-105815162D02*
X144533257Y-105862781D01*
X145438019Y-106719924D02*
X144914209Y-106719924D01*
X144914209Y-106719924D02*
X144818971Y-106672305D01*
X144818971Y-106672305D02*
X144771352Y-106577067D01*
X144771352Y-106577067D02*
X144771352Y-106386591D01*
X144771352Y-106386591D02*
X144818971Y-106291353D01*
X145390400Y-106719924D02*
X145438019Y-106624686D01*
X145438019Y-106624686D02*
X145438019Y-106386591D01*
X145438019Y-106386591D02*
X145390400Y-106291353D01*
X145390400Y-106291353D02*
X145295161Y-106243734D01*
X145295161Y-106243734D02*
X145199923Y-106243734D01*
X145199923Y-106243734D02*
X145104685Y-106291353D01*
X145104685Y-106291353D02*
X145057066Y-106386591D01*
X145057066Y-106386591D02*
X145057066Y-106624686D01*
X145057066Y-106624686D02*
X145009447Y-106719924D01*
X145438019Y-107196115D02*
X144771352Y-107196115D01*
X144961828Y-107196115D02*
X144866590Y-107243734D01*
X144866590Y-107243734D02*
X144818971Y-107291353D01*
X144818971Y-107291353D02*
X144771352Y-107386591D01*
X144771352Y-107386591D02*
X144771352Y-107481829D01*
X145438019Y-108243734D02*
X144438019Y-108243734D01*
X145390400Y-108243734D02*
X145438019Y-108148496D01*
X145438019Y-108148496D02*
X145438019Y-107958020D01*
X145438019Y-107958020D02*
X145390400Y-107862782D01*
X145390400Y-107862782D02*
X145342780Y-107815163D01*
X145342780Y-107815163D02*
X145247542Y-107767544D01*
X145247542Y-107767544D02*
X144961828Y-107767544D01*
X144961828Y-107767544D02*
X144866590Y-107815163D01*
X144866590Y-107815163D02*
X144818971Y-107862782D01*
X144818971Y-107862782D02*
X144771352Y-107958020D01*
X144771352Y-107958020D02*
X144771352Y-108148496D01*
X144771352Y-108148496D02*
X144818971Y-108243734D01*
X145438019Y-109243734D02*
X145438019Y-108672306D01*
X145438019Y-108958020D02*
X144438019Y-108958020D01*
X144438019Y-108958020D02*
X144580876Y-108862782D01*
X144580876Y-108862782D02*
X144676114Y-108767544D01*
X144676114Y-108767544D02*
X144723733Y-108672306D01*
D11*
%TO.C,USB1*%
X162187500Y-111000000D02*
X151687500Y-111000000D01*
X162387500Y-105061000D02*
X151687500Y-105061000D01*
X162387500Y-103850000D02*
X151168500Y-103850000D01*
X162387500Y-112150000D02*
X151168500Y-112150000D01*
X148787500Y-111075000D02*
X148787500Y-111824000D01*
X148787500Y-104176000D02*
X148787500Y-104925000D01*
X162387500Y-103850000D02*
X162387500Y-112150000D01*
%TO.C,Card1*%
X128357000Y-94800000D02*
X135225000Y-94800000D01*
X135225000Y-94800000D02*
X137425000Y-97000000D01*
X137425000Y-97000000D02*
X139594000Y-97000000D01*
X142225000Y-97904000D02*
X142225000Y-97531000D01*
X142225000Y-100404000D02*
X142225000Y-99355000D01*
X142225000Y-102904000D02*
X142225000Y-101856000D01*
X142225000Y-105404000D02*
X142225000Y-104355000D01*
X142225000Y-107904000D02*
X142225000Y-106856000D01*
X142225000Y-110404000D02*
X142225000Y-109356000D01*
X142225000Y-112904000D02*
X142225000Y-111856000D01*
X142225000Y-115400000D02*
X142225000Y-114356000D01*
X128456000Y-121200000D02*
X139694000Y-121200000D01*
X125725000Y-95331000D02*
X125725000Y-120669000D01*
%TD*%
%LPC*%
D12*
%TO.C,U1*%
X150050000Y-97450000D03*
D13*
X150050000Y-97450000D03*
%TD*%
D14*
%TO.C,J2*%
X127956411Y-96246728D03*
%TD*%
D15*
%TO.C,USB1*%
X149437500Y-110750000D03*
X149437500Y-110250000D03*
X149437500Y-109750000D03*
X149437500Y-109250000D03*
X149437500Y-107250000D03*
X149437500Y-107750000D03*
X149437500Y-108250000D03*
X149437500Y-108750000D03*
X149437500Y-106750000D03*
X149437500Y-106250000D03*
X149437500Y-105750000D03*
X149437500Y-105250000D03*
D16*
X150336500Y-104425000D03*
X150336500Y-111575000D03*
D17*
X149887500Y-103300000D03*
X149887500Y-112700000D03*
%TD*%
D18*
%TO.C,Card1*%
X141225000Y-96550000D03*
X126725000Y-94350000D03*
X126825000Y-121650000D03*
X141325000Y-121650000D03*
D19*
X143275000Y-120260000D03*
X143275000Y-119060000D03*
D20*
X143275000Y-98630000D03*
X143275000Y-117760000D03*
X143275000Y-116060000D03*
X143275000Y-113630000D03*
X143275000Y-111130000D03*
X143275000Y-108630000D03*
X143275000Y-106130000D03*
X143275000Y-103630000D03*
X143275000Y-101130000D03*
D21*
X140225000Y-98500000D03*
D22*
X140275000Y-119500000D03*
%TD*%
D14*
%TO.C,J3*%
X131056577Y-98778237D03*
%TD*%
D12*
%TO.C,U2*%
X150050000Y-118550000D03*
D13*
X150050000Y-118550000D03*
%TD*%
D14*
%TO.C,J4*%
X130823239Y-96092553D03*
%TD*%
%TO.C,J1*%
X127748804Y-99107199D03*
%TD*%
%LPD*%
M02*
