%TF.GenerationSoftware,KiCad,Pcbnew,7.0.5*%
%TF.CreationDate,2023-06-27T10:39:10+05:00*%
%TF.ProjectId,jitx-design,6a697478-2d64-4657-9369-676e2e6b6963,rev?*%
%TF.SameCoordinates,Original*%
%TF.FileFunction,Copper,L1,Top*%
%TF.FilePolarity,Positive*%
%FSLAX46Y46*%
G04 Gerber Fmt 4.6, Leading zero omitted, Abs format (unit mm)*
G04 Created by KiCad (PCBNEW 7.0.5) date 2023-06-27 10:39:10*
%MOMM*%
%LPD*%
G01*
G04 APERTURE LIST*
%TA.AperFunction,SMDPad,CuDef*%
%ADD10R,0.417778X0.600000*%
%TD*%
%TA.AperFunction,SMDPad,CuDef*%
%ADD11R,0.600000X0.417778*%
%TD*%
%TA.AperFunction,SMDPad,CuDef*%
%ADD12R,0.600000X0.372778*%
%TD*%
%TA.AperFunction,SMDPad,CuDef*%
%ADD13R,0.380278X0.600000*%
%TD*%
%TA.AperFunction,SMDPad,CuDef*%
%ADD14R,0.600000X0.380278*%
%TD*%
%TA.AperFunction,SMDPad,CuDef*%
%ADD15C,2.000000*%
%TD*%
%TA.AperFunction,SMDPad,CuDef*%
%ADD16R,0.367778X0.600000*%
%TD*%
%TA.AperFunction,SMDPad,CuDef*%
%ADD17O,0.588000X2.045000*%
%TD*%
%TA.AperFunction,SMDPad,CuDef*%
%ADD18R,0.600000X0.430278*%
%TD*%
%TA.AperFunction,SMDPad,CuDef*%
%ADD19R,0.512132X0.950000*%
%TD*%
%TA.AperFunction,SMDPad,CuDef*%
%ADD20R,0.566000X0.540000*%
%TD*%
%TA.AperFunction,SMDPad,CuDef*%
%ADD21R,1.064000X2.218000*%
%TD*%
%TA.AperFunction,SMDPad,CuDef*%
%ADD22R,5.554000X5.204000*%
%TD*%
%TA.AperFunction,SMDPad,CuDef*%
%ADD23R,1.200000X1.400000*%
%TD*%
%TA.AperFunction,SMDPad,CuDef*%
%ADD24R,0.890000X0.280000*%
%TD*%
%TA.AperFunction,SMDPad,CuDef*%
%ADD25R,0.280000X0.890000*%
%TD*%
%TA.AperFunction,SMDPad,CuDef*%
%ADD26R,4.100000X4.100000*%
%TD*%
%TA.AperFunction,ViaPad*%
%ADD27C,0.460000*%
%TD*%
%TA.AperFunction,Conductor*%
%ADD28C,0.381000*%
%TD*%
%TA.AperFunction,Conductor*%
%ADD29C,0.090000*%
%TD*%
G04 APERTURE END LIST*
D10*
%TO.P,C3,1,1*%
%TO.N,gnd*%
X143060672Y-110835572D03*
%TO.P,C3,2,2*%
%TO.N,vdd33*%
X142103450Y-110835572D03*
%TD*%
D11*
%TO.P,C1,1,1*%
%TO.N,Net-(USB1-GND2)*%
X148622184Y-114216203D03*
%TO.P,C1,2,2*%
%TO.N,gnd*%
X148622184Y-115173425D03*
%TD*%
%TO.P,C6,1,1*%
%TO.N,gnd*%
X137482233Y-108498823D03*
%TO.P,C6,2,2*%
%TO.N,Net-(U5-VDD18PLL)*%
X137482233Y-107541601D03*
%TD*%
D12*
%TO.P,R5,1,1*%
%TO.N,Net-(U5-RBIAS)*%
X138129245Y-109574220D03*
%TO.P,R5,2,2*%
%TO.N,gnd*%
X138129245Y-110486442D03*
%TD*%
D11*
%TO.P,C10,1,1*%
%TO.N,gnd*%
X138644942Y-108548873D03*
%TO.P,C10,2,2*%
%TO.N,vdd33*%
X138644942Y-107591651D03*
%TD*%
%TO.P,C5,1,1*%
%TO.N,gnd*%
X137089343Y-98689029D03*
%TO.P,C5,2,2*%
%TO.N,Net-(U5-VDD18)*%
X137089343Y-99646251D03*
%TD*%
D13*
%TO.P,R4,1,1*%
%TO.N,Net-(U4-WC_NOT)*%
X128202801Y-106729721D03*
%TO.P,R4,2,2*%
%TO.N,vdd33*%
X129122523Y-106729721D03*
%TD*%
D14*
%TO.P,R1,1,1*%
%TO.N,gnd*%
X148106609Y-101082516D03*
%TO.P,R1,2,2*%
%TO.N,Net-(USB1-GND0)*%
X148106609Y-102002238D03*
%TD*%
D10*
%TO.P,C8,1,1*%
%TO.N,gnd*%
X137486311Y-97138773D03*
%TO.P,C8,2,2*%
%TO.N,vdd33*%
X136529089Y-97138773D03*
%TD*%
D13*
%TO.P,R3,1,1*%
%TO.N,TXD_SCK_MS_SKT_SEL*%
X126883250Y-108885762D03*
%TO.P,R3,2,2*%
%TO.N,vdd33*%
X127802972Y-108885762D03*
%TD*%
D15*
%TO.P,U8,tp,p*%
%TO.N,RXD_SDA*%
X129640552Y-96501199D03*
%TD*%
%TO.P,U6,tp,p*%
%TO.N,vdd33*%
X126859670Y-98770685D03*
%TD*%
D10*
%TO.P,C12,1,1*%
%TO.N,Net-(U5-XTAL1_CLKIN)*%
X137573127Y-112571302D03*
%TO.P,C12,2,2*%
%TO.N,gnd*%
X138530349Y-112571302D03*
%TD*%
D16*
%TO.P,R6,1,1*%
%TO.N,Net-(U5-RESET_N)*%
X134502123Y-97122587D03*
%TO.P,R6,2,2*%
%TO.N,vdd33*%
X135409345Y-97122587D03*
%TD*%
D13*
%TO.P,R2,1,1*%
%TO.N,RXD_SDA*%
X125847533Y-110727391D03*
%TO.P,R2,2,2*%
%TO.N,vdd33*%
X126767255Y-110727391D03*
%TD*%
D17*
%TO.P,U4,1,NC*%
%TO.N,unconnected-(U4-NC-Pad1)*%
X126467171Y-121212230D03*
%TO.P,U4,2,E1*%
%TO.N,unconnected-(U4-E1-Pad2)*%
X127737171Y-121212230D03*
%TO.P,U4,3,E2*%
%TO.N,unconnected-(U4-E2-Pad3)*%
X129007171Y-121212230D03*
%TO.P,U4,4,VSS*%
%TO.N,gnd*%
X130277171Y-121212230D03*
%TO.P,U4,5,SDA*%
%TO.N,RXD_SDA*%
X130277171Y-115667230D03*
%TO.P,U4,6,SCL*%
%TO.N,TXD_SCK_MS_SKT_SEL*%
X129007171Y-115667230D03*
%TO.P,U4,7,WC_NOT*%
%TO.N,Net-(U4-WC_NOT)*%
X127737171Y-115667230D03*
%TO.P,U4,8,VCC*%
%TO.N,vdd33*%
X126467171Y-115667230D03*
%TD*%
D10*
%TO.P,C9,1,1*%
%TO.N,gnd*%
X130884467Y-103715096D03*
%TO.P,C9,2,2*%
%TO.N,vdd33*%
X131841689Y-103715096D03*
%TD*%
D18*
%TO.P,C11,1,1*%
%TO.N,gnd*%
X132381115Y-100722671D03*
%TO.P,C11,2,2*%
%TO.N,Net-(Card1-VDD)*%
X132381115Y-101692393D03*
%TD*%
D19*
%TO.P,LED1,1,a*%
%TO.N,Net-(LED1-a)*%
X143607724Y-106840352D03*
%TO.P,LED1,2,c*%
%TO.N,gnd*%
X145045592Y-106840352D03*
%TD*%
D10*
%TO.P,C7,1,1*%
%TO.N,gnd*%
X141652863Y-103134378D03*
%TO.P,C7,2,2*%
%TO.N,vdd33*%
X140695641Y-103134378D03*
%TD*%
D15*
%TO.P,U7,tp,p*%
%TO.N,gnd*%
X126853950Y-96515848D03*
%TD*%
D10*
%TO.P,C13,1,1*%
%TO.N,Net-(U5-XTAL2)*%
X134168661Y-108309522D03*
%TO.P,C13,2,2*%
%TO.N,gnd*%
X133211439Y-108309522D03*
%TD*%
D15*
%TO.P,U9,tp,p*%
%TO.N,TXD_SCK_MS_SKT_SEL*%
X129639143Y-98796163D03*
%TD*%
D10*
%TO.P,C2,1,1*%
%TO.N,gnd*%
X145699373Y-110839534D03*
%TO.P,C2,2,2*%
%TO.N,vdd50*%
X146656595Y-110839534D03*
%TD*%
D13*
%TO.P,R7,1,1*%
%TO.N,Net-(U5-XTAL1_CLKIN)*%
X134176631Y-114068215D03*
%TO.P,R7,2,2*%
%TO.N,Net-(U5-XTAL2)*%
X133256909Y-114068215D03*
%TD*%
D20*
%TO.P,R8,1,1*%
%TO.N,Net-(U5-LED)*%
X140693658Y-106840852D03*
%TO.P,R8,2,2*%
%TO.N,Net-(LED1-a)*%
X141559658Y-106840852D03*
%TD*%
D21*
%TO.P,U3,1,VCC*%
%TO.N,vdd50*%
X146659619Y-113037221D03*
D22*
%TO.P,U3,2,FIN*%
%TO.N,gnd*%
X144360619Y-119734221D03*
D21*
%TO.P,U3,3,VOUT*%
%TO.N,vdd33*%
X142060619Y-113037221D03*
%TD*%
D23*
%TO.P,X1,1,IN*%
%TO.N,Net-(U5-XTAL1_CLKIN)*%
X135973506Y-112346485D03*
%TO.P,X1,2,GND0*%
%TO.N,gnd*%
X135973506Y-110146485D03*
%TO.P,X1,3,OUT*%
%TO.N,Net-(U5-XTAL2)*%
X134273506Y-110146485D03*
%TO.P,X1,4,GND1*%
%TO.N,gnd*%
X134273506Y-112346485D03*
%TD*%
D24*
%TO.P,U5,1,LED*%
%TO.N,Net-(U5-LED)*%
X139405865Y-105604046D03*
%TO.P,U5,2,USB+*%
%TO.N,USB+*%
X139405865Y-105104046D03*
%TO.P,U5,3,USB-*%
%TO.N,USB-*%
X139405865Y-104604046D03*
%TO.P,U5,4,xD_D3_SD_D1_MS_D5*%
%TO.N,Net-(Card1-DAT1)*%
X139405865Y-104104046D03*
%TO.P,U5,5,xD_D2_SD_D0_MS_D4*%
%TO.N,Net-(Card1-DAT0)*%
X139405865Y-103604046D03*
%TO.P,U5,6,VDD330*%
%TO.N,vdd33*%
X139405865Y-103104046D03*
%TO.P,U5,7,xD_D1_SD_D7_MS_D6*%
%TO.N,unconnected-(U5-xD_D1_SD_D7_MS_D6-Pad7)*%
X139405865Y-102604046D03*
%TO.P,U5,8,xD_D0_SD_D6_MS_D7*%
%TO.N,unconnected-(U5-xD_D0_SD_D6_MS_D7-Pad8)*%
X139405865Y-102104046D03*
%TO.P,U5,9,xD_nWP_SD_CLK_MS_BS*%
%TO.N,Net-(Card1-CLK)*%
X139405865Y-101604046D03*
D25*
%TO.P,U5,10,xD_ALE_SD_D5_MS_D1*%
%TO.N,unconnected-(U5-xD_ALE_SD_D5_MS_D1-Pad10)*%
X138595865Y-100795046D03*
%TO.P,U5,11,xD_CLE_SD_CMD_MS_D0*%
%TO.N,Net-(Card1-CMD)*%
X138095865Y-100795046D03*
%TO.P,U5,12,xD_nWE*%
%TO.N,unconnected-(U5-xD_nWE-Pad12)*%
X137595865Y-100795046D03*
%TO.P,U5,13,VDD18*%
%TO.N,Net-(U5-VDD18)*%
X137095865Y-100795046D03*
%TO.P,U5,14,VDD331*%
%TO.N,vdd33*%
X136595865Y-100795046D03*
%TO.P,U5,15,xD_nCE*%
%TO.N,unconnected-(U5-xD_nCE-Pad15)*%
X136095865Y-100795046D03*
%TO.P,U5,16,xD_nRE*%
%TO.N,unconnected-(U5-xD_nRE-Pad16)*%
X135595865Y-100795046D03*
%TO.P,U5,17,xD_nB_R*%
%TO.N,unconnected-(U5-xD_nB_R-Pad17)*%
X135095865Y-100795046D03*
%TO.P,U5,18,RESET_N*%
%TO.N,Net-(U5-RESET_N)*%
X134595865Y-100795046D03*
D24*
%TO.P,U5,19,xD_nCD*%
%TO.N,unconnected-(U5-xD_nCD-Pad19)*%
X133785865Y-101604046D03*
%TO.P,U5,20,xD_D7_SD_D4_MS_D2*%
%TO.N,unconnected-(U5-xD_D7_SD_D4_MS_D2-Pad20)*%
X133785865Y-102104046D03*
%TO.P,U5,21,CRD_PWR*%
%TO.N,Net-(Card1-VDD)*%
X133785865Y-102604046D03*
%TO.P,U5,22,VDD332*%
%TO.N,vdd33*%
X133785865Y-103104046D03*
%TO.P,U5,23,xD_D6_SD_D3_MS_D3*%
%TO.N,Net-(Card1-CD_DAT3)*%
X133785865Y-103604046D03*
%TO.P,U5,24,MS_INS*%
%TO.N,unconnected-(U5-MS_INS-Pad24)*%
X133785865Y-104104046D03*
%TO.P,U5,25,xD_D5_SD_D2*%
%TO.N,Net-(Card1-DAT2)*%
X133785865Y-104604046D03*
%TO.P,U5,26,SD_nCD*%
%TO.N,Net-(Card1-CD)*%
X133785865Y-105104046D03*
%TO.P,U5,27,RXD_SDA*%
%TO.N,RXD_SDA*%
X133785865Y-105604046D03*
D25*
%TO.P,U5,28,TEST*%
%TO.N,gnd*%
X134595865Y-106414046D03*
%TO.P,U5,29,NC*%
%TO.N,unconnected-(U5-NC-Pad29)*%
X135095865Y-106414046D03*
%TO.P,U5,30,xD_D4_SD_WP_MS_SCLK*%
%TO.N,Net-(Card1-WP)*%
X135595865Y-106414046D03*
%TO.P,U5,31,TXD_SCK_MS_SKT_SEL*%
%TO.N,TXD_SCK_MS_SKT_SEL*%
X136095865Y-106414046D03*
%TO.P,U5,32,XTAL2*%
%TO.N,Net-(U5-XTAL2)*%
X136595865Y-106414046D03*
%TO.P,U5,33,XTAL1_CLKIN*%
%TO.N,Net-(U5-XTAL1_CLKIN)*%
X137095865Y-106414046D03*
%TO.P,U5,34,VDD18PLL*%
%TO.N,Net-(U5-VDD18PLL)*%
X137595865Y-106414046D03*
%TO.P,U5,35,RBIAS*%
%TO.N,Net-(U5-RBIAS)*%
X138095865Y-106414046D03*
%TO.P,U5,36,VDDA33*%
%TO.N,vdd33*%
X138595865Y-106414046D03*
D26*
%TO.P,U5,37,GND*%
%TO.N,gnd*%
X136595865Y-103604046D03*
%TD*%
D10*
%TO.P,C4,1,1*%
%TO.N,gnd*%
X135731734Y-99695657D03*
%TO.P,C4,2,2*%
%TO.N,Net-(U5-RESET_N)*%
X134774512Y-99695657D03*
%TD*%
D27*
%TO.N,Net-(Card1-DAT1)*%
X140608833Y-104422235D03*
%TO.N,USB-*%
X148479985Y-105658221D03*
%TO.N,Net-(Card1-DAT2)*%
X132875267Y-104504289D03*
%TO.N,vdd50*%
X148499059Y-109244183D03*
%TO.N,Net-(Card1-CD)*%
X132950211Y-105229456D03*
%TO.N,USB+*%
X148376429Y-106441460D03*
%TO.N,Net-(USB1-GND0)*%
X148074784Y-103313947D03*
%TO.N,Net-(Card1-WP)*%
X135623659Y-107175070D03*
%TO.N,Net-(USB1-GND2)*%
X147864967Y-112698484D03*
%TO.N,Net-(Card1-CMD)*%
X138071854Y-99815084D03*
%TO.N,Net-(Card1-CD_DAT3)*%
X132924651Y-103789389D03*
%TO.N,Net-(Card1-CLK)*%
X140277779Y-101538626D03*
%TO.N,gnd*%
X133223000Y-122047000D03*
X126238000Y-106934000D03*
X125095000Y-104013000D03*
X132334000Y-97028000D03*
X134874000Y-122047000D03*
X145862665Y-106835359D03*
X125095000Y-105537000D03*
X136398000Y-122047000D03*
X140716000Y-108077000D03*
X138176000Y-122047000D03*
X145288000Y-97282000D03*
X125095000Y-107061000D03*
X135128000Y-111252000D03*
X130556000Y-100203000D03*
X140081000Y-110617000D03*
X127889000Y-97663000D03*
X127254000Y-104394000D03*
X135382000Y-98298000D03*
X125095000Y-108585000D03*
X133731000Y-99060000D03*
%TO.N,Net-(Card1-VDD)*%
X132964004Y-102607356D03*
%TO.N,Net-(Card1-DAT0)*%
X140163333Y-103703554D03*
%TD*%
D28*
%TO.N,vdd33*%
X148585451Y-105113844D02*
X141388721Y-103719575D01*
X127267333Y-114578656D02*
X126467171Y-115667230D01*
X127802972Y-108885762D02*
X126767255Y-110727391D01*
X138644942Y-107591651D02*
X142103449Y-110835572D01*
X134888907Y-96614684D02*
X135409345Y-97122587D01*
X142103449Y-110835572D02*
X142653791Y-110322993D01*
X131841689Y-103715096D02*
X131790731Y-101915756D01*
X140695641Y-103134378D02*
X140830195Y-101586651D01*
X131832794Y-100356777D02*
X134069913Y-96671832D01*
X136498843Y-99855140D02*
X136498843Y-98480140D01*
X127425205Y-114439911D02*
X127320278Y-114523588D01*
X140695641Y-103134378D02*
X139405865Y-103104046D01*
X138644942Y-107591651D02*
X138595865Y-106414046D01*
X134366770Y-114658715D02*
X133066770Y-114658715D01*
X141245983Y-103646956D02*
X140695641Y-103134378D01*
X130277171Y-114346669D02*
X127737171Y-114346669D01*
X136595865Y-100795046D02*
X136500429Y-99885453D01*
X129122524Y-106729721D02*
X127802972Y-108885762D01*
X140663412Y-101140182D02*
X136529089Y-97138773D01*
X131790615Y-101907532D02*
X131790615Y-100507532D01*
X126859670Y-98770685D02*
X129122524Y-106729721D01*
X126467171Y-115667230D02*
X126767255Y-110727391D01*
X148926145Y-106514141D02*
X149029701Y-105730902D01*
X136498917Y-98473575D02*
X136529089Y-97138773D01*
X138833330Y-113146142D02*
X134460862Y-114643055D01*
X142708813Y-110282689D02*
X148649327Y-106924158D01*
X142103449Y-110835572D02*
X138907583Y-113108051D01*
X133034097Y-114656872D02*
X130309845Y-114348512D01*
X134318234Y-96532087D02*
X134686011Y-96532087D01*
X136529089Y-97138773D02*
X135409345Y-97122587D01*
X142060619Y-113037221D02*
X142103449Y-110835572D01*
X132674690Y-103294424D02*
X131841689Y-103715096D01*
X133785865Y-103104046D02*
X132844985Y-103240641D01*
X127672529Y-114353952D02*
X127541687Y-114383816D01*
X131790615Y-101907532D02*
G75*
G03*
X131790732Y-101915756I291585J32D01*
G01*
X149029688Y-105730900D02*
G75*
G03*
X148585451Y-105113845I-549688J72700D01*
G01*
X127737171Y-114346666D02*
G75*
G03*
X127672529Y-114353953I29J-290634D01*
G01*
X148649348Y-106924196D02*
G75*
G03*
X148926145Y-106514141I-272948J482696D01*
G01*
X127541688Y-114383822D02*
G75*
G03*
X127425205Y-114439911I64612J-283178D01*
G01*
X136498847Y-99855140D02*
G75*
G03*
X136500430Y-99885453I289953J-60D01*
G01*
X141245995Y-103646943D02*
G75*
G03*
X141388721Y-103719575I198005J212543D01*
G01*
X138833333Y-113146150D02*
G75*
G03*
X138907583Y-113108051I-94133J274850D01*
G01*
X134366770Y-114658704D02*
G75*
G03*
X134460862Y-114643054I30J290504D01*
G01*
X140830180Y-101586650D02*
G75*
G03*
X140663411Y-101140183I-552380J48050D01*
G01*
X132844983Y-103240628D02*
G75*
G03*
X132674690Y-103294424I79717J-548772D01*
G01*
X127320277Y-114523586D02*
G75*
G03*
X127267333Y-114578656I181123J-227114D01*
G01*
X133034097Y-114656869D02*
G75*
G03*
X133066770Y-114658715I32703J288669D01*
G01*
X142708813Y-110282690D02*
G75*
G03*
X142653792Y-110322994I142987J-252910D01*
G01*
X134318234Y-96532123D02*
G75*
G03*
X134069914Y-96671832I-34J-290477D01*
G01*
X134888904Y-96614687D02*
G75*
G03*
X134686011Y-96532087I-202904J-207913D01*
G01*
X131832782Y-100356770D02*
G75*
G03*
X131790615Y-100507532I248318J-150730D01*
G01*
X136498918Y-98473575D02*
G75*
G03*
X136498843Y-98480140I283482J-6525D01*
G01*
X130309845Y-114348509D02*
G75*
G03*
X130277171Y-114346669I-32645J-288691D01*
G01*
D29*
%TO.N,Net-(Card1-DAT1)*%
X140608833Y-104422235D02*
X139405865Y-104104046D01*
%TO.N,Net-(LED1-a)*%
X143607724Y-106840352D02*
X141559658Y-106840852D01*
%TO.N,Net-(U5-VDD18PLL)*%
X137482233Y-107541601D02*
X137595865Y-106414046D01*
%TO.N,USB-*%
X140530445Y-104823653D02*
X139405865Y-104604046D01*
X148479985Y-105658221D02*
X140566211Y-104829008D01*
X140530444Y-104823656D02*
G75*
G03*
X140566211Y-104829008I78356J401456D01*
G01*
%TO.N,Net-(U5-VDD18)*%
X137089343Y-99646251D02*
X137095865Y-100795046D01*
%TO.N,Net-(Card1-DAT2)*%
X132875267Y-104504289D02*
X133785865Y-104604046D01*
D28*
%TO.N,vdd50*%
X146659619Y-113037221D02*
X146656595Y-110839534D01*
X148499059Y-109244183D02*
X146656595Y-110839534D01*
D29*
%TO.N,Net-(U5-XTAL1_CLKIN)*%
X137573127Y-112571302D02*
X135973506Y-112346485D01*
X135973506Y-112346485D02*
X136702758Y-110912203D01*
X135973506Y-112346485D02*
X134176631Y-114068215D01*
X136717985Y-110858768D02*
X137095865Y-106414046D01*
X136702763Y-110912206D02*
G75*
G03*
X136717984Y-110858768I-129263J65706D01*
G01*
%TO.N,Net-(Card1-CD)*%
X132950211Y-105229456D02*
X133785865Y-105104046D01*
%TO.N,USB+*%
X139405865Y-105104046D02*
X148376429Y-106441460D01*
%TO.N,Net-(USB1-GND0)*%
X148074784Y-103313947D02*
X148106609Y-102002238D01*
%TO.N,Net-(U5-LED)*%
X140693658Y-106840852D02*
X139405865Y-105604046D01*
%TO.N,Net-(Card1-WP)*%
X135623659Y-107175070D02*
X135595865Y-106414046D01*
%TO.N,RXD_SDA*%
X131426840Y-103383268D02*
X131488456Y-104028872D01*
X129228420Y-116780792D02*
X129333347Y-116697115D01*
X129640552Y-96501199D02*
X130631807Y-98225511D01*
X126545715Y-117216382D02*
X129028864Y-116840659D01*
X126219506Y-117179264D02*
X126350348Y-117209128D01*
X131519888Y-104106067D02*
X132631720Y-105486058D01*
X129349966Y-116681580D02*
X130277171Y-115667230D01*
X125904070Y-116994211D02*
X126008997Y-117077888D01*
X130773422Y-98639843D02*
X131425219Y-103369360D01*
X125524674Y-98774072D02*
X125518954Y-96519235D01*
X129039437Y-116838655D02*
X129170279Y-116808791D01*
X125648171Y-114871626D02*
X125648171Y-116462833D01*
X127487341Y-95340672D02*
X129640552Y-96501199D01*
X132967211Y-105638102D02*
X133785865Y-105604046D01*
X125700163Y-116690622D02*
X125758393Y-116811539D01*
X125847533Y-110727391D02*
X125648782Y-114846323D01*
X125847533Y-110727391D02*
X125525157Y-98806775D01*
X129333346Y-116697114D02*
G75*
G03*
X129349965Y-116681579I-90346J113314D01*
G01*
X129028864Y-116840661D02*
G75*
G03*
X129039437Y-116838654I-21764J143561D01*
G01*
X125648780Y-114846323D02*
G75*
G03*
X125648171Y-114871626I524420J-25277D01*
G01*
X130773429Y-98639842D02*
G75*
G03*
X130631806Y-98225511I-1134329J-156358D01*
G01*
X126350351Y-117209117D02*
G75*
G03*
X126545715Y-117216382I116849J511817D01*
G01*
X125524675Y-98774072D02*
G75*
G03*
X125525157Y-98806775I1330425J3272D01*
G01*
X127487326Y-95340699D02*
G75*
G03*
X125518954Y-96519235I-633426J-1175101D01*
G01*
X125758409Y-116811531D02*
G75*
G03*
X125904070Y-116994211I472991J227731D01*
G01*
X125648161Y-116462833D02*
G75*
G03*
X125700164Y-116690622I525039J33D01*
G01*
X126008987Y-117077901D02*
G75*
G03*
X126219506Y-117179263I327313J410501D01*
G01*
X129170279Y-116808791D02*
G75*
G03*
X129228420Y-116780792I-32279J141391D01*
G01*
X132631727Y-105486052D02*
G75*
G03*
X132967211Y-105638101I318473J256552D01*
G01*
X131488459Y-104028872D02*
G75*
G03*
X131519889Y-104106066I144341J13772D01*
G01*
X131426839Y-103383268D02*
G75*
G03*
X131425219Y-103369360I-334539J-31932D01*
G01*
%TO.N,Net-(U5-XTAL2)*%
X136346671Y-106952571D02*
X135936209Y-107438876D01*
X135797386Y-107545340D02*
X134168661Y-108309522D01*
X136595865Y-106414046D02*
X136368020Y-106918711D01*
X133256909Y-114068215D02*
X133529403Y-111630378D01*
X133544254Y-111580767D02*
X134273506Y-110146485D01*
X134273506Y-110146485D02*
X134168661Y-108309522D01*
X136346676Y-106952575D02*
G75*
G03*
X136368020Y-106918711I-110776J93475D01*
G01*
X133544259Y-111580769D02*
G75*
G03*
X133529403Y-111630378I129241J-65731D01*
G01*
X135797383Y-107545334D02*
G75*
G03*
X135936209Y-107438876I-173683J370234D01*
G01*
%TO.N,Net-(USB1-GND2)*%
X147864967Y-112698484D02*
X148622184Y-114216203D01*
%TO.N,Net-(U5-RBIAS)*%
X138129245Y-109574220D02*
X138095865Y-106414046D01*
%TO.N,Net-(Card1-CMD)*%
X138071854Y-99815084D02*
X138095865Y-100795046D01*
%TO.N,Net-(U4-WC_NOT)*%
X126028171Y-116462833D02*
X126028171Y-114871626D01*
X126100761Y-116646663D02*
X126042531Y-116525746D01*
X127208854Y-109237473D02*
X127477368Y-108534051D01*
X127478300Y-108531671D02*
X128202801Y-106729721D01*
X126457350Y-110345654D02*
X127193155Y-109267499D01*
X126630279Y-116808791D02*
X126499437Y-116838655D01*
X126793347Y-116697115D02*
X126688420Y-116780792D01*
X126434906Y-116838655D02*
X126304064Y-116808791D01*
X126245923Y-116780792D02*
X126140996Y-116697115D01*
X126028767Y-114858501D02*
X126432712Y-110414266D01*
X127737171Y-115667230D02*
X126809966Y-116681580D01*
X127478301Y-108531671D02*
G75*
G03*
X127477368Y-108534051I140699J-56529D01*
G01*
X126434906Y-116838655D02*
G75*
G03*
X126499437Y-116838655I32265J141382D01*
G01*
X126457356Y-110345658D02*
G75*
G03*
X126432712Y-110414266I119744J-81742D01*
G01*
X126630279Y-116808791D02*
G75*
G03*
X126688420Y-116780792I-32279J141391D01*
G01*
X126100777Y-116646655D02*
G75*
G03*
X126140996Y-116697115I130623J62855D01*
G01*
X127193160Y-109267502D02*
G75*
G03*
X127208854Y-109237473I-119760J81702D01*
G01*
X126028765Y-114858501D02*
G75*
G03*
X126028171Y-114871626I144135J-13099D01*
G01*
X126028161Y-116462833D02*
G75*
G03*
X126042532Y-116525746I145039J33D01*
G01*
X126793346Y-116697114D02*
G75*
G03*
X126809965Y-116681579I-90346J113314D01*
G01*
X126245913Y-116780805D02*
G75*
G03*
X126304064Y-116808791I90387J113405D01*
G01*
%TO.N,Net-(Card1-CD_DAT3)*%
X132924651Y-103789389D02*
X133785865Y-103604046D01*
%TO.N,Net-(U5-RESET_N)*%
X134595865Y-100795046D02*
X134774512Y-99695657D01*
X134774512Y-99695657D02*
X134502123Y-97122587D01*
%TO.N,Net-(Card1-CLK)*%
X139405865Y-101604046D02*
X140277779Y-101538626D01*
%TO.N,TXD_SCK_MS_SKT_SEL*%
X129007171Y-115667230D02*
X128079966Y-116681580D01*
X126392627Y-117023891D02*
X126261785Y-116994027D01*
X125838171Y-116462833D02*
X125838171Y-114871626D01*
X127823433Y-95906646D02*
X129639143Y-98796163D01*
X134404618Y-105833404D02*
X134282111Y-105879688D01*
X125839547Y-114841302D02*
X126243492Y-110397067D01*
X134230865Y-105889046D02*
X133340865Y-105889046D01*
X131230297Y-103367430D02*
X129639143Y-98796163D01*
X126127460Y-116929340D02*
X126022533Y-116845663D01*
X131299316Y-104046923D02*
X131237700Y-103401320D01*
X128063347Y-116697115D02*
X127958420Y-116780792D01*
X127758864Y-116840659D02*
X126517290Y-117028520D01*
X126269990Y-110293606D02*
X126883250Y-108885762D01*
X125929577Y-116729101D02*
X125871347Y-116608184D01*
X135735865Y-105824046D02*
X134455865Y-105824046D01*
X125714673Y-98773590D02*
X125708953Y-96518753D01*
X133320305Y-105887581D02*
X132865278Y-105822404D01*
X126883250Y-108885762D02*
X125722334Y-98902948D01*
X127900279Y-116808791D02*
X127769437Y-116838655D01*
X136095865Y-106414046D02*
X135868020Y-105909381D01*
X132483766Y-105605262D02*
X131371934Y-104225271D01*
X134455865Y-105824038D02*
G75*
G03*
X134404618Y-105833405I35J-145062D01*
G01*
X126127450Y-116929352D02*
G75*
G03*
X126261785Y-116994026I208850J261952D01*
G01*
X132483774Y-105605256D02*
G75*
G03*
X132865278Y-105822403I466426J375756D01*
G01*
X131299319Y-104046923D02*
G75*
G03*
X131371935Y-104225270I333481J31823D01*
G01*
X126392629Y-117023881D02*
G75*
G03*
X126517290Y-117028520I74571J326581D01*
G01*
X127758864Y-116840661D02*
G75*
G03*
X127769437Y-116838654I-21764J143561D01*
G01*
X134230865Y-105889030D02*
G75*
G03*
X134282111Y-105879688I35J145030D01*
G01*
X133320305Y-105887578D02*
G75*
G03*
X133340865Y-105889046I20595J143678D01*
G01*
X125714676Y-98773590D02*
G75*
G03*
X125722335Y-98902948I1145024J2890D01*
G01*
X127900279Y-116808791D02*
G75*
G03*
X127958420Y-116780792I-32279J141391D01*
G01*
X135868025Y-105909379D02*
G75*
G03*
X135735865Y-105824046I-132125J-59621D01*
G01*
X125838161Y-116462833D02*
G75*
G03*
X125871348Y-116608184I335039J33D01*
G01*
X125839545Y-114841302D02*
G75*
G03*
X125838171Y-114871626I333355J-30298D01*
G01*
X125929593Y-116729093D02*
G75*
G03*
X126022533Y-116845663I301807J145293D01*
G01*
X127823377Y-95906681D02*
G75*
G03*
X125708954Y-96518753I-969477J-609119D01*
G01*
X128063346Y-116697114D02*
G75*
G03*
X128079965Y-116681579I-90346J113314D01*
G01*
X126269994Y-110293608D02*
G75*
G03*
X126243492Y-110397067I307106J-133792D01*
G01*
X131237697Y-103401320D02*
G75*
G03*
X131230296Y-103367430I-144397J-13780D01*
G01*
%TO.N,Net-(Card1-VDD)*%
X133785865Y-102604046D02*
X132964004Y-102607356D01*
X132381115Y-101692393D02*
X132964004Y-102607356D01*
%TO.N,Net-(Card1-DAT0)*%
X140163333Y-103703554D02*
X139405865Y-103604046D01*
%TD*%
%TA.AperFunction,Conductor*%
%TO.N,gnd*%
G36*
X127883455Y-96279096D02*
G01*
X127888707Y-96283992D01*
X128579413Y-97383180D01*
X128928714Y-97939057D01*
X128930509Y-97949621D01*
X128926292Y-97956852D01*
X128822379Y-98051583D01*
X128699469Y-98214342D01*
X128699464Y-98214351D01*
X128608565Y-98396903D01*
X128608562Y-98396909D01*
X128552746Y-98593078D01*
X128552744Y-98593088D01*
X128533928Y-98796160D01*
X128533928Y-98796165D01*
X128552744Y-98999237D01*
X128552746Y-98999247D01*
X128608562Y-99195416D01*
X128608565Y-99195422D01*
X128699464Y-99377974D01*
X128699469Y-99377983D01*
X128741311Y-99433391D01*
X128822379Y-99540742D01*
X128973102Y-99678144D01*
X129098307Y-99755667D01*
X129141576Y-99782459D01*
X129146504Y-99785510D01*
X129146503Y-99785510D01*
X129146506Y-99785511D01*
X129336687Y-99859187D01*
X129537167Y-99896663D01*
X129537168Y-99896663D01*
X129741118Y-99896663D01*
X129741119Y-99896663D01*
X129848543Y-99876581D01*
X129859027Y-99878793D01*
X129864337Y-99885741D01*
X131075908Y-103366494D01*
X131075290Y-103377191D01*
X131067288Y-103384318D01*
X131062686Y-103385096D01*
X130901967Y-103385096D01*
X130901967Y-104045095D01*
X131096308Y-104045095D01*
X131105061Y-104043356D01*
X131114986Y-104036724D01*
X131121615Y-104026803D01*
X131121616Y-104026800D01*
X131123023Y-104019723D01*
X131128974Y-104010813D01*
X131139483Y-104008721D01*
X131148393Y-104014672D01*
X131150691Y-104021122D01*
X131154772Y-104063880D01*
X131158879Y-104107382D01*
X131158880Y-104107384D01*
X131185621Y-104197165D01*
X131185624Y-104197172D01*
X131229206Y-104280106D01*
X131229208Y-104280109D01*
X131231751Y-104283259D01*
X131258632Y-104316555D01*
X131258631Y-104316555D01*
X131271485Y-104332510D01*
X131277772Y-104340314D01*
X131279466Y-104342416D01*
X131281441Y-104344868D01*
X131281454Y-104344882D01*
X132151550Y-105424834D01*
X132374880Y-105702028D01*
X132374887Y-105702048D01*
X132374893Y-105702044D01*
X132414333Y-105751143D01*
X132521019Y-105841928D01*
X132642765Y-105911225D01*
X132775299Y-105956600D01*
X132843698Y-105966298D01*
X132843716Y-105966309D01*
X132843718Y-105966301D01*
X133297611Y-106031315D01*
X133299660Y-106031609D01*
X133299660Y-106031608D01*
X133305970Y-106032514D01*
X133305983Y-106032514D01*
X133314836Y-106033782D01*
X133318635Y-106034327D01*
X133319757Y-106034340D01*
X133320594Y-106034399D01*
X133321709Y-106034546D01*
X133340829Y-106034546D01*
X133340835Y-106034546D01*
X133374039Y-106034554D01*
X133374041Y-106034552D01*
X133375545Y-106034553D01*
X133375618Y-106034546D01*
X134250023Y-106034546D01*
X134250022Y-106034545D01*
X134250279Y-106034476D01*
X134250496Y-106034419D01*
X134252448Y-106034041D01*
X134283101Y-106030342D01*
X134313278Y-106022939D01*
X134315231Y-106022606D01*
X134315615Y-106022568D01*
X134334691Y-106015360D01*
X134364558Y-106004089D01*
X134364559Y-106004087D01*
X134366081Y-106003513D01*
X134366164Y-106003469D01*
X134406919Y-105988072D01*
X134417627Y-105988410D01*
X134424962Y-105996221D01*
X134425865Y-106001169D01*
X134425865Y-106396546D01*
X134765864Y-106396546D01*
X134765864Y-105983546D01*
X134769965Y-105973647D01*
X134779864Y-105969546D01*
X134841365Y-105969546D01*
X134851264Y-105973647D01*
X134855365Y-105983546D01*
X134855365Y-106868942D01*
X134859018Y-106887306D01*
X134861196Y-106898259D01*
X134883408Y-106931503D01*
X134916652Y-106953715D01*
X134945966Y-106959546D01*
X135245763Y-106959545D01*
X135275078Y-106953715D01*
X135308322Y-106931503D01*
X135330534Y-106898259D01*
X135332134Y-106890213D01*
X135338087Y-106881305D01*
X135348596Y-106879214D01*
X135357505Y-106885167D01*
X135359596Y-106890214D01*
X135361195Y-106898258D01*
X135361196Y-106898259D01*
X135370007Y-106911446D01*
X135372097Y-106921954D01*
X135368266Y-106929122D01*
X135333286Y-106964103D01*
X135282307Y-107064157D01*
X135264740Y-107175070D01*
X135282307Y-107285982D01*
X135333287Y-107386038D01*
X135412690Y-107465441D01*
X135489033Y-107504339D01*
X135495992Y-107512487D01*
X135495151Y-107523169D01*
X135488624Y-107529487D01*
X134494969Y-107995701D01*
X134484265Y-107996194D01*
X134476348Y-107988974D01*
X134475291Y-107985758D01*
X134474397Y-107981262D01*
X134472219Y-107970309D01*
X134450007Y-107937065D01*
X134416763Y-107914853D01*
X134416762Y-107914852D01*
X134416761Y-107914852D01*
X134394726Y-107910469D01*
X134387449Y-107909022D01*
X134387448Y-107909022D01*
X133949875Y-107909022D01*
X133920559Y-107914853D01*
X133887315Y-107937065D01*
X133865102Y-107970310D01*
X133859272Y-107999623D01*
X133859272Y-108619418D01*
X133862925Y-108637782D01*
X133865103Y-108648735D01*
X133887315Y-108681979D01*
X133920559Y-108704191D01*
X133949873Y-108710022D01*
X134032558Y-108710021D01*
X134042457Y-108714121D01*
X134046535Y-108723223D01*
X134081235Y-109331187D01*
X134077706Y-109341304D01*
X134068056Y-109345962D01*
X134067258Y-109345985D01*
X133663609Y-109345985D01*
X133634293Y-109351816D01*
X133601049Y-109374028D01*
X133578836Y-109407273D01*
X133573006Y-109436586D01*
X133573006Y-110856381D01*
X133577005Y-110876484D01*
X133578837Y-110885698D01*
X133601049Y-110918942D01*
X133634293Y-110941154D01*
X133663607Y-110946985D01*
X133680444Y-110946984D01*
X133690343Y-110951084D01*
X133694444Y-110960983D01*
X133692924Y-110967329D01*
X133411235Y-111521352D01*
X133406631Y-111530392D01*
X133406529Y-111530605D01*
X133405875Y-111531893D01*
X133405872Y-111531903D01*
X133405675Y-111532828D01*
X133405402Y-111533777D01*
X133394703Y-111563018D01*
X133394703Y-111563019D01*
X133387558Y-111593382D01*
X133387264Y-111594325D01*
X133386931Y-111595178D01*
X133386930Y-111595180D01*
X133386776Y-111596555D01*
X133386738Y-111596827D01*
X133386109Y-111602485D01*
X133384805Y-111614200D01*
X133384479Y-111617114D01*
X133380974Y-111648429D01*
X133380974Y-111648461D01*
X133156660Y-113655270D01*
X133151486Y-113664653D01*
X133142747Y-113667715D01*
X133056873Y-113667715D01*
X133027557Y-113673546D01*
X132994313Y-113695758D01*
X132972100Y-113729003D01*
X132966270Y-113758316D01*
X132966270Y-114340662D01*
X132962169Y-114350561D01*
X132952270Y-114354662D01*
X132950695Y-114354573D01*
X130394159Y-114065196D01*
X130394095Y-114065184D01*
X130348038Y-114059976D01*
X130348027Y-114059970D01*
X130348016Y-114059973D01*
X130347832Y-114059952D01*
X130347827Y-114059950D01*
X130342264Y-114059320D01*
X130338784Y-114058464D01*
X130335769Y-114057296D01*
X130331568Y-114055669D01*
X130331567Y-114055669D01*
X130288113Y-114055669D01*
X130288067Y-114055668D01*
X130277142Y-114055669D01*
X127789685Y-114055669D01*
X127789626Y-114055664D01*
X127788453Y-114055664D01*
X127779905Y-114055664D01*
X127742944Y-114055668D01*
X127742936Y-114055665D01*
X127715282Y-114055667D01*
X127715228Y-114055669D01*
X127710196Y-114055669D01*
X127707350Y-114056201D01*
X127707116Y-114056245D01*
X127706357Y-114056344D01*
X127684244Y-114058003D01*
X127672005Y-114058922D01*
X127672000Y-114058922D01*
X127671996Y-114058923D01*
X127671156Y-114059049D01*
X127667062Y-114059056D01*
X127660806Y-114058142D01*
X127573071Y-114078168D01*
X127558519Y-114081488D01*
X127558517Y-114081490D01*
X127480810Y-114099226D01*
X127480809Y-114099225D01*
X127477477Y-114099987D01*
X127476954Y-114100107D01*
X127468869Y-114101952D01*
X127450390Y-114106170D01*
X127450308Y-114106192D01*
X127434460Y-114109809D01*
X127434455Y-114109811D01*
X127353335Y-114141644D01*
X127353322Y-114141651D01*
X127294691Y-114175498D01*
X127291880Y-114176732D01*
X127286299Y-114178481D01*
X127286298Y-114178482D01*
X127138863Y-114296055D01*
X127118808Y-114312040D01*
X127118757Y-114312084D01*
X127118560Y-114312248D01*
X127117758Y-114312888D01*
X127117754Y-114312892D01*
X127117216Y-114313514D01*
X127116753Y-114313999D01*
X127081808Y-114347290D01*
X127081797Y-114347301D01*
X127074041Y-114356111D01*
X127071060Y-114358664D01*
X127065079Y-114362476D01*
X127065078Y-114362477D01*
X127048209Y-114385424D01*
X127048067Y-114385610D01*
X127048027Y-114385660D01*
X127036735Y-114401033D01*
X127033100Y-114405982D01*
X127011777Y-114434991D01*
X126845641Y-114661006D01*
X126836474Y-114666554D01*
X126826069Y-114663994D01*
X126820521Y-114654827D01*
X126820387Y-114651865D01*
X126821001Y-114641770D01*
X127036567Y-111093230D01*
X127038901Y-111086303D01*
X127052061Y-111066607D01*
X127052061Y-111066606D01*
X127052063Y-111066604D01*
X127057894Y-111037290D01*
X127057893Y-110807913D01*
X127059690Y-110801051D01*
X127115908Y-110701090D01*
X127907582Y-109293397D01*
X127916009Y-109286780D01*
X127919785Y-109286261D01*
X128003008Y-109286261D01*
X128003009Y-109286261D01*
X128032324Y-109280431D01*
X128065568Y-109258219D01*
X128087780Y-109224975D01*
X128093611Y-109195661D01*
X128093610Y-108972276D01*
X128095669Y-108964969D01*
X128133700Y-108902831D01*
X128486109Y-108327022D01*
X132972551Y-108327022D01*
X132972551Y-108612474D01*
X132974289Y-108621227D01*
X132980921Y-108631152D01*
X132990843Y-108637781D01*
X132999594Y-108639521D01*
X133193939Y-108639521D01*
X133193939Y-108327022D01*
X133228939Y-108327022D01*
X133228939Y-108639521D01*
X133423280Y-108639521D01*
X133432033Y-108637782D01*
X133441958Y-108631150D01*
X133448587Y-108621229D01*
X133448587Y-108621227D01*
X133450328Y-108612477D01*
X133450328Y-108327022D01*
X133228939Y-108327022D01*
X133193939Y-108327022D01*
X132972551Y-108327022D01*
X128486109Y-108327022D01*
X128507530Y-108292022D01*
X132972550Y-108292022D01*
X133193939Y-108292022D01*
X133193939Y-107979522D01*
X133228939Y-107979522D01*
X133228939Y-108292022D01*
X133450327Y-108292022D01*
X133450327Y-108006569D01*
X133448588Y-107997816D01*
X133441956Y-107987891D01*
X133432034Y-107981262D01*
X133423284Y-107979522D01*
X133228939Y-107979522D01*
X133193939Y-107979522D01*
X132999597Y-107979522D01*
X132990844Y-107981261D01*
X132980919Y-107987893D01*
X132974290Y-107997814D01*
X132974290Y-107997816D01*
X132972550Y-108006566D01*
X132972550Y-108292022D01*
X128507530Y-108292022D01*
X129214487Y-107136911D01*
X129223152Y-107130609D01*
X129226428Y-107130220D01*
X129322559Y-107130220D01*
X129322560Y-107130220D01*
X129351875Y-107124390D01*
X129385119Y-107102178D01*
X129407331Y-107068934D01*
X129413162Y-107039620D01*
X129413161Y-106786868D01*
X129413707Y-106783910D01*
X129413570Y-106783885D01*
X129413802Y-106782608D01*
X129413784Y-106779054D01*
X129413595Y-106742771D01*
X129413624Y-106742122D01*
X129417307Y-106702463D01*
X129413837Y-106690262D01*
X129413304Y-106686506D01*
X129413277Y-106681257D01*
X129413239Y-106673815D01*
X129413238Y-106673812D01*
X129413233Y-106672837D01*
X129413161Y-106672074D01*
X129413161Y-106431546D01*
X134425866Y-106431546D01*
X134425866Y-106861998D01*
X134427604Y-106870751D01*
X134434236Y-106880676D01*
X134444158Y-106887305D01*
X134452909Y-106889045D01*
X134578365Y-106889045D01*
X134578365Y-106431546D01*
X134613365Y-106431546D01*
X134613365Y-106889045D01*
X134738817Y-106889045D01*
X134747570Y-106887306D01*
X134757495Y-106880674D01*
X134764124Y-106870753D01*
X134764124Y-106870751D01*
X134765865Y-106862001D01*
X134765865Y-106431546D01*
X134613365Y-106431546D01*
X134578365Y-106431546D01*
X134425866Y-106431546D01*
X129413161Y-106431546D01*
X129413161Y-106419824D01*
X129413161Y-106419822D01*
X129407331Y-106390508D01*
X129385119Y-106357264D01*
X129351875Y-106335052D01*
X129351874Y-106335051D01*
X129351873Y-106335051D01*
X129322561Y-106329221D01*
X129321763Y-106329221D01*
X129311864Y-106325120D01*
X129308297Y-106319050D01*
X129301659Y-106295702D01*
X128572936Y-103732596D01*
X130645579Y-103732596D01*
X130645579Y-104018048D01*
X130647317Y-104026801D01*
X130653949Y-104036726D01*
X130663871Y-104043355D01*
X130672622Y-104045095D01*
X130866966Y-104045095D01*
X130866967Y-103732596D01*
X130645579Y-103732596D01*
X128572936Y-103732596D01*
X128562985Y-103697596D01*
X130645578Y-103697596D01*
X130866967Y-103697596D01*
X130866966Y-103385096D01*
X130672625Y-103385096D01*
X130663872Y-103386835D01*
X130653947Y-103393467D01*
X130647318Y-103403388D01*
X130647318Y-103403390D01*
X130645578Y-103412140D01*
X130645578Y-103697596D01*
X128562985Y-103697596D01*
X127432728Y-99722192D01*
X127433965Y-99711550D01*
X127438821Y-99706464D01*
X127525711Y-99652666D01*
X127676434Y-99515264D01*
X127799343Y-99352506D01*
X127890252Y-99169935D01*
X127946067Y-98973768D01*
X127947258Y-98960913D01*
X127964885Y-98770687D01*
X127964885Y-98770682D01*
X127946068Y-98567610D01*
X127946067Y-98567607D01*
X127946067Y-98567602D01*
X127890252Y-98371435D01*
X127833957Y-98258379D01*
X127799348Y-98188873D01*
X127799343Y-98188864D01*
X127720604Y-98084597D01*
X127676434Y-98026106D01*
X127525711Y-97888704D01*
X127435796Y-97833031D01*
X127352308Y-97781337D01*
X127352309Y-97781337D01*
X127227890Y-97733138D01*
X127162126Y-97707661D01*
X127162123Y-97707660D01*
X127162122Y-97707660D01*
X126961648Y-97670185D01*
X126961646Y-97670185D01*
X126757694Y-97670185D01*
X126757691Y-97670185D01*
X126557217Y-97707660D01*
X126367030Y-97781337D01*
X126193630Y-97888703D01*
X126193629Y-97888704D01*
X126042906Y-98026105D01*
X125919996Y-98188864D01*
X125919991Y-98188873D01*
X125885381Y-98258379D01*
X125877298Y-98265413D01*
X125866609Y-98264671D01*
X125859575Y-98256588D01*
X125858849Y-98252180D01*
X125856329Y-97258846D01*
X126135699Y-97258846D01*
X126278945Y-97376406D01*
X126457883Y-97472050D01*
X126652028Y-97530943D01*
X126652032Y-97530944D01*
X126853950Y-97550831D01*
X127055867Y-97530944D01*
X127055871Y-97530943D01*
X127250016Y-97472050D01*
X127428954Y-97376406D01*
X127572200Y-97258846D01*
X126853951Y-96540597D01*
X126853950Y-96540597D01*
X126135699Y-97258846D01*
X125856329Y-97258846D01*
X125855334Y-96866511D01*
X125859409Y-96856604D01*
X125869298Y-96852478D01*
X125879208Y-96856553D01*
X125882731Y-96862414D01*
X125897747Y-96911914D01*
X125993391Y-97090852D01*
X126110950Y-97234098D01*
X126844051Y-96500998D01*
X126853950Y-96496897D01*
X126863849Y-96500998D01*
X126863850Y-96500998D01*
X127596948Y-97234097D01*
X127714508Y-97090852D01*
X127810152Y-96911914D01*
X127869045Y-96717769D01*
X127869046Y-96717765D01*
X127888933Y-96515848D01*
X127869046Y-96313930D01*
X127869045Y-96313926D01*
X127863458Y-96295507D01*
X127864508Y-96284843D01*
X127872791Y-96278046D01*
X127883455Y-96279096D01*
G37*
%TD.AperFunction*%
%TA.AperFunction,Conductor*%
G36*
X136857505Y-106885167D02*
G01*
X136859596Y-106890214D01*
X136861195Y-106898258D01*
X136861196Y-106898259D01*
X136883408Y-106931503D01*
X136892546Y-106937608D01*
X136897768Y-106941097D01*
X136903721Y-106950006D01*
X136903940Y-106953924D01*
X136631455Y-110158963D01*
X136626530Y-110168480D01*
X136616319Y-110171727D01*
X136606802Y-110166802D01*
X136603505Y-110157777D01*
X136603505Y-109443532D01*
X136601766Y-109434779D01*
X136595134Y-109424854D01*
X136585212Y-109418225D01*
X136576462Y-109416485D01*
X135991006Y-109416485D01*
X135991006Y-110876484D01*
X136534867Y-110876484D01*
X136544766Y-110880585D01*
X136548867Y-110890484D01*
X136547347Y-110896829D01*
X136221180Y-111538330D01*
X136213038Y-111545296D01*
X136208700Y-111545985D01*
X135363609Y-111545985D01*
X135334293Y-111551816D01*
X135301049Y-111574028D01*
X135278836Y-111607273D01*
X135273006Y-111636586D01*
X135273006Y-112810202D01*
X135268905Y-112820101D01*
X135268692Y-112820311D01*
X134388241Y-113663942D01*
X134378256Y-113667830D01*
X134377184Y-113667766D01*
X134376672Y-113667715D01*
X134376669Y-113667715D01*
X134376665Y-113667715D01*
X133976595Y-113667715D01*
X133947279Y-113673546D01*
X133914035Y-113695758D01*
X133891822Y-113729003D01*
X133885992Y-113758315D01*
X133885992Y-113758316D01*
X133885992Y-114059976D01*
X133885993Y-114353715D01*
X133881893Y-114363614D01*
X133871993Y-114367715D01*
X133561548Y-114367715D01*
X133551649Y-114363614D01*
X133547548Y-114353715D01*
X133547547Y-113758318D01*
X133547547Y-113758316D01*
X133541717Y-113729002D01*
X133519505Y-113695758D01*
X133486261Y-113673546D01*
X133486260Y-113673545D01*
X133486259Y-113673545D01*
X133460885Y-113668498D01*
X133451975Y-113662545D01*
X133449703Y-113653212D01*
X133475339Y-113423866D01*
X133516300Y-113057403D01*
X133593808Y-112363985D01*
X133643507Y-112363985D01*
X133643507Y-113049437D01*
X133645245Y-113058190D01*
X133651877Y-113068115D01*
X133661799Y-113074744D01*
X133670550Y-113076484D01*
X134256006Y-113076484D01*
X134256006Y-112363985D01*
X134291006Y-112363985D01*
X134291006Y-113076484D01*
X134876458Y-113076484D01*
X134885211Y-113074745D01*
X134895136Y-113068113D01*
X134901765Y-113058192D01*
X134901765Y-113058190D01*
X134903506Y-113049440D01*
X134903506Y-112363985D01*
X134291006Y-112363985D01*
X134256006Y-112363985D01*
X133643507Y-112363985D01*
X133593808Y-112363985D01*
X133615593Y-112169089D01*
X133620767Y-112159706D01*
X133631061Y-112156731D01*
X133640444Y-112161905D01*
X133643506Y-112170644D01*
X133643506Y-112328985D01*
X134256006Y-112328985D01*
X134256006Y-111616485D01*
X134291006Y-111616485D01*
X134291006Y-112328985D01*
X134903505Y-112328985D01*
X134903505Y-111643532D01*
X134901766Y-111634779D01*
X134895134Y-111624854D01*
X134885212Y-111618225D01*
X134876462Y-111616485D01*
X134291006Y-111616485D01*
X134256006Y-111616485D01*
X133712143Y-111616485D01*
X133702244Y-111612384D01*
X133698143Y-111602485D01*
X133699662Y-111596144D01*
X134022561Y-110961071D01*
X134025831Y-110954639D01*
X134033973Y-110947673D01*
X134038311Y-110946984D01*
X134883403Y-110946984D01*
X134883404Y-110946984D01*
X134912719Y-110941154D01*
X134945963Y-110918942D01*
X134968175Y-110885698D01*
X134974006Y-110856384D01*
X134974005Y-110163985D01*
X135343507Y-110163985D01*
X135343507Y-110849437D01*
X135345245Y-110858190D01*
X135351877Y-110868115D01*
X135361799Y-110874744D01*
X135370550Y-110876484D01*
X135956006Y-110876484D01*
X135956006Y-110163985D01*
X135343507Y-110163985D01*
X134974005Y-110163985D01*
X134974005Y-110128985D01*
X135343506Y-110128985D01*
X135956006Y-110128985D01*
X135956006Y-109416485D01*
X135370553Y-109416485D01*
X135361800Y-109418224D01*
X135351875Y-109424856D01*
X135345246Y-109434777D01*
X135345246Y-109434779D01*
X135343506Y-109443529D01*
X135343506Y-110128985D01*
X134974005Y-110128985D01*
X134974005Y-109436587D01*
X134968175Y-109407272D01*
X134945963Y-109374028D01*
X134912719Y-109351816D01*
X134912718Y-109351815D01*
X134912717Y-109351815D01*
X134883405Y-109345985D01*
X134386777Y-109345985D01*
X134376878Y-109341884D01*
X134372800Y-109332783D01*
X134371806Y-109315374D01*
X134351807Y-108964969D01*
X134338101Y-108724819D01*
X134341631Y-108714702D01*
X134351280Y-108710044D01*
X134352078Y-108710021D01*
X134387447Y-108710021D01*
X134387448Y-108710021D01*
X134416763Y-108704191D01*
X134450007Y-108681979D01*
X134472219Y-108648735D01*
X134478050Y-108619421D01*
X134478049Y-108333973D01*
X134482149Y-108324075D01*
X134486099Y-108321301D01*
X135847959Y-107682329D01*
X135859181Y-107677066D01*
X135859180Y-107677065D01*
X135865750Y-107673985D01*
X135865763Y-107673976D01*
X135876530Y-107668925D01*
X135876530Y-107668924D01*
X135876864Y-107668768D01*
X135877043Y-107668668D01*
X135895299Y-107660095D01*
X135961957Y-107616198D01*
X136021642Y-107563208D01*
X136034374Y-107548135D01*
X136034474Y-107548034D01*
X136035040Y-107547363D01*
X136035042Y-107547362D01*
X136047396Y-107532725D01*
X136068817Y-107507347D01*
X136068817Y-107507345D01*
X136435333Y-107073105D01*
X136435358Y-107073083D01*
X136436452Y-107071786D01*
X136436455Y-107071785D01*
X136454144Y-107050819D01*
X136454161Y-107050810D01*
X136457875Y-107046407D01*
X136457877Y-107046409D01*
X136466532Y-107036152D01*
X136466537Y-107036144D01*
X136466583Y-107036090D01*
X136466714Y-107035926D01*
X136470215Y-107031780D01*
X136471029Y-107030047D01*
X136472208Y-107028003D01*
X136481877Y-107014128D01*
X136490180Y-106999495D01*
X136491523Y-106997536D01*
X136492749Y-106996041D01*
X136495023Y-106991000D01*
X136495076Y-106990894D01*
X136499512Y-106981060D01*
X136505505Y-106967785D01*
X136513316Y-106960449D01*
X136518265Y-106959545D01*
X136745762Y-106959545D01*
X136745763Y-106959545D01*
X136775078Y-106953715D01*
X136808322Y-106931503D01*
X136830534Y-106898259D01*
X136832134Y-106890213D01*
X136838087Y-106881305D01*
X136848596Y-106879214D01*
X136857505Y-106885167D01*
G37*
%TD.AperFunction*%
%TA.AperFunction,Conductor*%
G36*
X137857505Y-106885167D02*
G01*
X137859596Y-106890214D01*
X137861195Y-106898258D01*
X137861196Y-106898259D01*
X137883408Y-106931503D01*
X137916652Y-106953715D01*
X137944993Y-106959352D01*
X137953900Y-106965304D01*
X137956259Y-106972934D01*
X137980556Y-109273183D01*
X137976561Y-109283125D01*
X137966705Y-109287330D01*
X137966557Y-109287331D01*
X137819348Y-109287331D01*
X137790032Y-109293162D01*
X137756788Y-109315374D01*
X137734575Y-109348619D01*
X137728745Y-109377932D01*
X137728745Y-109770505D01*
X137728746Y-109770508D01*
X137734576Y-109799822D01*
X137756788Y-109833066D01*
X137790032Y-109855278D01*
X137819346Y-109861109D01*
X138439143Y-109861108D01*
X138468458Y-109855278D01*
X138501702Y-109833066D01*
X138523914Y-109799822D01*
X138529745Y-109770508D01*
X138529744Y-109377933D01*
X138523914Y-109348618D01*
X138501702Y-109315374D01*
X138468458Y-109293162D01*
X138468457Y-109293161D01*
X138468456Y-109293161D01*
X138439144Y-109287331D01*
X138285575Y-109287331D01*
X138275676Y-109283230D01*
X138271576Y-109273479D01*
X138265828Y-108729340D01*
X138264107Y-108566373D01*
X138314943Y-108566373D01*
X138314943Y-108760714D01*
X138316681Y-108769467D01*
X138323313Y-108779392D01*
X138333235Y-108786021D01*
X138341986Y-108787761D01*
X138627442Y-108787761D01*
X138627442Y-108566373D01*
X138662442Y-108566373D01*
X138662442Y-108787761D01*
X138947894Y-108787761D01*
X138956647Y-108786022D01*
X138966572Y-108779390D01*
X138973201Y-108769469D01*
X138973201Y-108769467D01*
X138974942Y-108760717D01*
X138974942Y-108566373D01*
X138662442Y-108566373D01*
X138627442Y-108566373D01*
X138314943Y-108566373D01*
X138264107Y-108566373D01*
X138263737Y-108531373D01*
X138314942Y-108531373D01*
X138627442Y-108531373D01*
X138627442Y-108309984D01*
X138341989Y-108309984D01*
X138333236Y-108311723D01*
X138323311Y-108318355D01*
X138316682Y-108328276D01*
X138316682Y-108328278D01*
X138314942Y-108337028D01*
X138314942Y-108531373D01*
X138263737Y-108531373D01*
X138256951Y-107888955D01*
X138260946Y-107879015D01*
X138270802Y-107874810D01*
X138278727Y-107877167D01*
X138305729Y-107895209D01*
X138335043Y-107901040D01*
X138543892Y-107901039D01*
X138553470Y-107904828D01*
X138959819Y-108285965D01*
X138964234Y-108295728D01*
X138960452Y-108305754D01*
X138950689Y-108310169D01*
X138948585Y-108309995D01*
X138948580Y-108310051D01*
X138947901Y-108309984D01*
X138662442Y-108309984D01*
X138662442Y-108531373D01*
X138974941Y-108531373D01*
X138974941Y-108337031D01*
X138974433Y-108334478D01*
X138976523Y-108323968D01*
X138985432Y-108318015D01*
X138995942Y-108320105D01*
X138997742Y-108321535D01*
X140345355Y-109585534D01*
X141517055Y-110684536D01*
X141632490Y-110792808D01*
X141636905Y-110802571D01*
X141633123Y-110812597D01*
X141631025Y-110814429D01*
X138791350Y-112833633D01*
X138780906Y-112836028D01*
X138771827Y-112830336D01*
X138769237Y-112822223D01*
X138769238Y-112588802D01*
X138547849Y-112588802D01*
X138547849Y-112901301D01*
X138565948Y-112901301D01*
X138575847Y-112905402D01*
X138579948Y-112915301D01*
X138575847Y-112925200D01*
X138570483Y-112928546D01*
X134485804Y-114326934D01*
X134475110Y-114326261D01*
X134468024Y-114318224D01*
X134467269Y-114313689D01*
X134467269Y-113997216D01*
X134471370Y-113987317D01*
X134471583Y-113987107D01*
X135345727Y-113149519D01*
X135355711Y-113145632D01*
X135358143Y-113145898D01*
X135358933Y-113146055D01*
X135363607Y-113146985D01*
X136583404Y-113146984D01*
X136612719Y-113141154D01*
X136645963Y-113118942D01*
X136668175Y-113085698D01*
X136674006Y-113056384D01*
X136674005Y-112607970D01*
X136678105Y-112598072D01*
X136688005Y-112593971D01*
X136689947Y-112594106D01*
X137251686Y-112673055D01*
X137260919Y-112678494D01*
X137263738Y-112686919D01*
X137263738Y-112881198D01*
X137267737Y-112901301D01*
X137269569Y-112910515D01*
X137291781Y-112943759D01*
X137325025Y-112965971D01*
X137354339Y-112971802D01*
X137791914Y-112971801D01*
X137821229Y-112965971D01*
X137854473Y-112943759D01*
X137876685Y-112910515D01*
X137882516Y-112881201D01*
X137882515Y-112588802D01*
X138291461Y-112588802D01*
X138291461Y-112874254D01*
X138293199Y-112883007D01*
X138299831Y-112892932D01*
X138309753Y-112899561D01*
X138318504Y-112901301D01*
X138512849Y-112901301D01*
X138512849Y-112588802D01*
X138291461Y-112588802D01*
X137882515Y-112588802D01*
X137882515Y-112553802D01*
X138291460Y-112553802D01*
X138512849Y-112553802D01*
X138512849Y-112241302D01*
X138547849Y-112241302D01*
X138547849Y-112553802D01*
X138769237Y-112553802D01*
X138769237Y-112268349D01*
X138767498Y-112259596D01*
X138760866Y-112249671D01*
X138750944Y-112243042D01*
X138742194Y-112241302D01*
X138547849Y-112241302D01*
X138512849Y-112241302D01*
X138318507Y-112241302D01*
X138309754Y-112243041D01*
X138299829Y-112249673D01*
X138293200Y-112259594D01*
X138293200Y-112259596D01*
X138291460Y-112268346D01*
X138291460Y-112553802D01*
X137882515Y-112553802D01*
X137882515Y-112261404D01*
X137876685Y-112232089D01*
X137854473Y-112198845D01*
X137821229Y-112176633D01*
X137821228Y-112176632D01*
X137821227Y-112176632D01*
X137799192Y-112172249D01*
X137791915Y-112170802D01*
X137791914Y-112170802D01*
X137354341Y-112170802D01*
X137325025Y-112176633D01*
X137291781Y-112198845D01*
X137269568Y-112232090D01*
X137263738Y-112261403D01*
X137263738Y-112364783D01*
X137259637Y-112374682D01*
X137249738Y-112378783D01*
X137247790Y-112378647D01*
X136686057Y-112299698D01*
X136676824Y-112294259D01*
X136674005Y-112285834D01*
X136674005Y-111636588D01*
X136673645Y-111634779D01*
X136668175Y-111607272D01*
X136645963Y-111574028D01*
X136612719Y-111551816D01*
X136612718Y-111551815D01*
X136612717Y-111551815D01*
X136583405Y-111545985D01*
X136566566Y-111545985D01*
X136556667Y-111541884D01*
X136552566Y-111531985D01*
X136554086Y-111525640D01*
X136604283Y-111426913D01*
X136816541Y-111009446D01*
X136816559Y-111009420D01*
X136817413Y-111007738D01*
X136817415Y-111007738D01*
X136829702Y-110983563D01*
X136829716Y-110983551D01*
X136832467Y-110978135D01*
X136832468Y-110978136D01*
X136840936Y-110961470D01*
X136840936Y-110961468D01*
X136841135Y-110961078D01*
X136841153Y-110961028D01*
X136841380Y-110960219D01*
X136853466Y-110926245D01*
X136861081Y-110891069D01*
X136861336Y-110890188D01*
X136861339Y-110890181D01*
X136894176Y-110503942D01*
X137799246Y-110503942D01*
X137799246Y-110675783D01*
X137800984Y-110684536D01*
X137807616Y-110694461D01*
X137817538Y-110701090D01*
X137826289Y-110702830D01*
X138111745Y-110702830D01*
X138111745Y-110503942D01*
X138146745Y-110503942D01*
X138146745Y-110702830D01*
X138432197Y-110702830D01*
X138440950Y-110701091D01*
X138450875Y-110694459D01*
X138457504Y-110684538D01*
X138457504Y-110684536D01*
X138459245Y-110675786D01*
X138459245Y-110503942D01*
X138146745Y-110503942D01*
X138111745Y-110503942D01*
X137799246Y-110503942D01*
X136894176Y-110503942D01*
X136897152Y-110468942D01*
X137799245Y-110468942D01*
X138111745Y-110468942D01*
X138111745Y-110270053D01*
X138146745Y-110270053D01*
X138146745Y-110468942D01*
X138459244Y-110468942D01*
X138459244Y-110297100D01*
X138457505Y-110288347D01*
X138450873Y-110278422D01*
X138440951Y-110271793D01*
X138432201Y-110270053D01*
X138146745Y-110270053D01*
X138111745Y-110270053D01*
X137826292Y-110270053D01*
X137817539Y-110271792D01*
X137807614Y-110278424D01*
X137800985Y-110288345D01*
X137800985Y-110288347D01*
X137799245Y-110297097D01*
X137799245Y-110468942D01*
X136897152Y-110468942D01*
X137063158Y-108516323D01*
X137152234Y-108516323D01*
X137152234Y-108710664D01*
X137153972Y-108719417D01*
X137160604Y-108729342D01*
X137170526Y-108735971D01*
X137179277Y-108737711D01*
X137464733Y-108737711D01*
X137464733Y-108516323D01*
X137499733Y-108516323D01*
X137499733Y-108737711D01*
X137785185Y-108737711D01*
X137793938Y-108735972D01*
X137803863Y-108729340D01*
X137810492Y-108719419D01*
X137810492Y-108719417D01*
X137812233Y-108710667D01*
X137812233Y-108516323D01*
X137499733Y-108516323D01*
X137464733Y-108516323D01*
X137152234Y-108516323D01*
X137063158Y-108516323D01*
X137066134Y-108481323D01*
X137152233Y-108481323D01*
X137464733Y-108481323D01*
X137464733Y-108259934D01*
X137499733Y-108259934D01*
X137499733Y-108481323D01*
X137812232Y-108481323D01*
X137812232Y-108286981D01*
X137810493Y-108278228D01*
X137803861Y-108268303D01*
X137793939Y-108261674D01*
X137785189Y-108259934D01*
X137499733Y-108259934D01*
X137464733Y-108259934D01*
X137179280Y-108259934D01*
X137170527Y-108261673D01*
X137160602Y-108268305D01*
X137153973Y-108278226D01*
X137153973Y-108278228D01*
X137152233Y-108286978D01*
X137152233Y-108481323D01*
X137066134Y-108481323D01*
X137119436Y-107854372D01*
X137124361Y-107844856D01*
X137134572Y-107841609D01*
X137141163Y-107843918D01*
X137143020Y-107845159D01*
X137172334Y-107850990D01*
X137792131Y-107850989D01*
X137821446Y-107845159D01*
X137854690Y-107822947D01*
X137876902Y-107789703D01*
X137882733Y-107760389D01*
X137882732Y-107322814D01*
X137876902Y-107293499D01*
X137854690Y-107260255D01*
X137821446Y-107238043D01*
X137821445Y-107238042D01*
X137821444Y-107238042D01*
X137792132Y-107232212D01*
X137675130Y-107232212D01*
X137665231Y-107228111D01*
X137661130Y-107218212D01*
X137661201Y-107216808D01*
X137662339Y-107205521D01*
X137678374Y-107046404D01*
X137685858Y-106972141D01*
X137690930Y-106962703D01*
X137699787Y-106959545D01*
X137745762Y-106959545D01*
X137745763Y-106959545D01*
X137775078Y-106953715D01*
X137808322Y-106931503D01*
X137830534Y-106898259D01*
X137832134Y-106890213D01*
X137838087Y-106881305D01*
X137848596Y-106879214D01*
X137857505Y-106885167D01*
G37*
%TD.AperFunction*%
%TA.AperFunction,Conductor*%
G36*
X134210999Y-97027162D02*
G01*
X134217333Y-97035804D01*
X134217734Y-97039129D01*
X134217734Y-97432483D01*
X134220954Y-97448671D01*
X134223565Y-97461800D01*
X134245777Y-97495044D01*
X134279021Y-97517256D01*
X134308335Y-97523087D01*
X134385611Y-97523086D01*
X134395510Y-97527186D01*
X134399533Y-97535612D01*
X134584162Y-99279683D01*
X134581127Y-99289959D01*
X134571714Y-99295079D01*
X134570241Y-99295157D01*
X134555726Y-99295157D01*
X134526410Y-99300988D01*
X134493166Y-99323200D01*
X134470953Y-99356445D01*
X134465123Y-99385758D01*
X134465123Y-100005553D01*
X134468776Y-100023917D01*
X134470954Y-100034870D01*
X134493166Y-100068114D01*
X134526410Y-100090326D01*
X134548572Y-100094734D01*
X134557479Y-100100686D01*
X134559658Y-100110709D01*
X134539008Y-100237791D01*
X134533373Y-100246905D01*
X134525189Y-100249546D01*
X134445968Y-100249546D01*
X134416652Y-100255377D01*
X134383408Y-100277589D01*
X134361195Y-100310834D01*
X134355365Y-100340147D01*
X134355365Y-101249942D01*
X134355366Y-101249945D01*
X134361196Y-101279259D01*
X134383408Y-101312503D01*
X134416652Y-101334715D01*
X134445966Y-101340546D01*
X134745763Y-101340545D01*
X134775078Y-101334715D01*
X134808322Y-101312503D01*
X134830534Y-101279259D01*
X134832134Y-101271213D01*
X134838087Y-101262305D01*
X134848596Y-101260214D01*
X134857505Y-101266167D01*
X134859596Y-101271214D01*
X134861195Y-101279258D01*
X134868566Y-101290289D01*
X134883408Y-101312503D01*
X134916652Y-101334715D01*
X134945966Y-101340546D01*
X135245763Y-101340545D01*
X135275078Y-101334715D01*
X135308322Y-101312503D01*
X135330534Y-101279259D01*
X135332134Y-101271213D01*
X135338087Y-101262305D01*
X135348596Y-101260214D01*
X135357505Y-101266167D01*
X135359596Y-101271214D01*
X135361195Y-101279258D01*
X135368566Y-101290289D01*
X135383408Y-101312503D01*
X135416652Y-101334715D01*
X135445966Y-101340546D01*
X135745763Y-101340545D01*
X135775078Y-101334715D01*
X135808322Y-101312503D01*
X135830534Y-101279259D01*
X135832134Y-101271213D01*
X135838087Y-101262305D01*
X135848596Y-101260214D01*
X135857505Y-101266167D01*
X135859596Y-101271214D01*
X135861195Y-101279258D01*
X135868566Y-101290289D01*
X135883408Y-101312503D01*
X135916652Y-101334715D01*
X135945966Y-101340546D01*
X136245763Y-101340545D01*
X136275078Y-101334715D01*
X136308322Y-101312503D01*
X136330534Y-101279259D01*
X136332134Y-101271213D01*
X136338087Y-101262305D01*
X136348596Y-101260214D01*
X136357505Y-101266167D01*
X136359596Y-101271214D01*
X136361195Y-101279258D01*
X136368566Y-101290289D01*
X136383408Y-101312503D01*
X136416652Y-101334715D01*
X136445966Y-101340546D01*
X136745763Y-101340545D01*
X136775078Y-101334715D01*
X136808322Y-101312503D01*
X136830534Y-101279259D01*
X136832134Y-101271213D01*
X136838087Y-101262305D01*
X136848596Y-101260214D01*
X136857505Y-101266167D01*
X136859596Y-101271214D01*
X136861195Y-101279258D01*
X136868566Y-101290289D01*
X136883408Y-101312503D01*
X136916652Y-101334715D01*
X136945966Y-101340546D01*
X137245763Y-101340545D01*
X137275078Y-101334715D01*
X137308322Y-101312503D01*
X137330534Y-101279259D01*
X137332134Y-101271213D01*
X137338087Y-101262305D01*
X137348596Y-101260214D01*
X137357505Y-101266167D01*
X137359596Y-101271214D01*
X137361195Y-101279258D01*
X137368566Y-101290289D01*
X137383408Y-101312503D01*
X137416652Y-101334715D01*
X137445966Y-101340546D01*
X137745763Y-101340545D01*
X137775078Y-101334715D01*
X137808322Y-101312503D01*
X137830534Y-101279259D01*
X137832134Y-101271213D01*
X137838087Y-101262305D01*
X137848596Y-101260214D01*
X137857505Y-101266167D01*
X137859596Y-101271214D01*
X137861195Y-101279258D01*
X137868566Y-101290289D01*
X137883408Y-101312503D01*
X137916652Y-101334715D01*
X137945966Y-101340546D01*
X138245763Y-101340545D01*
X138275078Y-101334715D01*
X138308322Y-101312503D01*
X138330534Y-101279259D01*
X138332134Y-101271213D01*
X138338087Y-101262305D01*
X138348596Y-101260214D01*
X138357505Y-101266167D01*
X138359596Y-101271214D01*
X138361195Y-101279258D01*
X138368566Y-101290289D01*
X138383408Y-101312503D01*
X138416652Y-101334715D01*
X138445966Y-101340546D01*
X138745763Y-101340545D01*
X138775078Y-101334715D01*
X138808322Y-101312503D01*
X138830534Y-101279259D01*
X138836365Y-101249945D01*
X138836364Y-100340148D01*
X138830534Y-100310833D01*
X138808322Y-100277589D01*
X138775078Y-100255377D01*
X138775077Y-100255376D01*
X138775076Y-100255376D01*
X138746035Y-100249600D01*
X138745764Y-100249546D01*
X138745763Y-100249546D01*
X138445968Y-100249546D01*
X138416652Y-100255377D01*
X138383408Y-100277589D01*
X138361195Y-100310833D01*
X138359595Y-100318878D01*
X138353641Y-100327787D01*
X138343132Y-100329877D01*
X138334223Y-100323923D01*
X138332134Y-100318878D01*
X138330534Y-100310833D01*
X138308322Y-100277589D01*
X138275078Y-100255377D01*
X138275077Y-100255376D01*
X138275076Y-100255376D01*
X138245764Y-100249546D01*
X138241703Y-100249546D01*
X138231804Y-100245445D01*
X138227707Y-100235889D01*
X138227545Y-100229273D01*
X138225446Y-100143610D01*
X138229303Y-100133616D01*
X138233082Y-100130798D01*
X138282821Y-100105456D01*
X138362226Y-100026051D01*
X138413206Y-99925996D01*
X138430773Y-99815084D01*
X138413206Y-99704172D01*
X138362226Y-99604117D01*
X138362225Y-99604115D01*
X138282822Y-99524712D01*
X138182766Y-99473732D01*
X138182767Y-99473732D01*
X138071854Y-99456165D01*
X137960941Y-99473732D01*
X137860885Y-99524712D01*
X137781482Y-99604115D01*
X137730502Y-99704171D01*
X137712935Y-99815084D01*
X137730502Y-99925996D01*
X137781482Y-100026052D01*
X137860885Y-100105455D01*
X137860887Y-100105456D01*
X137916155Y-100133616D01*
X137926905Y-100139093D01*
X137933864Y-100147241D01*
X137934545Y-100151224D01*
X137936710Y-100239554D01*
X137932853Y-100249551D01*
X137925445Y-100253628D01*
X137916652Y-100255376D01*
X137883408Y-100277589D01*
X137861195Y-100310833D01*
X137859595Y-100318878D01*
X137853641Y-100327787D01*
X137843132Y-100329877D01*
X137834223Y-100323923D01*
X137832134Y-100318878D01*
X137830534Y-100310833D01*
X137808322Y-100277589D01*
X137775078Y-100255377D01*
X137775077Y-100255376D01*
X137775076Y-100255376D01*
X137746035Y-100249600D01*
X137745764Y-100249546D01*
X137745763Y-100249546D01*
X137445968Y-100249546D01*
X137416652Y-100255377D01*
X137383408Y-100277589D01*
X137361195Y-100310833D01*
X137359595Y-100318878D01*
X137353641Y-100327787D01*
X137343132Y-100329877D01*
X137334223Y-100323923D01*
X137332134Y-100318878D01*
X137330534Y-100310833D01*
X137308322Y-100277589D01*
X137275078Y-100255377D01*
X137275077Y-100255376D01*
X137275076Y-100255376D01*
X137249465Y-100250282D01*
X137240555Y-100244329D01*
X137238196Y-100236632D01*
X137236680Y-99969718D01*
X137240725Y-99959796D01*
X137250602Y-99955639D01*
X137399240Y-99955639D01*
X137399241Y-99955639D01*
X137428556Y-99949809D01*
X137461800Y-99927597D01*
X137484012Y-99894353D01*
X137489843Y-99865039D01*
X137489842Y-99427464D01*
X137484012Y-99398149D01*
X137461800Y-99364905D01*
X137428556Y-99342693D01*
X137428555Y-99342692D01*
X137428554Y-99342692D01*
X137399242Y-99336862D01*
X136803843Y-99336862D01*
X136793944Y-99332761D01*
X136789843Y-99322862D01*
X136789843Y-98941917D01*
X136793944Y-98932018D01*
X136803843Y-98927917D01*
X137071843Y-98927917D01*
X137071843Y-98706529D01*
X137106843Y-98706529D01*
X137106843Y-98927917D01*
X137392295Y-98927917D01*
X137401048Y-98926178D01*
X137410973Y-98919546D01*
X137417602Y-98909625D01*
X137417602Y-98909623D01*
X137419343Y-98900873D01*
X137419343Y-98706529D01*
X137106843Y-98706529D01*
X137071843Y-98706529D01*
X137071843Y-98450140D01*
X137106843Y-98450140D01*
X137106843Y-98671529D01*
X137419342Y-98671529D01*
X137419342Y-98477187D01*
X137417603Y-98468434D01*
X137410971Y-98458509D01*
X137401049Y-98451880D01*
X137392299Y-98450140D01*
X137106843Y-98450140D01*
X137071843Y-98450140D01*
X136804859Y-98450140D01*
X136794960Y-98446039D01*
X136790859Y-98436140D01*
X136790863Y-98435816D01*
X136791046Y-98427868D01*
X136791029Y-98427611D01*
X136804249Y-97842774D01*
X136808572Y-97832970D01*
X136818561Y-97829095D01*
X136827980Y-97833030D01*
X140264543Y-101159111D01*
X140268805Y-101168941D01*
X140264867Y-101178906D01*
X140256997Y-101182998D01*
X140166866Y-101197274D01*
X140066810Y-101248254D01*
X139987407Y-101327657D01*
X139952043Y-101397061D01*
X139943895Y-101404020D01*
X139933213Y-101403179D01*
X139927928Y-101398483D01*
X139926978Y-101397061D01*
X139923322Y-101391589D01*
X139890078Y-101369377D01*
X139890077Y-101369376D01*
X139890076Y-101369376D01*
X139868041Y-101364993D01*
X139860764Y-101363546D01*
X139860763Y-101363546D01*
X138950968Y-101363546D01*
X138921652Y-101369377D01*
X138888408Y-101391589D01*
X138866195Y-101424834D01*
X138860365Y-101454147D01*
X138860365Y-101753942D01*
X138860366Y-101753945D01*
X138866196Y-101783259D01*
X138888408Y-101816503D01*
X138916236Y-101835096D01*
X138921652Y-101838715D01*
X138929696Y-101840315D01*
X138938605Y-101846268D01*
X138940696Y-101856777D01*
X138934743Y-101865686D01*
X138929696Y-101867777D01*
X138921652Y-101869376D01*
X138888408Y-101891589D01*
X138866195Y-101924834D01*
X138860365Y-101954147D01*
X138860365Y-102253942D01*
X138862764Y-102266004D01*
X138866196Y-102283259D01*
X138888408Y-102316503D01*
X138921652Y-102338715D01*
X138929696Y-102340315D01*
X138938605Y-102346268D01*
X138940696Y-102356777D01*
X138934743Y-102365686D01*
X138929696Y-102367777D01*
X138921652Y-102369376D01*
X138888408Y-102391589D01*
X138866195Y-102424834D01*
X138860365Y-102454147D01*
X138860365Y-102753942D01*
X138860366Y-102753945D01*
X138866196Y-102783259D01*
X138888408Y-102816503D01*
X138917620Y-102836021D01*
X138921652Y-102838715D01*
X138929696Y-102840315D01*
X138938605Y-102846268D01*
X138940696Y-102856777D01*
X138934743Y-102865686D01*
X138929696Y-102867777D01*
X138921652Y-102869376D01*
X138888408Y-102891589D01*
X138866195Y-102924834D01*
X138860365Y-102954147D01*
X138860365Y-103253942D01*
X138860366Y-103253945D01*
X138866196Y-103283259D01*
X138888408Y-103316503D01*
X138921652Y-103338715D01*
X138929696Y-103340315D01*
X138938605Y-103346268D01*
X138940696Y-103356777D01*
X138934743Y-103365686D01*
X138929696Y-103367777D01*
X138921652Y-103369376D01*
X138888408Y-103391589D01*
X138866195Y-103424834D01*
X138860365Y-103454147D01*
X138860365Y-103753942D01*
X138864748Y-103775980D01*
X138866196Y-103783259D01*
X138888408Y-103816503D01*
X138911957Y-103832237D01*
X138921652Y-103838715D01*
X138929696Y-103840315D01*
X138938605Y-103846268D01*
X138940696Y-103856777D01*
X138934743Y-103865686D01*
X138929696Y-103867777D01*
X138921652Y-103869376D01*
X138888408Y-103891589D01*
X138866195Y-103924834D01*
X138860365Y-103954147D01*
X138860365Y-104253942D01*
X138860366Y-104253945D01*
X138866196Y-104283259D01*
X138888408Y-104316503D01*
X138921652Y-104338715D01*
X138929696Y-104340315D01*
X138938605Y-104346268D01*
X138940696Y-104356777D01*
X138934743Y-104365686D01*
X138929696Y-104367777D01*
X138921652Y-104369376D01*
X138888408Y-104391589D01*
X138866195Y-104424834D01*
X138860365Y-104454147D01*
X138860365Y-104753942D01*
X138860366Y-104753945D01*
X138866196Y-104783259D01*
X138888408Y-104816503D01*
X138906292Y-104828452D01*
X138921652Y-104838715D01*
X138929696Y-104840315D01*
X138938605Y-104846268D01*
X138940696Y-104856777D01*
X138934743Y-104865686D01*
X138929696Y-104867777D01*
X138921652Y-104869376D01*
X138888408Y-104891589D01*
X138866195Y-104924834D01*
X138860365Y-104954147D01*
X138860365Y-105253942D01*
X138860366Y-105253945D01*
X138866196Y-105283259D01*
X138888408Y-105316503D01*
X138912765Y-105332777D01*
X138921652Y-105338715D01*
X138929696Y-105340315D01*
X138938605Y-105346268D01*
X138940696Y-105356777D01*
X138934743Y-105365686D01*
X138929696Y-105367777D01*
X138921652Y-105369376D01*
X138888408Y-105391589D01*
X138866195Y-105424834D01*
X138860365Y-105454147D01*
X138860365Y-105753942D01*
X138863387Y-105769133D01*
X138866196Y-105783259D01*
X138888408Y-105816503D01*
X138921652Y-105838715D01*
X138950966Y-105844546D01*
X139440591Y-105844545D01*
X139450289Y-105848448D01*
X140069770Y-106443401D01*
X140287413Y-106652427D01*
X140305856Y-106670139D01*
X140310155Y-106679953D01*
X140310158Y-106680236D01*
X140310158Y-107120748D01*
X140312152Y-107130771D01*
X140315989Y-107150065D01*
X140338201Y-107183309D01*
X140371445Y-107205521D01*
X140400759Y-107211352D01*
X140986556Y-107211351D01*
X141015871Y-107205521D01*
X141049115Y-107183309D01*
X141071327Y-107150065D01*
X141077158Y-107120751D01*
X141077158Y-107120748D01*
X141176158Y-107120748D01*
X141178152Y-107130771D01*
X141181989Y-107150065D01*
X141204201Y-107183309D01*
X141237445Y-107205521D01*
X141266759Y-107211352D01*
X141852556Y-107211351D01*
X141881871Y-107205521D01*
X141915115Y-107183309D01*
X141937327Y-107150065D01*
X141943158Y-107120751D01*
X141943157Y-107000253D01*
X141947257Y-106990355D01*
X141957152Y-106986254D01*
X143237156Y-106985941D01*
X143247055Y-106990039D01*
X143251158Y-106999938D01*
X143251158Y-107325248D01*
X143254811Y-107343612D01*
X143256989Y-107354565D01*
X143279201Y-107387809D01*
X143312445Y-107410021D01*
X143341759Y-107415852D01*
X143873688Y-107415851D01*
X143903003Y-107410021D01*
X143936247Y-107387809D01*
X143958459Y-107354565D01*
X143964290Y-107325251D01*
X143964289Y-106857852D01*
X144759527Y-106857852D01*
X144759527Y-107318304D01*
X144761265Y-107327057D01*
X144767897Y-107336982D01*
X144777819Y-107343611D01*
X144786570Y-107345351D01*
X145028092Y-107345351D01*
X145028092Y-106857852D01*
X145063092Y-106857852D01*
X145063092Y-107345351D01*
X145304610Y-107345351D01*
X145313363Y-107343612D01*
X145323288Y-107336980D01*
X145329917Y-107327059D01*
X145329917Y-107327057D01*
X145331658Y-107318307D01*
X145331658Y-106857852D01*
X145063092Y-106857852D01*
X145028092Y-106857852D01*
X144759527Y-106857852D01*
X143964289Y-106857852D01*
X143964289Y-106822852D01*
X144759526Y-106822852D01*
X145028092Y-106822852D01*
X145028092Y-106335352D01*
X145063092Y-106335352D01*
X145063092Y-106822852D01*
X145331657Y-106822852D01*
X145331657Y-106362399D01*
X145329918Y-106353646D01*
X145323286Y-106343721D01*
X145313364Y-106337092D01*
X145304614Y-106335352D01*
X145063092Y-106335352D01*
X145028092Y-106335352D01*
X144786573Y-106335352D01*
X144777820Y-106337091D01*
X144767895Y-106343723D01*
X144761266Y-106353644D01*
X144761266Y-106353646D01*
X144759526Y-106362396D01*
X144759526Y-106822852D01*
X143964289Y-106822852D01*
X143964289Y-106355454D01*
X143958459Y-106326139D01*
X143936247Y-106292895D01*
X143903003Y-106270683D01*
X143903002Y-106270682D01*
X143903001Y-106270682D01*
X143880966Y-106266299D01*
X143873689Y-106264852D01*
X143873688Y-106264852D01*
X143341761Y-106264852D01*
X143312445Y-106270683D01*
X143279201Y-106292895D01*
X143256988Y-106326140D01*
X143251158Y-106355453D01*
X143251158Y-106680941D01*
X143247057Y-106690840D01*
X143237161Y-106694941D01*
X141957160Y-106695254D01*
X141947260Y-106691156D01*
X141943157Y-106681257D01*
X141943157Y-106560955D01*
X141939252Y-106541320D01*
X141937327Y-106531639D01*
X141915115Y-106498395D01*
X141881871Y-106476183D01*
X141881870Y-106476182D01*
X141881869Y-106476182D01*
X141859834Y-106471799D01*
X141852557Y-106470352D01*
X141852556Y-106470352D01*
X141266761Y-106470352D01*
X141237445Y-106476183D01*
X141204201Y-106498395D01*
X141181988Y-106531640D01*
X141176158Y-106560953D01*
X141176158Y-107120748D01*
X141077158Y-107120748D01*
X141077157Y-106560954D01*
X141071327Y-106531639D01*
X141049115Y-106498395D01*
X141015871Y-106476183D01*
X141015870Y-106476182D01*
X141015869Y-106476182D01*
X140986557Y-106470352D01*
X140523571Y-106470352D01*
X140513873Y-106466449D01*
X140434801Y-106390508D01*
X140064173Y-106034553D01*
X139884692Y-105862178D01*
X139880393Y-105852364D01*
X139884293Y-105842383D01*
X139889040Y-105839144D01*
X139890071Y-105838716D01*
X139890078Y-105838715D01*
X139923322Y-105816503D01*
X139945534Y-105783259D01*
X139951365Y-105753945D01*
X139951364Y-105454148D01*
X139945534Y-105424833D01*
X139923322Y-105391589D01*
X139897627Y-105374421D01*
X139890077Y-105369376D01*
X139882032Y-105367776D01*
X139873123Y-105361822D01*
X139871033Y-105351313D01*
X139876987Y-105342404D01*
X139882030Y-105340315D01*
X139890078Y-105338715D01*
X139898965Y-105332777D01*
X139904389Y-105329153D01*
X139914230Y-105326946D01*
X148022536Y-106535805D01*
X148031722Y-106541320D01*
X148034298Y-106547460D01*
X148035076Y-106552367D01*
X148035077Y-106552372D01*
X148086057Y-106652428D01*
X148165460Y-106731831D01*
X148165462Y-106731832D01*
X148264668Y-106782379D01*
X148271626Y-106790526D01*
X148270785Y-106801208D01*
X148265201Y-106807039D01*
X142609282Y-110004672D01*
X142609260Y-110004683D01*
X142562301Y-110031234D01*
X142545663Y-110040638D01*
X142545633Y-110040657D01*
X142542123Y-110042642D01*
X142542115Y-110042648D01*
X142540076Y-110044363D01*
X142539482Y-110044811D01*
X142507880Y-110066108D01*
X142504873Y-110068498D01*
X142501363Y-110070535D01*
X142495265Y-110072973D01*
X142472058Y-110094588D01*
X142472016Y-110094627D01*
X142466322Y-110099930D01*
X142466321Y-110099929D01*
X142455464Y-110110044D01*
X142417913Y-110145017D01*
X142113722Y-110428335D01*
X142103683Y-110432081D01*
X142094602Y-110428301D01*
X141992700Y-110332722D01*
X141044691Y-109443532D01*
X139049863Y-107572474D01*
X139045448Y-107562711D01*
X139045441Y-107562263D01*
X139045441Y-107372865D01*
X139045441Y-107372864D01*
X139039611Y-107343549D01*
X139017399Y-107310305D01*
X138984155Y-107288093D01*
X138984154Y-107288092D01*
X138984153Y-107288092D01*
X138954841Y-107282262D01*
X138936730Y-107282262D01*
X138926831Y-107278161D01*
X138922742Y-107268845D01*
X138917273Y-107137611D01*
X138885490Y-106374985D01*
X138867223Y-106295702D01*
X138852036Y-106273314D01*
X138838778Y-106253769D01*
X138836364Y-106245910D01*
X138836364Y-105959149D01*
X138835857Y-105956600D01*
X138830534Y-105929833D01*
X138808322Y-105896589D01*
X138775078Y-105874377D01*
X138775077Y-105874376D01*
X138775076Y-105874376D01*
X138753041Y-105869993D01*
X138745764Y-105868546D01*
X138745763Y-105868546D01*
X138445968Y-105868546D01*
X138416652Y-105874377D01*
X138383408Y-105896589D01*
X138361195Y-105929833D01*
X138359595Y-105937878D01*
X138353641Y-105946787D01*
X138343132Y-105948877D01*
X138334223Y-105942923D01*
X138332134Y-105937878D01*
X138330534Y-105929833D01*
X138308322Y-105896589D01*
X138275078Y-105874377D01*
X138275077Y-105874376D01*
X138275076Y-105874376D01*
X138253041Y-105869993D01*
X138245764Y-105868546D01*
X138245763Y-105868546D01*
X137945968Y-105868546D01*
X137916652Y-105874377D01*
X137883408Y-105896589D01*
X137861195Y-105929833D01*
X137859595Y-105937878D01*
X137853641Y-105946787D01*
X137843132Y-105948877D01*
X137834223Y-105942923D01*
X137832134Y-105937878D01*
X137830534Y-105929833D01*
X137808322Y-105896589D01*
X137775078Y-105874377D01*
X137775077Y-105874376D01*
X137775076Y-105874376D01*
X137753041Y-105869993D01*
X137745764Y-105868546D01*
X137745763Y-105868546D01*
X137445968Y-105868546D01*
X137416652Y-105874377D01*
X137383408Y-105896589D01*
X137361195Y-105929833D01*
X137359595Y-105937878D01*
X137353641Y-105946787D01*
X137343132Y-105948877D01*
X137334223Y-105942923D01*
X137332134Y-105937878D01*
X137330534Y-105929833D01*
X137308322Y-105896589D01*
X137275078Y-105874377D01*
X137275077Y-105874376D01*
X137275076Y-105874376D01*
X137253041Y-105869993D01*
X137245764Y-105868546D01*
X137245763Y-105868546D01*
X136945968Y-105868546D01*
X136916652Y-105874377D01*
X136883408Y-105896589D01*
X136861195Y-105929833D01*
X136859595Y-105937878D01*
X136853641Y-105946787D01*
X136843132Y-105948877D01*
X136834223Y-105942923D01*
X136832134Y-105937878D01*
X136830534Y-105929833D01*
X136808322Y-105896589D01*
X136775078Y-105874377D01*
X136775077Y-105874376D01*
X136775076Y-105874376D01*
X136753041Y-105869993D01*
X136745764Y-105868546D01*
X136745763Y-105868546D01*
X136445968Y-105868546D01*
X136416652Y-105874377D01*
X136383408Y-105896589D01*
X136361195Y-105929833D01*
X136359595Y-105937878D01*
X136353641Y-105946787D01*
X136343132Y-105948877D01*
X136334223Y-105942923D01*
X136332134Y-105937878D01*
X136330534Y-105929833D01*
X136308322Y-105896589D01*
X136275078Y-105874377D01*
X136275077Y-105874376D01*
X136275076Y-105874376D01*
X136245764Y-105868546D01*
X136018266Y-105868546D01*
X136008367Y-105864445D01*
X136005507Y-105860308D01*
X136003104Y-105854987D01*
X136003103Y-105854967D01*
X136000647Y-105849533D01*
X135995634Y-105838442D01*
X135992749Y-105832051D01*
X135992610Y-105831743D01*
X135992593Y-105831712D01*
X135983379Y-105811325D01*
X135983378Y-105811324D01*
X135983377Y-105811321D01*
X135928667Y-105747757D01*
X135928666Y-105747756D01*
X135928665Y-105747755D01*
X135869891Y-105709806D01*
X135863799Y-105700992D01*
X135865724Y-105690451D01*
X135874538Y-105684359D01*
X135877485Y-105684045D01*
X136578365Y-105684045D01*
X136578365Y-103621546D01*
X136613365Y-103621546D01*
X136613365Y-105684045D01*
X138648817Y-105684045D01*
X138657570Y-105682306D01*
X138667495Y-105675674D01*
X138674124Y-105665753D01*
X138674124Y-105665751D01*
X138675865Y-105657001D01*
X138675865Y-103621546D01*
X136613365Y-103621546D01*
X136578365Y-103621546D01*
X134515866Y-103621546D01*
X134515866Y-105656999D01*
X134516823Y-105661819D01*
X134514729Y-105672328D01*
X134505818Y-105678278D01*
X134503091Y-105678546D01*
X134490618Y-105678546D01*
X134490545Y-105678538D01*
X134489039Y-105678538D01*
X134479662Y-105678540D01*
X134461638Y-105678544D01*
X134461624Y-105678538D01*
X134455830Y-105678538D01*
X134438322Y-105678538D01*
X134438240Y-105678538D01*
X134437980Y-105678546D01*
X134436709Y-105678546D01*
X134436707Y-105678546D01*
X134436699Y-105678547D01*
X134435901Y-105678761D01*
X134434937Y-105678947D01*
X134403568Y-105682749D01*
X134372968Y-105690267D01*
X134371996Y-105690435D01*
X134371118Y-105690522D01*
X134371112Y-105690524D01*
X134369828Y-105691009D01*
X134369667Y-105691064D01*
X134355481Y-105696429D01*
X134353180Y-105697299D01*
X134350311Y-105698383D01*
X134339601Y-105698045D01*
X134332267Y-105690233D01*
X134331364Y-105685286D01*
X134331364Y-105454149D01*
X134328634Y-105440423D01*
X134325534Y-105424833D01*
X134303322Y-105391589D01*
X134277627Y-105374421D01*
X134270077Y-105369376D01*
X134262032Y-105367776D01*
X134253123Y-105361822D01*
X134251033Y-105351313D01*
X134256987Y-105342404D01*
X134262030Y-105340315D01*
X134270078Y-105338715D01*
X134303322Y-105316503D01*
X134325534Y-105283259D01*
X134331365Y-105253945D01*
X134331364Y-104954148D01*
X134325534Y-104924833D01*
X134303322Y-104891589D01*
X134278142Y-104874765D01*
X134270077Y-104869376D01*
X134262032Y-104867776D01*
X134253123Y-104861822D01*
X134251033Y-104851313D01*
X134256987Y-104842404D01*
X134262030Y-104840315D01*
X134270078Y-104838715D01*
X134303322Y-104816503D01*
X134325534Y-104783259D01*
X134331365Y-104753945D01*
X134331364Y-104454148D01*
X134325534Y-104424833D01*
X134303322Y-104391589D01*
X134270078Y-104369377D01*
X134270077Y-104369376D01*
X134262032Y-104367776D01*
X134253123Y-104361822D01*
X134251033Y-104351313D01*
X134256987Y-104342404D01*
X134262030Y-104340315D01*
X134270078Y-104338715D01*
X134303322Y-104316503D01*
X134325534Y-104283259D01*
X134331365Y-104253945D01*
X134331364Y-103954148D01*
X134325534Y-103924833D01*
X134303322Y-103891589D01*
X134270078Y-103869377D01*
X134270077Y-103869376D01*
X134262032Y-103867776D01*
X134253123Y-103861822D01*
X134251033Y-103851313D01*
X134256987Y-103842404D01*
X134262030Y-103840315D01*
X134270078Y-103838715D01*
X134303322Y-103816503D01*
X134325534Y-103783259D01*
X134331365Y-103753945D01*
X134331364Y-103586546D01*
X134515865Y-103586546D01*
X136578365Y-103586546D01*
X136578365Y-101524046D01*
X136613365Y-101524046D01*
X136613365Y-103586546D01*
X138675864Y-103586546D01*
X138675864Y-101551093D01*
X138674125Y-101542340D01*
X138667493Y-101532415D01*
X138657571Y-101525786D01*
X138648821Y-101524046D01*
X136613365Y-101524046D01*
X136578365Y-101524046D01*
X134542912Y-101524046D01*
X134534159Y-101525785D01*
X134524234Y-101532417D01*
X134517605Y-101542338D01*
X134517605Y-101542340D01*
X134515865Y-101551090D01*
X134515865Y-103586546D01*
X134331364Y-103586546D01*
X134331364Y-103454148D01*
X134325534Y-103424833D01*
X134303322Y-103391589D01*
X134281109Y-103376747D01*
X134270077Y-103369376D01*
X134262032Y-103367776D01*
X134253123Y-103361822D01*
X134251033Y-103351313D01*
X134256987Y-103342404D01*
X134262030Y-103340315D01*
X134270078Y-103338715D01*
X134303322Y-103316503D01*
X134325534Y-103283259D01*
X134331365Y-103253945D01*
X134331364Y-102954148D01*
X134325534Y-102924833D01*
X134303322Y-102891589D01*
X134270078Y-102869377D01*
X134270077Y-102869376D01*
X134262032Y-102867776D01*
X134253123Y-102861822D01*
X134251033Y-102851313D01*
X134256987Y-102842404D01*
X134262030Y-102840315D01*
X134270078Y-102838715D01*
X134303322Y-102816503D01*
X134325534Y-102783259D01*
X134331365Y-102753945D01*
X134331364Y-102454148D01*
X134325534Y-102424833D01*
X134303322Y-102391589D01*
X134270078Y-102369377D01*
X134270077Y-102369376D01*
X134262032Y-102367776D01*
X134253123Y-102361822D01*
X134251033Y-102351313D01*
X134256987Y-102342404D01*
X134262030Y-102340315D01*
X134270078Y-102338715D01*
X134303322Y-102316503D01*
X134325534Y-102283259D01*
X134331365Y-102253945D01*
X134331364Y-101954148D01*
X134325534Y-101924833D01*
X134303322Y-101891589D01*
X134270442Y-101869620D01*
X134270077Y-101869376D01*
X134262032Y-101867776D01*
X134253123Y-101861822D01*
X134251033Y-101851313D01*
X134256987Y-101842404D01*
X134262030Y-101840315D01*
X134270078Y-101838715D01*
X134303322Y-101816503D01*
X134325534Y-101783259D01*
X134331365Y-101753945D01*
X134331364Y-101454148D01*
X134325534Y-101424833D01*
X134303322Y-101391589D01*
X134270078Y-101369377D01*
X134270077Y-101369376D01*
X134270076Y-101369376D01*
X134248041Y-101364993D01*
X134240764Y-101363546D01*
X134240763Y-101363546D01*
X133330968Y-101363546D01*
X133301652Y-101369377D01*
X133268408Y-101391589D01*
X133246195Y-101424834D01*
X133240365Y-101454147D01*
X133240365Y-101753942D01*
X133240366Y-101753945D01*
X133246196Y-101783259D01*
X133268408Y-101816503D01*
X133296236Y-101835096D01*
X133301652Y-101838715D01*
X133309696Y-101840315D01*
X133318605Y-101846268D01*
X133320696Y-101856777D01*
X133314743Y-101865686D01*
X133309696Y-101867777D01*
X133301652Y-101869376D01*
X133268408Y-101891589D01*
X133246195Y-101924834D01*
X133240365Y-101954147D01*
X133240365Y-102253942D01*
X133242764Y-102266004D01*
X133246196Y-102283259D01*
X133268408Y-102316503D01*
X133301652Y-102338715D01*
X133309696Y-102340315D01*
X133318605Y-102346268D01*
X133320696Y-102356777D01*
X133314743Y-102365686D01*
X133309696Y-102367777D01*
X133301652Y-102369376D01*
X133275185Y-102387060D01*
X133269133Y-102391105D01*
X133267262Y-102392355D01*
X133266961Y-102391904D01*
X133258992Y-102395206D01*
X133249093Y-102391105D01*
X133174972Y-102316984D01*
X133074916Y-102266004D01*
X133074917Y-102266004D01*
X133014993Y-102256513D01*
X132964004Y-102248437D01*
X132964003Y-102248437D01*
X132922077Y-102255077D01*
X132911658Y-102252575D01*
X132908079Y-102248771D01*
X132749201Y-101999379D01*
X132747341Y-101988827D01*
X132752670Y-101981038D01*
X132752597Y-101980965D01*
X132752987Y-101980574D01*
X132753232Y-101980215D01*
X132753572Y-101979989D01*
X132775784Y-101946745D01*
X132781615Y-101917431D01*
X132781614Y-101467356D01*
X132775784Y-101438041D01*
X132753572Y-101404797D01*
X132720328Y-101382585D01*
X132720327Y-101382584D01*
X132720326Y-101382584D01*
X132691014Y-101376754D01*
X132095615Y-101376754D01*
X132085716Y-101372653D01*
X132081615Y-101362754D01*
X132081615Y-100981809D01*
X132085716Y-100971910D01*
X132095615Y-100967809D01*
X132363615Y-100967809D01*
X132398614Y-100967809D01*
X132684067Y-100967809D01*
X132692820Y-100966070D01*
X132702745Y-100959438D01*
X132709374Y-100949517D01*
X132709374Y-100949515D01*
X132711115Y-100940765D01*
X132711115Y-100740171D01*
X132398615Y-100740171D01*
X132398614Y-100967809D01*
X132363615Y-100967809D01*
X132363615Y-100477532D01*
X132398614Y-100477532D01*
X132398615Y-100705171D01*
X132711114Y-100705171D01*
X132711114Y-100504579D01*
X132709375Y-100495826D01*
X132702743Y-100485901D01*
X132692821Y-100479272D01*
X132684071Y-100477532D01*
X132398614Y-100477532D01*
X132363615Y-100477532D01*
X132124788Y-100477532D01*
X132114889Y-100473431D01*
X132110788Y-100463532D01*
X132112819Y-100456270D01*
X134191767Y-97031863D01*
X134200409Y-97025530D01*
X134210999Y-97027162D01*
G37*
%TD.AperFunction*%
%TA.AperFunction,Conductor*%
G36*
X125734989Y-100299620D02*
G01*
X125739267Y-100308166D01*
X126688545Y-108471077D01*
X126685616Y-108481384D01*
X126677370Y-108486425D01*
X126653898Y-108491093D01*
X126620654Y-108513305D01*
X126598441Y-108546550D01*
X126592611Y-108575863D01*
X126592611Y-109185720D01*
X126591446Y-109191311D01*
X126128784Y-110253433D01*
X126128756Y-110253509D01*
X126126354Y-110259026D01*
X126110983Y-110308002D01*
X126110981Y-110308013D01*
X126106706Y-110329383D01*
X126100743Y-110338286D01*
X126090232Y-110340365D01*
X126085200Y-110338278D01*
X126076885Y-110332722D01*
X126076884Y-110332721D01*
X126076883Y-110332721D01*
X126047571Y-110326891D01*
X125995882Y-110326891D01*
X125985983Y-110322790D01*
X125981887Y-110313269D01*
X125886309Y-106779049D01*
X125711366Y-100310159D01*
X125715198Y-100300155D01*
X125724983Y-100295788D01*
X125734989Y-100299620D01*
G37*
%TD.AperFunction*%
%TA.AperFunction,Conductor*%
G36*
X125949835Y-99392766D02*
G01*
X125952317Y-99395306D01*
X125959910Y-99405360D01*
X126042906Y-99515264D01*
X126193629Y-99652666D01*
X126367031Y-99760032D01*
X126367030Y-99760032D01*
X126367033Y-99760033D01*
X126557214Y-99833709D01*
X126757694Y-99871185D01*
X126859449Y-99871185D01*
X126869348Y-99875286D01*
X126872914Y-99881355D01*
X127477555Y-102008031D01*
X128806055Y-106680704D01*
X128804818Y-106691348D01*
X128804530Y-106691841D01*
X128005241Y-107997816D01*
X127715481Y-108471262D01*
X127711008Y-108478570D01*
X127702343Y-108484873D01*
X127699067Y-108485262D01*
X127674497Y-108485262D01*
X127664598Y-108481161D01*
X127660497Y-108471262D01*
X127661508Y-108466039D01*
X128095027Y-107387808D01*
X128195065Y-107138996D01*
X128202562Y-107131342D01*
X128208054Y-107130220D01*
X128402837Y-107130220D01*
X128402838Y-107130220D01*
X128432153Y-107124390D01*
X128465397Y-107102178D01*
X128487609Y-107068934D01*
X128493440Y-107039620D01*
X128493439Y-106419823D01*
X128487609Y-106390508D01*
X128465397Y-106357264D01*
X128432153Y-106335052D01*
X128432152Y-106335051D01*
X128432151Y-106335051D01*
X128410116Y-106330668D01*
X128402839Y-106329221D01*
X128402838Y-106329221D01*
X128002765Y-106329221D01*
X127973449Y-106335052D01*
X127940205Y-106357264D01*
X127917992Y-106390509D01*
X127912162Y-106419822D01*
X127912162Y-107039619D01*
X127914400Y-107050872D01*
X127913658Y-107058825D01*
X127356218Y-108445268D01*
X127356183Y-108445335D01*
X127349603Y-108461707D01*
X127348655Y-108463429D01*
X127348703Y-108463455D01*
X127348266Y-108464264D01*
X127342347Y-108479769D01*
X127336155Y-108495171D01*
X127335929Y-108496054D01*
X127335874Y-108496039D01*
X127335401Y-108497940D01*
X127329078Y-108514479D01*
X127329036Y-108514638D01*
X127200967Y-108850140D01*
X127193606Y-108857926D01*
X127182895Y-108858226D01*
X127175109Y-108850865D01*
X127173888Y-108845147D01*
X127173888Y-108575865D01*
X127172000Y-108566373D01*
X127168058Y-108546549D01*
X127145846Y-108513305D01*
X127112602Y-108491093D01*
X127112601Y-108491092D01*
X127112600Y-108491092D01*
X127083288Y-108485262D01*
X126995622Y-108485262D01*
X126985723Y-108481161D01*
X126981716Y-108472879D01*
X126909789Y-107854373D01*
X125927239Y-99405357D01*
X125930168Y-99395053D01*
X125939528Y-99389837D01*
X125949835Y-99392766D01*
G37*
%TD.AperFunction*%
%TA.AperFunction,Conductor*%
G36*
X130699675Y-99177473D02*
G01*
X130701314Y-99182375D01*
X131189173Y-102722334D01*
X131186462Y-102732700D01*
X131177215Y-102738114D01*
X131166849Y-102735403D01*
X131162082Y-102728847D01*
X131081188Y-102496444D01*
X130140235Y-99793154D01*
X130140853Y-99782459D01*
X130146084Y-99776653D01*
X130305184Y-99678144D01*
X130455907Y-99540742D01*
X130578816Y-99377984D01*
X130669725Y-99195413D01*
X130673981Y-99180452D01*
X130680632Y-99172056D01*
X130691275Y-99170820D01*
X130699675Y-99177473D01*
G37*
%TD.AperFunction*%
%TA.AperFunction,Conductor*%
G36*
X134810288Y-96944568D02*
G01*
X135120734Y-97247538D01*
X135124955Y-97257385D01*
X135124956Y-97257556D01*
X135124956Y-97432483D01*
X135128176Y-97448671D01*
X135130787Y-97461800D01*
X135152999Y-97495044D01*
X135186243Y-97517256D01*
X135215557Y-97523087D01*
X135603132Y-97523086D01*
X135632447Y-97517256D01*
X135665691Y-97495044D01*
X135687903Y-97461800D01*
X135693734Y-97432486D01*
X135693733Y-97431939D01*
X135697826Y-97422039D01*
X135707722Y-97417931D01*
X135707904Y-97417931D01*
X136205903Y-97425130D01*
X136215742Y-97429374D01*
X136219700Y-97439128D01*
X136219700Y-97448669D01*
X136225531Y-97477986D01*
X136225532Y-97477988D01*
X136227733Y-97481282D01*
X136230089Y-97489376D01*
X136209045Y-98420327D01*
X136208107Y-98425060D01*
X136207843Y-98425741D01*
X136207843Y-98473503D01*
X136207841Y-98473661D01*
X136207381Y-98493957D01*
X136207659Y-98495650D01*
X136207843Y-98497913D01*
X136207843Y-99850634D01*
X136207354Y-99854301D01*
X136205341Y-99861716D01*
X136205341Y-99861717D01*
X136205341Y-99861718D01*
X136207862Y-99885741D01*
X136211017Y-99915815D01*
X136215195Y-99955640D01*
X136244410Y-100234085D01*
X136241364Y-100244358D01*
X136231947Y-100249470D01*
X136230486Y-100249546D01*
X135945968Y-100249546D01*
X135916652Y-100255377D01*
X135883408Y-100277589D01*
X135861195Y-100310833D01*
X135859595Y-100318878D01*
X135853641Y-100327787D01*
X135843132Y-100329877D01*
X135834223Y-100323923D01*
X135832134Y-100318878D01*
X135830534Y-100310833D01*
X135808322Y-100277589D01*
X135775078Y-100255377D01*
X135775077Y-100255376D01*
X135775076Y-100255376D01*
X135746035Y-100249600D01*
X135745764Y-100249546D01*
X135745763Y-100249546D01*
X135445968Y-100249546D01*
X135416652Y-100255377D01*
X135383408Y-100277589D01*
X135361195Y-100310833D01*
X135359595Y-100318878D01*
X135353641Y-100327787D01*
X135343132Y-100329877D01*
X135334223Y-100323923D01*
X135332134Y-100318878D01*
X135330534Y-100310833D01*
X135308322Y-100277589D01*
X135275078Y-100255377D01*
X135275077Y-100255376D01*
X135275076Y-100255376D01*
X135246035Y-100249600D01*
X135245764Y-100249546D01*
X135245763Y-100249546D01*
X134945968Y-100249546D01*
X134916652Y-100255377D01*
X134883408Y-100277589D01*
X134861195Y-100310833D01*
X134859595Y-100318878D01*
X134853641Y-100327787D01*
X134843132Y-100329877D01*
X134834223Y-100323923D01*
X134832134Y-100318878D01*
X134830534Y-100310833D01*
X134826694Y-100305086D01*
X134824517Y-100295067D01*
X134854930Y-100107909D01*
X134860566Y-100098797D01*
X134868749Y-100096156D01*
X134993298Y-100096156D01*
X134993299Y-100096156D01*
X135022614Y-100090326D01*
X135055858Y-100068114D01*
X135078070Y-100034870D01*
X135083901Y-100005556D01*
X135083900Y-99713157D01*
X135492846Y-99713157D01*
X135492846Y-99998609D01*
X135494584Y-100007362D01*
X135501216Y-100017287D01*
X135511138Y-100023916D01*
X135519889Y-100025656D01*
X135714234Y-100025656D01*
X135714234Y-99713157D01*
X135749234Y-99713157D01*
X135749234Y-100025656D01*
X135943575Y-100025656D01*
X135952328Y-100023917D01*
X135962253Y-100017285D01*
X135968882Y-100007364D01*
X135968882Y-100007362D01*
X135970623Y-99998612D01*
X135970623Y-99713157D01*
X135749234Y-99713157D01*
X135714234Y-99713157D01*
X135492846Y-99713157D01*
X135083900Y-99713157D01*
X135083900Y-99678157D01*
X135492845Y-99678157D01*
X135714234Y-99678157D01*
X135714234Y-99365657D01*
X135749234Y-99365657D01*
X135749234Y-99678157D01*
X135970622Y-99678157D01*
X135970622Y-99392704D01*
X135968883Y-99383951D01*
X135962251Y-99374026D01*
X135952329Y-99367397D01*
X135943579Y-99365657D01*
X135749234Y-99365657D01*
X135714234Y-99365657D01*
X135519892Y-99365657D01*
X135511139Y-99367396D01*
X135501214Y-99374028D01*
X135494585Y-99383949D01*
X135494585Y-99383951D01*
X135492845Y-99392701D01*
X135492845Y-99678157D01*
X135083900Y-99678157D01*
X135083900Y-99385759D01*
X135078070Y-99356444D01*
X135055858Y-99323200D01*
X135022614Y-99300988D01*
X135022613Y-99300987D01*
X135022612Y-99300987D01*
X134993300Y-99295157D01*
X134891023Y-99295157D01*
X134881124Y-99291056D01*
X134877101Y-99282631D01*
X134843043Y-98960910D01*
X134692283Y-97536785D01*
X134695318Y-97526510D01*
X134703473Y-97521581D01*
X134725225Y-97517256D01*
X134758469Y-97495044D01*
X134780681Y-97461800D01*
X134786512Y-97432486D01*
X134786511Y-96954587D01*
X134790611Y-96944689D01*
X134800511Y-96940588D01*
X134810288Y-96944568D01*
G37*
%TD.AperFunction*%
%TA.AperFunction,Conductor*%
G36*
X149295399Y-93204601D02*
G01*
X149299500Y-93214500D01*
X149299500Y-95045762D01*
X149308868Y-95065218D01*
X149309903Y-95068176D01*
X149314709Y-95089230D01*
X149328176Y-95106116D01*
X149329841Y-95108766D01*
X149339212Y-95128224D01*
X149339213Y-95128225D01*
X149356094Y-95141688D01*
X149358310Y-95143904D01*
X149371774Y-95160786D01*
X149371776Y-95160788D01*
X149371777Y-95160788D01*
X149371778Y-95160789D01*
X149391229Y-95170157D01*
X149393883Y-95171824D01*
X149405809Y-95181335D01*
X149410769Y-95185290D01*
X149431824Y-95190095D01*
X149434776Y-95191128D01*
X149454237Y-95200500D01*
X149477410Y-95200500D01*
X154285500Y-95200500D01*
X154295399Y-95204601D01*
X154299500Y-95214500D01*
X154299500Y-103663500D01*
X154295399Y-103673399D01*
X154285500Y-103677500D01*
X151135909Y-103677500D01*
X151128685Y-103679149D01*
X151125570Y-103679500D01*
X151109735Y-103679500D01*
X151095471Y-103686368D01*
X151092514Y-103687403D01*
X151069270Y-103692709D01*
X151069268Y-103692710D01*
X151050623Y-103707578D01*
X151047970Y-103709245D01*
X151027278Y-103719210D01*
X151027274Y-103719213D01*
X151012951Y-103737173D01*
X151010735Y-103739389D01*
X150997713Y-103749774D01*
X150997710Y-103749778D01*
X150990485Y-103764780D01*
X150988818Y-103767433D01*
X150970210Y-103790768D01*
X150970209Y-103790770D01*
X150963568Y-103819862D01*
X150962534Y-103822818D01*
X150958000Y-103832237D01*
X150958000Y-103842687D01*
X150957649Y-103845802D01*
X150955000Y-103857408D01*
X150955000Y-112152590D01*
X150970209Y-112219229D01*
X150970210Y-112219231D01*
X151027276Y-112290788D01*
X151027277Y-112290788D01*
X151027278Y-112290789D01*
X151070731Y-112311716D01*
X151073133Y-112313225D01*
X151073397Y-112313352D01*
X151076077Y-112314289D01*
X151109737Y-112330500D01*
X151201263Y-112330500D01*
X151201915Y-112330185D01*
X151202539Y-112329886D01*
X151208612Y-112328500D01*
X154285500Y-112328500D01*
X154295399Y-112332601D01*
X154299500Y-112342500D01*
X154299500Y-120785500D01*
X154295399Y-120795399D01*
X154285500Y-120799500D01*
X149454235Y-120799500D01*
X149434779Y-120808868D01*
X149431822Y-120809903D01*
X149410770Y-120814709D01*
X149410767Y-120814710D01*
X149393881Y-120828176D01*
X149391228Y-120829843D01*
X149371778Y-120839210D01*
X149371774Y-120839213D01*
X149358311Y-120856095D01*
X149356095Y-120858311D01*
X149339213Y-120871774D01*
X149339210Y-120871778D01*
X149329843Y-120891228D01*
X149328176Y-120893881D01*
X149314710Y-120910767D01*
X149314709Y-120910770D01*
X149309903Y-120931822D01*
X149308868Y-120934779D01*
X149299500Y-120954235D01*
X149299500Y-122785500D01*
X149295399Y-122795399D01*
X149285500Y-122799500D01*
X124714500Y-122799500D01*
X124704601Y-122795399D01*
X124700500Y-122785500D01*
X124700500Y-121971774D01*
X126072671Y-121971774D01*
X126087303Y-122064157D01*
X126144036Y-122175502D01*
X126232398Y-122263864D01*
X126232400Y-122263865D01*
X126343744Y-122320598D01*
X126467171Y-122340147D01*
X126590598Y-122320598D01*
X126701942Y-122263865D01*
X126790306Y-122175501D01*
X126847039Y-122064157D01*
X126861671Y-121971775D01*
X126861671Y-121971774D01*
X127342670Y-121971774D01*
X127357303Y-122064157D01*
X127414036Y-122175502D01*
X127502398Y-122263864D01*
X127502400Y-122263865D01*
X127613744Y-122320598D01*
X127737171Y-122340147D01*
X127860598Y-122320598D01*
X127971942Y-122263865D01*
X128060306Y-122175501D01*
X128117039Y-122064157D01*
X128131671Y-121971775D01*
X128131671Y-121971774D01*
X128612671Y-121971774D01*
X128627303Y-122064157D01*
X128684036Y-122175502D01*
X128772398Y-122263864D01*
X128772400Y-122263865D01*
X128883744Y-122320598D01*
X129007171Y-122340147D01*
X129130598Y-122320598D01*
X129241942Y-122263865D01*
X129330306Y-122175501D01*
X129387039Y-122064157D01*
X129401671Y-121971775D01*
X129401671Y-121229730D01*
X129953171Y-121229730D01*
X129953171Y-121969074D01*
X129968013Y-122053253D01*
X130025141Y-122152203D01*
X130112672Y-122225650D01*
X130220039Y-122264729D01*
X130220042Y-122264730D01*
X130259671Y-122264730D01*
X130259671Y-121229730D01*
X130294671Y-121229730D01*
X130294671Y-122264730D01*
X130334300Y-122264730D01*
X130334302Y-122264729D01*
X130441669Y-122225650D01*
X130529200Y-122152203D01*
X130586328Y-122053253D01*
X130601170Y-121969074D01*
X130601171Y-121229730D01*
X130294671Y-121229730D01*
X130259671Y-121229730D01*
X129953171Y-121229730D01*
X129401671Y-121229730D01*
X129401671Y-121194730D01*
X129953171Y-121194730D01*
X130259671Y-121194730D01*
X130259671Y-120159730D01*
X130294671Y-120159730D01*
X130294671Y-121194730D01*
X130601171Y-121194730D01*
X130601170Y-120455385D01*
X130586328Y-120371206D01*
X130529200Y-120272256D01*
X130441669Y-120198809D01*
X130334302Y-120159730D01*
X130294671Y-120159730D01*
X130259671Y-120159730D01*
X130220039Y-120159730D01*
X130112672Y-120198809D01*
X130025141Y-120272256D01*
X129968013Y-120371206D01*
X129953171Y-120455385D01*
X129953171Y-121194730D01*
X129401671Y-121194730D01*
X129401671Y-120452685D01*
X129387039Y-120360303D01*
X129330306Y-120248959D01*
X129330305Y-120248957D01*
X129241943Y-120160595D01*
X129130598Y-120103862D01*
X129130599Y-120103862D01*
X129068884Y-120094087D01*
X129007171Y-120084313D01*
X129007170Y-120084313D01*
X128883743Y-120103862D01*
X128772398Y-120160595D01*
X128684036Y-120248957D01*
X128627303Y-120360302D01*
X128612671Y-120452685D01*
X128612671Y-121971774D01*
X128131671Y-121971774D01*
X128131671Y-120452685D01*
X128117039Y-120360303D01*
X128060306Y-120248959D01*
X128060305Y-120248957D01*
X127971943Y-120160595D01*
X127860598Y-120103862D01*
X127860599Y-120103862D01*
X127737171Y-120084313D01*
X127613743Y-120103862D01*
X127502398Y-120160595D01*
X127414036Y-120248957D01*
X127357303Y-120360302D01*
X127342670Y-120452685D01*
X127342670Y-121971774D01*
X126861671Y-121971774D01*
X126861671Y-120452685D01*
X126847039Y-120360303D01*
X126790306Y-120248959D01*
X126790305Y-120248957D01*
X126701943Y-120160595D01*
X126590598Y-120103862D01*
X126590599Y-120103862D01*
X126467171Y-120084313D01*
X126343743Y-120103862D01*
X126232398Y-120160595D01*
X126144036Y-120248957D01*
X126087303Y-120360302D01*
X126072671Y-120452685D01*
X126072671Y-121971774D01*
X124700500Y-121971774D01*
X124700500Y-119453472D01*
X139416721Y-119453472D01*
X139426783Y-119639057D01*
X139476507Y-119818147D01*
X139476507Y-119818148D01*
X139563568Y-119982360D01*
X139563573Y-119982367D01*
X139683894Y-120124021D01*
X139831855Y-120236498D01*
X139831856Y-120236498D01*
X139831861Y-120236502D01*
X140000548Y-120314545D01*
X140182067Y-120354500D01*
X140182068Y-120354500D01*
X140321325Y-120354500D01*
X140321332Y-120354500D01*
X140459775Y-120339443D01*
X140635911Y-120280096D01*
X140795171Y-120184273D01*
X140930108Y-120056454D01*
X141034413Y-119902615D01*
X141094535Y-119751721D01*
X141553620Y-119751721D01*
X141553620Y-122339173D01*
X141555358Y-122347926D01*
X141561990Y-122357851D01*
X141571912Y-122364480D01*
X141580663Y-122366220D01*
X144343119Y-122366220D01*
X144343119Y-119751721D01*
X144378119Y-119751721D01*
X144378119Y-122366220D01*
X147140571Y-122366220D01*
X147149324Y-122364481D01*
X147159249Y-122357849D01*
X147165878Y-122347928D01*
X147165878Y-122347926D01*
X147167619Y-122339176D01*
X147167619Y-119751721D01*
X144378119Y-119751721D01*
X144343119Y-119751721D01*
X141553620Y-119751721D01*
X141094535Y-119751721D01*
X141103209Y-119729951D01*
X141105378Y-119716721D01*
X141553619Y-119716721D01*
X144343119Y-119716721D01*
X144343119Y-117102221D01*
X144378119Y-117102221D01*
X144378119Y-119716721D01*
X147167618Y-119716721D01*
X147167618Y-118490183D01*
X148641691Y-118490183D01*
X148651838Y-118729034D01*
X148651838Y-118729040D01*
X148651839Y-118729042D01*
X148670521Y-118815726D01*
X148702209Y-118962762D01*
X148791348Y-119184593D01*
X148791350Y-119184596D01*
X148916695Y-119388171D01*
X148916706Y-119388186D01*
X149074656Y-119567651D01*
X149074658Y-119567653D01*
X149260672Y-119717849D01*
X149469393Y-119834448D01*
X149694817Y-119914095D01*
X149930459Y-119954500D01*
X149930462Y-119954500D01*
X150109657Y-119954500D01*
X150109664Y-119954500D01*
X150288220Y-119939303D01*
X150519587Y-119879059D01*
X150737444Y-119780581D01*
X150935525Y-119646702D01*
X151108131Y-119481273D01*
X151250297Y-119289052D01*
X151357932Y-119075570D01*
X151427940Y-118846969D01*
X151458308Y-118609824D01*
X151448161Y-118370958D01*
X151397792Y-118137243D01*
X151397790Y-118137237D01*
X151308651Y-117915406D01*
X151308649Y-117915403D01*
X151183304Y-117711828D01*
X151183293Y-117711813D01*
X151025343Y-117532348D01*
X151025342Y-117532347D01*
X150839328Y-117382151D01*
X150630607Y-117265552D01*
X150510150Y-117222992D01*
X150405184Y-117185905D01*
X150346272Y-117175803D01*
X150169541Y-117145500D01*
X149990336Y-117145500D01*
X149990333Y-117145500D01*
X149811779Y-117160697D01*
X149811774Y-117160698D01*
X149580412Y-117220941D01*
X149580410Y-117220942D01*
X149362561Y-117319416D01*
X149362553Y-117319421D01*
X149164470Y-117453301D01*
X148991872Y-117618723D01*
X148991869Y-117618726D01*
X148849704Y-117810944D01*
X148742069Y-118024426D01*
X148742066Y-118024433D01*
X148672060Y-118253027D01*
X148672060Y-118253028D01*
X148641691Y-118490183D01*
X147167618Y-118490183D01*
X147167618Y-117129268D01*
X147165879Y-117120515D01*
X147159247Y-117110590D01*
X147149325Y-117103961D01*
X147140575Y-117102221D01*
X144378119Y-117102221D01*
X144343119Y-117102221D01*
X141580666Y-117102221D01*
X141571913Y-117103960D01*
X141561988Y-117110592D01*
X141555359Y-117120513D01*
X141555359Y-117120515D01*
X141553619Y-117129265D01*
X141553619Y-119716721D01*
X141105378Y-119716721D01*
X141133278Y-119546535D01*
X141123216Y-119360942D01*
X141073492Y-119181852D01*
X141073492Y-119181851D01*
X141017145Y-119075570D01*
X140986431Y-119017638D01*
X140923496Y-118943545D01*
X140866105Y-118875978D01*
X140718144Y-118763501D01*
X140718141Y-118763499D01*
X140718139Y-118763498D01*
X140549452Y-118685455D01*
X140367933Y-118645500D01*
X140228668Y-118645500D01*
X140228660Y-118645500D01*
X140090227Y-118660556D01*
X140090216Y-118660559D01*
X139914097Y-118719900D01*
X139914090Y-118719903D01*
X139754830Y-118815726D01*
X139754828Y-118815727D01*
X139619892Y-118943545D01*
X139515586Y-119097386D01*
X139446791Y-119270047D01*
X139416721Y-119453472D01*
X124700500Y-119453472D01*
X124700500Y-96410092D01*
X125373258Y-96410092D01*
X125373419Y-96499893D01*
X125373405Y-96500125D01*
X125373440Y-96513798D01*
X125373439Y-96513802D01*
X125373483Y-96531054D01*
X125379150Y-98764670D01*
X125379172Y-98773714D01*
X125379215Y-98790945D01*
X125379189Y-98791470D01*
X125379217Y-98792526D01*
X125379220Y-98792686D01*
X125379223Y-98793694D01*
X125379262Y-98794180D01*
X125690759Y-110312513D01*
X125686927Y-110322519D01*
X125677142Y-110326886D01*
X125676764Y-110326891D01*
X125647497Y-110326891D01*
X125618181Y-110332722D01*
X125584937Y-110354934D01*
X125562724Y-110388179D01*
X125556894Y-110417492D01*
X125556894Y-111037287D01*
X125556895Y-111037290D01*
X125562725Y-111066604D01*
X125584937Y-111099848D01*
X125618181Y-111122060D01*
X125647495Y-111127891D01*
X125667845Y-111127890D01*
X125677744Y-111131990D01*
X125681845Y-111141889D01*
X125681829Y-111142565D01*
X125505081Y-114805503D01*
X125505078Y-114805527D01*
X125503720Y-114833720D01*
X125503188Y-114844722D01*
X125503188Y-114844740D01*
X125502919Y-114850316D01*
X125502732Y-114851557D01*
X125502790Y-114851565D01*
X125502671Y-114852469D01*
X125502671Y-114855306D01*
X125502663Y-114855642D01*
X125502528Y-114858443D01*
X125502604Y-114859357D01*
X125502537Y-114859362D01*
X125502671Y-114860603D01*
X125502671Y-114866195D01*
X125502670Y-114866252D01*
X125502671Y-114871602D01*
X125502671Y-116428287D01*
X125502669Y-116428309D01*
X125502670Y-116457034D01*
X125502661Y-116457057D01*
X125502663Y-116513088D01*
X125511772Y-116573501D01*
X125517647Y-116612459D01*
X125517648Y-116612462D01*
X125517648Y-116612463D01*
X125547274Y-116708492D01*
X125553224Y-116720845D01*
X125560685Y-116736336D01*
X125560693Y-116736355D01*
X125635757Y-116892228D01*
X125635884Y-116892452D01*
X125649107Y-116919915D01*
X125649112Y-116919925D01*
X125670051Y-116950641D01*
X125705715Y-117002959D01*
X125705717Y-117002961D01*
X125705719Y-117002964D01*
X125774058Y-117076626D01*
X125774063Y-117076631D01*
X125798117Y-117095816D01*
X125798136Y-117095833D01*
X125817290Y-117111109D01*
X125841161Y-117130147D01*
X125841170Y-117130152D01*
X125890961Y-117169858D01*
X125890983Y-117169880D01*
X125913796Y-117188070D01*
X125913817Y-117188109D01*
X125954995Y-117220941D01*
X125957565Y-117222990D01*
X126044600Y-117273231D01*
X126138150Y-117309940D01*
X126138152Y-117309940D01*
X126138156Y-117309942D01*
X126159896Y-117314901D01*
X126186491Y-117320970D01*
X126337747Y-117355494D01*
X126337779Y-117355498D01*
X126358820Y-117360312D01*
X126358824Y-117360313D01*
X126442236Y-117368648D01*
X126526036Y-117366531D01*
X126550832Y-117362769D01*
X126567030Y-117360313D01*
X126567475Y-117360245D01*
X126567475Y-117360246D01*
X126600311Y-117355279D01*
X126600312Y-117355277D01*
X126602523Y-117354943D01*
X126602530Y-117354940D01*
X129016160Y-116989736D01*
X129016244Y-116989734D01*
X129017837Y-116989492D01*
X129017839Y-116989493D01*
X129048517Y-116984841D01*
X129051129Y-116984694D01*
X129053138Y-116984770D01*
X129061063Y-116982960D01*
X129061528Y-116982872D01*
X129069572Y-116981656D01*
X129071416Y-116980849D01*
X129073901Y-116980030D01*
X129168832Y-116958362D01*
X129168849Y-116958360D01*
X129170283Y-116958032D01*
X129170286Y-116958033D01*
X129196089Y-116952141D01*
X129196093Y-116952142D01*
X129202663Y-116950641D01*
X129202663Y-116950642D01*
X129218512Y-116947023D01*
X129221332Y-116946380D01*
X129221332Y-116946379D01*
X129223885Y-116945797D01*
X129223889Y-116945795D01*
X129224189Y-116945727D01*
X129224333Y-116945620D01*
X129264411Y-116929891D01*
X129302114Y-116908124D01*
X129302292Y-116907981D01*
X129302303Y-116907977D01*
X129302301Y-116907975D01*
X129304161Y-116906492D01*
X129325565Y-116889423D01*
X129345099Y-116873847D01*
X129345099Y-116873845D01*
X129346892Y-116872416D01*
X129346898Y-116872408D01*
X129439042Y-116798928D01*
X129439729Y-116797997D01*
X129443460Y-116794508D01*
X129444435Y-116793886D01*
X129457357Y-116779749D01*
X129457358Y-116779749D01*
X129479765Y-116755238D01*
X129479765Y-116755235D01*
X129480936Y-116753955D01*
X129480944Y-116753945D01*
X129496897Y-116736493D01*
X129858339Y-116341079D01*
X129868043Y-116336540D01*
X129878117Y-116340193D01*
X129882657Y-116349898D01*
X129882671Y-116350526D01*
X129882671Y-116426775D01*
X129882914Y-116428309D01*
X129897303Y-116519157D01*
X129954036Y-116630502D01*
X130042398Y-116718864D01*
X130042400Y-116718865D01*
X130153744Y-116775598D01*
X130277171Y-116795147D01*
X130400598Y-116775598D01*
X130511942Y-116718865D01*
X130600306Y-116630501D01*
X130657039Y-116519157D01*
X130671671Y-116426775D01*
X130671671Y-115190925D01*
X148292185Y-115190925D01*
X148292185Y-115385266D01*
X148293923Y-115394019D01*
X148300555Y-115403944D01*
X148310477Y-115410573D01*
X148319228Y-115412313D01*
X148604684Y-115412313D01*
X148604684Y-115190925D01*
X148639684Y-115190925D01*
X148639684Y-115412313D01*
X148925136Y-115412313D01*
X148933889Y-115410574D01*
X148943814Y-115403942D01*
X148950443Y-115394021D01*
X148950443Y-115394019D01*
X148952184Y-115385269D01*
X148952184Y-115190925D01*
X148639684Y-115190925D01*
X148604684Y-115190925D01*
X148292185Y-115190925D01*
X130671671Y-115190925D01*
X130671671Y-115155925D01*
X148292184Y-115155925D01*
X148604684Y-115155925D01*
X148604684Y-114934536D01*
X148639684Y-114934536D01*
X148639684Y-115155925D01*
X148952183Y-115155925D01*
X148952183Y-114961583D01*
X148950444Y-114952830D01*
X148943812Y-114942905D01*
X148933890Y-114936276D01*
X148925140Y-114934536D01*
X148639684Y-114934536D01*
X148604684Y-114934536D01*
X148319231Y-114934536D01*
X148310478Y-114936275D01*
X148300553Y-114942907D01*
X148293924Y-114952828D01*
X148293924Y-114952830D01*
X148292184Y-114961580D01*
X148292184Y-115155925D01*
X130671671Y-115155925D01*
X130671671Y-114907685D01*
X130657039Y-114815303D01*
X130600306Y-114703959D01*
X130600305Y-114703957D01*
X130595116Y-114698768D01*
X130591015Y-114688869D01*
X130595116Y-114678970D01*
X130605015Y-114674869D01*
X130606578Y-114674957D01*
X133001667Y-114946059D01*
X133005143Y-114946914D01*
X133012373Y-114949715D01*
X133012374Y-114949715D01*
X133066740Y-114949715D01*
X133118051Y-114949720D01*
X133118054Y-114949718D01*
X133119224Y-114949719D01*
X133119283Y-114949715D01*
X134394058Y-114949715D01*
X134394138Y-114949710D01*
X134398739Y-114949712D01*
X134462352Y-114942696D01*
X134492307Y-114936003D01*
X134495907Y-114935678D01*
X134503651Y-114935987D01*
X134503651Y-114935986D01*
X134503652Y-114935987D01*
X134516509Y-114931585D01*
X134555084Y-114918379D01*
X134603631Y-114901765D01*
X134603633Y-114901762D01*
X134604837Y-114901351D01*
X134604884Y-114901329D01*
X138877768Y-113438508D01*
X138877826Y-113438495D01*
X138879070Y-113438068D01*
X138879074Y-113438069D01*
X138920541Y-113423866D01*
X138922091Y-113423335D01*
X138922113Y-113423336D01*
X138927619Y-113421451D01*
X138927620Y-113421452D01*
X138941802Y-113416598D01*
X138954063Y-113412404D01*
X138954066Y-113412402D01*
X138954074Y-113412400D01*
X139004994Y-113389290D01*
X139021152Y-113379991D01*
X139024692Y-113378556D01*
X139031886Y-113376731D01*
X139053181Y-113361588D01*
X139053441Y-113361413D01*
X139053462Y-113361402D01*
X139074851Y-113346178D01*
X139074854Y-113346178D01*
X139074854Y-113346177D01*
X139492165Y-113049440D01*
X141778616Y-111423615D01*
X141789060Y-111421221D01*
X141798139Y-111426913D01*
X141800726Y-111435298D01*
X141793360Y-111813993D01*
X141789068Y-111823811D01*
X141779363Y-111827721D01*
X141518722Y-111827721D01*
X141489406Y-111833552D01*
X141456162Y-111855764D01*
X141433949Y-111889009D01*
X141428119Y-111918322D01*
X141428119Y-114156117D01*
X141432219Y-114176732D01*
X141433950Y-114185434D01*
X141456162Y-114218678D01*
X141489406Y-114240890D01*
X141518720Y-114246721D01*
X142602517Y-114246720D01*
X142631832Y-114240890D01*
X142665076Y-114218678D01*
X142687288Y-114185434D01*
X142693119Y-114156120D01*
X142693119Y-114156117D01*
X146027119Y-114156117D01*
X146031219Y-114176732D01*
X146032950Y-114185434D01*
X146055162Y-114218678D01*
X146088406Y-114240890D01*
X146117720Y-114246721D01*
X147201517Y-114246720D01*
X147230832Y-114240890D01*
X147264076Y-114218678D01*
X147286288Y-114185434D01*
X147292119Y-114156120D01*
X147292118Y-112698484D01*
X147506048Y-112698484D01*
X147523615Y-112809396D01*
X147574595Y-112909452D01*
X147653998Y-112988855D01*
X147654000Y-112988856D01*
X147754055Y-113039836D01*
X147864967Y-113057403D01*
X147870090Y-113056591D01*
X147880509Y-113059091D01*
X147884809Y-113064168D01*
X148297674Y-113891688D01*
X148298425Y-113902377D01*
X148291397Y-113910465D01*
X148287878Y-113911669D01*
X148282971Y-113912644D01*
X148249727Y-113934857D01*
X148227514Y-113968102D01*
X148221684Y-113997415D01*
X148221684Y-114434988D01*
X148221685Y-114434991D01*
X148227515Y-114464305D01*
X148249727Y-114497549D01*
X148282971Y-114519761D01*
X148312285Y-114525592D01*
X148932082Y-114525591D01*
X148961397Y-114519761D01*
X148994641Y-114497549D01*
X149016853Y-114464305D01*
X149022684Y-114434991D01*
X149022683Y-113997416D01*
X149016853Y-113968101D01*
X148994641Y-113934857D01*
X148961397Y-113912645D01*
X148961396Y-113912644D01*
X148961395Y-113912644D01*
X148932083Y-113906814D01*
X148639088Y-113906814D01*
X148629189Y-113902713D01*
X148626561Y-113899064D01*
X148622881Y-113891688D01*
X148144818Y-112933489D01*
X148144068Y-112922802D01*
X148147445Y-112917343D01*
X148155339Y-112909451D01*
X148206319Y-112809396D01*
X148223886Y-112698484D01*
X148206319Y-112587572D01*
X148155339Y-112487517D01*
X148155338Y-112487515D01*
X148075935Y-112408112D01*
X147975879Y-112357132D01*
X147975880Y-112357132D01*
X147864967Y-112339565D01*
X147754054Y-112357132D01*
X147653998Y-112408112D01*
X147574595Y-112487515D01*
X147523615Y-112587571D01*
X147506048Y-112698484D01*
X147292118Y-112698484D01*
X147292118Y-111918323D01*
X147286288Y-111889008D01*
X147264076Y-111855764D01*
X147230832Y-111833552D01*
X147230831Y-111833551D01*
X147230830Y-111833551D01*
X147201518Y-111827721D01*
X146962936Y-111827721D01*
X146953037Y-111823620D01*
X146948936Y-111813740D01*
X146948692Y-111636586D01*
X146948092Y-111201059D01*
X146950451Y-111193266D01*
X146960153Y-111178747D01*
X146965984Y-111149433D01*
X146965983Y-110962965D01*
X146970083Y-110953067D01*
X146970809Y-110952390D01*
X148532799Y-109599896D01*
X148539770Y-109596653D01*
X148609971Y-109585535D01*
X148710026Y-109534555D01*
X148789431Y-109455150D01*
X148840411Y-109355095D01*
X148857978Y-109244183D01*
X148840411Y-109133271D01*
X148789431Y-109033216D01*
X148789430Y-109033214D01*
X148710027Y-108953811D01*
X148609971Y-108902831D01*
X148609972Y-108902831D01*
X148499059Y-108885264D01*
X148388146Y-108902831D01*
X148288090Y-108953811D01*
X148208687Y-109033214D01*
X148157706Y-109133272D01*
X148157706Y-109133273D01*
X148154548Y-109153201D01*
X148149885Y-109161594D01*
X146678522Y-110435618D01*
X146669358Y-110439034D01*
X146437809Y-110439034D01*
X146408493Y-110444865D01*
X146375249Y-110467077D01*
X146353036Y-110500322D01*
X146347206Y-110529635D01*
X146347206Y-111149430D01*
X146353037Y-111178747D01*
X146353037Y-111178748D01*
X146363733Y-111194757D01*
X146366092Y-111202515D01*
X146366934Y-111813702D01*
X146362847Y-111823607D01*
X146352953Y-111827721D01*
X146117722Y-111827721D01*
X146088406Y-111833552D01*
X146055162Y-111855764D01*
X146032949Y-111889009D01*
X146027119Y-111918322D01*
X146027119Y-114156117D01*
X142693119Y-114156117D01*
X142693118Y-111918323D01*
X142687288Y-111889008D01*
X142665076Y-111855764D01*
X142631832Y-111833552D01*
X142631831Y-111833551D01*
X142631830Y-111833551D01*
X142602518Y-111827721D01*
X142389477Y-111827721D01*
X142379578Y-111823620D01*
X142375477Y-111813721D01*
X142375480Y-111813449D01*
X142383110Y-111421221D01*
X142387251Y-111208330D01*
X142389607Y-111200826D01*
X142407008Y-111174785D01*
X142412839Y-111145471D01*
X142412838Y-110951171D01*
X142416938Y-110941273D01*
X142417270Y-110940951D01*
X142511623Y-110853072D01*
X142821784Y-110853072D01*
X142821784Y-111138524D01*
X142823522Y-111147277D01*
X142830154Y-111157202D01*
X142840076Y-111163831D01*
X142848827Y-111165571D01*
X143043172Y-111165571D01*
X143043172Y-110853072D01*
X143078172Y-110853072D01*
X143078172Y-111165571D01*
X143272513Y-111165571D01*
X143281266Y-111163832D01*
X143291191Y-111157200D01*
X143297820Y-111147279D01*
X143297820Y-111147277D01*
X143299561Y-111138527D01*
X143299561Y-110857034D01*
X145460485Y-110857034D01*
X145460485Y-111142486D01*
X145462223Y-111151239D01*
X145468855Y-111161164D01*
X145478777Y-111167793D01*
X145487528Y-111169533D01*
X145681873Y-111169533D01*
X145681873Y-110857034D01*
X145716873Y-110857034D01*
X145716873Y-111169533D01*
X145911214Y-111169533D01*
X145919967Y-111167794D01*
X145929892Y-111161162D01*
X145936521Y-111151241D01*
X145936521Y-111151239D01*
X145938262Y-111142489D01*
X145938262Y-110857034D01*
X145716873Y-110857034D01*
X145681873Y-110857034D01*
X145460485Y-110857034D01*
X143299561Y-110857034D01*
X143299561Y-110853072D01*
X143078172Y-110853072D01*
X143043172Y-110853072D01*
X142821784Y-110853072D01*
X142511623Y-110853072D01*
X142544948Y-110822034D01*
X145460484Y-110822034D01*
X145681873Y-110822034D01*
X145681873Y-110509534D01*
X145716873Y-110509534D01*
X145716873Y-110822034D01*
X145938261Y-110822034D01*
X145938261Y-110536581D01*
X145936522Y-110527828D01*
X145929890Y-110517903D01*
X145919968Y-110511274D01*
X145911218Y-110509534D01*
X145716873Y-110509534D01*
X145681873Y-110509534D01*
X145487531Y-110509534D01*
X145478778Y-110511273D01*
X145468853Y-110517905D01*
X145462224Y-110527826D01*
X145462224Y-110527828D01*
X145460484Y-110536578D01*
X145460484Y-110822034D01*
X142544948Y-110822034D01*
X142798242Y-110586120D01*
X142808280Y-110582375D01*
X142818028Y-110586824D01*
X142821783Y-110596366D01*
X142821783Y-110818072D01*
X143043172Y-110818072D01*
X143043172Y-110505572D01*
X143078172Y-110505572D01*
X143078172Y-110818072D01*
X143299560Y-110818072D01*
X143299560Y-110532619D01*
X143297821Y-110523866D01*
X143291189Y-110513941D01*
X143281267Y-110507312D01*
X143272517Y-110505572D01*
X143078172Y-110505572D01*
X143043172Y-110505572D01*
X142959068Y-110505572D01*
X142949169Y-110501471D01*
X142945068Y-110491572D01*
X142949169Y-110481673D01*
X142952171Y-110479389D01*
X148746587Y-107203457D01*
X148746619Y-107203444D01*
X148747897Y-107202721D01*
X148747899Y-107202721D01*
X148787487Y-107180335D01*
X148787599Y-107180321D01*
X148792584Y-107177501D01*
X148792585Y-107177502D01*
X148860840Y-107138899D01*
X148980832Y-107037914D01*
X149080205Y-106916585D01*
X149155571Y-106779049D01*
X149167441Y-106742787D01*
X149204356Y-106630007D01*
X149204356Y-106630005D01*
X149204358Y-106630000D01*
X149207200Y-106608500D01*
X149207202Y-106608496D01*
X149317667Y-105773002D01*
X149318617Y-105765823D01*
X149318616Y-105765815D01*
X149320239Y-105753536D01*
X149320244Y-105753528D01*
X149320241Y-105753528D01*
X149321009Y-105747755D01*
X149328738Y-105689669D01*
X149319553Y-105529761D01*
X149280510Y-105374421D01*
X149212996Y-105229174D01*
X149119413Y-105099186D01*
X149119411Y-105099184D01*
X149119409Y-105099181D01*
X149119408Y-105099180D01*
X149003096Y-104989084D01*
X149003090Y-104989079D01*
X149003089Y-104989078D01*
X148868162Y-104902769D01*
X148868159Y-104902767D01*
X148719431Y-104843326D01*
X148719432Y-104843326D01*
X148642339Y-104828454D01*
X148642339Y-104828452D01*
X148642327Y-104828451D01*
X141744657Y-103492121D01*
X141735718Y-103486213D01*
X141733576Y-103475714D01*
X141739484Y-103466775D01*
X141747320Y-103464377D01*
X141864704Y-103464377D01*
X141873457Y-103462638D01*
X141883382Y-103456006D01*
X141890011Y-103446085D01*
X141890011Y-103446083D01*
X141891752Y-103437333D01*
X141891752Y-103151878D01*
X141413975Y-103151878D01*
X141413974Y-103373580D01*
X141409873Y-103383480D01*
X141399974Y-103387580D01*
X141390432Y-103383825D01*
X141103818Y-103116878D01*
X141413974Y-103116878D01*
X141635363Y-103116878D01*
X141635363Y-102804378D01*
X141670363Y-102804378D01*
X141670363Y-103116878D01*
X141891751Y-103116878D01*
X141891751Y-102831425D01*
X141890012Y-102822672D01*
X141883380Y-102812747D01*
X141873458Y-102806118D01*
X141864708Y-102804378D01*
X141670363Y-102804378D01*
X141635363Y-102804378D01*
X141441021Y-102804378D01*
X141432268Y-102806117D01*
X141422343Y-102812749D01*
X141415714Y-102822670D01*
X141415714Y-102822672D01*
X141413974Y-102831422D01*
X141413974Y-103116878D01*
X141103818Y-103116878D01*
X141009487Y-103029020D01*
X141005038Y-103019272D01*
X141005029Y-103018775D01*
X141005029Y-102935787D01*
X141005054Y-102935196D01*
X141068772Y-102202273D01*
X147706109Y-102202273D01*
X147706110Y-102202276D01*
X147711940Y-102231590D01*
X147734152Y-102264834D01*
X147767396Y-102287046D01*
X147796710Y-102292877D01*
X147939670Y-102292876D01*
X147949569Y-102296976D01*
X147953670Y-102306876D01*
X147953666Y-102307216D01*
X147937395Y-102977843D01*
X147933055Y-102987640D01*
X147929755Y-102989977D01*
X147863815Y-103023575D01*
X147784412Y-103102978D01*
X147733432Y-103203034D01*
X147715865Y-103313947D01*
X147733432Y-103424859D01*
X147784412Y-103524915D01*
X147863815Y-103604318D01*
X147863817Y-103604319D01*
X147963872Y-103655299D01*
X148074784Y-103672866D01*
X148185696Y-103655299D01*
X148285751Y-103604319D01*
X148365156Y-103524914D01*
X148416136Y-103424859D01*
X148433703Y-103313947D01*
X148416136Y-103203035D01*
X148365156Y-103102980D01*
X148365155Y-103102978D01*
X148285752Y-103023575D01*
X148235938Y-102998194D01*
X148228979Y-102990046D01*
X148228298Y-102985384D01*
X148242366Y-102405580D01*
X148244769Y-102306536D01*
X148249109Y-102296739D01*
X148258765Y-102292876D01*
X148416506Y-102292876D01*
X148416507Y-102292876D01*
X148445822Y-102287046D01*
X148479066Y-102264834D01*
X148501278Y-102231590D01*
X148507109Y-102202276D01*
X148507108Y-101802201D01*
X148501278Y-101772886D01*
X148479066Y-101739642D01*
X148445822Y-101717430D01*
X148445821Y-101717429D01*
X148445820Y-101717429D01*
X148423785Y-101713046D01*
X148416508Y-101711599D01*
X148416507Y-101711599D01*
X147796712Y-101711599D01*
X147767396Y-101717430D01*
X147734152Y-101739642D01*
X147711939Y-101772887D01*
X147706109Y-101802200D01*
X147706109Y-102202273D01*
X141068772Y-102202273D01*
X141121466Y-101596150D01*
X141126681Y-101536833D01*
X141117548Y-101436680D01*
X141113002Y-101386814D01*
X141113001Y-101386812D01*
X141113001Y-101386807D01*
X141078152Y-101260214D01*
X141073019Y-101241566D01*
X141051824Y-101197274D01*
X141007989Y-101105673D01*
X141003916Y-101100016D01*
X147776610Y-101100016D01*
X147776610Y-101275607D01*
X147778348Y-101284360D01*
X147784980Y-101294285D01*
X147794902Y-101300914D01*
X147803653Y-101302654D01*
X148089109Y-101302654D01*
X148089109Y-101100016D01*
X148124109Y-101100016D01*
X148124109Y-101302654D01*
X148409561Y-101302654D01*
X148418314Y-101300915D01*
X148428239Y-101294283D01*
X148434868Y-101284362D01*
X148434868Y-101284360D01*
X148436609Y-101275610D01*
X148436609Y-101100016D01*
X148124109Y-101100016D01*
X148089109Y-101100016D01*
X147776610Y-101100016D01*
X141003916Y-101100016D01*
X140978716Y-101065016D01*
X147776609Y-101065016D01*
X148089109Y-101065016D01*
X148089109Y-100862377D01*
X148124109Y-100862377D01*
X148124109Y-101065016D01*
X148436608Y-101065016D01*
X148436608Y-100889424D01*
X148434869Y-100880671D01*
X148428237Y-100870746D01*
X148418315Y-100864117D01*
X148409565Y-100862377D01*
X148124109Y-100862377D01*
X148089109Y-100862377D01*
X147803656Y-100862377D01*
X147794903Y-100864116D01*
X147784978Y-100870748D01*
X147778349Y-100880669D01*
X147778349Y-100880671D01*
X147776609Y-100889421D01*
X147776609Y-101065016D01*
X140978716Y-101065016D01*
X140919967Y-100983420D01*
X140918299Y-100981809D01*
X140884874Y-100949517D01*
X140866576Y-100931840D01*
X138704532Y-98839303D01*
X138299418Y-98447213D01*
X139116733Y-98447213D01*
X139126769Y-98657903D01*
X139126770Y-98657911D01*
X139176498Y-98862888D01*
X139176499Y-98862890D01*
X139264124Y-99054762D01*
X139386478Y-99226584D01*
X139539138Y-99372145D01*
X139716587Y-99486184D01*
X139912411Y-99564580D01*
X140119533Y-99604500D01*
X140119534Y-99604500D01*
X140277606Y-99604500D01*
X140277613Y-99604500D01*
X140434979Y-99589473D01*
X140637368Y-99530047D01*
X140824854Y-99433391D01*
X140990659Y-99303000D01*
X141128792Y-99143587D01*
X141234259Y-98960913D01*
X141303248Y-98761580D01*
X141333267Y-98552793D01*
X141323231Y-98342098D01*
X141315774Y-98311361D01*
X141273501Y-98137111D01*
X141249519Y-98084597D01*
X141185876Y-97945238D01*
X141063522Y-97773416D01*
X140910862Y-97627855D01*
X140733413Y-97513816D01*
X140723441Y-97509824D01*
X140537589Y-97435420D01*
X140484200Y-97425130D01*
X140330467Y-97395500D01*
X140172387Y-97395500D01*
X140034691Y-97408648D01*
X140015020Y-97410527D01*
X140015015Y-97410528D01*
X139812636Y-97469951D01*
X139812632Y-97469953D01*
X139625145Y-97566609D01*
X139459337Y-97697003D01*
X139459335Y-97697005D01*
X139321208Y-97856412D01*
X139321204Y-97856417D01*
X139215743Y-98039082D01*
X139215740Y-98039089D01*
X139146751Y-98238420D01*
X139131847Y-98342088D01*
X139116733Y-98447207D01*
X139116733Y-98447211D01*
X139116733Y-98447213D01*
X138299418Y-98447213D01*
X137313334Y-97492831D01*
X137309073Y-97483001D01*
X137313011Y-97473036D01*
X137322842Y-97468774D01*
X137323071Y-97468772D01*
X137468811Y-97468772D01*
X137468811Y-97156273D01*
X137503811Y-97156273D01*
X137503811Y-97468772D01*
X137698152Y-97468772D01*
X137706905Y-97467033D01*
X137716830Y-97460401D01*
X137723459Y-97450480D01*
X137723459Y-97450478D01*
X137725200Y-97441728D01*
X137725200Y-97390183D01*
X148641691Y-97390183D01*
X148651838Y-97629034D01*
X148651838Y-97629040D01*
X148651839Y-97629042D01*
X148677254Y-97746969D01*
X148702209Y-97862762D01*
X148791348Y-98084593D01*
X148791350Y-98084596D01*
X148916695Y-98288171D01*
X148916706Y-98288186D01*
X149060776Y-98451880D01*
X149074658Y-98467653D01*
X149260672Y-98617849D01*
X149469393Y-98734448D01*
X149694817Y-98814095D01*
X149930459Y-98854500D01*
X149930462Y-98854500D01*
X150109657Y-98854500D01*
X150109664Y-98854500D01*
X150288220Y-98839303D01*
X150519587Y-98779059D01*
X150737444Y-98680581D01*
X150935525Y-98546702D01*
X151108131Y-98381273D01*
X151250297Y-98189052D01*
X151357932Y-97975570D01*
X151427940Y-97746969D01*
X151458308Y-97509824D01*
X151457439Y-97489376D01*
X151451966Y-97360537D01*
X151448161Y-97270958D01*
X151397792Y-97037243D01*
X151397214Y-97035804D01*
X151308651Y-96815406D01*
X151308649Y-96815403D01*
X151183304Y-96611828D01*
X151183293Y-96611813D01*
X151025343Y-96432348D01*
X151025342Y-96432347D01*
X150839328Y-96282151D01*
X150630607Y-96165552D01*
X150504345Y-96120941D01*
X150405184Y-96085905D01*
X150346272Y-96075803D01*
X150169541Y-96045500D01*
X149990336Y-96045500D01*
X149990333Y-96045500D01*
X149811779Y-96060697D01*
X149811774Y-96060698D01*
X149580412Y-96120941D01*
X149580410Y-96120942D01*
X149362561Y-96219416D01*
X149362553Y-96219421D01*
X149164470Y-96353301D01*
X148991872Y-96518723D01*
X148991869Y-96518726D01*
X148849704Y-96710944D01*
X148742069Y-96924426D01*
X148742066Y-96924433D01*
X148672060Y-97153027D01*
X148672060Y-97153028D01*
X148641691Y-97390183D01*
X137725200Y-97390183D01*
X137725200Y-97156273D01*
X137503811Y-97156273D01*
X137468811Y-97156273D01*
X137247423Y-97156273D01*
X137247422Y-97396005D01*
X137243321Y-97405905D01*
X137233422Y-97410005D01*
X137223686Y-97406065D01*
X136929435Y-97121273D01*
X137247422Y-97121273D01*
X137468811Y-97121273D01*
X137468811Y-96808773D01*
X137503811Y-96808773D01*
X137503811Y-97121273D01*
X137725199Y-97121273D01*
X137725199Y-96835820D01*
X137723460Y-96827067D01*
X137716828Y-96817142D01*
X137706906Y-96810513D01*
X137698156Y-96808773D01*
X137503811Y-96808773D01*
X137468811Y-96808773D01*
X137274469Y-96808773D01*
X137265716Y-96810512D01*
X137255791Y-96817144D01*
X137249162Y-96827065D01*
X137249162Y-96827067D01*
X137247422Y-96835817D01*
X137247422Y-97121273D01*
X136929435Y-97121273D01*
X136842741Y-97037366D01*
X136838479Y-97027535D01*
X136838477Y-97027306D01*
X136838477Y-96828876D01*
X136837083Y-96821867D01*
X136832647Y-96799560D01*
X136810435Y-96766316D01*
X136777191Y-96744104D01*
X136777190Y-96744103D01*
X136777189Y-96744103D01*
X136755154Y-96739720D01*
X136747877Y-96738273D01*
X136747876Y-96738273D01*
X136310303Y-96738273D01*
X136280987Y-96744104D01*
X136247743Y-96766316D01*
X136225530Y-96799561D01*
X136219700Y-96828874D01*
X136219700Y-96829065D01*
X136219674Y-96829125D01*
X136219632Y-96829560D01*
X136219500Y-96829547D01*
X136215599Y-96838964D01*
X136205700Y-96843065D01*
X136205498Y-96843064D01*
X135707531Y-96835866D01*
X135697691Y-96831622D01*
X135693733Y-96821867D01*
X135693733Y-96812690D01*
X135691122Y-96799561D01*
X135687903Y-96783374D01*
X135665691Y-96750130D01*
X135632447Y-96727918D01*
X135632446Y-96727917D01*
X135632445Y-96727917D01*
X135603133Y-96722087D01*
X135421305Y-96722087D01*
X135411527Y-96718106D01*
X135072857Y-96387591D01*
X135072719Y-96387480D01*
X135072246Y-96387059D01*
X135051750Y-96367114D01*
X135051748Y-96367112D01*
X134957451Y-96305343D01*
X134957444Y-96305339D01*
X134853026Y-96262829D01*
X134742388Y-96241169D01*
X134742113Y-96241169D01*
X134741234Y-96241087D01*
X134740408Y-96241087D01*
X134686023Y-96241087D01*
X134685983Y-96241086D01*
X134634711Y-96241085D01*
X134634710Y-96241085D01*
X134633386Y-96241085D01*
X134633366Y-96241087D01*
X134291264Y-96241087D01*
X134290871Y-96241123D01*
X134290248Y-96241151D01*
X134258453Y-96241186D01*
X134237016Y-96245641D01*
X134141332Y-96265527D01*
X134141327Y-96265528D01*
X134141326Y-96265529D01*
X134141321Y-96265530D01*
X134141324Y-96265530D01*
X134031609Y-96313210D01*
X133933896Y-96382232D01*
X133852286Y-96469702D01*
X133852285Y-96469703D01*
X133850307Y-96472952D01*
X133849842Y-96473579D01*
X133821180Y-96520793D01*
X133794216Y-96565197D01*
X133794195Y-96565239D01*
X131610983Y-100161389D01*
X131610965Y-100161416D01*
X131587987Y-100199269D01*
X131586873Y-100201102D01*
X131586829Y-100201136D01*
X131578160Y-100215455D01*
X131570001Y-100228895D01*
X131569794Y-100229273D01*
X131556564Y-100251129D01*
X131556564Y-100251130D01*
X131518843Y-100350239D01*
X131518842Y-100350243D01*
X131500453Y-100450288D01*
X131499741Y-100452808D01*
X131499615Y-100453133D01*
X131499615Y-101855020D01*
X131499610Y-101855078D01*
X131499610Y-101863540D01*
X131498805Y-101868217D01*
X131498394Y-101869377D01*
X131498308Y-101869620D01*
X131498307Y-101869622D01*
X131499612Y-101915656D01*
X131499615Y-101915854D01*
X131499615Y-101934501D01*
X131500039Y-101936768D01*
X131500271Y-101938944D01*
X131525391Y-102826003D01*
X131521573Y-102836014D01*
X131511793Y-102840393D01*
X131501782Y-102836575D01*
X131497529Y-102828312D01*
X130922313Y-98654472D01*
X130922313Y-98654465D01*
X130918349Y-98625706D01*
X130918353Y-98625688D01*
X130917565Y-98619974D01*
X130917566Y-98619974D01*
X130906249Y-98537876D01*
X130894779Y-98495650D01*
X130862802Y-98377931D01*
X130862801Y-98377929D01*
X130862800Y-98377924D01*
X130799250Y-98224843D01*
X130768062Y-98170591D01*
X130768056Y-98170576D01*
X130317979Y-97387656D01*
X130316600Y-97377030D01*
X130320684Y-97370333D01*
X130331430Y-97360537D01*
X130457316Y-97245778D01*
X130580225Y-97083020D01*
X130671134Y-96900449D01*
X130726949Y-96704282D01*
X130735517Y-96611818D01*
X130745767Y-96501201D01*
X130745767Y-96501196D01*
X130726950Y-96298124D01*
X130726949Y-96298121D01*
X130726949Y-96298116D01*
X130671134Y-96101949D01*
X130612217Y-95983626D01*
X130580230Y-95919387D01*
X130580225Y-95919378D01*
X130518656Y-95837848D01*
X130457316Y-95756620D01*
X130306593Y-95619218D01*
X130258394Y-95589374D01*
X130133190Y-95511851D01*
X130133191Y-95511851D01*
X130021927Y-95468748D01*
X129943008Y-95438175D01*
X129943005Y-95438174D01*
X129943004Y-95438174D01*
X129742530Y-95400699D01*
X129742528Y-95400699D01*
X129538576Y-95400699D01*
X129538573Y-95400699D01*
X129338099Y-95438174D01*
X129338096Y-95438174D01*
X129338096Y-95438175D01*
X129314806Y-95447197D01*
X129147912Y-95511851D01*
X128974512Y-95619217D01*
X128974511Y-95619218D01*
X128823788Y-95756619D01*
X128756383Y-95845877D01*
X128747145Y-95851306D01*
X128738569Y-95849764D01*
X127539417Y-95203451D01*
X127538797Y-95203168D01*
X127512965Y-95189270D01*
X127459920Y-95160730D01*
X127459918Y-95160729D01*
X127253916Y-95086304D01*
X127253909Y-95086302D01*
X127253908Y-95086301D01*
X127253906Y-95086301D01*
X127039185Y-95042999D01*
X127039189Y-95042999D01*
X126914181Y-95036580D01*
X126820429Y-95031767D01*
X126820427Y-95031767D01*
X126820426Y-95031767D01*
X126820421Y-95031767D01*
X126602400Y-95052850D01*
X126389847Y-95105790D01*
X126187413Y-95189426D01*
X126187407Y-95189429D01*
X126187406Y-95189430D01*
X126093439Y-95245690D01*
X125999466Y-95301956D01*
X125830147Y-95440903D01*
X125830145Y-95440905D01*
X125757543Y-95521073D01*
X125683108Y-95603265D01*
X125683106Y-95603267D01*
X125683104Y-95603270D01*
X125561565Y-95785495D01*
X125561563Y-95785499D01*
X125468164Y-95983626D01*
X125404936Y-96193345D01*
X125391957Y-96282150D01*
X125376548Y-96387588D01*
X125373259Y-96410089D01*
X125373258Y-96410092D01*
X124700500Y-96410092D01*
X124700500Y-93214500D01*
X124704601Y-93204601D01*
X124714500Y-93200500D01*
X149285500Y-93200500D01*
X149295399Y-93204601D01*
G37*
%TD.AperFunction*%
%TD*%
M02*
