M48
; DRILL file {KiCad 7.0.6+dfsg-1} date Mon 24 Jul 2023 09:36:45 AM PDT
; FORMAT={-:-/ absolute / inch / decimal}
; #@! TF.CreationDate,2023-07-24T09:36:45-07:00
; #@! TF.GenerationSoftware,Kicad,Pcbnew,7.0.6+dfsg-1
; #@! TF.FileFunction,Plated,1,4,PTH
FMAT,2
INCH
; #@! TA.AperFunction,Plated,PTH,ViaDrill
T1C0.0079
; #@! TA.AperFunction,Plated,PTH,ComponentDrill
T2C0.0315
; #@! TA.AperFunction,Plated,PTH,ComponentDrill
T3C0.0394
; #@! TA.AperFunction,Plated,PTH,ComponentDrill
T4C0.0433
; #@! TA.AperFunction,Plated,PTH,ComponentDrill
T5C0.0472
; #@! TA.AperFunction,Plated,PTH,ComponentDrill
T6C0.0787
%
G90
G05
T1
X2.3211Y-2.4495
X2.4103Y-3.1189
X2.5064Y-5.2846
X2.5104Y-4.7174
X2.5318Y-2.6997
X2.7216Y-2.8989
X2.8563Y-4.9763
X2.9475Y-4.9223
X3.0406Y-2.1227
X3.1549Y-4.2325
X3.3768Y-4.2297
X3.4327Y-5.1532
X3.4783Y-5.3333
X3.6343Y-2.2497
X3.6362Y-3.8658
X3.6412Y-5.4021
X3.6453Y-4.0237
X3.806Y-5.6391
X4.0394Y-2.2592
X4.1824Y-4.0956
X4.2472Y-2.2603
X4.5185Y-4.7684
X4.5663Y-5.1142
X4.6244Y-4.6816
X4.6298Y-2.8012
X4.6538Y-2.5115
X4.6578Y-5.1157
X4.6623Y-2.2701
X4.7493Y-1.9084
X4.8017Y-2.0864
X4.8687Y-4.4806
X4.8889Y-2.517
X4.9855Y-5.079
X5.0268Y-4.4306
X5.0408Y-3.9639
X5.0523Y-1.8843
X5.064Y-5.12
X5.2747Y-2.7908
X5.2864Y-2.3565
X5.7362Y-4.6665
X5.7494Y-4.0321
X5.7915Y-2.0055
X5.8182Y-5.1998
X5.877Y-5.3726
X5.8837Y-4.9707
X5.9399Y-5.3879
X6.0301Y-2.243
X6.0501Y-5.4594
X6.0888Y-4.6042
X6.1679Y-2.2233
X6.1822Y-3.2229
X6.1837Y-3.8215
X6.1924Y-5.6026
X6.2551Y-4.5266
X6.2842Y-2.2028
X6.2953Y-2.9322
X6.3528Y-2.4403
X6.3535Y-3.0594
X6.3827Y-2.2207
X6.497Y-1.8772
X6.499Y-4.3245
X6.5677Y-1.9804
X6.5882Y-1.9459
X6.639Y-4.5959
X6.6737Y-4.2652
X6.8891Y-1.9552
X6.966Y-5.7787
X7.1076Y-2.2124
X7.1249Y-3.1578
X7.1386Y-4.9734
X7.2264Y-1.9814
X7.2294Y-4.9728
X7.3147Y-4.297
X7.3179Y-4.2051
X7.4423Y-4.0868
X7.4694Y-4.1552
X7.5656Y-4.5894
X7.6884Y-4.4712
X7.8064Y-2.2083
X7.9615Y-4.2686
X8.0373Y-1.9838
X8.0751Y-4.1935
X8.1285Y-4.4182
X8.2443Y-2.4532
X8.4348Y-2.9265
X8.4762Y-2.6648
X8.4913Y-3.9433
T3
X5.0217Y-3.7126
X5.0217Y-4.0906
X5.3642Y-3.7126
X5.3642Y-4.0906
T4
X3.9803Y-2.8563
X3.9803Y-3.6437
X4.0787Y-2.8563
X4.0787Y-3.6437
X4.1772Y-2.8563
X4.1772Y-3.6437
X4.9929Y-3.3983
X4.9929Y-3.4983
X5.0929Y-3.3983
X5.0929Y-3.4983
X5.1929Y-3.3983
X5.1929Y-3.4983
X5.2929Y-3.3983
X5.2929Y-3.4983
X5.3929Y-3.3983
X5.3929Y-3.4983
X6.815Y-2.8563
X6.815Y-3.6437
X6.9134Y-2.8563
X6.9134Y-3.6437
X7.0118Y-2.8563
X7.0118Y-3.6437
X7.7598Y-2.8563
X7.7598Y-3.6437
X7.8583Y-2.8563
X7.8583Y-3.6437
X7.9567Y-2.8563
X7.9567Y-3.6437
T5
X4.9252Y-3.1304
T2
G00X2.937Y-2.5917
M15
G01X2.937Y-2.6272
M16
G05
G00X2.937Y-3.3791
M15
G01X2.937Y-3.4146
M16
G05
G00X2.937Y-5.2886
M15
G01X2.937Y-5.324
M16
G05
G00X2.9842Y-2.4559
M15
G01X2.9488Y-2.4559
M16
G05
G00X2.9488Y-2.763
M15
G01X2.9842Y-2.763
M16
G05
G00X2.9842Y-3.2433
M15
G01X2.9488Y-3.2433
M16
G05
G00X2.9488Y-3.5504
M15
G01X2.9842Y-3.5504
M16
G05
G00X2.9842Y-5.1528
M15
G01X2.9488Y-5.1528
M16
G05
G00X2.9488Y-5.4598
M15
G01X2.9842Y-5.4598
M16
G05
G00X3.0866Y-2.511
M15
G01X3.122Y-2.511
M16
G05
G00X3.0866Y-2.7079
M15
G01X3.122Y-2.7079
M16
G05
G00X3.0866Y-3.2984
M15
G01X3.122Y-3.2984
M16
G05
G00X3.0866Y-3.4953
M15
G01X3.122Y-3.4953
M16
G05
G00X3.0866Y-5.2079
M15
G01X3.122Y-5.2079
M16
G05
G00X3.0866Y-5.4047
M15
G01X3.122Y-5.4047
M16
G05
G00X4.1181Y-5.2886
M15
G01X4.1181Y-5.324
M16
G05
G00X4.1653Y-5.1528
M15
G01X4.1299Y-5.1528
M16
G05
G00X4.1299Y-5.4598
M15
G01X4.1653Y-5.4598
M16
G05
G00X4.2677Y-5.2079
M15
G01X4.3031Y-5.2079
M16
G05
G00X4.2677Y-5.4047
M15
G01X4.3031Y-5.4047
M16
G05
G00X5.2992Y-5.2886
M15
G01X5.2992Y-5.324
M16
G05
G00X5.3464Y-5.1528
M15
G01X5.311Y-5.1528
M16
G05
G00X5.311Y-5.4598
M15
G01X5.3464Y-5.4598
M16
G05
G00X5.4488Y-5.2079
M15
G01X5.4843Y-5.2079
M16
G05
G00X5.4488Y-5.4047
M15
G01X5.4843Y-5.4047
M16
G05
G00X5.7717Y-2.5917
M15
G01X5.7717Y-2.6272
M16
G05
G00X5.7717Y-3.3791
M15
G01X5.7717Y-3.4146
M16
G05
G00X5.8189Y-2.4559
M15
G01X5.7834Y-2.4559
M16
G05
G00X5.7834Y-2.763
M15
G01X5.8189Y-2.763
M16
G05
G00X5.8189Y-3.2433
M15
G01X5.7834Y-3.2433
M16
G05
G00X5.7834Y-3.5504
M15
G01X5.8189Y-3.5504
M16
G05
G00X5.9213Y-2.511
M15
G01X5.9567Y-2.511
M16
G05
G00X5.9213Y-2.7079
M15
G01X5.9567Y-2.7079
M16
G05
G00X5.9213Y-3.2984
M15
G01X5.9567Y-3.2984
M16
G05
G00X5.9213Y-3.4953
M15
G01X5.9567Y-3.4953
M16
G05
G00X6.4803Y-5.2886
M15
G01X6.4803Y-5.324
M16
G05
G00X6.5275Y-5.1528
M15
G01X6.4921Y-5.1528
M16
G05
G00X6.4921Y-5.4598
M15
G01X6.5275Y-5.4598
M16
G05
G00X6.6299Y-5.2079
M15
G01X6.6654Y-5.2079
M16
G05
G00X6.6299Y-5.4047
M15
G01X6.6654Y-5.4047
M16
G05
G00X7.6614Y-5.2886
M15
G01X7.6614Y-5.324
M16
G05
G00X7.7086Y-5.1528
M15
G01X7.6732Y-5.1528
M16
G05
G00X7.6732Y-5.4598
M15
G01X7.7086Y-5.4598
M16
G05
G00X7.811Y-5.2079
M15
G01X7.8465Y-5.2079
M16
G05
G00X7.811Y-5.4047
M15
G01X7.8465Y-5.4047
M16
G05
T5
G00X4.9508Y-2.7603
M15
G01X4.8996Y-2.7603
M16
G05
G00X4.9508Y-2.9453
M15
G01X4.8996Y-2.9453
M16
G05
T6
G00X3.8819Y-2.5748
M15
G01X3.8819Y-2.5866
M16
G05
G00X3.8819Y-3.3622
M15
G01X3.8819Y-3.374
M16
G05
G00X4.2756Y-2.5748
M15
G01X4.2756Y-2.5866
M16
G05
G00X4.2756Y-3.3622
M15
G01X4.2756Y-3.374
M16
G05
G00X6.7165Y-2.5748
M15
G01X6.7165Y-2.5866
M16
G05
G00X6.7165Y-3.3622
M15
G01X6.7165Y-3.374
M16
G05
G00X7.1102Y-2.5748
M15
G01X7.1102Y-2.5866
M16
G05
G00X7.1102Y-3.3622
M15
G01X7.1102Y-3.374
M16
G05
G00X7.6614Y-2.5748
M15
G01X7.6614Y-2.5866
M16
G05
G00X7.6614Y-3.3622
M15
G01X7.6614Y-3.374
M16
G05
G00X8.0551Y-2.5748
M15
G01X8.0551Y-2.5866
M16
G05
G00X8.0551Y-3.3622
M15
G01X8.0551Y-3.374
M16
G05
T0
M30
