%TF.GenerationSoftware,KiCad,Pcbnew,7.0.6+dfsg-1*%
%TF.CreationDate,2023-07-24T09:36:45-07:00*%
%TF.ProjectId,VCO,56434f2e-6b69-4636-9164-5f7063625858,rev?*%
%TF.SameCoordinates,Original*%
%TF.FileFunction,Soldermask,Bot*%
%TF.FilePolarity,Negative*%
%FSLAX46Y46*%
G04 Gerber Fmt 4.6, Leading zero omitted, Abs format (unit mm)*
G04 Created by KiCad (PCBNEW 7.0.6+dfsg-1) date 2023-07-24 09:36:45*
%MOMM*%
%LPD*%
G01*
G04 APERTURE LIST*
G04 Aperture macros list*
%AMRoundRect*
0 Rectangle with rounded corners*
0 $1 Rounding radius*
0 $2 $3 $4 $5 $6 $7 $8 $9 X,Y pos of 4 corners*
0 Add a 4 corners polygon primitive as box body*
4,1,4,$2,$3,$4,$5,$6,$7,$8,$9,$2,$3,0*
0 Add four circle primitives for the rounded corners*
1,1,$1+$1,$2,$3*
1,1,$1+$1,$4,$5*
1,1,$1+$1,$6,$7*
1,1,$1+$1,$8,$9*
0 Add four rect primitives between the rounded corners*
20,1,$1+$1,$2,$3,$4,$5,0*
20,1,$1+$1,$4,$5,$6,$7,0*
20,1,$1+$1,$6,$7,$8,$9,0*
20,1,$1+$1,$8,$9,$2,$3,0*%
G04 Aperture macros list end*
%ADD10C,1.902000*%
%ADD11RoundRect,0.051000X-0.900000X-0.900000X0.900000X-0.900000X0.900000X0.900000X-0.900000X0.900000X0*%
%ADD12C,1.802000*%
%ADD13O,3.102000X3.402000*%
%ADD14C,1.300000*%
%ADD15O,1.702000X2.602000*%
%ADD16O,2.602000X1.702000*%
%ADD17RoundRect,0.051000X-1.500000X0.900000X-1.500000X-0.900000X1.500000X-0.900000X1.500000X0.900000X0*%
%ADD18O,3.102000X1.902000*%
%ADD19RoundRect,0.051000X0.318000X0.270000X-0.318000X0.270000X-0.318000X-0.270000X0.318000X-0.270000X0*%
G04 APERTURE END LIST*
D10*
%TO.C,J101*%
X136980000Y-86316500D03*
X136980000Y-88856500D03*
X134440000Y-86316500D03*
X134440000Y-88856500D03*
X131900000Y-86316500D03*
X131900000Y-88856500D03*
X129360000Y-86316500D03*
X129360000Y-88856500D03*
X126820000Y-86316500D03*
D11*
X126820000Y-88856500D03*
%TD*%
D10*
%TO.C,D102*%
X127550000Y-94300000D03*
X136250000Y-94300000D03*
%TD*%
%TO.C,D101*%
X127550000Y-103900000D03*
X136250000Y-103900000D03*
%TD*%
D12*
%TO.C,RV202*%
X106100000Y-72550500D03*
X103600000Y-72550500D03*
X101100000Y-72550500D03*
D13*
X98600000Y-65550500D03*
X108600000Y-65550500D03*
%TD*%
D14*
%TO.C,J201*%
X79600000Y-86280000D03*
D15*
X74600000Y-86280000D03*
D16*
X75349000Y-82380000D03*
X78850000Y-83780000D03*
X78850000Y-88780000D03*
X75349000Y-90180000D03*
%TD*%
D14*
%TO.C,J203*%
X151600000Y-66280000D03*
D15*
X146600000Y-66280000D03*
D16*
X147349000Y-62380000D03*
X150850000Y-63780000D03*
X150850000Y-68780000D03*
X147349000Y-70180000D03*
%TD*%
D12*
%TO.C,RV402*%
X202100000Y-92550500D03*
X199600000Y-92550500D03*
X197100000Y-92550500D03*
D13*
X194600000Y-85550500D03*
X204600000Y-85550500D03*
%TD*%
D14*
%TO.C,J204*%
X199600000Y-134780000D03*
D15*
X194600000Y-134780000D03*
D16*
X195349000Y-130880000D03*
X198850000Y-132280000D03*
X198850000Y-137280000D03*
X195349000Y-138680000D03*
%TD*%
D14*
%TO.C,J401*%
X151600000Y-86280000D03*
D15*
X146600000Y-86280000D03*
D16*
X147349000Y-82380000D03*
X150850000Y-83780000D03*
X150850000Y-88780000D03*
X147349000Y-90180000D03*
%TD*%
D12*
%TO.C,RV204*%
X178100000Y-72550500D03*
X175600000Y-72550500D03*
X173100000Y-72550500D03*
D13*
X170600000Y-65550500D03*
X180600000Y-65550500D03*
%TD*%
D17*
%TO.C,SW201*%
X125100000Y-79511500D03*
D18*
X125100000Y-74811500D03*
X125100000Y-70111500D03*
%TD*%
D12*
%TO.C,RV203*%
X202100000Y-72550500D03*
X199600000Y-72550500D03*
X197100000Y-72550500D03*
D13*
X194600000Y-65550500D03*
X204600000Y-65550500D03*
%TD*%
D19*
%TO.C,D601*%
X180444500Y-113299500D03*
X181520500Y-113299500D03*
%TD*%
D12*
%TO.C,RV401*%
X178100000Y-92550500D03*
X175600000Y-92550500D03*
X173100000Y-92550500D03*
D13*
X170600000Y-85550500D03*
X180600000Y-85550500D03*
%TD*%
D19*
%TO.C,D603*%
X105444500Y-113299500D03*
X106520500Y-113299500D03*
%TD*%
D14*
%TO.C,J402*%
X139600000Y-134780000D03*
D15*
X134600000Y-134780000D03*
D16*
X135349000Y-130880000D03*
X138850000Y-132280000D03*
X138850000Y-137280000D03*
X135349000Y-138680000D03*
%TD*%
D14*
%TO.C,J301*%
X169600000Y-134780000D03*
D15*
X164600000Y-134780000D03*
D16*
X165349000Y-130880000D03*
X168850000Y-132280000D03*
X168850000Y-137280000D03*
X165349000Y-138680000D03*
%TD*%
D14*
%TO.C,J202*%
X79600000Y-66280000D03*
D15*
X74600000Y-66280000D03*
D16*
X75349000Y-62380000D03*
X78850000Y-63780000D03*
X78850000Y-68780000D03*
X75349000Y-70180000D03*
%TD*%
D19*
%TO.C,D604*%
X75444500Y-113299500D03*
X76520500Y-113299500D03*
%TD*%
D14*
%TO.C,J501*%
X79600000Y-134780000D03*
D15*
X74600000Y-134780000D03*
D16*
X75349000Y-130880000D03*
X78850000Y-132280000D03*
X78850000Y-137280000D03*
X75349000Y-138680000D03*
%TD*%
D14*
%TO.C,J502*%
X109600000Y-134780000D03*
D15*
X104600000Y-134780000D03*
D16*
X105349000Y-130880000D03*
X108850000Y-132280000D03*
X108850000Y-137280000D03*
X105349000Y-138680000D03*
%TD*%
D19*
%TO.C,D602*%
X135444500Y-113299500D03*
X136520500Y-113299500D03*
%TD*%
D12*
%TO.C,RV201*%
X106100000Y-92550500D03*
X103600000Y-92550500D03*
X101100000Y-92550500D03*
D13*
X98600000Y-85550500D03*
X108600000Y-85550500D03*
%TD*%
M02*
