%TF.GenerationSoftware,KiCad,Pcbnew,7.0.6+dfsg-1*%
%TF.CreationDate,2023-07-24T09:36:45-07:00*%
%TF.ProjectId,VCO,56434f2e-6b69-4636-9164-5f7063625858,rev?*%
%TF.SameCoordinates,Original*%
%TF.FileFunction,Soldermask,Top*%
%TF.FilePolarity,Negative*%
%FSLAX46Y46*%
G04 Gerber Fmt 4.6, Leading zero omitted, Abs format (unit mm)*
G04 Created by KiCad (PCBNEW 7.0.6+dfsg-1) date 2023-07-24 09:36:45*
%MOMM*%
%LPD*%
G01*
G04 APERTURE LIST*
G04 Aperture macros list*
%AMRoundRect*
0 Rectangle with rounded corners*
0 $1 Rounding radius*
0 $2 $3 $4 $5 $6 $7 $8 $9 X,Y pos of 4 corners*
0 Add a 4 corners polygon primitive as box body*
4,1,4,$2,$3,$4,$5,$6,$7,$8,$9,$2,$3,0*
0 Add four circle primitives for the rounded corners*
1,1,$1+$1,$2,$3*
1,1,$1+$1,$4,$5*
1,1,$1+$1,$6,$7*
1,1,$1+$1,$8,$9*
0 Add four rect primitives between the rounded corners*
20,1,$1+$1,$2,$3,$4,$5,0*
20,1,$1+$1,$4,$5,$6,$7,0*
20,1,$1+$1,$6,$7,$8,$9,0*
20,1,$1+$1,$8,$9,$2,$3,0*%
G04 Aperture macros list end*
%ADD10RoundRect,0.050000X0.300000X0.190139X-0.300000X0.190139X-0.300000X-0.190139X0.300000X-0.190139X0*%
%ADD11RoundRect,0.050000X0.300000X0.183889X-0.300000X0.183889X-0.300000X-0.183889X0.300000X-0.183889X0*%
%ADD12RoundRect,0.050000X-0.190139X0.300000X-0.190139X-0.300000X0.190139X-0.300000X0.190139X0.300000X0*%
%ADD13RoundRect,0.050000X0.300000X0.208889X-0.300000X0.208889X-0.300000X-0.208889X0.300000X-0.208889X0*%
%ADD14C,1.902000*%
%ADD15RoundRect,0.051000X-0.900000X-0.900000X0.900000X-0.900000X0.900000X0.900000X-0.900000X0.900000X0*%
%ADD16RoundRect,0.050000X0.190139X-0.300000X0.190139X0.300000X-0.190139X0.300000X-0.190139X-0.300000X0*%
%ADD17RoundRect,0.050000X0.208889X-0.300000X0.208889X0.300000X-0.208889X0.300000X-0.208889X-0.300000X0*%
%ADD18RoundRect,0.051000X-0.350000X-0.625000X0.350000X-0.625000X0.350000X0.625000X-0.350000X0.625000X0*%
%ADD19RoundRect,0.050000X-0.300000X-0.190139X0.300000X-0.190139X0.300000X0.190139X-0.300000X0.190139X0*%
%ADD20RoundRect,0.051000X0.450000X-0.400000X0.450000X0.400000X-0.450000X0.400000X-0.450000X-0.400000X0*%
%ADD21RoundRect,0.051000X-0.625000X0.350000X-0.625000X-0.350000X0.625000X-0.350000X0.625000X0.350000X0*%
%ADD22O,2.052000X0.670000*%
%ADD23RoundRect,0.050000X-0.300000X-0.208889X0.300000X-0.208889X0.300000X0.208889X-0.300000X0.208889X0*%
%ADD24RoundRect,0.050000X-0.300000X-0.183889X0.300000X-0.183889X0.300000X0.183889X-0.300000X0.183889X0*%
%ADD25RoundRect,0.051000X0.550000X0.800000X-0.550000X0.800000X-0.550000X-0.800000X0.550000X-0.800000X0*%
%ADD26RoundRect,0.051000X0.800000X0.800000X-0.800000X0.800000X-0.800000X-0.800000X0.800000X-0.800000X0*%
%ADD27RoundRect,0.051000X-0.550000X-0.600000X0.550000X-0.600000X0.550000X0.600000X-0.550000X0.600000X0*%
%ADD28RoundRect,0.050000X0.183889X-0.300000X0.183889X0.300000X-0.183889X0.300000X-0.183889X-0.300000X0*%
%ADD29RoundRect,0.050000X-0.208889X0.300000X-0.208889X-0.300000X0.208889X-0.300000X0.208889X0.300000X0*%
%ADD30RoundRect,0.051000X-0.650000X-0.700000X0.650000X-0.700000X0.650000X0.700000X-0.650000X0.700000X0*%
%ADD31RoundRect,0.051000X-1.000000X-0.700000X1.000000X-0.700000X1.000000X0.700000X-1.000000X0.700000X0*%
%ADD32RoundRect,0.051000X-0.600000X0.550000X-0.600000X-0.550000X0.600000X-0.550000X0.600000X0.550000X0*%
%ADD33O,2.073000X0.704000*%
%ADD34RoundRect,0.051000X0.650000X0.700000X-0.650000X0.700000X-0.650000X-0.700000X0.650000X-0.700000X0*%
%ADD35RoundRect,0.051000X1.000000X0.700000X-1.000000X0.700000X-1.000000X-0.700000X1.000000X-0.700000X0*%
%ADD36RoundRect,0.050000X-0.183889X0.300000X-0.183889X-0.300000X0.183889X-0.300000X0.183889X0.300000X0*%
%ADD37O,0.670000X2.052000*%
%ADD38RoundRect,0.051000X-0.800000X0.550000X-0.800000X-0.550000X0.800000X-0.550000X0.800000X0.550000X0*%
%ADD39RoundRect,0.051000X-0.800000X0.800000X-0.800000X-0.800000X0.800000X-0.800000X0.800000X0.800000X0*%
%ADD40RoundRect,0.051000X0.175000X0.390000X-0.175000X0.390000X-0.175000X-0.390000X0.175000X-0.390000X0*%
%ADD41RoundRect,0.051000X0.400000X0.450000X-0.400000X0.450000X-0.400000X-0.450000X0.400000X-0.450000X0*%
%ADD42C,1.802000*%
%ADD43O,3.102000X3.402000*%
%ADD44C,1.300000*%
%ADD45O,1.702000X2.602000*%
%ADD46O,2.602000X1.702000*%
%ADD47RoundRect,0.051000X-1.500000X0.900000X-1.500000X-0.900000X1.500000X-0.900000X1.500000X0.900000X0*%
%ADD48O,3.102000X1.902000*%
G04 APERTURE END LIST*
D10*
%TO.C,R304*%
X214800000Y-101059861D03*
X214800000Y-100140139D03*
%TD*%
D11*
%TO.C,R204*%
X91200000Y-57353611D03*
X91200000Y-56446389D03*
%TD*%
D12*
%TO.C,R518*%
X62159861Y-90240000D03*
X61240139Y-90240000D03*
%TD*%
D13*
%TO.C,C102*%
X118500000Y-56978611D03*
X118500000Y-56021389D03*
%TD*%
D14*
%TO.C,J101*%
X136980000Y-86316500D03*
X136980000Y-88856500D03*
X134440000Y-86316500D03*
X134440000Y-88856500D03*
X131900000Y-86316500D03*
X131900000Y-88856500D03*
X129360000Y-86316500D03*
X129360000Y-88856500D03*
X126820000Y-86316500D03*
D15*
X126820000Y-88856500D03*
%TD*%
D16*
%TO.C,R614*%
X126640139Y-129900000D03*
X127559861Y-129900000D03*
%TD*%
D17*
%TO.C,C113*%
X59821389Y-60700000D03*
X60778611Y-60700000D03*
%TD*%
D18*
%TO.C,Q302*%
X212750000Y-80050500D03*
X214650000Y-80050500D03*
X213700000Y-82549500D03*
%TD*%
D12*
%TO.C,R218*%
X160659861Y-61900000D03*
X159740139Y-61900000D03*
%TD*%
D19*
%TO.C,R201*%
X133200000Y-70840139D03*
X133200000Y-71759861D03*
%TD*%
D20*
%TO.C,C202*%
X131503000Y-54692500D03*
X131503000Y-53292500D03*
%TD*%
D12*
%TO.C,R307*%
X211259861Y-61900000D03*
X210340139Y-61900000D03*
%TD*%
D21*
%TO.C,Q502*%
X110349500Y-103150000D03*
X110349500Y-105050000D03*
X107850500Y-104100000D03*
%TD*%
D12*
%TO.C,R513*%
X100659861Y-109700000D03*
X99740139Y-109700000D03*
%TD*%
%TO.C,R603*%
X124993193Y-147900000D03*
X124073471Y-147900000D03*
%TD*%
D19*
%TO.C,R521*%
X103300000Y-124740139D03*
X103300000Y-125659861D03*
%TD*%
D22*
%TO.C,U5*%
X91896179Y-106674409D03*
X91896179Y-105404409D03*
X91896179Y-104134409D03*
X91896179Y-102864409D03*
X86485179Y-102864409D03*
X86485179Y-104134409D03*
X86485179Y-105404409D03*
X86485179Y-106674409D03*
%TD*%
D17*
%TO.C,C117*%
X148021389Y-129300000D03*
X148978611Y-129300000D03*
%TD*%
D12*
%TO.C,R402*%
X207759861Y-120050000D03*
X206840139Y-120050000D03*
%TD*%
D19*
%TO.C,R520*%
X73300000Y-124740139D03*
X73300000Y-125659861D03*
%TD*%
D12*
%TO.C,R514*%
X95859861Y-109700000D03*
X94940139Y-109700000D03*
%TD*%
D23*
%TO.C,C112*%
X93200000Y-98121389D03*
X93200000Y-99078611D03*
%TD*%
D19*
%TO.C,R612*%
X91200000Y-126640139D03*
X91200000Y-127559861D03*
%TD*%
D12*
%TO.C,R1*%
X167360132Y-48574371D03*
X166440410Y-48574371D03*
%TD*%
D24*
%TO.C,R210*%
X146300000Y-50946389D03*
X146300000Y-51853611D03*
%TD*%
D10*
%TO.C,R207*%
X101800000Y-57359861D03*
X101800000Y-56440139D03*
%TD*%
D23*
%TO.C,C103*%
X207900000Y-48421389D03*
X207900000Y-49378611D03*
%TD*%
D25*
%TO.C,RV206*%
X112900000Y-83400000D03*
D26*
X114050000Y-86300000D03*
D25*
X115200000Y-83400000D03*
%TD*%
D19*
%TO.C,R308*%
X163300000Y-124740139D03*
X163300000Y-125659861D03*
%TD*%
D16*
%TO.C,R214*%
X111040139Y-79720000D03*
X111959861Y-79720000D03*
%TD*%
D27*
%TO.C,D201*%
X119563500Y-64000500D03*
X123033500Y-64000500D03*
%TD*%
D23*
%TO.C,C108*%
X168600000Y-108421389D03*
X168600000Y-109378611D03*
%TD*%
D28*
%TO.C,R222*%
X184046389Y-61900000D03*
X184953611Y-61900000D03*
%TD*%
D19*
%TO.C,R510*%
X113300000Y-124740139D03*
X113300000Y-125659861D03*
%TD*%
D22*
%TO.C,U6*%
X123319436Y-118265538D03*
X123319436Y-116995538D03*
X123319436Y-115725538D03*
X123319436Y-114455538D03*
X117908436Y-114455538D03*
X117908436Y-115725538D03*
X117908436Y-116995538D03*
X117908436Y-118265538D03*
%TD*%
D12*
%TO.C,R219*%
X157959861Y-82700000D03*
X157040139Y-82700000D03*
%TD*%
D29*
%TO.C,C118*%
X156578611Y-142300000D03*
X155621389Y-142300000D03*
%TD*%
D21*
%TO.C,Q203*%
X160149500Y-75750000D03*
X160149500Y-77650000D03*
X157650500Y-76700000D03*
%TD*%
D14*
%TO.C,D102*%
X127550000Y-94300000D03*
X136250000Y-94300000D03*
%TD*%
D12*
%TO.C,R221*%
X182659861Y-80180000D03*
X181740139Y-80180000D03*
%TD*%
D30*
%TO.C,RV403*%
X171050000Y-117800000D03*
D31*
X169900000Y-112000000D03*
D30*
X168750000Y-117800000D03*
%TD*%
D10*
%TO.C,R407*%
X133300000Y-125659861D03*
X133300000Y-124740139D03*
%TD*%
D12*
%TO.C,R604*%
X129859861Y-147900000D03*
X128940139Y-147900000D03*
%TD*%
D24*
%TO.C,R504*%
X116000000Y-96546389D03*
X116000000Y-97453611D03*
%TD*%
%TO.C,R511*%
X104100000Y-96546389D03*
X104100000Y-97453611D03*
%TD*%
D22*
%TO.C,U8*%
X201253578Y-112904366D03*
X201253578Y-111634366D03*
X201253578Y-110364366D03*
X201253578Y-109094366D03*
X195842578Y-109094366D03*
X195842578Y-110364366D03*
X195842578Y-111634366D03*
X195842578Y-112904366D03*
%TD*%
D11*
%TO.C,R205*%
X96500000Y-57353611D03*
X96500000Y-56446389D03*
%TD*%
D16*
%TO.C,R517*%
X61240139Y-109800000D03*
X62159861Y-109800000D03*
%TD*%
D12*
%TO.C,R615*%
X117659861Y-129900000D03*
X116740139Y-129900000D03*
%TD*%
D16*
%TO.C,R610*%
X150740139Y-126800000D03*
X151659861Y-126800000D03*
%TD*%
D28*
%TO.C,R203*%
X85446389Y-56900000D03*
X86353611Y-56900000D03*
%TD*%
D13*
%TO.C,C207*%
X170700000Y-77378611D03*
X170700000Y-76421389D03*
%TD*%
D10*
%TO.C,R220*%
X163000000Y-83159861D03*
X163000000Y-82240139D03*
%TD*%
D16*
%TO.C,R519*%
X61240139Y-78300000D03*
X62159861Y-78300000D03*
%TD*%
%TO.C,R301*%
X186640139Y-87800000D03*
X187559861Y-87800000D03*
%TD*%
D10*
%TO.C,R208*%
X133200000Y-60859861D03*
X133200000Y-59940139D03*
%TD*%
D12*
%TO.C,R306*%
X214759861Y-54300000D03*
X213840139Y-54300000D03*
%TD*%
D32*
%TO.C,D501*%
X116199500Y-98563500D03*
X116199500Y-102033500D03*
%TD*%
D21*
%TO.C,Q204*%
X184649500Y-74750000D03*
X184649500Y-76650000D03*
X182150500Y-75700000D03*
%TD*%
D17*
%TO.C,C115*%
X88021389Y-129400000D03*
X88978611Y-129400000D03*
%TD*%
D29*
%TO.C,C201*%
X88678611Y-83600000D03*
X87721389Y-83600000D03*
%TD*%
D33*
%TO.C,U1*%
X157990491Y-49950638D03*
X157990491Y-51220638D03*
X157990491Y-52490638D03*
X157990491Y-53760638D03*
X157990491Y-55030638D03*
X157990491Y-56300638D03*
X157990491Y-57570638D03*
X157990491Y-58840638D03*
X163461491Y-58840638D03*
X163461491Y-57570638D03*
X163461491Y-56300638D03*
X163461491Y-55030638D03*
X163461491Y-53760638D03*
X163461491Y-52490638D03*
X163461491Y-51220638D03*
X163461491Y-49950638D03*
%TD*%
D24*
%TO.C,R406*%
X178280000Y-118346389D03*
X178280000Y-119253611D03*
%TD*%
D12*
%TO.C,R506*%
X112459861Y-107900000D03*
X111540139Y-107900000D03*
%TD*%
D30*
%TO.C,RV502*%
X69350000Y-100000000D03*
D31*
X68200000Y-94200000D03*
D30*
X67050000Y-100000000D03*
%TD*%
D19*
%TO.C,R502*%
X145100000Y-112040139D03*
X145100000Y-112959861D03*
%TD*%
D13*
%TO.C,C104*%
X194900000Y-56978611D03*
X194900000Y-56021389D03*
%TD*%
D23*
%TO.C,C106*%
X205100000Y-107221389D03*
X205100000Y-108178611D03*
%TD*%
D13*
%TO.C,C105*%
X192100000Y-115778611D03*
X192100000Y-114821389D03*
%TD*%
D16*
%TO.C,R202*%
X132740139Y-65850000D03*
X133659861Y-65850000D03*
%TD*%
D19*
%TO.C,R505*%
X172600000Y-101340139D03*
X172600000Y-102259861D03*
%TD*%
D23*
%TO.C,C206*%
X181600000Y-56021389D03*
X181600000Y-56978611D03*
%TD*%
D24*
%TO.C,R507*%
X127600000Y-119246389D03*
X127600000Y-120153611D03*
%TD*%
D19*
%TO.C,R609*%
X145800000Y-144240139D03*
X145800000Y-145159861D03*
%TD*%
D29*
%TO.C,C114*%
X68378611Y-73700000D03*
X67421389Y-73700000D03*
%TD*%
D13*
%TO.C,C109*%
X113900000Y-121078611D03*
X113900000Y-120121389D03*
%TD*%
D19*
%TO.C,R401*%
X207300000Y-112640139D03*
X207300000Y-113559861D03*
%TD*%
D16*
%TO.C,R602*%
X184640139Y-147900000D03*
X185559861Y-147900000D03*
%TD*%
D12*
%TO.C,R601*%
X177259861Y-148000000D03*
X176340139Y-148000000D03*
%TD*%
%TO.C,R516*%
X93259861Y-115000000D03*
X92340139Y-115000000D03*
%TD*%
D22*
%TO.C,U9*%
X198553596Y-51364088D03*
X198553596Y-52634088D03*
X198553596Y-53904088D03*
X198553596Y-55174088D03*
X203964596Y-55174088D03*
X203964596Y-53904088D03*
X203964596Y-52634088D03*
X203964596Y-51364088D03*
%TD*%
D19*
%TO.C,R503*%
X162800000Y-101340139D03*
X162800000Y-102259861D03*
%TD*%
D23*
%TO.C,C203*%
X166900000Y-51021389D03*
X166900000Y-51978611D03*
%TD*%
D10*
%TO.C,R302*%
X214500000Y-73559861D03*
X214500000Y-72640139D03*
%TD*%
D19*
%TO.C,R509*%
X130920000Y-124740139D03*
X130920000Y-125659861D03*
%TD*%
D12*
%TO.C,R508*%
X93259861Y-120500000D03*
X92340139Y-120500000D03*
%TD*%
D32*
%TO.C,D502*%
X104299500Y-98463500D03*
X104299500Y-101933500D03*
%TD*%
D19*
%TO.C,R515*%
X83000000Y-114540139D03*
X83000000Y-115459861D03*
%TD*%
%TO.C,R405*%
X189900000Y-103540139D03*
X189900000Y-104459861D03*
%TD*%
D34*
%TO.C,RV301*%
X186350000Y-94100000D03*
D35*
X187500000Y-99900000D03*
D34*
X188650000Y-94100000D03*
%TD*%
D36*
%TO.C,R215*%
X117553611Y-72100000D03*
X116646389Y-72100000D03*
%TD*%
D29*
%TO.C,C116*%
X96578611Y-142400000D03*
X95621389Y-142400000D03*
%TD*%
D22*
%TO.C,U10*%
X122358387Y-48509985D03*
X122358387Y-49779985D03*
X122358387Y-51049985D03*
X122358387Y-52319985D03*
X127769387Y-52319985D03*
X127769387Y-51049985D03*
X127769387Y-49779985D03*
X127769387Y-48509985D03*
%TD*%
D10*
%TO.C,R2*%
X165071324Y-49236481D03*
X165071324Y-48316759D03*
%TD*%
D24*
%TO.C,R512*%
X145900000Y-119246389D03*
X145900000Y-120153611D03*
%TD*%
D12*
%TO.C,R217*%
X176959861Y-49500000D03*
X176040139Y-49500000D03*
%TD*%
D16*
%TO.C,R605*%
X114340139Y-147900000D03*
X115259861Y-147900000D03*
%TD*%
%TO.C,R303*%
X206540139Y-86700000D03*
X207459861Y-86700000D03*
%TD*%
D34*
%TO.C,RV501*%
X157050000Y-98300000D03*
D35*
X158200000Y-104100000D03*
D34*
X159350000Y-98300000D03*
%TD*%
D14*
%TO.C,D101*%
X127550000Y-103900000D03*
X136250000Y-103900000D03*
%TD*%
D18*
%TO.C,Q301*%
X207550000Y-80050500D03*
X209450000Y-80050500D03*
X208500000Y-82549500D03*
%TD*%
D13*
%TO.C,C107*%
X155600000Y-116978611D03*
X155600000Y-116021389D03*
%TD*%
D34*
%TO.C,RV302*%
X212350000Y-92300000D03*
D35*
X213500000Y-98100000D03*
D34*
X214650000Y-92300000D03*
%TD*%
D19*
%TO.C,R403*%
X214920000Y-126540139D03*
X214920000Y-127459861D03*
%TD*%
D13*
%TO.C,C111*%
X80200000Y-106678611D03*
X80200000Y-105721389D03*
%TD*%
D22*
%TO.C,U7*%
X164544161Y-114299947D03*
X164544161Y-113029947D03*
X164544161Y-111759947D03*
X164544161Y-110489947D03*
X159133161Y-110489947D03*
X159133161Y-111759947D03*
X159133161Y-113029947D03*
X159133161Y-114299947D03*
%TD*%
D12*
%TO.C,R607*%
X61159861Y-147900000D03*
X60240139Y-147900000D03*
%TD*%
D37*
%TO.C,U3*%
X149186631Y-138156016D03*
X150456631Y-138156016D03*
X151726631Y-138156016D03*
X152996631Y-138156016D03*
X152996631Y-132745016D03*
X151726631Y-132745016D03*
X150456631Y-132745016D03*
X149186631Y-132745016D03*
%TD*%
D16*
%TO.C,R606*%
X119206805Y-147900000D03*
X120126527Y-147900000D03*
%TD*%
D11*
%TO.C,R206*%
X107100000Y-57353611D03*
X107100000Y-56446389D03*
%TD*%
D37*
%TO.C,U2*%
X88027572Y-136816323D03*
X89297572Y-136816323D03*
X90567572Y-136816323D03*
X91837572Y-136816323D03*
X91837572Y-131405323D03*
X90567572Y-131405323D03*
X89297572Y-131405323D03*
X88027572Y-131405323D03*
%TD*%
D17*
%TO.C,C119*%
X128021389Y-101600000D03*
X128978611Y-101600000D03*
%TD*%
D19*
%TO.C,R611*%
X85800000Y-144340139D03*
X85800000Y-145259861D03*
%TD*%
D38*
%TO.C,RV205*%
X75700000Y-56300000D03*
D39*
X78600000Y-55150000D03*
D38*
X75700000Y-54000000D03*
%TD*%
D17*
%TO.C,C120*%
X145021389Y-101600000D03*
X145978611Y-101600000D03*
%TD*%
D16*
%TO.C,R616*%
X63740139Y-135100000D03*
X64659861Y-135100000D03*
%TD*%
%TO.C,R211*%
X141740139Y-56400000D03*
X142659861Y-56400000D03*
%TD*%
D12*
%TO.C,R608*%
X67959861Y-147900000D03*
X67040139Y-147900000D03*
%TD*%
D19*
%TO.C,R501*%
X145200000Y-107040139D03*
X145200000Y-107959861D03*
%TD*%
%TO.C,R216*%
X193300000Y-124740139D03*
X193300000Y-125659861D03*
%TD*%
D12*
%TO.C,R613*%
X182859861Y-126400000D03*
X181940139Y-126400000D03*
%TD*%
D21*
%TO.C,Q501*%
X122149500Y-103050000D03*
X122149500Y-104950000D03*
X119650500Y-104000000D03*
%TD*%
D37*
%TO.C,U4*%
X59849547Y-68115629D03*
X61119547Y-68115629D03*
X62389547Y-68115629D03*
X63659547Y-68115629D03*
X63659547Y-62704629D03*
X62389547Y-62704629D03*
X61119547Y-62704629D03*
X59849547Y-62704629D03*
%TD*%
D30*
%TO.C,RV601*%
X62750000Y-119800000D03*
D31*
X61600000Y-114000000D03*
D30*
X60450000Y-119800000D03*
%TD*%
D13*
%TO.C,C204*%
X153900000Y-56978611D03*
X153900000Y-56021389D03*
%TD*%
D40*
%TO.C,Q1*%
X133662406Y-75580659D03*
X133012406Y-75580659D03*
X132362406Y-75580659D03*
X132362406Y-77560659D03*
X133012406Y-77560659D03*
X133662406Y-77560659D03*
%TD*%
D23*
%TO.C,C101*%
X131500000Y-48421389D03*
X131500000Y-49378611D03*
%TD*%
D41*
%TO.C,C205*%
X182292500Y-50497000D03*
X180892500Y-50497000D03*
%TD*%
D23*
%TO.C,C110*%
X126900000Y-112521389D03*
X126900000Y-113478611D03*
%TD*%
D11*
%TO.C,R404*%
X185900000Y-108353611D03*
X185900000Y-107446389D03*
%TD*%
D10*
%TO.C,R305*%
X214500000Y-67659861D03*
X214500000Y-66740139D03*
%TD*%
D42*
%TO.C,RV202*%
X106100000Y-72550500D03*
X103600000Y-72550500D03*
X101100000Y-72550500D03*
D43*
X98600000Y-65550500D03*
X108600000Y-65550500D03*
%TD*%
D44*
%TO.C,J201*%
X79600000Y-86280000D03*
D45*
X74600000Y-86280000D03*
D46*
X75349000Y-82380000D03*
X78850000Y-83780000D03*
X78850000Y-88780000D03*
X75349000Y-90180000D03*
%TD*%
D44*
%TO.C,J203*%
X151600000Y-66280000D03*
D45*
X146600000Y-66280000D03*
D46*
X147349000Y-62380000D03*
X150850000Y-63780000D03*
X150850000Y-68780000D03*
X147349000Y-70180000D03*
%TD*%
D42*
%TO.C,RV402*%
X202100000Y-92550500D03*
X199600000Y-92550500D03*
X197100000Y-92550500D03*
D43*
X194600000Y-85550500D03*
X204600000Y-85550500D03*
%TD*%
D44*
%TO.C,J204*%
X199600000Y-134780000D03*
D45*
X194600000Y-134780000D03*
D46*
X195349000Y-130880000D03*
X198850000Y-132280000D03*
X198850000Y-137280000D03*
X195349000Y-138680000D03*
%TD*%
D44*
%TO.C,J401*%
X151600000Y-86280000D03*
D45*
X146600000Y-86280000D03*
D46*
X147349000Y-82380000D03*
X150850000Y-83780000D03*
X150850000Y-88780000D03*
X147349000Y-90180000D03*
%TD*%
D42*
%TO.C,RV204*%
X178100000Y-72550500D03*
X175600000Y-72550500D03*
X173100000Y-72550500D03*
D43*
X170600000Y-65550500D03*
X180600000Y-65550500D03*
%TD*%
D47*
%TO.C,SW201*%
X125100000Y-79511500D03*
D48*
X125100000Y-74811500D03*
X125100000Y-70111500D03*
%TD*%
D42*
%TO.C,RV203*%
X202100000Y-72550500D03*
X199600000Y-72550500D03*
X197100000Y-72550500D03*
D43*
X194600000Y-65550500D03*
X204600000Y-65550500D03*
%TD*%
D42*
%TO.C,RV401*%
X178100000Y-92550500D03*
X175600000Y-92550500D03*
X173100000Y-92550500D03*
D43*
X170600000Y-85550500D03*
X180600000Y-85550500D03*
%TD*%
D44*
%TO.C,J402*%
X139600000Y-134780000D03*
D45*
X134600000Y-134780000D03*
D46*
X135349000Y-130880000D03*
X138850000Y-132280000D03*
X138850000Y-137280000D03*
X135349000Y-138680000D03*
%TD*%
D44*
%TO.C,J301*%
X169600000Y-134780000D03*
D45*
X164600000Y-134780000D03*
D46*
X165349000Y-130880000D03*
X168850000Y-132280000D03*
X168850000Y-137280000D03*
X165349000Y-138680000D03*
%TD*%
D44*
%TO.C,J202*%
X79600000Y-66280000D03*
D45*
X74600000Y-66280000D03*
D46*
X75349000Y-62380000D03*
X78850000Y-63780000D03*
X78850000Y-68780000D03*
X75349000Y-70180000D03*
%TD*%
D44*
%TO.C,J501*%
X79600000Y-134780000D03*
D45*
X74600000Y-134780000D03*
D46*
X75349000Y-130880000D03*
X78850000Y-132280000D03*
X78850000Y-137280000D03*
X75349000Y-138680000D03*
%TD*%
D44*
%TO.C,J502*%
X109600000Y-134780000D03*
D45*
X104600000Y-134780000D03*
D46*
X105349000Y-130880000D03*
X108850000Y-132280000D03*
X108850000Y-137280000D03*
X105349000Y-138680000D03*
%TD*%
D42*
%TO.C,RV201*%
X106100000Y-92550500D03*
X103600000Y-92550500D03*
X101100000Y-92550500D03*
D43*
X98600000Y-85550500D03*
X108600000Y-85550500D03*
%TD*%
M02*
