%TF.GenerationSoftware,KiCad,Pcbnew,7.0.6+dfsg-1*%
%TF.CreationDate,2023-07-24T09:36:45-07:00*%
%TF.ProjectId,VCO,56434f2e-6b69-4636-9164-5f7063625858,rev?*%
%TF.SameCoordinates,Original*%
%TF.FileFunction,Paste,Bot*%
%TF.FilePolarity,Positive*%
%FSLAX46Y46*%
G04 Gerber Fmt 4.6, Leading zero omitted, Abs format (unit mm)*
G04 Created by KiCad (PCBNEW 7.0.6+dfsg-1) date 2023-07-24 09:36:45*
%MOMM*%
%LPD*%
G01*
G04 APERTURE LIST*
G04 APERTURE END LIST*
%TO.C,D601*%
G36*
X181839500Y-113069500D02*
G01*
X181839500Y-113529500D01*
X181799500Y-113569500D01*
X181220500Y-113569500D01*
X181180500Y-113529500D01*
X181180500Y-113069500D01*
X181220500Y-113029500D01*
X181799500Y-113029500D01*
X181839500Y-113069500D01*
G37*
G36*
X180784500Y-113069500D02*
G01*
X180784500Y-113529500D01*
X180744500Y-113569500D01*
X180166500Y-113569500D01*
X180126500Y-113529500D01*
X180126500Y-113069500D01*
X180166500Y-113029500D01*
X180744500Y-113029500D01*
X180784500Y-113069500D01*
G37*
%TO.C,D603*%
G36*
X106839500Y-113069500D02*
G01*
X106839500Y-113529500D01*
X106799500Y-113569500D01*
X106220500Y-113569500D01*
X106180500Y-113529500D01*
X106180500Y-113069500D01*
X106220500Y-113029500D01*
X106799500Y-113029500D01*
X106839500Y-113069500D01*
G37*
G36*
X105784500Y-113069500D02*
G01*
X105784500Y-113529500D01*
X105744500Y-113569500D01*
X105166500Y-113569500D01*
X105126500Y-113529500D01*
X105126500Y-113069500D01*
X105166500Y-113029500D01*
X105744500Y-113029500D01*
X105784500Y-113069500D01*
G37*
%TO.C,D604*%
G36*
X76839500Y-113069500D02*
G01*
X76839500Y-113529500D01*
X76799500Y-113569500D01*
X76220500Y-113569500D01*
X76180500Y-113529500D01*
X76180500Y-113069500D01*
X76220500Y-113029500D01*
X76799500Y-113029500D01*
X76839500Y-113069500D01*
G37*
G36*
X75784500Y-113069500D02*
G01*
X75784500Y-113529500D01*
X75744500Y-113569500D01*
X75166500Y-113569500D01*
X75126500Y-113529500D01*
X75126500Y-113069500D01*
X75166500Y-113029500D01*
X75744500Y-113029500D01*
X75784500Y-113069500D01*
G37*
%TO.C,D602*%
G36*
X136839500Y-113069500D02*
G01*
X136839500Y-113529500D01*
X136799500Y-113569500D01*
X136220500Y-113569500D01*
X136180500Y-113529500D01*
X136180500Y-113069500D01*
X136220500Y-113029500D01*
X136799500Y-113029500D01*
X136839500Y-113069500D01*
G37*
G36*
X135784500Y-113069500D02*
G01*
X135784500Y-113529500D01*
X135744500Y-113569500D01*
X135166500Y-113569500D01*
X135126500Y-113529500D01*
X135126500Y-113069500D01*
X135166500Y-113029500D01*
X135744500Y-113029500D01*
X135784500Y-113069500D01*
G37*
%TD*%
M02*
