%TF.GenerationSoftware,KiCad,Pcbnew,6.0.10-86aedd382b~118~ubuntu20.04.1*%
%TF.CreationDate,2023-02-01T15:39:36-08:00*%
%TF.ProjectId,CAD,4341442e-6b69-4636-9164-5f7063625858,rev?*%
%TF.SameCoordinates,Original*%
%TF.FileFunction,Profile,NP*%
%FSLAX46Y46*%
G04 Gerber Fmt 4.6, Leading zero omitted, Abs format (unit mm)*
G04 Created by KiCad (PCBNEW 6.0.10-86aedd382b~118~ubuntu20.04.1) date 2023-02-01 15:39:36*
%MOMM*%
%LPD*%
G01*
G04 APERTURE LIST*
%TA.AperFunction,Profile*%
%ADD10C,0.050000*%
%TD*%
G04 APERTURE END LIST*
D10*
X59323223Y-148323223D02*
X59292133Y-148361107D01*
X89207867Y-148361107D02*
X89176777Y-148323223D01*
X59361107Y-166707867D02*
X59404329Y-166730970D01*
X59269030Y-166595671D02*
X59292133Y-166638893D01*
X59500000Y-148250000D02*
X59451227Y-148254804D01*
X89176777Y-148323223D02*
X89138893Y-148292133D01*
X89048773Y-166745196D02*
X89095671Y-166730970D01*
X89245196Y-166548773D02*
X89250000Y-166500000D01*
X59404329Y-166730970D02*
X59451227Y-166745196D01*
X59269030Y-148404329D02*
X59254804Y-148451227D01*
X59292133Y-166638893D02*
X59323223Y-166676777D01*
X59250000Y-148500000D02*
X59250000Y-166500000D01*
X89095671Y-166730970D02*
X89138893Y-166707867D01*
X59451227Y-166745196D02*
X59500000Y-166750000D01*
X89048773Y-148254804D02*
X89000000Y-148250000D01*
X89230970Y-148404329D02*
X89207867Y-148361107D01*
X89138893Y-148292133D02*
X89095671Y-148269030D01*
X89250000Y-166500000D02*
X89250000Y-148500000D01*
X59250000Y-166500000D02*
X59254804Y-166548773D01*
X59323223Y-166676777D02*
X59361107Y-166707867D01*
X89095671Y-148269030D02*
X89048773Y-148254804D01*
X89138893Y-166707867D02*
X89176777Y-166676777D01*
X59404329Y-148269030D02*
X59361107Y-148292133D01*
X59292133Y-148361107D02*
X59269030Y-148404329D01*
X59500000Y-166750000D02*
X89000000Y-166750000D01*
X59254804Y-148451227D02*
X59250000Y-148500000D01*
X59361107Y-148292133D02*
X59323223Y-148323223D01*
X89000000Y-166750000D02*
X89048773Y-166745196D01*
X59254804Y-166548773D02*
X59269030Y-166595671D01*
X89000000Y-148250000D02*
X59500000Y-148250000D01*
X89230970Y-166595671D02*
X89245196Y-166548773D01*
X59451227Y-148254804D02*
X59404329Y-148269030D01*
X89207867Y-166638893D02*
X89230970Y-166595671D01*
X89250000Y-148500000D02*
X89245196Y-148451227D01*
X89176777Y-166676777D02*
X89207867Y-166638893D01*
X89245196Y-148451227D02*
X89230970Y-148404329D01*
M02*
