%TF.GenerationSoftware,KiCad,Pcbnew,6.0.10-86aedd382b~118~ubuntu20.04.1*%
%TF.CreationDate,2023-02-01T15:49:50-08:00*%
%TF.ProjectId,CAD,4341442e-6b69-4636-9164-5f7063625858,rev?*%
%TF.SameCoordinates,Original*%
%TF.FileFunction,Paste,Top*%
%TF.FilePolarity,Positive*%
%FSLAX46Y46*%
G04 Gerber Fmt 4.6, Leading zero omitted, Abs format (unit mm)*
G04 Created by KiCad (PCBNEW 6.0.10-86aedd382b~118~ubuntu20.04.1) date 2023-02-01 15:49:50*
%MOMM*%
%LPD*%
G01*
G04 APERTURE LIST*
%ADD10R,0.600000X0.457778*%
%ADD11R,1.700000X0.900000*%
%ADD12R,3.000000X0.800000*%
%ADD13R,0.900000X1.800000*%
%ADD14R,1.100000X0.929997*%
%ADD15R,0.600000X0.380278*%
%ADD16R,0.380278X0.600000*%
%ADD17R,0.512132X0.950000*%
%ADD18R,0.600000X0.417778*%
%ADD19R,0.417778X0.600000*%
%ADD20R,0.160000X0.800000*%
%ADD21R,0.800000X0.160000*%
%ADD22R,1.680000X1.680000*%
%ADD23R,1.050000X0.600000*%
%ADD24R,1.640000X0.600000*%
%ADD25R,1.640000X0.300000*%
G04 APERTURE END LIST*
D10*
%TO.C,C2*%
X76200000Y-160274000D03*
X76200000Y-161271222D03*
%TD*%
D11*
%TO.C,U9*%
X67325095Y-161305873D03*
X67325095Y-163305873D03*
D12*
X60975083Y-165555809D03*
X60975083Y-159055936D03*
%TD*%
D13*
%TO.C,U8*%
X86832064Y-152046932D03*
X83832064Y-152046932D03*
X82332191Y-152046932D03*
D14*
X80782025Y-151150056D03*
X80782025Y-148880054D03*
X88381975Y-148880054D03*
X88381975Y-151150056D03*
%TD*%
D15*
%TO.C,R3*%
X72767000Y-149792138D03*
X72767000Y-150711860D03*
%TD*%
D16*
%TO.C,R9*%
X79504661Y-162864800D03*
X78584939Y-162864800D03*
%TD*%
%TO.C,R5*%
X71760861Y-152791999D03*
X70841139Y-152791999D03*
%TD*%
D17*
%TO.C,D2*%
X70028066Y-154990800D03*
X71465934Y-154990800D03*
%TD*%
D18*
%TO.C,C4*%
X84836000Y-156053611D03*
X84836000Y-155096389D03*
%TD*%
D11*
%TO.C,U5*%
X67325095Y-151653873D03*
X67325095Y-153653873D03*
D12*
X60975083Y-155903809D03*
X60975083Y-149403936D03*
%TD*%
D16*
%TO.C,R2*%
X71760861Y-153807999D03*
X70841139Y-153807999D03*
%TD*%
D19*
%TO.C,C6*%
X72106611Y-163322000D03*
X71149389Y-163322000D03*
%TD*%
D16*
%TO.C,R8*%
X76776139Y-151920000D03*
X77695861Y-151920000D03*
%TD*%
D10*
%TO.C,C1*%
X75184000Y-160283389D03*
X75184000Y-161280611D03*
%TD*%
D16*
%TO.C,R10*%
X79707861Y-159766000D03*
X78788139Y-159766000D03*
%TD*%
D20*
%TO.C,U1*%
X75041000Y-151686000D03*
X74541000Y-151686000D03*
X74041000Y-151686000D03*
X73541000Y-151686000D03*
D21*
X72791000Y-152436000D03*
X72791000Y-152936000D03*
X72791000Y-153436000D03*
X72791000Y-153936000D03*
D20*
X73541000Y-154686000D03*
X74041000Y-154686000D03*
X74541000Y-154686000D03*
X75041000Y-154686000D03*
D21*
X75791000Y-153936000D03*
X75791000Y-153436000D03*
X75791000Y-152936000D03*
X75791000Y-152436000D03*
D22*
X74291000Y-153186000D03*
%TD*%
D23*
%TO.C,U2*%
X73994000Y-162240000D03*
X73994000Y-161290000D03*
X73994000Y-160340000D03*
X71294000Y-160340000D03*
X71294000Y-162240000D03*
%TD*%
D18*
%TO.C,C5*%
X73656000Y-156572610D03*
X73656000Y-155615388D03*
%TD*%
D16*
%TO.C,R6*%
X71760861Y-151775999D03*
X70841139Y-151775999D03*
%TD*%
D15*
%TO.C,R4*%
X75815000Y-150711860D03*
X75815000Y-149792138D03*
%TD*%
D16*
%TO.C,R12*%
X81231861Y-152527000D03*
X80312139Y-152527000D03*
%TD*%
D15*
%TO.C,R1*%
X72640000Y-155682277D03*
X72640000Y-156601999D03*
%TD*%
%TO.C,R11*%
X83820000Y-156034861D03*
X83820000Y-155115139D03*
%TD*%
D24*
%TO.C,J1*%
X81097000Y-164904500D03*
X81097000Y-164104500D03*
D25*
X81097000Y-162904500D03*
X81097000Y-161904500D03*
X81097000Y-161404500D03*
X81097000Y-160404500D03*
D24*
X81097000Y-158404500D03*
X81097000Y-159204500D03*
D25*
X81097000Y-159904500D03*
X81097000Y-160904500D03*
X81097000Y-162404500D03*
X81097000Y-163404500D03*
%TD*%
D10*
%TO.C,C3*%
X68834000Y-153152611D03*
X68834000Y-152155389D03*
%TD*%
D15*
%TO.C,R13*%
X74672000Y-155634138D03*
X74672000Y-156553860D03*
%TD*%
%TO.C,R7*%
X75946000Y-155623139D03*
X75946000Y-156542861D03*
%TD*%
D17*
%TO.C,D1*%
X68673866Y-156311600D03*
X70111734Y-156311600D03*
%TD*%
M02*
