%TF.GenerationSoftware,KiCad,Pcbnew,6.0.10-86aedd382b~118~ubuntu20.04.1*%
%TF.CreationDate,2023-02-01T15:39:36-08:00*%
%TF.ProjectId,CAD,4341442e-6b69-4636-9164-5f7063625858,rev?*%
%TF.SameCoordinates,Original*%
%TF.FileFunction,Soldermask,Top*%
%TF.FilePolarity,Negative*%
%FSLAX46Y46*%
G04 Gerber Fmt 4.6, Leading zero omitted, Abs format (unit mm)*
G04 Created by KiCad (PCBNEW 6.0.10-86aedd382b~118~ubuntu20.04.1) date 2023-02-01 15:39:36*
%MOMM*%
%LPD*%
G01*
G04 APERTURE LIST*
G04 Aperture macros list*
%AMRoundRect*
0 Rectangle with rounded corners*
0 $1 Rounding radius*
0 $2 $3 $4 $5 $6 $7 $8 $9 X,Y pos of 4 corners*
0 Add a 4 corners polygon primitive as box body*
4,1,4,$2,$3,$4,$5,$6,$7,$8,$9,$2,$3,0*
0 Add four circle primitives for the rounded corners*
1,1,$1+$1,$2,$3*
1,1,$1+$1,$4,$5*
1,1,$1+$1,$6,$7*
1,1,$1+$1,$8,$9*
0 Add four rect primitives between the rounded corners*
20,1,$1+$1,$2,$3,$4,$5,0*
20,1,$1+$1,$4,$5,$6,$7,0*
20,1,$1+$1,$6,$7,$8,$9,0*
20,1,$1+$1,$8,$9,$2,$3,0*%
G04 Aperture macros list end*
%ADD10RoundRect,0.051000X0.850000X-0.450000X0.850000X0.450000X-0.850000X0.450000X-0.850000X-0.450000X0*%
%ADD11RoundRect,0.051000X1.500000X-0.400000X1.500000X0.400000X-1.500000X0.400000X-1.500000X-0.400000X0*%
%ADD12C,0.951987*%
%ADD13RoundRect,0.051000X0.450000X0.900000X-0.450000X0.900000X-0.450000X-0.900000X0.450000X-0.900000X0*%
%ADD14RoundRect,0.051000X0.550000X0.464998X-0.550000X0.464998X-0.550000X-0.464998X0.550000X-0.464998X0*%
%ADD15C,0.712000*%
%ADD16C,0.702000*%
G04 APERTURE END LIST*
%TO.C,C2*%
G36*
X76550000Y-160552889D02*
G01*
X75850000Y-160552889D01*
X75850000Y-159995111D01*
X76550000Y-159995111D01*
X76550000Y-160552889D01*
G37*
G36*
X76550000Y-161550111D02*
G01*
X75850000Y-161550111D01*
X75850000Y-160992333D01*
X76550000Y-160992333D01*
X76550000Y-161550111D01*
G37*
%TO.C,*%
G36*
X70054845Y-164324175D02*
G01*
X70251818Y-164383926D01*
X70433349Y-164480957D01*
X70592462Y-164611538D01*
X70723043Y-164770651D01*
X70820074Y-164952182D01*
X70879825Y-165149155D01*
X70900000Y-165354000D01*
X70879825Y-165558845D01*
X70820074Y-165755818D01*
X70723043Y-165937349D01*
X70592462Y-166096462D01*
X70433349Y-166227043D01*
X70251818Y-166324074D01*
X70054845Y-166383825D01*
X69850000Y-166404000D01*
X69645155Y-166383825D01*
X69448182Y-166324074D01*
X69266651Y-166227043D01*
X69107538Y-166096462D01*
X68976957Y-165937349D01*
X68879926Y-165755818D01*
X68820175Y-165558845D01*
X68800000Y-165354000D01*
X68820175Y-165149155D01*
X68879926Y-164952182D01*
X68976957Y-164770651D01*
X69107538Y-164611538D01*
X69266651Y-164480957D01*
X69448182Y-164383926D01*
X69645155Y-164324175D01*
X69850000Y-164304000D01*
X70054845Y-164324175D01*
G37*
%TO.C,U8*%
G36*
X83164912Y-149598355D02*
G01*
X83244638Y-149622539D01*
X83318114Y-149661813D01*
X83382516Y-149714666D01*
X83435369Y-149779068D01*
X83474643Y-149852544D01*
X83498827Y-149932270D01*
X83506993Y-150015182D01*
X83498827Y-150098094D01*
X83474643Y-150177820D01*
X83435369Y-150251296D01*
X83382516Y-150315698D01*
X83318114Y-150368551D01*
X83244638Y-150407825D01*
X83164912Y-150432009D01*
X83082000Y-150440176D01*
X82999088Y-150432009D01*
X82919362Y-150407825D01*
X82845886Y-150368551D01*
X82781484Y-150315698D01*
X82728631Y-150251296D01*
X82689357Y-150177820D01*
X82665173Y-150098094D01*
X82657006Y-150015182D01*
X82665173Y-149932270D01*
X82689357Y-149852544D01*
X82728631Y-149779068D01*
X82781484Y-149714666D01*
X82845886Y-149661813D01*
X82919362Y-149622539D01*
X82999088Y-149598355D01*
X83082000Y-149590188D01*
X83164912Y-149598355D01*
G37*
G36*
X86164912Y-149598355D02*
G01*
X86244638Y-149622539D01*
X86318114Y-149661813D01*
X86382516Y-149714666D01*
X86435369Y-149779068D01*
X86474643Y-149852544D01*
X86498827Y-149932270D01*
X86506994Y-150015182D01*
X86498827Y-150098094D01*
X86474643Y-150177820D01*
X86435369Y-150251296D01*
X86382516Y-150315698D01*
X86318114Y-150368551D01*
X86244638Y-150407825D01*
X86164912Y-150432009D01*
X86082000Y-150440176D01*
X85999088Y-150432009D01*
X85919362Y-150407825D01*
X85845886Y-150368551D01*
X85781484Y-150315698D01*
X85728631Y-150251296D01*
X85689357Y-150177820D01*
X85665173Y-150098094D01*
X85657007Y-150015182D01*
X85665173Y-149932270D01*
X85689357Y-149852544D01*
X85728631Y-149779068D01*
X85781484Y-149714666D01*
X85845886Y-149661813D01*
X85919362Y-149622539D01*
X85999088Y-149598355D01*
X86082000Y-149590188D01*
X86164912Y-149598355D01*
G37*
%TO.C,R3*%
G36*
X73117000Y-150032277D02*
G01*
X72417000Y-150032277D01*
X72417000Y-149551999D01*
X73117000Y-149551999D01*
X73117000Y-150032277D01*
G37*
G36*
X73117000Y-150951999D02*
G01*
X72417000Y-150951999D01*
X72417000Y-150471721D01*
X73117000Y-150471721D01*
X73117000Y-150951999D01*
G37*
%TO.C,*%
G36*
X78690845Y-164324175D02*
G01*
X78887818Y-164383926D01*
X79069349Y-164480957D01*
X79228462Y-164611538D01*
X79359043Y-164770651D01*
X79456074Y-164952182D01*
X79515825Y-165149155D01*
X79536000Y-165354000D01*
X79515825Y-165558845D01*
X79456074Y-165755818D01*
X79359043Y-165937349D01*
X79228462Y-166096462D01*
X79069349Y-166227043D01*
X78887818Y-166324074D01*
X78690845Y-166383825D01*
X78486000Y-166404000D01*
X78281155Y-166383825D01*
X78084182Y-166324074D01*
X77902651Y-166227043D01*
X77743538Y-166096462D01*
X77612957Y-165937349D01*
X77515926Y-165755818D01*
X77456175Y-165558845D01*
X77436000Y-165354000D01*
X77456175Y-165149155D01*
X77515926Y-164952182D01*
X77612957Y-164770651D01*
X77743538Y-164611538D01*
X77902651Y-164480957D01*
X78084182Y-164383926D01*
X78281155Y-164324175D01*
X78486000Y-164304000D01*
X78690845Y-164324175D01*
G37*
%TO.C,R9*%
G36*
X79744800Y-163214800D02*
G01*
X79264522Y-163214800D01*
X79264522Y-162514800D01*
X79744800Y-162514800D01*
X79744800Y-163214800D01*
G37*
G36*
X78825078Y-163214800D02*
G01*
X78344800Y-163214800D01*
X78344800Y-162514800D01*
X78825078Y-162514800D01*
X78825078Y-163214800D01*
G37*
%TO.C,R5*%
G36*
X71081278Y-153141999D02*
G01*
X70601000Y-153141999D01*
X70601000Y-152441999D01*
X71081278Y-152441999D01*
X71081278Y-153141999D01*
G37*
G36*
X72001000Y-153141999D02*
G01*
X71520722Y-153141999D01*
X71520722Y-152441999D01*
X72001000Y-152441999D01*
X72001000Y-153141999D01*
G37*
%TO.C,D2*%
G36*
X70334132Y-155515800D02*
G01*
X69722000Y-155515800D01*
X69722000Y-154465800D01*
X70334132Y-154465800D01*
X70334132Y-155515800D01*
G37*
G36*
X71772000Y-155515800D02*
G01*
X71159868Y-155515800D01*
X71159868Y-154465800D01*
X71772000Y-154465800D01*
X71772000Y-155515800D01*
G37*
%TO.C,C4*%
G36*
X85186000Y-156312500D02*
G01*
X84486000Y-156312500D01*
X84486000Y-155794722D01*
X85186000Y-155794722D01*
X85186000Y-156312500D01*
G37*
G36*
X85186000Y-155355278D02*
G01*
X84486000Y-155355278D01*
X84486000Y-154837500D01*
X85186000Y-154837500D01*
X85186000Y-155355278D01*
G37*
%TO.C,R2*%
G36*
X71081278Y-154157999D02*
G01*
X70601000Y-154157999D01*
X70601000Y-153457999D01*
X71081278Y-153457999D01*
X71081278Y-154157999D01*
G37*
G36*
X72001000Y-154157999D02*
G01*
X71520722Y-154157999D01*
X71520722Y-153457999D01*
X72001000Y-153457999D01*
X72001000Y-154157999D01*
G37*
%TO.C,C6*%
G36*
X71408278Y-163672000D02*
G01*
X70890500Y-163672000D01*
X70890500Y-162972000D01*
X71408278Y-162972000D01*
X71408278Y-163672000D01*
G37*
G36*
X72365500Y-163672000D02*
G01*
X71847722Y-163672000D01*
X71847722Y-162972000D01*
X72365500Y-162972000D01*
X72365500Y-163672000D01*
G37*
%TO.C,R8*%
G36*
X77936000Y-152270000D02*
G01*
X77455722Y-152270000D01*
X77455722Y-151570000D01*
X77936000Y-151570000D01*
X77936000Y-152270000D01*
G37*
G36*
X77016278Y-152270000D02*
G01*
X76536000Y-152270000D01*
X76536000Y-151570000D01*
X77016278Y-151570000D01*
X77016278Y-152270000D01*
G37*
%TO.C,C1*%
G36*
X75534000Y-161559500D02*
G01*
X74834000Y-161559500D01*
X74834000Y-161001722D01*
X75534000Y-161001722D01*
X75534000Y-161559500D01*
G37*
G36*
X75534000Y-160562278D02*
G01*
X74834000Y-160562278D01*
X74834000Y-160004500D01*
X75534000Y-160004500D01*
X75534000Y-160562278D01*
G37*
%TO.C,R10*%
G36*
X79028278Y-160116000D02*
G01*
X78548000Y-160116000D01*
X78548000Y-159416000D01*
X79028278Y-159416000D01*
X79028278Y-160116000D01*
G37*
G36*
X79948000Y-160116000D02*
G01*
X79467722Y-160116000D01*
X79467722Y-159416000D01*
X79948000Y-159416000D01*
X79948000Y-160116000D01*
G37*
%TO.C,U1*%
G36*
X74671000Y-152136000D02*
G01*
X74411000Y-152136000D01*
X74411000Y-151236000D01*
X74671000Y-151236000D01*
X74671000Y-152136000D01*
G37*
G36*
X73241000Y-152566000D02*
G01*
X72341000Y-152566000D01*
X72341000Y-152306000D01*
X73241000Y-152306000D01*
X73241000Y-152566000D01*
G37*
G36*
X76241000Y-152566000D02*
G01*
X75341000Y-152566000D01*
X75341000Y-152306000D01*
X76241000Y-152306000D01*
X76241000Y-152566000D01*
G37*
G36*
X73241000Y-154066000D02*
G01*
X72341000Y-154066000D01*
X72341000Y-153806000D01*
X73241000Y-153806000D01*
X73241000Y-154066000D01*
G37*
G36*
X75181000Y-154076000D02*
G01*
X73401000Y-154076000D01*
X73401000Y-152296000D01*
X75181000Y-152296000D01*
X75181000Y-154076000D01*
G37*
G36*
X73671000Y-155136000D02*
G01*
X73411000Y-155136000D01*
X73411000Y-154236000D01*
X73671000Y-154236000D01*
X73671000Y-155136000D01*
G37*
G36*
X74171000Y-155136000D02*
G01*
X73911000Y-155136000D01*
X73911000Y-154236000D01*
X74171000Y-154236000D01*
X74171000Y-155136000D01*
G37*
G36*
X73671000Y-152136000D02*
G01*
X73411000Y-152136000D01*
X73411000Y-151236000D01*
X73671000Y-151236000D01*
X73671000Y-152136000D01*
G37*
G36*
X74171000Y-152136000D02*
G01*
X73911000Y-152136000D01*
X73911000Y-151236000D01*
X74171000Y-151236000D01*
X74171000Y-152136000D01*
G37*
G36*
X76241000Y-154066000D02*
G01*
X75341000Y-154066000D01*
X75341000Y-153806000D01*
X76241000Y-153806000D01*
X76241000Y-154066000D01*
G37*
G36*
X75171000Y-155136000D02*
G01*
X74911000Y-155136000D01*
X74911000Y-154236000D01*
X75171000Y-154236000D01*
X75171000Y-155136000D01*
G37*
G36*
X73241000Y-153066000D02*
G01*
X72341000Y-153066000D01*
X72341000Y-152806000D01*
X73241000Y-152806000D01*
X73241000Y-153066000D01*
G37*
G36*
X74671000Y-155136000D02*
G01*
X74411000Y-155136000D01*
X74411000Y-154236000D01*
X74671000Y-154236000D01*
X74671000Y-155136000D01*
G37*
G36*
X75171000Y-152136000D02*
G01*
X74911000Y-152136000D01*
X74911000Y-151236000D01*
X75171000Y-151236000D01*
X75171000Y-152136000D01*
G37*
G36*
X76241000Y-153566000D02*
G01*
X75341000Y-153566000D01*
X75341000Y-153306000D01*
X76241000Y-153306000D01*
X76241000Y-153566000D01*
G37*
G36*
X76241000Y-153066000D02*
G01*
X75341000Y-153066000D01*
X75341000Y-152806000D01*
X76241000Y-152806000D01*
X76241000Y-153066000D01*
G37*
G36*
X73241000Y-153566000D02*
G01*
X72341000Y-153566000D01*
X72341000Y-153306000D01*
X73241000Y-153306000D01*
X73241000Y-153566000D01*
G37*
%TO.C,U2*%
G36*
X71869000Y-162590000D02*
G01*
X70719000Y-162590000D01*
X70719000Y-161890000D01*
X71869000Y-161890000D01*
X71869000Y-162590000D01*
G37*
G36*
X74569000Y-160690000D02*
G01*
X73419000Y-160690000D01*
X73419000Y-159990000D01*
X74569000Y-159990000D01*
X74569000Y-160690000D01*
G37*
G36*
X74569000Y-161640000D02*
G01*
X73419000Y-161640000D01*
X73419000Y-160940000D01*
X74569000Y-160940000D01*
X74569000Y-161640000D01*
G37*
G36*
X74569000Y-162590000D02*
G01*
X73419000Y-162590000D01*
X73419000Y-161890000D01*
X74569000Y-161890000D01*
X74569000Y-162590000D01*
G37*
G36*
X71869000Y-160690000D02*
G01*
X70719000Y-160690000D01*
X70719000Y-159990000D01*
X71869000Y-159990000D01*
X71869000Y-160690000D01*
G37*
%TO.C,C5*%
G36*
X74006000Y-155874277D02*
G01*
X73306000Y-155874277D01*
X73306000Y-155356499D01*
X74006000Y-155356499D01*
X74006000Y-155874277D01*
G37*
G36*
X74006000Y-156831499D02*
G01*
X73306000Y-156831499D01*
X73306000Y-156313721D01*
X74006000Y-156313721D01*
X74006000Y-156831499D01*
G37*
%TO.C,R6*%
G36*
X71081278Y-152125999D02*
G01*
X70601000Y-152125999D01*
X70601000Y-151425999D01*
X71081278Y-151425999D01*
X71081278Y-152125999D01*
G37*
G36*
X72001000Y-152125999D02*
G01*
X71520722Y-152125999D01*
X71520722Y-151425999D01*
X72001000Y-151425999D01*
X72001000Y-152125999D01*
G37*
%TO.C,R4*%
G36*
X76165000Y-150951999D02*
G01*
X75465000Y-150951999D01*
X75465000Y-150471721D01*
X76165000Y-150471721D01*
X76165000Y-150951999D01*
G37*
G36*
X76165000Y-150032277D02*
G01*
X75465000Y-150032277D01*
X75465000Y-149551999D01*
X76165000Y-149551999D01*
X76165000Y-150032277D01*
G37*
%TO.C,R12*%
G36*
X81472000Y-152877000D02*
G01*
X80991722Y-152877000D01*
X80991722Y-152177000D01*
X81472000Y-152177000D01*
X81472000Y-152877000D01*
G37*
G36*
X80552278Y-152877000D02*
G01*
X80072000Y-152877000D01*
X80072000Y-152177000D01*
X80552278Y-152177000D01*
X80552278Y-152877000D01*
G37*
%TO.C,R1*%
G36*
X72990000Y-155922416D02*
G01*
X72290000Y-155922416D01*
X72290000Y-155442138D01*
X72990000Y-155442138D01*
X72990000Y-155922416D01*
G37*
G36*
X72990000Y-156842138D02*
G01*
X72290000Y-156842138D01*
X72290000Y-156361860D01*
X72990000Y-156361860D01*
X72990000Y-156842138D01*
G37*
%TO.C,R11*%
G36*
X84170000Y-156275000D02*
G01*
X83470000Y-156275000D01*
X83470000Y-155794722D01*
X84170000Y-155794722D01*
X84170000Y-156275000D01*
G37*
G36*
X84170000Y-155355278D02*
G01*
X83470000Y-155355278D01*
X83470000Y-154875000D01*
X84170000Y-154875000D01*
X84170000Y-155355278D01*
G37*
%TO.C,J1*%
G36*
X86690545Y-156844107D02*
G01*
X86784342Y-156872560D01*
X86870785Y-156918765D01*
X86946553Y-156980947D01*
X87008735Y-157056715D01*
X87054940Y-157143158D01*
X87083393Y-157236955D01*
X87093000Y-157334500D01*
X87083393Y-157432045D01*
X87054940Y-157525842D01*
X87008735Y-157612285D01*
X86946553Y-157688053D01*
X86870785Y-157750235D01*
X86784342Y-157796440D01*
X86690545Y-157824893D01*
X86593000Y-157834500D01*
X85793000Y-157834500D01*
X85695455Y-157824893D01*
X85601658Y-157796440D01*
X85515215Y-157750235D01*
X85439447Y-157688053D01*
X85377265Y-157612285D01*
X85331060Y-157525842D01*
X85302607Y-157432045D01*
X85293000Y-157334500D01*
X85302607Y-157236955D01*
X85331060Y-157143158D01*
X85377265Y-157056715D01*
X85439447Y-156980947D01*
X85515215Y-156918765D01*
X85601658Y-156872560D01*
X85695455Y-156844107D01*
X85793000Y-156834500D01*
X86593000Y-156834500D01*
X86690545Y-156844107D01*
G37*
G36*
X81967000Y-161104500D02*
G01*
X80227000Y-161104500D01*
X80227000Y-160704500D01*
X81967000Y-160704500D01*
X81967000Y-161104500D01*
G37*
G36*
X81967000Y-158754500D02*
G01*
X80227000Y-158754500D01*
X80227000Y-158054500D01*
X81967000Y-158054500D01*
X81967000Y-158754500D01*
G37*
G36*
X81967000Y-163604500D02*
G01*
X80227000Y-163604500D01*
X80227000Y-163204500D01*
X81967000Y-163204500D01*
X81967000Y-163604500D01*
G37*
G36*
X82660545Y-156844107D02*
G01*
X82754342Y-156872560D01*
X82840785Y-156918765D01*
X82916553Y-156980947D01*
X82978735Y-157056715D01*
X83024940Y-157143158D01*
X83053393Y-157236955D01*
X83063000Y-157334500D01*
X83053393Y-157432045D01*
X83024940Y-157525842D01*
X82978735Y-157612285D01*
X82916553Y-157688053D01*
X82840785Y-157750235D01*
X82754342Y-157796440D01*
X82660545Y-157824893D01*
X82563000Y-157834500D01*
X81463000Y-157834500D01*
X81365455Y-157824893D01*
X81271658Y-157796440D01*
X81185215Y-157750235D01*
X81109447Y-157688053D01*
X81047265Y-157612285D01*
X81001060Y-157525842D01*
X80972607Y-157432045D01*
X80963000Y-157334500D01*
X80972607Y-157236955D01*
X81001060Y-157143158D01*
X81047265Y-157056715D01*
X81109447Y-156980947D01*
X81185215Y-156918765D01*
X81271658Y-156872560D01*
X81365455Y-156844107D01*
X81463000Y-156834500D01*
X82563000Y-156834500D01*
X82660545Y-156844107D01*
G37*
G36*
X81967000Y-163104500D02*
G01*
X80227000Y-163104500D01*
X80227000Y-162704500D01*
X81967000Y-162704500D01*
X81967000Y-163104500D01*
G37*
G36*
X81967000Y-159554500D02*
G01*
X80227000Y-159554500D01*
X80227000Y-158854500D01*
X81967000Y-158854500D01*
X81967000Y-159554500D01*
G37*
G36*
X81967000Y-160104500D02*
G01*
X80227000Y-160104500D01*
X80227000Y-159704500D01*
X81967000Y-159704500D01*
X81967000Y-160104500D01*
G37*
G36*
X86690545Y-165484107D02*
G01*
X86784342Y-165512560D01*
X86870785Y-165558765D01*
X86946553Y-165620947D01*
X87008735Y-165696715D01*
X87054940Y-165783158D01*
X87083393Y-165876955D01*
X87093000Y-165974500D01*
X87083393Y-166072045D01*
X87054940Y-166165842D01*
X87008735Y-166252285D01*
X86946553Y-166328053D01*
X86870785Y-166390235D01*
X86784342Y-166436440D01*
X86690545Y-166464893D01*
X86593000Y-166474500D01*
X85793000Y-166474500D01*
X85695455Y-166464893D01*
X85601658Y-166436440D01*
X85515215Y-166390235D01*
X85439447Y-166328053D01*
X85377265Y-166252285D01*
X85331060Y-166165842D01*
X85302607Y-166072045D01*
X85293000Y-165974500D01*
X85302607Y-165876955D01*
X85331060Y-165783158D01*
X85377265Y-165696715D01*
X85439447Y-165620947D01*
X85515215Y-165558765D01*
X85601658Y-165512560D01*
X85695455Y-165484107D01*
X85793000Y-165474500D01*
X86593000Y-165474500D01*
X86690545Y-165484107D01*
G37*
G36*
X81967000Y-160604500D02*
G01*
X80227000Y-160604500D01*
X80227000Y-160204500D01*
X81967000Y-160204500D01*
X81967000Y-160604500D01*
G37*
G36*
X81967000Y-162104500D02*
G01*
X80227000Y-162104500D01*
X80227000Y-161704500D01*
X81967000Y-161704500D01*
X81967000Y-162104500D01*
G37*
G36*
X81967000Y-165254500D02*
G01*
X80227000Y-165254500D01*
X80227000Y-164554500D01*
X81967000Y-164554500D01*
X81967000Y-165254500D01*
G37*
G36*
X81967000Y-161604500D02*
G01*
X80227000Y-161604500D01*
X80227000Y-161204500D01*
X81967000Y-161204500D01*
X81967000Y-161604500D01*
G37*
G36*
X82660545Y-165484107D02*
G01*
X82754342Y-165512560D01*
X82840785Y-165558765D01*
X82916553Y-165620947D01*
X82978735Y-165696715D01*
X83024940Y-165783158D01*
X83053393Y-165876955D01*
X83063000Y-165974500D01*
X83053393Y-166072045D01*
X83024940Y-166165842D01*
X82978735Y-166252285D01*
X82916553Y-166328053D01*
X82840785Y-166390235D01*
X82754342Y-166436440D01*
X82660545Y-166464893D01*
X82563000Y-166474500D01*
X81463000Y-166474500D01*
X81365455Y-166464893D01*
X81271658Y-166436440D01*
X81185215Y-166390235D01*
X81109447Y-166328053D01*
X81047265Y-166252285D01*
X81001060Y-166165842D01*
X80972607Y-166072045D01*
X80963000Y-165974500D01*
X80972607Y-165876955D01*
X81001060Y-165783158D01*
X81047265Y-165696715D01*
X81109447Y-165620947D01*
X81185215Y-165558765D01*
X81271658Y-165512560D01*
X81365455Y-165484107D01*
X81463000Y-165474500D01*
X82563000Y-165474500D01*
X82660545Y-165484107D01*
G37*
G36*
X81967000Y-162604500D02*
G01*
X80227000Y-162604500D01*
X80227000Y-162204500D01*
X81967000Y-162204500D01*
X81967000Y-162604500D01*
G37*
G36*
X81967000Y-164454500D02*
G01*
X80227000Y-164454500D01*
X80227000Y-163754500D01*
X81967000Y-163754500D01*
X81967000Y-164454500D01*
G37*
%TO.C,C3*%
G36*
X69184000Y-153431500D02*
G01*
X68484000Y-153431500D01*
X68484000Y-152873722D01*
X69184000Y-152873722D01*
X69184000Y-153431500D01*
G37*
G36*
X69184000Y-152434278D02*
G01*
X68484000Y-152434278D01*
X68484000Y-151876500D01*
X69184000Y-151876500D01*
X69184000Y-152434278D01*
G37*
%TO.C,R13*%
G36*
X75022000Y-155874277D02*
G01*
X74322000Y-155874277D01*
X74322000Y-155393999D01*
X75022000Y-155393999D01*
X75022000Y-155874277D01*
G37*
G36*
X75022000Y-156793999D02*
G01*
X74322000Y-156793999D01*
X74322000Y-156313721D01*
X75022000Y-156313721D01*
X75022000Y-156793999D01*
G37*
%TO.C,R7*%
G36*
X76296000Y-155863278D02*
G01*
X75596000Y-155863278D01*
X75596000Y-155383000D01*
X76296000Y-155383000D01*
X76296000Y-155863278D01*
G37*
G36*
X76296000Y-156783000D02*
G01*
X75596000Y-156783000D01*
X75596000Y-156302722D01*
X76296000Y-156302722D01*
X76296000Y-156783000D01*
G37*
%TO.C,D1*%
G36*
X70417800Y-156836600D02*
G01*
X69805668Y-156836600D01*
X69805668Y-155786600D01*
X70417800Y-155786600D01*
X70417800Y-156836600D01*
G37*
G36*
X68979932Y-156836600D02*
G01*
X68367800Y-156836600D01*
X68367800Y-155786600D01*
X68979932Y-155786600D01*
X68979932Y-156836600D01*
G37*
%TD*%
D10*
%TO.C,U9*%
X67325095Y-161305873D03*
X67325095Y-163305873D03*
D11*
X60975083Y-165555809D03*
X60975083Y-159055936D03*
%TD*%
D12*
%TO.C,U8*%
X83082000Y-150015182D03*
X86082000Y-150015182D03*
D13*
X86832064Y-152046932D03*
X83832064Y-152046932D03*
X82332191Y-152046932D03*
D14*
X80782025Y-151150056D03*
X80782025Y-148880054D03*
X88381975Y-148880054D03*
X88381975Y-151150056D03*
%TD*%
D10*
%TO.C,U5*%
X67325095Y-151653873D03*
X67325095Y-153653873D03*
D11*
X60975083Y-155903809D03*
X60975083Y-149403936D03*
%TD*%
D15*
%TO.C,J1*%
X82543000Y-158764500D03*
X82543000Y-164544500D03*
%TD*%
D16*
X79502000Y-163931600D03*
X64312800Y-149504400D03*
X64008000Y-157480000D03*
X75133200Y-163880800D03*
X72847200Y-165557200D03*
X88087200Y-158851600D03*
X87985600Y-164795200D03*
X87274400Y-155956000D03*
X88087200Y-161747200D03*
X88138000Y-155092400D03*
X78282800Y-148945600D03*
X74879200Y-165303200D03*
X76200000Y-163474400D03*
X71807969Y-150751169D03*
X67056000Y-149987000D03*
X88011000Y-153416000D03*
X86868000Y-154940000D03*
X72390000Y-154559000D03*
X73797000Y-153680000D03*
X74803000Y-153670000D03*
X74803000Y-152654000D03*
X73787000Y-152654000D03*
X73374000Y-159480000D03*
X72374000Y-159480000D03*
X71374000Y-159480000D03*
X73374000Y-158480000D03*
X72374000Y-158480000D03*
X71374000Y-158480000D03*
X73374000Y-157480000D03*
X72374000Y-157480000D03*
X71374000Y-157480000D03*
X61523936Y-160298063D03*
X62523936Y-160298063D03*
X63523936Y-164298063D03*
X61523936Y-162298063D03*
X64627000Y-153654000D03*
X60627000Y-152654000D03*
X60523936Y-161298063D03*
X64523936Y-161298063D03*
X61627000Y-151654000D03*
X62523936Y-162298063D03*
X64627000Y-152654000D03*
X63523936Y-162298063D03*
X78867000Y-160909000D03*
X60523936Y-164298063D03*
X64523936Y-164298063D03*
X62523936Y-161298063D03*
X62627000Y-150654000D03*
X64627000Y-150654000D03*
X60627000Y-153654000D03*
X60627000Y-150654000D03*
X63627000Y-150654000D03*
X61523936Y-163298063D03*
X61523936Y-164298063D03*
X61627000Y-154654000D03*
X60627000Y-151654000D03*
X64523936Y-160298063D03*
X63523936Y-163298063D03*
X63627000Y-152654000D03*
X63627000Y-154654000D03*
X60523936Y-162298063D03*
X62627000Y-151654000D03*
X60523936Y-160298063D03*
X61627000Y-153654000D03*
X60627000Y-154654000D03*
X63523936Y-160298063D03*
X62627000Y-154654000D03*
X62523936Y-164298063D03*
X61627000Y-152654000D03*
X61627000Y-150654000D03*
X62627000Y-152654000D03*
X62627000Y-153654000D03*
X61523936Y-161298063D03*
X64627000Y-154654000D03*
X64523936Y-163298063D03*
X63627000Y-153654000D03*
X62523936Y-163298063D03*
X78613000Y-152019000D03*
X63523936Y-161298063D03*
X63627000Y-151654000D03*
X64523936Y-162298063D03*
X64627000Y-151654000D03*
X60523936Y-163298063D03*
X81915000Y-154559000D03*
M02*
