%TF.GenerationSoftware,KiCad,Pcbnew,6.0.10-86aedd382b~118~ubuntu20.04.1*%
%TF.CreationDate,2023-02-01T15:49:50-08:00*%
%TF.ProjectId,CAD,4341442e-6b69-4636-9164-5f7063625858,rev?*%
%TF.SameCoordinates,Original*%
%TF.FileFunction,Legend,Bot*%
%TF.FilePolarity,Positive*%
%FSLAX46Y46*%
G04 Gerber Fmt 4.6, Leading zero omitted, Abs format (unit mm)*
G04 Created by KiCad (PCBNEW 6.0.10-86aedd382b~118~ubuntu20.04.1) date 2023-02-01 15:49:50*
%MOMM*%
%LPD*%
G01*
G04 APERTURE LIST*
%ADD10C,0.150000*%
%ADD11C,0.951987*%
%ADD12C,0.712000*%
%ADD13C,0.702000*%
G04 APERTURE END LIST*
D10*
X66085980Y-165594895D02*
X66133600Y-165547276D01*
X66181219Y-165452038D01*
X66181219Y-165213942D01*
X66133600Y-165118704D01*
X66085980Y-165071085D01*
X65990742Y-165023466D01*
X65895504Y-165023466D01*
X65752647Y-165071085D01*
X65181219Y-165642514D01*
X65181219Y-165023466D01*
X65276457Y-164594895D02*
X65228838Y-164547276D01*
X65181219Y-164594895D01*
X65228838Y-164642514D01*
X65276457Y-164594895D01*
X65181219Y-164594895D01*
X65752647Y-163975847D02*
X65800266Y-164071085D01*
X65847885Y-164118704D01*
X65943123Y-164166323D01*
X65990742Y-164166323D01*
X66085980Y-164118704D01*
X66133600Y-164071085D01*
X66181219Y-163975847D01*
X66181219Y-163785371D01*
X66133600Y-163690133D01*
X66085980Y-163642514D01*
X65990742Y-163594895D01*
X65943123Y-163594895D01*
X65847885Y-163642514D01*
X65800266Y-163690133D01*
X65752647Y-163785371D01*
X65752647Y-163975847D01*
X65705028Y-164071085D01*
X65657409Y-164118704D01*
X65562171Y-164166323D01*
X65371695Y-164166323D01*
X65276457Y-164118704D01*
X65228838Y-164071085D01*
X65181219Y-163975847D01*
X65181219Y-163785371D01*
X65228838Y-163690133D01*
X65276457Y-163642514D01*
X65371695Y-163594895D01*
X65562171Y-163594895D01*
X65657409Y-163642514D01*
X65705028Y-163690133D01*
X65752647Y-163785371D01*
X66181219Y-163309180D02*
X65181219Y-162975847D01*
X66181219Y-162642514D01*
X66181219Y-161356800D02*
X66181219Y-161166323D01*
X66133600Y-161071085D01*
X66038361Y-160975847D01*
X65847885Y-160928228D01*
X65514552Y-160928228D01*
X65324076Y-160975847D01*
X65228838Y-161071085D01*
X65181219Y-161166323D01*
X65181219Y-161356800D01*
X65228838Y-161452038D01*
X65324076Y-161547276D01*
X65514552Y-161594895D01*
X65847885Y-161594895D01*
X66038361Y-161547276D01*
X66133600Y-161452038D01*
X66181219Y-161356800D01*
X66181219Y-160499657D02*
X65371695Y-160499657D01*
X65276457Y-160452038D01*
X65228838Y-160404419D01*
X65181219Y-160309180D01*
X65181219Y-160118704D01*
X65228838Y-160023466D01*
X65276457Y-159975847D01*
X65371695Y-159928228D01*
X66181219Y-159928228D01*
X66181219Y-159594895D02*
X66181219Y-159023466D01*
X65181219Y-159309180D02*
X66181219Y-159309180D01*
X87000742Y-153166819D02*
X86953123Y-153119200D01*
X86857885Y-153071580D01*
X86619790Y-153071580D01*
X86524552Y-153119200D01*
X86476933Y-153166819D01*
X86429314Y-153262057D01*
X86429314Y-153357295D01*
X86476933Y-153500152D01*
X87048361Y-154071580D01*
X86429314Y-154071580D01*
X85810266Y-153071580D02*
X85715028Y-153071580D01*
X85619790Y-153119200D01*
X85572171Y-153166819D01*
X85524552Y-153262057D01*
X85476933Y-153452533D01*
X85476933Y-153690628D01*
X85524552Y-153881104D01*
X85572171Y-153976342D01*
X85619790Y-154023961D01*
X85715028Y-154071580D01*
X85810266Y-154071580D01*
X85905504Y-154023961D01*
X85953123Y-153976342D01*
X86000742Y-153881104D01*
X86048361Y-153690628D01*
X86048361Y-153452533D01*
X86000742Y-153262057D01*
X85953123Y-153166819D01*
X85905504Y-153119200D01*
X85810266Y-153071580D01*
X85095980Y-153166819D02*
X85048361Y-153119200D01*
X84953123Y-153071580D01*
X84715028Y-153071580D01*
X84619790Y-153119200D01*
X84572171Y-153166819D01*
X84524552Y-153262057D01*
X84524552Y-153357295D01*
X84572171Y-153500152D01*
X85143600Y-154071580D01*
X84524552Y-154071580D01*
X84191219Y-153071580D02*
X83572171Y-153071580D01*
X83905504Y-153452533D01*
X83762647Y-153452533D01*
X83667409Y-153500152D01*
X83619790Y-153547771D01*
X83572171Y-153643009D01*
X83572171Y-153881104D01*
X83619790Y-153976342D01*
X83667409Y-154023961D01*
X83762647Y-154071580D01*
X84048361Y-154071580D01*
X84143600Y-154023961D01*
X84191219Y-153976342D01*
X83143600Y-153690628D02*
X82381695Y-153690628D01*
X81715028Y-153071580D02*
X81619790Y-153071580D01*
X81524552Y-153119200D01*
X81476933Y-153166819D01*
X81429314Y-153262057D01*
X81381695Y-153452533D01*
X81381695Y-153690628D01*
X81429314Y-153881104D01*
X81476933Y-153976342D01*
X81524552Y-154023961D01*
X81619790Y-154071580D01*
X81715028Y-154071580D01*
X81810266Y-154023961D01*
X81857885Y-153976342D01*
X81905504Y-153881104D01*
X81953123Y-153690628D01*
X81953123Y-153452533D01*
X81905504Y-153262057D01*
X81857885Y-153166819D01*
X81810266Y-153119200D01*
X81715028Y-153071580D01*
X80429314Y-154071580D02*
X81000742Y-154071580D01*
X80715028Y-154071580D02*
X80715028Y-153071580D01*
X80810266Y-153214438D01*
X80905504Y-153309676D01*
X81000742Y-153357295D01*
X80000742Y-153690628D02*
X79238838Y-153690628D01*
X78857885Y-153071580D02*
X78238838Y-153071580D01*
X78572171Y-153452533D01*
X78429314Y-153452533D01*
X78334076Y-153500152D01*
X78286457Y-153547771D01*
X78238838Y-153643009D01*
X78238838Y-153881104D01*
X78286457Y-153976342D01*
X78334076Y-154023961D01*
X78429314Y-154071580D01*
X78715028Y-154071580D01*
X78810266Y-154023961D01*
X78857885Y-153976342D01*
X77286457Y-154071580D02*
X77857885Y-154071580D01*
X77572171Y-154071580D02*
X77572171Y-153071580D01*
X77667409Y-153214438D01*
X77762647Y-153309676D01*
X77857885Y-153357295D01*
X65654228Y-155154000D02*
X65606609Y-155011142D01*
X65558990Y-154963523D01*
X65463752Y-154915904D01*
X65320895Y-154915904D01*
X65225657Y-154963523D01*
X65178038Y-155011142D01*
X65130419Y-155106380D01*
X65130419Y-155487333D01*
X66130419Y-155487333D01*
X66130419Y-155154000D01*
X66082800Y-155058761D01*
X66035180Y-155011142D01*
X65939942Y-154963523D01*
X65844704Y-154963523D01*
X65749466Y-155011142D01*
X65701847Y-155058761D01*
X65654228Y-155154000D01*
X65654228Y-155487333D01*
X65416133Y-154534952D02*
X65416133Y-154058761D01*
X65130419Y-154630190D02*
X66130419Y-154296857D01*
X65130419Y-153963523D01*
X66130419Y-153773047D02*
X66130419Y-153201619D01*
X65130419Y-153487333D02*
X66130419Y-153487333D01*
X66130419Y-153011142D02*
X66130419Y-152439714D01*
X65130419Y-152725428D02*
X66130419Y-152725428D01*
X65654228Y-152106380D02*
X65654228Y-151773047D01*
X65130419Y-151630190D02*
X65130419Y-152106380D01*
X66130419Y-152106380D01*
X66130419Y-151630190D01*
X65130419Y-150630190D02*
X65606609Y-150963523D01*
X65130419Y-151201619D02*
X66130419Y-151201619D01*
X66130419Y-150820666D01*
X66082800Y-150725428D01*
X66035180Y-150677809D01*
X65939942Y-150630190D01*
X65797085Y-150630190D01*
X65701847Y-150677809D01*
X65654228Y-150725428D01*
X65606609Y-150820666D01*
X65606609Y-151201619D01*
X65606609Y-150011142D02*
X65130419Y-150011142D01*
X66130419Y-150344476D02*
X65606609Y-150011142D01*
X66130419Y-149677809D01*
%TO.C,*%
X87640185Y-151121371D02*
X87140185Y-152621371D01*
X86640185Y-151121371D01*
X85568757Y-152549942D02*
X85711614Y-152621371D01*
X85997328Y-152621371D01*
X86140185Y-152549942D01*
X86211614Y-152407085D01*
X86211614Y-151835657D01*
X86140185Y-151692800D01*
X85997328Y-151621371D01*
X85711614Y-151621371D01*
X85568757Y-151692800D01*
X85497328Y-151835657D01*
X85497328Y-151978514D01*
X86211614Y-152121371D01*
X84854471Y-152621371D02*
X84854471Y-151621371D01*
X84854471Y-151907085D02*
X84783042Y-151764228D01*
X84711614Y-151692800D01*
X84568757Y-151621371D01*
X84425900Y-151621371D01*
X83997328Y-152549942D02*
X83854471Y-152621371D01*
X83568757Y-152621371D01*
X83425900Y-152549942D01*
X83354471Y-152407085D01*
X83354471Y-152335657D01*
X83425900Y-152192800D01*
X83568757Y-152121371D01*
X83783042Y-152121371D01*
X83925900Y-152049942D01*
X83997328Y-151907085D01*
X83997328Y-151835657D01*
X83925900Y-151692800D01*
X83783042Y-151621371D01*
X83568757Y-151621371D01*
X83425900Y-151692800D01*
X82711614Y-152621371D02*
X82711614Y-151621371D01*
X82711614Y-151121371D02*
X82783042Y-151192800D01*
X82711614Y-151264228D01*
X82640185Y-151192800D01*
X82711614Y-151121371D01*
X82711614Y-151264228D01*
X81783042Y-152621371D02*
X81925900Y-152549942D01*
X81997328Y-152478514D01*
X82068757Y-152335657D01*
X82068757Y-151907085D01*
X81997328Y-151764228D01*
X81925900Y-151692800D01*
X81783042Y-151621371D01*
X81568757Y-151621371D01*
X81425900Y-151692800D01*
X81354471Y-151764228D01*
X81283042Y-151907085D01*
X81283042Y-152335657D01*
X81354471Y-152478514D01*
X81425900Y-152549942D01*
X81568757Y-152621371D01*
X81783042Y-152621371D01*
X80640185Y-151621371D02*
X80640185Y-152621371D01*
X80640185Y-151764228D02*
X80568757Y-151692800D01*
X80425900Y-151621371D01*
X80211614Y-151621371D01*
X80068757Y-151692800D01*
X79997328Y-151835657D01*
X79997328Y-152621371D01*
X77854471Y-151121371D02*
X77711614Y-151121371D01*
X77568757Y-151192800D01*
X77497328Y-151264228D01*
X77425900Y-151407085D01*
X77354471Y-151692800D01*
X77354471Y-152049942D01*
X77425900Y-152335657D01*
X77497328Y-152478514D01*
X77568757Y-152549942D01*
X77711614Y-152621371D01*
X77854471Y-152621371D01*
X77997328Y-152549942D01*
X78068757Y-152478514D01*
X78140185Y-152335657D01*
X78211614Y-152049942D01*
X78211614Y-151692800D01*
X78140185Y-151407085D01*
X78068757Y-151264228D01*
X77997328Y-151192800D01*
X77854471Y-151121371D01*
X76711614Y-152478514D02*
X76640185Y-152549942D01*
X76711614Y-152621371D01*
X76783042Y-152549942D01*
X76711614Y-152478514D01*
X76711614Y-152621371D01*
X75211614Y-152621371D02*
X76068757Y-152621371D01*
X75640185Y-152621371D02*
X75640185Y-151121371D01*
X75783042Y-151335657D01*
X75925900Y-151478514D01*
X76068757Y-151549942D01*
G36*
X71488238Y-159201925D02*
G01*
X70613334Y-161290500D01*
X68800638Y-161290270D01*
X70261769Y-157528978D01*
X71488238Y-159201925D01*
G37*
G36*
X77476224Y-154391583D02*
G01*
X77622582Y-154444483D01*
X77752967Y-154529445D01*
X77860472Y-154641969D01*
X77939400Y-154776091D01*
X77973216Y-154863965D01*
X77989239Y-154956748D01*
X77986852Y-155050874D01*
X77966149Y-155142725D01*
X77927924Y-155228773D01*
X77873646Y-155305710D01*
X77805402Y-155370580D01*
X77725814Y-155420889D01*
X77725813Y-155420889D01*
X77604461Y-155447566D01*
X77480225Y-155449448D01*
X77358119Y-155426461D01*
X77243072Y-155379531D01*
X77139727Y-155310554D01*
X77052254Y-155222312D01*
X76984184Y-155118367D01*
X76984185Y-155118367D01*
X76929949Y-155027187D01*
X76897363Y-154926224D01*
X76888060Y-154820541D01*
X76902506Y-154715439D01*
X76939979Y-154616186D01*
X76998597Y-154527759D01*
X77075423Y-154454594D01*
X77193780Y-154399626D01*
X77321647Y-154373550D01*
X77476224Y-154391583D01*
G37*
G36*
X68640994Y-153912470D02*
G01*
X68958728Y-153925440D01*
X69266869Y-154004004D01*
X69552026Y-154144749D01*
X69801805Y-154341558D01*
X70892331Y-155905764D01*
X70261769Y-157528978D01*
X67979348Y-154450075D01*
X67732731Y-154219690D01*
X67442135Y-154048078D01*
X67121306Y-153943357D01*
X66785424Y-153910482D01*
X68640994Y-153912470D01*
G37*
G36*
X78469188Y-156045683D02*
G01*
X78379631Y-156068210D01*
X78297228Y-156109896D01*
X78226020Y-156168695D01*
X78169499Y-156241724D01*
X78130437Y-156325403D01*
X78110750Y-156415627D01*
X78111403Y-156507971D01*
X78862879Y-160868796D01*
X78857727Y-160948240D01*
X78837176Y-161025152D01*
X78802015Y-161096577D01*
X78753595Y-161159771D01*
X78693778Y-161212304D01*
X78624860Y-161252157D01*
X78549492Y-161277800D01*
X78470570Y-161288247D01*
X77564298Y-161286377D01*
X77651265Y-161263039D01*
X77730859Y-161220934D01*
X77799087Y-161162173D01*
X77852529Y-161089703D01*
X77888506Y-161007158D01*
X77905212Y-160918677D01*
X77901811Y-160828697D01*
X77155961Y-156518141D01*
X77155588Y-156422354D01*
X77176539Y-156328885D01*
X77217764Y-156242423D01*
X77277194Y-156167301D01*
X77351851Y-156107288D01*
X77437990Y-156065392D01*
X77531293Y-156043714D01*
X78469188Y-156045683D01*
G37*
G36*
X76125475Y-154373745D02*
G01*
X77342218Y-161290449D01*
X76293578Y-161290423D01*
X75451782Y-156506362D01*
X74061636Y-156504313D01*
X73873355Y-155423640D01*
X75260352Y-155423051D01*
X75077321Y-154373668D01*
X76125475Y-154373745D01*
G37*
G36*
X80683225Y-161487788D02*
G01*
X80837944Y-161863272D01*
X81068358Y-162197691D01*
X81364107Y-162476006D01*
X81711891Y-162685703D01*
X82096072Y-162817351D01*
X82499375Y-162865032D01*
X82673234Y-163910498D01*
X81985449Y-163789526D01*
X81336431Y-163531729D01*
X80753096Y-163147797D01*
X80259635Y-162653652D01*
X79876510Y-162069787D01*
X79619611Y-161420413D01*
X78675213Y-156042869D01*
X79724980Y-156042817D01*
X80683225Y-161487788D01*
G37*
G36*
X72208789Y-157608288D02*
G01*
X74571419Y-160726224D01*
X74902899Y-161001912D01*
X75289198Y-161193369D01*
X75709327Y-161290193D01*
X73828314Y-161289924D01*
X73495532Y-161253815D01*
X73178647Y-161145963D01*
X72892932Y-160971564D01*
X72652156Y-160739025D01*
X71488238Y-159201925D01*
X70261769Y-157528978D01*
X70892331Y-155905764D01*
X71665201Y-153916218D01*
X73593713Y-153914477D01*
X72208789Y-157608288D01*
G37*
%TD*%
%LPC*%
%TO.C,U8*%
G36*
X86164912Y-149598355D02*
G01*
X86244638Y-149622539D01*
X86318114Y-149661813D01*
X86382516Y-149714666D01*
X86435369Y-149779068D01*
X86474643Y-149852544D01*
X86498827Y-149932270D01*
X86506994Y-150015182D01*
X86498827Y-150098094D01*
X86474643Y-150177820D01*
X86435369Y-150251296D01*
X86382516Y-150315698D01*
X86318114Y-150368551D01*
X86244638Y-150407825D01*
X86164912Y-150432009D01*
X86082000Y-150440176D01*
X85999088Y-150432009D01*
X85919362Y-150407825D01*
X85845886Y-150368551D01*
X85781484Y-150315698D01*
X85728631Y-150251296D01*
X85689357Y-150177820D01*
X85665173Y-150098094D01*
X85657007Y-150015182D01*
X85665173Y-149932270D01*
X85689357Y-149852544D01*
X85728631Y-149779068D01*
X85781484Y-149714666D01*
X85845886Y-149661813D01*
X85919362Y-149622539D01*
X85999088Y-149598355D01*
X86082000Y-149590188D01*
X86164912Y-149598355D01*
G37*
G36*
X83164912Y-149598355D02*
G01*
X83244638Y-149622539D01*
X83318114Y-149661813D01*
X83382516Y-149714666D01*
X83435369Y-149779068D01*
X83474643Y-149852544D01*
X83498827Y-149932270D01*
X83506993Y-150015182D01*
X83498827Y-150098094D01*
X83474643Y-150177820D01*
X83435369Y-150251296D01*
X83382516Y-150315698D01*
X83318114Y-150368551D01*
X83244638Y-150407825D01*
X83164912Y-150432009D01*
X83082000Y-150440176D01*
X82999088Y-150432009D01*
X82919362Y-150407825D01*
X82845886Y-150368551D01*
X82781484Y-150315698D01*
X82728631Y-150251296D01*
X82689357Y-150177820D01*
X82665173Y-150098094D01*
X82657006Y-150015182D01*
X82665173Y-149932270D01*
X82689357Y-149852544D01*
X82728631Y-149779068D01*
X82781484Y-149714666D01*
X82845886Y-149661813D01*
X82919362Y-149622539D01*
X82999088Y-149598355D01*
X83082000Y-149590188D01*
X83164912Y-149598355D01*
G37*
%TO.C,J1*%
G36*
X82660545Y-165484107D02*
G01*
X82754342Y-165512560D01*
X82840785Y-165558765D01*
X82916553Y-165620947D01*
X82978735Y-165696715D01*
X83024940Y-165783158D01*
X83053393Y-165876955D01*
X83063000Y-165974500D01*
X83053393Y-166072045D01*
X83024940Y-166165842D01*
X82978735Y-166252285D01*
X82916553Y-166328053D01*
X82840785Y-166390235D01*
X82754342Y-166436440D01*
X82660545Y-166464893D01*
X82563000Y-166474500D01*
X81463000Y-166474500D01*
X81365455Y-166464893D01*
X81271658Y-166436440D01*
X81185215Y-166390235D01*
X81109447Y-166328053D01*
X81047265Y-166252285D01*
X81001060Y-166165842D01*
X80972607Y-166072045D01*
X80963000Y-165974500D01*
X80972607Y-165876955D01*
X81001060Y-165783158D01*
X81047265Y-165696715D01*
X81109447Y-165620947D01*
X81185215Y-165558765D01*
X81271658Y-165512560D01*
X81365455Y-165484107D01*
X81463000Y-165474500D01*
X82563000Y-165474500D01*
X82660545Y-165484107D01*
G37*
G36*
X86690545Y-165484107D02*
G01*
X86784342Y-165512560D01*
X86870785Y-165558765D01*
X86946553Y-165620947D01*
X87008735Y-165696715D01*
X87054940Y-165783158D01*
X87083393Y-165876955D01*
X87093000Y-165974500D01*
X87083393Y-166072045D01*
X87054940Y-166165842D01*
X87008735Y-166252285D01*
X86946553Y-166328053D01*
X86870785Y-166390235D01*
X86784342Y-166436440D01*
X86690545Y-166464893D01*
X86593000Y-166474500D01*
X85793000Y-166474500D01*
X85695455Y-166464893D01*
X85601658Y-166436440D01*
X85515215Y-166390235D01*
X85439447Y-166328053D01*
X85377265Y-166252285D01*
X85331060Y-166165842D01*
X85302607Y-166072045D01*
X85293000Y-165974500D01*
X85302607Y-165876955D01*
X85331060Y-165783158D01*
X85377265Y-165696715D01*
X85439447Y-165620947D01*
X85515215Y-165558765D01*
X85601658Y-165512560D01*
X85695455Y-165484107D01*
X85793000Y-165474500D01*
X86593000Y-165474500D01*
X86690545Y-165484107D01*
G37*
G36*
X82660545Y-156844107D02*
G01*
X82754342Y-156872560D01*
X82840785Y-156918765D01*
X82916553Y-156980947D01*
X82978735Y-157056715D01*
X83024940Y-157143158D01*
X83053393Y-157236955D01*
X83063000Y-157334500D01*
X83053393Y-157432045D01*
X83024940Y-157525842D01*
X82978735Y-157612285D01*
X82916553Y-157688053D01*
X82840785Y-157750235D01*
X82754342Y-157796440D01*
X82660545Y-157824893D01*
X82563000Y-157834500D01*
X81463000Y-157834500D01*
X81365455Y-157824893D01*
X81271658Y-157796440D01*
X81185215Y-157750235D01*
X81109447Y-157688053D01*
X81047265Y-157612285D01*
X81001060Y-157525842D01*
X80972607Y-157432045D01*
X80963000Y-157334500D01*
X80972607Y-157236955D01*
X81001060Y-157143158D01*
X81047265Y-157056715D01*
X81109447Y-156980947D01*
X81185215Y-156918765D01*
X81271658Y-156872560D01*
X81365455Y-156844107D01*
X81463000Y-156834500D01*
X82563000Y-156834500D01*
X82660545Y-156844107D01*
G37*
G36*
X86690545Y-156844107D02*
G01*
X86784342Y-156872560D01*
X86870785Y-156918765D01*
X86946553Y-156980947D01*
X87008735Y-157056715D01*
X87054940Y-157143158D01*
X87083393Y-157236955D01*
X87093000Y-157334500D01*
X87083393Y-157432045D01*
X87054940Y-157525842D01*
X87008735Y-157612285D01*
X86946553Y-157688053D01*
X86870785Y-157750235D01*
X86784342Y-157796440D01*
X86690545Y-157824893D01*
X86593000Y-157834500D01*
X85793000Y-157834500D01*
X85695455Y-157824893D01*
X85601658Y-157796440D01*
X85515215Y-157750235D01*
X85439447Y-157688053D01*
X85377265Y-157612285D01*
X85331060Y-157525842D01*
X85302607Y-157432045D01*
X85293000Y-157334500D01*
X85302607Y-157236955D01*
X85331060Y-157143158D01*
X85377265Y-157056715D01*
X85439447Y-156980947D01*
X85515215Y-156918765D01*
X85601658Y-156872560D01*
X85695455Y-156844107D01*
X85793000Y-156834500D01*
X86593000Y-156834500D01*
X86690545Y-156844107D01*
G37*
%TD*%
D11*
%TO.C,U8*%
X83082000Y-150015182D03*
X86082000Y-150015182D03*
%TD*%
D12*
%TO.C,J1*%
X82543000Y-164544500D03*
X82543000Y-158764500D03*
%TD*%
D13*
X61523936Y-160298063D03*
X62523936Y-160298063D03*
X63523936Y-164298063D03*
X87274400Y-155956000D03*
X61523936Y-162298063D03*
X64627000Y-153654000D03*
X60627000Y-152654000D03*
X60523936Y-161298063D03*
X64523936Y-161298063D03*
X61627000Y-151654000D03*
X73374000Y-159480000D03*
X62523936Y-162298063D03*
X72374000Y-159480000D03*
X76200000Y-163474400D03*
X64627000Y-152654000D03*
X73787000Y-152654000D03*
X72390000Y-154559000D03*
X63523936Y-162298063D03*
X88087200Y-158851600D03*
X71374000Y-157480000D03*
X78867000Y-160909000D03*
X60523936Y-164298063D03*
X64523936Y-164298063D03*
X62523936Y-161298063D03*
X62627000Y-150654000D03*
X74879200Y-165303200D03*
X71374000Y-159480000D03*
X64627000Y-150654000D03*
X72374000Y-157480000D03*
X60627000Y-153654000D03*
X74803000Y-152654000D03*
X72374000Y-158480000D03*
X79502000Y-163931600D03*
X60627000Y-150654000D03*
X64008000Y-157480000D03*
X63627000Y-150654000D03*
X61523936Y-163298063D03*
X61523936Y-164298063D03*
X61627000Y-154654000D03*
X88011000Y-153416000D03*
X60627000Y-151654000D03*
X64523936Y-160298063D03*
X63523936Y-163298063D03*
X73797000Y-153680000D03*
X88087200Y-161747200D03*
X63627000Y-152654000D03*
X87985600Y-164795200D03*
X67056000Y-149987000D03*
X88138000Y-155092400D03*
X63627000Y-154654000D03*
X71807969Y-150751169D03*
X60523936Y-162298063D03*
X73374000Y-157480000D03*
X62627000Y-151654000D03*
X60523936Y-160298063D03*
X61627000Y-153654000D03*
X60627000Y-154654000D03*
X63523936Y-160298063D03*
X62627000Y-154654000D03*
X62523936Y-164298063D03*
X74803000Y-153670000D03*
X61627000Y-152654000D03*
X61627000Y-150654000D03*
X62627000Y-152654000D03*
X71374000Y-158480000D03*
X73374000Y-158480000D03*
X62627000Y-153654000D03*
X61523936Y-161298063D03*
X64312800Y-149504400D03*
X75133200Y-163880800D03*
X64627000Y-154654000D03*
X64523936Y-163298063D03*
X63627000Y-153654000D03*
X86868000Y-154940000D03*
X62523936Y-163298063D03*
X78613000Y-152019000D03*
X63523936Y-161298063D03*
X63627000Y-151654000D03*
X64523936Y-162298063D03*
X72847200Y-165557200D03*
X78282800Y-148945600D03*
X64627000Y-151654000D03*
X60523936Y-163298063D03*
X81915000Y-154559000D03*
M02*
