M48
; DRILL file {KiCad 6.0.10-86aedd382b~118~ubuntu20.04.1} date Wed 01 Feb 2023 03:39:36 PM PST
; FORMAT={-:-/ absolute / inch / decimal}
; #@! TF.CreationDate,2023-02-01T15:39:36-08:00
; #@! TF.GenerationSoftware,Kicad,Pcbnew,6.0.10-86aedd382b~118~ubuntu20.04.1
; #@! TF.FileFunction,Plated,1,2,PTH
FMAT,2
INCH
; #@! TA.AperFunction,Plated,PTH,ViaDrill
T1C0.0118
; #@! TA.AperFunction,Plated,PTH,ComponentDrill
T2C0.0236
%
G90
G05
T1
X2.3828Y-6.3109
X2.3828Y-6.3503
X2.3828Y-6.3897
X2.3828Y-6.4291
X2.3828Y-6.4684
X2.3869Y-5.9313
X2.3869Y-5.9706
X2.3869Y-6.01
X2.3869Y-6.0494
X2.3869Y-6.0887
X2.4222Y-6.3109
X2.4222Y-6.3503
X2.4222Y-6.3897
X2.4222Y-6.4291
X2.4222Y-6.4684
X2.4263Y-5.9313
X2.4263Y-5.9706
X2.4263Y-6.01
X2.4263Y-6.0494
X2.4263Y-6.0887
X2.4616Y-6.3109
X2.4616Y-6.3503
X2.4616Y-6.3897
X2.4616Y-6.4291
X2.4616Y-6.4684
X2.4656Y-5.9313
X2.4656Y-5.9706
X2.4656Y-6.01
X2.4656Y-6.0494
X2.4656Y-6.0887
X2.5009Y-6.3109
X2.5009Y-6.3503
X2.5009Y-6.3897
X2.5009Y-6.4291
X2.5009Y-6.4684
X2.505Y-5.9313
X2.505Y-5.9706
X2.505Y-6.01
X2.505Y-6.0494
X2.505Y-6.0887
X2.52Y-6.2
X2.532Y-5.886
X2.5403Y-6.3109
X2.5403Y-6.3503
X2.5403Y-6.3897
X2.5403Y-6.4291
X2.5403Y-6.4684
X2.5444Y-5.9313
X2.5444Y-5.9706
X2.5444Y-6.01
X2.5444Y-6.0494
X2.5444Y-6.0887
X2.64Y-5.905
X2.81Y-6.2
X2.81Y-6.2394
X2.81Y-6.2787
X2.8271Y-5.9351
X2.8494Y-6.2
X2.8494Y-6.2394
X2.8494Y-6.2787
X2.85Y-6.085
X2.868Y-6.518
X2.8887Y-6.2
X2.8887Y-6.2394
X2.8887Y-6.2787
X2.905Y-6.01
X2.9054Y-6.0504
X2.945Y-6.01
X2.945Y-6.05
X2.948Y-6.508
X2.958Y-6.452
X3.0Y-6.436
X3.082Y-5.864
X3.095Y-5.985
X3.105Y-6.335
X3.13Y-6.454
X3.225Y-6.085
X3.42Y-6.1
X3.436Y-6.14
X3.464Y-6.488
X3.465Y-6.04
X3.468Y-6.254
X3.468Y-6.368
X3.47Y-6.106
T2
G00X3.2505Y-6.1943
M15
G01X3.2072Y-6.1943
M16
G05
G00X3.2505Y-6.5344
M15
G01X3.2072Y-6.5344
M16
G05
G00X3.4092Y-6.1943
M15
G01X3.3777Y-6.1943
M16
G05
G00X3.4092Y-6.5344
M15
G01X3.3777Y-6.5344
M16
G05
T0
M30
