%TF.GenerationSoftware,KiCad,Pcbnew,6.0.10-86aedd382b~118~ubuntu20.04.1*%
%TF.CreationDate,2023-02-01T15:49:50-08:00*%
%TF.ProjectId,CAD,4341442e-6b69-4636-9164-5f7063625858,rev?*%
%TF.SameCoordinates,Original*%
%TF.FileFunction,Copper,L2,Bot*%
%TF.FilePolarity,Positive*%
%FSLAX46Y46*%
G04 Gerber Fmt 4.6, Leading zero omitted, Abs format (unit mm)*
G04 Created by KiCad (PCBNEW 6.0.10-86aedd382b~118~ubuntu20.04.1) date 2023-02-01 15:49:50*
%MOMM*%
%LPD*%
G01*
G04 APERTURE LIST*
%TA.AperFunction,WasherPad*%
%ADD10C,0.610000*%
%TD*%
%TA.AperFunction,ComponentPad*%
%ADD11O,2.000000X0.900000*%
%TD*%
%TA.AperFunction,ComponentPad*%
%ADD12O,1.700000X0.900000*%
%TD*%
%TA.AperFunction,ViaPad*%
%ADD13C,0.600000*%
%TD*%
%TA.AperFunction,Conductor*%
%ADD14C,0.200000*%
%TD*%
G04 APERTURE END LIST*
D10*
%TO.P,J1,*%
%TO.N,*%
X82543000Y-164544500D03*
X82543000Y-158764500D03*
D11*
%TO.P,J1,13*%
%TO.N,usb_rid_rid_p1*%
X82013000Y-165974500D03*
%TO.P,J1,14*%
X82013000Y-157334500D03*
D12*
%TO.P,J1,15*%
X86193000Y-165974500D03*
%TO.P,J1,16*%
X86193000Y-157334500D03*
%TD*%
D13*
%TO.N,GND*%
X61523936Y-160298063D03*
X62523936Y-160298063D03*
X63523936Y-164298063D03*
X87274400Y-155956000D03*
X61523936Y-162298063D03*
X64627000Y-153654000D03*
X60627000Y-152654000D03*
X60523936Y-161298063D03*
X64523936Y-161298063D03*
X61627000Y-151654000D03*
X73374000Y-159480000D03*
X62523936Y-162298063D03*
X72374000Y-159480000D03*
X76200000Y-163474400D03*
X64627000Y-152654000D03*
X73787000Y-152654000D03*
X72390000Y-154559000D03*
X63523936Y-162298063D03*
X88087200Y-158851600D03*
X71374000Y-157480000D03*
X78867000Y-160909000D03*
X60523936Y-164298063D03*
X64523936Y-164298063D03*
X62523936Y-161298063D03*
X62627000Y-150654000D03*
X74879200Y-165303200D03*
X71374000Y-159480000D03*
X64627000Y-150654000D03*
X72374000Y-157480000D03*
X60627000Y-153654000D03*
X74803000Y-152654000D03*
X72374000Y-158480000D03*
X79502000Y-163931600D03*
X60627000Y-150654000D03*
X64008000Y-157480000D03*
X63627000Y-150654000D03*
X61523936Y-163298063D03*
X61523936Y-164298063D03*
X61627000Y-154654000D03*
X88011000Y-153416000D03*
X60627000Y-151654000D03*
X64523936Y-160298063D03*
X63523936Y-163298063D03*
X73797000Y-153680000D03*
X88087200Y-161747200D03*
X63627000Y-152654000D03*
X87985600Y-164795200D03*
X67056000Y-149987000D03*
X88138000Y-155092400D03*
X63627000Y-154654000D03*
X71807969Y-150751169D03*
X60523936Y-162298063D03*
X73374000Y-157480000D03*
X62627000Y-151654000D03*
X60523936Y-160298063D03*
X61627000Y-153654000D03*
X60627000Y-154654000D03*
X63523936Y-160298063D03*
X62627000Y-154654000D03*
X62523936Y-164298063D03*
X74803000Y-153670000D03*
X61627000Y-152654000D03*
X61627000Y-150654000D03*
X62627000Y-152654000D03*
X71374000Y-158480000D03*
X73374000Y-158480000D03*
X62627000Y-153654000D03*
X61523936Y-161298063D03*
X64312800Y-149504400D03*
X75133200Y-163880800D03*
X64627000Y-154654000D03*
X64523936Y-163298063D03*
X63627000Y-153654000D03*
X86868000Y-154940000D03*
X62523936Y-163298063D03*
X78613000Y-152019000D03*
X63523936Y-161298063D03*
X63627000Y-151654000D03*
X64523936Y-162298063D03*
X72847200Y-165557200D03*
X78282800Y-148945600D03*
X64627000Y-151654000D03*
X60523936Y-163298063D03*
X81915000Y-154559000D03*
%TD*%
D14*
%TO.N,GND*%
X88087200Y-156768800D02*
X88087200Y-158851600D01*
X74879200Y-165303200D02*
X74879200Y-164134800D01*
X74879200Y-164134800D02*
X75133200Y-163880800D01*
X63523936Y-157964064D02*
X64008000Y-157480000D01*
X87274400Y-155956000D02*
X88087200Y-156768800D01*
X88138000Y-155092400D02*
X87020400Y-155092400D01*
X63627000Y-150654000D02*
X63627000Y-150190200D01*
X88087200Y-164693600D02*
X87985600Y-164795200D01*
X87020400Y-155092400D02*
X86868000Y-154940000D01*
X63627000Y-150190200D02*
X64312800Y-149504400D01*
X63523936Y-160298063D02*
X63523936Y-157964064D01*
X88087200Y-161747200D02*
X88087200Y-164693600D01*
%TD*%
%TA.AperFunction,Conductor*%
%TO.N,GND*%
G36*
X88683621Y-148778502D02*
G01*
X88730114Y-148832158D01*
X88741500Y-148884500D01*
X88741500Y-166115500D01*
X88721498Y-166183621D01*
X88667842Y-166230114D01*
X88615500Y-166241500D01*
X87671610Y-166241500D01*
X87603489Y-166221498D01*
X87556996Y-166167842D01*
X87545783Y-166108906D01*
X87554959Y-165933818D01*
X87554959Y-165933813D01*
X87555293Y-165927436D01*
X87526175Y-165734901D01*
X87523972Y-165728915D01*
X87523971Y-165728909D01*
X87461140Y-165558140D01*
X87461138Y-165558135D01*
X87458937Y-165552154D01*
X87356326Y-165386660D01*
X87222534Y-165245178D01*
X87063025Y-165133489D01*
X87015013Y-165112712D01*
X86890175Y-165058690D01*
X86890171Y-165058689D01*
X86884316Y-165056155D01*
X86878069Y-165054850D01*
X86878066Y-165054849D01*
X86698443Y-165017324D01*
X86698438Y-165017323D01*
X86693707Y-165016335D01*
X86687315Y-165016000D01*
X85744337Y-165016000D01*
X85675049Y-165023038D01*
X85605622Y-165030090D01*
X85605621Y-165030090D01*
X85599273Y-165030735D01*
X85542939Y-165048389D01*
X85419549Y-165087056D01*
X85419544Y-165087058D01*
X85413459Y-165088965D01*
X85373361Y-165111192D01*
X85248729Y-165180277D01*
X85248726Y-165180279D01*
X85243150Y-165183370D01*
X85238309Y-165187519D01*
X85238305Y-165187522D01*
X85175311Y-165241515D01*
X85095302Y-165310091D01*
X84975954Y-165463953D01*
X84973138Y-165469676D01*
X84973136Y-165469679D01*
X84929608Y-165558140D01*
X84889982Y-165638671D01*
X84888373Y-165644849D01*
X84888372Y-165644851D01*
X84866477Y-165728909D01*
X84840898Y-165827107D01*
X84840564Y-165833486D01*
X84835306Y-165933818D01*
X84830707Y-166021564D01*
X84831663Y-166027882D01*
X84842064Y-166096659D01*
X84832474Y-166167004D01*
X84786373Y-166220998D01*
X84717481Y-166241500D01*
X83641610Y-166241500D01*
X83573489Y-166221498D01*
X83526996Y-166167842D01*
X83515783Y-166108906D01*
X83524959Y-165933818D01*
X83524959Y-165933813D01*
X83525293Y-165927436D01*
X83496175Y-165734901D01*
X83493972Y-165728915D01*
X83493971Y-165728909D01*
X83431140Y-165558140D01*
X83431138Y-165558135D01*
X83428937Y-165552154D01*
X83326326Y-165386660D01*
X83192534Y-165245178D01*
X83187612Y-165241732D01*
X83149188Y-165182189D01*
X83149054Y-165111192D01*
X83170541Y-165070996D01*
X83170120Y-165070716D01*
X83173039Y-165066323D01*
X83173040Y-165066321D01*
X83271118Y-164918702D01*
X83301034Y-164839948D01*
X83333428Y-164754672D01*
X83333429Y-164754667D01*
X83335928Y-164748089D01*
X83361328Y-164567358D01*
X83361647Y-164544500D01*
X83341303Y-164363130D01*
X83335122Y-164345379D01*
X83283600Y-164197431D01*
X83281282Y-164190774D01*
X83184568Y-164035999D01*
X83175722Y-164027091D01*
X83060930Y-163911494D01*
X83060926Y-163911491D01*
X83055967Y-163906497D01*
X83044780Y-163899397D01*
X82996362Y-163868671D01*
X82901871Y-163808705D01*
X82872661Y-163798304D01*
X82736574Y-163749845D01*
X82736569Y-163749844D01*
X82729939Y-163747483D01*
X82722951Y-163746650D01*
X82722948Y-163746649D01*
X82597973Y-163731747D01*
X82548715Y-163725873D01*
X82541712Y-163726609D01*
X82541711Y-163726609D01*
X82374216Y-163744213D01*
X82374212Y-163744214D01*
X82367208Y-163744950D01*
X82360537Y-163747221D01*
X82201107Y-163801495D01*
X82201104Y-163801496D01*
X82194437Y-163803766D01*
X82188439Y-163807456D01*
X82188437Y-163807457D01*
X82180266Y-163812484D01*
X82038991Y-163899397D01*
X81908594Y-164027091D01*
X81809728Y-164180501D01*
X81807317Y-164187124D01*
X81807316Y-164187127D01*
X81749717Y-164345379D01*
X81749716Y-164345384D01*
X81747307Y-164352002D01*
X81724433Y-164533070D01*
X81742242Y-164714706D01*
X81787325Y-164850228D01*
X81789848Y-164921179D01*
X81753612Y-164982232D01*
X81690120Y-165014001D01*
X81667767Y-165016000D01*
X81414337Y-165016000D01*
X81345049Y-165023038D01*
X81275622Y-165030090D01*
X81275621Y-165030090D01*
X81269273Y-165030735D01*
X81212939Y-165048389D01*
X81089549Y-165087056D01*
X81089544Y-165087058D01*
X81083459Y-165088965D01*
X81043361Y-165111192D01*
X80918729Y-165180277D01*
X80918726Y-165180279D01*
X80913150Y-165183370D01*
X80908309Y-165187519D01*
X80908305Y-165187522D01*
X80845311Y-165241515D01*
X80765302Y-165310091D01*
X80645954Y-165463953D01*
X80643138Y-165469676D01*
X80643136Y-165469679D01*
X80599608Y-165558140D01*
X80559982Y-165638671D01*
X80558373Y-165644849D01*
X80558372Y-165644851D01*
X80536477Y-165728909D01*
X80510898Y-165827107D01*
X80510564Y-165833486D01*
X80505306Y-165933818D01*
X80500707Y-166021564D01*
X80501663Y-166027882D01*
X80512064Y-166096659D01*
X80502474Y-166167004D01*
X80456373Y-166220998D01*
X80387481Y-166241500D01*
X59884500Y-166241500D01*
X59816379Y-166221498D01*
X59769886Y-166167842D01*
X59758500Y-166115500D01*
X59758500Y-157381564D01*
X80500707Y-157381564D01*
X80529825Y-157574099D01*
X80532028Y-157580085D01*
X80532029Y-157580091D01*
X80594860Y-157750860D01*
X80594862Y-157750865D01*
X80597063Y-157756846D01*
X80699674Y-157922340D01*
X80833466Y-158063822D01*
X80992975Y-158175511D01*
X80998838Y-158178048D01*
X81165825Y-158250310D01*
X81165829Y-158250311D01*
X81171684Y-158252845D01*
X81177931Y-158254150D01*
X81177934Y-158254151D01*
X81357557Y-158291676D01*
X81357562Y-158291677D01*
X81362293Y-158292665D01*
X81368685Y-158293000D01*
X81668909Y-158293000D01*
X81737030Y-158313002D01*
X81783523Y-158366658D01*
X81793627Y-158436932D01*
X81787310Y-158462094D01*
X81749717Y-158565379D01*
X81749716Y-158565384D01*
X81747307Y-158572002D01*
X81724433Y-158753070D01*
X81742242Y-158934706D01*
X81799851Y-159107883D01*
X81803498Y-159113905D01*
X81803499Y-159113907D01*
X81890744Y-159257968D01*
X81890747Y-159257971D01*
X81894394Y-159263994D01*
X82021175Y-159395278D01*
X82072310Y-159428740D01*
X82167992Y-159491354D01*
X82167996Y-159491356D01*
X82173890Y-159495213D01*
X82344951Y-159558830D01*
X82351929Y-159559761D01*
X82351933Y-159559762D01*
X82435404Y-159570899D01*
X82525856Y-159582967D01*
X82532867Y-159582329D01*
X82532871Y-159582329D01*
X82700591Y-159567065D01*
X82707612Y-159566426D01*
X82714314Y-159564248D01*
X82714316Y-159564248D01*
X82874488Y-159512205D01*
X82874491Y-159512204D01*
X82881187Y-159510028D01*
X82887238Y-159506421D01*
X83031901Y-159420185D01*
X83031903Y-159420184D01*
X83037953Y-159416577D01*
X83170120Y-159290716D01*
X83271118Y-159138702D01*
X83301034Y-159059948D01*
X83333428Y-158974672D01*
X83333429Y-158974667D01*
X83335928Y-158968089D01*
X83361328Y-158787358D01*
X83361647Y-158764500D01*
X83341303Y-158583130D01*
X83335122Y-158565379D01*
X83314365Y-158505776D01*
X83281282Y-158410774D01*
X83184568Y-158255999D01*
X83177202Y-158248582D01*
X83176156Y-158246650D01*
X83175228Y-158245479D01*
X83175434Y-158245316D01*
X83143393Y-158186153D01*
X83148702Y-158115356D01*
X83184607Y-158064127D01*
X83255855Y-158003060D01*
X83260698Y-157998909D01*
X83380046Y-157845047D01*
X83420779Y-157762268D01*
X83463200Y-157676056D01*
X83466018Y-157670329D01*
X83467628Y-157664149D01*
X83513492Y-157488075D01*
X83513492Y-157488072D01*
X83515102Y-157481893D01*
X83520360Y-157381564D01*
X84830707Y-157381564D01*
X84859825Y-157574099D01*
X84862028Y-157580085D01*
X84862029Y-157580091D01*
X84924860Y-157750860D01*
X84924862Y-157750865D01*
X84927063Y-157756846D01*
X85029674Y-157922340D01*
X85163466Y-158063822D01*
X85322975Y-158175511D01*
X85328838Y-158178048D01*
X85495825Y-158250310D01*
X85495829Y-158250311D01*
X85501684Y-158252845D01*
X85507931Y-158254150D01*
X85507934Y-158254151D01*
X85687557Y-158291676D01*
X85687562Y-158291677D01*
X85692293Y-158292665D01*
X85698685Y-158293000D01*
X86641663Y-158293000D01*
X86710951Y-158285962D01*
X86780378Y-158278910D01*
X86780379Y-158278910D01*
X86786727Y-158278265D01*
X86867843Y-158252845D01*
X86966451Y-158221944D01*
X86966456Y-158221942D01*
X86972541Y-158220035D01*
X87105608Y-158146274D01*
X87137271Y-158128723D01*
X87137274Y-158128721D01*
X87142850Y-158125630D01*
X87147691Y-158121481D01*
X87147695Y-158121478D01*
X87285855Y-158003060D01*
X87290698Y-157998909D01*
X87410046Y-157845047D01*
X87450779Y-157762268D01*
X87493200Y-157676056D01*
X87496018Y-157670329D01*
X87497628Y-157664149D01*
X87543492Y-157488075D01*
X87543492Y-157488072D01*
X87545102Y-157481893D01*
X87555293Y-157287436D01*
X87526175Y-157094901D01*
X87523972Y-157088915D01*
X87523971Y-157088909D01*
X87461140Y-156918140D01*
X87461138Y-156918135D01*
X87458937Y-156912154D01*
X87356326Y-156746660D01*
X87222534Y-156605178D01*
X87063025Y-156493489D01*
X87015013Y-156472712D01*
X86890175Y-156418690D01*
X86890171Y-156418689D01*
X86884316Y-156416155D01*
X86878069Y-156414850D01*
X86878066Y-156414849D01*
X86698443Y-156377324D01*
X86698438Y-156377323D01*
X86693707Y-156376335D01*
X86687315Y-156376000D01*
X85744337Y-156376000D01*
X85675049Y-156383038D01*
X85605622Y-156390090D01*
X85605621Y-156390090D01*
X85599273Y-156390735D01*
X85542939Y-156408389D01*
X85419549Y-156447056D01*
X85419544Y-156447058D01*
X85413459Y-156448965D01*
X85337713Y-156490952D01*
X85248729Y-156540277D01*
X85248726Y-156540279D01*
X85243150Y-156543370D01*
X85238309Y-156547519D01*
X85238305Y-156547522D01*
X85175311Y-156601515D01*
X85095302Y-156670091D01*
X84975954Y-156823953D01*
X84973138Y-156829676D01*
X84973136Y-156829679D01*
X84929608Y-156918140D01*
X84889982Y-156998671D01*
X84888373Y-157004849D01*
X84888372Y-157004851D01*
X84866477Y-157088909D01*
X84840898Y-157187107D01*
X84830707Y-157381564D01*
X83520360Y-157381564D01*
X83525293Y-157287436D01*
X83496175Y-157094901D01*
X83493972Y-157088915D01*
X83493971Y-157088909D01*
X83431140Y-156918140D01*
X83431138Y-156918135D01*
X83428937Y-156912154D01*
X83326326Y-156746660D01*
X83192534Y-156605178D01*
X83033025Y-156493489D01*
X82985013Y-156472712D01*
X82860175Y-156418690D01*
X82860171Y-156418689D01*
X82854316Y-156416155D01*
X82848069Y-156414850D01*
X82848066Y-156414849D01*
X82668443Y-156377324D01*
X82668438Y-156377323D01*
X82663707Y-156376335D01*
X82657315Y-156376000D01*
X81414337Y-156376000D01*
X81345049Y-156383038D01*
X81275622Y-156390090D01*
X81275621Y-156390090D01*
X81269273Y-156390735D01*
X81212939Y-156408389D01*
X81089549Y-156447056D01*
X81089544Y-156447058D01*
X81083459Y-156448965D01*
X81007713Y-156490952D01*
X80918729Y-156540277D01*
X80918726Y-156540279D01*
X80913150Y-156543370D01*
X80908309Y-156547519D01*
X80908305Y-156547522D01*
X80845311Y-156601515D01*
X80765302Y-156670091D01*
X80645954Y-156823953D01*
X80643138Y-156829676D01*
X80643136Y-156829679D01*
X80599608Y-156918140D01*
X80559982Y-156998671D01*
X80558373Y-157004849D01*
X80558372Y-157004851D01*
X80536477Y-157088909D01*
X80510898Y-157187107D01*
X80500707Y-157381564D01*
X59758500Y-157381564D01*
X59758500Y-150113296D01*
X82148507Y-150113296D01*
X82189305Y-150305236D01*
X82269118Y-150484499D01*
X82384458Y-150643251D01*
X82530284Y-150774554D01*
X82700223Y-150872668D01*
X82886847Y-150933306D01*
X82893408Y-150933996D01*
X82893410Y-150933996D01*
X82948496Y-150939785D01*
X83033076Y-150948675D01*
X83130924Y-150948675D01*
X83215504Y-150939785D01*
X83270590Y-150933996D01*
X83270592Y-150933996D01*
X83277153Y-150933306D01*
X83463777Y-150872668D01*
X83633716Y-150774554D01*
X83779542Y-150643251D01*
X83894882Y-150484500D01*
X83974695Y-150305236D01*
X84015493Y-150113296D01*
X85148507Y-150113296D01*
X85189305Y-150305236D01*
X85269118Y-150484499D01*
X85384458Y-150643251D01*
X85530284Y-150774554D01*
X85700223Y-150872668D01*
X85886847Y-150933306D01*
X85893408Y-150933996D01*
X85893410Y-150933996D01*
X85948496Y-150939785D01*
X86033076Y-150948675D01*
X86130924Y-150948675D01*
X86215504Y-150939785D01*
X86270590Y-150933996D01*
X86270592Y-150933996D01*
X86277153Y-150933306D01*
X86463777Y-150872668D01*
X86633716Y-150774554D01*
X86779542Y-150643251D01*
X86894882Y-150484500D01*
X86974695Y-150305236D01*
X87015493Y-150113296D01*
X87015493Y-149917068D01*
X86974695Y-149725128D01*
X86894882Y-149545865D01*
X86779542Y-149387113D01*
X86633716Y-149255810D01*
X86463777Y-149157696D01*
X86277153Y-149097058D01*
X86270592Y-149096368D01*
X86270590Y-149096368D01*
X86215504Y-149090579D01*
X86130924Y-149081689D01*
X86033076Y-149081689D01*
X85948496Y-149090579D01*
X85893410Y-149096368D01*
X85893408Y-149096368D01*
X85886847Y-149097058D01*
X85700223Y-149157696D01*
X85530284Y-149255810D01*
X85384458Y-149387113D01*
X85269118Y-149545864D01*
X85189305Y-149725128D01*
X85148507Y-149917068D01*
X85148507Y-150113296D01*
X84015493Y-150113296D01*
X84015493Y-149917068D01*
X83974695Y-149725128D01*
X83894882Y-149545865D01*
X83779542Y-149387113D01*
X83633716Y-149255810D01*
X83463777Y-149157696D01*
X83277153Y-149097058D01*
X83270592Y-149096368D01*
X83270590Y-149096368D01*
X83215504Y-149090579D01*
X83130924Y-149081689D01*
X83033076Y-149081689D01*
X82948496Y-149090579D01*
X82893410Y-149096368D01*
X82893408Y-149096368D01*
X82886847Y-149097058D01*
X82700223Y-149157696D01*
X82530284Y-149255810D01*
X82384458Y-149387113D01*
X82269118Y-149545864D01*
X82189305Y-149725128D01*
X82148507Y-149917068D01*
X82148507Y-150113296D01*
X59758500Y-150113296D01*
X59758500Y-148884500D01*
X59778502Y-148816379D01*
X59832158Y-148769886D01*
X59884500Y-148758500D01*
X88615500Y-148758500D01*
X88683621Y-148778502D01*
G37*
%TD.AperFunction*%
%TD*%
M02*
