%TF.GenerationSoftware,KiCad,Pcbnew,6.0.10-86aedd382b~118~ubuntu20.04.1*%
%TF.CreationDate,2023-02-01T15:49:50-08:00*%
%TF.ProjectId,CAD,4341442e-6b69-4636-9164-5f7063625858,rev?*%
%TF.SameCoordinates,Original*%
%TF.FileFunction,Soldermask,Bot*%
%TF.FilePolarity,Negative*%
%FSLAX46Y46*%
G04 Gerber Fmt 4.6, Leading zero omitted, Abs format (unit mm)*
G04 Created by KiCad (PCBNEW 6.0.10-86aedd382b~118~ubuntu20.04.1) date 2023-02-01 15:49:50*
%MOMM*%
%LPD*%
G01*
G04 APERTURE LIST*
%ADD10C,0.951987*%
%ADD11C,0.712000*%
%ADD12C,0.702000*%
G04 APERTURE END LIST*
%TO.C,U8*%
G36*
X86164912Y-149598355D02*
G01*
X86244638Y-149622539D01*
X86318114Y-149661813D01*
X86382516Y-149714666D01*
X86435369Y-149779068D01*
X86474643Y-149852544D01*
X86498827Y-149932270D01*
X86506994Y-150015182D01*
X86498827Y-150098094D01*
X86474643Y-150177820D01*
X86435369Y-150251296D01*
X86382516Y-150315698D01*
X86318114Y-150368551D01*
X86244638Y-150407825D01*
X86164912Y-150432009D01*
X86082000Y-150440176D01*
X85999088Y-150432009D01*
X85919362Y-150407825D01*
X85845886Y-150368551D01*
X85781484Y-150315698D01*
X85728631Y-150251296D01*
X85689357Y-150177820D01*
X85665173Y-150098094D01*
X85657007Y-150015182D01*
X85665173Y-149932270D01*
X85689357Y-149852544D01*
X85728631Y-149779068D01*
X85781484Y-149714666D01*
X85845886Y-149661813D01*
X85919362Y-149622539D01*
X85999088Y-149598355D01*
X86082000Y-149590188D01*
X86164912Y-149598355D01*
G37*
G36*
X83164912Y-149598355D02*
G01*
X83244638Y-149622539D01*
X83318114Y-149661813D01*
X83382516Y-149714666D01*
X83435369Y-149779068D01*
X83474643Y-149852544D01*
X83498827Y-149932270D01*
X83506993Y-150015182D01*
X83498827Y-150098094D01*
X83474643Y-150177820D01*
X83435369Y-150251296D01*
X83382516Y-150315698D01*
X83318114Y-150368551D01*
X83244638Y-150407825D01*
X83164912Y-150432009D01*
X83082000Y-150440176D01*
X82999088Y-150432009D01*
X82919362Y-150407825D01*
X82845886Y-150368551D01*
X82781484Y-150315698D01*
X82728631Y-150251296D01*
X82689357Y-150177820D01*
X82665173Y-150098094D01*
X82657006Y-150015182D01*
X82665173Y-149932270D01*
X82689357Y-149852544D01*
X82728631Y-149779068D01*
X82781484Y-149714666D01*
X82845886Y-149661813D01*
X82919362Y-149622539D01*
X82999088Y-149598355D01*
X83082000Y-149590188D01*
X83164912Y-149598355D01*
G37*
%TO.C,J1*%
G36*
X82660545Y-165484107D02*
G01*
X82754342Y-165512560D01*
X82840785Y-165558765D01*
X82916553Y-165620947D01*
X82978735Y-165696715D01*
X83024940Y-165783158D01*
X83053393Y-165876955D01*
X83063000Y-165974500D01*
X83053393Y-166072045D01*
X83024940Y-166165842D01*
X82978735Y-166252285D01*
X82916553Y-166328053D01*
X82840785Y-166390235D01*
X82754342Y-166436440D01*
X82660545Y-166464893D01*
X82563000Y-166474500D01*
X81463000Y-166474500D01*
X81365455Y-166464893D01*
X81271658Y-166436440D01*
X81185215Y-166390235D01*
X81109447Y-166328053D01*
X81047265Y-166252285D01*
X81001060Y-166165842D01*
X80972607Y-166072045D01*
X80963000Y-165974500D01*
X80972607Y-165876955D01*
X81001060Y-165783158D01*
X81047265Y-165696715D01*
X81109447Y-165620947D01*
X81185215Y-165558765D01*
X81271658Y-165512560D01*
X81365455Y-165484107D01*
X81463000Y-165474500D01*
X82563000Y-165474500D01*
X82660545Y-165484107D01*
G37*
G36*
X86690545Y-165484107D02*
G01*
X86784342Y-165512560D01*
X86870785Y-165558765D01*
X86946553Y-165620947D01*
X87008735Y-165696715D01*
X87054940Y-165783158D01*
X87083393Y-165876955D01*
X87093000Y-165974500D01*
X87083393Y-166072045D01*
X87054940Y-166165842D01*
X87008735Y-166252285D01*
X86946553Y-166328053D01*
X86870785Y-166390235D01*
X86784342Y-166436440D01*
X86690545Y-166464893D01*
X86593000Y-166474500D01*
X85793000Y-166474500D01*
X85695455Y-166464893D01*
X85601658Y-166436440D01*
X85515215Y-166390235D01*
X85439447Y-166328053D01*
X85377265Y-166252285D01*
X85331060Y-166165842D01*
X85302607Y-166072045D01*
X85293000Y-165974500D01*
X85302607Y-165876955D01*
X85331060Y-165783158D01*
X85377265Y-165696715D01*
X85439447Y-165620947D01*
X85515215Y-165558765D01*
X85601658Y-165512560D01*
X85695455Y-165484107D01*
X85793000Y-165474500D01*
X86593000Y-165474500D01*
X86690545Y-165484107D01*
G37*
G36*
X82660545Y-156844107D02*
G01*
X82754342Y-156872560D01*
X82840785Y-156918765D01*
X82916553Y-156980947D01*
X82978735Y-157056715D01*
X83024940Y-157143158D01*
X83053393Y-157236955D01*
X83063000Y-157334500D01*
X83053393Y-157432045D01*
X83024940Y-157525842D01*
X82978735Y-157612285D01*
X82916553Y-157688053D01*
X82840785Y-157750235D01*
X82754342Y-157796440D01*
X82660545Y-157824893D01*
X82563000Y-157834500D01*
X81463000Y-157834500D01*
X81365455Y-157824893D01*
X81271658Y-157796440D01*
X81185215Y-157750235D01*
X81109447Y-157688053D01*
X81047265Y-157612285D01*
X81001060Y-157525842D01*
X80972607Y-157432045D01*
X80963000Y-157334500D01*
X80972607Y-157236955D01*
X81001060Y-157143158D01*
X81047265Y-157056715D01*
X81109447Y-156980947D01*
X81185215Y-156918765D01*
X81271658Y-156872560D01*
X81365455Y-156844107D01*
X81463000Y-156834500D01*
X82563000Y-156834500D01*
X82660545Y-156844107D01*
G37*
G36*
X86690545Y-156844107D02*
G01*
X86784342Y-156872560D01*
X86870785Y-156918765D01*
X86946553Y-156980947D01*
X87008735Y-157056715D01*
X87054940Y-157143158D01*
X87083393Y-157236955D01*
X87093000Y-157334500D01*
X87083393Y-157432045D01*
X87054940Y-157525842D01*
X87008735Y-157612285D01*
X86946553Y-157688053D01*
X86870785Y-157750235D01*
X86784342Y-157796440D01*
X86690545Y-157824893D01*
X86593000Y-157834500D01*
X85793000Y-157834500D01*
X85695455Y-157824893D01*
X85601658Y-157796440D01*
X85515215Y-157750235D01*
X85439447Y-157688053D01*
X85377265Y-157612285D01*
X85331060Y-157525842D01*
X85302607Y-157432045D01*
X85293000Y-157334500D01*
X85302607Y-157236955D01*
X85331060Y-157143158D01*
X85377265Y-157056715D01*
X85439447Y-156980947D01*
X85515215Y-156918765D01*
X85601658Y-156872560D01*
X85695455Y-156844107D01*
X85793000Y-156834500D01*
X86593000Y-156834500D01*
X86690545Y-156844107D01*
G37*
%TD*%
D10*
%TO.C,U8*%
X83082000Y-150015182D03*
X86082000Y-150015182D03*
%TD*%
D11*
%TO.C,J1*%
X82543000Y-164544500D03*
X82543000Y-158764500D03*
%TD*%
D12*
X61523936Y-160298063D03*
X62523936Y-160298063D03*
X63523936Y-164298063D03*
X87274400Y-155956000D03*
X61523936Y-162298063D03*
X64627000Y-153654000D03*
X60627000Y-152654000D03*
X60523936Y-161298063D03*
X64523936Y-161298063D03*
X61627000Y-151654000D03*
X73374000Y-159480000D03*
X62523936Y-162298063D03*
X72374000Y-159480000D03*
X76200000Y-163474400D03*
X64627000Y-152654000D03*
X73787000Y-152654000D03*
X72390000Y-154559000D03*
X63523936Y-162298063D03*
X88087200Y-158851600D03*
X71374000Y-157480000D03*
X78867000Y-160909000D03*
X60523936Y-164298063D03*
X64523936Y-164298063D03*
X62523936Y-161298063D03*
X62627000Y-150654000D03*
X74879200Y-165303200D03*
X71374000Y-159480000D03*
X64627000Y-150654000D03*
X72374000Y-157480000D03*
X60627000Y-153654000D03*
X74803000Y-152654000D03*
X72374000Y-158480000D03*
X79502000Y-163931600D03*
X60627000Y-150654000D03*
X64008000Y-157480000D03*
X63627000Y-150654000D03*
X61523936Y-163298063D03*
X61523936Y-164298063D03*
X61627000Y-154654000D03*
X88011000Y-153416000D03*
X60627000Y-151654000D03*
X64523936Y-160298063D03*
X63523936Y-163298063D03*
X73797000Y-153680000D03*
X88087200Y-161747200D03*
X63627000Y-152654000D03*
X87985600Y-164795200D03*
X67056000Y-149987000D03*
X88138000Y-155092400D03*
X63627000Y-154654000D03*
X71807969Y-150751169D03*
X60523936Y-162298063D03*
X73374000Y-157480000D03*
X62627000Y-151654000D03*
X60523936Y-160298063D03*
X61627000Y-153654000D03*
X60627000Y-154654000D03*
X63523936Y-160298063D03*
X62627000Y-154654000D03*
X62523936Y-164298063D03*
X74803000Y-153670000D03*
X61627000Y-152654000D03*
X61627000Y-150654000D03*
X62627000Y-152654000D03*
X71374000Y-158480000D03*
X73374000Y-158480000D03*
X62627000Y-153654000D03*
X61523936Y-161298063D03*
X64312800Y-149504400D03*
X75133200Y-163880800D03*
X64627000Y-154654000D03*
X64523936Y-163298063D03*
X63627000Y-153654000D03*
X86868000Y-154940000D03*
X62523936Y-163298063D03*
X78613000Y-152019000D03*
X63523936Y-161298063D03*
X63627000Y-151654000D03*
X64523936Y-162298063D03*
X72847200Y-165557200D03*
X78282800Y-148945600D03*
X64627000Y-151654000D03*
X60523936Y-163298063D03*
X81915000Y-154559000D03*
M02*
