%TF.GenerationSoftware,KiCad,Pcbnew,6.0.10-86aedd382b~118~ubuntu20.04.1*%
%TF.CreationDate,2023-02-21T15:58:45-08:00*%
%TF.ProjectId,CAD,4341442e-6b69-4636-9164-5f7063625858,rev?*%
%TF.SameCoordinates,Original*%
%TF.FileFunction,Soldermask,Bot*%
%TF.FilePolarity,Negative*%
%FSLAX46Y46*%
G04 Gerber Fmt 4.6, Leading zero omitted, Abs format (unit mm)*
G04 Created by KiCad (PCBNEW 6.0.10-86aedd382b~118~ubuntu20.04.1) date 2023-02-21 15:58:45*
%MOMM*%
%LPD*%
G01*
G04 APERTURE LIST*
%ADD10C,2.402000*%
%ADD11C,0.852013*%
%ADD12C,1.202025*%
%ADD13C,1.102000*%
G04 APERTURE END LIST*
%TO.C,*%
G36*
X110810917Y-125235547D02*
G01*
X111157964Y-125340823D01*
X111477805Y-125511781D01*
X111758148Y-125741852D01*
X111988219Y-126022195D01*
X112159177Y-126342036D01*
X112264453Y-126689083D01*
X112300000Y-127050000D01*
X112264453Y-127410917D01*
X112159177Y-127757964D01*
X111988219Y-128077805D01*
X111758148Y-128358148D01*
X111477805Y-128588219D01*
X111157964Y-128759177D01*
X110810917Y-128864453D01*
X110450000Y-128900000D01*
X110089083Y-128864453D01*
X109742036Y-128759177D01*
X109422195Y-128588219D01*
X109141852Y-128358148D01*
X108911781Y-128077805D01*
X108740823Y-127757964D01*
X108635547Y-127410917D01*
X108600000Y-127050000D01*
X108635547Y-126689083D01*
X108740823Y-126342036D01*
X108911781Y-126022195D01*
X109141852Y-125741852D01*
X109422195Y-125511781D01*
X109742036Y-125340823D01*
X110089083Y-125235547D01*
X110450000Y-125200000D01*
X110810917Y-125235547D01*
G37*
G36*
X168910917Y-125235547D02*
G01*
X169257964Y-125340823D01*
X169577805Y-125511781D01*
X169858148Y-125741852D01*
X170088219Y-126022195D01*
X170259177Y-126342036D01*
X170364453Y-126689083D01*
X170400000Y-127050000D01*
X170364453Y-127410917D01*
X170259177Y-127757964D01*
X170088219Y-128077805D01*
X169858148Y-128358148D01*
X169577805Y-128588219D01*
X169257964Y-128759177D01*
X168910917Y-128864453D01*
X168550000Y-128900000D01*
X168189083Y-128864453D01*
X167842036Y-128759177D01*
X167522195Y-128588219D01*
X167241852Y-128358148D01*
X167011781Y-128077805D01*
X166840823Y-127757964D01*
X166735547Y-127410917D01*
X166700000Y-127050000D01*
X166735547Y-126689083D01*
X166840823Y-126342036D01*
X167011781Y-126022195D01*
X167241852Y-125741852D01*
X167522195Y-125511781D01*
X167842036Y-125340823D01*
X168189083Y-125235547D01*
X168550000Y-125200000D01*
X168910917Y-125235547D01*
G37*
%TO.C,J2*%
G36*
X167858356Y-117463096D02*
G01*
X167961535Y-117494395D01*
X168056625Y-117545221D01*
X168139972Y-117613622D01*
X168208373Y-117696969D01*
X168259199Y-117792059D01*
X168290498Y-117895238D01*
X168301067Y-118002540D01*
X168290498Y-118109842D01*
X168259199Y-118213021D01*
X168208373Y-118308111D01*
X168139972Y-118391458D01*
X168056625Y-118459859D01*
X167961535Y-118510685D01*
X167858356Y-118541984D01*
X167751054Y-118552553D01*
X167643752Y-118541984D01*
X167540573Y-118510685D01*
X167445483Y-118459859D01*
X167362136Y-118391458D01*
X167293735Y-118308111D01*
X167242909Y-118213021D01*
X167211610Y-118109842D01*
X167201042Y-118002540D01*
X167211610Y-117895238D01*
X167242909Y-117792059D01*
X167293735Y-117696969D01*
X167362136Y-117613622D01*
X167445483Y-117545221D01*
X167540573Y-117494395D01*
X167643752Y-117463096D01*
X167751054Y-117452527D01*
X167858356Y-117463096D01*
G37*
G36*
X160324087Y-117632199D02*
G01*
X160394436Y-117653539D01*
X160459269Y-117688193D01*
X160516097Y-117734830D01*
X160562734Y-117791658D01*
X160597388Y-117856491D01*
X160618728Y-117926840D01*
X160625933Y-118000000D01*
X160618728Y-118073160D01*
X160597388Y-118143509D01*
X160562734Y-118208342D01*
X160516097Y-118265170D01*
X160459269Y-118311807D01*
X160394436Y-118346461D01*
X160324087Y-118367801D01*
X160250927Y-118375007D01*
X160177767Y-118367801D01*
X160107418Y-118346461D01*
X160042585Y-118311807D01*
X159985757Y-118265170D01*
X159939120Y-118208342D01*
X159904466Y-118143509D01*
X159883126Y-118073160D01*
X159875921Y-118000000D01*
X159883126Y-117926840D01*
X159904466Y-117856491D01*
X159939120Y-117791658D01*
X159985757Y-117734830D01*
X160042585Y-117688193D01*
X160107418Y-117653539D01*
X160177767Y-117632199D01*
X160250927Y-117624993D01*
X160324087Y-117632199D01*
G37*
%TO.C,J1*%
G36*
X111324087Y-117632199D02*
G01*
X111394436Y-117653539D01*
X111459269Y-117688193D01*
X111516097Y-117734830D01*
X111562734Y-117791658D01*
X111597388Y-117856491D01*
X111618728Y-117926840D01*
X111625933Y-118000000D01*
X111618728Y-118073160D01*
X111597388Y-118143509D01*
X111562734Y-118208342D01*
X111516097Y-118265170D01*
X111459269Y-118311807D01*
X111394436Y-118346461D01*
X111324087Y-118367801D01*
X111250927Y-118375007D01*
X111177767Y-118367801D01*
X111107418Y-118346461D01*
X111042585Y-118311807D01*
X110985757Y-118265170D01*
X110939120Y-118208342D01*
X110904466Y-118143509D01*
X110883126Y-118073160D01*
X110875921Y-118000000D01*
X110883126Y-117926840D01*
X110904466Y-117856491D01*
X110939120Y-117791658D01*
X110985757Y-117734830D01*
X111042585Y-117688193D01*
X111107418Y-117653539D01*
X111177767Y-117632199D01*
X111250927Y-117624993D01*
X111324087Y-117632199D01*
G37*
G36*
X118858356Y-117463096D02*
G01*
X118961535Y-117494395D01*
X119056625Y-117545221D01*
X119139972Y-117613622D01*
X119208373Y-117696969D01*
X119259199Y-117792059D01*
X119290498Y-117895238D01*
X119301067Y-118002540D01*
X119290498Y-118109842D01*
X119259199Y-118213021D01*
X119208373Y-118308111D01*
X119139972Y-118391458D01*
X119056625Y-118459859D01*
X118961535Y-118510685D01*
X118858356Y-118541984D01*
X118751054Y-118552553D01*
X118643752Y-118541984D01*
X118540573Y-118510685D01*
X118445483Y-118459859D01*
X118362136Y-118391458D01*
X118293735Y-118308111D01*
X118242909Y-118213021D01*
X118211610Y-118109842D01*
X118201042Y-118002540D01*
X118211610Y-117895238D01*
X118242909Y-117792059D01*
X118293735Y-117696969D01*
X118362136Y-117613622D01*
X118445483Y-117545221D01*
X118540573Y-117494395D01*
X118643752Y-117463096D01*
X118751054Y-117452527D01*
X118858356Y-117463096D01*
G37*
%TO.C,*%
G36*
X110810917Y-87135547D02*
G01*
X111157964Y-87240823D01*
X111477805Y-87411781D01*
X111758148Y-87641852D01*
X111988219Y-87922195D01*
X112159177Y-88242036D01*
X112264453Y-88589083D01*
X112300000Y-88950000D01*
X112264453Y-89310917D01*
X112159177Y-89657964D01*
X111988219Y-89977805D01*
X111758148Y-90258148D01*
X111477805Y-90488219D01*
X111157964Y-90659177D01*
X110810917Y-90764453D01*
X110450000Y-90800000D01*
X110089083Y-90764453D01*
X109742036Y-90659177D01*
X109422195Y-90488219D01*
X109141852Y-90258148D01*
X108911781Y-89977805D01*
X108740823Y-89657964D01*
X108635547Y-89310917D01*
X108600000Y-88950000D01*
X108635547Y-88589083D01*
X108740823Y-88242036D01*
X108911781Y-87922195D01*
X109141852Y-87641852D01*
X109422195Y-87411781D01*
X109742036Y-87240823D01*
X110089083Y-87135547D01*
X110450000Y-87100000D01*
X110810917Y-87135547D01*
G37*
G36*
X168910917Y-87135547D02*
G01*
X169257964Y-87240823D01*
X169577805Y-87411781D01*
X169858148Y-87641852D01*
X170088219Y-87922195D01*
X170259177Y-88242036D01*
X170364453Y-88589083D01*
X170400000Y-88950000D01*
X170364453Y-89310917D01*
X170259177Y-89657964D01*
X170088219Y-89977805D01*
X169858148Y-90258148D01*
X169577805Y-90488219D01*
X169257964Y-90659177D01*
X168910917Y-90764453D01*
X168550000Y-90800000D01*
X168189083Y-90764453D01*
X167842036Y-90659177D01*
X167522195Y-90488219D01*
X167241852Y-90258148D01*
X167011781Y-89977805D01*
X166840823Y-89657964D01*
X166735547Y-89310917D01*
X166700000Y-88950000D01*
X166735547Y-88589083D01*
X166840823Y-88242036D01*
X167011781Y-87922195D01*
X167241852Y-87641852D01*
X167522195Y-87411781D01*
X167842036Y-87240823D01*
X168189083Y-87135547D01*
X168550000Y-87100000D01*
X168910917Y-87135547D01*
G37*
%TD*%
D10*
%TO.C,*%
X110450000Y-127050000D03*
%TD*%
%TO.C,*%
X168550000Y-127050000D03*
%TD*%
D11*
%TO.C,J2*%
X160250927Y-118000000D03*
D12*
X167751054Y-118002540D03*
D13*
X166401041Y-115849886D03*
X161600940Y-115849886D03*
X161600940Y-120150114D03*
X166401041Y-120150114D03*
%TD*%
D12*
%TO.C,J1*%
X118751054Y-118002540D03*
D11*
X111250927Y-118000000D03*
D13*
X117401041Y-115849886D03*
X112600940Y-115849886D03*
X112600940Y-120150114D03*
X117401041Y-120150114D03*
%TD*%
D10*
%TO.C,*%
X110450000Y-88950000D03*
%TD*%
%TO.C,*%
X168550000Y-88950000D03*
%TD*%
M02*
