%TF.GenerationSoftware,KiCad,Pcbnew,7.0.0-da2b9df05c~171~ubuntu22.04.1*%
%TF.CreationDate,2023-03-03T15:29:18-08:00*%
%TF.ProjectId,CAD,4341442e-6b69-4636-9164-5f7063625858,rev?*%
%TF.SameCoordinates,Original*%
%TF.FileFunction,Legend,Bot*%
%TF.FilePolarity,Positive*%
%FSLAX46Y46*%
G04 Gerber Fmt 4.6, Leading zero omitted, Abs format (unit mm)*
G04 Created by KiCad (PCBNEW 7.0.0-da2b9df05c~171~ubuntu22.04.1) date 2023-03-03 15:29:18*
%MOMM*%
%LPD*%
G01*
G04 APERTURE LIST*
%ADD10C,0.100000*%
%ADD11C,0.852013*%
%ADD12C,1.202025*%
%ADD13C,1.102000*%
%ADD14C,2.402000*%
G04 APERTURE END LIST*
D10*
%TO.C,TXT19*%
X166326709Y-86046071D02*
X166326709Y-87260357D01*
X166326709Y-87260357D02*
X166255280Y-87403214D01*
X166255280Y-87403214D02*
X166183852Y-87474642D01*
X166183852Y-87474642D02*
X166040994Y-87546071D01*
X166040994Y-87546071D02*
X165755280Y-87546071D01*
X165755280Y-87546071D02*
X165612423Y-87474642D01*
X165612423Y-87474642D02*
X165540994Y-87403214D01*
X165540994Y-87403214D02*
X165469566Y-87260357D01*
X165469566Y-87260357D02*
X165469566Y-86046071D01*
X164826708Y-87474642D02*
X164612423Y-87546071D01*
X164612423Y-87546071D02*
X164255280Y-87546071D01*
X164255280Y-87546071D02*
X164112423Y-87474642D01*
X164112423Y-87474642D02*
X164040994Y-87403214D01*
X164040994Y-87403214D02*
X163969565Y-87260357D01*
X163969565Y-87260357D02*
X163969565Y-87117500D01*
X163969565Y-87117500D02*
X164040994Y-86974642D01*
X164040994Y-86974642D02*
X164112423Y-86903214D01*
X164112423Y-86903214D02*
X164255280Y-86831785D01*
X164255280Y-86831785D02*
X164540994Y-86760357D01*
X164540994Y-86760357D02*
X164683851Y-86688928D01*
X164683851Y-86688928D02*
X164755280Y-86617500D01*
X164755280Y-86617500D02*
X164826708Y-86474642D01*
X164826708Y-86474642D02*
X164826708Y-86331785D01*
X164826708Y-86331785D02*
X164755280Y-86188928D01*
X164755280Y-86188928D02*
X164683851Y-86117500D01*
X164683851Y-86117500D02*
X164540994Y-86046071D01*
X164540994Y-86046071D02*
X164183851Y-86046071D01*
X164183851Y-86046071D02*
X163969565Y-86117500D01*
X162826709Y-86760357D02*
X162612423Y-86831785D01*
X162612423Y-86831785D02*
X162540994Y-86903214D01*
X162540994Y-86903214D02*
X162469566Y-87046071D01*
X162469566Y-87046071D02*
X162469566Y-87260357D01*
X162469566Y-87260357D02*
X162540994Y-87403214D01*
X162540994Y-87403214D02*
X162612423Y-87474642D01*
X162612423Y-87474642D02*
X162755280Y-87546071D01*
X162755280Y-87546071D02*
X163326709Y-87546071D01*
X163326709Y-87546071D02*
X163326709Y-86046071D01*
X163326709Y-86046071D02*
X162826709Y-86046071D01*
X162826709Y-86046071D02*
X162683852Y-86117500D01*
X162683852Y-86117500D02*
X162612423Y-86188928D01*
X162612423Y-86188928D02*
X162540994Y-86331785D01*
X162540994Y-86331785D02*
X162540994Y-86474642D01*
X162540994Y-86474642D02*
X162612423Y-86617500D01*
X162612423Y-86617500D02*
X162683852Y-86688928D01*
X162683852Y-86688928D02*
X162826709Y-86760357D01*
X162826709Y-86760357D02*
X163326709Y-86760357D01*
X161826709Y-86974642D02*
X160683852Y-86974642D01*
X159112423Y-87403214D02*
X159183851Y-87474642D01*
X159183851Y-87474642D02*
X159398137Y-87546071D01*
X159398137Y-87546071D02*
X159540994Y-87546071D01*
X159540994Y-87546071D02*
X159755280Y-87474642D01*
X159755280Y-87474642D02*
X159898137Y-87331785D01*
X159898137Y-87331785D02*
X159969566Y-87188928D01*
X159969566Y-87188928D02*
X160040994Y-86903214D01*
X160040994Y-86903214D02*
X160040994Y-86688928D01*
X160040994Y-86688928D02*
X159969566Y-86403214D01*
X159969566Y-86403214D02*
X159898137Y-86260357D01*
X159898137Y-86260357D02*
X159755280Y-86117500D01*
X159755280Y-86117500D02*
X159540994Y-86046071D01*
X159540994Y-86046071D02*
X159398137Y-86046071D01*
X159398137Y-86046071D02*
X159183851Y-86117500D01*
X159183851Y-86117500D02*
X159112423Y-86188928D01*
X156712423Y-87403214D02*
X156783851Y-87474642D01*
X156783851Y-87474642D02*
X156998137Y-87546071D01*
X156998137Y-87546071D02*
X157140994Y-87546071D01*
X157140994Y-87546071D02*
X157355280Y-87474642D01*
X157355280Y-87474642D02*
X157498137Y-87331785D01*
X157498137Y-87331785D02*
X157569566Y-87188928D01*
X157569566Y-87188928D02*
X157640994Y-86903214D01*
X157640994Y-86903214D02*
X157640994Y-86688928D01*
X157640994Y-86688928D02*
X157569566Y-86403214D01*
X157569566Y-86403214D02*
X157498137Y-86260357D01*
X157498137Y-86260357D02*
X157355280Y-86117500D01*
X157355280Y-86117500D02*
X157140994Y-86046071D01*
X157140994Y-86046071D02*
X156998137Y-86046071D01*
X156998137Y-86046071D02*
X156783851Y-86117500D01*
X156783851Y-86117500D02*
X156712423Y-86188928D01*
X155426709Y-87546071D02*
X155426709Y-86760357D01*
X155426709Y-86760357D02*
X155498137Y-86617500D01*
X155498137Y-86617500D02*
X155640994Y-86546071D01*
X155640994Y-86546071D02*
X155926709Y-86546071D01*
X155926709Y-86546071D02*
X156069566Y-86617500D01*
X155426709Y-87474642D02*
X155569566Y-87546071D01*
X155569566Y-87546071D02*
X155926709Y-87546071D01*
X155926709Y-87546071D02*
X156069566Y-87474642D01*
X156069566Y-87474642D02*
X156140994Y-87331785D01*
X156140994Y-87331785D02*
X156140994Y-87188928D01*
X156140994Y-87188928D02*
X156069566Y-87046071D01*
X156069566Y-87046071D02*
X155926709Y-86974642D01*
X155926709Y-86974642D02*
X155569566Y-86974642D01*
X155569566Y-86974642D02*
X155426709Y-86903214D01*
X154712423Y-87546071D02*
X154712423Y-86046071D01*
X154712423Y-86617500D02*
X154569566Y-86546071D01*
X154569566Y-86546071D02*
X154283851Y-86546071D01*
X154283851Y-86546071D02*
X154140994Y-86617500D01*
X154140994Y-86617500D02*
X154069566Y-86688928D01*
X154069566Y-86688928D02*
X153998137Y-86831785D01*
X153998137Y-86831785D02*
X153998137Y-87260357D01*
X153998137Y-87260357D02*
X154069566Y-87403214D01*
X154069566Y-87403214D02*
X154140994Y-87474642D01*
X154140994Y-87474642D02*
X154283851Y-87546071D01*
X154283851Y-87546071D02*
X154569566Y-87546071D01*
X154569566Y-87546071D02*
X154712423Y-87474642D01*
X153140994Y-87546071D02*
X153283851Y-87474642D01*
X153283851Y-87474642D02*
X153355280Y-87331785D01*
X153355280Y-87331785D02*
X153355280Y-86046071D01*
X151998137Y-87474642D02*
X152140994Y-87546071D01*
X152140994Y-87546071D02*
X152426709Y-87546071D01*
X152426709Y-87546071D02*
X152569566Y-87474642D01*
X152569566Y-87474642D02*
X152640994Y-87331785D01*
X152640994Y-87331785D02*
X152640994Y-86760357D01*
X152640994Y-86760357D02*
X152569566Y-86617500D01*
X152569566Y-86617500D02*
X152426709Y-86546071D01*
X152426709Y-86546071D02*
X152140994Y-86546071D01*
X152140994Y-86546071D02*
X151998137Y-86617500D01*
X151998137Y-86617500D02*
X151926709Y-86760357D01*
X151926709Y-86760357D02*
X151926709Y-86903214D01*
X151926709Y-86903214D02*
X152640994Y-87046071D01*
X150598137Y-86046071D02*
X149740995Y-86046071D01*
X150169566Y-87546071D02*
X150169566Y-86046071D01*
X148669566Y-87474642D02*
X148812423Y-87546071D01*
X148812423Y-87546071D02*
X149098138Y-87546071D01*
X149098138Y-87546071D02*
X149240995Y-87474642D01*
X149240995Y-87474642D02*
X149312423Y-87331785D01*
X149312423Y-87331785D02*
X149312423Y-86760357D01*
X149312423Y-86760357D02*
X149240995Y-86617500D01*
X149240995Y-86617500D02*
X149098138Y-86546071D01*
X149098138Y-86546071D02*
X148812423Y-86546071D01*
X148812423Y-86546071D02*
X148669566Y-86617500D01*
X148669566Y-86617500D02*
X148598138Y-86760357D01*
X148598138Y-86760357D02*
X148598138Y-86903214D01*
X148598138Y-86903214D02*
X149312423Y-87046071D01*
X148026709Y-87474642D02*
X147883852Y-87546071D01*
X147883852Y-87546071D02*
X147598138Y-87546071D01*
X147598138Y-87546071D02*
X147455281Y-87474642D01*
X147455281Y-87474642D02*
X147383852Y-87331785D01*
X147383852Y-87331785D02*
X147383852Y-87260357D01*
X147383852Y-87260357D02*
X147455281Y-87117500D01*
X147455281Y-87117500D02*
X147598138Y-87046071D01*
X147598138Y-87046071D02*
X147812424Y-87046071D01*
X147812424Y-87046071D02*
X147955281Y-86974642D01*
X147955281Y-86974642D02*
X148026709Y-86831785D01*
X148026709Y-86831785D02*
X148026709Y-86760357D01*
X148026709Y-86760357D02*
X147955281Y-86617500D01*
X147955281Y-86617500D02*
X147812424Y-86546071D01*
X147812424Y-86546071D02*
X147598138Y-86546071D01*
X147598138Y-86546071D02*
X147455281Y-86617500D01*
X146955280Y-86546071D02*
X146383852Y-86546071D01*
X146740995Y-86046071D02*
X146740995Y-87331785D01*
X146740995Y-87331785D02*
X146669566Y-87474642D01*
X146669566Y-87474642D02*
X146526709Y-87546071D01*
X146526709Y-87546071D02*
X146383852Y-87546071D01*
X145312423Y-87474642D02*
X145455280Y-87546071D01*
X145455280Y-87546071D02*
X145740995Y-87546071D01*
X145740995Y-87546071D02*
X145883852Y-87474642D01*
X145883852Y-87474642D02*
X145955280Y-87331785D01*
X145955280Y-87331785D02*
X145955280Y-86760357D01*
X145955280Y-86760357D02*
X145883852Y-86617500D01*
X145883852Y-86617500D02*
X145740995Y-86546071D01*
X145740995Y-86546071D02*
X145455280Y-86546071D01*
X145455280Y-86546071D02*
X145312423Y-86617500D01*
X145312423Y-86617500D02*
X145240995Y-86760357D01*
X145240995Y-86760357D02*
X145240995Y-86903214D01*
X145240995Y-86903214D02*
X145955280Y-87046071D01*
X144598138Y-87546071D02*
X144598138Y-86546071D01*
X144598138Y-86831785D02*
X144526709Y-86688928D01*
X144526709Y-86688928D02*
X144455281Y-86617500D01*
X144455281Y-86617500D02*
X144312423Y-86546071D01*
X144312423Y-86546071D02*
X144169566Y-86546071D01*
X142412424Y-88046071D02*
X142412424Y-85903214D01*
X140655281Y-86046071D02*
X140155281Y-87546071D01*
X140155281Y-87546071D02*
X139655281Y-86046071D01*
X138583853Y-87474642D02*
X138726710Y-87546071D01*
X138726710Y-87546071D02*
X139012425Y-87546071D01*
X139012425Y-87546071D02*
X139155282Y-87474642D01*
X139155282Y-87474642D02*
X139226710Y-87331785D01*
X139226710Y-87331785D02*
X139226710Y-86760357D01*
X139226710Y-86760357D02*
X139155282Y-86617500D01*
X139155282Y-86617500D02*
X139012425Y-86546071D01*
X139012425Y-86546071D02*
X138726710Y-86546071D01*
X138726710Y-86546071D02*
X138583853Y-86617500D01*
X138583853Y-86617500D02*
X138512425Y-86760357D01*
X138512425Y-86760357D02*
X138512425Y-86903214D01*
X138512425Y-86903214D02*
X139226710Y-87046071D01*
X137869568Y-87546071D02*
X137869568Y-86546071D01*
X137869568Y-86831785D02*
X137798139Y-86688928D01*
X137798139Y-86688928D02*
X137726711Y-86617500D01*
X137726711Y-86617500D02*
X137583853Y-86546071D01*
X137583853Y-86546071D02*
X137440996Y-86546071D01*
X137012425Y-87474642D02*
X136869568Y-87546071D01*
X136869568Y-87546071D02*
X136583854Y-87546071D01*
X136583854Y-87546071D02*
X136440997Y-87474642D01*
X136440997Y-87474642D02*
X136369568Y-87331785D01*
X136369568Y-87331785D02*
X136369568Y-87260357D01*
X136369568Y-87260357D02*
X136440997Y-87117500D01*
X136440997Y-87117500D02*
X136583854Y-87046071D01*
X136583854Y-87046071D02*
X136798140Y-87046071D01*
X136798140Y-87046071D02*
X136940997Y-86974642D01*
X136940997Y-86974642D02*
X137012425Y-86831785D01*
X137012425Y-86831785D02*
X137012425Y-86760357D01*
X137012425Y-86760357D02*
X136940997Y-86617500D01*
X136940997Y-86617500D02*
X136798140Y-86546071D01*
X136798140Y-86546071D02*
X136583854Y-86546071D01*
X136583854Y-86546071D02*
X136440997Y-86617500D01*
X135726711Y-87546071D02*
X135726711Y-86546071D01*
X135726711Y-86046071D02*
X135798139Y-86117500D01*
X135798139Y-86117500D02*
X135726711Y-86188928D01*
X135726711Y-86188928D02*
X135655282Y-86117500D01*
X135655282Y-86117500D02*
X135726711Y-86046071D01*
X135726711Y-86046071D02*
X135726711Y-86188928D01*
X134798139Y-87546071D02*
X134940996Y-87474642D01*
X134940996Y-87474642D02*
X135012425Y-87403214D01*
X135012425Y-87403214D02*
X135083853Y-87260357D01*
X135083853Y-87260357D02*
X135083853Y-86831785D01*
X135083853Y-86831785D02*
X135012425Y-86688928D01*
X135012425Y-86688928D02*
X134940996Y-86617500D01*
X134940996Y-86617500D02*
X134798139Y-86546071D01*
X134798139Y-86546071D02*
X134583853Y-86546071D01*
X134583853Y-86546071D02*
X134440996Y-86617500D01*
X134440996Y-86617500D02*
X134369568Y-86688928D01*
X134369568Y-86688928D02*
X134298139Y-86831785D01*
X134298139Y-86831785D02*
X134298139Y-87260357D01*
X134298139Y-87260357D02*
X134369568Y-87403214D01*
X134369568Y-87403214D02*
X134440996Y-87474642D01*
X134440996Y-87474642D02*
X134583853Y-87546071D01*
X134583853Y-87546071D02*
X134798139Y-87546071D01*
X133655282Y-86546071D02*
X133655282Y-87546071D01*
X133655282Y-86688928D02*
X133583853Y-86617500D01*
X133583853Y-86617500D02*
X133440996Y-86546071D01*
X133440996Y-86546071D02*
X133226710Y-86546071D01*
X133226710Y-86546071D02*
X133083853Y-86617500D01*
X133083853Y-86617500D02*
X133012425Y-86760357D01*
X133012425Y-86760357D02*
X133012425Y-87546071D01*
X131112424Y-86046071D02*
X130969567Y-86046071D01*
X130969567Y-86046071D02*
X130826710Y-86117500D01*
X130826710Y-86117500D02*
X130755282Y-86188928D01*
X130755282Y-86188928D02*
X130683853Y-86331785D01*
X130683853Y-86331785D02*
X130612424Y-86617500D01*
X130612424Y-86617500D02*
X130612424Y-86974642D01*
X130612424Y-86974642D02*
X130683853Y-87260357D01*
X130683853Y-87260357D02*
X130755282Y-87403214D01*
X130755282Y-87403214D02*
X130826710Y-87474642D01*
X130826710Y-87474642D02*
X130969567Y-87546071D01*
X130969567Y-87546071D02*
X131112424Y-87546071D01*
X131112424Y-87546071D02*
X131255282Y-87474642D01*
X131255282Y-87474642D02*
X131326710Y-87403214D01*
X131326710Y-87403214D02*
X131398139Y-87260357D01*
X131398139Y-87260357D02*
X131469567Y-86974642D01*
X131469567Y-86974642D02*
X131469567Y-86617500D01*
X131469567Y-86617500D02*
X131398139Y-86331785D01*
X131398139Y-86331785D02*
X131326710Y-86188928D01*
X131326710Y-86188928D02*
X131255282Y-86117500D01*
X131255282Y-86117500D02*
X131112424Y-86046071D01*
X129969568Y-87403214D02*
X129898139Y-87474642D01*
X129898139Y-87474642D02*
X129969568Y-87546071D01*
X129969568Y-87546071D02*
X130040996Y-87474642D01*
X130040996Y-87474642D02*
X129969568Y-87403214D01*
X129969568Y-87403214D02*
X129969568Y-87546071D01*
X128469567Y-87546071D02*
X129326710Y-87546071D01*
X128898139Y-87546071D02*
X128898139Y-86046071D01*
X128898139Y-86046071D02*
X129040996Y-86260357D01*
X129040996Y-86260357D02*
X129183853Y-86403214D01*
X129183853Y-86403214D02*
X129326710Y-86474642D01*
X126998139Y-86188928D02*
X126926711Y-86117500D01*
X126926711Y-86117500D02*
X126783854Y-86046071D01*
X126783854Y-86046071D02*
X126426711Y-86046071D01*
X126426711Y-86046071D02*
X126283854Y-86117500D01*
X126283854Y-86117500D02*
X126212425Y-86188928D01*
X126212425Y-86188928D02*
X126140996Y-86331785D01*
X126140996Y-86331785D02*
X126140996Y-86474642D01*
X126140996Y-86474642D02*
X126212425Y-86688928D01*
X126212425Y-86688928D02*
X127069568Y-87546071D01*
X127069568Y-87546071D02*
X126140996Y-87546071D01*
X125212425Y-86046071D02*
X125069568Y-86046071D01*
X125069568Y-86046071D02*
X124926711Y-86117500D01*
X124926711Y-86117500D02*
X124855283Y-86188928D01*
X124855283Y-86188928D02*
X124783854Y-86331785D01*
X124783854Y-86331785D02*
X124712425Y-86617500D01*
X124712425Y-86617500D02*
X124712425Y-86974642D01*
X124712425Y-86974642D02*
X124783854Y-87260357D01*
X124783854Y-87260357D02*
X124855283Y-87403214D01*
X124855283Y-87403214D02*
X124926711Y-87474642D01*
X124926711Y-87474642D02*
X125069568Y-87546071D01*
X125069568Y-87546071D02*
X125212425Y-87546071D01*
X125212425Y-87546071D02*
X125355283Y-87474642D01*
X125355283Y-87474642D02*
X125426711Y-87403214D01*
X125426711Y-87403214D02*
X125498140Y-87260357D01*
X125498140Y-87260357D02*
X125569568Y-86974642D01*
X125569568Y-86974642D02*
X125569568Y-86617500D01*
X125569568Y-86617500D02*
X125498140Y-86331785D01*
X125498140Y-86331785D02*
X125426711Y-86188928D01*
X125426711Y-86188928D02*
X125355283Y-86117500D01*
X125355283Y-86117500D02*
X125212425Y-86046071D01*
X124140997Y-86188928D02*
X124069569Y-86117500D01*
X124069569Y-86117500D02*
X123926712Y-86046071D01*
X123926712Y-86046071D02*
X123569569Y-86046071D01*
X123569569Y-86046071D02*
X123426712Y-86117500D01*
X123426712Y-86117500D02*
X123355283Y-86188928D01*
X123355283Y-86188928D02*
X123283854Y-86331785D01*
X123283854Y-86331785D02*
X123283854Y-86474642D01*
X123283854Y-86474642D02*
X123355283Y-86688928D01*
X123355283Y-86688928D02*
X124212426Y-87546071D01*
X124212426Y-87546071D02*
X123283854Y-87546071D01*
X122783855Y-86046071D02*
X121855283Y-86046071D01*
X121855283Y-86046071D02*
X122355283Y-86617500D01*
X122355283Y-86617500D02*
X122140998Y-86617500D01*
X122140998Y-86617500D02*
X121998141Y-86688928D01*
X121998141Y-86688928D02*
X121926712Y-86760357D01*
X121926712Y-86760357D02*
X121855283Y-86903214D01*
X121855283Y-86903214D02*
X121855283Y-87260357D01*
X121855283Y-87260357D02*
X121926712Y-87403214D01*
X121926712Y-87403214D02*
X121998141Y-87474642D01*
X121998141Y-87474642D02*
X122140998Y-87546071D01*
X122140998Y-87546071D02*
X122569569Y-87546071D01*
X122569569Y-87546071D02*
X122712426Y-87474642D01*
X122712426Y-87474642D02*
X122783855Y-87403214D01*
X121212427Y-86974642D02*
X120069570Y-86974642D01*
X119069569Y-86046071D02*
X118926712Y-86046071D01*
X118926712Y-86046071D02*
X118783855Y-86117500D01*
X118783855Y-86117500D02*
X118712427Y-86188928D01*
X118712427Y-86188928D02*
X118640998Y-86331785D01*
X118640998Y-86331785D02*
X118569569Y-86617500D01*
X118569569Y-86617500D02*
X118569569Y-86974642D01*
X118569569Y-86974642D02*
X118640998Y-87260357D01*
X118640998Y-87260357D02*
X118712427Y-87403214D01*
X118712427Y-87403214D02*
X118783855Y-87474642D01*
X118783855Y-87474642D02*
X118926712Y-87546071D01*
X118926712Y-87546071D02*
X119069569Y-87546071D01*
X119069569Y-87546071D02*
X119212427Y-87474642D01*
X119212427Y-87474642D02*
X119283855Y-87403214D01*
X119283855Y-87403214D02*
X119355284Y-87260357D01*
X119355284Y-87260357D02*
X119426712Y-86974642D01*
X119426712Y-86974642D02*
X119426712Y-86617500D01*
X119426712Y-86617500D02*
X119355284Y-86331785D01*
X119355284Y-86331785D02*
X119283855Y-86188928D01*
X119283855Y-86188928D02*
X119212427Y-86117500D01*
X119212427Y-86117500D02*
X119069569Y-86046071D01*
X118069570Y-86046071D02*
X117140998Y-86046071D01*
X117140998Y-86046071D02*
X117640998Y-86617500D01*
X117640998Y-86617500D02*
X117426713Y-86617500D01*
X117426713Y-86617500D02*
X117283856Y-86688928D01*
X117283856Y-86688928D02*
X117212427Y-86760357D01*
X117212427Y-86760357D02*
X117140998Y-86903214D01*
X117140998Y-86903214D02*
X117140998Y-87260357D01*
X117140998Y-87260357D02*
X117212427Y-87403214D01*
X117212427Y-87403214D02*
X117283856Y-87474642D01*
X117283856Y-87474642D02*
X117426713Y-87546071D01*
X117426713Y-87546071D02*
X117855284Y-87546071D01*
X117855284Y-87546071D02*
X117998141Y-87474642D01*
X117998141Y-87474642D02*
X118069570Y-87403214D01*
X116498142Y-86974642D02*
X115355285Y-86974642D01*
X114355284Y-86046071D02*
X114212427Y-86046071D01*
X114212427Y-86046071D02*
X114069570Y-86117500D01*
X114069570Y-86117500D02*
X113998142Y-86188928D01*
X113998142Y-86188928D02*
X113926713Y-86331785D01*
X113926713Y-86331785D02*
X113855284Y-86617500D01*
X113855284Y-86617500D02*
X113855284Y-86974642D01*
X113855284Y-86974642D02*
X113926713Y-87260357D01*
X113926713Y-87260357D02*
X113998142Y-87403214D01*
X113998142Y-87403214D02*
X114069570Y-87474642D01*
X114069570Y-87474642D02*
X114212427Y-87546071D01*
X114212427Y-87546071D02*
X114355284Y-87546071D01*
X114355284Y-87546071D02*
X114498142Y-87474642D01*
X114498142Y-87474642D02*
X114569570Y-87403214D01*
X114569570Y-87403214D02*
X114640999Y-87260357D01*
X114640999Y-87260357D02*
X114712427Y-86974642D01*
X114712427Y-86974642D02*
X114712427Y-86617500D01*
X114712427Y-86617500D02*
X114640999Y-86331785D01*
X114640999Y-86331785D02*
X114569570Y-86188928D01*
X114569570Y-86188928D02*
X114498142Y-86117500D01*
X114498142Y-86117500D02*
X114355284Y-86046071D01*
X112426713Y-87546071D02*
X113283856Y-87546071D01*
X112855285Y-87546071D02*
X112855285Y-86046071D01*
X112855285Y-86046071D02*
X112998142Y-86260357D01*
X112998142Y-86260357D02*
X113140999Y-86403214D01*
X113140999Y-86403214D02*
X113283856Y-86474642D01*
%TO.C,JITX1*%
G36*
X136614696Y-106907023D02*
G01*
X135739792Y-108995598D01*
X133927096Y-108995368D01*
X135388227Y-105234076D01*
X136614696Y-106907023D01*
G37*
G36*
X141251933Y-102078843D02*
G01*
X142468676Y-108995547D01*
X141420036Y-108995521D01*
X140578240Y-104211460D01*
X139188094Y-104209411D01*
X138999813Y-103128738D01*
X140386810Y-103128149D01*
X140203779Y-102078766D01*
X141251933Y-102078843D01*
G37*
G36*
X133767452Y-101617568D02*
G01*
X134085186Y-101630538D01*
X134393327Y-101709102D01*
X134678484Y-101849847D01*
X134928263Y-102046656D01*
X136018789Y-103610862D01*
X135388227Y-105234076D01*
X133105806Y-102155173D01*
X132859189Y-101924788D01*
X132568593Y-101753176D01*
X132247764Y-101648455D01*
X131911882Y-101615580D01*
X133767452Y-101617568D01*
G37*
G36*
X137335247Y-105313386D02*
G01*
X139697877Y-108431322D01*
X140029357Y-108707010D01*
X140415656Y-108898467D01*
X140835785Y-108995291D01*
X138954772Y-108995022D01*
X138621990Y-108958913D01*
X138305105Y-108851061D01*
X138019390Y-108676662D01*
X137778614Y-108444123D01*
X136614696Y-106907023D01*
X135388227Y-105234076D01*
X136018789Y-103610862D01*
X136791659Y-101621316D01*
X138720171Y-101619575D01*
X137335247Y-105313386D01*
G37*
G36*
X145809683Y-109192886D02*
G01*
X145964402Y-109568370D01*
X146194816Y-109902789D01*
X146490565Y-110181104D01*
X146838349Y-110390801D01*
X147222530Y-110522449D01*
X147625833Y-110570130D01*
X147799692Y-111615596D01*
X147111907Y-111494624D01*
X146462889Y-111236827D01*
X145879554Y-110852895D01*
X145386093Y-110358750D01*
X145002968Y-109774885D01*
X144746069Y-109125511D01*
X143801671Y-103747967D01*
X144851438Y-103747915D01*
X145809683Y-109192886D01*
G37*
G36*
X143065859Y-102481191D02*
G01*
X143099674Y-102569063D01*
X143115697Y-102661846D01*
X143113310Y-102755972D01*
X143092607Y-102847823D01*
X143054382Y-102933871D01*
X143000104Y-103010808D01*
X142931860Y-103075678D01*
X142852272Y-103125987D01*
X142852271Y-103125987D01*
X142730919Y-103152664D01*
X142606683Y-103154546D01*
X142484577Y-103131559D01*
X142369530Y-103084629D01*
X142266185Y-103015652D01*
X142178712Y-102927410D01*
X142110642Y-102823465D01*
X142110643Y-102823465D01*
X142056407Y-102732285D01*
X142023821Y-102631322D01*
X142014518Y-102525639D01*
X142028964Y-102420537D01*
X142066437Y-102321284D01*
X142125055Y-102232857D01*
X142201881Y-102159692D01*
X142320238Y-102104724D01*
X142448105Y-102078648D01*
X142602682Y-102096681D01*
X142749040Y-102149581D01*
X142879425Y-102234543D01*
X142986930Y-102347067D01*
X143065859Y-102481191D01*
G37*
G36*
X143595646Y-103750781D02*
G01*
X143506089Y-103773308D01*
X143423686Y-103814994D01*
X143352478Y-103873793D01*
X143295957Y-103946822D01*
X143256895Y-104030501D01*
X143237208Y-104120725D01*
X143237861Y-104213069D01*
X143989337Y-108573894D01*
X143984185Y-108653338D01*
X143963634Y-108730250D01*
X143928473Y-108801675D01*
X143880053Y-108864869D01*
X143820236Y-108917402D01*
X143751318Y-108957255D01*
X143675950Y-108982898D01*
X143597028Y-108993345D01*
X142690756Y-108991475D01*
X142777723Y-108968137D01*
X142857317Y-108926032D01*
X142925545Y-108867271D01*
X142978987Y-108794801D01*
X143014964Y-108712256D01*
X143031670Y-108623775D01*
X143028269Y-108533795D01*
X142282419Y-104223239D01*
X142282046Y-104127452D01*
X142302997Y-104033983D01*
X142344222Y-103947521D01*
X142403652Y-103872399D01*
X142478309Y-103812386D01*
X142564448Y-103770490D01*
X142657751Y-103748812D01*
X143595646Y-103750781D01*
G37*
%TD*%
%LPC*%
%TO.C,J2*%
G36*
X160324087Y-117632199D02*
G01*
X160394436Y-117653539D01*
X160459269Y-117688193D01*
X160516097Y-117734830D01*
X160562734Y-117791658D01*
X160597388Y-117856491D01*
X160618728Y-117926840D01*
X160625933Y-118000000D01*
X160618728Y-118073160D01*
X160597388Y-118143509D01*
X160562734Y-118208342D01*
X160516097Y-118265170D01*
X160459269Y-118311807D01*
X160394436Y-118346461D01*
X160324087Y-118367801D01*
X160250927Y-118375007D01*
X160177767Y-118367801D01*
X160107418Y-118346461D01*
X160042585Y-118311807D01*
X159985757Y-118265170D01*
X159939120Y-118208342D01*
X159904466Y-118143509D01*
X159883126Y-118073160D01*
X159875921Y-118000000D01*
X159883126Y-117926840D01*
X159904466Y-117856491D01*
X159939120Y-117791658D01*
X159985757Y-117734830D01*
X160042585Y-117688193D01*
X160107418Y-117653539D01*
X160177767Y-117632199D01*
X160250927Y-117624993D01*
X160324087Y-117632199D01*
G37*
G36*
X167858356Y-117463096D02*
G01*
X167961535Y-117494395D01*
X168056625Y-117545221D01*
X168139972Y-117613622D01*
X168208373Y-117696969D01*
X168259199Y-117792059D01*
X168290498Y-117895238D01*
X168301067Y-118002540D01*
X168290498Y-118109842D01*
X168259199Y-118213021D01*
X168208373Y-118308111D01*
X168139972Y-118391458D01*
X168056625Y-118459859D01*
X167961535Y-118510685D01*
X167858356Y-118541984D01*
X167751054Y-118552553D01*
X167643752Y-118541984D01*
X167540573Y-118510685D01*
X167445483Y-118459859D01*
X167362136Y-118391458D01*
X167293735Y-118308111D01*
X167242909Y-118213021D01*
X167211610Y-118109842D01*
X167201042Y-118002540D01*
X167211610Y-117895238D01*
X167242909Y-117792059D01*
X167293735Y-117696969D01*
X167362136Y-117613622D01*
X167445483Y-117545221D01*
X167540573Y-117494395D01*
X167643752Y-117463096D01*
X167751054Y-117452527D01*
X167858356Y-117463096D01*
G37*
%TO.C,U22*%
G36*
X168910917Y-125235547D02*
G01*
X169257964Y-125340823D01*
X169577805Y-125511781D01*
X169858148Y-125741852D01*
X170088219Y-126022195D01*
X170259177Y-126342036D01*
X170364453Y-126689083D01*
X170400000Y-127050000D01*
X170364453Y-127410917D01*
X170259177Y-127757964D01*
X170088219Y-128077805D01*
X169858148Y-128358148D01*
X169577805Y-128588219D01*
X169257964Y-128759177D01*
X168910917Y-128864453D01*
X168550000Y-128900000D01*
X168189083Y-128864453D01*
X167842036Y-128759177D01*
X167522195Y-128588219D01*
X167241852Y-128358148D01*
X167011781Y-128077805D01*
X166840823Y-127757964D01*
X166735547Y-127410917D01*
X166700000Y-127050000D01*
X166735547Y-126689083D01*
X166840823Y-126342036D01*
X167011781Y-126022195D01*
X167241852Y-125741852D01*
X167522195Y-125511781D01*
X167842036Y-125340823D01*
X168189083Y-125235547D01*
X168550000Y-125200000D01*
X168910917Y-125235547D01*
G37*
%TO.C,U19*%
G36*
X110810917Y-87135547D02*
G01*
X111157964Y-87240823D01*
X111477805Y-87411781D01*
X111758148Y-87641852D01*
X111988219Y-87922195D01*
X112159177Y-88242036D01*
X112264453Y-88589083D01*
X112300000Y-88950000D01*
X112264453Y-89310917D01*
X112159177Y-89657964D01*
X111988219Y-89977805D01*
X111758148Y-90258148D01*
X111477805Y-90488219D01*
X111157964Y-90659177D01*
X110810917Y-90764453D01*
X110450000Y-90800000D01*
X110089083Y-90764453D01*
X109742036Y-90659177D01*
X109422195Y-90488219D01*
X109141852Y-90258148D01*
X108911781Y-89977805D01*
X108740823Y-89657964D01*
X108635547Y-89310917D01*
X108600000Y-88950000D01*
X108635547Y-88589083D01*
X108740823Y-88242036D01*
X108911781Y-87922195D01*
X109141852Y-87641852D01*
X109422195Y-87411781D01*
X109742036Y-87240823D01*
X110089083Y-87135547D01*
X110450000Y-87100000D01*
X110810917Y-87135547D01*
G37*
%TO.C,U21*%
G36*
X110810917Y-125235547D02*
G01*
X111157964Y-125340823D01*
X111477805Y-125511781D01*
X111758148Y-125741852D01*
X111988219Y-126022195D01*
X112159177Y-126342036D01*
X112264453Y-126689083D01*
X112300000Y-127050000D01*
X112264453Y-127410917D01*
X112159177Y-127757964D01*
X111988219Y-128077805D01*
X111758148Y-128358148D01*
X111477805Y-128588219D01*
X111157964Y-128759177D01*
X110810917Y-128864453D01*
X110450000Y-128900000D01*
X110089083Y-128864453D01*
X109742036Y-128759177D01*
X109422195Y-128588219D01*
X109141852Y-128358148D01*
X108911781Y-128077805D01*
X108740823Y-127757964D01*
X108635547Y-127410917D01*
X108600000Y-127050000D01*
X108635547Y-126689083D01*
X108740823Y-126342036D01*
X108911781Y-126022195D01*
X109141852Y-125741852D01*
X109422195Y-125511781D01*
X109742036Y-125340823D01*
X110089083Y-125235547D01*
X110450000Y-125200000D01*
X110810917Y-125235547D01*
G37*
%TO.C,J1*%
G36*
X111324087Y-117632199D02*
G01*
X111394436Y-117653539D01*
X111459269Y-117688193D01*
X111516097Y-117734830D01*
X111562734Y-117791658D01*
X111597388Y-117856491D01*
X111618728Y-117926840D01*
X111625933Y-118000000D01*
X111618728Y-118073160D01*
X111597388Y-118143509D01*
X111562734Y-118208342D01*
X111516097Y-118265170D01*
X111459269Y-118311807D01*
X111394436Y-118346461D01*
X111324087Y-118367801D01*
X111250927Y-118375007D01*
X111177767Y-118367801D01*
X111107418Y-118346461D01*
X111042585Y-118311807D01*
X110985757Y-118265170D01*
X110939120Y-118208342D01*
X110904466Y-118143509D01*
X110883126Y-118073160D01*
X110875921Y-118000000D01*
X110883126Y-117926840D01*
X110904466Y-117856491D01*
X110939120Y-117791658D01*
X110985757Y-117734830D01*
X111042585Y-117688193D01*
X111107418Y-117653539D01*
X111177767Y-117632199D01*
X111250927Y-117624993D01*
X111324087Y-117632199D01*
G37*
G36*
X118858356Y-117463096D02*
G01*
X118961535Y-117494395D01*
X119056625Y-117545221D01*
X119139972Y-117613622D01*
X119208373Y-117696969D01*
X119259199Y-117792059D01*
X119290498Y-117895238D01*
X119301067Y-118002540D01*
X119290498Y-118109842D01*
X119259199Y-118213021D01*
X119208373Y-118308111D01*
X119139972Y-118391458D01*
X119056625Y-118459859D01*
X118961535Y-118510685D01*
X118858356Y-118541984D01*
X118751054Y-118552553D01*
X118643752Y-118541984D01*
X118540573Y-118510685D01*
X118445483Y-118459859D01*
X118362136Y-118391458D01*
X118293735Y-118308111D01*
X118242909Y-118213021D01*
X118211610Y-118109842D01*
X118201042Y-118002540D01*
X118211610Y-117895238D01*
X118242909Y-117792059D01*
X118293735Y-117696969D01*
X118362136Y-117613622D01*
X118445483Y-117545221D01*
X118540573Y-117494395D01*
X118643752Y-117463096D01*
X118751054Y-117452527D01*
X118858356Y-117463096D01*
G37*
%TO.C,U20*%
G36*
X168910917Y-87135547D02*
G01*
X169257964Y-87240823D01*
X169577805Y-87411781D01*
X169858148Y-87641852D01*
X170088219Y-87922195D01*
X170259177Y-88242036D01*
X170364453Y-88589083D01*
X170400000Y-88950000D01*
X170364453Y-89310917D01*
X170259177Y-89657964D01*
X170088219Y-89977805D01*
X169858148Y-90258148D01*
X169577805Y-90488219D01*
X169257964Y-90659177D01*
X168910917Y-90764453D01*
X168550000Y-90800000D01*
X168189083Y-90764453D01*
X167842036Y-90659177D01*
X167522195Y-90488219D01*
X167241852Y-90258148D01*
X167011781Y-89977805D01*
X166840823Y-89657964D01*
X166735547Y-89310917D01*
X166700000Y-88950000D01*
X166735547Y-88589083D01*
X166840823Y-88242036D01*
X167011781Y-87922195D01*
X167241852Y-87641852D01*
X167522195Y-87411781D01*
X167842036Y-87240823D01*
X168189083Y-87135547D01*
X168550000Y-87100000D01*
X168910917Y-87135547D01*
G37*
%TD*%
D11*
%TO.C,J2*%
X160250927Y-118000000D03*
D12*
X167751054Y-118002540D03*
D13*
X166401041Y-115849886D03*
X161600940Y-115849886D03*
X161600940Y-120150114D03*
X166401041Y-120150114D03*
%TD*%
D14*
%TO.C,U22*%
X168550000Y-127050000D03*
%TD*%
%TO.C,U19*%
X110450000Y-88950000D03*
%TD*%
%TO.C,U21*%
X110450000Y-127050000D03*
%TD*%
D11*
%TO.C,J1*%
X111250927Y-118000000D03*
D12*
X118751054Y-118002540D03*
D13*
X117401041Y-115849886D03*
X112600940Y-115849886D03*
X112600940Y-120150114D03*
X117401041Y-120150114D03*
%TD*%
D14*
%TO.C,U20*%
X168550000Y-88950000D03*
%TD*%
M02*
