%TF.GenerationSoftware,KiCad,Pcbnew,6.0.10-86aedd382b~118~ubuntu20.04.1*%
%TF.CreationDate,2023-02-21T15:58:45-08:00*%
%TF.ProjectId,CAD,4341442e-6b69-4636-9164-5f7063625858,rev?*%
%TF.SameCoordinates,Original*%
%TF.FileFunction,Copper,L2,Bot*%
%TF.FilePolarity,Positive*%
%FSLAX46Y46*%
G04 Gerber Fmt 4.6, Leading zero omitted, Abs format (unit mm)*
G04 Created by KiCad (PCBNEW 6.0.10-86aedd382b~118~ubuntu20.04.1) date 2023-02-21 15:58:45*
%MOMM*%
%LPD*%
G01*
G04 APERTURE LIST*
%TA.AperFunction,ComponentPad*%
%ADD10C,1.000000*%
%TD*%
%TA.AperFunction,ViaPad*%
%ADD11C,0.600000*%
%TD*%
%TA.AperFunction,Conductor*%
%ADD12C,0.200000*%
%TD*%
G04 APERTURE END LIST*
D10*
%TO.P,J2,25,usb-c-pinout_shield*%
%TO.N,Net-(J2-Pad25)*%
X166401041Y-115849886D03*
%TO.P,J2,26,usb-c-pinout_shield*%
X161600940Y-115849886D03*
%TO.P,J2,27,usb-c-pinout_shield*%
X161600940Y-120150114D03*
%TO.P,J2,28,usb-c-pinout_shield*%
X166401041Y-120150114D03*
%TD*%
%TO.P,J1,25,usb-c-pinout_shield*%
%TO.N,/2: /POWER*%
X117401041Y-115849886D03*
%TO.P,J1,26,usb-c-pinout_shield*%
X112600940Y-115849886D03*
%TO.P,J1,27,usb-c-pinout_shield*%
X112600940Y-120150114D03*
%TO.P,J1,28,usb-c-pinout_shield*%
X117401041Y-120150114D03*
%TD*%
D11*
%TO.N,Net-(J2-Pad25)*%
X161417000Y-121031000D03*
X166624000Y-121031000D03*
X166370000Y-114808000D03*
X161163000Y-114808000D03*
%TO.N,/2: /GND-usb*%
X159893000Y-116967000D03*
X159258000Y-118745000D03*
X168529000Y-119126000D03*
X168148000Y-116840000D03*
%TO.N,Net-(B1-Pad2)*%
X152654000Y-93853000D03*
X136906000Y-88900000D03*
X125476000Y-112649000D03*
X147955000Y-89027000D03*
X137414000Y-100584000D03*
X139573000Y-98298000D03*
X131445000Y-106426000D03*
X120142000Y-117983000D03*
X132715000Y-94869000D03*
%TD*%
D12*
%TO.N,Net-(J2-Pad25)*%
X169926000Y-117348000D02*
X169926000Y-119888000D01*
X166370000Y-114808000D02*
X167386000Y-114808000D01*
X169663886Y-120150114D02*
X166401041Y-120150114D01*
X160147000Y-114808000D02*
X157861000Y-117094000D01*
X161163000Y-114808000D02*
X166370000Y-114808000D01*
X157861000Y-119253000D02*
X158758114Y-120150114D01*
X167386000Y-114808000D02*
X169926000Y-117348000D01*
X158758114Y-120150114D02*
X161600940Y-120150114D01*
X169926000Y-119888000D02*
X169663886Y-120150114D01*
X161417000Y-121031000D02*
X166624000Y-121031000D01*
X161163000Y-114808000D02*
X160147000Y-114808000D01*
X157861000Y-117094000D02*
X157861000Y-119253000D01*
%TO.N,/2: /GND-usb*%
X168529000Y-119126000D02*
X159639000Y-119126000D01*
X168021000Y-116967000D02*
X168148000Y-116840000D01*
X159639000Y-119126000D02*
X159258000Y-118745000D01*
X159893000Y-116967000D02*
X168021000Y-116967000D01*
%TD*%
%TA.AperFunction,Conductor*%
%TO.N,Net-(B1-Pad2)*%
G36*
X171433621Y-86028502D02*
G01*
X171480114Y-86082158D01*
X171491500Y-86134500D01*
X171491500Y-129865500D01*
X171471498Y-129933621D01*
X171417842Y-129980114D01*
X171365500Y-129991500D01*
X107634500Y-129991500D01*
X107566379Y-129971498D01*
X107519886Y-129917842D01*
X107508500Y-129865500D01*
X107508500Y-127050000D01*
X108786372Y-127050000D01*
X108806854Y-127310249D01*
X108808008Y-127315056D01*
X108808009Y-127315062D01*
X108846424Y-127475069D01*
X108867796Y-127564089D01*
X108967697Y-127805271D01*
X109104097Y-128027856D01*
X109273637Y-128226363D01*
X109472144Y-128395903D01*
X109694729Y-128532303D01*
X109699299Y-128534196D01*
X109699303Y-128534198D01*
X109931338Y-128630310D01*
X109935911Y-128632204D01*
X110024931Y-128653576D01*
X110184938Y-128691991D01*
X110184944Y-128691992D01*
X110189751Y-128693146D01*
X110280884Y-128700318D01*
X110382385Y-128708307D01*
X110382394Y-128708307D01*
X110384842Y-128708500D01*
X110515158Y-128708500D01*
X110517606Y-128708307D01*
X110517615Y-128708307D01*
X110619116Y-128700318D01*
X110710249Y-128693146D01*
X110715056Y-128691992D01*
X110715062Y-128691991D01*
X110875069Y-128653576D01*
X110964089Y-128632204D01*
X110968662Y-128630310D01*
X111200697Y-128534198D01*
X111200701Y-128534196D01*
X111205271Y-128532303D01*
X111427856Y-128395903D01*
X111626363Y-128226363D01*
X111795903Y-128027856D01*
X111932303Y-127805271D01*
X112032204Y-127564089D01*
X112053576Y-127475069D01*
X112091991Y-127315062D01*
X112091992Y-127315056D01*
X112093146Y-127310249D01*
X112113628Y-127050000D01*
X166886372Y-127050000D01*
X166906854Y-127310249D01*
X166908008Y-127315056D01*
X166908009Y-127315062D01*
X166946424Y-127475069D01*
X166967796Y-127564089D01*
X167067697Y-127805271D01*
X167204097Y-128027856D01*
X167373637Y-128226363D01*
X167572144Y-128395903D01*
X167794729Y-128532303D01*
X167799299Y-128534196D01*
X167799303Y-128534198D01*
X168031338Y-128630310D01*
X168035911Y-128632204D01*
X168124931Y-128653576D01*
X168284938Y-128691991D01*
X168284944Y-128691992D01*
X168289751Y-128693146D01*
X168380884Y-128700318D01*
X168482385Y-128708307D01*
X168482394Y-128708307D01*
X168484842Y-128708500D01*
X168615158Y-128708500D01*
X168617606Y-128708307D01*
X168617615Y-128708307D01*
X168719116Y-128700318D01*
X168810249Y-128693146D01*
X168815056Y-128691992D01*
X168815062Y-128691991D01*
X168975069Y-128653576D01*
X169064089Y-128632204D01*
X169068662Y-128630310D01*
X169300697Y-128534198D01*
X169300701Y-128534196D01*
X169305271Y-128532303D01*
X169527856Y-128395903D01*
X169726363Y-128226363D01*
X169895903Y-128027856D01*
X170032303Y-127805271D01*
X170132204Y-127564089D01*
X170153576Y-127475069D01*
X170191991Y-127315062D01*
X170191992Y-127315056D01*
X170193146Y-127310249D01*
X170213628Y-127050000D01*
X170193146Y-126789751D01*
X170191992Y-126784944D01*
X170191991Y-126784938D01*
X170133359Y-126540723D01*
X170132204Y-126535911D01*
X170032303Y-126294729D01*
X169895903Y-126072144D01*
X169726363Y-125873637D01*
X169527856Y-125704097D01*
X169305271Y-125567697D01*
X169300701Y-125565804D01*
X169300697Y-125565802D01*
X169068662Y-125469690D01*
X169068660Y-125469689D01*
X169064089Y-125467796D01*
X168975069Y-125446424D01*
X168815062Y-125408009D01*
X168815056Y-125408008D01*
X168810249Y-125406854D01*
X168719116Y-125399682D01*
X168617615Y-125391693D01*
X168617606Y-125391693D01*
X168615158Y-125391500D01*
X168484842Y-125391500D01*
X168482394Y-125391693D01*
X168482385Y-125391693D01*
X168380884Y-125399682D01*
X168289751Y-125406854D01*
X168284944Y-125408008D01*
X168284938Y-125408009D01*
X168124931Y-125446424D01*
X168035911Y-125467796D01*
X168031340Y-125469689D01*
X168031338Y-125469690D01*
X167799303Y-125565802D01*
X167799299Y-125565804D01*
X167794729Y-125567697D01*
X167572144Y-125704097D01*
X167373637Y-125873637D01*
X167204097Y-126072144D01*
X167067697Y-126294729D01*
X166967796Y-126535911D01*
X166966641Y-126540723D01*
X166908009Y-126784938D01*
X166908008Y-126784944D01*
X166906854Y-126789751D01*
X166886372Y-127050000D01*
X112113628Y-127050000D01*
X112093146Y-126789751D01*
X112091992Y-126784944D01*
X112091991Y-126784938D01*
X112033359Y-126540723D01*
X112032204Y-126535911D01*
X111932303Y-126294729D01*
X111795903Y-126072144D01*
X111626363Y-125873637D01*
X111427856Y-125704097D01*
X111205271Y-125567697D01*
X111200701Y-125565804D01*
X111200697Y-125565802D01*
X110968662Y-125469690D01*
X110968660Y-125469689D01*
X110964089Y-125467796D01*
X110875069Y-125446424D01*
X110715062Y-125408009D01*
X110715056Y-125408008D01*
X110710249Y-125406854D01*
X110619116Y-125399682D01*
X110517615Y-125391693D01*
X110517606Y-125391693D01*
X110515158Y-125391500D01*
X110384842Y-125391500D01*
X110382394Y-125391693D01*
X110382385Y-125391693D01*
X110280884Y-125399682D01*
X110189751Y-125406854D01*
X110184944Y-125408008D01*
X110184938Y-125408009D01*
X110024931Y-125446424D01*
X109935911Y-125467796D01*
X109931340Y-125469689D01*
X109931338Y-125469690D01*
X109699303Y-125565802D01*
X109699299Y-125565804D01*
X109694729Y-125567697D01*
X109472144Y-125704097D01*
X109273637Y-125873637D01*
X109104097Y-126072144D01*
X108967697Y-126294729D01*
X108867796Y-126535911D01*
X108866641Y-126540723D01*
X108808009Y-126784938D01*
X108808008Y-126784944D01*
X108806854Y-126789751D01*
X108786372Y-127050000D01*
X107508500Y-127050000D01*
X107508500Y-120135965D01*
X111587659Y-120135965D01*
X111588175Y-120142109D01*
X111600600Y-120290075D01*
X111604208Y-120333048D01*
X111658723Y-120523164D01*
X111661542Y-120528649D01*
X111737584Y-120676609D01*
X111749127Y-120699070D01*
X111871975Y-120854067D01*
X112022590Y-120982250D01*
X112195234Y-121078738D01*
X112383332Y-121139854D01*
X112579717Y-121163272D01*
X112585852Y-121162800D01*
X112585854Y-121162800D01*
X112770770Y-121148571D01*
X112770774Y-121148570D01*
X112776912Y-121148098D01*
X112967403Y-121094912D01*
X112972907Y-121092132D01*
X112972909Y-121092131D01*
X113138435Y-121008518D01*
X113138437Y-121008517D01*
X113143936Y-121005739D01*
X113299787Y-120883975D01*
X113407995Y-120758615D01*
X113424989Y-120738927D01*
X113424990Y-120738925D01*
X113429018Y-120734259D01*
X113526709Y-120562293D01*
X113589137Y-120374627D01*
X113613925Y-120178409D01*
X113614320Y-120150114D01*
X113612933Y-120135965D01*
X116387760Y-120135965D01*
X116388276Y-120142109D01*
X116400701Y-120290075D01*
X116404309Y-120333048D01*
X116458824Y-120523164D01*
X116461643Y-120528649D01*
X116537685Y-120676609D01*
X116549228Y-120699070D01*
X116672076Y-120854067D01*
X116822691Y-120982250D01*
X116995335Y-121078738D01*
X117183433Y-121139854D01*
X117379818Y-121163272D01*
X117385953Y-121162800D01*
X117385955Y-121162800D01*
X117570871Y-121148571D01*
X117570875Y-121148570D01*
X117577013Y-121148098D01*
X117767504Y-121094912D01*
X117773008Y-121092132D01*
X117773010Y-121092131D01*
X117938536Y-121008518D01*
X117938538Y-121008517D01*
X117944037Y-121005739D01*
X118099888Y-120883975D01*
X118208096Y-120758615D01*
X118225090Y-120738927D01*
X118225091Y-120738925D01*
X118229119Y-120734259D01*
X118326810Y-120562293D01*
X118389238Y-120374627D01*
X118414026Y-120178409D01*
X118414421Y-120150114D01*
X118395121Y-119953281D01*
X118387454Y-119927885D01*
X118339738Y-119769845D01*
X118337957Y-119763945D01*
X118245107Y-119589318D01*
X118170550Y-119497902D01*
X118124001Y-119440827D01*
X118123998Y-119440824D01*
X118120106Y-119436052D01*
X118113765Y-119430806D01*
X117972466Y-119313913D01*
X117972462Y-119313911D01*
X117967716Y-119309984D01*
X117862327Y-119253000D01*
X157247250Y-119253000D01*
X157252500Y-119292880D01*
X157252500Y-119292885D01*
X157260872Y-119356476D01*
X157268162Y-119411851D01*
X157329476Y-119559876D01*
X157334503Y-119566427D01*
X157334504Y-119566429D01*
X157402520Y-119655069D01*
X157402526Y-119655075D01*
X157427013Y-119686987D01*
X157433568Y-119692017D01*
X157452379Y-119706452D01*
X157464770Y-119717319D01*
X158293799Y-120546348D01*
X158304666Y-120558739D01*
X158324127Y-120584101D01*
X158330677Y-120589127D01*
X158356035Y-120608585D01*
X158356051Y-120608599D01*
X158405419Y-120646480D01*
X158451238Y-120681638D01*
X158599263Y-120742952D01*
X158607450Y-120744030D01*
X158607451Y-120744030D01*
X158618656Y-120745505D01*
X158649852Y-120749612D01*
X158718229Y-120758614D01*
X158718232Y-120758614D01*
X158718240Y-120758615D01*
X158749925Y-120762786D01*
X158758114Y-120763864D01*
X158789807Y-120759692D01*
X158806250Y-120758614D01*
X160493520Y-120758614D01*
X160561641Y-120778616D01*
X160608134Y-120832272D01*
X160618526Y-120900406D01*
X160603463Y-121019640D01*
X160621163Y-121200160D01*
X160678418Y-121372273D01*
X160682065Y-121378295D01*
X160682066Y-121378297D01*
X160692978Y-121396314D01*
X160772380Y-121527424D01*
X160898382Y-121657902D01*
X161050159Y-121757222D01*
X161056763Y-121759678D01*
X161056765Y-121759679D01*
X161213558Y-121817990D01*
X161213560Y-121817990D01*
X161220168Y-121820448D01*
X161303995Y-121831633D01*
X161392980Y-121843507D01*
X161392984Y-121843507D01*
X161399961Y-121844438D01*
X161406972Y-121843800D01*
X161406976Y-121843800D01*
X161549459Y-121830832D01*
X161580600Y-121827998D01*
X161587302Y-121825820D01*
X161587304Y-121825820D01*
X161746409Y-121774124D01*
X161746412Y-121774123D01*
X161753108Y-121771947D01*
X161908912Y-121679069D01*
X161914013Y-121674212D01*
X161919626Y-121669951D01*
X161920385Y-121670952D01*
X161977090Y-121641762D01*
X162000860Y-121639500D01*
X166039699Y-121639500D01*
X166108692Y-121660068D01*
X166125325Y-121670952D01*
X166257159Y-121757222D01*
X166263763Y-121759678D01*
X166263765Y-121759679D01*
X166420558Y-121817990D01*
X166420560Y-121817990D01*
X166427168Y-121820448D01*
X166510995Y-121831633D01*
X166599980Y-121843507D01*
X166599984Y-121843507D01*
X166606961Y-121844438D01*
X166613972Y-121843800D01*
X166613976Y-121843800D01*
X166756459Y-121830832D01*
X166787600Y-121827998D01*
X166794302Y-121825820D01*
X166794304Y-121825820D01*
X166953409Y-121774124D01*
X166953412Y-121774123D01*
X166960108Y-121771947D01*
X167115912Y-121679069D01*
X167247266Y-121553982D01*
X167347643Y-121402902D01*
X167412055Y-121233338D01*
X167413035Y-121226366D01*
X167436748Y-121057639D01*
X167436748Y-121057636D01*
X167437299Y-121053717D01*
X167437616Y-121031000D01*
X167422771Y-120898658D01*
X167435055Y-120828734D01*
X167483194Y-120776549D01*
X167547986Y-120758614D01*
X169615750Y-120758614D01*
X169632193Y-120759692D01*
X169663886Y-120763864D01*
X169672075Y-120762786D01*
X169703760Y-120758615D01*
X169703770Y-120758614D01*
X169703771Y-120758614D01*
X169703787Y-120758612D01*
X169803343Y-120745505D01*
X169814550Y-120744030D01*
X169814552Y-120744029D01*
X169822737Y-120742952D01*
X169970762Y-120681638D01*
X170065948Y-120608599D01*
X170065955Y-120608594D01*
X170065961Y-120608588D01*
X170091320Y-120589129D01*
X170097873Y-120584101D01*
X170110492Y-120567656D01*
X170117338Y-120558735D01*
X170128205Y-120546344D01*
X170322234Y-120352315D01*
X170334625Y-120341448D01*
X170353437Y-120327013D01*
X170359987Y-120321987D01*
X170384474Y-120290075D01*
X170384480Y-120290069D01*
X170452496Y-120201429D01*
X170452497Y-120201427D01*
X170457524Y-120194876D01*
X170482921Y-120133562D01*
X170518838Y-120046850D01*
X170534500Y-119927885D01*
X170534500Y-119927878D01*
X170539750Y-119888000D01*
X170535578Y-119856307D01*
X170534500Y-119839864D01*
X170534500Y-117396136D01*
X170535578Y-117379690D01*
X170537778Y-117362982D01*
X170539750Y-117348000D01*
X170534500Y-117308122D01*
X170534500Y-117308115D01*
X170518838Y-117189150D01*
X170457524Y-117041125D01*
X170425086Y-116998851D01*
X170384477Y-116945928D01*
X170384474Y-116945925D01*
X170359987Y-116914013D01*
X170353432Y-116908983D01*
X170334621Y-116894548D01*
X170322230Y-116883681D01*
X167850315Y-114411766D01*
X167839448Y-114399375D01*
X167825013Y-114380563D01*
X167819987Y-114374013D01*
X167788075Y-114349526D01*
X167788072Y-114349523D01*
X167692876Y-114276476D01*
X167544851Y-114215162D01*
X167536664Y-114214084D01*
X167536663Y-114214084D01*
X167525458Y-114212609D01*
X167494262Y-114208502D01*
X167425885Y-114199500D01*
X167425882Y-114199500D01*
X167425874Y-114199499D01*
X167394189Y-114195328D01*
X167386000Y-114194250D01*
X167354307Y-114198422D01*
X167337864Y-114199500D01*
X166954751Y-114199500D01*
X166886630Y-114179498D01*
X166882157Y-114176276D01*
X166879815Y-114173918D01*
X166868697Y-114166862D01*
X166820538Y-114136300D01*
X166726666Y-114076727D01*
X166697463Y-114066328D01*
X166562425Y-114018243D01*
X166562420Y-114018242D01*
X166555790Y-114015881D01*
X166548802Y-114015048D01*
X166548799Y-114015047D01*
X166425698Y-114000368D01*
X166375680Y-113994404D01*
X166368677Y-113995140D01*
X166368676Y-113995140D01*
X166202288Y-114012628D01*
X166202286Y-114012629D01*
X166195288Y-114013364D01*
X166023579Y-114071818D01*
X165869088Y-114166862D01*
X165864054Y-114171791D01*
X165862776Y-114172790D01*
X165796782Y-114198967D01*
X165785204Y-114199500D01*
X161747751Y-114199500D01*
X161679630Y-114179498D01*
X161675157Y-114176276D01*
X161672815Y-114173918D01*
X161661697Y-114166862D01*
X161613538Y-114136300D01*
X161519666Y-114076727D01*
X161490463Y-114066328D01*
X161355425Y-114018243D01*
X161355420Y-114018242D01*
X161348790Y-114015881D01*
X161341802Y-114015048D01*
X161341799Y-114015047D01*
X161218698Y-114000368D01*
X161168680Y-113994404D01*
X161161677Y-113995140D01*
X161161676Y-113995140D01*
X160995288Y-114012628D01*
X160995286Y-114012629D01*
X160988288Y-114013364D01*
X160816579Y-114071818D01*
X160662088Y-114166862D01*
X160657054Y-114171791D01*
X160655776Y-114172790D01*
X160589782Y-114198967D01*
X160578204Y-114199500D01*
X160195136Y-114199500D01*
X160178690Y-114198422D01*
X160155188Y-114195328D01*
X160147000Y-114194250D01*
X160138812Y-114195328D01*
X160107129Y-114199499D01*
X160107120Y-114199500D01*
X160107115Y-114199500D01*
X159988150Y-114215162D01*
X159980523Y-114218321D01*
X159980520Y-114218322D01*
X159901438Y-114251079D01*
X159840124Y-114276476D01*
X159744928Y-114349523D01*
X159744925Y-114349526D01*
X159713013Y-114374013D01*
X159707983Y-114380568D01*
X159693548Y-114399379D01*
X159682681Y-114411770D01*
X157464766Y-116629685D01*
X157452375Y-116640552D01*
X157427013Y-116660013D01*
X157402526Y-116691925D01*
X157402523Y-116691928D01*
X157402517Y-116691936D01*
X157334625Y-116780414D01*
X157329476Y-116787124D01*
X157308518Y-116837722D01*
X157298029Y-116863044D01*
X157279001Y-116908983D01*
X157268162Y-116935150D01*
X157267084Y-116943338D01*
X157264362Y-116964012D01*
X157252500Y-117054115D01*
X157252500Y-117054120D01*
X157247250Y-117094000D01*
X157250741Y-117120514D01*
X157251422Y-117125690D01*
X157252500Y-117142136D01*
X157252500Y-119204864D01*
X157251422Y-119221307D01*
X157247250Y-119253000D01*
X117862327Y-119253000D01*
X117793742Y-119215916D01*
X117604809Y-119157432D01*
X117598684Y-119156788D01*
X117598683Y-119156788D01*
X117414245Y-119137403D01*
X117414243Y-119137403D01*
X117408116Y-119136759D01*
X117325617Y-119144267D01*
X117217292Y-119154125D01*
X117217289Y-119154126D01*
X117211153Y-119154684D01*
X117205247Y-119156422D01*
X117205243Y-119156423D01*
X117100117Y-119187363D01*
X117021422Y-119210524D01*
X117015964Y-119213377D01*
X117015960Y-119213379D01*
X117000790Y-119221310D01*
X116846151Y-119302154D01*
X116692016Y-119426082D01*
X116564887Y-119577588D01*
X116561920Y-119582986D01*
X116561916Y-119582991D01*
X116494044Y-119706452D01*
X116469608Y-119750901D01*
X116467747Y-119756768D01*
X116467746Y-119756770D01*
X116413467Y-119927878D01*
X116409806Y-119939420D01*
X116387760Y-120135965D01*
X113612933Y-120135965D01*
X113595020Y-119953281D01*
X113587353Y-119927885D01*
X113539637Y-119769845D01*
X113537856Y-119763945D01*
X113445006Y-119589318D01*
X113370449Y-119497902D01*
X113323900Y-119440827D01*
X113323897Y-119440824D01*
X113320005Y-119436052D01*
X113313664Y-119430806D01*
X113172365Y-119313913D01*
X113172361Y-119313911D01*
X113167615Y-119309984D01*
X112993641Y-119215916D01*
X112804708Y-119157432D01*
X112798583Y-119156788D01*
X112798582Y-119156788D01*
X112614144Y-119137403D01*
X112614142Y-119137403D01*
X112608015Y-119136759D01*
X112525516Y-119144267D01*
X112417191Y-119154125D01*
X112417188Y-119154126D01*
X112411052Y-119154684D01*
X112405146Y-119156422D01*
X112405142Y-119156423D01*
X112300016Y-119187363D01*
X112221321Y-119210524D01*
X112215863Y-119213377D01*
X112215859Y-119213379D01*
X112200689Y-119221310D01*
X112046050Y-119302154D01*
X111891915Y-119426082D01*
X111764786Y-119577588D01*
X111761819Y-119582986D01*
X111761815Y-119582991D01*
X111693943Y-119706452D01*
X111669507Y-119750901D01*
X111667646Y-119756768D01*
X111667645Y-119756770D01*
X111613366Y-119927878D01*
X111609705Y-119939420D01*
X111587659Y-120135965D01*
X107508500Y-120135965D01*
X107508500Y-118092860D01*
X110367421Y-118092860D01*
X110368793Y-118099313D01*
X110368793Y-118099317D01*
X110385044Y-118175771D01*
X110406034Y-118274522D01*
X110408719Y-118280552D01*
X110408719Y-118280553D01*
X110473887Y-118426922D01*
X110481573Y-118444186D01*
X110485453Y-118449527D01*
X110485454Y-118449528D01*
X110567228Y-118562080D01*
X110590737Y-118594438D01*
X110595647Y-118598859D01*
X110595648Y-118598860D01*
X110619820Y-118620624D01*
X110728754Y-118718709D01*
X110889593Y-118811569D01*
X110895879Y-118813611D01*
X110895878Y-118813611D01*
X111059945Y-118866920D01*
X111059947Y-118866920D01*
X111066224Y-118868960D01*
X111072787Y-118869650D01*
X111072788Y-118869650D01*
X111096984Y-118872193D01*
X111204620Y-118883506D01*
X111297234Y-118883506D01*
X111404870Y-118872193D01*
X111429066Y-118869650D01*
X111429067Y-118869650D01*
X111435630Y-118868960D01*
X111441907Y-118866920D01*
X111441909Y-118866920D01*
X111605976Y-118813611D01*
X111605975Y-118813611D01*
X111612261Y-118811569D01*
X111773100Y-118718709D01*
X111882035Y-118620624D01*
X111906206Y-118598860D01*
X111906207Y-118598859D01*
X111911117Y-118594438D01*
X111939306Y-118555640D01*
X112016400Y-118449529D01*
X112016401Y-118449528D01*
X112020281Y-118444187D01*
X112040620Y-118398506D01*
X112093133Y-118280558D01*
X112093135Y-118280553D01*
X112095820Y-118274522D01*
X112103546Y-118238174D01*
X112133061Y-118099317D01*
X112133061Y-118099313D01*
X112134433Y-118092860D01*
X112134433Y-117995114D01*
X117687446Y-117995114D01*
X117695314Y-118081567D01*
X117702470Y-118160196D01*
X117706260Y-118201845D01*
X117707998Y-118207751D01*
X117707999Y-118207755D01*
X117746995Y-118340251D01*
X117764870Y-118400984D01*
X117861043Y-118584947D01*
X117991117Y-118746726D01*
X118150136Y-118880159D01*
X118155528Y-118883123D01*
X118155532Y-118883126D01*
X118252103Y-118936216D01*
X118332044Y-118980164D01*
X118529912Y-119042931D01*
X118536029Y-119043617D01*
X118536033Y-119043618D01*
X118612967Y-119052247D01*
X118691466Y-119061052D01*
X118803291Y-119061052D01*
X118806346Y-119060752D01*
X118806355Y-119060752D01*
X118877338Y-119053792D01*
X118957648Y-119045917D01*
X118963547Y-119044136D01*
X118963552Y-119044135D01*
X119106584Y-119000951D01*
X119156373Y-118985919D01*
X119172777Y-118977197D01*
X119334218Y-118891357D01*
X119334221Y-118891355D01*
X119339660Y-118888463D01*
X119500527Y-118757264D01*
X119632847Y-118597317D01*
X119635778Y-118591897D01*
X119728649Y-118420135D01*
X119728651Y-118420130D01*
X119731579Y-118414715D01*
X119792964Y-118216413D01*
X119814662Y-118009966D01*
X119805304Y-117907140D01*
X119796407Y-117809374D01*
X119796406Y-117809371D01*
X119795848Y-117803235D01*
X119793364Y-117794793D01*
X119738977Y-117610005D01*
X119737238Y-117604096D01*
X119641065Y-117420133D01*
X119510991Y-117258354D01*
X119351972Y-117124921D01*
X119346580Y-117121957D01*
X119346576Y-117121954D01*
X119175461Y-117027883D01*
X119170064Y-117024916D01*
X118972196Y-116962149D01*
X118966079Y-116961463D01*
X118966075Y-116961462D01*
X118889141Y-116952833D01*
X118810642Y-116944028D01*
X118698817Y-116944028D01*
X118695762Y-116944328D01*
X118695753Y-116944328D01*
X118624770Y-116951288D01*
X118544460Y-116959163D01*
X118538561Y-116960944D01*
X118538556Y-116960945D01*
X118420872Y-116996476D01*
X118345735Y-117019161D01*
X118340294Y-117022054D01*
X118167890Y-117113723D01*
X118167887Y-117113725D01*
X118162448Y-117116617D01*
X118001581Y-117247816D01*
X117869261Y-117407763D01*
X117866332Y-117413180D01*
X117866330Y-117413183D01*
X117773459Y-117584945D01*
X117773457Y-117584950D01*
X117770529Y-117590365D01*
X117709144Y-117788667D01*
X117708500Y-117794792D01*
X117708500Y-117794793D01*
X117694379Y-117929153D01*
X117687446Y-117995114D01*
X112134433Y-117995114D01*
X112134433Y-117907140D01*
X112133061Y-117900681D01*
X112113652Y-117809374D01*
X112095820Y-117725478D01*
X112051288Y-117625456D01*
X112022966Y-117561844D01*
X112022965Y-117561842D01*
X112020281Y-117555814D01*
X111964664Y-117479263D01*
X111915000Y-117410906D01*
X111914998Y-117410904D01*
X111911117Y-117405562D01*
X111799931Y-117305450D01*
X111778008Y-117285710D01*
X111778007Y-117285709D01*
X111773100Y-117281291D01*
X111652914Y-117211902D01*
X111617984Y-117191735D01*
X111617983Y-117191734D01*
X111612261Y-117188431D01*
X111444371Y-117133880D01*
X111441909Y-117133080D01*
X111441907Y-117133080D01*
X111435630Y-117131040D01*
X111429067Y-117130350D01*
X111429066Y-117130350D01*
X111404870Y-117127807D01*
X111297234Y-117116494D01*
X111204620Y-117116494D01*
X111096984Y-117127807D01*
X111072788Y-117130350D01*
X111072787Y-117130350D01*
X111066224Y-117131040D01*
X111059947Y-117133080D01*
X111059945Y-117133080D01*
X111057483Y-117133880D01*
X110889593Y-117188431D01*
X110883871Y-117191734D01*
X110883870Y-117191735D01*
X110848940Y-117211902D01*
X110728754Y-117281291D01*
X110723847Y-117285709D01*
X110723846Y-117285710D01*
X110701923Y-117305450D01*
X110590737Y-117405562D01*
X110586856Y-117410904D01*
X110586854Y-117410906D01*
X110547730Y-117464756D01*
X110481573Y-117555813D01*
X110478889Y-117561842D01*
X110478887Y-117561845D01*
X110408721Y-117719442D01*
X110406034Y-117725478D01*
X110404662Y-117731935D01*
X110404661Y-117731938D01*
X110368794Y-117900681D01*
X110367421Y-117907140D01*
X110367421Y-118092860D01*
X107508500Y-118092860D01*
X107508500Y-115835737D01*
X111587659Y-115835737D01*
X111604208Y-116032820D01*
X111605906Y-116038741D01*
X111605907Y-116038744D01*
X111656324Y-116214568D01*
X111658723Y-116222936D01*
X111749127Y-116398842D01*
X111871975Y-116553839D01*
X112022590Y-116682022D01*
X112195234Y-116778510D01*
X112383332Y-116839626D01*
X112579717Y-116863044D01*
X112585852Y-116862572D01*
X112585854Y-116862572D01*
X112770770Y-116848343D01*
X112770774Y-116848342D01*
X112776912Y-116847870D01*
X112967403Y-116794684D01*
X112972907Y-116791904D01*
X112972909Y-116791903D01*
X113138435Y-116708290D01*
X113138437Y-116708289D01*
X113143936Y-116705511D01*
X113299787Y-116583747D01*
X113429018Y-116434031D01*
X113526709Y-116262065D01*
X113589137Y-116074399D01*
X113613925Y-115878181D01*
X113614320Y-115849886D01*
X113612933Y-115835737D01*
X116387760Y-115835737D01*
X116404309Y-116032820D01*
X116406007Y-116038741D01*
X116406008Y-116038744D01*
X116456425Y-116214568D01*
X116458824Y-116222936D01*
X116549228Y-116398842D01*
X116672076Y-116553839D01*
X116822691Y-116682022D01*
X116995335Y-116778510D01*
X117183433Y-116839626D01*
X117379818Y-116863044D01*
X117385953Y-116862572D01*
X117385955Y-116862572D01*
X117570871Y-116848343D01*
X117570875Y-116848342D01*
X117577013Y-116847870D01*
X117767504Y-116794684D01*
X117773008Y-116791904D01*
X117773010Y-116791903D01*
X117938536Y-116708290D01*
X117938538Y-116708289D01*
X117944037Y-116705511D01*
X118099888Y-116583747D01*
X118229119Y-116434031D01*
X118326810Y-116262065D01*
X118389238Y-116074399D01*
X118414026Y-115878181D01*
X118414421Y-115849886D01*
X118395121Y-115653053D01*
X118337957Y-115463717D01*
X118245107Y-115289090D01*
X118174750Y-115202824D01*
X118124001Y-115140599D01*
X118123998Y-115140596D01*
X118120106Y-115135824D01*
X118113765Y-115130578D01*
X117972466Y-115013685D01*
X117972462Y-115013683D01*
X117967716Y-115009756D01*
X117793742Y-114915688D01*
X117604809Y-114857204D01*
X117598684Y-114856560D01*
X117598683Y-114856560D01*
X117414245Y-114837175D01*
X117414243Y-114837175D01*
X117408116Y-114836531D01*
X117325617Y-114844039D01*
X117217292Y-114853897D01*
X117217289Y-114853898D01*
X117211153Y-114854456D01*
X117205247Y-114856194D01*
X117205243Y-114856195D01*
X117100117Y-114887135D01*
X117021422Y-114910296D01*
X117015964Y-114913149D01*
X117015960Y-114913151D01*
X116925188Y-114960606D01*
X116846151Y-115001926D01*
X116692016Y-115125854D01*
X116564887Y-115277360D01*
X116561920Y-115282758D01*
X116561916Y-115282763D01*
X116558438Y-115289090D01*
X116469608Y-115450673D01*
X116467747Y-115456540D01*
X116467746Y-115456542D01*
X116451447Y-115507924D01*
X116409806Y-115639192D01*
X116387760Y-115835737D01*
X113612933Y-115835737D01*
X113595020Y-115653053D01*
X113537856Y-115463717D01*
X113445006Y-115289090D01*
X113374649Y-115202824D01*
X113323900Y-115140599D01*
X113323897Y-115140596D01*
X113320005Y-115135824D01*
X113313664Y-115130578D01*
X113172365Y-115013685D01*
X113172361Y-115013683D01*
X113167615Y-115009756D01*
X112993641Y-114915688D01*
X112804708Y-114857204D01*
X112798583Y-114856560D01*
X112798582Y-114856560D01*
X112614144Y-114837175D01*
X112614142Y-114837175D01*
X112608015Y-114836531D01*
X112525516Y-114844039D01*
X112417191Y-114853897D01*
X112417188Y-114853898D01*
X112411052Y-114854456D01*
X112405146Y-114856194D01*
X112405142Y-114856195D01*
X112300016Y-114887135D01*
X112221321Y-114910296D01*
X112215863Y-114913149D01*
X112215859Y-114913151D01*
X112125087Y-114960606D01*
X112046050Y-115001926D01*
X111891915Y-115125854D01*
X111764786Y-115277360D01*
X111761819Y-115282758D01*
X111761815Y-115282763D01*
X111758337Y-115289090D01*
X111669507Y-115450673D01*
X111667646Y-115456540D01*
X111667645Y-115456542D01*
X111651346Y-115507924D01*
X111609705Y-115639192D01*
X111587659Y-115835737D01*
X107508500Y-115835737D01*
X107508500Y-88950000D01*
X108786372Y-88950000D01*
X108806854Y-89210249D01*
X108808008Y-89215056D01*
X108808009Y-89215062D01*
X108846424Y-89375069D01*
X108867796Y-89464089D01*
X108967697Y-89705271D01*
X109104097Y-89927856D01*
X109273637Y-90126363D01*
X109472144Y-90295903D01*
X109694729Y-90432303D01*
X109699299Y-90434196D01*
X109699303Y-90434198D01*
X109931338Y-90530310D01*
X109935911Y-90532204D01*
X110024931Y-90553576D01*
X110184938Y-90591991D01*
X110184944Y-90591992D01*
X110189751Y-90593146D01*
X110280884Y-90600318D01*
X110382385Y-90608307D01*
X110382394Y-90608307D01*
X110384842Y-90608500D01*
X110515158Y-90608500D01*
X110517606Y-90608307D01*
X110517615Y-90608307D01*
X110619116Y-90600318D01*
X110710249Y-90593146D01*
X110715056Y-90591992D01*
X110715062Y-90591991D01*
X110875069Y-90553576D01*
X110964089Y-90532204D01*
X110968662Y-90530310D01*
X111200697Y-90434198D01*
X111200701Y-90434196D01*
X111205271Y-90432303D01*
X111427856Y-90295903D01*
X111626363Y-90126363D01*
X111795903Y-89927856D01*
X111932303Y-89705271D01*
X112032204Y-89464089D01*
X112053576Y-89375069D01*
X112091991Y-89215062D01*
X112091992Y-89215056D01*
X112093146Y-89210249D01*
X112113628Y-88950000D01*
X166886372Y-88950000D01*
X166906854Y-89210249D01*
X166908008Y-89215056D01*
X166908009Y-89215062D01*
X166946424Y-89375069D01*
X166967796Y-89464089D01*
X167067697Y-89705271D01*
X167204097Y-89927856D01*
X167373637Y-90126363D01*
X167572144Y-90295903D01*
X167794729Y-90432303D01*
X167799299Y-90434196D01*
X167799303Y-90434198D01*
X168031338Y-90530310D01*
X168035911Y-90532204D01*
X168124931Y-90553576D01*
X168284938Y-90591991D01*
X168284944Y-90591992D01*
X168289751Y-90593146D01*
X168380884Y-90600318D01*
X168482385Y-90608307D01*
X168482394Y-90608307D01*
X168484842Y-90608500D01*
X168615158Y-90608500D01*
X168617606Y-90608307D01*
X168617615Y-90608307D01*
X168719116Y-90600318D01*
X168810249Y-90593146D01*
X168815056Y-90591992D01*
X168815062Y-90591991D01*
X168975069Y-90553576D01*
X169064089Y-90532204D01*
X169068662Y-90530310D01*
X169300697Y-90434198D01*
X169300701Y-90434196D01*
X169305271Y-90432303D01*
X169527856Y-90295903D01*
X169726363Y-90126363D01*
X169895903Y-89927856D01*
X170032303Y-89705271D01*
X170132204Y-89464089D01*
X170153576Y-89375069D01*
X170191991Y-89215062D01*
X170191992Y-89215056D01*
X170193146Y-89210249D01*
X170213628Y-88950000D01*
X170193146Y-88689751D01*
X170191992Y-88684944D01*
X170191991Y-88684938D01*
X170133359Y-88440723D01*
X170132204Y-88435911D01*
X170032303Y-88194729D01*
X169895903Y-87972144D01*
X169726363Y-87773637D01*
X169527856Y-87604097D01*
X169305271Y-87467697D01*
X169300701Y-87465804D01*
X169300697Y-87465802D01*
X169068662Y-87369690D01*
X169068660Y-87369689D01*
X169064089Y-87367796D01*
X168975069Y-87346424D01*
X168815062Y-87308009D01*
X168815056Y-87308008D01*
X168810249Y-87306854D01*
X168719116Y-87299682D01*
X168617615Y-87291693D01*
X168617606Y-87291693D01*
X168615158Y-87291500D01*
X168484842Y-87291500D01*
X168482394Y-87291693D01*
X168482385Y-87291693D01*
X168380884Y-87299682D01*
X168289751Y-87306854D01*
X168284944Y-87308008D01*
X168284938Y-87308009D01*
X168124931Y-87346424D01*
X168035911Y-87367796D01*
X168031340Y-87369689D01*
X168031338Y-87369690D01*
X167799303Y-87465802D01*
X167799299Y-87465804D01*
X167794729Y-87467697D01*
X167572144Y-87604097D01*
X167373637Y-87773637D01*
X167204097Y-87972144D01*
X167067697Y-88194729D01*
X166967796Y-88435911D01*
X166966641Y-88440723D01*
X166908009Y-88684938D01*
X166908008Y-88684944D01*
X166906854Y-88689751D01*
X166886372Y-88950000D01*
X112113628Y-88950000D01*
X112093146Y-88689751D01*
X112091992Y-88684944D01*
X112091991Y-88684938D01*
X112033359Y-88440723D01*
X112032204Y-88435911D01*
X111932303Y-88194729D01*
X111795903Y-87972144D01*
X111626363Y-87773637D01*
X111427856Y-87604097D01*
X111205271Y-87467697D01*
X111200701Y-87465804D01*
X111200697Y-87465802D01*
X110968662Y-87369690D01*
X110968660Y-87369689D01*
X110964089Y-87367796D01*
X110875069Y-87346424D01*
X110715062Y-87308009D01*
X110715056Y-87308008D01*
X110710249Y-87306854D01*
X110619116Y-87299682D01*
X110517615Y-87291693D01*
X110517606Y-87291693D01*
X110515158Y-87291500D01*
X110384842Y-87291500D01*
X110382394Y-87291693D01*
X110382385Y-87291693D01*
X110280884Y-87299682D01*
X110189751Y-87306854D01*
X110184944Y-87308008D01*
X110184938Y-87308009D01*
X110024931Y-87346424D01*
X109935911Y-87367796D01*
X109931340Y-87369689D01*
X109931338Y-87369690D01*
X109699303Y-87465802D01*
X109699299Y-87465804D01*
X109694729Y-87467697D01*
X109472144Y-87604097D01*
X109273637Y-87773637D01*
X109104097Y-87972144D01*
X108967697Y-88194729D01*
X108867796Y-88435911D01*
X108866641Y-88440723D01*
X108808009Y-88684938D01*
X108808008Y-88684944D01*
X108806854Y-88689751D01*
X108786372Y-88950000D01*
X107508500Y-88950000D01*
X107508500Y-86134500D01*
X107528502Y-86066379D01*
X107582158Y-86019886D01*
X107634500Y-86008500D01*
X171365500Y-86008500D01*
X171433621Y-86028502D01*
G37*
%TD.AperFunction*%
%TD*%
M02*
