%TF.GenerationSoftware,KiCad,Pcbnew,7.0.0-da2b9df05c~171~ubuntu22.04.1*%
%TF.CreationDate,2023-03-03T15:29:18-08:00*%
%TF.ProjectId,CAD,4341442e-6b69-4636-9164-5f7063625858,rev?*%
%TF.SameCoordinates,Original*%
%TF.FileFunction,Copper,L2,Bot*%
%TF.FilePolarity,Positive*%
%FSLAX46Y46*%
G04 Gerber Fmt 4.6, Leading zero omitted, Abs format (unit mm)*
G04 Created by KiCad (PCBNEW 7.0.0-da2b9df05c~171~ubuntu22.04.1) date 2023-03-03 15:29:18*
%MOMM*%
%LPD*%
G01*
G04 APERTURE LIST*
%TA.AperFunction,ComponentPad*%
%ADD10C,1.000000*%
%TD*%
%TA.AperFunction,ViaPad*%
%ADD11C,0.600000*%
%TD*%
%TA.AperFunction,Conductor*%
%ADD12C,0.200000*%
%TD*%
G04 APERTURE END LIST*
D10*
%TO.P,J2,25,usb-c-pinout_shield*%
%TO.N,Net-(J2-usb-c-pinout_shield-Pad25)*%
X166401041Y-115849886D03*
%TO.P,J2,26,usb-c-pinout_shield*%
X161600940Y-115849886D03*
%TO.P,J2,27,usb-c-pinout_shield*%
X161600940Y-120150114D03*
%TO.P,J2,28,usb-c-pinout_shield*%
X166401041Y-120150114D03*
%TD*%
%TO.P,J1,25,usb-c-pinout_shield*%
%TO.N,/5: /POWER*%
X117401041Y-115849886D03*
%TO.P,J1,26,usb-c-pinout_shield*%
X112600940Y-115849886D03*
%TO.P,J1,27,usb-c-pinout_shield*%
X112600940Y-120150114D03*
%TO.P,J1,28,usb-c-pinout_shield*%
X117401041Y-120150114D03*
%TD*%
D11*
%TO.N,/5: /GND-usb*%
X168275000Y-119507000D03*
X168656000Y-116459000D03*
X159258000Y-118999000D03*
X159258000Y-116586000D03*
%TD*%
D12*
%TO.N,Net-(J2-usb-c-pinout_shield-Pad25)*%
X166401041Y-120150114D02*
X161600940Y-120150114D01*
X161600940Y-115849886D02*
X161600940Y-120150114D01*
X166401041Y-115849886D02*
X166401041Y-120150114D01*
%TD*%
%TA.AperFunction,Conductor*%
%TO.N,/5: /GND-usb*%
G36*
X171737500Y-85717113D02*
G01*
X171782887Y-85762500D01*
X171799500Y-85824500D01*
X171799500Y-130175500D01*
X171782887Y-130237500D01*
X171737500Y-130282887D01*
X171675500Y-130299500D01*
X107324500Y-130299500D01*
X107262500Y-130282887D01*
X107217113Y-130237500D01*
X107200500Y-130175500D01*
X107200500Y-126990176D01*
X109041692Y-126990176D01*
X109041915Y-126995430D01*
X109041915Y-126995435D01*
X109046996Y-127115041D01*
X109051839Y-127229042D01*
X109052946Y-127234183D01*
X109052948Y-127234191D01*
X109101098Y-127457608D01*
X109102208Y-127462757D01*
X109191351Y-127684597D01*
X109194109Y-127689076D01*
X109313944Y-127883702D01*
X109313947Y-127883706D01*
X109316703Y-127888182D01*
X109474658Y-128067653D01*
X109660672Y-128217849D01*
X109767683Y-128277629D01*
X109864792Y-128331878D01*
X109864794Y-128331879D01*
X109869393Y-128334448D01*
X110094817Y-128414095D01*
X110330459Y-128454500D01*
X110507033Y-128454500D01*
X110509664Y-128454500D01*
X110688220Y-128439303D01*
X110919587Y-128379059D01*
X111137444Y-128280581D01*
X111335525Y-128146702D01*
X111508131Y-127981273D01*
X111650297Y-127789052D01*
X111757932Y-127575570D01*
X111827940Y-127346969D01*
X111858308Y-127109824D01*
X111853225Y-126990176D01*
X167141692Y-126990176D01*
X167141915Y-126995430D01*
X167141915Y-126995435D01*
X167146996Y-127115041D01*
X167151839Y-127229042D01*
X167152946Y-127234183D01*
X167152948Y-127234191D01*
X167201098Y-127457608D01*
X167202208Y-127462757D01*
X167291351Y-127684597D01*
X167294109Y-127689076D01*
X167413944Y-127883702D01*
X167413947Y-127883706D01*
X167416703Y-127888182D01*
X167574658Y-128067653D01*
X167760672Y-128217849D01*
X167867683Y-128277629D01*
X167964792Y-128331878D01*
X167964794Y-128331879D01*
X167969393Y-128334448D01*
X168194817Y-128414095D01*
X168430459Y-128454500D01*
X168607033Y-128454500D01*
X168609664Y-128454500D01*
X168788220Y-128439303D01*
X169019587Y-128379059D01*
X169237444Y-128280581D01*
X169435525Y-128146702D01*
X169608131Y-127981273D01*
X169750297Y-127789052D01*
X169857932Y-127575570D01*
X169927940Y-127346969D01*
X169958308Y-127109824D01*
X169948161Y-126870958D01*
X169897792Y-126637243D01*
X169808649Y-126415403D01*
X169683297Y-126211818D01*
X169525342Y-126032347D01*
X169339328Y-125882151D01*
X169232316Y-125822370D01*
X169135207Y-125768121D01*
X169135200Y-125768117D01*
X169130607Y-125765552D01*
X169124112Y-125763257D01*
X168910152Y-125687660D01*
X168910144Y-125687658D01*
X168905183Y-125685905D01*
X168899992Y-125685015D01*
X168899985Y-125685013D01*
X168674734Y-125646390D01*
X168674728Y-125646389D01*
X168669541Y-125645500D01*
X168490336Y-125645500D01*
X168487721Y-125645722D01*
X168487710Y-125645723D01*
X168317031Y-125660250D01*
X168317030Y-125660250D01*
X168311780Y-125660697D01*
X168306686Y-125662023D01*
X168306682Y-125662024D01*
X168085513Y-125719612D01*
X168085501Y-125719615D01*
X168080413Y-125720941D01*
X168075611Y-125723111D01*
X168075607Y-125723113D01*
X167867359Y-125817247D01*
X167867350Y-125817251D01*
X167862556Y-125819419D01*
X167858193Y-125822367D01*
X167858189Y-125822370D01*
X167668841Y-125950346D01*
X167668832Y-125950352D01*
X167664475Y-125953298D01*
X167660675Y-125956939D01*
X167660670Y-125956944D01*
X167495668Y-126115085D01*
X167495662Y-126115091D01*
X167491869Y-126118727D01*
X167488747Y-126122947D01*
X167488741Y-126122955D01*
X167352829Y-126306721D01*
X167349703Y-126310948D01*
X167347338Y-126315637D01*
X167347334Y-126315645D01*
X167244439Y-126519727D01*
X167242068Y-126524430D01*
X167240527Y-126529460D01*
X167240526Y-126529464D01*
X167173601Y-126747996D01*
X167173598Y-126748006D01*
X167172060Y-126753031D01*
X167171391Y-126758249D01*
X167171391Y-126758253D01*
X167156284Y-126876223D01*
X167141692Y-126990176D01*
X111853225Y-126990176D01*
X111848161Y-126870958D01*
X111797792Y-126637243D01*
X111708649Y-126415403D01*
X111583297Y-126211818D01*
X111425342Y-126032347D01*
X111239328Y-125882151D01*
X111132316Y-125822370D01*
X111035207Y-125768121D01*
X111035200Y-125768117D01*
X111030607Y-125765552D01*
X111024112Y-125763257D01*
X110810152Y-125687660D01*
X110810144Y-125687658D01*
X110805183Y-125685905D01*
X110799992Y-125685015D01*
X110799985Y-125685013D01*
X110574734Y-125646390D01*
X110574728Y-125646389D01*
X110569541Y-125645500D01*
X110390336Y-125645500D01*
X110387721Y-125645722D01*
X110387710Y-125645723D01*
X110217031Y-125660250D01*
X110217030Y-125660250D01*
X110211780Y-125660697D01*
X110206686Y-125662023D01*
X110206682Y-125662024D01*
X109985513Y-125719612D01*
X109985501Y-125719615D01*
X109980413Y-125720941D01*
X109975611Y-125723111D01*
X109975607Y-125723113D01*
X109767359Y-125817247D01*
X109767350Y-125817251D01*
X109762556Y-125819419D01*
X109758193Y-125822367D01*
X109758189Y-125822370D01*
X109568841Y-125950346D01*
X109568832Y-125950352D01*
X109564475Y-125953298D01*
X109560675Y-125956939D01*
X109560670Y-125956944D01*
X109395668Y-126115085D01*
X109395662Y-126115091D01*
X109391869Y-126118727D01*
X109388747Y-126122947D01*
X109388741Y-126122955D01*
X109252829Y-126306721D01*
X109249703Y-126310948D01*
X109247338Y-126315637D01*
X109247334Y-126315645D01*
X109144439Y-126519727D01*
X109142068Y-126524430D01*
X109140527Y-126529460D01*
X109140526Y-126529464D01*
X109073601Y-126747996D01*
X109073598Y-126748006D01*
X109072060Y-126753031D01*
X109071391Y-126758249D01*
X109071391Y-126758253D01*
X109056284Y-126876223D01*
X109041692Y-126990176D01*
X107200500Y-126990176D01*
X107200500Y-120150114D01*
X111587560Y-120150114D01*
X111588157Y-120156175D01*
X111606434Y-120341750D01*
X111606435Y-120341756D01*
X111607032Y-120347815D01*
X111608799Y-120353640D01*
X111608800Y-120353645D01*
X111662931Y-120532090D01*
X111664699Y-120537918D01*
X111758345Y-120713118D01*
X111884372Y-120866682D01*
X112037936Y-120992709D01*
X112213136Y-121086355D01*
X112403239Y-121144022D01*
X112600940Y-121163494D01*
X112798641Y-121144022D01*
X112988744Y-121086355D01*
X113163944Y-120992709D01*
X113317508Y-120866682D01*
X113443535Y-120713118D01*
X113537181Y-120537918D01*
X113594848Y-120347815D01*
X113614320Y-120150114D01*
X116387661Y-120150114D01*
X116388258Y-120156175D01*
X116406535Y-120341750D01*
X116406536Y-120341756D01*
X116407133Y-120347815D01*
X116408900Y-120353640D01*
X116408901Y-120353645D01*
X116463032Y-120532090D01*
X116464800Y-120537918D01*
X116558446Y-120713118D01*
X116684473Y-120866682D01*
X116838037Y-120992709D01*
X117013237Y-121086355D01*
X117203340Y-121144022D01*
X117401041Y-121163494D01*
X117598742Y-121144022D01*
X117788845Y-121086355D01*
X117964045Y-120992709D01*
X118117609Y-120866682D01*
X118243636Y-120713118D01*
X118337282Y-120537918D01*
X118394949Y-120347815D01*
X118414421Y-120150114D01*
X118394949Y-119952413D01*
X118337282Y-119762310D01*
X118243636Y-119587110D01*
X118117609Y-119433546D01*
X117964045Y-119307519D01*
X117924177Y-119286209D01*
X117794217Y-119216744D01*
X117794213Y-119216742D01*
X117788845Y-119213873D01*
X117783017Y-119212105D01*
X117604572Y-119157974D01*
X117604567Y-119157973D01*
X117598742Y-119156206D01*
X117592683Y-119155609D01*
X117592677Y-119155608D01*
X117407102Y-119137331D01*
X117401041Y-119136734D01*
X117394980Y-119137331D01*
X117209404Y-119155608D01*
X117209396Y-119155609D01*
X117203340Y-119156206D01*
X117197516Y-119157972D01*
X117197509Y-119157974D01*
X117019064Y-119212105D01*
X117019060Y-119212106D01*
X117013237Y-119213873D01*
X117007871Y-119216740D01*
X117007864Y-119216744D01*
X116843413Y-119304645D01*
X116843409Y-119304647D01*
X116838037Y-119307519D01*
X116833329Y-119311382D01*
X116833324Y-119311386D01*
X116689179Y-119429683D01*
X116689174Y-119429687D01*
X116684473Y-119433546D01*
X116680614Y-119438247D01*
X116680610Y-119438252D01*
X116562313Y-119582397D01*
X116562309Y-119582402D01*
X116558446Y-119587110D01*
X116555574Y-119592482D01*
X116555572Y-119592486D01*
X116467671Y-119756937D01*
X116467667Y-119756944D01*
X116464800Y-119762310D01*
X116463033Y-119768133D01*
X116463032Y-119768137D01*
X116408901Y-119946582D01*
X116408899Y-119946589D01*
X116407133Y-119952413D01*
X116406536Y-119958469D01*
X116406535Y-119958477D01*
X116389168Y-120134809D01*
X116387661Y-120150114D01*
X113614320Y-120150114D01*
X113594848Y-119952413D01*
X113537181Y-119762310D01*
X113443535Y-119587110D01*
X113317508Y-119433546D01*
X113163944Y-119307519D01*
X113124076Y-119286209D01*
X112994116Y-119216744D01*
X112994112Y-119216742D01*
X112988744Y-119213873D01*
X112982916Y-119212105D01*
X112804471Y-119157974D01*
X112804466Y-119157973D01*
X112798641Y-119156206D01*
X112792582Y-119155609D01*
X112792576Y-119155608D01*
X112607001Y-119137331D01*
X112600940Y-119136734D01*
X112594879Y-119137331D01*
X112409303Y-119155608D01*
X112409295Y-119155609D01*
X112403239Y-119156206D01*
X112397415Y-119157972D01*
X112397408Y-119157974D01*
X112218963Y-119212105D01*
X112218959Y-119212106D01*
X112213136Y-119213873D01*
X112207770Y-119216740D01*
X112207763Y-119216744D01*
X112043312Y-119304645D01*
X112043308Y-119304647D01*
X112037936Y-119307519D01*
X112033228Y-119311382D01*
X112033223Y-119311386D01*
X111889078Y-119429683D01*
X111889073Y-119429687D01*
X111884372Y-119433546D01*
X111880513Y-119438247D01*
X111880509Y-119438252D01*
X111762212Y-119582397D01*
X111762208Y-119582402D01*
X111758345Y-119587110D01*
X111755473Y-119592482D01*
X111755471Y-119592486D01*
X111667570Y-119756937D01*
X111667566Y-119756944D01*
X111664699Y-119762310D01*
X111662932Y-119768133D01*
X111662931Y-119768137D01*
X111608800Y-119946582D01*
X111608798Y-119946589D01*
X111607032Y-119952413D01*
X111606435Y-119958469D01*
X111606434Y-119958477D01*
X111589067Y-120134809D01*
X111587560Y-120150114D01*
X107200500Y-120150114D01*
X107200500Y-117960159D01*
X110617669Y-117960159D01*
X110618158Y-117967936D01*
X110618158Y-117967942D01*
X110627165Y-118111105D01*
X110627166Y-118111111D01*
X110627656Y-118118895D01*
X110630066Y-118126314D01*
X110630067Y-118126316D01*
X110674392Y-118262737D01*
X110674394Y-118262742D01*
X110676805Y-118270161D01*
X110762029Y-118404452D01*
X110877971Y-118513329D01*
X111017348Y-118589952D01*
X111171402Y-118629507D01*
X111286635Y-118629507D01*
X111290530Y-118629507D01*
X111408723Y-118614576D01*
X111556605Y-118556025D01*
X111685279Y-118462538D01*
X111786662Y-118339987D01*
X111854382Y-118196074D01*
X111884185Y-118039841D01*
X111881838Y-118002540D01*
X117941450Y-118002540D01*
X117942230Y-118009463D01*
X117960967Y-118175770D01*
X117960968Y-118175777D01*
X117961748Y-118182694D01*
X117964048Y-118189269D01*
X117964049Y-118189270D01*
X117991687Y-118268254D01*
X118021626Y-118353814D01*
X118118080Y-118507320D01*
X118246274Y-118635514D01*
X118399780Y-118731968D01*
X118570900Y-118791846D01*
X118705869Y-118807053D01*
X118792754Y-118807053D01*
X118796239Y-118807053D01*
X118931208Y-118791846D01*
X119102328Y-118731968D01*
X119255834Y-118635514D01*
X119384028Y-118507320D01*
X119480482Y-118353814D01*
X119540360Y-118182694D01*
X119560658Y-118002540D01*
X119555883Y-117960159D01*
X159617669Y-117960159D01*
X159618158Y-117967936D01*
X159618158Y-117967942D01*
X159627165Y-118111105D01*
X159627166Y-118111111D01*
X159627656Y-118118895D01*
X159630066Y-118126314D01*
X159630067Y-118126316D01*
X159674392Y-118262737D01*
X159674394Y-118262742D01*
X159676805Y-118270161D01*
X159762029Y-118404452D01*
X159877971Y-118513329D01*
X160017348Y-118589952D01*
X160171402Y-118629507D01*
X160286635Y-118629507D01*
X160290530Y-118629507D01*
X160408723Y-118614576D01*
X160556605Y-118556025D01*
X160685279Y-118462538D01*
X160738777Y-118397870D01*
X160772896Y-118356628D01*
X160821347Y-118320958D01*
X160880885Y-118312294D01*
X160937493Y-118332674D01*
X160977844Y-118377301D01*
X160992440Y-118435668D01*
X160992440Y-119286209D01*
X160980535Y-119339226D01*
X160947105Y-119382062D01*
X160889078Y-119429683D01*
X160889073Y-119429687D01*
X160884372Y-119433546D01*
X160880513Y-119438247D01*
X160880509Y-119438252D01*
X160762212Y-119582397D01*
X160762208Y-119582402D01*
X160758345Y-119587110D01*
X160755473Y-119592482D01*
X160755471Y-119592486D01*
X160667570Y-119756937D01*
X160667566Y-119756944D01*
X160664699Y-119762310D01*
X160662932Y-119768133D01*
X160662931Y-119768137D01*
X160608800Y-119946582D01*
X160608798Y-119946589D01*
X160607032Y-119952413D01*
X160606435Y-119958469D01*
X160606434Y-119958477D01*
X160589067Y-120134809D01*
X160587560Y-120150114D01*
X160588157Y-120156175D01*
X160606434Y-120341750D01*
X160606435Y-120341756D01*
X160607032Y-120347815D01*
X160608799Y-120353640D01*
X160608800Y-120353645D01*
X160662931Y-120532090D01*
X160664699Y-120537918D01*
X160758345Y-120713118D01*
X160884372Y-120866682D01*
X161037936Y-120992709D01*
X161213136Y-121086355D01*
X161403239Y-121144022D01*
X161600940Y-121163494D01*
X161798641Y-121144022D01*
X161988744Y-121086355D01*
X162163944Y-120992709D01*
X162317508Y-120866682D01*
X162368990Y-120803949D01*
X162411828Y-120770519D01*
X162464845Y-120758614D01*
X165537136Y-120758614D01*
X165590153Y-120770519D01*
X165632990Y-120803949D01*
X165684473Y-120866682D01*
X165838037Y-120992709D01*
X166013237Y-121086355D01*
X166203340Y-121144022D01*
X166401041Y-121163494D01*
X166598742Y-121144022D01*
X166788845Y-121086355D01*
X166964045Y-120992709D01*
X167117609Y-120866682D01*
X167243636Y-120713118D01*
X167337282Y-120537918D01*
X167394949Y-120347815D01*
X167414421Y-120150114D01*
X167394949Y-119952413D01*
X167337282Y-119762310D01*
X167243636Y-119587110D01*
X167117609Y-119433546D01*
X167112902Y-119429683D01*
X167054876Y-119382062D01*
X167021446Y-119339226D01*
X167009541Y-119286209D01*
X167009541Y-118698143D01*
X167023056Y-118641848D01*
X167060656Y-118597825D01*
X167114143Y-118575670D01*
X167171859Y-118580212D01*
X167221222Y-118610461D01*
X167246274Y-118635514D01*
X167399780Y-118731968D01*
X167570900Y-118791846D01*
X167705869Y-118807053D01*
X167792754Y-118807053D01*
X167796239Y-118807053D01*
X167931208Y-118791846D01*
X168102328Y-118731968D01*
X168255834Y-118635514D01*
X168384028Y-118507320D01*
X168480482Y-118353814D01*
X168540360Y-118182694D01*
X168560658Y-118002540D01*
X168540360Y-117822386D01*
X168480482Y-117651266D01*
X168384028Y-117497760D01*
X168255834Y-117369566D01*
X168245753Y-117363232D01*
X168108224Y-117276817D01*
X168102328Y-117273112D01*
X167931208Y-117213234D01*
X167924291Y-117212454D01*
X167924284Y-117212453D01*
X167799705Y-117198417D01*
X167799695Y-117198416D01*
X167796239Y-117198027D01*
X167705869Y-117198027D01*
X167702413Y-117198416D01*
X167702402Y-117198417D01*
X167577823Y-117212453D01*
X167577814Y-117212454D01*
X167570900Y-117213234D01*
X167564326Y-117215534D01*
X167564323Y-117215535D01*
X167406355Y-117270811D01*
X167406352Y-117270812D01*
X167399780Y-117273112D01*
X167393885Y-117276815D01*
X167393883Y-117276817D01*
X167252174Y-117365858D01*
X167252169Y-117365861D01*
X167246274Y-117369566D01*
X167241349Y-117374490D01*
X167241345Y-117374494D01*
X167221222Y-117394618D01*
X167171859Y-117424868D01*
X167114143Y-117429410D01*
X167060656Y-117407255D01*
X167023056Y-117363232D01*
X167009541Y-117306937D01*
X167009541Y-116713791D01*
X167021446Y-116660774D01*
X167054876Y-116617938D01*
X167073060Y-116603013D01*
X167117609Y-116566454D01*
X167243636Y-116412890D01*
X167337282Y-116237690D01*
X167394949Y-116047587D01*
X167414421Y-115849886D01*
X167394949Y-115652185D01*
X167337282Y-115462082D01*
X167243636Y-115286882D01*
X167117609Y-115133318D01*
X166964045Y-115007291D01*
X166937822Y-114993274D01*
X166794217Y-114916516D01*
X166794213Y-114916514D01*
X166788845Y-114913645D01*
X166783017Y-114911877D01*
X166604572Y-114857746D01*
X166604567Y-114857745D01*
X166598742Y-114855978D01*
X166592683Y-114855381D01*
X166592677Y-114855380D01*
X166407102Y-114837103D01*
X166401041Y-114836506D01*
X166394980Y-114837103D01*
X166209404Y-114855380D01*
X166209396Y-114855381D01*
X166203340Y-114855978D01*
X166197516Y-114857744D01*
X166197509Y-114857746D01*
X166019064Y-114911877D01*
X166019060Y-114911878D01*
X166013237Y-114913645D01*
X166007871Y-114916512D01*
X166007864Y-114916516D01*
X165843413Y-115004417D01*
X165843409Y-115004419D01*
X165838037Y-115007291D01*
X165833329Y-115011154D01*
X165833324Y-115011158D01*
X165689179Y-115129455D01*
X165689174Y-115129459D01*
X165684473Y-115133318D01*
X165680614Y-115138019D01*
X165680610Y-115138024D01*
X165562313Y-115282169D01*
X165562309Y-115282174D01*
X165558446Y-115286882D01*
X165555574Y-115292254D01*
X165555572Y-115292258D01*
X165467671Y-115456709D01*
X165467667Y-115456716D01*
X165464800Y-115462082D01*
X165463033Y-115467905D01*
X165463032Y-115467909D01*
X165408901Y-115646354D01*
X165408899Y-115646361D01*
X165407133Y-115652185D01*
X165406536Y-115658241D01*
X165406535Y-115658249D01*
X165389168Y-115834581D01*
X165387661Y-115849886D01*
X165388258Y-115855947D01*
X165406535Y-116041522D01*
X165406536Y-116041528D01*
X165407133Y-116047587D01*
X165408900Y-116053412D01*
X165408901Y-116053417D01*
X165463032Y-116231862D01*
X165464800Y-116237690D01*
X165558446Y-116412890D01*
X165684473Y-116566454D01*
X165689179Y-116570316D01*
X165747206Y-116617938D01*
X165780636Y-116660774D01*
X165792541Y-116713791D01*
X165792541Y-119286209D01*
X165780636Y-119339226D01*
X165747206Y-119382062D01*
X165689179Y-119429683D01*
X165689174Y-119429687D01*
X165684473Y-119433546D01*
X165680614Y-119438247D01*
X165680610Y-119438252D01*
X165632989Y-119496279D01*
X165590153Y-119529709D01*
X165537136Y-119541614D01*
X162464845Y-119541614D01*
X162411828Y-119529709D01*
X162368992Y-119496279D01*
X162321370Y-119438252D01*
X162317508Y-119433546D01*
X162312801Y-119429683D01*
X162254775Y-119382062D01*
X162221345Y-119339226D01*
X162209440Y-119286209D01*
X162209440Y-116713791D01*
X162221345Y-116660774D01*
X162254775Y-116617938D01*
X162272959Y-116603013D01*
X162317508Y-116566454D01*
X162443535Y-116412890D01*
X162537181Y-116237690D01*
X162594848Y-116047587D01*
X162614320Y-115849886D01*
X162594848Y-115652185D01*
X162537181Y-115462082D01*
X162443535Y-115286882D01*
X162317508Y-115133318D01*
X162163944Y-115007291D01*
X162137721Y-114993274D01*
X161994116Y-114916516D01*
X161994112Y-114916514D01*
X161988744Y-114913645D01*
X161982916Y-114911877D01*
X161804471Y-114857746D01*
X161804466Y-114857745D01*
X161798641Y-114855978D01*
X161792582Y-114855381D01*
X161792576Y-114855380D01*
X161607001Y-114837103D01*
X161600940Y-114836506D01*
X161594879Y-114837103D01*
X161409303Y-114855380D01*
X161409295Y-114855381D01*
X161403239Y-114855978D01*
X161397415Y-114857744D01*
X161397408Y-114857746D01*
X161218963Y-114911877D01*
X161218959Y-114911878D01*
X161213136Y-114913645D01*
X161207770Y-114916512D01*
X161207763Y-114916516D01*
X161043312Y-115004417D01*
X161043308Y-115004419D01*
X161037936Y-115007291D01*
X161033228Y-115011154D01*
X161033223Y-115011158D01*
X160889078Y-115129455D01*
X160889073Y-115129459D01*
X160884372Y-115133318D01*
X160880513Y-115138019D01*
X160880509Y-115138024D01*
X160762212Y-115282169D01*
X160762208Y-115282174D01*
X160758345Y-115286882D01*
X160755473Y-115292254D01*
X160755471Y-115292258D01*
X160667570Y-115456709D01*
X160667566Y-115456716D01*
X160664699Y-115462082D01*
X160662932Y-115467905D01*
X160662931Y-115467909D01*
X160608800Y-115646354D01*
X160608798Y-115646361D01*
X160607032Y-115652185D01*
X160606435Y-115658241D01*
X160606434Y-115658249D01*
X160589067Y-115834581D01*
X160587560Y-115849886D01*
X160588157Y-115855947D01*
X160606434Y-116041522D01*
X160606435Y-116041528D01*
X160607032Y-116047587D01*
X160608799Y-116053412D01*
X160608800Y-116053417D01*
X160662931Y-116231862D01*
X160664699Y-116237690D01*
X160758345Y-116412890D01*
X160884372Y-116566454D01*
X160889078Y-116570316D01*
X160947105Y-116617938D01*
X160980535Y-116660774D01*
X160992440Y-116713791D01*
X160992440Y-117566794D01*
X160976343Y-117627892D01*
X160932230Y-117673127D01*
X160871556Y-117690755D01*
X160810072Y-117676198D01*
X160763743Y-117633236D01*
X160744004Y-117602132D01*
X160744001Y-117602128D01*
X160739825Y-117595548D01*
X160623883Y-117486671D01*
X160554556Y-117448558D01*
X160491343Y-117413806D01*
X160491338Y-117413804D01*
X160484506Y-117410048D01*
X160476950Y-117408108D01*
X160476948Y-117408107D01*
X160338008Y-117372433D01*
X160338007Y-117372432D01*
X160330452Y-117370493D01*
X160211324Y-117370493D01*
X160207464Y-117370980D01*
X160207457Y-117370981D01*
X160100869Y-117384446D01*
X160100865Y-117384446D01*
X160093131Y-117385424D01*
X160085881Y-117388294D01*
X160085879Y-117388295D01*
X159952498Y-117441104D01*
X159952492Y-117441107D01*
X159945249Y-117443975D01*
X159938944Y-117448555D01*
X159938940Y-117448558D01*
X159822888Y-117532875D01*
X159816575Y-117537462D01*
X159811603Y-117543471D01*
X159811603Y-117543472D01*
X159720164Y-117654002D01*
X159720161Y-117654005D01*
X159715192Y-117660013D01*
X159711874Y-117667064D01*
X159711869Y-117667072D01*
X159650792Y-117796868D01*
X159650789Y-117796876D01*
X159647472Y-117803926D01*
X159646011Y-117811580D01*
X159646010Y-117811586D01*
X159619129Y-117952501D01*
X159619128Y-117952507D01*
X159617669Y-117960159D01*
X119555883Y-117960159D01*
X119540360Y-117822386D01*
X119480482Y-117651266D01*
X119384028Y-117497760D01*
X119255834Y-117369566D01*
X119245753Y-117363232D01*
X119108224Y-117276817D01*
X119102328Y-117273112D01*
X118931208Y-117213234D01*
X118924291Y-117212454D01*
X118924284Y-117212453D01*
X118799705Y-117198417D01*
X118799695Y-117198416D01*
X118796239Y-117198027D01*
X118705869Y-117198027D01*
X118702413Y-117198416D01*
X118702402Y-117198417D01*
X118577823Y-117212453D01*
X118577814Y-117212454D01*
X118570900Y-117213234D01*
X118564326Y-117215534D01*
X118564323Y-117215535D01*
X118406355Y-117270811D01*
X118406352Y-117270812D01*
X118399780Y-117273112D01*
X118393885Y-117276815D01*
X118393883Y-117276817D01*
X118252174Y-117365858D01*
X118252169Y-117365861D01*
X118246274Y-117369566D01*
X118241349Y-117374490D01*
X118241345Y-117374494D01*
X118123008Y-117492831D01*
X118123004Y-117492835D01*
X118118080Y-117497760D01*
X118114375Y-117503655D01*
X118114372Y-117503660D01*
X118032955Y-117633236D01*
X118021626Y-117651266D01*
X117961748Y-117822386D01*
X117960968Y-117829300D01*
X117960967Y-117829309D01*
X117947088Y-117952501D01*
X117941450Y-118002540D01*
X111881838Y-118002540D01*
X111874198Y-117881105D01*
X111825049Y-117729839D01*
X111739825Y-117595548D01*
X111623883Y-117486671D01*
X111554556Y-117448558D01*
X111491343Y-117413806D01*
X111491338Y-117413804D01*
X111484506Y-117410048D01*
X111476950Y-117408108D01*
X111476948Y-117408107D01*
X111338008Y-117372433D01*
X111338007Y-117372432D01*
X111330452Y-117370493D01*
X111211324Y-117370493D01*
X111207464Y-117370980D01*
X111207457Y-117370981D01*
X111100869Y-117384446D01*
X111100865Y-117384446D01*
X111093131Y-117385424D01*
X111085881Y-117388294D01*
X111085879Y-117388295D01*
X110952498Y-117441104D01*
X110952492Y-117441107D01*
X110945249Y-117443975D01*
X110938944Y-117448555D01*
X110938940Y-117448558D01*
X110822888Y-117532875D01*
X110816575Y-117537462D01*
X110811603Y-117543471D01*
X110811603Y-117543472D01*
X110720164Y-117654002D01*
X110720161Y-117654005D01*
X110715192Y-117660013D01*
X110711874Y-117667064D01*
X110711869Y-117667072D01*
X110650792Y-117796868D01*
X110650789Y-117796876D01*
X110647472Y-117803926D01*
X110646011Y-117811580D01*
X110646010Y-117811586D01*
X110619129Y-117952501D01*
X110619128Y-117952507D01*
X110617669Y-117960159D01*
X107200500Y-117960159D01*
X107200500Y-115849886D01*
X111587560Y-115849886D01*
X111588157Y-115855947D01*
X111606434Y-116041522D01*
X111606435Y-116041528D01*
X111607032Y-116047587D01*
X111608799Y-116053412D01*
X111608800Y-116053417D01*
X111662931Y-116231862D01*
X111664699Y-116237690D01*
X111758345Y-116412890D01*
X111884372Y-116566454D01*
X112037936Y-116692481D01*
X112213136Y-116786127D01*
X112403239Y-116843794D01*
X112600940Y-116863266D01*
X112798641Y-116843794D01*
X112988744Y-116786127D01*
X113163944Y-116692481D01*
X113317508Y-116566454D01*
X113443535Y-116412890D01*
X113537181Y-116237690D01*
X113594848Y-116047587D01*
X113614320Y-115849886D01*
X116387661Y-115849886D01*
X116388258Y-115855947D01*
X116406535Y-116041522D01*
X116406536Y-116041528D01*
X116407133Y-116047587D01*
X116408900Y-116053412D01*
X116408901Y-116053417D01*
X116463032Y-116231862D01*
X116464800Y-116237690D01*
X116558446Y-116412890D01*
X116684473Y-116566454D01*
X116838037Y-116692481D01*
X117013237Y-116786127D01*
X117203340Y-116843794D01*
X117401041Y-116863266D01*
X117598742Y-116843794D01*
X117788845Y-116786127D01*
X117964045Y-116692481D01*
X118117609Y-116566454D01*
X118243636Y-116412890D01*
X118337282Y-116237690D01*
X118394949Y-116047587D01*
X118414421Y-115849886D01*
X118394949Y-115652185D01*
X118337282Y-115462082D01*
X118243636Y-115286882D01*
X118117609Y-115133318D01*
X117964045Y-115007291D01*
X117937822Y-114993274D01*
X117794217Y-114916516D01*
X117794213Y-114916514D01*
X117788845Y-114913645D01*
X117783017Y-114911877D01*
X117604572Y-114857746D01*
X117604567Y-114857745D01*
X117598742Y-114855978D01*
X117592683Y-114855381D01*
X117592677Y-114855380D01*
X117407102Y-114837103D01*
X117401041Y-114836506D01*
X117394980Y-114837103D01*
X117209404Y-114855380D01*
X117209396Y-114855381D01*
X117203340Y-114855978D01*
X117197516Y-114857744D01*
X117197509Y-114857746D01*
X117019064Y-114911877D01*
X117019060Y-114911878D01*
X117013237Y-114913645D01*
X117007871Y-114916512D01*
X117007864Y-114916516D01*
X116843413Y-115004417D01*
X116843409Y-115004419D01*
X116838037Y-115007291D01*
X116833329Y-115011154D01*
X116833324Y-115011158D01*
X116689179Y-115129455D01*
X116689174Y-115129459D01*
X116684473Y-115133318D01*
X116680614Y-115138019D01*
X116680610Y-115138024D01*
X116562313Y-115282169D01*
X116562309Y-115282174D01*
X116558446Y-115286882D01*
X116555574Y-115292254D01*
X116555572Y-115292258D01*
X116467671Y-115456709D01*
X116467667Y-115456716D01*
X116464800Y-115462082D01*
X116463033Y-115467905D01*
X116463032Y-115467909D01*
X116408901Y-115646354D01*
X116408899Y-115646361D01*
X116407133Y-115652185D01*
X116406536Y-115658241D01*
X116406535Y-115658249D01*
X116389168Y-115834581D01*
X116387661Y-115849886D01*
X113614320Y-115849886D01*
X113594848Y-115652185D01*
X113537181Y-115462082D01*
X113443535Y-115286882D01*
X113317508Y-115133318D01*
X113163944Y-115007291D01*
X113137721Y-114993274D01*
X112994116Y-114916516D01*
X112994112Y-114916514D01*
X112988744Y-114913645D01*
X112982916Y-114911877D01*
X112804471Y-114857746D01*
X112804466Y-114857745D01*
X112798641Y-114855978D01*
X112792582Y-114855381D01*
X112792576Y-114855380D01*
X112607001Y-114837103D01*
X112600940Y-114836506D01*
X112594879Y-114837103D01*
X112409303Y-114855380D01*
X112409295Y-114855381D01*
X112403239Y-114855978D01*
X112397415Y-114857744D01*
X112397408Y-114857746D01*
X112218963Y-114911877D01*
X112218959Y-114911878D01*
X112213136Y-114913645D01*
X112207770Y-114916512D01*
X112207763Y-114916516D01*
X112043312Y-115004417D01*
X112043308Y-115004419D01*
X112037936Y-115007291D01*
X112033228Y-115011154D01*
X112033223Y-115011158D01*
X111889078Y-115129455D01*
X111889073Y-115129459D01*
X111884372Y-115133318D01*
X111880513Y-115138019D01*
X111880509Y-115138024D01*
X111762212Y-115282169D01*
X111762208Y-115282174D01*
X111758345Y-115286882D01*
X111755473Y-115292254D01*
X111755471Y-115292258D01*
X111667570Y-115456709D01*
X111667566Y-115456716D01*
X111664699Y-115462082D01*
X111662932Y-115467905D01*
X111662931Y-115467909D01*
X111608800Y-115646354D01*
X111608798Y-115646361D01*
X111607032Y-115652185D01*
X111606435Y-115658241D01*
X111606434Y-115658249D01*
X111589067Y-115834581D01*
X111587560Y-115849886D01*
X107200500Y-115849886D01*
X107200500Y-88890176D01*
X109041692Y-88890176D01*
X109041915Y-88895430D01*
X109041915Y-88895435D01*
X109046996Y-89015041D01*
X109051839Y-89129042D01*
X109052946Y-89134183D01*
X109052948Y-89134191D01*
X109101098Y-89357608D01*
X109102208Y-89362757D01*
X109191351Y-89584597D01*
X109194109Y-89589076D01*
X109313944Y-89783702D01*
X109313947Y-89783706D01*
X109316703Y-89788182D01*
X109474658Y-89967653D01*
X109660672Y-90117849D01*
X109767683Y-90177629D01*
X109864792Y-90231878D01*
X109864794Y-90231879D01*
X109869393Y-90234448D01*
X110094817Y-90314095D01*
X110330459Y-90354500D01*
X110507033Y-90354500D01*
X110509664Y-90354500D01*
X110688220Y-90339303D01*
X110919587Y-90279059D01*
X111137444Y-90180581D01*
X111335525Y-90046702D01*
X111508131Y-89881273D01*
X111650297Y-89689052D01*
X111757932Y-89475570D01*
X111827940Y-89246969D01*
X111858308Y-89009824D01*
X111853225Y-88890176D01*
X167141692Y-88890176D01*
X167141915Y-88895430D01*
X167141915Y-88895435D01*
X167146996Y-89015041D01*
X167151839Y-89129042D01*
X167152946Y-89134183D01*
X167152948Y-89134191D01*
X167201098Y-89357608D01*
X167202208Y-89362757D01*
X167291351Y-89584597D01*
X167294109Y-89589076D01*
X167413944Y-89783702D01*
X167413947Y-89783706D01*
X167416703Y-89788182D01*
X167574658Y-89967653D01*
X167760672Y-90117849D01*
X167867683Y-90177629D01*
X167964792Y-90231878D01*
X167964794Y-90231879D01*
X167969393Y-90234448D01*
X168194817Y-90314095D01*
X168430459Y-90354500D01*
X168607033Y-90354500D01*
X168609664Y-90354500D01*
X168788220Y-90339303D01*
X169019587Y-90279059D01*
X169237444Y-90180581D01*
X169435525Y-90046702D01*
X169608131Y-89881273D01*
X169750297Y-89689052D01*
X169857932Y-89475570D01*
X169927940Y-89246969D01*
X169958308Y-89009824D01*
X169948161Y-88770958D01*
X169897792Y-88537243D01*
X169808649Y-88315403D01*
X169683297Y-88111818D01*
X169525342Y-87932347D01*
X169339328Y-87782151D01*
X169232316Y-87722370D01*
X169135207Y-87668121D01*
X169135200Y-87668117D01*
X169130607Y-87665552D01*
X169124112Y-87663257D01*
X168910152Y-87587660D01*
X168910144Y-87587658D01*
X168905183Y-87585905D01*
X168899992Y-87585015D01*
X168899985Y-87585013D01*
X168674734Y-87546390D01*
X168674728Y-87546389D01*
X168669541Y-87545500D01*
X168490336Y-87545500D01*
X168487721Y-87545722D01*
X168487710Y-87545723D01*
X168317031Y-87560250D01*
X168317030Y-87560250D01*
X168311780Y-87560697D01*
X168306686Y-87562023D01*
X168306682Y-87562024D01*
X168085513Y-87619612D01*
X168085501Y-87619615D01*
X168080413Y-87620941D01*
X168075611Y-87623111D01*
X168075607Y-87623113D01*
X167867359Y-87717247D01*
X167867350Y-87717251D01*
X167862556Y-87719419D01*
X167858193Y-87722367D01*
X167858189Y-87722370D01*
X167668841Y-87850346D01*
X167668832Y-87850352D01*
X167664475Y-87853298D01*
X167660675Y-87856939D01*
X167660670Y-87856944D01*
X167495668Y-88015085D01*
X167495662Y-88015091D01*
X167491869Y-88018727D01*
X167488747Y-88022947D01*
X167488741Y-88022955D01*
X167352829Y-88206721D01*
X167349703Y-88210948D01*
X167347338Y-88215637D01*
X167347334Y-88215645D01*
X167244439Y-88419727D01*
X167242068Y-88424430D01*
X167240527Y-88429460D01*
X167240526Y-88429464D01*
X167173601Y-88647996D01*
X167173598Y-88648006D01*
X167172060Y-88653031D01*
X167171391Y-88658249D01*
X167171391Y-88658253D01*
X167156284Y-88776223D01*
X167141692Y-88890176D01*
X111853225Y-88890176D01*
X111848161Y-88770958D01*
X111797792Y-88537243D01*
X111708649Y-88315403D01*
X111583297Y-88111818D01*
X111425342Y-87932347D01*
X111239328Y-87782151D01*
X111132316Y-87722370D01*
X111035207Y-87668121D01*
X111035200Y-87668117D01*
X111030607Y-87665552D01*
X111024112Y-87663257D01*
X110810152Y-87587660D01*
X110810144Y-87587658D01*
X110805183Y-87585905D01*
X110799992Y-87585015D01*
X110799985Y-87585013D01*
X110574734Y-87546390D01*
X110574728Y-87546389D01*
X110569541Y-87545500D01*
X110390336Y-87545500D01*
X110387721Y-87545722D01*
X110387710Y-87545723D01*
X110217031Y-87560250D01*
X110217030Y-87560250D01*
X110211780Y-87560697D01*
X110206686Y-87562023D01*
X110206682Y-87562024D01*
X109985513Y-87619612D01*
X109985501Y-87619615D01*
X109980413Y-87620941D01*
X109975611Y-87623111D01*
X109975607Y-87623113D01*
X109767359Y-87717247D01*
X109767350Y-87717251D01*
X109762556Y-87719419D01*
X109758193Y-87722367D01*
X109758189Y-87722370D01*
X109568841Y-87850346D01*
X109568832Y-87850352D01*
X109564475Y-87853298D01*
X109560675Y-87856939D01*
X109560670Y-87856944D01*
X109395668Y-88015085D01*
X109395662Y-88015091D01*
X109391869Y-88018727D01*
X109388747Y-88022947D01*
X109388741Y-88022955D01*
X109252829Y-88206721D01*
X109249703Y-88210948D01*
X109247338Y-88215637D01*
X109247334Y-88215645D01*
X109144439Y-88419727D01*
X109142068Y-88424430D01*
X109140527Y-88429460D01*
X109140526Y-88429464D01*
X109073601Y-88647996D01*
X109073598Y-88648006D01*
X109072060Y-88653031D01*
X109071391Y-88658249D01*
X109071391Y-88658253D01*
X109056284Y-88776223D01*
X109041692Y-88890176D01*
X107200500Y-88890176D01*
X107200500Y-85824500D01*
X107217113Y-85762500D01*
X107262500Y-85717113D01*
X107324500Y-85700500D01*
X171675500Y-85700500D01*
X171737500Y-85717113D01*
G37*
%TD.AperFunction*%
%TD*%
M02*
