%TF.GenerationSoftware,KiCad,Pcbnew,7.0.0-da2b9df05c~171~ubuntu22.04.1*%
%TF.CreationDate,2023-03-09T10:18:31-08:00*%
%TF.ProjectId,CAD,4341442e-6b69-4636-9164-5f7063625858,rev?*%
%TF.SameCoordinates,Original*%
%TF.FileFunction,Soldermask,Bot*%
%TF.FilePolarity,Negative*%
%FSLAX46Y46*%
G04 Gerber Fmt 4.6, Leading zero omitted, Abs format (unit mm)*
G04 Created by KiCad (PCBNEW 7.0.0-da2b9df05c~171~ubuntu22.04.1) date 2023-03-09 10:18:31*
%MOMM*%
%LPD*%
G01*
G04 APERTURE LIST*
%ADD10C,2.402000*%
%ADD11O,2.302000X1.302000*%
%ADD12O,2.802000X1.302000*%
%ADD13O,2.702000X1.302000*%
G04 APERTURE END LIST*
%TO.C,U20*%
G36*
X461410917Y-258635547D02*
G01*
X461757964Y-258740823D01*
X462077805Y-258911781D01*
X462358148Y-259141852D01*
X462588219Y-259422195D01*
X462759177Y-259742036D01*
X462864453Y-260089083D01*
X462900000Y-260450000D01*
X462864453Y-260810917D01*
X462759177Y-261157964D01*
X462588219Y-261477805D01*
X462358148Y-261758148D01*
X462077805Y-261988219D01*
X461757964Y-262159177D01*
X461410917Y-262264453D01*
X461050000Y-262300000D01*
X460689083Y-262264453D01*
X460342036Y-262159177D01*
X460022195Y-261988219D01*
X459741852Y-261758148D01*
X459511781Y-261477805D01*
X459340823Y-261157964D01*
X459235547Y-260810917D01*
X459200000Y-260450000D01*
X459235547Y-260089083D01*
X459340823Y-259742036D01*
X459511781Y-259422195D01*
X459741852Y-259141852D01*
X460022195Y-258911781D01*
X460342036Y-258740823D01*
X460689083Y-258635547D01*
X461050000Y-258600000D01*
X461410917Y-258635547D01*
G37*
%TO.C,U21*%
G36*
X403310917Y-296735547D02*
G01*
X403657964Y-296840823D01*
X403977805Y-297011781D01*
X404258148Y-297241852D01*
X404488219Y-297522195D01*
X404659177Y-297842036D01*
X404764453Y-298189083D01*
X404800000Y-298550000D01*
X404764453Y-298910917D01*
X404659177Y-299257964D01*
X404488219Y-299577805D01*
X404258148Y-299858148D01*
X403977805Y-300088219D01*
X403657964Y-300259177D01*
X403310917Y-300364453D01*
X402950000Y-300400000D01*
X402589083Y-300364453D01*
X402242036Y-300259177D01*
X401922195Y-300088219D01*
X401641852Y-299858148D01*
X401411781Y-299577805D01*
X401240823Y-299257964D01*
X401135547Y-298910917D01*
X401100000Y-298550000D01*
X401135547Y-298189083D01*
X401240823Y-297842036D01*
X401411781Y-297522195D01*
X401641852Y-297241852D01*
X401922195Y-297011781D01*
X402242036Y-296840823D01*
X402589083Y-296735547D01*
X402950000Y-296700000D01*
X403310917Y-296735547D01*
G37*
%TO.C,U19*%
G36*
X403310917Y-258635547D02*
G01*
X403657964Y-258740823D01*
X403977805Y-258911781D01*
X404258148Y-259141852D01*
X404488219Y-259422195D01*
X404659177Y-259742036D01*
X404764453Y-260089083D01*
X404800000Y-260450000D01*
X404764453Y-260810917D01*
X404659177Y-261157964D01*
X404488219Y-261477805D01*
X404258148Y-261758148D01*
X403977805Y-261988219D01*
X403657964Y-262159177D01*
X403310917Y-262264453D01*
X402950000Y-262300000D01*
X402589083Y-262264453D01*
X402242036Y-262159177D01*
X401922195Y-261988219D01*
X401641852Y-261758148D01*
X401411781Y-261477805D01*
X401240823Y-261157964D01*
X401135547Y-260810917D01*
X401100000Y-260450000D01*
X401135547Y-260089083D01*
X401240823Y-259742036D01*
X401411781Y-259422195D01*
X401641852Y-259141852D01*
X401922195Y-258911781D01*
X402242036Y-258740823D01*
X402589083Y-258635547D01*
X402950000Y-258600000D01*
X403310917Y-258635547D01*
G37*
%TO.C,U22*%
G36*
X461410917Y-296735547D02*
G01*
X461757964Y-296840823D01*
X462077805Y-297011781D01*
X462358148Y-297241852D01*
X462588219Y-297522195D01*
X462759177Y-297842036D01*
X462864453Y-298189083D01*
X462900000Y-298550000D01*
X462864453Y-298910917D01*
X462759177Y-299257964D01*
X462588219Y-299577805D01*
X462358148Y-299858148D01*
X462077805Y-300088219D01*
X461757964Y-300259177D01*
X461410917Y-300364453D01*
X461050000Y-300400000D01*
X460689083Y-300364453D01*
X460342036Y-300259177D01*
X460022195Y-300088219D01*
X459741852Y-299858148D01*
X459511781Y-299577805D01*
X459340823Y-299257964D01*
X459235547Y-298910917D01*
X459200000Y-298550000D01*
X459235547Y-298189083D01*
X459340823Y-297842036D01*
X459511781Y-297522195D01*
X459741852Y-297241852D01*
X460022195Y-297011781D01*
X460342036Y-296840823D01*
X460689083Y-296735547D01*
X461050000Y-296700000D01*
X461410917Y-296735547D01*
G37*
%TD*%
D10*
%TO.C,U20*%
X461050000Y-260450000D03*
%TD*%
%TO.C,U21*%
X402950000Y-298550000D03*
%TD*%
%TO.C,U19*%
X402950000Y-260450000D03*
%TD*%
D11*
%TO.C,U24*%
X457139999Y-290819999D03*
X457139999Y-282179999D03*
D12*
X462499999Y-290819999D03*
D13*
X462499999Y-282179999D03*
%TD*%
D11*
%TO.C,U23*%
X406859999Y-282179999D03*
X406859999Y-290819999D03*
D12*
X401499999Y-282179999D03*
D13*
X401499999Y-290819999D03*
%TD*%
D10*
%TO.C,U22*%
X461050000Y-298550000D03*
%TD*%
M02*
