%TF.GenerationSoftware,KiCad,Pcbnew,7.0.0-da2b9df05c~171~ubuntu22.04.1*%
%TF.CreationDate,2023-03-09T10:18:31-08:00*%
%TF.ProjectId,CAD,4341442e-6b69-4636-9164-5f7063625858,rev?*%
%TF.SameCoordinates,Original*%
%TF.FileFunction,Legend,Bot*%
%TF.FilePolarity,Positive*%
%FSLAX46Y46*%
G04 Gerber Fmt 4.6, Leading zero omitted, Abs format (unit mm)*
G04 Created by KiCad (PCBNEW 7.0.0-da2b9df05c~171~ubuntu22.04.1) date 2023-03-09 10:18:31*
%MOMM*%
%LPD*%
G01*
G04 APERTURE LIST*
%ADD10C,0.100000*%
%ADD11C,2.402000*%
%ADD12O,2.302000X1.302000*%
%ADD13O,2.802000X1.302000*%
%ADD14O,2.702000X1.302000*%
G04 APERTURE END LIST*
D10*
%TO.C,TXT19*%
X459061709Y-257877071D02*
X459061709Y-259091357D01*
X459061709Y-259091357D02*
X458990280Y-259234214D01*
X458990280Y-259234214D02*
X458918852Y-259305642D01*
X458918852Y-259305642D02*
X458775994Y-259377071D01*
X458775994Y-259377071D02*
X458490280Y-259377071D01*
X458490280Y-259377071D02*
X458347423Y-259305642D01*
X458347423Y-259305642D02*
X458275994Y-259234214D01*
X458275994Y-259234214D02*
X458204566Y-259091357D01*
X458204566Y-259091357D02*
X458204566Y-257877071D01*
X457561708Y-259305642D02*
X457347423Y-259377071D01*
X457347423Y-259377071D02*
X456990280Y-259377071D01*
X456990280Y-259377071D02*
X456847423Y-259305642D01*
X456847423Y-259305642D02*
X456775994Y-259234214D01*
X456775994Y-259234214D02*
X456704565Y-259091357D01*
X456704565Y-259091357D02*
X456704565Y-258948500D01*
X456704565Y-258948500D02*
X456775994Y-258805642D01*
X456775994Y-258805642D02*
X456847423Y-258734214D01*
X456847423Y-258734214D02*
X456990280Y-258662785D01*
X456990280Y-258662785D02*
X457275994Y-258591357D01*
X457275994Y-258591357D02*
X457418851Y-258519928D01*
X457418851Y-258519928D02*
X457490280Y-258448500D01*
X457490280Y-258448500D02*
X457561708Y-258305642D01*
X457561708Y-258305642D02*
X457561708Y-258162785D01*
X457561708Y-258162785D02*
X457490280Y-258019928D01*
X457490280Y-258019928D02*
X457418851Y-257948500D01*
X457418851Y-257948500D02*
X457275994Y-257877071D01*
X457275994Y-257877071D02*
X456918851Y-257877071D01*
X456918851Y-257877071D02*
X456704565Y-257948500D01*
X455561709Y-258591357D02*
X455347423Y-258662785D01*
X455347423Y-258662785D02*
X455275994Y-258734214D01*
X455275994Y-258734214D02*
X455204566Y-258877071D01*
X455204566Y-258877071D02*
X455204566Y-259091357D01*
X455204566Y-259091357D02*
X455275994Y-259234214D01*
X455275994Y-259234214D02*
X455347423Y-259305642D01*
X455347423Y-259305642D02*
X455490280Y-259377071D01*
X455490280Y-259377071D02*
X456061709Y-259377071D01*
X456061709Y-259377071D02*
X456061709Y-257877071D01*
X456061709Y-257877071D02*
X455561709Y-257877071D01*
X455561709Y-257877071D02*
X455418852Y-257948500D01*
X455418852Y-257948500D02*
X455347423Y-258019928D01*
X455347423Y-258019928D02*
X455275994Y-258162785D01*
X455275994Y-258162785D02*
X455275994Y-258305642D01*
X455275994Y-258305642D02*
X455347423Y-258448500D01*
X455347423Y-258448500D02*
X455418852Y-258519928D01*
X455418852Y-258519928D02*
X455561709Y-258591357D01*
X455561709Y-258591357D02*
X456061709Y-258591357D01*
X454561709Y-258805642D02*
X453418852Y-258805642D01*
X451847423Y-259234214D02*
X451918851Y-259305642D01*
X451918851Y-259305642D02*
X452133137Y-259377071D01*
X452133137Y-259377071D02*
X452275994Y-259377071D01*
X452275994Y-259377071D02*
X452490280Y-259305642D01*
X452490280Y-259305642D02*
X452633137Y-259162785D01*
X452633137Y-259162785D02*
X452704566Y-259019928D01*
X452704566Y-259019928D02*
X452775994Y-258734214D01*
X452775994Y-258734214D02*
X452775994Y-258519928D01*
X452775994Y-258519928D02*
X452704566Y-258234214D01*
X452704566Y-258234214D02*
X452633137Y-258091357D01*
X452633137Y-258091357D02*
X452490280Y-257948500D01*
X452490280Y-257948500D02*
X452275994Y-257877071D01*
X452275994Y-257877071D02*
X452133137Y-257877071D01*
X452133137Y-257877071D02*
X451918851Y-257948500D01*
X451918851Y-257948500D02*
X451847423Y-258019928D01*
X449447423Y-259234214D02*
X449518851Y-259305642D01*
X449518851Y-259305642D02*
X449733137Y-259377071D01*
X449733137Y-259377071D02*
X449875994Y-259377071D01*
X449875994Y-259377071D02*
X450090280Y-259305642D01*
X450090280Y-259305642D02*
X450233137Y-259162785D01*
X450233137Y-259162785D02*
X450304566Y-259019928D01*
X450304566Y-259019928D02*
X450375994Y-258734214D01*
X450375994Y-258734214D02*
X450375994Y-258519928D01*
X450375994Y-258519928D02*
X450304566Y-258234214D01*
X450304566Y-258234214D02*
X450233137Y-258091357D01*
X450233137Y-258091357D02*
X450090280Y-257948500D01*
X450090280Y-257948500D02*
X449875994Y-257877071D01*
X449875994Y-257877071D02*
X449733137Y-257877071D01*
X449733137Y-257877071D02*
X449518851Y-257948500D01*
X449518851Y-257948500D02*
X449447423Y-258019928D01*
X448161709Y-259377071D02*
X448161709Y-258591357D01*
X448161709Y-258591357D02*
X448233137Y-258448500D01*
X448233137Y-258448500D02*
X448375994Y-258377071D01*
X448375994Y-258377071D02*
X448661709Y-258377071D01*
X448661709Y-258377071D02*
X448804566Y-258448500D01*
X448161709Y-259305642D02*
X448304566Y-259377071D01*
X448304566Y-259377071D02*
X448661709Y-259377071D01*
X448661709Y-259377071D02*
X448804566Y-259305642D01*
X448804566Y-259305642D02*
X448875994Y-259162785D01*
X448875994Y-259162785D02*
X448875994Y-259019928D01*
X448875994Y-259019928D02*
X448804566Y-258877071D01*
X448804566Y-258877071D02*
X448661709Y-258805642D01*
X448661709Y-258805642D02*
X448304566Y-258805642D01*
X448304566Y-258805642D02*
X448161709Y-258734214D01*
X447447423Y-259377071D02*
X447447423Y-257877071D01*
X447447423Y-258448500D02*
X447304566Y-258377071D01*
X447304566Y-258377071D02*
X447018851Y-258377071D01*
X447018851Y-258377071D02*
X446875994Y-258448500D01*
X446875994Y-258448500D02*
X446804566Y-258519928D01*
X446804566Y-258519928D02*
X446733137Y-258662785D01*
X446733137Y-258662785D02*
X446733137Y-259091357D01*
X446733137Y-259091357D02*
X446804566Y-259234214D01*
X446804566Y-259234214D02*
X446875994Y-259305642D01*
X446875994Y-259305642D02*
X447018851Y-259377071D01*
X447018851Y-259377071D02*
X447304566Y-259377071D01*
X447304566Y-259377071D02*
X447447423Y-259305642D01*
X445875994Y-259377071D02*
X446018851Y-259305642D01*
X446018851Y-259305642D02*
X446090280Y-259162785D01*
X446090280Y-259162785D02*
X446090280Y-257877071D01*
X444733137Y-259305642D02*
X444875994Y-259377071D01*
X444875994Y-259377071D02*
X445161709Y-259377071D01*
X445161709Y-259377071D02*
X445304566Y-259305642D01*
X445304566Y-259305642D02*
X445375994Y-259162785D01*
X445375994Y-259162785D02*
X445375994Y-258591357D01*
X445375994Y-258591357D02*
X445304566Y-258448500D01*
X445304566Y-258448500D02*
X445161709Y-258377071D01*
X445161709Y-258377071D02*
X444875994Y-258377071D01*
X444875994Y-258377071D02*
X444733137Y-258448500D01*
X444733137Y-258448500D02*
X444661709Y-258591357D01*
X444661709Y-258591357D02*
X444661709Y-258734214D01*
X444661709Y-258734214D02*
X445375994Y-258877071D01*
X443333137Y-257877071D02*
X442475995Y-257877071D01*
X442904566Y-259377071D02*
X442904566Y-257877071D01*
X441404566Y-259305642D02*
X441547423Y-259377071D01*
X441547423Y-259377071D02*
X441833138Y-259377071D01*
X441833138Y-259377071D02*
X441975995Y-259305642D01*
X441975995Y-259305642D02*
X442047423Y-259162785D01*
X442047423Y-259162785D02*
X442047423Y-258591357D01*
X442047423Y-258591357D02*
X441975995Y-258448500D01*
X441975995Y-258448500D02*
X441833138Y-258377071D01*
X441833138Y-258377071D02*
X441547423Y-258377071D01*
X441547423Y-258377071D02*
X441404566Y-258448500D01*
X441404566Y-258448500D02*
X441333138Y-258591357D01*
X441333138Y-258591357D02*
X441333138Y-258734214D01*
X441333138Y-258734214D02*
X442047423Y-258877071D01*
X440761709Y-259305642D02*
X440618852Y-259377071D01*
X440618852Y-259377071D02*
X440333138Y-259377071D01*
X440333138Y-259377071D02*
X440190281Y-259305642D01*
X440190281Y-259305642D02*
X440118852Y-259162785D01*
X440118852Y-259162785D02*
X440118852Y-259091357D01*
X440118852Y-259091357D02*
X440190281Y-258948500D01*
X440190281Y-258948500D02*
X440333138Y-258877071D01*
X440333138Y-258877071D02*
X440547424Y-258877071D01*
X440547424Y-258877071D02*
X440690281Y-258805642D01*
X440690281Y-258805642D02*
X440761709Y-258662785D01*
X440761709Y-258662785D02*
X440761709Y-258591357D01*
X440761709Y-258591357D02*
X440690281Y-258448500D01*
X440690281Y-258448500D02*
X440547424Y-258377071D01*
X440547424Y-258377071D02*
X440333138Y-258377071D01*
X440333138Y-258377071D02*
X440190281Y-258448500D01*
X439690280Y-258377071D02*
X439118852Y-258377071D01*
X439475995Y-257877071D02*
X439475995Y-259162785D01*
X439475995Y-259162785D02*
X439404566Y-259305642D01*
X439404566Y-259305642D02*
X439261709Y-259377071D01*
X439261709Y-259377071D02*
X439118852Y-259377071D01*
X438047423Y-259305642D02*
X438190280Y-259377071D01*
X438190280Y-259377071D02*
X438475995Y-259377071D01*
X438475995Y-259377071D02*
X438618852Y-259305642D01*
X438618852Y-259305642D02*
X438690280Y-259162785D01*
X438690280Y-259162785D02*
X438690280Y-258591357D01*
X438690280Y-258591357D02*
X438618852Y-258448500D01*
X438618852Y-258448500D02*
X438475995Y-258377071D01*
X438475995Y-258377071D02*
X438190280Y-258377071D01*
X438190280Y-258377071D02*
X438047423Y-258448500D01*
X438047423Y-258448500D02*
X437975995Y-258591357D01*
X437975995Y-258591357D02*
X437975995Y-258734214D01*
X437975995Y-258734214D02*
X438690280Y-258877071D01*
X437333138Y-259377071D02*
X437333138Y-258377071D01*
X437333138Y-258662785D02*
X437261709Y-258519928D01*
X437261709Y-258519928D02*
X437190281Y-258448500D01*
X437190281Y-258448500D02*
X437047423Y-258377071D01*
X437047423Y-258377071D02*
X436904566Y-258377071D01*
X435147424Y-259877071D02*
X435147424Y-257734214D01*
X433390281Y-257877071D02*
X432890281Y-259377071D01*
X432890281Y-259377071D02*
X432390281Y-257877071D01*
X431318853Y-259305642D02*
X431461710Y-259377071D01*
X431461710Y-259377071D02*
X431747425Y-259377071D01*
X431747425Y-259377071D02*
X431890282Y-259305642D01*
X431890282Y-259305642D02*
X431961710Y-259162785D01*
X431961710Y-259162785D02*
X431961710Y-258591357D01*
X431961710Y-258591357D02*
X431890282Y-258448500D01*
X431890282Y-258448500D02*
X431747425Y-258377071D01*
X431747425Y-258377071D02*
X431461710Y-258377071D01*
X431461710Y-258377071D02*
X431318853Y-258448500D01*
X431318853Y-258448500D02*
X431247425Y-258591357D01*
X431247425Y-258591357D02*
X431247425Y-258734214D01*
X431247425Y-258734214D02*
X431961710Y-258877071D01*
X430604568Y-259377071D02*
X430604568Y-258377071D01*
X430604568Y-258662785D02*
X430533139Y-258519928D01*
X430533139Y-258519928D02*
X430461711Y-258448500D01*
X430461711Y-258448500D02*
X430318853Y-258377071D01*
X430318853Y-258377071D02*
X430175996Y-258377071D01*
X429747425Y-259305642D02*
X429604568Y-259377071D01*
X429604568Y-259377071D02*
X429318854Y-259377071D01*
X429318854Y-259377071D02*
X429175997Y-259305642D01*
X429175997Y-259305642D02*
X429104568Y-259162785D01*
X429104568Y-259162785D02*
X429104568Y-259091357D01*
X429104568Y-259091357D02*
X429175997Y-258948500D01*
X429175997Y-258948500D02*
X429318854Y-258877071D01*
X429318854Y-258877071D02*
X429533140Y-258877071D01*
X429533140Y-258877071D02*
X429675997Y-258805642D01*
X429675997Y-258805642D02*
X429747425Y-258662785D01*
X429747425Y-258662785D02*
X429747425Y-258591357D01*
X429747425Y-258591357D02*
X429675997Y-258448500D01*
X429675997Y-258448500D02*
X429533140Y-258377071D01*
X429533140Y-258377071D02*
X429318854Y-258377071D01*
X429318854Y-258377071D02*
X429175997Y-258448500D01*
X428461711Y-259377071D02*
X428461711Y-258377071D01*
X428461711Y-257877071D02*
X428533139Y-257948500D01*
X428533139Y-257948500D02*
X428461711Y-258019928D01*
X428461711Y-258019928D02*
X428390282Y-257948500D01*
X428390282Y-257948500D02*
X428461711Y-257877071D01*
X428461711Y-257877071D02*
X428461711Y-258019928D01*
X427533139Y-259377071D02*
X427675996Y-259305642D01*
X427675996Y-259305642D02*
X427747425Y-259234214D01*
X427747425Y-259234214D02*
X427818853Y-259091357D01*
X427818853Y-259091357D02*
X427818853Y-258662785D01*
X427818853Y-258662785D02*
X427747425Y-258519928D01*
X427747425Y-258519928D02*
X427675996Y-258448500D01*
X427675996Y-258448500D02*
X427533139Y-258377071D01*
X427533139Y-258377071D02*
X427318853Y-258377071D01*
X427318853Y-258377071D02*
X427175996Y-258448500D01*
X427175996Y-258448500D02*
X427104568Y-258519928D01*
X427104568Y-258519928D02*
X427033139Y-258662785D01*
X427033139Y-258662785D02*
X427033139Y-259091357D01*
X427033139Y-259091357D02*
X427104568Y-259234214D01*
X427104568Y-259234214D02*
X427175996Y-259305642D01*
X427175996Y-259305642D02*
X427318853Y-259377071D01*
X427318853Y-259377071D02*
X427533139Y-259377071D01*
X426390282Y-258377071D02*
X426390282Y-259377071D01*
X426390282Y-258519928D02*
X426318853Y-258448500D01*
X426318853Y-258448500D02*
X426175996Y-258377071D01*
X426175996Y-258377071D02*
X425961710Y-258377071D01*
X425961710Y-258377071D02*
X425818853Y-258448500D01*
X425818853Y-258448500D02*
X425747425Y-258591357D01*
X425747425Y-258591357D02*
X425747425Y-259377071D01*
X423847424Y-257877071D02*
X423704567Y-257877071D01*
X423704567Y-257877071D02*
X423561710Y-257948500D01*
X423561710Y-257948500D02*
X423490282Y-258019928D01*
X423490282Y-258019928D02*
X423418853Y-258162785D01*
X423418853Y-258162785D02*
X423347424Y-258448500D01*
X423347424Y-258448500D02*
X423347424Y-258805642D01*
X423347424Y-258805642D02*
X423418853Y-259091357D01*
X423418853Y-259091357D02*
X423490282Y-259234214D01*
X423490282Y-259234214D02*
X423561710Y-259305642D01*
X423561710Y-259305642D02*
X423704567Y-259377071D01*
X423704567Y-259377071D02*
X423847424Y-259377071D01*
X423847424Y-259377071D02*
X423990282Y-259305642D01*
X423990282Y-259305642D02*
X424061710Y-259234214D01*
X424061710Y-259234214D02*
X424133139Y-259091357D01*
X424133139Y-259091357D02*
X424204567Y-258805642D01*
X424204567Y-258805642D02*
X424204567Y-258448500D01*
X424204567Y-258448500D02*
X424133139Y-258162785D01*
X424133139Y-258162785D02*
X424061710Y-258019928D01*
X424061710Y-258019928D02*
X423990282Y-257948500D01*
X423990282Y-257948500D02*
X423847424Y-257877071D01*
X422704568Y-259234214D02*
X422633139Y-259305642D01*
X422633139Y-259305642D02*
X422704568Y-259377071D01*
X422704568Y-259377071D02*
X422775996Y-259305642D01*
X422775996Y-259305642D02*
X422704568Y-259234214D01*
X422704568Y-259234214D02*
X422704568Y-259377071D01*
X421204567Y-259377071D02*
X422061710Y-259377071D01*
X421633139Y-259377071D02*
X421633139Y-257877071D01*
X421633139Y-257877071D02*
X421775996Y-258091357D01*
X421775996Y-258091357D02*
X421918853Y-258234214D01*
X421918853Y-258234214D02*
X422061710Y-258305642D01*
X419733139Y-258019928D02*
X419661711Y-257948500D01*
X419661711Y-257948500D02*
X419518854Y-257877071D01*
X419518854Y-257877071D02*
X419161711Y-257877071D01*
X419161711Y-257877071D02*
X419018854Y-257948500D01*
X419018854Y-257948500D02*
X418947425Y-258019928D01*
X418947425Y-258019928D02*
X418875996Y-258162785D01*
X418875996Y-258162785D02*
X418875996Y-258305642D01*
X418875996Y-258305642D02*
X418947425Y-258519928D01*
X418947425Y-258519928D02*
X419804568Y-259377071D01*
X419804568Y-259377071D02*
X418875996Y-259377071D01*
X417947425Y-257877071D02*
X417804568Y-257877071D01*
X417804568Y-257877071D02*
X417661711Y-257948500D01*
X417661711Y-257948500D02*
X417590283Y-258019928D01*
X417590283Y-258019928D02*
X417518854Y-258162785D01*
X417518854Y-258162785D02*
X417447425Y-258448500D01*
X417447425Y-258448500D02*
X417447425Y-258805642D01*
X417447425Y-258805642D02*
X417518854Y-259091357D01*
X417518854Y-259091357D02*
X417590283Y-259234214D01*
X417590283Y-259234214D02*
X417661711Y-259305642D01*
X417661711Y-259305642D02*
X417804568Y-259377071D01*
X417804568Y-259377071D02*
X417947425Y-259377071D01*
X417947425Y-259377071D02*
X418090283Y-259305642D01*
X418090283Y-259305642D02*
X418161711Y-259234214D01*
X418161711Y-259234214D02*
X418233140Y-259091357D01*
X418233140Y-259091357D02*
X418304568Y-258805642D01*
X418304568Y-258805642D02*
X418304568Y-258448500D01*
X418304568Y-258448500D02*
X418233140Y-258162785D01*
X418233140Y-258162785D02*
X418161711Y-258019928D01*
X418161711Y-258019928D02*
X418090283Y-257948500D01*
X418090283Y-257948500D02*
X417947425Y-257877071D01*
X416875997Y-258019928D02*
X416804569Y-257948500D01*
X416804569Y-257948500D02*
X416661712Y-257877071D01*
X416661712Y-257877071D02*
X416304569Y-257877071D01*
X416304569Y-257877071D02*
X416161712Y-257948500D01*
X416161712Y-257948500D02*
X416090283Y-258019928D01*
X416090283Y-258019928D02*
X416018854Y-258162785D01*
X416018854Y-258162785D02*
X416018854Y-258305642D01*
X416018854Y-258305642D02*
X416090283Y-258519928D01*
X416090283Y-258519928D02*
X416947426Y-259377071D01*
X416947426Y-259377071D02*
X416018854Y-259377071D01*
X415518855Y-257877071D02*
X414590283Y-257877071D01*
X414590283Y-257877071D02*
X415090283Y-258448500D01*
X415090283Y-258448500D02*
X414875998Y-258448500D01*
X414875998Y-258448500D02*
X414733141Y-258519928D01*
X414733141Y-258519928D02*
X414661712Y-258591357D01*
X414661712Y-258591357D02*
X414590283Y-258734214D01*
X414590283Y-258734214D02*
X414590283Y-259091357D01*
X414590283Y-259091357D02*
X414661712Y-259234214D01*
X414661712Y-259234214D02*
X414733141Y-259305642D01*
X414733141Y-259305642D02*
X414875998Y-259377071D01*
X414875998Y-259377071D02*
X415304569Y-259377071D01*
X415304569Y-259377071D02*
X415447426Y-259305642D01*
X415447426Y-259305642D02*
X415518855Y-259234214D01*
X413947427Y-258805642D02*
X412804570Y-258805642D01*
X411804569Y-257877071D02*
X411661712Y-257877071D01*
X411661712Y-257877071D02*
X411518855Y-257948500D01*
X411518855Y-257948500D02*
X411447427Y-258019928D01*
X411447427Y-258019928D02*
X411375998Y-258162785D01*
X411375998Y-258162785D02*
X411304569Y-258448500D01*
X411304569Y-258448500D02*
X411304569Y-258805642D01*
X411304569Y-258805642D02*
X411375998Y-259091357D01*
X411375998Y-259091357D02*
X411447427Y-259234214D01*
X411447427Y-259234214D02*
X411518855Y-259305642D01*
X411518855Y-259305642D02*
X411661712Y-259377071D01*
X411661712Y-259377071D02*
X411804569Y-259377071D01*
X411804569Y-259377071D02*
X411947427Y-259305642D01*
X411947427Y-259305642D02*
X412018855Y-259234214D01*
X412018855Y-259234214D02*
X412090284Y-259091357D01*
X412090284Y-259091357D02*
X412161712Y-258805642D01*
X412161712Y-258805642D02*
X412161712Y-258448500D01*
X412161712Y-258448500D02*
X412090284Y-258162785D01*
X412090284Y-258162785D02*
X412018855Y-258019928D01*
X412018855Y-258019928D02*
X411947427Y-257948500D01*
X411947427Y-257948500D02*
X411804569Y-257877071D01*
X410804570Y-257877071D02*
X409875998Y-257877071D01*
X409875998Y-257877071D02*
X410375998Y-258448500D01*
X410375998Y-258448500D02*
X410161713Y-258448500D01*
X410161713Y-258448500D02*
X410018856Y-258519928D01*
X410018856Y-258519928D02*
X409947427Y-258591357D01*
X409947427Y-258591357D02*
X409875998Y-258734214D01*
X409875998Y-258734214D02*
X409875998Y-259091357D01*
X409875998Y-259091357D02*
X409947427Y-259234214D01*
X409947427Y-259234214D02*
X410018856Y-259305642D01*
X410018856Y-259305642D02*
X410161713Y-259377071D01*
X410161713Y-259377071D02*
X410590284Y-259377071D01*
X410590284Y-259377071D02*
X410733141Y-259305642D01*
X410733141Y-259305642D02*
X410804570Y-259234214D01*
X409233142Y-258805642D02*
X408090285Y-258805642D01*
X407090284Y-257877071D02*
X406947427Y-257877071D01*
X406947427Y-257877071D02*
X406804570Y-257948500D01*
X406804570Y-257948500D02*
X406733142Y-258019928D01*
X406733142Y-258019928D02*
X406661713Y-258162785D01*
X406661713Y-258162785D02*
X406590284Y-258448500D01*
X406590284Y-258448500D02*
X406590284Y-258805642D01*
X406590284Y-258805642D02*
X406661713Y-259091357D01*
X406661713Y-259091357D02*
X406733142Y-259234214D01*
X406733142Y-259234214D02*
X406804570Y-259305642D01*
X406804570Y-259305642D02*
X406947427Y-259377071D01*
X406947427Y-259377071D02*
X407090284Y-259377071D01*
X407090284Y-259377071D02*
X407233142Y-259305642D01*
X407233142Y-259305642D02*
X407304570Y-259234214D01*
X407304570Y-259234214D02*
X407375999Y-259091357D01*
X407375999Y-259091357D02*
X407447427Y-258805642D01*
X407447427Y-258805642D02*
X407447427Y-258448500D01*
X407447427Y-258448500D02*
X407375999Y-258162785D01*
X407375999Y-258162785D02*
X407304570Y-258019928D01*
X407304570Y-258019928D02*
X407233142Y-257948500D01*
X407233142Y-257948500D02*
X407090284Y-257877071D01*
X405733142Y-258519928D02*
X405875999Y-258448500D01*
X405875999Y-258448500D02*
X405947428Y-258377071D01*
X405947428Y-258377071D02*
X406018856Y-258234214D01*
X406018856Y-258234214D02*
X406018856Y-258162785D01*
X406018856Y-258162785D02*
X405947428Y-258019928D01*
X405947428Y-258019928D02*
X405875999Y-257948500D01*
X405875999Y-257948500D02*
X405733142Y-257877071D01*
X405733142Y-257877071D02*
X405447428Y-257877071D01*
X405447428Y-257877071D02*
X405304571Y-257948500D01*
X405304571Y-257948500D02*
X405233142Y-258019928D01*
X405233142Y-258019928D02*
X405161713Y-258162785D01*
X405161713Y-258162785D02*
X405161713Y-258234214D01*
X405161713Y-258234214D02*
X405233142Y-258377071D01*
X405233142Y-258377071D02*
X405304571Y-258448500D01*
X405304571Y-258448500D02*
X405447428Y-258519928D01*
X405447428Y-258519928D02*
X405733142Y-258519928D01*
X405733142Y-258519928D02*
X405875999Y-258591357D01*
X405875999Y-258591357D02*
X405947428Y-258662785D01*
X405947428Y-258662785D02*
X406018856Y-258805642D01*
X406018856Y-258805642D02*
X406018856Y-259091357D01*
X406018856Y-259091357D02*
X405947428Y-259234214D01*
X405947428Y-259234214D02*
X405875999Y-259305642D01*
X405875999Y-259305642D02*
X405733142Y-259377071D01*
X405733142Y-259377071D02*
X405447428Y-259377071D01*
X405447428Y-259377071D02*
X405304571Y-259305642D01*
X405304571Y-259305642D02*
X405233142Y-259234214D01*
X405233142Y-259234214D02*
X405161713Y-259091357D01*
X405161713Y-259091357D02*
X405161713Y-258805642D01*
X405161713Y-258805642D02*
X405233142Y-258662785D01*
X405233142Y-258662785D02*
X405304571Y-258591357D01*
X405304571Y-258591357D02*
X405447428Y-258519928D01*
%TO.C,JITX1*%
G36*
X429114696Y-278407023D02*
G01*
X428239792Y-280495598D01*
X426427096Y-280495368D01*
X427888227Y-276734076D01*
X429114696Y-278407023D01*
G37*
G36*
X433751933Y-273578843D02*
G01*
X434968676Y-280495547D01*
X433920036Y-280495521D01*
X433078240Y-275711460D01*
X431688094Y-275709411D01*
X431499813Y-274628738D01*
X432886810Y-274628149D01*
X432703779Y-273578766D01*
X433751933Y-273578843D01*
G37*
G36*
X426267452Y-273117568D02*
G01*
X426585186Y-273130538D01*
X426893327Y-273209102D01*
X427178484Y-273349847D01*
X427428263Y-273546656D01*
X428518789Y-275110862D01*
X427888227Y-276734076D01*
X425605806Y-273655173D01*
X425359189Y-273424788D01*
X425068593Y-273253176D01*
X424747764Y-273148455D01*
X424411882Y-273115580D01*
X426267452Y-273117568D01*
G37*
G36*
X429835247Y-276813386D02*
G01*
X432197877Y-279931322D01*
X432529357Y-280207010D01*
X432915656Y-280398467D01*
X433335785Y-280495291D01*
X431454772Y-280495022D01*
X431121990Y-280458913D01*
X430805105Y-280351061D01*
X430519390Y-280176662D01*
X430278614Y-279944123D01*
X429114696Y-278407023D01*
X427888227Y-276734076D01*
X428518789Y-275110862D01*
X429291659Y-273121316D01*
X431220171Y-273119575D01*
X429835247Y-276813386D01*
G37*
G36*
X438309683Y-280692886D02*
G01*
X438464402Y-281068370D01*
X438694816Y-281402789D01*
X438990565Y-281681104D01*
X439338349Y-281890801D01*
X439722530Y-282022449D01*
X440125833Y-282070130D01*
X440299692Y-283115596D01*
X439611907Y-282994624D01*
X438962889Y-282736827D01*
X438379554Y-282352895D01*
X437886093Y-281858750D01*
X437502968Y-281274885D01*
X437246069Y-280625511D01*
X436301671Y-275247967D01*
X437351438Y-275247915D01*
X438309683Y-280692886D01*
G37*
G36*
X435565859Y-273981191D02*
G01*
X435599674Y-274069063D01*
X435615697Y-274161846D01*
X435613310Y-274255972D01*
X435592607Y-274347823D01*
X435554382Y-274433871D01*
X435500104Y-274510808D01*
X435431860Y-274575678D01*
X435352272Y-274625987D01*
X435352271Y-274625987D01*
X435230919Y-274652664D01*
X435106683Y-274654546D01*
X434984577Y-274631559D01*
X434869530Y-274584629D01*
X434766185Y-274515652D01*
X434678712Y-274427410D01*
X434610642Y-274323465D01*
X434610643Y-274323465D01*
X434556407Y-274232285D01*
X434523821Y-274131322D01*
X434514518Y-274025639D01*
X434528964Y-273920537D01*
X434566437Y-273821284D01*
X434625055Y-273732857D01*
X434701881Y-273659692D01*
X434820238Y-273604724D01*
X434948105Y-273578648D01*
X435102682Y-273596681D01*
X435249040Y-273649581D01*
X435379425Y-273734543D01*
X435486930Y-273847067D01*
X435565859Y-273981191D01*
G37*
G36*
X436095646Y-275250781D02*
G01*
X436006089Y-275273308D01*
X435923686Y-275314994D01*
X435852478Y-275373793D01*
X435795957Y-275446822D01*
X435756895Y-275530501D01*
X435737208Y-275620725D01*
X435737861Y-275713069D01*
X436489337Y-280073894D01*
X436484185Y-280153338D01*
X436463634Y-280230250D01*
X436428473Y-280301675D01*
X436380053Y-280364869D01*
X436320236Y-280417402D01*
X436251318Y-280457255D01*
X436175950Y-280482898D01*
X436097028Y-280493345D01*
X435190756Y-280491475D01*
X435277723Y-280468137D01*
X435357317Y-280426032D01*
X435425545Y-280367271D01*
X435478987Y-280294801D01*
X435514964Y-280212256D01*
X435531670Y-280123775D01*
X435528269Y-280033795D01*
X434782419Y-275723239D01*
X434782046Y-275627452D01*
X434802997Y-275533983D01*
X434844222Y-275447521D01*
X434903652Y-275372399D01*
X434978309Y-275312386D01*
X435064448Y-275270490D01*
X435157751Y-275248812D01*
X436095646Y-275250781D01*
G37*
%TD*%
%LPC*%
%TO.C,U20*%
G36*
X461410917Y-258635547D02*
G01*
X461757964Y-258740823D01*
X462077805Y-258911781D01*
X462358148Y-259141852D01*
X462588219Y-259422195D01*
X462759177Y-259742036D01*
X462864453Y-260089083D01*
X462900000Y-260450000D01*
X462864453Y-260810917D01*
X462759177Y-261157964D01*
X462588219Y-261477805D01*
X462358148Y-261758148D01*
X462077805Y-261988219D01*
X461757964Y-262159177D01*
X461410917Y-262264453D01*
X461050000Y-262300000D01*
X460689083Y-262264453D01*
X460342036Y-262159177D01*
X460022195Y-261988219D01*
X459741852Y-261758148D01*
X459511781Y-261477805D01*
X459340823Y-261157964D01*
X459235547Y-260810917D01*
X459200000Y-260450000D01*
X459235547Y-260089083D01*
X459340823Y-259742036D01*
X459511781Y-259422195D01*
X459741852Y-259141852D01*
X460022195Y-258911781D01*
X460342036Y-258740823D01*
X460689083Y-258635547D01*
X461050000Y-258600000D01*
X461410917Y-258635547D01*
G37*
%TO.C,U21*%
G36*
X403310917Y-296735547D02*
G01*
X403657964Y-296840823D01*
X403977805Y-297011781D01*
X404258148Y-297241852D01*
X404488219Y-297522195D01*
X404659177Y-297842036D01*
X404764453Y-298189083D01*
X404800000Y-298550000D01*
X404764453Y-298910917D01*
X404659177Y-299257964D01*
X404488219Y-299577805D01*
X404258148Y-299858148D01*
X403977805Y-300088219D01*
X403657964Y-300259177D01*
X403310917Y-300364453D01*
X402950000Y-300400000D01*
X402589083Y-300364453D01*
X402242036Y-300259177D01*
X401922195Y-300088219D01*
X401641852Y-299858148D01*
X401411781Y-299577805D01*
X401240823Y-299257964D01*
X401135547Y-298910917D01*
X401100000Y-298550000D01*
X401135547Y-298189083D01*
X401240823Y-297842036D01*
X401411781Y-297522195D01*
X401641852Y-297241852D01*
X401922195Y-297011781D01*
X402242036Y-296840823D01*
X402589083Y-296735547D01*
X402950000Y-296700000D01*
X403310917Y-296735547D01*
G37*
%TO.C,U19*%
G36*
X403310917Y-258635547D02*
G01*
X403657964Y-258740823D01*
X403977805Y-258911781D01*
X404258148Y-259141852D01*
X404488219Y-259422195D01*
X404659177Y-259742036D01*
X404764453Y-260089083D01*
X404800000Y-260450000D01*
X404764453Y-260810917D01*
X404659177Y-261157964D01*
X404488219Y-261477805D01*
X404258148Y-261758148D01*
X403977805Y-261988219D01*
X403657964Y-262159177D01*
X403310917Y-262264453D01*
X402950000Y-262300000D01*
X402589083Y-262264453D01*
X402242036Y-262159177D01*
X401922195Y-261988219D01*
X401641852Y-261758148D01*
X401411781Y-261477805D01*
X401240823Y-261157964D01*
X401135547Y-260810917D01*
X401100000Y-260450000D01*
X401135547Y-260089083D01*
X401240823Y-259742036D01*
X401411781Y-259422195D01*
X401641852Y-259141852D01*
X401922195Y-258911781D01*
X402242036Y-258740823D01*
X402589083Y-258635547D01*
X402950000Y-258600000D01*
X403310917Y-258635547D01*
G37*
%TO.C,U22*%
G36*
X461410917Y-296735547D02*
G01*
X461757964Y-296840823D01*
X462077805Y-297011781D01*
X462358148Y-297241852D01*
X462588219Y-297522195D01*
X462759177Y-297842036D01*
X462864453Y-298189083D01*
X462900000Y-298550000D01*
X462864453Y-298910917D01*
X462759177Y-299257964D01*
X462588219Y-299577805D01*
X462358148Y-299858148D01*
X462077805Y-300088219D01*
X461757964Y-300259177D01*
X461410917Y-300364453D01*
X461050000Y-300400000D01*
X460689083Y-300364453D01*
X460342036Y-300259177D01*
X460022195Y-300088219D01*
X459741852Y-299858148D01*
X459511781Y-299577805D01*
X459340823Y-299257964D01*
X459235547Y-298910917D01*
X459200000Y-298550000D01*
X459235547Y-298189083D01*
X459340823Y-297842036D01*
X459511781Y-297522195D01*
X459741852Y-297241852D01*
X460022195Y-297011781D01*
X460342036Y-296840823D01*
X460689083Y-296735547D01*
X461050000Y-296700000D01*
X461410917Y-296735547D01*
G37*
%TD*%
D11*
%TO.C,U20*%
X461050000Y-260450000D03*
%TD*%
%TO.C,U21*%
X402950000Y-298550000D03*
%TD*%
%TO.C,U19*%
X402950000Y-260450000D03*
%TD*%
D12*
%TO.C,U24*%
X457139999Y-290819999D03*
X457139999Y-282179999D03*
D13*
X462499999Y-290819999D03*
D14*
X462499999Y-282179999D03*
%TD*%
D12*
%TO.C,U23*%
X406859999Y-282179999D03*
X406859999Y-290819999D03*
D13*
X401499999Y-282179999D03*
D14*
X401499999Y-290819999D03*
%TD*%
D11*
%TO.C,U22*%
X461050000Y-298550000D03*
%TD*%
M02*
