%TF.GenerationSoftware,KiCad,Pcbnew,6.0.10-86aedd382b~118~ubuntu20.04.1*%
%TF.CreationDate,2023-02-21T16:43:21-08:00*%
%TF.ProjectId,CAD,4341442e-6b69-4636-9164-5f7063625858,rev?*%
%TF.SameCoordinates,Original*%
%TF.FileFunction,Copper,L1,Top*%
%TF.FilePolarity,Positive*%
%FSLAX46Y46*%
G04 Gerber Fmt 4.6, Leading zero omitted, Abs format (unit mm)*
G04 Created by KiCad (PCBNEW 6.0.10-86aedd382b~118~ubuntu20.04.1) date 2023-02-21 16:43:21*
%MOMM*%
%LPD*%
G01*
G04 APERTURE LIST*
%TA.AperFunction,SMDPad,CuDef*%
%ADD10R,0.512132X0.950000*%
%TD*%
%TA.AperFunction,SMDPad,CuDef*%
%ADD11R,0.380278X0.600000*%
%TD*%
%TA.AperFunction,SMDPad,CuDef*%
%ADD12C,2.000000*%
%TD*%
%TA.AperFunction,SMDPad,CuDef*%
%ADD13R,3.000000X4.200000*%
%TD*%
%TA.AperFunction,ComponentPad*%
%ADD14C,1.000000*%
%TD*%
%TA.AperFunction,SMDPad,CuDef*%
%ADD15R,0.300000X0.950013*%
%TD*%
%TA.AperFunction,ViaPad*%
%ADD16C,0.600000*%
%TD*%
%TA.AperFunction,Conductor*%
%ADD17C,0.200000*%
%TD*%
G04 APERTURE END LIST*
D10*
%TO.P,LED3,1,a*%
%TO.N,Net-(LED3-Pad1)*%
X124918934Y-121614286D03*
%TO.P,LED3,2,c*%
%TO.N,Net-(B1-Pad2)*%
X123481066Y-121614286D03*
%TD*%
D11*
%TO.P,R7,1,1*%
%TO.N,/2: /SSRXN1*%
X134459861Y-115214286D03*
%TO.P,R7,2,2*%
%TO.N,Net-(LED7-Pad1)*%
X133540139Y-115214286D03*
%TD*%
%TO.P,R11,1,1*%
%TO.N,/2: /VBUS*%
X142059861Y-108814286D03*
%TO.P,R11,2,2*%
%TO.N,Net-(LED11-Pad1)*%
X141140139Y-108814286D03*
%TD*%
%TO.P,R16,1,1*%
%TO.N,/2: /SSRXN2*%
X151559861Y-100814286D03*
%TO.P,R16,2,2*%
%TO.N,Net-(LED16-Pad1)*%
X150640139Y-100814286D03*
%TD*%
D12*
%TO.P,,tp*%
%TO.N,IN4*%
X155200000Y-102414286D03*
%TD*%
D10*
%TO.P,LED1,1,a*%
%TO.N,Net-(LED1-Pad1)*%
X121118934Y-124814286D03*
%TO.P,LED1,2,c*%
%TO.N,Net-(B1-Pad2)*%
X119681066Y-124814286D03*
%TD*%
D11*
%TO.P,R1,1,1*%
%TO.N,/2: /IN6*%
X123059861Y-124814286D03*
%TO.P,R1,2,2*%
%TO.N,Net-(LED1-Pad1)*%
X122140139Y-124814286D03*
%TD*%
D12*
%TO.P,,tp*%
%TO.N,SSTXN2*%
X130500000Y-123214286D03*
%TD*%
%TO.P,,tp*%
%TO.N,IN2*%
X153300000Y-104014286D03*
%TD*%
D11*
%TO.P,R5,1,1*%
%TO.N,/2: /DN2*%
X130659861Y-118414286D03*
%TO.P,R5,2,2*%
%TO.N,Net-(LED5-Pad1)*%
X129740139Y-118414286D03*
%TD*%
D10*
%TO.P,LED7,1,a*%
%TO.N,Net-(LED7-Pad1)*%
X132518934Y-115214286D03*
%TO.P,LED7,2,c*%
%TO.N,Net-(B1-Pad2)*%
X131081066Y-115214286D03*
%TD*%
%TO.P,LED15,1,a*%
%TO.N,Net-(LED15-Pad1)*%
X147718934Y-102414286D03*
%TO.P,LED15,2,c*%
%TO.N,Net-(B1-Pad2)*%
X146281066Y-102414286D03*
%TD*%
D12*
%TO.P,,tp*%
%TO.N,DN2*%
X136200000Y-118414286D03*
%TD*%
%TO.P,,tp*%
%TO.N,CC1*%
X149500000Y-107214286D03*
%TD*%
D11*
%TO.P,R14,1,1*%
%TO.N,/2: /IN2*%
X147759861Y-104014286D03*
%TO.P,R14,2,2*%
%TO.N,Net-(LED14-Pad1)*%
X146840139Y-104014286D03*
%TD*%
D12*
%TO.P,,tp*%
%TO.N,IN*%
X159000000Y-99214286D03*
%TD*%
D10*
%TO.P,LED5,1,a*%
%TO.N,Net-(LED5-Pad1)*%
X128718934Y-118414286D03*
%TO.P,LED5,2,c*%
%TO.N,Net-(B1-Pad2)*%
X127281066Y-118414286D03*
%TD*%
%TO.P,LED4,1,a*%
%TO.N,Net-(LED4-Pad1)*%
X126818934Y-120014286D03*
%TO.P,LED4,2,c*%
%TO.N,Net-(B1-Pad2)*%
X125381066Y-120014286D03*
%TD*%
D12*
%TO.P,,tp*%
%TO.N,SSRXN1*%
X140000000Y-115214286D03*
%TD*%
D10*
%TO.P,LED13,1,a*%
%TO.N,Net-(LED13-Pad1)*%
X143918934Y-105614286D03*
%TO.P,LED13,2,c*%
%TO.N,Net-(B1-Pad2)*%
X142481066Y-105614286D03*
%TD*%
%TO.P,LED2,1,a*%
%TO.N,Net-(LED2-Pad1)*%
X123018934Y-123214286D03*
%TO.P,LED2,2,c*%
%TO.N,Net-(B1-Pad2)*%
X121581066Y-123214286D03*
%TD*%
%TO.P,LED9,1,a*%
%TO.N,Net-(LED9-Pad1)*%
X136318934Y-112014286D03*
%TO.P,LED9,2,c*%
%TO.N,Net-(B1-Pad2)*%
X134881066Y-112014286D03*
%TD*%
D11*
%TO.P,R2,1,1*%
%TO.N,/2: /SSTXN2*%
X124959861Y-123214286D03*
%TO.P,R2,2,2*%
%TO.N,Net-(LED2-Pad1)*%
X124040139Y-123214286D03*
%TD*%
D12*
%TO.P,,tp*%
%TO.N,GND-usb*%
X160900000Y-97614286D03*
%TD*%
D10*
%TO.P,LED16,1,a*%
%TO.N,Net-(LED16-Pad1)*%
X149618934Y-100814286D03*
%TO.P,LED16,2,c*%
%TO.N,Net-(B1-Pad2)*%
X148181066Y-100814286D03*
%TD*%
D13*
%TO.P,B1,1,power_vdd*%
%TO.N,/2: /POWER*%
X114532000Y-94742000D03*
%TO.P,B1,2,power_gnd*%
%TO.N,Net-(B1-Pad2)*%
X143532000Y-94742000D03*
%TD*%
D12*
%TO.P,,tp*%
%TO.N,IN1*%
X132400000Y-121614286D03*
%TD*%
D11*
%TO.P,R9,1,1*%
%TO.N,/2: /SSTXP1*%
X138259861Y-112014286D03*
%TO.P,R9,2,2*%
%TO.N,Net-(LED9-Pad1)*%
X137340139Y-112014286D03*
%TD*%
D12*
%TO.P,,tp*%
%TO.N,SSRXN2*%
X157100000Y-100814286D03*
%TD*%
D11*
%TO.P,R3,1,1*%
%TO.N,/2: /IN1*%
X126859861Y-121614286D03*
%TO.P,R3,2,2*%
%TO.N,Net-(LED3-Pad1)*%
X125940139Y-121614286D03*
%TD*%
D10*
%TO.P,LED8,1,a*%
%TO.N,Net-(LED8-Pad1)*%
X134418934Y-113614286D03*
%TO.P,LED8,2,c*%
%TO.N,Net-(B1-Pad2)*%
X132981066Y-113614286D03*
%TD*%
D12*
%TO.P,,tp*%
%TO.N,IN6*%
X128600000Y-124814286D03*
%TD*%
D10*
%TO.P,LED6,1,a*%
%TO.N,Net-(LED6-Pad1)*%
X130618934Y-116814286D03*
%TO.P,LED6,2,c*%
%TO.N,Net-(B1-Pad2)*%
X129181066Y-116814286D03*
%TD*%
D11*
%TO.P,R12,1,1*%
%TO.N,/2: /CC1*%
X143959861Y-107214286D03*
%TO.P,R12,2,2*%
%TO.N,Net-(LED12-Pad1)*%
X143040139Y-107214286D03*
%TD*%
D10*
%TO.P,LED18,1,a*%
%TO.N,Net-(LED18-Pad1)*%
X153418934Y-97614286D03*
%TO.P,LED18,2,c*%
%TO.N,Net-(B1-Pad2)*%
X151981066Y-97614286D03*
%TD*%
%TO.P,LED17,1,a*%
%TO.N,Net-(LED17-Pad1)*%
X151518934Y-99214286D03*
%TO.P,LED17,2,c*%
%TO.N,Net-(B1-Pad2)*%
X150081066Y-99214286D03*
%TD*%
%TO.P,LED10,1,a*%
%TO.N,Net-(LED10-Pad1)*%
X138218934Y-110414286D03*
%TO.P,LED10,2,c*%
%TO.N,Net-(B1-Pad2)*%
X136781066Y-110414286D03*
%TD*%
D11*
%TO.P,R10,1,1*%
%TO.N,/2: /SSTXN1*%
X140159861Y-110414286D03*
%TO.P,R10,2,2*%
%TO.N,Net-(LED10-Pad1)*%
X139240139Y-110414286D03*
%TD*%
D10*
%TO.P,LED14,1,a*%
%TO.N,Net-(LED14-Pad1)*%
X145818934Y-104014286D03*
%TO.P,LED14,2,c*%
%TO.N,Net-(B1-Pad2)*%
X144381066Y-104014286D03*
%TD*%
D11*
%TO.P,R17,1,1*%
%TO.N,/2: /IN*%
X153459861Y-99214286D03*
%TO.P,R17,2,2*%
%TO.N,Net-(LED17-Pad1)*%
X152540139Y-99214286D03*
%TD*%
%TO.P,R18,1,1*%
%TO.N,/2: /GND-usb*%
X155359861Y-97614286D03*
%TO.P,R18,2,2*%
%TO.N,Net-(LED18-Pad1)*%
X154440139Y-97614286D03*
%TD*%
D12*
%TO.P,,tp*%
%TO.N,SBU2*%
X138100000Y-116814286D03*
%TD*%
D14*
%TO.P,J2,25,usb-c-pinout_shield*%
%TO.N,Net-(J2-Pad25)*%
X166401041Y-115849886D03*
%TO.P,J2,26,usb-c-pinout_shield*%
X161600940Y-115849886D03*
%TO.P,J2,27,usb-c-pinout_shield*%
X161600940Y-120150114D03*
%TO.P,J2,28,usb-c-pinout_shield*%
X166401041Y-120150114D03*
D15*
%TO.P,J2,A1,usb-c-pinout_GND*%
%TO.N,/2: /GND-usb*%
X161250927Y-117249936D03*
%TO.P,J2,A2,usb-c-pinout_SSTXP1*%
%TO.N,/2: /SSTXP1*%
X161751054Y-117249936D03*
%TO.P,J2,A3,usb-c-pinout_SSTXN1*%
%TO.N,/2: /SSTXN1*%
X162250927Y-117249936D03*
%TO.P,J2,A4,usb-c-pinout_VBUS*%
%TO.N,/2: /VBUS*%
X162751054Y-117249936D03*
%TO.P,J2,A5,usb-c-pinout_CC1*%
%TO.N,/2: /CC1*%
X163250927Y-117249936D03*
%TO.P,J2,A6,usb-c-pinout_DP1*%
%TO.N,/2: /DP1*%
X163751054Y-117249936D03*
%TO.P,J2,A7,usb-c-pinout_DN1*%
%TO.N,/2: /IN2*%
X164250927Y-117249936D03*
%TO.P,J2,A8,usb-c-pinout_SBU1*%
%TO.N,/2: /IN4*%
X164751054Y-117249936D03*
%TO.P,J2,A9,usb-c-pinout_VBUS*%
%TO.N,/2: /VBUS*%
X165250927Y-117249936D03*
%TO.P,J2,A10,usb-c-pinout_SSRXN2*%
%TO.N,/2: /SSRXN2*%
X165751054Y-117249936D03*
%TO.P,J2,A11,usb-c-pinout_SSRXP2*%
%TO.N,/2: /IN*%
X166250927Y-117249936D03*
%TO.P,J2,A12,usb-c-pinout_GND*%
%TO.N,/2: /GND-usb*%
X166751054Y-117249936D03*
%TO.P,J2,B1,usb-c-pinout_GND*%
X166751080Y-118751588D03*
%TO.P,J2,B2,usb-c-pinout_SSTXP2*%
%TO.N,/2: /IN6*%
X166250953Y-118751588D03*
%TO.P,J2,B3,usb-c-pinout_SSTXN2*%
%TO.N,/2: /SSTXN2*%
X165751080Y-118751588D03*
%TO.P,J2,B4,usb-c-pinout_VBUS*%
%TO.N,/2: /VBUS*%
X165250953Y-118751588D03*
%TO.P,J2,B5,usb-c-pinout_CC2*%
%TO.N,/2: /IN1*%
X164751080Y-118751588D03*
%TO.P,J2,B6,usb-c-pinout_DP2*%
%TO.N,/2: /IN3*%
X164250953Y-118751588D03*
%TO.P,J2,B7,usb-c-pinout_DN2*%
%TO.N,/2: /DN2*%
X163751080Y-118751588D03*
%TO.P,J2,B8,usb-c-pinout_SBU2*%
%TO.N,/2: /SBU2*%
X163250953Y-118751588D03*
%TO.P,J2,B9,usb-c-pinout_VBUS*%
%TO.N,/2: /VBUS*%
X162751080Y-118751588D03*
%TO.P,J2,B10,usb-c-pinout_SSRXN1*%
%TO.N,/2: /SSRXN1*%
X162250953Y-118751588D03*
%TO.P,J2,B11,usb-c-pinout_SSRXP1*%
%TO.N,/2: /IN5*%
X161751080Y-118751588D03*
%TO.P,J2,B12,usb-c-pinout_GND*%
%TO.N,/2: /GND-usb*%
X161250953Y-118751588D03*
%TD*%
D11*
%TO.P,R13,1,1*%
%TO.N,/2: /DP1*%
X145859861Y-105614286D03*
%TO.P,R13,2,2*%
%TO.N,Net-(LED13-Pad1)*%
X144940139Y-105614286D03*
%TD*%
%TO.P,R8,1,1*%
%TO.N,/2: /IN5*%
X136359861Y-113614286D03*
%TO.P,R8,2,2*%
%TO.N,Net-(LED8-Pad1)*%
X135440139Y-113614286D03*
%TD*%
D12*
%TO.P,,tp*%
%TO.N,DP1*%
X151400000Y-105614286D03*
%TD*%
D14*
%TO.P,J1,25,usb-c-pinout_shield*%
%TO.N,/2: /POWER*%
X117401041Y-115849886D03*
%TO.P,J1,26,usb-c-pinout_shield*%
X112600940Y-115849886D03*
%TO.P,J1,27,usb-c-pinout_shield*%
X112600940Y-120150114D03*
%TO.P,J1,28,usb-c-pinout_shield*%
X117401041Y-120150114D03*
D15*
%TO.P,J1,A1,usb-c-pinout_GND*%
X112250927Y-117249936D03*
%TO.P,J1,A2,usb-c-pinout_SSTXP1*%
X112751054Y-117249936D03*
%TO.P,J1,A3,usb-c-pinout_SSTXN1*%
X113250927Y-117249936D03*
%TO.P,J1,A4,usb-c-pinout_VBUS*%
X113751054Y-117249936D03*
%TO.P,J1,A5,usb-c-pinout_CC1*%
X114250927Y-117249936D03*
%TO.P,J1,A6,usb-c-pinout_DP1*%
X114751054Y-117249936D03*
%TO.P,J1,A7,usb-c-pinout_DN1*%
X115250927Y-117249936D03*
%TO.P,J1,A8,usb-c-pinout_SBU1*%
X115751054Y-117249936D03*
%TO.P,J1,A9,usb-c-pinout_VBUS*%
X116250927Y-117249936D03*
%TO.P,J1,A10,usb-c-pinout_SSRXN2*%
X116751054Y-117249936D03*
%TO.P,J1,A11,usb-c-pinout_SSRXP2*%
X117250927Y-117249936D03*
%TO.P,J1,A12,usb-c-pinout_GND*%
X117751054Y-117249936D03*
%TO.P,J1,B1,usb-c-pinout_GND*%
X117751080Y-118751588D03*
%TO.P,J1,B2,usb-c-pinout_SSTXP2*%
X117250953Y-118751588D03*
%TO.P,J1,B3,usb-c-pinout_SSTXN2*%
X116751080Y-118751588D03*
%TO.P,J1,B4,usb-c-pinout_VBUS*%
X116250953Y-118751588D03*
%TO.P,J1,B5,usb-c-pinout_CC2*%
X115751080Y-118751588D03*
%TO.P,J1,B6,usb-c-pinout_DP2*%
X115250953Y-118751588D03*
%TO.P,J1,B7,usb-c-pinout_DN2*%
X114751080Y-118751588D03*
%TO.P,J1,B8,usb-c-pinout_SBU2*%
X114250953Y-118751588D03*
%TO.P,J1,B9,usb-c-pinout_VBUS*%
X113751080Y-118751588D03*
%TO.P,J1,B10,usb-c-pinout_SSRXN1*%
X113250953Y-118751588D03*
%TO.P,J1,B11,usb-c-pinout_SSRXP1*%
X112751080Y-118751588D03*
%TO.P,J1,B12,usb-c-pinout_GND*%
X112250953Y-118751588D03*
%TD*%
D12*
%TO.P,,tp*%
%TO.N,IN5*%
X141900000Y-113614286D03*
%TD*%
D10*
%TO.P,LED12,1,a*%
%TO.N,Net-(LED12-Pad1)*%
X142018934Y-107214286D03*
%TO.P,LED12,2,c*%
%TO.N,Net-(B1-Pad2)*%
X140581066Y-107214286D03*
%TD*%
D12*
%TO.P,,tp*%
%TO.N,IN3*%
X134300000Y-120014286D03*
%TD*%
D11*
%TO.P,R15,1,1*%
%TO.N,/2: /IN4*%
X149659861Y-102414286D03*
%TO.P,R15,2,2*%
%TO.N,Net-(LED15-Pad1)*%
X148740139Y-102414286D03*
%TD*%
D12*
%TO.P,,tp*%
%TO.N,SSTXN1*%
X145700000Y-110414286D03*
%TD*%
%TO.P,,tp*%
%TO.N,SSTXP1*%
X143800000Y-112014286D03*
%TD*%
D11*
%TO.P,R4,1,1*%
%TO.N,/2: /IN3*%
X128759861Y-120014286D03*
%TO.P,R4,2,2*%
%TO.N,Net-(LED4-Pad1)*%
X127840139Y-120014286D03*
%TD*%
%TO.P,R6,1,1*%
%TO.N,/2: /SBU2*%
X132559861Y-116814286D03*
%TO.P,R6,2,2*%
%TO.N,Net-(LED6-Pad1)*%
X131640139Y-116814286D03*
%TD*%
D12*
%TO.P,,tp*%
%TO.N,VBUS*%
X147600000Y-108814286D03*
%TD*%
D10*
%TO.P,LED11,1,a*%
%TO.N,Net-(LED11-Pad1)*%
X140118934Y-108814286D03*
%TO.P,LED11,2,c*%
%TO.N,Net-(B1-Pad2)*%
X138681066Y-108814286D03*
%TD*%
D16*
%TO.N,Net-(J2-Pad25)*%
X161417000Y-121031000D03*
X166624000Y-121031000D03*
X166370000Y-114808000D03*
X161163000Y-114808000D03*
%TO.N,/2: /GND-usb*%
X159893000Y-116967000D03*
X159258000Y-118745000D03*
X168529000Y-119126000D03*
X168148000Y-116840000D03*
%TO.N,Net-(B1-Pad2)*%
X152654000Y-93853000D03*
X136906000Y-88900000D03*
X125476000Y-112649000D03*
X147955000Y-89027000D03*
X137414000Y-100584000D03*
X139573000Y-98298000D03*
X131445000Y-106426000D03*
X120142000Y-117983000D03*
X132715000Y-94869000D03*
%TD*%
D17*
%TO.N,/2: /DP1*%
X163751054Y-116374946D02*
X164048000Y-116078000D01*
X155017286Y-105614286D02*
X151400000Y-105614286D01*
X163751054Y-117249936D02*
X163751054Y-116374946D01*
X164048000Y-114645000D02*
X155017286Y-105614286D01*
X164048000Y-116078000D02*
X164048000Y-114645000D01*
X145859861Y-105614286D02*
X151400000Y-105614286D01*
%TO.N,Net-(J2-Pad25)*%
X166624000Y-120373073D02*
X166401041Y-120150114D01*
X161600940Y-120847060D02*
X161417000Y-121031000D01*
X161600940Y-120150114D02*
X161600940Y-120847060D01*
X161600940Y-115245940D02*
X161163000Y-114808000D01*
X166370000Y-115818845D02*
X166401041Y-115849886D01*
X166370000Y-114808000D02*
X166370000Y-115818845D01*
X166624000Y-121031000D02*
X166624000Y-120373073D01*
X161600940Y-115849886D02*
X161600940Y-115245940D01*
%TO.N,/2: /SBU2*%
X152654000Y-122428000D02*
X147040286Y-116814286D01*
X161417000Y-122428000D02*
X152654000Y-122428000D01*
X163250953Y-118751588D02*
X163250953Y-120594047D01*
X163250953Y-120594047D02*
X161417000Y-122428000D01*
X147040286Y-116814286D02*
X138100000Y-116814286D01*
X132559861Y-116814286D02*
X138100000Y-116814286D01*
%TO.N,/2: /IN*%
X165481000Y-115919796D02*
X165481000Y-105695286D01*
X165481000Y-105695286D02*
X159000000Y-99214286D01*
X166250927Y-116689723D02*
X165481000Y-115919796D01*
X153459861Y-99214286D02*
X159000000Y-99214286D01*
X166250927Y-117249936D02*
X166250927Y-116689723D01*
%TO.N,/2: /SSTXN1*%
X156793714Y-110414286D02*
X145700000Y-110414286D01*
X140159861Y-110414286D02*
X145700000Y-110414286D01*
X162250927Y-116387073D02*
X162560000Y-116078000D01*
X157658286Y-110414286D02*
X156793714Y-110414286D01*
X162560000Y-115316000D02*
X157658286Y-110414286D01*
X162560000Y-116078000D02*
X162560000Y-115316000D01*
X162250927Y-117249936D02*
X162250927Y-116387073D01*
%TO.N,/2: /IN1*%
X164751080Y-121506920D02*
X161544000Y-124714000D01*
X161544000Y-124714000D02*
X142494000Y-124714000D01*
X164751080Y-118751588D02*
X164751080Y-121506920D01*
X139394286Y-121614286D02*
X132400000Y-121614286D01*
X142494000Y-124714000D02*
X139394286Y-121614286D01*
X126859861Y-121614286D02*
X132400000Y-121614286D01*
%TO.N,/2: /IN2*%
X155195286Y-104014286D02*
X153300000Y-104014286D01*
X164250927Y-117249936D02*
X164250927Y-116419073D01*
X164338000Y-116332000D02*
X164338000Y-113157000D01*
X147759861Y-104014286D02*
X153300000Y-104014286D01*
X164338000Y-113157000D02*
X155195286Y-104014286D01*
X164250927Y-116419073D02*
X164338000Y-116332000D01*
%TO.N,/2: /SSRXN1*%
X162300941Y-120909059D02*
X161417000Y-121793000D01*
X134459861Y-115214286D02*
X140000000Y-115214286D01*
X147091286Y-115214286D02*
X140000000Y-115214286D01*
X162300941Y-118801576D02*
X162300941Y-120909059D01*
X162250953Y-118751588D02*
X162300941Y-118801576D01*
X161417000Y-121793000D02*
X153670000Y-121793000D01*
X153670000Y-121793000D02*
X147091286Y-115214286D01*
%TO.N,/2: /GND-usb*%
X159258000Y-117602000D02*
X159258000Y-118745000D01*
X155359861Y-97614286D02*
X160900000Y-97614286D01*
X166751054Y-117249936D02*
X166751054Y-116839946D01*
X159258000Y-118745000D02*
X161244365Y-118745000D01*
X167160990Y-116840000D02*
X166751054Y-117249936D01*
X160175936Y-117249936D02*
X159893000Y-116967000D01*
X167259000Y-116332000D02*
X167259000Y-103973286D01*
X167125492Y-119126000D02*
X168529000Y-119126000D01*
X167259000Y-103973286D02*
X160900000Y-97614286D01*
X166751054Y-117249936D02*
X166751054Y-118751562D01*
X161244365Y-118745000D02*
X161250953Y-118751588D01*
X166751054Y-116839946D02*
X167259000Y-116332000D01*
X161250927Y-117249936D02*
X160175936Y-117249936D01*
X166751054Y-118751562D02*
X166751080Y-118751588D01*
X168651067Y-117343067D02*
X168651067Y-119003933D01*
X159893000Y-116967000D02*
X159258000Y-117602000D01*
X168651067Y-119003933D02*
X168529000Y-119126000D01*
X168148000Y-116840000D02*
X168651067Y-117343067D01*
X168148000Y-116840000D02*
X167160990Y-116840000D01*
X161250927Y-118751562D02*
X161250953Y-118751588D01*
X161250927Y-117249936D02*
X161250927Y-118751562D01*
X166751080Y-118751588D02*
X167125492Y-119126000D01*
%TO.N,/2: /VBUS*%
X163322000Y-115189000D02*
X156947286Y-108814286D01*
X162751054Y-116492824D02*
X163322000Y-115921878D01*
X165211908Y-117920054D02*
X165250927Y-117959073D01*
X165250927Y-117249936D02*
X165250927Y-117959073D01*
X142059861Y-108814286D02*
X147600000Y-108814286D01*
X162751054Y-117920054D02*
X162751054Y-118751562D01*
X162751054Y-118751562D02*
X162751080Y-118751588D01*
X156947286Y-108814286D02*
X147600000Y-108814286D01*
X162751054Y-117249936D02*
X162751054Y-117920054D01*
X165250927Y-117959073D02*
X165250927Y-118751562D01*
X165250927Y-118751562D02*
X165250953Y-118751588D01*
X162751054Y-117920054D02*
X165211908Y-117920054D01*
X163322000Y-115921878D02*
X163322000Y-115189000D01*
X162751054Y-117249936D02*
X162751054Y-116492824D01*
%TO.N,/2: /IN3*%
X144272000Y-124206000D02*
X140080286Y-120014286D01*
X164250953Y-118751588D02*
X164250953Y-121245047D01*
X161290000Y-124206000D02*
X144272000Y-124206000D01*
X128759861Y-120014286D02*
X134300000Y-120014286D01*
X164250953Y-121245047D02*
X161290000Y-124206000D01*
X140080286Y-120014286D02*
X134300000Y-120014286D01*
%TO.N,/2: /IN4*%
X164751054Y-116237054D02*
X164683000Y-116169000D01*
X164683000Y-111897286D02*
X155200000Y-102414286D01*
X149659861Y-102414286D02*
X155200000Y-102414286D01*
X164751054Y-117249936D02*
X164751054Y-116237054D01*
X164683000Y-116169000D02*
X164683000Y-111897286D01*
%TO.N,/2: /IN5*%
X161751080Y-118751588D02*
X161751080Y-119256467D01*
X153289000Y-119507000D02*
X147396286Y-113614286D01*
X160655000Y-119507000D02*
X153289000Y-119507000D01*
X161590953Y-119416594D02*
X160745406Y-119416594D01*
X147396286Y-113614286D02*
X141900000Y-113614286D01*
X160745406Y-119416594D02*
X160655000Y-119507000D01*
X136359861Y-113614286D02*
X141900000Y-113614286D01*
X161751080Y-119256467D02*
X161590953Y-119416594D01*
%TO.N,/2: /IN6*%
X167386000Y-121412000D02*
X161798000Y-127000000D01*
X167386000Y-120145122D02*
X167386000Y-121412000D01*
X166667472Y-119426594D02*
X167386000Y-120145122D01*
X166250953Y-118751588D02*
X166250953Y-119426594D01*
X139446000Y-127000000D02*
X137260286Y-124814286D01*
X137260286Y-124814286D02*
X128600000Y-124814286D01*
X166250953Y-119426594D02*
X166667472Y-119426594D01*
X123059861Y-124814286D02*
X128600000Y-124814286D01*
X161798000Y-127000000D02*
X139446000Y-127000000D01*
%TO.N,/2: /CC1*%
X163703000Y-115062000D02*
X155855286Y-107214286D01*
X155855286Y-107214286D02*
X149500000Y-107214286D01*
X163250927Y-117249936D02*
X163250927Y-116403073D01*
X163703000Y-115951000D02*
X163703000Y-115062000D01*
X163250927Y-116403073D02*
X163703000Y-115951000D01*
X143959861Y-107214286D02*
X149500000Y-107214286D01*
%TO.N,/2: /DN2*%
X163751080Y-118751588D02*
X163751080Y-120855920D01*
X144957286Y-118414286D02*
X136200000Y-118414286D01*
X161290000Y-123317000D02*
X149860000Y-123317000D01*
X163751080Y-120855920D02*
X161290000Y-123317000D01*
X130659861Y-118414286D02*
X136200000Y-118414286D01*
X149860000Y-123317000D02*
X144957286Y-118414286D01*
%TO.N,Net-(B1-Pad2)*%
X133281066Y-113614286D02*
X134881066Y-112014286D01*
X148181066Y-100814286D02*
X147881066Y-100814286D01*
X150954286Y-97614286D02*
X148082000Y-94742000D01*
X140275000Y-99000000D02*
X139573000Y-98298000D01*
X125381066Y-120014286D02*
X125681066Y-120014286D01*
X131762500Y-108140500D02*
X126111000Y-113792000D01*
X144681066Y-104014286D02*
X146281066Y-102414286D01*
X126111000Y-113792000D02*
X119681066Y-120221934D01*
X140903000Y-99000000D02*
X143532000Y-96371000D01*
X121881066Y-123214286D02*
X123182676Y-121912676D01*
X138381066Y-108814286D02*
X136781066Y-110414286D01*
X119981066Y-124814286D02*
X121581066Y-123214286D01*
X132981066Y-113614286D02*
X133281066Y-113614286D01*
X143532000Y-93450000D02*
X147955000Y-89027000D01*
X142814286Y-100814286D02*
X141000000Y-99000000D01*
X136781066Y-110414286D02*
X136781066Y-103121934D01*
X138681066Y-108814286D02*
X138381066Y-108814286D01*
X151681066Y-97614286D02*
X150081066Y-99214286D01*
X140903000Y-99000000D02*
X137477500Y-102425500D01*
X123182676Y-121912676D02*
X123481066Y-121614286D01*
X142481066Y-100481066D02*
X141000000Y-99000000D01*
X131081066Y-108821934D02*
X131081066Y-106789934D01*
X131081066Y-115214286D02*
X131381066Y-115214286D01*
X129181066Y-116814286D02*
X129481066Y-116814286D01*
X151981066Y-97614286D02*
X150954286Y-97614286D01*
X125381066Y-114521934D02*
X125381066Y-112743934D01*
X136481066Y-110414286D02*
X134881066Y-112014286D01*
X140581066Y-107214286D02*
X140881066Y-107214286D01*
X127581066Y-118414286D02*
X129181066Y-116814286D01*
X131081066Y-106789934D02*
X131445000Y-106426000D01*
X119681066Y-120221934D02*
X119681066Y-124814286D01*
X143532000Y-96371000D02*
X143532000Y-94742000D01*
X140903000Y-99000000D02*
X140275000Y-99000000D01*
X125081066Y-120014286D02*
X125381066Y-120014286D01*
X148082000Y-94742000D02*
X143532000Y-94742000D01*
X148181066Y-100814286D02*
X142814286Y-100814286D01*
X144381066Y-104014286D02*
X144081066Y-104014286D01*
X136781066Y-101216934D02*
X137414000Y-100584000D01*
X125381066Y-112743934D02*
X125476000Y-112649000D01*
X143532000Y-94742000D02*
X142748000Y-94742000D01*
X119681066Y-120221934D02*
X119681066Y-118443934D01*
X119681066Y-124814286D02*
X119981066Y-124814286D01*
X140881066Y-107214286D02*
X142481066Y-105614286D01*
X143532000Y-94742000D02*
X132842000Y-94742000D01*
X140581066Y-107214286D02*
X140281066Y-107214286D01*
X144381066Y-104014286D02*
X144681066Y-104014286D01*
X151981066Y-97614286D02*
X151981066Y-94525934D01*
X141000000Y-99000000D02*
X140903000Y-99000000D01*
X119681066Y-118443934D02*
X120142000Y-117983000D01*
X131081066Y-108821934D02*
X131762500Y-108140500D01*
X151981066Y-97614286D02*
X151681066Y-97614286D01*
X137477500Y-102425500D02*
X131762500Y-108140500D01*
X125381066Y-120014286D02*
X125381066Y-114521934D01*
X140281066Y-107214286D02*
X138681066Y-108814286D01*
X131081066Y-115214286D02*
X131081066Y-108821934D01*
X147881066Y-100814286D02*
X146281066Y-102414286D01*
X127281066Y-118414286D02*
X127581066Y-118414286D01*
X136781066Y-103121934D02*
X137477500Y-102425500D01*
X151981066Y-94525934D02*
X152654000Y-93853000D01*
X131381066Y-115214286D02*
X132981066Y-113614286D01*
X129481066Y-116814286D02*
X131081066Y-115214286D01*
X136781066Y-110414286D02*
X136481066Y-110414286D01*
X142481066Y-105614286D02*
X142481066Y-100481066D01*
X125381066Y-114521934D02*
X126111000Y-113792000D01*
X123182676Y-121912676D02*
X125081066Y-120014286D01*
X143532000Y-94742000D02*
X143532000Y-93450000D01*
X136781066Y-103121934D02*
X136781066Y-101216934D01*
X142748000Y-94742000D02*
X136906000Y-88900000D01*
X149781066Y-99214286D02*
X148181066Y-100814286D01*
X121581066Y-123214286D02*
X121881066Y-123214286D01*
X150081066Y-99214286D02*
X149781066Y-99214286D01*
X132842000Y-94742000D02*
X132715000Y-94869000D01*
X144081066Y-104014286D02*
X142481066Y-105614286D01*
X125681066Y-120014286D02*
X127281066Y-118414286D01*
%TO.N,/2: /SSRXN2*%
X165751054Y-117249936D02*
X165751054Y-116599972D01*
X164973000Y-108687286D02*
X157100000Y-100814286D01*
X165751054Y-116599972D02*
X164973000Y-115821918D01*
X164973000Y-115821918D02*
X164973000Y-108687286D01*
X151559861Y-100814286D02*
X157100000Y-100814286D01*
%TO.N,/2: /POWER*%
X113250927Y-118751562D02*
X113250953Y-118751588D01*
X117401041Y-115849886D02*
X117401041Y-116599949D01*
X115250927Y-117249936D02*
X115250927Y-118751562D01*
X114751054Y-118751562D02*
X114751080Y-118751588D01*
X112600940Y-115849886D02*
X117401041Y-115849886D01*
X112600940Y-120150114D02*
X117401041Y-120150114D01*
X112600940Y-115849886D02*
X112600940Y-116849812D01*
X112250927Y-117249936D02*
X113001064Y-117249936D01*
X112600940Y-119401601D02*
X113250953Y-118751588D01*
X117751054Y-117249936D02*
X117751054Y-118751562D01*
X114532000Y-113918826D02*
X112600940Y-115849886D01*
X112600940Y-120150114D02*
X112600940Y-119401601D01*
X113250927Y-117249936D02*
X113250927Y-118751562D01*
X117401041Y-120150114D02*
X117401041Y-119401549D01*
X113001064Y-117249936D02*
X117751054Y-117249936D01*
X116751080Y-117249962D02*
X116751054Y-117249936D01*
X116751080Y-118751588D02*
X116751080Y-117249962D01*
X117401041Y-97611041D02*
X114532000Y-94742000D01*
X112600940Y-116849812D02*
X113001064Y-117249936D01*
X112250953Y-118751588D02*
X112250953Y-117249962D01*
X117751054Y-118751562D02*
X117751080Y-118751588D01*
X112250953Y-117249962D02*
X112250927Y-117249936D01*
X115250927Y-118751562D02*
X115250953Y-118751588D01*
X117401041Y-116599949D02*
X116751054Y-117249936D01*
X117751080Y-118751588D02*
X112250953Y-118751588D01*
X117401041Y-119401549D02*
X116751080Y-118751588D01*
X117401041Y-115849886D02*
X117401041Y-97611041D01*
X114751054Y-117249936D02*
X114751054Y-118751562D01*
X114532000Y-94742000D02*
X114532000Y-113918826D01*
%TO.N,/2: /SSTXP1*%
X138259861Y-112014286D02*
X143800000Y-112014286D01*
X161726011Y-116549887D02*
X161253887Y-116549887D01*
X161751054Y-116574930D02*
X161726011Y-116549887D01*
X161253887Y-116549887D02*
X156718286Y-112014286D01*
X156718286Y-112014286D02*
X143800000Y-112014286D01*
X161751054Y-117249936D02*
X161751054Y-116574930D01*
%TO.N,/2: /SSTXN2*%
X165354000Y-119823674D02*
X165354000Y-122047000D01*
X124959861Y-123214286D02*
X130500000Y-123214286D01*
X161798000Y-125603000D02*
X140462000Y-125603000D01*
X165751080Y-119426594D02*
X165354000Y-119823674D01*
X138073286Y-123214286D02*
X130500000Y-123214286D01*
X165354000Y-122047000D02*
X161798000Y-125603000D01*
X165751080Y-118751588D02*
X165751080Y-119426594D01*
X140462000Y-125603000D02*
X138073286Y-123214286D01*
%TO.N,Net-(LED9-Pad1)*%
X136318934Y-112014286D02*
X137340139Y-112014286D01*
%TO.N,Net-(LED2-Pad1)*%
X123018934Y-123214286D02*
X124040139Y-123214286D01*
%TO.N,Net-(LED13-Pad1)*%
X143918934Y-105614286D02*
X144940139Y-105614286D01*
%TO.N,Net-(LED6-Pad1)*%
X130618934Y-116814286D02*
X131640139Y-116814286D01*
%TO.N,Net-(LED17-Pad1)*%
X151518934Y-99214286D02*
X152540139Y-99214286D01*
%TO.N,Net-(LED10-Pad1)*%
X138218934Y-110414286D02*
X139240139Y-110414286D01*
%TO.N,Net-(LED3-Pad1)*%
X124918934Y-121614286D02*
X125940139Y-121614286D01*
%TO.N,Net-(LED14-Pad1)*%
X145818934Y-104014286D02*
X146840139Y-104014286D01*
%TO.N,Net-(LED7-Pad1)*%
X132518934Y-115214286D02*
X133540139Y-115214286D01*
%TO.N,Net-(LED18-Pad1)*%
X153418934Y-97614286D02*
X154440139Y-97614286D01*
%TO.N,Net-(LED11-Pad1)*%
X140118934Y-108814286D02*
X141140139Y-108814286D01*
%TO.N,Net-(LED4-Pad1)*%
X126818934Y-120014286D02*
X127840139Y-120014286D01*
%TO.N,Net-(LED15-Pad1)*%
X147718934Y-102414286D02*
X148740139Y-102414286D01*
%TO.N,Net-(LED8-Pad1)*%
X134418934Y-113614286D02*
X135440139Y-113614286D01*
%TO.N,Net-(LED1-Pad1)*%
X121118934Y-124814286D02*
X122140139Y-124814286D01*
%TO.N,Net-(LED12-Pad1)*%
X142018934Y-107214286D02*
X143040139Y-107214286D01*
%TO.N,Net-(LED5-Pad1)*%
X128718934Y-118414286D02*
X129740139Y-118414286D01*
%TO.N,Net-(LED16-Pad1)*%
X149618934Y-100814286D02*
X150640139Y-100814286D01*
%TD*%
M02*
