%TF.GenerationSoftware,KiCad,Pcbnew,7.0.0-da2b9df05c~171~ubuntu22.04.1*%
%TF.CreationDate,2023-03-03T15:29:18-08:00*%
%TF.ProjectId,CAD,4341442e-6b69-4636-9164-5f7063625858,rev?*%
%TF.SameCoordinates,Original*%
%TF.FileFunction,Copper,L1,Top*%
%TF.FilePolarity,Positive*%
%FSLAX46Y46*%
G04 Gerber Fmt 4.6, Leading zero omitted, Abs format (unit mm)*
G04 Created by KiCad (PCBNEW 7.0.0-da2b9df05c~171~ubuntu22.04.1) date 2023-03-03 15:29:18*
%MOMM*%
%LPD*%
G01*
G04 APERTURE LIST*
%TA.AperFunction,ComponentPad*%
%ADD10C,1.000000*%
%TD*%
%TA.AperFunction,SMDPad,CuDef*%
%ADD11R,0.300000X0.950013*%
%TD*%
%TA.AperFunction,SMDPad,CuDef*%
%ADD12C,2.000000*%
%TD*%
%TA.AperFunction,SMDPad,CuDef*%
%ADD13R,0.512132X0.950000*%
%TD*%
%TA.AperFunction,SMDPad,CuDef*%
%ADD14R,3.000000X4.200000*%
%TD*%
%TA.AperFunction,SMDPad,CuDef*%
%ADD15R,0.566000X0.540000*%
%TD*%
%TA.AperFunction,ViaPad*%
%ADD16C,0.600000*%
%TD*%
%TA.AperFunction,Conductor*%
%ADD17C,0.200000*%
%TD*%
%TA.AperFunction,Conductor*%
%ADD18C,0.150000*%
%TD*%
G04 APERTURE END LIST*
D10*
%TO.P,J2,25,usb-c-pinout_shield*%
%TO.N,Net-(J2-usb-c-pinout_shield-Pad25)*%
X166401041Y-115849886D03*
%TO.P,J2,26,usb-c-pinout_shield*%
X161600940Y-115849886D03*
%TO.P,J2,27,usb-c-pinout_shield*%
X161600940Y-120150114D03*
%TO.P,J2,28,usb-c-pinout_shield*%
X166401041Y-120150114D03*
D11*
%TO.P,J2,A1,usb-c-pinout_GND*%
%TO.N,/5: /GND-usb*%
X161250926Y-117249935D03*
%TO.P,J2,A2,usb-c-pinout_SSTXP1*%
%TO.N,/5: /SSTXP1*%
X161751053Y-117249935D03*
%TO.P,J2,A3,usb-c-pinout_SSTXN1*%
%TO.N,/5: /SSTXN1*%
X162250926Y-117249935D03*
%TO.P,J2,A4,usb-c-pinout_VBUS*%
%TO.N,/5: /VBUS*%
X162751053Y-117249935D03*
%TO.P,J2,A5,usb-c-pinout_CC1*%
%TO.N,/5: /CC1*%
X163250926Y-117249935D03*
%TO.P,J2,A6,usb-c-pinout_DP1*%
%TO.N,/5: /DP1*%
X163751053Y-117249935D03*
%TO.P,J2,A7,usb-c-pinout_DN1*%
%TO.N,/5: /DN1*%
X164250926Y-117249935D03*
%TO.P,J2,A8,usb-c-pinout_SBU1*%
%TO.N,/5: /SBU1*%
X164751053Y-117249935D03*
%TO.P,J2,A9,usb-c-pinout_VBUS*%
%TO.N,/5: /VBUS*%
X165250926Y-117249935D03*
%TO.P,J2,A10,usb-c-pinout_SSRXN2*%
%TO.N,/5: /SSRXN2*%
X165751053Y-117249935D03*
%TO.P,J2,A11,usb-c-pinout_SSRXP2*%
%TO.N,/5: /SSRXP2*%
X166250926Y-117249935D03*
%TO.P,J2,A12,usb-c-pinout_GND*%
%TO.N,/5: /GND-usb*%
X166751053Y-117249935D03*
%TO.P,J2,B1,usb-c-pinout_GND*%
X166751079Y-118751587D03*
%TO.P,J2,B2,usb-c-pinout_SSTXP2*%
%TO.N,/5: /IN*%
X166250952Y-118751587D03*
%TO.P,J2,B3,usb-c-pinout_SSTXN2*%
%TO.N,/5: /SSTXN2*%
X165751079Y-118751587D03*
%TO.P,J2,B4,usb-c-pinout_VBUS*%
%TO.N,/5: /VBUS*%
X165250952Y-118751587D03*
%TO.P,J2,B5,usb-c-pinout_CC2*%
%TO.N,/5: /CC2*%
X164751079Y-118751587D03*
%TO.P,J2,B6,usb-c-pinout_DP2*%
%TO.N,/5: /DP2*%
X164250952Y-118751587D03*
%TO.P,J2,B7,usb-c-pinout_DN2*%
%TO.N,/5: /DN2*%
X163751079Y-118751587D03*
%TO.P,J2,B8,usb-c-pinout_SBU2*%
%TO.N,/5: /SBU2*%
X163250952Y-118751587D03*
%TO.P,J2,B9,usb-c-pinout_VBUS*%
%TO.N,/5: /VBUS*%
X162751079Y-118751587D03*
%TO.P,J2,B10,usb-c-pinout_SSRXN1*%
%TO.N,/5: /SSRXN1*%
X162250952Y-118751587D03*
%TO.P,J2,B11,usb-c-pinout_SSRXP1*%
%TO.N,/5: /SSRXP1*%
X161751079Y-118751587D03*
%TO.P,J2,B12,usb-c-pinout_GND*%
%TO.N,/5: /GND-usb*%
X161250952Y-118751587D03*
%TD*%
D12*
%TO.P,U8,tp,p*%
%TO.N,/5: /SSRXP1*%
X144700000Y-116828571D03*
%TD*%
D13*
%TO.P,LED14,1,a*%
%TO.N,Net-(LED14-a)*%
X147818933Y-107228570D03*
%TO.P,LED14,2,c*%
%TO.N,Net-(B1-power_gnd)*%
X146381065Y-107228570D03*
%TD*%
D14*
%TO.P,B1,1,power_vdd*%
%TO.N,/5: /POWER*%
X115714285Y-95142856D03*
%TO.P,B1,2,power_gnd*%
%TO.N,Net-(B1-power_gnd)*%
X144714285Y-95142856D03*
%TD*%
D12*
%TO.P,U12,tp,p*%
%TO.N,/5: /CC1*%
X152300000Y-110428571D03*
%TD*%
%TO.P,U13,tp,p*%
%TO.N,/5: /DP1*%
X154200000Y-108828571D03*
%TD*%
D15*
%TO.P,R14,1,1*%
%TO.N,/5: /DN1*%
X150732999Y-107228070D03*
%TO.P,R14,2,2*%
%TO.N,Net-(LED14-a)*%
X149866999Y-107228070D03*
%TD*%
D13*
%TO.P,LED12,1,a*%
%TO.N,Net-(LED12-a)*%
X144018933Y-110428570D03*
%TO.P,LED12,2,c*%
%TO.N,Net-(B1-power_gnd)*%
X142581065Y-110428570D03*
%TD*%
D15*
%TO.P,R5,1,1*%
%TO.N,/5: /DN2*%
X133632999Y-121628070D03*
%TO.P,R5,2,2*%
%TO.N,Net-(LED5-a)*%
X132766999Y-121628070D03*
%TD*%
%TO.P,R1,1,1*%
%TO.N,/5: /IN*%
X126032999Y-128028070D03*
%TO.P,R1,2,2*%
%TO.N,Net-(LED1-a)*%
X125166999Y-128028070D03*
%TD*%
D12*
%TO.P,U6,tp,p*%
%TO.N,/5: /SBU2*%
X140900000Y-120028571D03*
%TD*%
D15*
%TO.P,R17,1,1*%
%TO.N,/5: /SSRXP2*%
X156432999Y-102428070D03*
%TO.P,R17,2,2*%
%TO.N,Net-(LED17-a)*%
X155566999Y-102428070D03*
%TD*%
D12*
%TO.P,U4,tp,p*%
%TO.N,/5: /DP2*%
X137100000Y-123228571D03*
%TD*%
D13*
%TO.P,LED13,1,a*%
%TO.N,Net-(LED13-a)*%
X145918933Y-108828570D03*
%TO.P,LED13,2,c*%
%TO.N,Net-(B1-power_gnd)*%
X144481065Y-108828570D03*
%TD*%
%TO.P,LED4,1,a*%
%TO.N,Net-(LED4-a)*%
X128818933Y-123228570D03*
%TO.P,LED4,2,c*%
%TO.N,Net-(B1-power_gnd)*%
X127381065Y-123228570D03*
%TD*%
D12*
%TO.P,U17,tp,p*%
%TO.N,/5: /SSRXP2*%
X161800000Y-102428571D03*
%TD*%
%TO.P,U5,tp,p*%
%TO.N,/5: /DN2*%
X139000000Y-121628571D03*
%TD*%
%TO.P,U18,tp,p*%
%TO.N,/5: /GND-usb*%
X163700000Y-100828571D03*
%TD*%
D15*
%TO.P,R4,1,1*%
%TO.N,/5: /DP2*%
X131732999Y-123228070D03*
%TO.P,R4,2,2*%
%TO.N,Net-(LED4-a)*%
X130866999Y-123228070D03*
%TD*%
D12*
%TO.P,U2,tp,p*%
%TO.N,/5: /SSTXN2*%
X133300000Y-126428571D03*
%TD*%
D15*
%TO.P,R6,1,1*%
%TO.N,/5: /SBU2*%
X135532999Y-120028070D03*
%TO.P,R6,2,2*%
%TO.N,Net-(LED6-a)*%
X134666999Y-120028070D03*
%TD*%
D13*
%TO.P,LED11,1,a*%
%TO.N,Net-(LED11-a)*%
X142118933Y-112028570D03*
%TO.P,LED11,2,c*%
%TO.N,Net-(B1-power_gnd)*%
X140681065Y-112028570D03*
%TD*%
%TO.P,LED1,1,a*%
%TO.N,Net-(LED1-a)*%
X123118933Y-128028570D03*
%TO.P,LED1,2,c*%
%TO.N,Net-(B1-power_gnd)*%
X121681065Y-128028570D03*
%TD*%
%TO.P,LED6,1,a*%
%TO.N,Net-(LED6-a)*%
X132618933Y-120028570D03*
%TO.P,LED6,2,c*%
%TO.N,Net-(B1-power_gnd)*%
X131181065Y-120028570D03*
%TD*%
%TO.P,LED17,1,a*%
%TO.N,Net-(LED17-a)*%
X153518933Y-102428570D03*
%TO.P,LED17,2,c*%
%TO.N,Net-(B1-power_gnd)*%
X152081065Y-102428570D03*
%TD*%
D15*
%TO.P,R13,1,1*%
%TO.N,/5: /DP1*%
X148832999Y-108828070D03*
%TO.P,R13,2,2*%
%TO.N,Net-(LED13-a)*%
X147966999Y-108828070D03*
%TD*%
D12*
%TO.P,U14,tp,p*%
%TO.N,/5: /DN1*%
X156100000Y-107228571D03*
%TD*%
%TO.P,U16,tp,p*%
%TO.N,/5: /SSRXN2*%
X159900000Y-104028571D03*
%TD*%
D15*
%TO.P,R7,1,1*%
%TO.N,/5: /SSRXN1*%
X137432999Y-118428070D03*
%TO.P,R7,2,2*%
%TO.N,Net-(LED7-a)*%
X136566999Y-118428070D03*
%TD*%
D12*
%TO.P,U10,tp,p*%
%TO.N,/5: /SSTXN1*%
X148500000Y-113628571D03*
%TD*%
D15*
%TO.P,R2,1,1*%
%TO.N,/5: /SSTXN2*%
X127932999Y-126428070D03*
%TO.P,R2,2,2*%
%TO.N,Net-(LED2-a)*%
X127066999Y-126428070D03*
%TD*%
%TO.P,R15,1,1*%
%TO.N,/5: /SBU1*%
X152632999Y-105628070D03*
%TO.P,R15,2,2*%
%TO.N,Net-(LED15-a)*%
X151766999Y-105628070D03*
%TD*%
%TO.P,R11,1,1*%
%TO.N,/5: /VBUS*%
X145032999Y-112028070D03*
%TO.P,R11,2,2*%
%TO.N,Net-(LED11-a)*%
X144166999Y-112028070D03*
%TD*%
D13*
%TO.P,LED7,1,a*%
%TO.N,Net-(LED7-a)*%
X134518933Y-118428570D03*
%TO.P,LED7,2,c*%
%TO.N,Net-(B1-power_gnd)*%
X133081065Y-118428570D03*
%TD*%
D15*
%TO.P,R10,1,1*%
%TO.N,/5: /SSTXN1*%
X143132999Y-113628070D03*
%TO.P,R10,2,2*%
%TO.N,Net-(LED10-a)*%
X142266999Y-113628070D03*
%TD*%
%TO.P,R16,1,1*%
%TO.N,/5: /SSRXN2*%
X154532999Y-104028070D03*
%TO.P,R16,2,2*%
%TO.N,Net-(LED16-a)*%
X153666999Y-104028070D03*
%TD*%
D12*
%TO.P,U11,tp,p*%
%TO.N,/5: /VBUS*%
X150400000Y-112028571D03*
%TD*%
D13*
%TO.P,LED3,1,a*%
%TO.N,Net-(LED3-a)*%
X126918933Y-124828570D03*
%TO.P,LED3,2,c*%
%TO.N,Net-(B1-power_gnd)*%
X125481065Y-124828570D03*
%TD*%
%TO.P,LED10,1,a*%
%TO.N,Net-(LED10-a)*%
X140218933Y-113628570D03*
%TO.P,LED10,2,c*%
%TO.N,Net-(B1-power_gnd)*%
X138781065Y-113628570D03*
%TD*%
D15*
%TO.P,R18,1,1*%
%TO.N,/5: /GND-usb*%
X158332999Y-100828070D03*
%TO.P,R18,2,2*%
%TO.N,Net-(LED18-a)*%
X157466999Y-100828070D03*
%TD*%
D10*
%TO.P,J1,25,usb-c-pinout_shield*%
%TO.N,/5: /POWER*%
X117401041Y-115849886D03*
%TO.P,J1,26,usb-c-pinout_shield*%
X112600940Y-115849886D03*
%TO.P,J1,27,usb-c-pinout_shield*%
X112600940Y-120150114D03*
%TO.P,J1,28,usb-c-pinout_shield*%
X117401041Y-120150114D03*
D11*
%TO.P,J1,A1,usb-c-pinout_GND*%
X112250926Y-117249935D03*
%TO.P,J1,A2,usb-c-pinout_SSTXP1*%
X112751053Y-117249935D03*
%TO.P,J1,A3,usb-c-pinout_SSTXN1*%
X113250926Y-117249935D03*
%TO.P,J1,A4,usb-c-pinout_VBUS*%
X113751053Y-117249935D03*
%TO.P,J1,A5,usb-c-pinout_CC1*%
X114250926Y-117249935D03*
%TO.P,J1,A6,usb-c-pinout_DP1*%
X114751053Y-117249935D03*
%TO.P,J1,A7,usb-c-pinout_DN1*%
X115250926Y-117249935D03*
%TO.P,J1,A8,usb-c-pinout_SBU1*%
X115751053Y-117249935D03*
%TO.P,J1,A9,usb-c-pinout_VBUS*%
X116250926Y-117249935D03*
%TO.P,J1,A10,usb-c-pinout_SSRXN2*%
X116751053Y-117249935D03*
%TO.P,J1,A11,usb-c-pinout_SSRXP2*%
X117250926Y-117249935D03*
%TO.P,J1,A12,usb-c-pinout_GND*%
X117751053Y-117249935D03*
%TO.P,J1,B1,usb-c-pinout_GND*%
X117751079Y-118751587D03*
%TO.P,J1,B2,usb-c-pinout_SSTXP2*%
X117250952Y-118751587D03*
%TO.P,J1,B3,usb-c-pinout_SSTXN2*%
X116751079Y-118751587D03*
%TO.P,J1,B4,usb-c-pinout_VBUS*%
X116250952Y-118751587D03*
%TO.P,J1,B5,usb-c-pinout_CC2*%
X115751079Y-118751587D03*
%TO.P,J1,B6,usb-c-pinout_DP2*%
X115250952Y-118751587D03*
%TO.P,J1,B7,usb-c-pinout_DN2*%
X114751079Y-118751587D03*
%TO.P,J1,B8,usb-c-pinout_SBU2*%
X114250952Y-118751587D03*
%TO.P,J1,B9,usb-c-pinout_VBUS*%
X113751079Y-118751587D03*
%TO.P,J1,B10,usb-c-pinout_SSRXN1*%
X113250952Y-118751587D03*
%TO.P,J1,B11,usb-c-pinout_SSRXP1*%
X112751079Y-118751587D03*
%TO.P,J1,B12,usb-c-pinout_GND*%
X112250952Y-118751587D03*
%TD*%
D12*
%TO.P,U7,tp,p*%
%TO.N,/5: /SSRXN1*%
X142800000Y-118428571D03*
%TD*%
%TO.P,U9,tp,p*%
%TO.N,/5: /SSTXP1*%
X146600000Y-115228571D03*
%TD*%
%TO.P,U3,tp,p*%
%TO.N,/5: /CC2*%
X135200000Y-124828571D03*
%TD*%
D13*
%TO.P,LED9,1,a*%
%TO.N,Net-(LED9-a)*%
X138318933Y-115228570D03*
%TO.P,LED9,2,c*%
%TO.N,Net-(B1-power_gnd)*%
X136881065Y-115228570D03*
%TD*%
%TO.P,LED18,1,a*%
%TO.N,Net-(LED18-a)*%
X155418933Y-100828570D03*
%TO.P,LED18,2,c*%
%TO.N,Net-(B1-power_gnd)*%
X153981065Y-100828570D03*
%TD*%
%TO.P,LED16,1,a*%
%TO.N,Net-(LED16-a)*%
X151618933Y-104028570D03*
%TO.P,LED16,2,c*%
%TO.N,Net-(B1-power_gnd)*%
X150181065Y-104028570D03*
%TD*%
D15*
%TO.P,R12,1,1*%
%TO.N,/5: /CC1*%
X146932999Y-110428070D03*
%TO.P,R12,2,2*%
%TO.N,Net-(LED12-a)*%
X146066999Y-110428070D03*
%TD*%
%TO.P,R9,1,1*%
%TO.N,/5: /SSTXP1*%
X141232999Y-115228070D03*
%TO.P,R9,2,2*%
%TO.N,Net-(LED9-a)*%
X140366999Y-115228070D03*
%TD*%
%TO.P,R3,1,1*%
%TO.N,/5: /CC2*%
X129832999Y-124828070D03*
%TO.P,R3,2,2*%
%TO.N,Net-(LED3-a)*%
X128966999Y-124828070D03*
%TD*%
D13*
%TO.P,LED15,1,a*%
%TO.N,Net-(LED15-a)*%
X149718933Y-105628570D03*
%TO.P,LED15,2,c*%
%TO.N,Net-(B1-power_gnd)*%
X148281065Y-105628570D03*
%TD*%
%TO.P,LED8,1,a*%
%TO.N,Net-(LED8-a)*%
X136418933Y-116828570D03*
%TO.P,LED8,2,c*%
%TO.N,Net-(B1-power_gnd)*%
X134981065Y-116828570D03*
%TD*%
%TO.P,LED2,1,a*%
%TO.N,Net-(LED2-a)*%
X125018933Y-126428570D03*
%TO.P,LED2,2,c*%
%TO.N,Net-(B1-power_gnd)*%
X123581065Y-126428570D03*
%TD*%
D15*
%TO.P,R8,1,1*%
%TO.N,/5: /SSRXP1*%
X139332999Y-116828070D03*
%TO.P,R8,2,2*%
%TO.N,Net-(LED8-a)*%
X138466999Y-116828070D03*
%TD*%
D12*
%TO.P,U1,tp,p*%
%TO.N,/5: /IN*%
X131400000Y-128028571D03*
%TD*%
%TO.P,U15,tp,p*%
%TO.N,/5: /SBU1*%
X158000000Y-105628571D03*
%TD*%
D13*
%TO.P,LED5,1,a*%
%TO.N,Net-(LED5-a)*%
X130718933Y-121628570D03*
%TO.P,LED5,2,c*%
%TO.N,Net-(B1-power_gnd)*%
X129281065Y-121628570D03*
%TD*%
D16*
%TO.N,/5: /GND-usb*%
X168275000Y-119507000D03*
X168656000Y-116459000D03*
X159258000Y-118999000D03*
X159258000Y-116586000D03*
%TD*%
D17*
%TO.N,/5: /SSTXN2*%
X165751080Y-118751588D02*
X165751080Y-119312321D01*
X165751080Y-119312321D02*
X165227000Y-119836401D01*
X165227000Y-122855966D02*
X161463966Y-126619000D01*
X165227000Y-119836401D02*
X165227000Y-122855966D01*
X161463966Y-126619000D02*
X156210000Y-126619000D01*
X156210000Y-126619000D02*
X156019571Y-126428571D01*
X156019571Y-126428571D02*
X133300000Y-126428571D01*
%TO.N,/5: /IN*%
X131400000Y-128028571D02*
X160515429Y-128028571D01*
X160515429Y-128028571D02*
X165807000Y-122737000D01*
X165807000Y-122737000D02*
X165807000Y-121484000D01*
X166250953Y-118751588D02*
X166250953Y-119273482D01*
X165675041Y-119849394D02*
X165675041Y-121352041D01*
X165807000Y-121484000D02*
X165807000Y-122182034D01*
X166250953Y-119273482D02*
X165675041Y-119849394D01*
X165675041Y-121352041D02*
X165807000Y-121484000D01*
%TO.N,/5: /SSRXN1*%
X162052000Y-120904000D02*
X159258000Y-120904000D01*
X162687000Y-120269000D02*
X162052000Y-120904000D01*
X162250953Y-118751588D02*
X162250953Y-119426594D01*
X162250953Y-119426594D02*
X162687000Y-119862641D01*
X162687000Y-119862641D02*
X162687000Y-120269000D01*
X159258000Y-120904000D02*
X159104114Y-120750114D01*
X159104114Y-120750114D02*
X145121543Y-120750114D01*
D18*
%TO.N,/5: /SSRXP1*%
X161093886Y-119449114D02*
X160782000Y-119761000D01*
X161728886Y-119449114D02*
X161093886Y-119449114D01*
X161751080Y-119426920D02*
X161728886Y-119449114D01*
X161751080Y-118751588D02*
X161751080Y-119426920D01*
X160782000Y-119761000D02*
X147632429Y-119761000D01*
%TO.N,/5: /SSTXP1*%
X162560000Y-115189000D02*
X162306000Y-114935000D01*
X162560000Y-115951000D02*
X162560000Y-115189000D01*
X161751054Y-117249936D02*
X161751054Y-116759946D01*
X161751054Y-116759946D02*
X162560000Y-115951000D01*
D17*
X160348139Y-114935000D02*
X161671000Y-114935000D01*
X161671000Y-114935000D02*
X161811898Y-114935000D01*
D18*
X162306000Y-114935000D02*
X161671000Y-114935000D01*
%TO.N,/5: /SSTXN1*%
X162250927Y-117249936D02*
X162400054Y-117100809D01*
X162665000Y-116332000D02*
X162665000Y-116311609D01*
X162400054Y-117100809D02*
X162400054Y-116596946D01*
X162400054Y-116596946D02*
X162665000Y-116332000D01*
X162665000Y-116311609D02*
X163300805Y-115675805D01*
X163300805Y-115675805D02*
X163300805Y-114991551D01*
X163300805Y-114991551D02*
X161937825Y-113628571D01*
X161937825Y-113628571D02*
X160966503Y-113628571D01*
%TO.N,/5: /VBUS*%
X162751054Y-116775946D02*
X162941000Y-116586000D01*
X162751054Y-117249936D02*
X162751054Y-116775946D01*
X162941000Y-116586000D02*
X162941000Y-116425932D01*
X162941000Y-116425932D02*
X163703000Y-115663932D01*
D17*
X160763503Y-112028571D02*
X150400000Y-112028571D01*
X163703000Y-114968068D02*
X160763503Y-112028571D01*
X163703000Y-115663932D02*
X163703000Y-114968068D01*
%TO.N,/5: /CC1*%
X163250927Y-117249936D02*
X163250927Y-116592093D01*
X159624537Y-110428571D02*
X152300000Y-110428571D01*
X163250927Y-116592093D02*
X163607010Y-116236010D01*
X163607010Y-116236010D02*
X163607010Y-116220956D01*
X164045041Y-114849075D02*
X159624537Y-110428571D01*
X163607010Y-116220956D02*
X164045041Y-115782925D01*
X164045041Y-115782925D02*
X164045041Y-114849075D01*
%TO.N,/5: /DP1*%
X163751054Y-117249936D02*
X163751054Y-116553000D01*
X163751054Y-116553000D02*
X164099054Y-116205000D01*
X164099054Y-116205000D02*
X164099054Y-116189946D01*
X164099054Y-116189946D02*
X164371041Y-115917959D01*
X164371041Y-115917959D02*
X164371041Y-114714041D01*
X164371041Y-114714041D02*
X158485571Y-108828571D01*
X158485571Y-108828571D02*
X154200000Y-108828571D01*
%TO.N,/5: /DN1*%
X164250927Y-117249936D02*
X164250927Y-116633127D01*
X164697041Y-116146925D02*
X164697041Y-113389041D01*
X164250927Y-116633127D02*
X164425054Y-116459000D01*
X164425054Y-116459000D02*
X164425054Y-116418912D01*
X164425054Y-116418912D02*
X164697041Y-116146925D01*
X164697041Y-113389041D02*
X158536571Y-107228571D01*
X158536571Y-107228571D02*
X156100000Y-107228571D01*
%TO.N,/5: /SBU1*%
X158000000Y-105628571D02*
X158587571Y-105628571D01*
X158587571Y-105628571D02*
X165023041Y-112064041D01*
X165023041Y-112064041D02*
X165023041Y-116281959D01*
X165023041Y-116281959D02*
X164751054Y-116553946D01*
X164751054Y-116553946D02*
X164751054Y-117249936D01*
%TO.N,/5: /SSRXN2*%
X165751054Y-117249936D02*
X165751054Y-116729054D01*
X165751054Y-116729054D02*
X165349041Y-116327041D01*
X165349041Y-116327041D02*
X165349041Y-109477611D01*
X165349041Y-109477611D02*
X159900000Y-104028571D01*
%TO.N,/5: /SSTXP1*%
X160054568Y-115228571D02*
X160348139Y-114935000D01*
%TO.N,/5: /SSTXN1*%
X160966503Y-113628571D02*
X148500000Y-113628571D01*
%TO.N,/5: /SSRXP2*%
X165675041Y-116150606D02*
X165675041Y-106303611D01*
X165004215Y-105632785D02*
X161800000Y-102428571D01*
X166250927Y-117249936D02*
X166250927Y-116726492D01*
X166250927Y-116726492D02*
X165675041Y-116150606D01*
X165675041Y-106303611D02*
X165004215Y-105632785D01*
%TO.N,/5: /SSRXN2*%
X165751054Y-117249936D02*
X165675041Y-117173923D01*
%TO.N,/5: /VBUS*%
X162751054Y-118110000D02*
X162751054Y-118751562D01*
X162751054Y-117249936D02*
X162751054Y-118110000D01*
X165250927Y-117983000D02*
X165250927Y-118751562D01*
X165250927Y-117249936D02*
X165250927Y-117983000D01*
X162751054Y-118110000D02*
X165123927Y-118110000D01*
X165123927Y-118110000D02*
X165250927Y-117983000D01*
%TO.N,/5: /GND-usb*%
X163700000Y-100828571D02*
X158333500Y-100828571D01*
X158333500Y-100828571D02*
X158333000Y-100828071D01*
%TO.N,Net-(LED18-a)*%
X157467000Y-100828071D02*
X155419434Y-100828071D01*
X155419434Y-100828071D02*
X155418934Y-100828571D01*
%TO.N,/5: /SSRXP2*%
X156433000Y-102428071D02*
X161799500Y-102428071D01*
X161799500Y-102428071D02*
X161800000Y-102428571D01*
%TO.N,Net-(LED17-a)*%
X155567000Y-102428071D02*
X153519434Y-102428071D01*
X153519434Y-102428071D02*
X153518934Y-102428571D01*
%TO.N,/5: /SSRXN2*%
X154533000Y-104028071D02*
X159899500Y-104028071D01*
X159899500Y-104028071D02*
X159900000Y-104028571D01*
%TO.N,Net-(LED16-a)*%
X151618934Y-104028571D02*
X153666500Y-104028571D01*
X153666500Y-104028571D02*
X153667000Y-104028071D01*
%TO.N,/5: /SBU1*%
X152633000Y-105628071D02*
X157999500Y-105628071D01*
X157999500Y-105628071D02*
X158000000Y-105628571D01*
%TO.N,Net-(LED15-a)*%
X151767000Y-105628071D02*
X149719434Y-105628071D01*
X149719434Y-105628071D02*
X149718934Y-105628571D01*
%TO.N,/5: /DN1*%
X150733000Y-107228071D02*
X156099500Y-107228071D01*
X156099500Y-107228071D02*
X156100000Y-107228571D01*
%TO.N,Net-(LED14-a)*%
X149867000Y-107228071D02*
X147819434Y-107228071D01*
X147819434Y-107228071D02*
X147818934Y-107228571D01*
%TO.N,/5: /DP1*%
X148833000Y-108828071D02*
X154199500Y-108828071D01*
X154199500Y-108828071D02*
X154200000Y-108828571D01*
%TO.N,Net-(LED13-a)*%
X145918934Y-108828571D02*
X147966500Y-108828571D01*
X147966500Y-108828571D02*
X147967000Y-108828071D01*
%TO.N,Net-(LED12-a)*%
X146067000Y-110428071D02*
X144019434Y-110428071D01*
X144019434Y-110428071D02*
X144018934Y-110428571D01*
%TO.N,/5: /CC1*%
X146933000Y-110428071D02*
X152299500Y-110428071D01*
X152299500Y-110428071D02*
X152300000Y-110428571D01*
%TO.N,/5: /VBUS*%
X145033000Y-112028071D02*
X150399500Y-112028071D01*
X150399500Y-112028071D02*
X150400000Y-112028571D01*
%TO.N,/5: /SSTXN1*%
X143133000Y-113628071D02*
X148499500Y-113628071D01*
X148499500Y-113628071D02*
X148500000Y-113628571D01*
%TO.N,/5: /SSTXP1*%
X141233000Y-115228071D02*
X146599500Y-115228071D01*
X146599500Y-115228071D02*
X146600000Y-115228571D01*
%TO.N,/5: /SSRXP1*%
X139333000Y-116828071D02*
X144699500Y-116828071D01*
X144699500Y-116828071D02*
X144700000Y-116828571D01*
%TO.N,/5: /SSRXN1*%
X137433000Y-118428071D02*
X142799500Y-118428071D01*
X142799500Y-118428071D02*
X142800000Y-118428571D01*
%TO.N,/5: /SBU2*%
X135533000Y-120028071D02*
X140899500Y-120028071D01*
X140899500Y-120028071D02*
X140900000Y-120028571D01*
%TO.N,/5: /DN2*%
X133633000Y-121628071D02*
X138999500Y-121628071D01*
X138999500Y-121628071D02*
X139000000Y-121628571D01*
%TO.N,/5: /DP2*%
X131733000Y-123228071D02*
X137099500Y-123228071D01*
X137099500Y-123228071D02*
X137100000Y-123228571D01*
%TO.N,/5: /GND-usb*%
X167506492Y-119507000D02*
X168275000Y-119507000D01*
X166751080Y-118751588D02*
X167506492Y-119507000D01*
X167541990Y-116459000D02*
X168656000Y-116459000D01*
X166751054Y-117249936D02*
X167541990Y-116459000D01*
X159385000Y-119126000D02*
X159258000Y-118999000D01*
X160782000Y-119126000D02*
X159385000Y-119126000D01*
X161250953Y-118751588D02*
X161156412Y-118751588D01*
X161156412Y-118751588D02*
X160782000Y-119126000D01*
X160528000Y-116586000D02*
X159258000Y-116586000D01*
X160655000Y-116713000D02*
X160528000Y-116586000D01*
X161250927Y-117249936D02*
X161191936Y-117249936D01*
X161191936Y-117249936D02*
X160655000Y-116713000D01*
X166751054Y-117249936D02*
X167640000Y-116360990D01*
X167640000Y-116360990D02*
X167640000Y-104768571D01*
X167640000Y-104768571D02*
X163700000Y-100828571D01*
%TO.N,/5: /SSRXP2*%
X166250927Y-117249936D02*
X166250927Y-116924930D01*
%TO.N,/5: /SSTXP1*%
X161751054Y-117249936D02*
X161751054Y-116925057D01*
X160054568Y-115228571D02*
X146600000Y-115228571D01*
%TO.N,/5: /VBUS*%
X162751054Y-118751562D02*
X162751080Y-118751588D01*
X165250927Y-118751562D02*
X165250953Y-118751588D01*
%TO.N,/5: /GND-usb*%
X166751054Y-117249936D02*
X166751054Y-118751562D01*
X166751054Y-118751562D02*
X166751080Y-118751588D01*
X161250927Y-117249936D02*
X161250927Y-118751562D01*
X161250927Y-118751562D02*
X161250953Y-118751588D01*
%TO.N,/5: /SSRXP1*%
X161751080Y-118751588D02*
X161751080Y-119076594D01*
X147632429Y-119761000D02*
X144700000Y-116828571D01*
%TO.N,/5: /SSRXN1*%
X145121543Y-120750114D02*
X142800000Y-118428571D01*
%TO.N,/5: /SBU2*%
X163250953Y-120848047D02*
X162814000Y-121285000D01*
X163250953Y-118751588D02*
X163250953Y-120848047D01*
X162814000Y-121285000D02*
X142156429Y-121285000D01*
X142156429Y-121285000D02*
X140900000Y-120028571D01*
%TO.N,/5: /DN2*%
X163751080Y-118751588D02*
X163751080Y-121236920D01*
X163751080Y-121236920D02*
X163359429Y-121628571D01*
X163359429Y-121628571D02*
X139000000Y-121628571D01*
%TO.N,/5: /DP2*%
X164250953Y-118751588D02*
X164250953Y-122515047D01*
X164250953Y-122515047D02*
X163537429Y-123228571D01*
X163537429Y-123228571D02*
X137100000Y-123228571D01*
%TO.N,/5: /CC2*%
X164751080Y-118751588D02*
X164751080Y-122395920D01*
X164751080Y-122395920D02*
X162318429Y-124828571D01*
X162318429Y-124828571D02*
X135200000Y-124828571D01*
%TO.N,/5: /IN*%
X166250953Y-118751588D02*
X166250953Y-119076594D01*
%TO.N,/5: /POWER*%
X117401041Y-115849886D02*
X117401041Y-117040959D01*
X115714286Y-95142857D02*
X115714286Y-117213168D01*
X117401041Y-120150114D02*
X112600940Y-120150114D01*
X117751054Y-117249936D02*
X117751054Y-118751562D01*
X117401041Y-115849886D02*
X117401041Y-96829612D01*
X115690412Y-118751588D02*
X114250953Y-118751588D01*
X112600940Y-98256203D02*
X115714286Y-95142857D01*
X112600940Y-119401601D02*
X113250953Y-118751588D01*
X117401041Y-119401549D02*
X116751080Y-118751588D01*
X112600940Y-115849886D02*
X112600940Y-98256203D01*
X115751054Y-118751562D02*
X115751080Y-118751588D01*
X112600940Y-117099822D02*
X112751054Y-117249936D01*
X114250927Y-117249936D02*
X114250927Y-118751562D01*
X112600940Y-115849886D02*
X117401041Y-115849886D01*
X115714286Y-117213168D02*
X115751054Y-117249936D01*
X117751080Y-118751588D02*
X112250953Y-118751588D01*
X115751054Y-117249936D02*
X115751054Y-118751562D01*
X112250927Y-117249936D02*
X117751054Y-117249936D01*
X117401041Y-120150114D02*
X117401041Y-119401549D01*
X112250953Y-118751588D02*
X112250953Y-117249962D01*
X112600940Y-120150114D02*
X112600940Y-119401601D01*
X117401041Y-96829612D02*
X115714286Y-95142857D01*
X112250953Y-117249962D02*
X112250927Y-117249936D01*
X117401041Y-117040959D02*
X115690412Y-118751588D01*
X117751054Y-118751562D02*
X117751080Y-118751588D01*
X114250927Y-118751562D02*
X114250953Y-118751588D01*
X112600940Y-115849886D02*
X112600940Y-117099822D01*
%TO.N,Net-(B1-power_gnd)*%
X146381066Y-107228571D02*
X147981066Y-105628571D01*
X135890000Y-110993572D02*
X135890000Y-104013000D01*
X139081066Y-113628571D02*
X140681066Y-112028571D01*
X144714286Y-95188714D02*
X142049500Y-97853500D01*
X144481066Y-108828571D02*
X144781066Y-108828571D01*
X135281066Y-116828571D02*
X136881066Y-115228571D01*
X136779000Y-103124000D02*
X130810000Y-109093000D01*
X131181066Y-120028571D02*
X131181066Y-120005066D01*
X144714286Y-95142857D02*
X144714286Y-95188714D01*
X121681066Y-128028571D02*
X121681066Y-125349000D01*
X130363286Y-116520286D02*
X136014786Y-110868786D01*
X136881066Y-115228571D02*
X136818571Y-115228571D01*
X123881066Y-126428571D02*
X125481066Y-124828571D01*
X129581066Y-121628571D02*
X131181066Y-120028571D01*
X149881066Y-104028571D02*
X150181066Y-104028571D01*
X144714286Y-102169286D02*
X144714286Y-95142857D01*
X142881066Y-110428571D02*
X144481066Y-108828571D01*
X121681066Y-125202506D02*
X124838786Y-122044786D01*
X127381066Y-123228571D02*
X127681066Y-123228571D01*
X127681066Y-123228571D02*
X129281066Y-121628571D01*
X131181066Y-120005066D02*
X130175000Y-118999000D01*
X152081066Y-102428571D02*
X152381066Y-102428571D01*
X138781066Y-113628571D02*
X139081066Y-113628571D01*
X121681066Y-125349000D02*
X121681066Y-125202506D01*
X153981066Y-100828571D02*
X153981066Y-100133066D01*
X124714000Y-115189000D02*
X124968000Y-114935000D01*
X148173571Y-105628571D02*
X144714286Y-102169286D01*
X130175000Y-109728000D02*
X130810000Y-109093000D01*
X134981066Y-116828571D02*
X135281066Y-116828571D01*
X142581066Y-110428571D02*
X141732000Y-109579505D01*
X142049500Y-97853500D02*
X136779000Y-103124000D01*
X130810000Y-109093000D02*
X124968000Y-114935000D01*
X124714000Y-124460000D02*
X124714000Y-122169572D01*
X150481066Y-104028571D02*
X152081066Y-102428571D01*
X133381066Y-118428571D02*
X134981066Y-116828571D01*
X125481066Y-124828571D02*
X125082571Y-124828571D01*
X123281066Y-126428571D02*
X123581066Y-126428571D01*
X136818571Y-115228571D02*
X135890000Y-114300000D01*
X124838786Y-122044786D02*
X130363286Y-116520286D01*
X125481066Y-124828571D02*
X125781066Y-124828571D01*
X130175000Y-116708572D02*
X130363286Y-116520286D01*
X148971000Y-95123000D02*
X148951143Y-95142857D01*
X144781066Y-108828571D02*
X146381066Y-107228571D01*
X141732000Y-105151572D02*
X141793286Y-105090286D01*
X136881066Y-115228571D02*
X137181066Y-115228571D01*
X152381066Y-102428571D02*
X153981066Y-100828571D01*
X123581066Y-126428571D02*
X123881066Y-126428571D01*
X141732000Y-98171000D02*
X142049500Y-97853500D01*
X124714000Y-122169572D02*
X124714000Y-115189000D01*
X137181066Y-115228571D02*
X138781066Y-113628571D01*
X121681066Y-118221934D02*
X121681066Y-125349000D01*
X153981066Y-100133066D02*
X148971000Y-95123000D01*
X125781066Y-124828571D02*
X127381066Y-123228571D01*
X135890000Y-114300000D02*
X135890000Y-110993572D01*
X147981066Y-105628571D02*
X148281066Y-105628571D01*
X141732000Y-109579505D02*
X141732000Y-105151572D01*
X129281066Y-121628571D02*
X129581066Y-121628571D01*
X148951143Y-95142857D02*
X144714286Y-95142857D01*
X150181066Y-104028571D02*
X150481066Y-104028571D01*
X132781066Y-118428571D02*
X133081066Y-118428571D01*
X131181066Y-120028571D02*
X132781066Y-118428571D01*
X133081066Y-118428571D02*
X133381066Y-118428571D01*
X148281066Y-105628571D02*
X148173571Y-105628571D01*
X141793286Y-105090286D02*
X144714286Y-102169286D01*
X136014786Y-110868786D02*
X141793286Y-105090286D01*
X125082571Y-124828571D02*
X124714000Y-124460000D01*
X130175000Y-116708572D02*
X130175000Y-109728000D01*
X140681066Y-112028571D02*
X140981066Y-112028571D01*
X124968000Y-114935000D02*
X121681066Y-118221934D01*
X135890000Y-110993572D02*
X136014786Y-110868786D01*
X130175000Y-118999000D02*
X130175000Y-116708572D01*
X141732000Y-105151572D02*
X141732000Y-98171000D01*
X140981066Y-112028571D02*
X142581066Y-110428571D01*
X148281066Y-105628571D02*
X149881066Y-104028571D01*
X142581066Y-110428571D02*
X142881066Y-110428571D01*
X135890000Y-104013000D02*
X136779000Y-103124000D01*
X124714000Y-122169572D02*
X124838786Y-122044786D01*
X121681066Y-128028571D02*
X123281066Y-126428571D01*
%TO.N,/5: /IN*%
X131399500Y-128028071D02*
X131400000Y-128028571D01*
X126033000Y-128028071D02*
X131399500Y-128028071D01*
%TO.N,/5: /SSTXN2*%
X133299500Y-126428071D02*
X133300000Y-126428571D01*
X127933000Y-126428071D02*
X133299500Y-126428071D01*
%TO.N,/5: /CC2*%
X129833000Y-124828071D02*
X135199500Y-124828071D01*
X135199500Y-124828071D02*
X135200000Y-124828571D01*
%TO.N,Net-(LED1-a)*%
X123118934Y-128028571D02*
X125166500Y-128028571D01*
X125166500Y-128028571D02*
X125167000Y-128028071D01*
%TO.N,Net-(LED2-a)*%
X125018934Y-126428571D02*
X127066500Y-126428571D01*
X127066500Y-126428571D02*
X127067000Y-126428071D01*
%TO.N,Net-(LED3-a)*%
X126918934Y-124828571D02*
X128966500Y-124828571D01*
X128966500Y-124828571D02*
X128967000Y-124828071D01*
%TO.N,Net-(LED4-a)*%
X130866500Y-123228571D02*
X130867000Y-123228071D01*
X128818934Y-123228571D02*
X130866500Y-123228571D01*
%TO.N,Net-(LED5-a)*%
X132766500Y-121628571D02*
X132767000Y-121628071D01*
X130718934Y-121628571D02*
X132766500Y-121628571D01*
%TO.N,Net-(LED6-a)*%
X134666500Y-120028571D02*
X134667000Y-120028071D01*
X132618934Y-120028571D02*
X134666500Y-120028571D01*
%TO.N,Net-(LED7-a)*%
X136566500Y-118428571D02*
X136567000Y-118428071D01*
X134518934Y-118428571D02*
X136566500Y-118428571D01*
%TO.N,Net-(LED8-a)*%
X136418934Y-116828571D02*
X138466500Y-116828571D01*
X138466500Y-116828571D02*
X138467000Y-116828071D01*
%TO.N,Net-(LED9-a)*%
X138318934Y-115228571D02*
X140366500Y-115228571D01*
X140366500Y-115228571D02*
X140367000Y-115228071D01*
%TO.N,Net-(LED10-a)*%
X140218934Y-113628571D02*
X142266500Y-113628571D01*
X142266500Y-113628571D02*
X142267000Y-113628071D01*
%TO.N,Net-(LED11-a)*%
X144166500Y-112028571D02*
X144167000Y-112028071D01*
X142118934Y-112028571D02*
X144166500Y-112028571D01*
%TD*%
%TA.AperFunction,Conductor*%
%TO.N,/5: /GND-usb*%
G36*
X160497759Y-115718202D02*
G01*
X160547663Y-115745886D01*
X160579883Y-115792990D01*
X160585984Y-115837732D01*
X160588157Y-115837732D01*
X160588157Y-115843825D01*
X160587560Y-115849886D01*
X160588157Y-115855947D01*
X160606434Y-116041522D01*
X160606435Y-116041528D01*
X160607032Y-116047587D01*
X160608799Y-116053412D01*
X160608800Y-116053417D01*
X160659203Y-116219571D01*
X160664699Y-116237690D01*
X160667568Y-116243057D01*
X160667570Y-116243062D01*
X160716574Y-116334741D01*
X160730859Y-116402592D01*
X160706483Y-116467504D01*
X160662891Y-116525735D01*
X160654474Y-116541151D01*
X160610038Y-116660287D01*
X160606500Y-116675261D01*
X160601280Y-116723814D01*
X160600927Y-116730411D01*
X160600927Y-117083610D01*
X160604377Y-117096485D01*
X160617253Y-117099936D01*
X160968554Y-117099936D01*
X161030554Y-117116549D01*
X161075941Y-117161936D01*
X161092554Y-117223936D01*
X161092554Y-117275936D01*
X161075941Y-117337936D01*
X161030554Y-117383323D01*
X160968554Y-117399936D01*
X160617253Y-117399936D01*
X160587949Y-117407788D01*
X160582149Y-117411685D01*
X160535401Y-117421364D01*
X160489676Y-117412890D01*
X160484506Y-117410048D01*
X160476948Y-117408107D01*
X160476947Y-117408107D01*
X160338008Y-117372433D01*
X160338007Y-117372432D01*
X160330452Y-117370493D01*
X160211324Y-117370493D01*
X160207464Y-117370980D01*
X160207457Y-117370981D01*
X160100869Y-117384446D01*
X160100865Y-117384446D01*
X160093131Y-117385424D01*
X160085881Y-117388294D01*
X160085879Y-117388295D01*
X159952498Y-117441104D01*
X159952492Y-117441107D01*
X159945249Y-117443975D01*
X159938944Y-117448555D01*
X159938940Y-117448558D01*
X159822888Y-117532875D01*
X159816575Y-117537462D01*
X159811603Y-117543471D01*
X159811603Y-117543472D01*
X159720164Y-117654002D01*
X159720161Y-117654005D01*
X159715192Y-117660013D01*
X159711874Y-117667064D01*
X159711869Y-117667072D01*
X159650792Y-117796868D01*
X159650789Y-117796876D01*
X159647472Y-117803926D01*
X159646011Y-117811580D01*
X159646010Y-117811586D01*
X159619129Y-117952501D01*
X159619128Y-117952507D01*
X159617669Y-117960159D01*
X159618158Y-117967936D01*
X159618158Y-117967942D01*
X159627165Y-118111105D01*
X159627166Y-118111111D01*
X159627656Y-118118895D01*
X159630066Y-118126314D01*
X159630067Y-118126316D01*
X159674392Y-118262737D01*
X159674394Y-118262742D01*
X159676805Y-118270161D01*
X159762029Y-118404452D01*
X159767710Y-118409787D01*
X159767712Y-118409789D01*
X159787713Y-118428571D01*
X159877971Y-118513329D01*
X160017348Y-118589952D01*
X160171402Y-118629507D01*
X160286635Y-118629507D01*
X160290530Y-118629507D01*
X160408723Y-118614576D01*
X160484287Y-118584657D01*
X160531226Y-118575958D01*
X160577980Y-118585640D01*
X160591389Y-118594650D01*
X160617279Y-118601588D01*
X160968580Y-118601588D01*
X161030580Y-118618201D01*
X161075967Y-118663588D01*
X161092580Y-118725588D01*
X161092580Y-118752006D01*
X161078569Y-118809263D01*
X161039704Y-118853581D01*
X160984766Y-118874945D01*
X160949620Y-118879572D01*
X160949618Y-118879572D01*
X160941562Y-118880633D01*
X160934057Y-118883741D01*
X160934052Y-118883743D01*
X160913760Y-118892149D01*
X160866307Y-118901588D01*
X160617279Y-118901588D01*
X160604403Y-118905038D01*
X160600953Y-118917914D01*
X160600953Y-119053500D01*
X160584340Y-119115500D01*
X160538953Y-119160887D01*
X160476953Y-119177500D01*
X147960840Y-119177500D01*
X147913387Y-119168061D01*
X147873159Y-119141181D01*
X146165191Y-117433213D01*
X146138303Y-117392964D01*
X146128872Y-117345488D01*
X146136814Y-117305650D01*
X146135735Y-117305300D01*
X146137240Y-117300666D01*
X146139105Y-117296165D01*
X146194535Y-117065282D01*
X146212716Y-116834263D01*
X146236017Y-116771108D01*
X146288884Y-116729433D01*
X146355737Y-116721522D01*
X146358540Y-116721966D01*
X146363289Y-116723106D01*
X146600000Y-116741736D01*
X146836711Y-116723106D01*
X147067594Y-116667676D01*
X147286963Y-116576811D01*
X147489416Y-116452747D01*
X147669969Y-116298540D01*
X147824176Y-116117987D01*
X147948240Y-115915534D01*
X147950106Y-115911026D01*
X147952316Y-115906692D01*
X147953320Y-115907203D01*
X147975907Y-115873395D01*
X148016138Y-115846511D01*
X148063594Y-115837071D01*
X160006564Y-115837071D01*
X160022746Y-115838131D01*
X160054568Y-115842321D01*
X160094448Y-115837071D01*
X160094453Y-115837071D01*
X160197680Y-115823481D01*
X160213419Y-115821409D01*
X160361444Y-115760095D01*
X160388685Y-115739191D01*
X160440741Y-115715801D01*
X160497759Y-115718202D01*
G37*
%TD.AperFunction*%
%TA.AperFunction,Conductor*%
G36*
X171737500Y-85717113D02*
G01*
X171782887Y-85762500D01*
X171799500Y-85824500D01*
X171799500Y-130175500D01*
X171782887Y-130237500D01*
X171737500Y-130282887D01*
X171675500Y-130299500D01*
X107324500Y-130299500D01*
X107262500Y-130282887D01*
X107217113Y-130237500D01*
X107200500Y-130175500D01*
X107200500Y-128552209D01*
X120916500Y-128552209D01*
X120923011Y-128612772D01*
X120925717Y-128620029D01*
X120925719Y-128620034D01*
X120971010Y-128741461D01*
X120974111Y-128749775D01*
X120979425Y-128756874D01*
X120979426Y-128756875D01*
X121024201Y-128816688D01*
X121061739Y-128866832D01*
X121178796Y-128954460D01*
X121315799Y-129005560D01*
X121376362Y-129012071D01*
X121982460Y-129012071D01*
X121985770Y-129012071D01*
X122046333Y-129005560D01*
X122183336Y-128954460D01*
X122300393Y-128866832D01*
X122305706Y-128859734D01*
X122311979Y-128853462D01*
X122313904Y-128855387D01*
X122344448Y-128829828D01*
X122400000Y-128816688D01*
X122455552Y-128829828D01*
X122486095Y-128855387D01*
X122488021Y-128853462D01*
X122494294Y-128859735D01*
X122499607Y-128866832D01*
X122616664Y-128954460D01*
X122753667Y-129005560D01*
X122814230Y-129012071D01*
X123420328Y-129012071D01*
X123423638Y-129012071D01*
X123484201Y-129005560D01*
X123621204Y-128954460D01*
X123738261Y-128866832D01*
X123825889Y-128749775D01*
X123829034Y-128741342D01*
X123837840Y-128717736D01*
X123864279Y-128675500D01*
X123905209Y-128647083D01*
X123954021Y-128637071D01*
X124447059Y-128637071D01*
X124486218Y-128643417D01*
X124521368Y-128661803D01*
X124637796Y-128748960D01*
X124774799Y-128800060D01*
X124835362Y-128806571D01*
X125495328Y-128806571D01*
X125498638Y-128806571D01*
X125559201Y-128800060D01*
X125566469Y-128797348D01*
X125571479Y-128796165D01*
X125628521Y-128796165D01*
X125633530Y-128797348D01*
X125640799Y-128800060D01*
X125701362Y-128806571D01*
X126361328Y-128806571D01*
X126364638Y-128806571D01*
X126425201Y-128800060D01*
X126562204Y-128748960D01*
X126679261Y-128661332D01*
X126680579Y-128663093D01*
X126706147Y-128646010D01*
X126753600Y-128636571D01*
X129936199Y-128636571D01*
X129983656Y-128646012D01*
X130023887Y-128672896D01*
X130046774Y-128707155D01*
X130047684Y-128706692D01*
X130049894Y-128711030D01*
X130051760Y-128715534D01*
X130054306Y-128719688D01*
X130173277Y-128913832D01*
X130173282Y-128913839D01*
X130175824Y-128917987D01*
X130178984Y-128921686D01*
X130178987Y-128921691D01*
X130255877Y-129011717D01*
X130330031Y-129098540D01*
X130510584Y-129252747D01*
X130514734Y-129255290D01*
X130514738Y-129255293D01*
X130580796Y-129295773D01*
X130713037Y-129376811D01*
X130717536Y-129378674D01*
X130717539Y-129378676D01*
X130888409Y-129449452D01*
X130932406Y-129467676D01*
X131163289Y-129523106D01*
X131400000Y-129541736D01*
X131636711Y-129523106D01*
X131867594Y-129467676D01*
X132086963Y-129376811D01*
X132289416Y-129252747D01*
X132469969Y-129098540D01*
X132624176Y-128917987D01*
X132748240Y-128715534D01*
X132750106Y-128711026D01*
X132752316Y-128706692D01*
X132753320Y-128707203D01*
X132775907Y-128673395D01*
X132816138Y-128646511D01*
X132863594Y-128637071D01*
X160467425Y-128637071D01*
X160483607Y-128638131D01*
X160515429Y-128642321D01*
X160555309Y-128637071D01*
X160555314Y-128637071D01*
X160654885Y-128623962D01*
X160674280Y-128621409D01*
X160822305Y-128560095D01*
X160917501Y-128487048D01*
X160917501Y-128487047D01*
X160917507Y-128487041D01*
X160949416Y-128462558D01*
X160968958Y-128437088D01*
X160979645Y-128424902D01*
X162414371Y-126990176D01*
X167141692Y-126990176D01*
X167141915Y-126995430D01*
X167141915Y-126995435D01*
X167151590Y-127223186D01*
X167151839Y-127229042D01*
X167152946Y-127234183D01*
X167152948Y-127234191D01*
X167196680Y-127437107D01*
X167202208Y-127462757D01*
X167291351Y-127684597D01*
X167294109Y-127689076D01*
X167413944Y-127883702D01*
X167413947Y-127883706D01*
X167416703Y-127888182D01*
X167574658Y-128067653D01*
X167760672Y-128217849D01*
X167867683Y-128277629D01*
X167964792Y-128331878D01*
X167964794Y-128331879D01*
X167969393Y-128334448D01*
X168194817Y-128414095D01*
X168430459Y-128454500D01*
X168607033Y-128454500D01*
X168609664Y-128454500D01*
X168788220Y-128439303D01*
X169019587Y-128379059D01*
X169237444Y-128280581D01*
X169435525Y-128146702D01*
X169608131Y-127981273D01*
X169750297Y-127789052D01*
X169857932Y-127575570D01*
X169927940Y-127346969D01*
X169958308Y-127109824D01*
X169948161Y-126870958D01*
X169897792Y-126637243D01*
X169808649Y-126415403D01*
X169683297Y-126211818D01*
X169525342Y-126032347D01*
X169339328Y-125882151D01*
X169297605Y-125858843D01*
X169135207Y-125768121D01*
X169135200Y-125768117D01*
X169130607Y-125765552D01*
X169105440Y-125756660D01*
X168910152Y-125687660D01*
X168910144Y-125687658D01*
X168905183Y-125685905D01*
X168899992Y-125685015D01*
X168899985Y-125685013D01*
X168674734Y-125646390D01*
X168674728Y-125646389D01*
X168669541Y-125645500D01*
X168490336Y-125645500D01*
X168487721Y-125645722D01*
X168487710Y-125645723D01*
X168317031Y-125660250D01*
X168317030Y-125660250D01*
X168311780Y-125660697D01*
X168306686Y-125662023D01*
X168306682Y-125662024D01*
X168085513Y-125719612D01*
X168085501Y-125719615D01*
X168080413Y-125720941D01*
X168075611Y-125723111D01*
X168075607Y-125723113D01*
X167867359Y-125817247D01*
X167867350Y-125817251D01*
X167862556Y-125819419D01*
X167858193Y-125822367D01*
X167858189Y-125822370D01*
X167668841Y-125950346D01*
X167668832Y-125950352D01*
X167664475Y-125953298D01*
X167660675Y-125956939D01*
X167660670Y-125956944D01*
X167495668Y-126115085D01*
X167495662Y-126115091D01*
X167491869Y-126118727D01*
X167488747Y-126122947D01*
X167488741Y-126122955D01*
X167352829Y-126306721D01*
X167349703Y-126310948D01*
X167347338Y-126315637D01*
X167347334Y-126315645D01*
X167244439Y-126519727D01*
X167242068Y-126524430D01*
X167240527Y-126529460D01*
X167240526Y-126529464D01*
X167173601Y-126747996D01*
X167173598Y-126748006D01*
X167172060Y-126753031D01*
X167171391Y-126758249D01*
X167171391Y-126758253D01*
X167156284Y-126876223D01*
X167141692Y-126990176D01*
X162414371Y-126990176D01*
X166203332Y-123201215D01*
X166215509Y-123190536D01*
X166240987Y-123170987D01*
X166265474Y-123139074D01*
X166265477Y-123139072D01*
X166338523Y-123043876D01*
X166338522Y-123043876D01*
X166338524Y-123043875D01*
X166399838Y-122895850D01*
X166415500Y-122776885D01*
X166415500Y-122776878D01*
X166420750Y-122737000D01*
X166416560Y-122705178D01*
X166415500Y-122688996D01*
X166415500Y-121532004D01*
X166416561Y-121515819D01*
X166419689Y-121492059D01*
X166420750Y-121484000D01*
X166415500Y-121444122D01*
X166415500Y-121444115D01*
X166399838Y-121325150D01*
X166396727Y-121317640D01*
X166394624Y-121309790D01*
X166397079Y-121309132D01*
X166390427Y-121267870D01*
X166407723Y-121213229D01*
X166447744Y-121172203D01*
X166501937Y-121153556D01*
X166598742Y-121144022D01*
X166788845Y-121086355D01*
X166964045Y-120992709D01*
X167117609Y-120866682D01*
X167243636Y-120713118D01*
X167337282Y-120537918D01*
X167394949Y-120347815D01*
X167414421Y-120150114D01*
X167394949Y-119952413D01*
X167337282Y-119762310D01*
X167285891Y-119666164D01*
X167271607Y-119598315D01*
X167295984Y-119533402D01*
X167339117Y-119475784D01*
X167347532Y-119460372D01*
X167391968Y-119341236D01*
X167395506Y-119326262D01*
X167400726Y-119277709D01*
X167401080Y-119271113D01*
X167401080Y-118907185D01*
X167414912Y-118850273D01*
X167453322Y-118806058D01*
X167507740Y-118784403D01*
X167557245Y-118789276D01*
X167557538Y-118787996D01*
X167564323Y-118789544D01*
X167570900Y-118791846D01*
X167705869Y-118807053D01*
X167792754Y-118807053D01*
X167796239Y-118807053D01*
X167931208Y-118791846D01*
X168102328Y-118731968D01*
X168255834Y-118635514D01*
X168384028Y-118507320D01*
X168480482Y-118353814D01*
X168540360Y-118182694D01*
X168560658Y-118002540D01*
X168540360Y-117822386D01*
X168480482Y-117651266D01*
X168384028Y-117497760D01*
X168255834Y-117369566D01*
X168102328Y-117273112D01*
X167931208Y-117213234D01*
X167924291Y-117212454D01*
X167924284Y-117212453D01*
X167799705Y-117198417D01*
X167799695Y-117198416D01*
X167796239Y-117198027D01*
X167705869Y-117198027D01*
X167702413Y-117198416D01*
X167702402Y-117198417D01*
X167577823Y-117212453D01*
X167577814Y-117212454D01*
X167570900Y-117213234D01*
X167564326Y-117215534D01*
X167557538Y-117217084D01*
X167557247Y-117215810D01*
X167507713Y-117220685D01*
X167453295Y-117199031D01*
X167414886Y-117154816D01*
X167401054Y-117097904D01*
X167401054Y-116730411D01*
X167400700Y-116723814D01*
X167395480Y-116675261D01*
X167391942Y-116660287D01*
X167347506Y-116541151D01*
X167339091Y-116525739D01*
X167295497Y-116467505D01*
X167271121Y-116402592D01*
X167285407Y-116334741D01*
X167337282Y-116237690D01*
X167394949Y-116047587D01*
X167414421Y-115849886D01*
X167394949Y-115652185D01*
X167337282Y-115462082D01*
X167243636Y-115286882D01*
X167117609Y-115133318D01*
X167031480Y-115062634D01*
X166968757Y-115011158D01*
X166968756Y-115011157D01*
X166964045Y-115007291D01*
X166924177Y-114985981D01*
X166794217Y-114916516D01*
X166794213Y-114916514D01*
X166788845Y-114913645D01*
X166783017Y-114911877D01*
X166604572Y-114857746D01*
X166604567Y-114857745D01*
X166598742Y-114855978D01*
X166592683Y-114855381D01*
X166592677Y-114855380D01*
X166401041Y-114836506D01*
X166401150Y-114835390D01*
X166345541Y-114820490D01*
X166300154Y-114775103D01*
X166283541Y-114713103D01*
X166283541Y-106351615D01*
X166284602Y-106335430D01*
X166287730Y-106311670D01*
X166288791Y-106303611D01*
X166283541Y-106263733D01*
X166283541Y-106263726D01*
X166267879Y-106144761D01*
X166220610Y-106030643D01*
X166206565Y-105996735D01*
X166133518Y-105901539D01*
X166133515Y-105901536D01*
X166109028Y-105869624D01*
X166083553Y-105850076D01*
X166071367Y-105839388D01*
X165406286Y-105174307D01*
X163265191Y-103033213D01*
X163238303Y-102992964D01*
X163228872Y-102945488D01*
X163236814Y-102905650D01*
X163235735Y-102905300D01*
X163237240Y-102900666D01*
X163239105Y-102896165D01*
X163294535Y-102665282D01*
X163313165Y-102428571D01*
X163313338Y-102428584D01*
X163324281Y-102378958D01*
X163356642Y-102336482D01*
X163403865Y-102311553D01*
X163457192Y-102308795D01*
X163570641Y-102327726D01*
X163580839Y-102328571D01*
X163819161Y-102328571D01*
X163829356Y-102327726D01*
X164064431Y-102288499D01*
X164074343Y-102285988D01*
X164299760Y-102208603D01*
X164309114Y-102204500D01*
X164518723Y-102091066D01*
X164527281Y-102085474D01*
X164556146Y-102063008D01*
X164564250Y-102051821D01*
X164557589Y-102039713D01*
X163346446Y-100828570D01*
X164058431Y-100828570D01*
X164065095Y-100840113D01*
X164913653Y-101688671D01*
X164923034Y-101694595D01*
X164931002Y-101686870D01*
X165020924Y-101549235D01*
X165025792Y-101540240D01*
X165121527Y-101321985D01*
X165124846Y-101312318D01*
X165183353Y-101081283D01*
X165185037Y-101071189D01*
X165204717Y-100833688D01*
X165204717Y-100823454D01*
X165185037Y-100585952D01*
X165183353Y-100575858D01*
X165124846Y-100344823D01*
X165121527Y-100335156D01*
X165025792Y-100116901D01*
X165020924Y-100107906D01*
X164931002Y-99970270D01*
X164923034Y-99962545D01*
X164913653Y-99968469D01*
X164065095Y-100817028D01*
X164058431Y-100828570D01*
X163346446Y-100828570D01*
X162486345Y-99968469D01*
X162476964Y-99962545D01*
X162468997Y-99970270D01*
X162379072Y-100107909D01*
X162374207Y-100116899D01*
X162278472Y-100335156D01*
X162275153Y-100344823D01*
X162216646Y-100575858D01*
X162214962Y-100585952D01*
X162195144Y-100825121D01*
X162179569Y-100875806D01*
X162144245Y-100915350D01*
X162095631Y-100936524D01*
X162046323Y-100935528D01*
X162046259Y-100935935D01*
X162043310Y-100935467D01*
X162042618Y-100935454D01*
X162041446Y-100935172D01*
X162041436Y-100935170D01*
X162036711Y-100934036D01*
X162031858Y-100933654D01*
X161804854Y-100915788D01*
X161800000Y-100915406D01*
X161795146Y-100915788D01*
X161568141Y-100933654D01*
X161568139Y-100933654D01*
X161563289Y-100934036D01*
X161558561Y-100935170D01*
X161558555Y-100935172D01*
X161337139Y-100988329D01*
X161337130Y-100988331D01*
X161332406Y-100989466D01*
X161327916Y-100991325D01*
X161327906Y-100991329D01*
X161117539Y-101078465D01*
X161117526Y-101078471D01*
X161113037Y-101080331D01*
X161108883Y-101082876D01*
X161108882Y-101082877D01*
X160914738Y-101201848D01*
X160914725Y-101201857D01*
X160910584Y-101204395D01*
X160906889Y-101207550D01*
X160906879Y-101207558D01*
X160733731Y-101355441D01*
X160733724Y-101355447D01*
X160730031Y-101358602D01*
X160726876Y-101362295D01*
X160726870Y-101362302D01*
X160578987Y-101535450D01*
X160578979Y-101535460D01*
X160575824Y-101539155D01*
X160573286Y-101543296D01*
X160573277Y-101543309D01*
X160472856Y-101707182D01*
X160451760Y-101741608D01*
X160449895Y-101746110D01*
X160447684Y-101750450D01*
X160446584Y-101749889D01*
X160424298Y-101783248D01*
X160384068Y-101810131D01*
X160336613Y-101819571D01*
X158799633Y-101819571D01*
X158734090Y-101800833D01*
X158688356Y-101750282D01*
X158676252Y-101683196D01*
X158701437Y-101619850D01*
X158756300Y-101579389D01*
X158849777Y-101544523D01*
X158865189Y-101536108D01*
X158966092Y-101460572D01*
X158978501Y-101448163D01*
X159054037Y-101347260D01*
X159062452Y-101331848D01*
X159106888Y-101212712D01*
X159110426Y-101197738D01*
X159115646Y-101149185D01*
X159116000Y-101142589D01*
X159116000Y-101094397D01*
X159112549Y-101081521D01*
X159099674Y-101078071D01*
X158382500Y-101078071D01*
X158320500Y-101061458D01*
X158275113Y-101016071D01*
X158258500Y-100954071D01*
X158258500Y-100561745D01*
X158583000Y-100561745D01*
X158586450Y-100574620D01*
X158599326Y-100578071D01*
X159099674Y-100578071D01*
X159112549Y-100574620D01*
X159116000Y-100561745D01*
X159116000Y-100513553D01*
X159115646Y-100506956D01*
X159110426Y-100458403D01*
X159106888Y-100443429D01*
X159062452Y-100324293D01*
X159054037Y-100308881D01*
X158978501Y-100207978D01*
X158966092Y-100195569D01*
X158865189Y-100120033D01*
X158849777Y-100111618D01*
X158730641Y-100067182D01*
X158715667Y-100063644D01*
X158667114Y-100058424D01*
X158660518Y-100058071D01*
X158599326Y-100058071D01*
X158586450Y-100061521D01*
X158583000Y-100074397D01*
X158583000Y-100561745D01*
X158258500Y-100561745D01*
X158258500Y-100512743D01*
X158258500Y-100509433D01*
X158251989Y-100448870D01*
X158200889Y-100311867D01*
X158113261Y-100194810D01*
X158113806Y-100194401D01*
X158092439Y-100162424D01*
X158083000Y-100114971D01*
X158083000Y-100074397D01*
X158079549Y-100061521D01*
X158066674Y-100058071D01*
X158005482Y-100058071D01*
X157998885Y-100058424D01*
X157950333Y-100063644D01*
X157943563Y-100065244D01*
X157907306Y-100068325D01*
X157871715Y-100060749D01*
X157866466Y-100058791D01*
X157866460Y-100058789D01*
X157859201Y-100056082D01*
X157851497Y-100055253D01*
X157851494Y-100055253D01*
X157801924Y-100049924D01*
X157801918Y-100049923D01*
X157798638Y-100049571D01*
X157135362Y-100049571D01*
X157132082Y-100049923D01*
X157132075Y-100049924D01*
X157082505Y-100055253D01*
X157082500Y-100055253D01*
X157074799Y-100056082D01*
X157067543Y-100058788D01*
X157067536Y-100058790D01*
X156946105Y-100104082D01*
X156946099Y-100104084D01*
X156937796Y-100107182D01*
X156930698Y-100112494D01*
X156930695Y-100112497D01*
X156820739Y-100194810D01*
X156819420Y-100193048D01*
X156793853Y-100210132D01*
X156746400Y-100219571D01*
X156253834Y-100219571D01*
X156205021Y-100209559D01*
X156164091Y-100181141D01*
X156137652Y-100138904D01*
X156128989Y-100115678D01*
X156128988Y-100115677D01*
X156125889Y-100107367D01*
X156038261Y-99990310D01*
X156022785Y-99978725D01*
X155928304Y-99907997D01*
X155928303Y-99907996D01*
X155921204Y-99902682D01*
X155912896Y-99899583D01*
X155912894Y-99899582D01*
X155791463Y-99854290D01*
X155791458Y-99854288D01*
X155784201Y-99851582D01*
X155776497Y-99850753D01*
X155776494Y-99850753D01*
X155726924Y-99845424D01*
X155726918Y-99845423D01*
X155723638Y-99845071D01*
X155114230Y-99845071D01*
X155110950Y-99845423D01*
X155110943Y-99845424D01*
X155061373Y-99850753D01*
X155061368Y-99850753D01*
X155053667Y-99851582D01*
X155046411Y-99854288D01*
X155046404Y-99854290D01*
X154924973Y-99899582D01*
X154924967Y-99899584D01*
X154916664Y-99902682D01*
X154909566Y-99907994D01*
X154909563Y-99907997D01*
X154806703Y-99984997D01*
X154806699Y-99985000D01*
X154799607Y-99990310D01*
X154794295Y-99997404D01*
X154788021Y-100003680D01*
X154786106Y-100001765D01*
X154755494Y-100027342D01*
X154700000Y-100040453D01*
X154644506Y-100027342D01*
X154613893Y-100001765D01*
X154611979Y-100003680D01*
X154605705Y-99997406D01*
X154600393Y-99990310D01*
X154593296Y-99984997D01*
X154587024Y-99978725D01*
X154589127Y-99976621D01*
X154558643Y-99937373D01*
X154546475Y-99907997D01*
X154512590Y-99826191D01*
X154492787Y-99800384D01*
X154439543Y-99730994D01*
X154441733Y-99729313D01*
X154441731Y-99729309D01*
X154439540Y-99730991D01*
X154419997Y-99705522D01*
X154419996Y-99705521D01*
X154415053Y-99699079D01*
X154389578Y-99679531D01*
X154377392Y-99668843D01*
X154313869Y-99605320D01*
X162835748Y-99605320D01*
X162842408Y-99617426D01*
X163688457Y-100463475D01*
X163700000Y-100470139D01*
X163711542Y-100463475D01*
X164557590Y-99617426D01*
X164564250Y-99605320D01*
X164556143Y-99594130D01*
X164527286Y-99571670D01*
X164518719Y-99566074D01*
X164309114Y-99452641D01*
X164299760Y-99448538D01*
X164074343Y-99371153D01*
X164064431Y-99368642D01*
X163829356Y-99329415D01*
X163819161Y-99328571D01*
X163580839Y-99328571D01*
X163570643Y-99329415D01*
X163335568Y-99368642D01*
X163325656Y-99371153D01*
X163100239Y-99448538D01*
X163090885Y-99452641D01*
X162881276Y-99566075D01*
X162872717Y-99571667D01*
X162843854Y-99594131D01*
X162835748Y-99605320D01*
X154313869Y-99605320D01*
X149435221Y-94726672D01*
X149424526Y-94714477D01*
X149409932Y-94695458D01*
X149404987Y-94689013D01*
X149373073Y-94664524D01*
X149373072Y-94664523D01*
X149277876Y-94591476D01*
X149270367Y-94588365D01*
X149270366Y-94588365D01*
X149137359Y-94533271D01*
X149137352Y-94533269D01*
X149129851Y-94530162D01*
X149121792Y-94529101D01*
X148979060Y-94510311D01*
X148971000Y-94509250D01*
X148962940Y-94510311D01*
X148820207Y-94529101D01*
X148820205Y-94529101D01*
X148812149Y-94530162D01*
X148810291Y-94530931D01*
X148784267Y-94534357D01*
X146846786Y-94534357D01*
X146784786Y-94517744D01*
X146739399Y-94472357D01*
X146722786Y-94410357D01*
X146722786Y-92997529D01*
X146722786Y-92994219D01*
X146716275Y-92933656D01*
X146665175Y-92796653D01*
X146577547Y-92679596D01*
X146460490Y-92591968D01*
X146452182Y-92588869D01*
X146452180Y-92588868D01*
X146330749Y-92543576D01*
X146330744Y-92543574D01*
X146323487Y-92540868D01*
X146315783Y-92540039D01*
X146315780Y-92540039D01*
X146266210Y-92534710D01*
X146266204Y-92534709D01*
X146262924Y-92534357D01*
X143165648Y-92534357D01*
X143162368Y-92534709D01*
X143162361Y-92534710D01*
X143112791Y-92540039D01*
X143112786Y-92540039D01*
X143105085Y-92540868D01*
X143097829Y-92543574D01*
X143097822Y-92543576D01*
X142976391Y-92588868D01*
X142976385Y-92588870D01*
X142968082Y-92591968D01*
X142960984Y-92597280D01*
X142960981Y-92597283D01*
X142858121Y-92674283D01*
X142858117Y-92674286D01*
X142851025Y-92679596D01*
X142845715Y-92686688D01*
X142845712Y-92686692D01*
X142768712Y-92789552D01*
X142768709Y-92789555D01*
X142763397Y-92796653D01*
X142760299Y-92804956D01*
X142760297Y-92804962D01*
X142715005Y-92926393D01*
X142715003Y-92926400D01*
X142712297Y-92933656D01*
X142711468Y-92941357D01*
X142711468Y-92941362D01*
X142706139Y-92990932D01*
X142705786Y-92994219D01*
X142705786Y-92997529D01*
X142705786Y-96285303D01*
X142696347Y-96332756D01*
X142669467Y-96372983D01*
X141754265Y-97288185D01*
X141647429Y-97395021D01*
X141647426Y-97395024D01*
X141335670Y-97706779D01*
X141323480Y-97717470D01*
X141304460Y-97732065D01*
X141304456Y-97732068D01*
X141298013Y-97737013D01*
X141293068Y-97743456D01*
X141293065Y-97743460D01*
X141278470Y-97762480D01*
X141267779Y-97774670D01*
X136376929Y-102665522D01*
X135493670Y-103548779D01*
X135481480Y-103559470D01*
X135462460Y-103574065D01*
X135462456Y-103574068D01*
X135456013Y-103579013D01*
X135451068Y-103585456D01*
X135451065Y-103585460D01*
X135436470Y-103604480D01*
X135425779Y-103616670D01*
X130407929Y-108634521D01*
X130407926Y-108634524D01*
X129778670Y-109263779D01*
X129766480Y-109274470D01*
X129747460Y-109289065D01*
X129747456Y-109289068D01*
X129741013Y-109294013D01*
X129736068Y-109300456D01*
X129736065Y-109300460D01*
X129721470Y-109319480D01*
X129710779Y-109331670D01*
X124565928Y-114476522D01*
X124565926Y-114476524D01*
X124317670Y-114724779D01*
X124305480Y-114735470D01*
X124286460Y-114750065D01*
X124286456Y-114750068D01*
X124280013Y-114755013D01*
X124275068Y-114761456D01*
X124275065Y-114761460D01*
X124260470Y-114780480D01*
X124249779Y-114792670D01*
X121284736Y-117757713D01*
X121272546Y-117768404D01*
X121253526Y-117782999D01*
X121253522Y-117783002D01*
X121247079Y-117787947D01*
X121242134Y-117794390D01*
X121242131Y-117794394D01*
X121222591Y-117819859D01*
X121222588Y-117819861D01*
X121222589Y-117819862D01*
X121154488Y-117908611D01*
X121154484Y-117908616D01*
X121149542Y-117915058D01*
X121146433Y-117922563D01*
X121146431Y-117922567D01*
X121092509Y-118052747D01*
X121091336Y-118055577D01*
X121091334Y-118055583D01*
X121088228Y-118063084D01*
X121072566Y-118182049D01*
X121072566Y-118182054D01*
X121067316Y-118221934D01*
X121068377Y-118229992D01*
X121071505Y-118253753D01*
X121072566Y-118269938D01*
X121072566Y-125154502D01*
X121071505Y-125170684D01*
X121067316Y-125202506D01*
X121068377Y-125210564D01*
X121071505Y-125234325D01*
X121072566Y-125250510D01*
X121072566Y-127134575D01*
X121066220Y-127173734D01*
X121047833Y-127208885D01*
X120979428Y-127300262D01*
X120979423Y-127300270D01*
X120974111Y-127307367D01*
X120971013Y-127315670D01*
X120971011Y-127315676D01*
X120925719Y-127437107D01*
X120925717Y-127437114D01*
X120923011Y-127444370D01*
X120922182Y-127452071D01*
X120922182Y-127452076D01*
X120916853Y-127501646D01*
X120916500Y-127504933D01*
X120916500Y-128552209D01*
X107200500Y-128552209D01*
X107200500Y-126990176D01*
X109041692Y-126990176D01*
X109041915Y-126995430D01*
X109041915Y-126995435D01*
X109051590Y-127223186D01*
X109051839Y-127229042D01*
X109052946Y-127234183D01*
X109052948Y-127234191D01*
X109096680Y-127437107D01*
X109102208Y-127462757D01*
X109191351Y-127684597D01*
X109194109Y-127689076D01*
X109313944Y-127883702D01*
X109313947Y-127883706D01*
X109316703Y-127888182D01*
X109474658Y-128067653D01*
X109660672Y-128217849D01*
X109767683Y-128277629D01*
X109864792Y-128331878D01*
X109864794Y-128331879D01*
X109869393Y-128334448D01*
X110094817Y-128414095D01*
X110330459Y-128454500D01*
X110507033Y-128454500D01*
X110509664Y-128454500D01*
X110688220Y-128439303D01*
X110919587Y-128379059D01*
X111137444Y-128280581D01*
X111335525Y-128146702D01*
X111508131Y-127981273D01*
X111650297Y-127789052D01*
X111757932Y-127575570D01*
X111827940Y-127346969D01*
X111858308Y-127109824D01*
X111848161Y-126870958D01*
X111797792Y-126637243D01*
X111708649Y-126415403D01*
X111583297Y-126211818D01*
X111425342Y-126032347D01*
X111239328Y-125882151D01*
X111197605Y-125858843D01*
X111035207Y-125768121D01*
X111035200Y-125768117D01*
X111030607Y-125765552D01*
X111005440Y-125756660D01*
X110810152Y-125687660D01*
X110810144Y-125687658D01*
X110805183Y-125685905D01*
X110799992Y-125685015D01*
X110799985Y-125685013D01*
X110574734Y-125646390D01*
X110574728Y-125646389D01*
X110569541Y-125645500D01*
X110390336Y-125645500D01*
X110387721Y-125645722D01*
X110387710Y-125645723D01*
X110217031Y-125660250D01*
X110217030Y-125660250D01*
X110211780Y-125660697D01*
X110206686Y-125662023D01*
X110206682Y-125662024D01*
X109985513Y-125719612D01*
X109985501Y-125719615D01*
X109980413Y-125720941D01*
X109975611Y-125723111D01*
X109975607Y-125723113D01*
X109767359Y-125817247D01*
X109767350Y-125817251D01*
X109762556Y-125819419D01*
X109758193Y-125822367D01*
X109758189Y-125822370D01*
X109568841Y-125950346D01*
X109568832Y-125950352D01*
X109564475Y-125953298D01*
X109560675Y-125956939D01*
X109560670Y-125956944D01*
X109395668Y-126115085D01*
X109395662Y-126115091D01*
X109391869Y-126118727D01*
X109388747Y-126122947D01*
X109388741Y-126122955D01*
X109252829Y-126306721D01*
X109249703Y-126310948D01*
X109247338Y-126315637D01*
X109247334Y-126315645D01*
X109144439Y-126519727D01*
X109142068Y-126524430D01*
X109140527Y-126529460D01*
X109140526Y-126529464D01*
X109073601Y-126747996D01*
X109073598Y-126748006D01*
X109072060Y-126753031D01*
X109071391Y-126758249D01*
X109071391Y-126758253D01*
X109056284Y-126876223D01*
X109041692Y-126990176D01*
X107200500Y-126990176D01*
X107200500Y-117960159D01*
X110617669Y-117960159D01*
X110618158Y-117967936D01*
X110618158Y-117967942D01*
X110627165Y-118111105D01*
X110627166Y-118111111D01*
X110627656Y-118118895D01*
X110630066Y-118126314D01*
X110630067Y-118126316D01*
X110674392Y-118262737D01*
X110674394Y-118262742D01*
X110676805Y-118270161D01*
X110762029Y-118404452D01*
X110767710Y-118409787D01*
X110767712Y-118409789D01*
X110787713Y-118428571D01*
X110877971Y-118513329D01*
X111017348Y-118589952D01*
X111171402Y-118629507D01*
X111286635Y-118629507D01*
X111290530Y-118629507D01*
X111408723Y-118614576D01*
X111422808Y-118608999D01*
X111482063Y-118601042D01*
X111538153Y-118621736D01*
X111578040Y-118666270D01*
X111592453Y-118724293D01*
X111592453Y-119275233D01*
X111592805Y-119278513D01*
X111592806Y-119278519D01*
X111595887Y-119307182D01*
X111598964Y-119335796D01*
X111601670Y-119343053D01*
X111601672Y-119343058D01*
X111646964Y-119464489D01*
X111650064Y-119472799D01*
X111655378Y-119479898D01*
X111655379Y-119479899D01*
X111701595Y-119541636D01*
X111725971Y-119606548D01*
X111711687Y-119674399D01*
X111667571Y-119756935D01*
X111667569Y-119756941D01*
X111664699Y-119762310D01*
X111662932Y-119768133D01*
X111662931Y-119768137D01*
X111608800Y-119946582D01*
X111608798Y-119946589D01*
X111607032Y-119952413D01*
X111606435Y-119958469D01*
X111606434Y-119958477D01*
X111592053Y-120104499D01*
X111587560Y-120150114D01*
X111588157Y-120156175D01*
X111606434Y-120341750D01*
X111606435Y-120341756D01*
X111607032Y-120347815D01*
X111608799Y-120353640D01*
X111608800Y-120353645D01*
X111657499Y-120514182D01*
X111664699Y-120537918D01*
X111667568Y-120543286D01*
X111667570Y-120543290D01*
X111721322Y-120643853D01*
X111758345Y-120713118D01*
X111762211Y-120717829D01*
X111762212Y-120717830D01*
X111827518Y-120797406D01*
X111884372Y-120866682D01*
X112037936Y-120992709D01*
X112213136Y-121086355D01*
X112403239Y-121144022D01*
X112600940Y-121163494D01*
X112798641Y-121144022D01*
X112988744Y-121086355D01*
X113163944Y-120992709D01*
X113317508Y-120866682D01*
X113368990Y-120803949D01*
X113411828Y-120770519D01*
X113464845Y-120758614D01*
X116537136Y-120758614D01*
X116590153Y-120770519D01*
X116632989Y-120803949D01*
X116670430Y-120849571D01*
X116684473Y-120866682D01*
X116838037Y-120992709D01*
X117013237Y-121086355D01*
X117203340Y-121144022D01*
X117401041Y-121163494D01*
X117598742Y-121144022D01*
X117788845Y-121086355D01*
X117964045Y-120992709D01*
X118117609Y-120866682D01*
X118243636Y-120713118D01*
X118337282Y-120537918D01*
X118394949Y-120347815D01*
X118414421Y-120150114D01*
X118394949Y-119952413D01*
X118337282Y-119762310D01*
X118290314Y-119674439D01*
X118276030Y-119606591D01*
X118300405Y-119541679D01*
X118351969Y-119472799D01*
X118403069Y-119335796D01*
X118409580Y-119275233D01*
X118409580Y-118909717D01*
X118421860Y-118855916D01*
X118456267Y-118812770D01*
X118505986Y-118788826D01*
X118561171Y-118788826D01*
X118564328Y-118789546D01*
X118570900Y-118791846D01*
X118705869Y-118807053D01*
X118792754Y-118807053D01*
X118796239Y-118807053D01*
X118931208Y-118791846D01*
X119102328Y-118731968D01*
X119255834Y-118635514D01*
X119384028Y-118507320D01*
X119480482Y-118353814D01*
X119540360Y-118182694D01*
X119560658Y-118002540D01*
X119540360Y-117822386D01*
X119480482Y-117651266D01*
X119384028Y-117497760D01*
X119255834Y-117369566D01*
X119102328Y-117273112D01*
X118931208Y-117213234D01*
X118924291Y-117212454D01*
X118924284Y-117212453D01*
X118799705Y-117198417D01*
X118799695Y-117198416D01*
X118796239Y-117198027D01*
X118705869Y-117198027D01*
X118702413Y-117198416D01*
X118702402Y-117198417D01*
X118577819Y-117212454D01*
X118577815Y-117212454D01*
X118570900Y-117213234D01*
X118564329Y-117215533D01*
X118561145Y-117216260D01*
X118505960Y-117216260D01*
X118456241Y-117192316D01*
X118421834Y-117149170D01*
X118409554Y-117095369D01*
X118409554Y-116729601D01*
X118409554Y-116726291D01*
X118403043Y-116665728D01*
X118351943Y-116528725D01*
X118299919Y-116459230D01*
X118275544Y-116394318D01*
X118289828Y-116326469D01*
X118337282Y-116237690D01*
X118394949Y-116047587D01*
X118414421Y-115849886D01*
X118394949Y-115652185D01*
X118337282Y-115462082D01*
X118243636Y-115286882D01*
X118117609Y-115133318D01*
X118098196Y-115117386D01*
X118054876Y-115081834D01*
X118021446Y-115038998D01*
X118009541Y-114985981D01*
X118009541Y-96877616D01*
X118010602Y-96861431D01*
X118013730Y-96837670D01*
X118014791Y-96829612D01*
X118009541Y-96789732D01*
X118009541Y-96789727D01*
X117993879Y-96670762D01*
X117932565Y-96522737D01*
X117932565Y-96522736D01*
X117859519Y-96427541D01*
X117859519Y-96427540D01*
X117859511Y-96427531D01*
X117839975Y-96402071D01*
X117839971Y-96402067D01*
X117835028Y-96395625D01*
X117809553Y-96376077D01*
X117797367Y-96365389D01*
X117759105Y-96327127D01*
X117732225Y-96286899D01*
X117722786Y-96239446D01*
X117722786Y-92997529D01*
X117722786Y-92994219D01*
X117716275Y-92933656D01*
X117665175Y-92796653D01*
X117577547Y-92679596D01*
X117460490Y-92591968D01*
X117452182Y-92588869D01*
X117452180Y-92588868D01*
X117330749Y-92543576D01*
X117330744Y-92543574D01*
X117323487Y-92540868D01*
X117315783Y-92540039D01*
X117315780Y-92540039D01*
X117266210Y-92534710D01*
X117266204Y-92534709D01*
X117262924Y-92534357D01*
X114165648Y-92534357D01*
X114162368Y-92534709D01*
X114162361Y-92534710D01*
X114112791Y-92540039D01*
X114112786Y-92540039D01*
X114105085Y-92540868D01*
X114097829Y-92543574D01*
X114097822Y-92543576D01*
X113976391Y-92588868D01*
X113976385Y-92588870D01*
X113968082Y-92591968D01*
X113960984Y-92597280D01*
X113960981Y-92597283D01*
X113858121Y-92674283D01*
X113858117Y-92674286D01*
X113851025Y-92679596D01*
X113845715Y-92686688D01*
X113845712Y-92686692D01*
X113768712Y-92789552D01*
X113768709Y-92789555D01*
X113763397Y-92796653D01*
X113760299Y-92804956D01*
X113760297Y-92804962D01*
X113715005Y-92926393D01*
X113715003Y-92926400D01*
X113712297Y-92933656D01*
X113711468Y-92941357D01*
X113711468Y-92941362D01*
X113706139Y-92990932D01*
X113705786Y-92994219D01*
X113705786Y-92997529D01*
X113705786Y-96239446D01*
X113696347Y-96286899D01*
X113669467Y-96327127D01*
X112204610Y-97791982D01*
X112192420Y-97802673D01*
X112173400Y-97817268D01*
X112173396Y-97817271D01*
X112166953Y-97822216D01*
X112162008Y-97828659D01*
X112162005Y-97828663D01*
X112142465Y-97854128D01*
X112142462Y-97854130D01*
X112142463Y-97854131D01*
X112074362Y-97942880D01*
X112074358Y-97942885D01*
X112069416Y-97949327D01*
X112066307Y-97956832D01*
X112066305Y-97956836D01*
X112043394Y-98012149D01*
X112011213Y-98089839D01*
X112011210Y-98089848D01*
X112008102Y-98097353D01*
X112007041Y-98105408D01*
X112007040Y-98105414D01*
X111992440Y-98216317D01*
X111992440Y-98216318D01*
X111992440Y-98216323D01*
X111987190Y-98256203D01*
X111988251Y-98264261D01*
X111991379Y-98288022D01*
X111992440Y-98304207D01*
X111992440Y-114985981D01*
X111980535Y-115038998D01*
X111947105Y-115081834D01*
X111889078Y-115129455D01*
X111889073Y-115129459D01*
X111884372Y-115133318D01*
X111880513Y-115138019D01*
X111880509Y-115138024D01*
X111762212Y-115282169D01*
X111762208Y-115282174D01*
X111758345Y-115286882D01*
X111755473Y-115292254D01*
X111755471Y-115292258D01*
X111667570Y-115456709D01*
X111667566Y-115456716D01*
X111664699Y-115462082D01*
X111662932Y-115467905D01*
X111662931Y-115467909D01*
X111608800Y-115646354D01*
X111608798Y-115646361D01*
X111607032Y-115652185D01*
X111606435Y-115658241D01*
X111606434Y-115658249D01*
X111596097Y-115763205D01*
X111587560Y-115849886D01*
X111588157Y-115855947D01*
X111606434Y-116041522D01*
X111606435Y-116041528D01*
X111607032Y-116047587D01*
X111608799Y-116053412D01*
X111608800Y-116053417D01*
X111659203Y-116219571D01*
X111664699Y-116237690D01*
X111667568Y-116243057D01*
X111667570Y-116243062D01*
X111712151Y-116326467D01*
X111726436Y-116394318D01*
X111702060Y-116459230D01*
X111655355Y-116521620D01*
X111655350Y-116521628D01*
X111650038Y-116528725D01*
X111646940Y-116537028D01*
X111646938Y-116537034D01*
X111601646Y-116658465D01*
X111601644Y-116658472D01*
X111598938Y-116665728D01*
X111598109Y-116673429D01*
X111598109Y-116673434D01*
X111592780Y-116723004D01*
X111592427Y-116726291D01*
X111592427Y-116729601D01*
X111592427Y-117277898D01*
X111579782Y-117332451D01*
X111544427Y-117375878D01*
X111493572Y-117399322D01*
X111437590Y-117398002D01*
X111330452Y-117370493D01*
X111211324Y-117370493D01*
X111207464Y-117370980D01*
X111207457Y-117370981D01*
X111100869Y-117384446D01*
X111100865Y-117384446D01*
X111093131Y-117385424D01*
X111085881Y-117388294D01*
X111085879Y-117388295D01*
X110952498Y-117441104D01*
X110952492Y-117441107D01*
X110945249Y-117443975D01*
X110938944Y-117448555D01*
X110938940Y-117448558D01*
X110822888Y-117532875D01*
X110816575Y-117537462D01*
X110811603Y-117543471D01*
X110811603Y-117543472D01*
X110720164Y-117654002D01*
X110720161Y-117654005D01*
X110715192Y-117660013D01*
X110711874Y-117667064D01*
X110711869Y-117667072D01*
X110650792Y-117796868D01*
X110650789Y-117796876D01*
X110647472Y-117803926D01*
X110646011Y-117811580D01*
X110646010Y-117811586D01*
X110619129Y-117952501D01*
X110619128Y-117952507D01*
X110617669Y-117960159D01*
X107200500Y-117960159D01*
X107200500Y-88890176D01*
X109041692Y-88890176D01*
X109041915Y-88895430D01*
X109041915Y-88895435D01*
X109046996Y-89015041D01*
X109051839Y-89129042D01*
X109052946Y-89134183D01*
X109052948Y-89134191D01*
X109101098Y-89357608D01*
X109102208Y-89362757D01*
X109191351Y-89584597D01*
X109194109Y-89589076D01*
X109313944Y-89783702D01*
X109313947Y-89783706D01*
X109316703Y-89788182D01*
X109474658Y-89967653D01*
X109660672Y-90117849D01*
X109767683Y-90177629D01*
X109864792Y-90231878D01*
X109864794Y-90231879D01*
X109869393Y-90234448D01*
X110094817Y-90314095D01*
X110330459Y-90354500D01*
X110507033Y-90354500D01*
X110509664Y-90354500D01*
X110688220Y-90339303D01*
X110919587Y-90279059D01*
X111137444Y-90180581D01*
X111335525Y-90046702D01*
X111508131Y-89881273D01*
X111650297Y-89689052D01*
X111757932Y-89475570D01*
X111827940Y-89246969D01*
X111858308Y-89009824D01*
X111853225Y-88890176D01*
X167141692Y-88890176D01*
X167141915Y-88895430D01*
X167141915Y-88895435D01*
X167146996Y-89015041D01*
X167151839Y-89129042D01*
X167152946Y-89134183D01*
X167152948Y-89134191D01*
X167201098Y-89357608D01*
X167202208Y-89362757D01*
X167291351Y-89584597D01*
X167294109Y-89589076D01*
X167413944Y-89783702D01*
X167413947Y-89783706D01*
X167416703Y-89788182D01*
X167574658Y-89967653D01*
X167760672Y-90117849D01*
X167867683Y-90177629D01*
X167964792Y-90231878D01*
X167964794Y-90231879D01*
X167969393Y-90234448D01*
X168194817Y-90314095D01*
X168430459Y-90354500D01*
X168607033Y-90354500D01*
X168609664Y-90354500D01*
X168788220Y-90339303D01*
X169019587Y-90279059D01*
X169237444Y-90180581D01*
X169435525Y-90046702D01*
X169608131Y-89881273D01*
X169750297Y-89689052D01*
X169857932Y-89475570D01*
X169927940Y-89246969D01*
X169958308Y-89009824D01*
X169948161Y-88770958D01*
X169897792Y-88537243D01*
X169808649Y-88315403D01*
X169683297Y-88111818D01*
X169525342Y-87932347D01*
X169339328Y-87782151D01*
X169232316Y-87722370D01*
X169135207Y-87668121D01*
X169135200Y-87668117D01*
X169130607Y-87665552D01*
X169124112Y-87663257D01*
X168910152Y-87587660D01*
X168910144Y-87587658D01*
X168905183Y-87585905D01*
X168899992Y-87585015D01*
X168899985Y-87585013D01*
X168674734Y-87546390D01*
X168674728Y-87546389D01*
X168669541Y-87545500D01*
X168490336Y-87545500D01*
X168487721Y-87545722D01*
X168487710Y-87545723D01*
X168317031Y-87560250D01*
X168317030Y-87560250D01*
X168311780Y-87560697D01*
X168306686Y-87562023D01*
X168306682Y-87562024D01*
X168085513Y-87619612D01*
X168085501Y-87619615D01*
X168080413Y-87620941D01*
X168075611Y-87623111D01*
X168075607Y-87623113D01*
X167867359Y-87717247D01*
X167867350Y-87717251D01*
X167862556Y-87719419D01*
X167858193Y-87722367D01*
X167858189Y-87722370D01*
X167668841Y-87850346D01*
X167668832Y-87850352D01*
X167664475Y-87853298D01*
X167660675Y-87856939D01*
X167660670Y-87856944D01*
X167495668Y-88015085D01*
X167495662Y-88015091D01*
X167491869Y-88018727D01*
X167488747Y-88022947D01*
X167488741Y-88022955D01*
X167352829Y-88206721D01*
X167349703Y-88210948D01*
X167347338Y-88215637D01*
X167347334Y-88215645D01*
X167244439Y-88419727D01*
X167242068Y-88424430D01*
X167240527Y-88429460D01*
X167240526Y-88429464D01*
X167173601Y-88647996D01*
X167173598Y-88648006D01*
X167172060Y-88653031D01*
X167171391Y-88658249D01*
X167171391Y-88658253D01*
X167156284Y-88776223D01*
X167141692Y-88890176D01*
X111853225Y-88890176D01*
X111848161Y-88770958D01*
X111797792Y-88537243D01*
X111708649Y-88315403D01*
X111583297Y-88111818D01*
X111425342Y-87932347D01*
X111239328Y-87782151D01*
X111132316Y-87722370D01*
X111035207Y-87668121D01*
X111035200Y-87668117D01*
X111030607Y-87665552D01*
X111024112Y-87663257D01*
X110810152Y-87587660D01*
X110810144Y-87587658D01*
X110805183Y-87585905D01*
X110799992Y-87585015D01*
X110799985Y-87585013D01*
X110574734Y-87546390D01*
X110574728Y-87546389D01*
X110569541Y-87545500D01*
X110390336Y-87545500D01*
X110387721Y-87545722D01*
X110387710Y-87545723D01*
X110217031Y-87560250D01*
X110217030Y-87560250D01*
X110211780Y-87560697D01*
X110206686Y-87562023D01*
X110206682Y-87562024D01*
X109985513Y-87619612D01*
X109985501Y-87619615D01*
X109980413Y-87620941D01*
X109975611Y-87623111D01*
X109975607Y-87623113D01*
X109767359Y-87717247D01*
X109767350Y-87717251D01*
X109762556Y-87719419D01*
X109758193Y-87722367D01*
X109758189Y-87722370D01*
X109568841Y-87850346D01*
X109568832Y-87850352D01*
X109564475Y-87853298D01*
X109560675Y-87856939D01*
X109560670Y-87856944D01*
X109395668Y-88015085D01*
X109395662Y-88015091D01*
X109391869Y-88018727D01*
X109388747Y-88022947D01*
X109388741Y-88022955D01*
X109252829Y-88206721D01*
X109249703Y-88210948D01*
X109247338Y-88215637D01*
X109247334Y-88215645D01*
X109144439Y-88419727D01*
X109142068Y-88424430D01*
X109140527Y-88429460D01*
X109140526Y-88429464D01*
X109073601Y-88647996D01*
X109073598Y-88648006D01*
X109072060Y-88653031D01*
X109071391Y-88658249D01*
X109071391Y-88658253D01*
X109056284Y-88776223D01*
X109041692Y-88890176D01*
X107200500Y-88890176D01*
X107200500Y-85824500D01*
X107217113Y-85762500D01*
X107262500Y-85717113D01*
X107324500Y-85700500D01*
X171675500Y-85700500D01*
X171737500Y-85717113D01*
G37*
%TD.AperFunction*%
%TD*%
M02*
