%TF.GenerationSoftware,KiCad,Pcbnew,7.0.0-da2b9df05c~171~ubuntu22.04.1*%
%TF.CreationDate,2023-03-03T15:29:18-08:00*%
%TF.ProjectId,CAD,4341442e-6b69-4636-9164-5f7063625858,rev?*%
%TF.SameCoordinates,Original*%
%TF.FileFunction,Soldermask,Top*%
%TF.FilePolarity,Negative*%
%FSLAX46Y46*%
G04 Gerber Fmt 4.6, Leading zero omitted, Abs format (unit mm)*
G04 Created by KiCad (PCBNEW 7.0.0-da2b9df05c~171~ubuntu22.04.1) date 2023-03-03 15:29:18*
%MOMM*%
%LPD*%
G01*
G04 APERTURE LIST*
G04 Aperture macros list*
%AMRoundRect*
0 Rectangle with rounded corners*
0 $1 Rounding radius*
0 $2 $3 $4 $5 $6 $7 $8 $9 X,Y pos of 4 corners*
0 Add a 4 corners polygon primitive as box body*
4,1,4,$2,$3,$4,$5,$6,$7,$8,$9,$2,$3,0*
0 Add four circle primitives for the rounded corners*
1,1,$1+$1,$2,$3*
1,1,$1+$1,$4,$5*
1,1,$1+$1,$6,$7*
1,1,$1+$1,$8,$9*
0 Add four rect primitives between the rounded corners*
20,1,$1+$1,$2,$3,$4,$5,0*
20,1,$1+$1,$4,$5,$6,$7,0*
20,1,$1+$1,$6,$7,$8,$9,0*
20,1,$1+$1,$8,$9,$2,$3,0*%
G04 Aperture macros list end*
%ADD10C,0.852013*%
%ADD11C,1.202025*%
%ADD12C,1.102000*%
%ADD13RoundRect,0.051000X-0.150000X-0.475006X0.150000X-0.475006X0.150000X0.475006X-0.150000X0.475006X0*%
%ADD14RoundRect,0.051000X0.150000X0.475006X-0.150000X0.475006X-0.150000X-0.475006X0.150000X-0.475006X0*%
%ADD15C,2.402000*%
G04 APERTURE END LIST*
%TO.C,J2*%
G36*
X160324087Y-117632199D02*
G01*
X160394436Y-117653539D01*
X160459269Y-117688193D01*
X160516097Y-117734830D01*
X160562734Y-117791658D01*
X160597388Y-117856491D01*
X160618728Y-117926840D01*
X160625933Y-118000000D01*
X160618728Y-118073160D01*
X160597388Y-118143509D01*
X160562734Y-118208342D01*
X160516097Y-118265170D01*
X160459269Y-118311807D01*
X160394436Y-118346461D01*
X160324087Y-118367801D01*
X160250927Y-118375007D01*
X160177767Y-118367801D01*
X160107418Y-118346461D01*
X160042585Y-118311807D01*
X159985757Y-118265170D01*
X159939120Y-118208342D01*
X159904466Y-118143509D01*
X159883126Y-118073160D01*
X159875921Y-118000000D01*
X159883126Y-117926840D01*
X159904466Y-117856491D01*
X159939120Y-117791658D01*
X159985757Y-117734830D01*
X160042585Y-117688193D01*
X160107418Y-117653539D01*
X160177767Y-117632199D01*
X160250927Y-117624993D01*
X160324087Y-117632199D01*
G37*
G36*
X167858356Y-117463096D02*
G01*
X167961535Y-117494395D01*
X168056625Y-117545221D01*
X168139972Y-117613622D01*
X168208373Y-117696969D01*
X168259199Y-117792059D01*
X168290498Y-117895238D01*
X168301067Y-118002540D01*
X168290498Y-118109842D01*
X168259199Y-118213021D01*
X168208373Y-118308111D01*
X168139972Y-118391458D01*
X168056625Y-118459859D01*
X167961535Y-118510685D01*
X167858356Y-118541984D01*
X167751054Y-118552553D01*
X167643752Y-118541984D01*
X167540573Y-118510685D01*
X167445483Y-118459859D01*
X167362136Y-118391458D01*
X167293735Y-118308111D01*
X167242909Y-118213021D01*
X167211610Y-118109842D01*
X167201042Y-118002540D01*
X167211610Y-117895238D01*
X167242909Y-117792059D01*
X167293735Y-117696969D01*
X167362136Y-117613622D01*
X167445483Y-117545221D01*
X167540573Y-117494395D01*
X167643752Y-117463096D01*
X167751054Y-117452527D01*
X167858356Y-117463096D01*
G37*
%TO.C,U8*%
G36*
X144904845Y-115798746D02*
G01*
X145101818Y-115858497D01*
X145283349Y-115955528D01*
X145442462Y-116086109D01*
X145573043Y-116245222D01*
X145670074Y-116426753D01*
X145729825Y-116623726D01*
X145750000Y-116828571D01*
X145729825Y-117033416D01*
X145670074Y-117230389D01*
X145573043Y-117411920D01*
X145442462Y-117571033D01*
X145283349Y-117701614D01*
X145101818Y-117798645D01*
X144904845Y-117858396D01*
X144700000Y-117878571D01*
X144495155Y-117858396D01*
X144298182Y-117798645D01*
X144116651Y-117701614D01*
X143957538Y-117571033D01*
X143826957Y-117411920D01*
X143729926Y-117230389D01*
X143670175Y-117033416D01*
X143650000Y-116828571D01*
X143670175Y-116623726D01*
X143729926Y-116426753D01*
X143826957Y-116245222D01*
X143957538Y-116086109D01*
X144116651Y-115955528D01*
X144298182Y-115858497D01*
X144495155Y-115798746D01*
X144700000Y-115778571D01*
X144904845Y-115798746D01*
G37*
%TO.C,U22*%
G36*
X168910917Y-125235547D02*
G01*
X169257964Y-125340823D01*
X169577805Y-125511781D01*
X169858148Y-125741852D01*
X170088219Y-126022195D01*
X170259177Y-126342036D01*
X170364453Y-126689083D01*
X170400000Y-127050000D01*
X170364453Y-127410917D01*
X170259177Y-127757964D01*
X170088219Y-128077805D01*
X169858148Y-128358148D01*
X169577805Y-128588219D01*
X169257964Y-128759177D01*
X168910917Y-128864453D01*
X168550000Y-128900000D01*
X168189083Y-128864453D01*
X167842036Y-128759177D01*
X167522195Y-128588219D01*
X167241852Y-128358148D01*
X167011781Y-128077805D01*
X166840823Y-127757964D01*
X166735547Y-127410917D01*
X166700000Y-127050000D01*
X166735547Y-126689083D01*
X166840823Y-126342036D01*
X167011781Y-126022195D01*
X167241852Y-125741852D01*
X167522195Y-125511781D01*
X167842036Y-125340823D01*
X168189083Y-125235547D01*
X168550000Y-125200000D01*
X168910917Y-125235547D01*
G37*
%TO.C,LED14*%
G36*
X148125000Y-107753571D02*
G01*
X147512868Y-107753571D01*
X147512868Y-106703571D01*
X148125000Y-106703571D01*
X148125000Y-107753571D01*
G37*
G36*
X146687132Y-107753571D02*
G01*
X146075000Y-107753571D01*
X146075000Y-106703571D01*
X146687132Y-106703571D01*
X146687132Y-107753571D01*
G37*
%TO.C,B1*%
G36*
X117264286Y-97292857D02*
G01*
X114164286Y-97292857D01*
X114164286Y-92992857D01*
X117264286Y-92992857D01*
X117264286Y-97292857D01*
G37*
G36*
X146264286Y-97292857D02*
G01*
X143164286Y-97292857D01*
X143164286Y-92992857D01*
X146264286Y-92992857D01*
X146264286Y-97292857D01*
G37*
%TO.C,U12*%
G36*
X152504845Y-109398746D02*
G01*
X152701818Y-109458497D01*
X152883349Y-109555528D01*
X153042462Y-109686109D01*
X153173043Y-109845222D01*
X153270074Y-110026753D01*
X153329825Y-110223726D01*
X153350000Y-110428571D01*
X153329825Y-110633416D01*
X153270074Y-110830389D01*
X153173043Y-111011920D01*
X153042462Y-111171033D01*
X152883349Y-111301614D01*
X152701818Y-111398645D01*
X152504845Y-111458396D01*
X152300000Y-111478571D01*
X152095155Y-111458396D01*
X151898182Y-111398645D01*
X151716651Y-111301614D01*
X151557538Y-111171033D01*
X151426957Y-111011920D01*
X151329926Y-110830389D01*
X151270175Y-110633416D01*
X151250000Y-110428571D01*
X151270175Y-110223726D01*
X151329926Y-110026753D01*
X151426957Y-109845222D01*
X151557538Y-109686109D01*
X151716651Y-109555528D01*
X151898182Y-109458497D01*
X152095155Y-109398746D01*
X152300000Y-109378571D01*
X152504845Y-109398746D01*
G37*
%TO.C,U13*%
G36*
X154404845Y-107798746D02*
G01*
X154601818Y-107858497D01*
X154783349Y-107955528D01*
X154942462Y-108086109D01*
X155073043Y-108245222D01*
X155170074Y-108426753D01*
X155229825Y-108623726D01*
X155250000Y-108828571D01*
X155229825Y-109033416D01*
X155170074Y-109230389D01*
X155073043Y-109411920D01*
X154942462Y-109571033D01*
X154783349Y-109701614D01*
X154601818Y-109798645D01*
X154404845Y-109858396D01*
X154200000Y-109878571D01*
X153995155Y-109858396D01*
X153798182Y-109798645D01*
X153616651Y-109701614D01*
X153457538Y-109571033D01*
X153326957Y-109411920D01*
X153229926Y-109230389D01*
X153170175Y-109033416D01*
X153150000Y-108828571D01*
X153170175Y-108623726D01*
X153229926Y-108426753D01*
X153326957Y-108245222D01*
X153457538Y-108086109D01*
X153616651Y-107955528D01*
X153798182Y-107858497D01*
X153995155Y-107798746D01*
X154200000Y-107778571D01*
X154404845Y-107798746D01*
G37*
%TO.C,LED12*%
G36*
X144325000Y-110953571D02*
G01*
X143712868Y-110953571D01*
X143712868Y-109903571D01*
X144325000Y-109903571D01*
X144325000Y-110953571D01*
G37*
G36*
X142887132Y-110953571D02*
G01*
X142275000Y-110953571D01*
X142275000Y-109903571D01*
X142887132Y-109903571D01*
X142887132Y-110953571D01*
G37*
%TO.C,U19*%
G36*
X110810917Y-87135547D02*
G01*
X111157964Y-87240823D01*
X111477805Y-87411781D01*
X111758148Y-87641852D01*
X111988219Y-87922195D01*
X112159177Y-88242036D01*
X112264453Y-88589083D01*
X112300000Y-88950000D01*
X112264453Y-89310917D01*
X112159177Y-89657964D01*
X111988219Y-89977805D01*
X111758148Y-90258148D01*
X111477805Y-90488219D01*
X111157964Y-90659177D01*
X110810917Y-90764453D01*
X110450000Y-90800000D01*
X110089083Y-90764453D01*
X109742036Y-90659177D01*
X109422195Y-90488219D01*
X109141852Y-90258148D01*
X108911781Y-89977805D01*
X108740823Y-89657964D01*
X108635547Y-89310917D01*
X108600000Y-88950000D01*
X108635547Y-88589083D01*
X108740823Y-88242036D01*
X108911781Y-87922195D01*
X109141852Y-87641852D01*
X109422195Y-87411781D01*
X109742036Y-87240823D01*
X110089083Y-87135547D01*
X110450000Y-87100000D01*
X110810917Y-87135547D01*
G37*
%TO.C,U6*%
G36*
X141104845Y-118998746D02*
G01*
X141301818Y-119058497D01*
X141483349Y-119155528D01*
X141642462Y-119286109D01*
X141773043Y-119445222D01*
X141870074Y-119626753D01*
X141929825Y-119823726D01*
X141950000Y-120028571D01*
X141929825Y-120233416D01*
X141870074Y-120430389D01*
X141773043Y-120611920D01*
X141642462Y-120771033D01*
X141483349Y-120901614D01*
X141301818Y-120998645D01*
X141104845Y-121058396D01*
X140900000Y-121078571D01*
X140695155Y-121058396D01*
X140498182Y-120998645D01*
X140316651Y-120901614D01*
X140157538Y-120771033D01*
X140026957Y-120611920D01*
X139929926Y-120430389D01*
X139870175Y-120233416D01*
X139850000Y-120028571D01*
X139870175Y-119823726D01*
X139929926Y-119626753D01*
X140026957Y-119445222D01*
X140157538Y-119286109D01*
X140316651Y-119155528D01*
X140498182Y-119058497D01*
X140695155Y-118998746D01*
X140900000Y-118978571D01*
X141104845Y-118998746D01*
G37*
%TO.C,U4*%
G36*
X137304845Y-122198746D02*
G01*
X137501818Y-122258497D01*
X137683349Y-122355528D01*
X137842462Y-122486109D01*
X137973043Y-122645222D01*
X138070074Y-122826753D01*
X138129825Y-123023726D01*
X138150000Y-123228571D01*
X138129825Y-123433416D01*
X138070074Y-123630389D01*
X137973043Y-123811920D01*
X137842462Y-123971033D01*
X137683349Y-124101614D01*
X137501818Y-124198645D01*
X137304845Y-124258396D01*
X137100000Y-124278571D01*
X136895155Y-124258396D01*
X136698182Y-124198645D01*
X136516651Y-124101614D01*
X136357538Y-123971033D01*
X136226957Y-123811920D01*
X136129926Y-123630389D01*
X136070175Y-123433416D01*
X136050000Y-123228571D01*
X136070175Y-123023726D01*
X136129926Y-122826753D01*
X136226957Y-122645222D01*
X136357538Y-122486109D01*
X136516651Y-122355528D01*
X136698182Y-122258497D01*
X136895155Y-122198746D01*
X137100000Y-122178571D01*
X137304845Y-122198746D01*
G37*
%TO.C,LED13*%
G36*
X146225000Y-109353571D02*
G01*
X145612868Y-109353571D01*
X145612868Y-108303571D01*
X146225000Y-108303571D01*
X146225000Y-109353571D01*
G37*
G36*
X144787132Y-109353571D02*
G01*
X144175000Y-109353571D01*
X144175000Y-108303571D01*
X144787132Y-108303571D01*
X144787132Y-109353571D01*
G37*
%TO.C,LED4*%
G36*
X129125000Y-123753571D02*
G01*
X128512868Y-123753571D01*
X128512868Y-122703571D01*
X129125000Y-122703571D01*
X129125000Y-123753571D01*
G37*
G36*
X127687132Y-123753571D02*
G01*
X127075000Y-123753571D01*
X127075000Y-122703571D01*
X127687132Y-122703571D01*
X127687132Y-123753571D01*
G37*
%TO.C,U17*%
G36*
X162004845Y-101398746D02*
G01*
X162201818Y-101458497D01*
X162383349Y-101555528D01*
X162542462Y-101686109D01*
X162673043Y-101845222D01*
X162770074Y-102026753D01*
X162829825Y-102223726D01*
X162850000Y-102428571D01*
X162829825Y-102633416D01*
X162770074Y-102830389D01*
X162673043Y-103011920D01*
X162542462Y-103171033D01*
X162383349Y-103301614D01*
X162201818Y-103398645D01*
X162004845Y-103458396D01*
X161800000Y-103478571D01*
X161595155Y-103458396D01*
X161398182Y-103398645D01*
X161216651Y-103301614D01*
X161057538Y-103171033D01*
X160926957Y-103011920D01*
X160829926Y-102830389D01*
X160770175Y-102633416D01*
X160750000Y-102428571D01*
X160770175Y-102223726D01*
X160829926Y-102026753D01*
X160926957Y-101845222D01*
X161057538Y-101686109D01*
X161216651Y-101555528D01*
X161398182Y-101458497D01*
X161595155Y-101398746D01*
X161800000Y-101378571D01*
X162004845Y-101398746D01*
G37*
%TO.C,U5*%
G36*
X139204845Y-120598746D02*
G01*
X139401818Y-120658497D01*
X139583349Y-120755528D01*
X139742462Y-120886109D01*
X139873043Y-121045222D01*
X139970074Y-121226753D01*
X140029825Y-121423726D01*
X140050000Y-121628571D01*
X140029825Y-121833416D01*
X139970074Y-122030389D01*
X139873043Y-122211920D01*
X139742462Y-122371033D01*
X139583349Y-122501614D01*
X139401818Y-122598645D01*
X139204845Y-122658396D01*
X139000000Y-122678571D01*
X138795155Y-122658396D01*
X138598182Y-122598645D01*
X138416651Y-122501614D01*
X138257538Y-122371033D01*
X138126957Y-122211920D01*
X138029926Y-122030389D01*
X137970175Y-121833416D01*
X137950000Y-121628571D01*
X137970175Y-121423726D01*
X138029926Y-121226753D01*
X138126957Y-121045222D01*
X138257538Y-120886109D01*
X138416651Y-120755528D01*
X138598182Y-120658497D01*
X138795155Y-120598746D01*
X139000000Y-120578571D01*
X139204845Y-120598746D01*
G37*
%TO.C,U18*%
G36*
X163904845Y-99798746D02*
G01*
X164101818Y-99858497D01*
X164283349Y-99955528D01*
X164442462Y-100086109D01*
X164573043Y-100245222D01*
X164670074Y-100426753D01*
X164729825Y-100623726D01*
X164750000Y-100828571D01*
X164729825Y-101033416D01*
X164670074Y-101230389D01*
X164573043Y-101411920D01*
X164442462Y-101571033D01*
X164283349Y-101701614D01*
X164101818Y-101798645D01*
X163904845Y-101858396D01*
X163700000Y-101878571D01*
X163495155Y-101858396D01*
X163298182Y-101798645D01*
X163116651Y-101701614D01*
X162957538Y-101571033D01*
X162826957Y-101411920D01*
X162729926Y-101230389D01*
X162670175Y-101033416D01*
X162650000Y-100828571D01*
X162670175Y-100623726D01*
X162729926Y-100426753D01*
X162826957Y-100245222D01*
X162957538Y-100086109D01*
X163116651Y-99955528D01*
X163298182Y-99858497D01*
X163495155Y-99798746D01*
X163700000Y-99778571D01*
X163904845Y-99798746D01*
G37*
%TO.C,U21*%
G36*
X110810917Y-125235547D02*
G01*
X111157964Y-125340823D01*
X111477805Y-125511781D01*
X111758148Y-125741852D01*
X111988219Y-126022195D01*
X112159177Y-126342036D01*
X112264453Y-126689083D01*
X112300000Y-127050000D01*
X112264453Y-127410917D01*
X112159177Y-127757964D01*
X111988219Y-128077805D01*
X111758148Y-128358148D01*
X111477805Y-128588219D01*
X111157964Y-128759177D01*
X110810917Y-128864453D01*
X110450000Y-128900000D01*
X110089083Y-128864453D01*
X109742036Y-128759177D01*
X109422195Y-128588219D01*
X109141852Y-128358148D01*
X108911781Y-128077805D01*
X108740823Y-127757964D01*
X108635547Y-127410917D01*
X108600000Y-127050000D01*
X108635547Y-126689083D01*
X108740823Y-126342036D01*
X108911781Y-126022195D01*
X109141852Y-125741852D01*
X109422195Y-125511781D01*
X109742036Y-125340823D01*
X110089083Y-125235547D01*
X110450000Y-125200000D01*
X110810917Y-125235547D01*
G37*
%TO.C,U2*%
G36*
X133504845Y-125398746D02*
G01*
X133701818Y-125458497D01*
X133883349Y-125555528D01*
X134042462Y-125686109D01*
X134173043Y-125845222D01*
X134270074Y-126026753D01*
X134329825Y-126223726D01*
X134350000Y-126428571D01*
X134329825Y-126633416D01*
X134270074Y-126830389D01*
X134173043Y-127011920D01*
X134042462Y-127171033D01*
X133883349Y-127301614D01*
X133701818Y-127398645D01*
X133504845Y-127458396D01*
X133300000Y-127478571D01*
X133095155Y-127458396D01*
X132898182Y-127398645D01*
X132716651Y-127301614D01*
X132557538Y-127171033D01*
X132426957Y-127011920D01*
X132329926Y-126830389D01*
X132270175Y-126633416D01*
X132250000Y-126428571D01*
X132270175Y-126223726D01*
X132329926Y-126026753D01*
X132426957Y-125845222D01*
X132557538Y-125686109D01*
X132716651Y-125555528D01*
X132898182Y-125458497D01*
X133095155Y-125398746D01*
X133300000Y-125378571D01*
X133504845Y-125398746D01*
G37*
%TO.C,LED11*%
G36*
X142425000Y-112553571D02*
G01*
X141812868Y-112553571D01*
X141812868Y-111503571D01*
X142425000Y-111503571D01*
X142425000Y-112553571D01*
G37*
G36*
X140987132Y-112553571D02*
G01*
X140375000Y-112553571D01*
X140375000Y-111503571D01*
X140987132Y-111503571D01*
X140987132Y-112553571D01*
G37*
%TO.C,LED1*%
G36*
X123425000Y-128553571D02*
G01*
X122812868Y-128553571D01*
X122812868Y-127503571D01*
X123425000Y-127503571D01*
X123425000Y-128553571D01*
G37*
G36*
X121987132Y-128553571D02*
G01*
X121375000Y-128553571D01*
X121375000Y-127503571D01*
X121987132Y-127503571D01*
X121987132Y-128553571D01*
G37*
%TO.C,LED6*%
G36*
X132925000Y-120553571D02*
G01*
X132312868Y-120553571D01*
X132312868Y-119503571D01*
X132925000Y-119503571D01*
X132925000Y-120553571D01*
G37*
G36*
X131487132Y-120553571D02*
G01*
X130875000Y-120553571D01*
X130875000Y-119503571D01*
X131487132Y-119503571D01*
X131487132Y-120553571D01*
G37*
%TO.C,LED17*%
G36*
X153825000Y-102953571D02*
G01*
X153212868Y-102953571D01*
X153212868Y-101903571D01*
X153825000Y-101903571D01*
X153825000Y-102953571D01*
G37*
G36*
X152387132Y-102953571D02*
G01*
X151775000Y-102953571D01*
X151775000Y-101903571D01*
X152387132Y-101903571D01*
X152387132Y-102953571D01*
G37*
%TO.C,U14*%
G36*
X156304845Y-106198746D02*
G01*
X156501818Y-106258497D01*
X156683349Y-106355528D01*
X156842462Y-106486109D01*
X156973043Y-106645222D01*
X157070074Y-106826753D01*
X157129825Y-107023726D01*
X157150000Y-107228571D01*
X157129825Y-107433416D01*
X157070074Y-107630389D01*
X156973043Y-107811920D01*
X156842462Y-107971033D01*
X156683349Y-108101614D01*
X156501818Y-108198645D01*
X156304845Y-108258396D01*
X156100000Y-108278571D01*
X155895155Y-108258396D01*
X155698182Y-108198645D01*
X155516651Y-108101614D01*
X155357538Y-107971033D01*
X155226957Y-107811920D01*
X155129926Y-107630389D01*
X155070175Y-107433416D01*
X155050000Y-107228571D01*
X155070175Y-107023726D01*
X155129926Y-106826753D01*
X155226957Y-106645222D01*
X155357538Y-106486109D01*
X155516651Y-106355528D01*
X155698182Y-106258497D01*
X155895155Y-106198746D01*
X156100000Y-106178571D01*
X156304845Y-106198746D01*
G37*
%TO.C,U16*%
G36*
X160104845Y-102998746D02*
G01*
X160301818Y-103058497D01*
X160483349Y-103155528D01*
X160642462Y-103286109D01*
X160773043Y-103445222D01*
X160870074Y-103626753D01*
X160929825Y-103823726D01*
X160950000Y-104028571D01*
X160929825Y-104233416D01*
X160870074Y-104430389D01*
X160773043Y-104611920D01*
X160642462Y-104771033D01*
X160483349Y-104901614D01*
X160301818Y-104998645D01*
X160104845Y-105058396D01*
X159900000Y-105078571D01*
X159695155Y-105058396D01*
X159498182Y-104998645D01*
X159316651Y-104901614D01*
X159157538Y-104771033D01*
X159026957Y-104611920D01*
X158929926Y-104430389D01*
X158870175Y-104233416D01*
X158850000Y-104028571D01*
X158870175Y-103823726D01*
X158929926Y-103626753D01*
X159026957Y-103445222D01*
X159157538Y-103286109D01*
X159316651Y-103155528D01*
X159498182Y-103058497D01*
X159695155Y-102998746D01*
X159900000Y-102978571D01*
X160104845Y-102998746D01*
G37*
%TO.C,U10*%
G36*
X148704845Y-112598746D02*
G01*
X148901818Y-112658497D01*
X149083349Y-112755528D01*
X149242462Y-112886109D01*
X149373043Y-113045222D01*
X149470074Y-113226753D01*
X149529825Y-113423726D01*
X149550000Y-113628571D01*
X149529825Y-113833416D01*
X149470074Y-114030389D01*
X149373043Y-114211920D01*
X149242462Y-114371033D01*
X149083349Y-114501614D01*
X148901818Y-114598645D01*
X148704845Y-114658396D01*
X148500000Y-114678571D01*
X148295155Y-114658396D01*
X148098182Y-114598645D01*
X147916651Y-114501614D01*
X147757538Y-114371033D01*
X147626957Y-114211920D01*
X147529926Y-114030389D01*
X147470175Y-113833416D01*
X147450000Y-113628571D01*
X147470175Y-113423726D01*
X147529926Y-113226753D01*
X147626957Y-113045222D01*
X147757538Y-112886109D01*
X147916651Y-112755528D01*
X148098182Y-112658497D01*
X148295155Y-112598746D01*
X148500000Y-112578571D01*
X148704845Y-112598746D01*
G37*
%TO.C,LED7*%
G36*
X134825000Y-118953571D02*
G01*
X134212868Y-118953571D01*
X134212868Y-117903571D01*
X134825000Y-117903571D01*
X134825000Y-118953571D01*
G37*
G36*
X133387132Y-118953571D02*
G01*
X132775000Y-118953571D01*
X132775000Y-117903571D01*
X133387132Y-117903571D01*
X133387132Y-118953571D01*
G37*
%TO.C,U11*%
G36*
X150604845Y-110998746D02*
G01*
X150801818Y-111058497D01*
X150983349Y-111155528D01*
X151142462Y-111286109D01*
X151273043Y-111445222D01*
X151370074Y-111626753D01*
X151429825Y-111823726D01*
X151450000Y-112028571D01*
X151429825Y-112233416D01*
X151370074Y-112430389D01*
X151273043Y-112611920D01*
X151142462Y-112771033D01*
X150983349Y-112901614D01*
X150801818Y-112998645D01*
X150604845Y-113058396D01*
X150400000Y-113078571D01*
X150195155Y-113058396D01*
X149998182Y-112998645D01*
X149816651Y-112901614D01*
X149657538Y-112771033D01*
X149526957Y-112611920D01*
X149429926Y-112430389D01*
X149370175Y-112233416D01*
X149350000Y-112028571D01*
X149370175Y-111823726D01*
X149429926Y-111626753D01*
X149526957Y-111445222D01*
X149657538Y-111286109D01*
X149816651Y-111155528D01*
X149998182Y-111058497D01*
X150195155Y-110998746D01*
X150400000Y-110978571D01*
X150604845Y-110998746D01*
G37*
%TO.C,LED3*%
G36*
X127225000Y-125353571D02*
G01*
X126612868Y-125353571D01*
X126612868Y-124303571D01*
X127225000Y-124303571D01*
X127225000Y-125353571D01*
G37*
G36*
X125787132Y-125353571D02*
G01*
X125175000Y-125353571D01*
X125175000Y-124303571D01*
X125787132Y-124303571D01*
X125787132Y-125353571D01*
G37*
%TO.C,LED10*%
G36*
X140525000Y-114153571D02*
G01*
X139912868Y-114153571D01*
X139912868Y-113103571D01*
X140525000Y-113103571D01*
X140525000Y-114153571D01*
G37*
G36*
X139087132Y-114153571D02*
G01*
X138475000Y-114153571D01*
X138475000Y-113103571D01*
X139087132Y-113103571D01*
X139087132Y-114153571D01*
G37*
%TO.C,J1*%
G36*
X111324087Y-117632199D02*
G01*
X111394436Y-117653539D01*
X111459269Y-117688193D01*
X111516097Y-117734830D01*
X111562734Y-117791658D01*
X111597388Y-117856491D01*
X111618728Y-117926840D01*
X111625933Y-118000000D01*
X111618728Y-118073160D01*
X111597388Y-118143509D01*
X111562734Y-118208342D01*
X111516097Y-118265170D01*
X111459269Y-118311807D01*
X111394436Y-118346461D01*
X111324087Y-118367801D01*
X111250927Y-118375007D01*
X111177767Y-118367801D01*
X111107418Y-118346461D01*
X111042585Y-118311807D01*
X110985757Y-118265170D01*
X110939120Y-118208342D01*
X110904466Y-118143509D01*
X110883126Y-118073160D01*
X110875921Y-118000000D01*
X110883126Y-117926840D01*
X110904466Y-117856491D01*
X110939120Y-117791658D01*
X110985757Y-117734830D01*
X111042585Y-117688193D01*
X111107418Y-117653539D01*
X111177767Y-117632199D01*
X111250927Y-117624993D01*
X111324087Y-117632199D01*
G37*
G36*
X118858356Y-117463096D02*
G01*
X118961535Y-117494395D01*
X119056625Y-117545221D01*
X119139972Y-117613622D01*
X119208373Y-117696969D01*
X119259199Y-117792059D01*
X119290498Y-117895238D01*
X119301067Y-118002540D01*
X119290498Y-118109842D01*
X119259199Y-118213021D01*
X119208373Y-118308111D01*
X119139972Y-118391458D01*
X119056625Y-118459859D01*
X118961535Y-118510685D01*
X118858356Y-118541984D01*
X118751054Y-118552553D01*
X118643752Y-118541984D01*
X118540573Y-118510685D01*
X118445483Y-118459859D01*
X118362136Y-118391458D01*
X118293735Y-118308111D01*
X118242909Y-118213021D01*
X118211610Y-118109842D01*
X118201042Y-118002540D01*
X118211610Y-117895238D01*
X118242909Y-117792059D01*
X118293735Y-117696969D01*
X118362136Y-117613622D01*
X118445483Y-117545221D01*
X118540573Y-117494395D01*
X118643752Y-117463096D01*
X118751054Y-117452527D01*
X118858356Y-117463096D01*
G37*
%TO.C,U7*%
G36*
X143004845Y-117398746D02*
G01*
X143201818Y-117458497D01*
X143383349Y-117555528D01*
X143542462Y-117686109D01*
X143673043Y-117845222D01*
X143770074Y-118026753D01*
X143829825Y-118223726D01*
X143850000Y-118428571D01*
X143829825Y-118633416D01*
X143770074Y-118830389D01*
X143673043Y-119011920D01*
X143542462Y-119171033D01*
X143383349Y-119301614D01*
X143201818Y-119398645D01*
X143004845Y-119458396D01*
X142800000Y-119478571D01*
X142595155Y-119458396D01*
X142398182Y-119398645D01*
X142216651Y-119301614D01*
X142057538Y-119171033D01*
X141926957Y-119011920D01*
X141829926Y-118830389D01*
X141770175Y-118633416D01*
X141750000Y-118428571D01*
X141770175Y-118223726D01*
X141829926Y-118026753D01*
X141926957Y-117845222D01*
X142057538Y-117686109D01*
X142216651Y-117555528D01*
X142398182Y-117458497D01*
X142595155Y-117398746D01*
X142800000Y-117378571D01*
X143004845Y-117398746D01*
G37*
%TO.C,U9*%
G36*
X146804845Y-114198746D02*
G01*
X147001818Y-114258497D01*
X147183349Y-114355528D01*
X147342462Y-114486109D01*
X147473043Y-114645222D01*
X147570074Y-114826753D01*
X147629825Y-115023726D01*
X147650000Y-115228571D01*
X147629825Y-115433416D01*
X147570074Y-115630389D01*
X147473043Y-115811920D01*
X147342462Y-115971033D01*
X147183349Y-116101614D01*
X147001818Y-116198645D01*
X146804845Y-116258396D01*
X146600000Y-116278571D01*
X146395155Y-116258396D01*
X146198182Y-116198645D01*
X146016651Y-116101614D01*
X145857538Y-115971033D01*
X145726957Y-115811920D01*
X145629926Y-115630389D01*
X145570175Y-115433416D01*
X145550000Y-115228571D01*
X145570175Y-115023726D01*
X145629926Y-114826753D01*
X145726957Y-114645222D01*
X145857538Y-114486109D01*
X146016651Y-114355528D01*
X146198182Y-114258497D01*
X146395155Y-114198746D01*
X146600000Y-114178571D01*
X146804845Y-114198746D01*
G37*
%TO.C,U3*%
G36*
X135404845Y-123798746D02*
G01*
X135601818Y-123858497D01*
X135783349Y-123955528D01*
X135942462Y-124086109D01*
X136073043Y-124245222D01*
X136170074Y-124426753D01*
X136229825Y-124623726D01*
X136250000Y-124828571D01*
X136229825Y-125033416D01*
X136170074Y-125230389D01*
X136073043Y-125411920D01*
X135942462Y-125571033D01*
X135783349Y-125701614D01*
X135601818Y-125798645D01*
X135404845Y-125858396D01*
X135200000Y-125878571D01*
X134995155Y-125858396D01*
X134798182Y-125798645D01*
X134616651Y-125701614D01*
X134457538Y-125571033D01*
X134326957Y-125411920D01*
X134229926Y-125230389D01*
X134170175Y-125033416D01*
X134150000Y-124828571D01*
X134170175Y-124623726D01*
X134229926Y-124426753D01*
X134326957Y-124245222D01*
X134457538Y-124086109D01*
X134616651Y-123955528D01*
X134798182Y-123858497D01*
X134995155Y-123798746D01*
X135200000Y-123778571D01*
X135404845Y-123798746D01*
G37*
%TO.C,LED9*%
G36*
X138625000Y-115753571D02*
G01*
X138012868Y-115753571D01*
X138012868Y-114703571D01*
X138625000Y-114703571D01*
X138625000Y-115753571D01*
G37*
G36*
X137187132Y-115753571D02*
G01*
X136575000Y-115753571D01*
X136575000Y-114703571D01*
X137187132Y-114703571D01*
X137187132Y-115753571D01*
G37*
%TO.C,LED18*%
G36*
X155725000Y-101353571D02*
G01*
X155112868Y-101353571D01*
X155112868Y-100303571D01*
X155725000Y-100303571D01*
X155725000Y-101353571D01*
G37*
G36*
X154287132Y-101353571D02*
G01*
X153675000Y-101353571D01*
X153675000Y-100303571D01*
X154287132Y-100303571D01*
X154287132Y-101353571D01*
G37*
%TO.C,LED16*%
G36*
X151925000Y-104553571D02*
G01*
X151312868Y-104553571D01*
X151312868Y-103503571D01*
X151925000Y-103503571D01*
X151925000Y-104553571D01*
G37*
G36*
X150487132Y-104553571D02*
G01*
X149875000Y-104553571D01*
X149875000Y-103503571D01*
X150487132Y-103503571D01*
X150487132Y-104553571D01*
G37*
%TO.C,LED15*%
G36*
X150025000Y-106153571D02*
G01*
X149412868Y-106153571D01*
X149412868Y-105103571D01*
X150025000Y-105103571D01*
X150025000Y-106153571D01*
G37*
G36*
X148587132Y-106153571D02*
G01*
X147975000Y-106153571D01*
X147975000Y-105103571D01*
X148587132Y-105103571D01*
X148587132Y-106153571D01*
G37*
%TO.C,LED8*%
G36*
X136725000Y-117353571D02*
G01*
X136112868Y-117353571D01*
X136112868Y-116303571D01*
X136725000Y-116303571D01*
X136725000Y-117353571D01*
G37*
G36*
X135287132Y-117353571D02*
G01*
X134675000Y-117353571D01*
X134675000Y-116303571D01*
X135287132Y-116303571D01*
X135287132Y-117353571D01*
G37*
%TO.C,LED2*%
G36*
X125325000Y-126953571D02*
G01*
X124712868Y-126953571D01*
X124712868Y-125903571D01*
X125325000Y-125903571D01*
X125325000Y-126953571D01*
G37*
G36*
X123887132Y-126953571D02*
G01*
X123275000Y-126953571D01*
X123275000Y-125903571D01*
X123887132Y-125903571D01*
X123887132Y-126953571D01*
G37*
%TO.C,U1*%
G36*
X131604845Y-126998746D02*
G01*
X131801818Y-127058497D01*
X131983349Y-127155528D01*
X132142462Y-127286109D01*
X132273043Y-127445222D01*
X132370074Y-127626753D01*
X132429825Y-127823726D01*
X132450000Y-128028571D01*
X132429825Y-128233416D01*
X132370074Y-128430389D01*
X132273043Y-128611920D01*
X132142462Y-128771033D01*
X131983349Y-128901614D01*
X131801818Y-128998645D01*
X131604845Y-129058396D01*
X131400000Y-129078571D01*
X131195155Y-129058396D01*
X130998182Y-128998645D01*
X130816651Y-128901614D01*
X130657538Y-128771033D01*
X130526957Y-128611920D01*
X130429926Y-128430389D01*
X130370175Y-128233416D01*
X130350000Y-128028571D01*
X130370175Y-127823726D01*
X130429926Y-127626753D01*
X130526957Y-127445222D01*
X130657538Y-127286109D01*
X130816651Y-127155528D01*
X130998182Y-127058497D01*
X131195155Y-126998746D01*
X131400000Y-126978571D01*
X131604845Y-126998746D01*
G37*
%TO.C,U15*%
G36*
X158204845Y-104598746D02*
G01*
X158401818Y-104658497D01*
X158583349Y-104755528D01*
X158742462Y-104886109D01*
X158873043Y-105045222D01*
X158970074Y-105226753D01*
X159029825Y-105423726D01*
X159050000Y-105628571D01*
X159029825Y-105833416D01*
X158970074Y-106030389D01*
X158873043Y-106211920D01*
X158742462Y-106371033D01*
X158583349Y-106501614D01*
X158401818Y-106598645D01*
X158204845Y-106658396D01*
X158000000Y-106678571D01*
X157795155Y-106658396D01*
X157598182Y-106598645D01*
X157416651Y-106501614D01*
X157257538Y-106371033D01*
X157126957Y-106211920D01*
X157029926Y-106030389D01*
X156970175Y-105833416D01*
X156950000Y-105628571D01*
X156970175Y-105423726D01*
X157029926Y-105226753D01*
X157126957Y-105045222D01*
X157257538Y-104886109D01*
X157416651Y-104755528D01*
X157598182Y-104658497D01*
X157795155Y-104598746D01*
X158000000Y-104578571D01*
X158204845Y-104598746D01*
G37*
%TO.C,LED5*%
G36*
X131025000Y-122153571D02*
G01*
X130412868Y-122153571D01*
X130412868Y-121103571D01*
X131025000Y-121103571D01*
X131025000Y-122153571D01*
G37*
G36*
X129587132Y-122153571D02*
G01*
X128975000Y-122153571D01*
X128975000Y-121103571D01*
X129587132Y-121103571D01*
X129587132Y-122153571D01*
G37*
%TO.C,U20*%
G36*
X168910917Y-87135547D02*
G01*
X169257964Y-87240823D01*
X169577805Y-87411781D01*
X169858148Y-87641852D01*
X170088219Y-87922195D01*
X170259177Y-88242036D01*
X170364453Y-88589083D01*
X170400000Y-88950000D01*
X170364453Y-89310917D01*
X170259177Y-89657964D01*
X170088219Y-89977805D01*
X169858148Y-90258148D01*
X169577805Y-90488219D01*
X169257964Y-90659177D01*
X168910917Y-90764453D01*
X168550000Y-90800000D01*
X168189083Y-90764453D01*
X167842036Y-90659177D01*
X167522195Y-90488219D01*
X167241852Y-90258148D01*
X167011781Y-89977805D01*
X166840823Y-89657964D01*
X166735547Y-89310917D01*
X166700000Y-88950000D01*
X166735547Y-88589083D01*
X166840823Y-88242036D01*
X167011781Y-87922195D01*
X167241852Y-87641852D01*
X167522195Y-87411781D01*
X167842036Y-87240823D01*
X168189083Y-87135547D01*
X168550000Y-87100000D01*
X168910917Y-87135547D01*
G37*
%TD*%
D10*
%TO.C,J2*%
X160250927Y-118000000D03*
D11*
X167751054Y-118002540D03*
D12*
X166401041Y-115849886D03*
X161600940Y-115849886D03*
X161600940Y-120150114D03*
X166401041Y-120150114D03*
D13*
X161250927Y-117249936D03*
X161751054Y-117249936D03*
X162250927Y-117249936D03*
X162751054Y-117249936D03*
X163250927Y-117249936D03*
X163751054Y-117249936D03*
X164250927Y-117249936D03*
X164751054Y-117249936D03*
X165250927Y-117249936D03*
X165751054Y-117249936D03*
X166250927Y-117249936D03*
X166751054Y-117249936D03*
D14*
X166751080Y-118751588D03*
X166250953Y-118751588D03*
X165751080Y-118751588D03*
X165250953Y-118751588D03*
X164751080Y-118751588D03*
X164250953Y-118751588D03*
X163751080Y-118751588D03*
X163250953Y-118751588D03*
X162751080Y-118751588D03*
X162250953Y-118751588D03*
X161751080Y-118751588D03*
X161250953Y-118751588D03*
%TD*%
D15*
%TO.C,U22*%
X168550000Y-127050000D03*
%TD*%
%TO.C,U19*%
X110450000Y-88950000D03*
%TD*%
%TO.C,U21*%
X110450000Y-127050000D03*
%TD*%
D10*
%TO.C,J1*%
X111250927Y-118000000D03*
D11*
X118751054Y-118002540D03*
D12*
X117401041Y-115849886D03*
X112600940Y-115849886D03*
X112600940Y-120150114D03*
X117401041Y-120150114D03*
D13*
X112250927Y-117249936D03*
X112751054Y-117249936D03*
X113250927Y-117249936D03*
X113751054Y-117249936D03*
X114250927Y-117249936D03*
X114751054Y-117249936D03*
X115250927Y-117249936D03*
X115751054Y-117249936D03*
X116250927Y-117249936D03*
X116751054Y-117249936D03*
X117250927Y-117249936D03*
X117751054Y-117249936D03*
D14*
X117751080Y-118751588D03*
X117250953Y-118751588D03*
X116751080Y-118751588D03*
X116250953Y-118751588D03*
X115751080Y-118751588D03*
X115250953Y-118751588D03*
X114751080Y-118751588D03*
X114250953Y-118751588D03*
X113751080Y-118751588D03*
X113250953Y-118751588D03*
X112751080Y-118751588D03*
X112250953Y-118751588D03*
%TD*%
D15*
%TO.C,U20*%
X168550000Y-88950000D03*
%TD*%
M02*
