%TF.GenerationSoftware,KiCad,Pcbnew,6.0.10-86aedd382b~118~ubuntu20.04.1*%
%TF.CreationDate,2023-02-21T16:43:21-08:00*%
%TF.ProjectId,CAD,4341442e-6b69-4636-9164-5f7063625858,rev?*%
%TF.SameCoordinates,Original*%
%TF.FileFunction,Legend,Bot*%
%TF.FilePolarity,Positive*%
%FSLAX46Y46*%
G04 Gerber Fmt 4.6, Leading zero omitted, Abs format (unit mm)*
G04 Created by KiCad (PCBNEW 6.0.10-86aedd382b~118~ubuntu20.04.1) date 2023-02-21 16:43:21*
%MOMM*%
%LPD*%
G01*
G04 APERTURE LIST*
%ADD10C,0.100000*%
%ADD11C,2.402000*%
%ADD12C,0.852013*%
%ADD13C,1.202025*%
%ADD14C,1.102000*%
G04 APERTURE END LIST*
D10*
%TO.C,*%
X167467857Y-95698571D02*
X167467857Y-96912857D01*
X167396428Y-97055714D01*
X167325000Y-97127142D01*
X167182142Y-97198571D01*
X166896428Y-97198571D01*
X166753571Y-97127142D01*
X166682142Y-97055714D01*
X166610714Y-96912857D01*
X166610714Y-95698571D01*
X165967857Y-97127142D02*
X165753571Y-97198571D01*
X165396428Y-97198571D01*
X165253571Y-97127142D01*
X165182142Y-97055714D01*
X165110714Y-96912857D01*
X165110714Y-96770000D01*
X165182142Y-96627142D01*
X165253571Y-96555714D01*
X165396428Y-96484285D01*
X165682142Y-96412857D01*
X165825000Y-96341428D01*
X165896428Y-96270000D01*
X165967857Y-96127142D01*
X165967857Y-95984285D01*
X165896428Y-95841428D01*
X165825000Y-95770000D01*
X165682142Y-95698571D01*
X165325000Y-95698571D01*
X165110714Y-95770000D01*
X163967857Y-96412857D02*
X163753571Y-96484285D01*
X163682142Y-96555714D01*
X163610714Y-96698571D01*
X163610714Y-96912857D01*
X163682142Y-97055714D01*
X163753571Y-97127142D01*
X163896428Y-97198571D01*
X164467857Y-97198571D01*
X164467857Y-95698571D01*
X163967857Y-95698571D01*
X163825000Y-95770000D01*
X163753571Y-95841428D01*
X163682142Y-95984285D01*
X163682142Y-96127142D01*
X163753571Y-96270000D01*
X163825000Y-96341428D01*
X163967857Y-96412857D01*
X164467857Y-96412857D01*
X162967857Y-96627142D02*
X161825000Y-96627142D01*
X160253571Y-97055714D02*
X160325000Y-97127142D01*
X160539285Y-97198571D01*
X160682142Y-97198571D01*
X160896428Y-97127142D01*
X161039285Y-96984285D01*
X161110714Y-96841428D01*
X161182142Y-96555714D01*
X161182142Y-96341428D01*
X161110714Y-96055714D01*
X161039285Y-95912857D01*
X160896428Y-95770000D01*
X160682142Y-95698571D01*
X160539285Y-95698571D01*
X160325000Y-95770000D01*
X160253571Y-95841428D01*
X157610714Y-97055714D02*
X157682142Y-97127142D01*
X157896428Y-97198571D01*
X158039285Y-97198571D01*
X158253571Y-97127142D01*
X158396428Y-96984285D01*
X158467857Y-96841428D01*
X158539285Y-96555714D01*
X158539285Y-96341428D01*
X158467857Y-96055714D01*
X158396428Y-95912857D01*
X158253571Y-95770000D01*
X158039285Y-95698571D01*
X157896428Y-95698571D01*
X157682142Y-95770000D01*
X157610714Y-95841428D01*
X156325000Y-97198571D02*
X156325000Y-96412857D01*
X156396428Y-96270000D01*
X156539285Y-96198571D01*
X156825000Y-96198571D01*
X156967857Y-96270000D01*
X156325000Y-97127142D02*
X156467857Y-97198571D01*
X156825000Y-97198571D01*
X156967857Y-97127142D01*
X157039285Y-96984285D01*
X157039285Y-96841428D01*
X156967857Y-96698571D01*
X156825000Y-96627142D01*
X156467857Y-96627142D01*
X156325000Y-96555714D01*
X155610714Y-97198571D02*
X155610714Y-95698571D01*
X155610714Y-96270000D02*
X155467857Y-96198571D01*
X155182142Y-96198571D01*
X155039285Y-96270000D01*
X154967857Y-96341428D01*
X154896428Y-96484285D01*
X154896428Y-96912857D01*
X154967857Y-97055714D01*
X155039285Y-97127142D01*
X155182142Y-97198571D01*
X155467857Y-97198571D01*
X155610714Y-97127142D01*
X154039285Y-97198571D02*
X154182142Y-97127142D01*
X154253571Y-96984285D01*
X154253571Y-95698571D01*
X152896428Y-97127142D02*
X153039285Y-97198571D01*
X153325000Y-97198571D01*
X153467857Y-97127142D01*
X153539285Y-96984285D01*
X153539285Y-96412857D01*
X153467857Y-96270000D01*
X153325000Y-96198571D01*
X153039285Y-96198571D01*
X152896428Y-96270000D01*
X152825000Y-96412857D01*
X152825000Y-96555714D01*
X153539285Y-96698571D01*
X151253571Y-95698571D02*
X150396428Y-95698571D01*
X150825000Y-97198571D02*
X150825000Y-95698571D01*
X149325000Y-97127142D02*
X149467857Y-97198571D01*
X149753571Y-97198571D01*
X149896428Y-97127142D01*
X149967857Y-96984285D01*
X149967857Y-96412857D01*
X149896428Y-96270000D01*
X149753571Y-96198571D01*
X149467857Y-96198571D01*
X149325000Y-96270000D01*
X149253571Y-96412857D01*
X149253571Y-96555714D01*
X149967857Y-96698571D01*
X148682142Y-97127142D02*
X148539285Y-97198571D01*
X148253571Y-97198571D01*
X148110714Y-97127142D01*
X148039285Y-96984285D01*
X148039285Y-96912857D01*
X148110714Y-96770000D01*
X148253571Y-96698571D01*
X148467857Y-96698571D01*
X148610714Y-96627142D01*
X148682142Y-96484285D01*
X148682142Y-96412857D01*
X148610714Y-96270000D01*
X148467857Y-96198571D01*
X148253571Y-96198571D01*
X148110714Y-96270000D01*
X147610714Y-96198571D02*
X147039285Y-96198571D01*
X147396428Y-95698571D02*
X147396428Y-96984285D01*
X147325000Y-97127142D01*
X147182142Y-97198571D01*
X147039285Y-97198571D01*
X145967857Y-97127142D02*
X146110714Y-97198571D01*
X146396428Y-97198571D01*
X146539285Y-97127142D01*
X146610714Y-96984285D01*
X146610714Y-96412857D01*
X146539285Y-96270000D01*
X146396428Y-96198571D01*
X146110714Y-96198571D01*
X145967857Y-96270000D01*
X145896428Y-96412857D01*
X145896428Y-96555714D01*
X146610714Y-96698571D01*
X145253571Y-97198571D02*
X145253571Y-96198571D01*
X145253571Y-96484285D02*
X145182142Y-96341428D01*
X145110714Y-96270000D01*
X144967857Y-96198571D01*
X144825000Y-96198571D01*
X142825000Y-97698571D02*
X142825000Y-95555714D01*
X140825000Y-95698571D02*
X140325000Y-97198571D01*
X139825000Y-95698571D01*
X138753571Y-97127142D02*
X138896428Y-97198571D01*
X139182142Y-97198571D01*
X139325000Y-97127142D01*
X139396428Y-96984285D01*
X139396428Y-96412857D01*
X139325000Y-96270000D01*
X139182142Y-96198571D01*
X138896428Y-96198571D01*
X138753571Y-96270000D01*
X138682142Y-96412857D01*
X138682142Y-96555714D01*
X139396428Y-96698571D01*
X138039285Y-97198571D02*
X138039285Y-96198571D01*
X138039285Y-96484285D02*
X137967857Y-96341428D01*
X137896428Y-96270000D01*
X137753571Y-96198571D01*
X137610714Y-96198571D01*
X137182142Y-97127142D02*
X137039285Y-97198571D01*
X136753571Y-97198571D01*
X136610714Y-97127142D01*
X136539285Y-96984285D01*
X136539285Y-96912857D01*
X136610714Y-96770000D01*
X136753571Y-96698571D01*
X136967857Y-96698571D01*
X137110714Y-96627142D01*
X137182142Y-96484285D01*
X137182142Y-96412857D01*
X137110714Y-96270000D01*
X136967857Y-96198571D01*
X136753571Y-96198571D01*
X136610714Y-96270000D01*
X135896428Y-97198571D02*
X135896428Y-96198571D01*
X135896428Y-95698571D02*
X135967857Y-95770000D01*
X135896428Y-95841428D01*
X135825000Y-95770000D01*
X135896428Y-95698571D01*
X135896428Y-95841428D01*
X134967857Y-97198571D02*
X135110714Y-97127142D01*
X135182142Y-97055714D01*
X135253571Y-96912857D01*
X135253571Y-96484285D01*
X135182142Y-96341428D01*
X135110714Y-96270000D01*
X134967857Y-96198571D01*
X134753571Y-96198571D01*
X134610714Y-96270000D01*
X134539285Y-96341428D01*
X134467857Y-96484285D01*
X134467857Y-96912857D01*
X134539285Y-97055714D01*
X134610714Y-97127142D01*
X134753571Y-97198571D01*
X134967857Y-97198571D01*
X133825000Y-96198571D02*
X133825000Y-97198571D01*
X133825000Y-96341428D02*
X133753571Y-96270000D01*
X133610714Y-96198571D01*
X133396428Y-96198571D01*
X133253571Y-96270000D01*
X133182142Y-96412857D01*
X133182142Y-97198571D01*
X131039285Y-95698571D02*
X130896428Y-95698571D01*
X130753571Y-95770000D01*
X130682142Y-95841428D01*
X130610714Y-95984285D01*
X130539285Y-96270000D01*
X130539285Y-96627142D01*
X130610714Y-96912857D01*
X130682142Y-97055714D01*
X130753571Y-97127142D01*
X130896428Y-97198571D01*
X131039285Y-97198571D01*
X131182142Y-97127142D01*
X131253571Y-97055714D01*
X131325000Y-96912857D01*
X131396428Y-96627142D01*
X131396428Y-96270000D01*
X131325000Y-95984285D01*
X131253571Y-95841428D01*
X131182142Y-95770000D01*
X131039285Y-95698571D01*
X129896428Y-97055714D02*
X129825000Y-97127142D01*
X129896428Y-97198571D01*
X129967857Y-97127142D01*
X129896428Y-97055714D01*
X129896428Y-97198571D01*
X128396428Y-97198571D02*
X129253571Y-97198571D01*
X128825000Y-97198571D02*
X128825000Y-95698571D01*
X128967857Y-95912857D01*
X129110714Y-96055714D01*
X129253571Y-96127142D01*
X126682142Y-95841428D02*
X126610714Y-95770000D01*
X126467857Y-95698571D01*
X126110714Y-95698571D01*
X125967857Y-95770000D01*
X125896428Y-95841428D01*
X125825000Y-95984285D01*
X125825000Y-96127142D01*
X125896428Y-96341428D01*
X126753571Y-97198571D01*
X125825000Y-97198571D01*
X124896428Y-95698571D02*
X124753571Y-95698571D01*
X124610714Y-95770000D01*
X124539285Y-95841428D01*
X124467857Y-95984285D01*
X124396428Y-96270000D01*
X124396428Y-96627142D01*
X124467857Y-96912857D01*
X124539285Y-97055714D01*
X124610714Y-97127142D01*
X124753571Y-97198571D01*
X124896428Y-97198571D01*
X125039285Y-97127142D01*
X125110714Y-97055714D01*
X125182142Y-96912857D01*
X125253571Y-96627142D01*
X125253571Y-96270000D01*
X125182142Y-95984285D01*
X125110714Y-95841428D01*
X125039285Y-95770000D01*
X124896428Y-95698571D01*
X123825000Y-95841428D02*
X123753571Y-95770000D01*
X123610714Y-95698571D01*
X123253571Y-95698571D01*
X123110714Y-95770000D01*
X123039285Y-95841428D01*
X122967857Y-95984285D01*
X122967857Y-96127142D01*
X123039285Y-96341428D01*
X123896428Y-97198571D01*
X122967857Y-97198571D01*
X122467857Y-95698571D02*
X121539285Y-95698571D01*
X122039285Y-96270000D01*
X121825000Y-96270000D01*
X121682142Y-96341428D01*
X121610714Y-96412857D01*
X121539285Y-96555714D01*
X121539285Y-96912857D01*
X121610714Y-97055714D01*
X121682142Y-97127142D01*
X121825000Y-97198571D01*
X122253571Y-97198571D01*
X122396428Y-97127142D01*
X122467857Y-97055714D01*
X120896428Y-96627142D02*
X119753571Y-96627142D01*
X118753571Y-95698571D02*
X118610714Y-95698571D01*
X118467857Y-95770000D01*
X118396428Y-95841428D01*
X118325000Y-95984285D01*
X118253571Y-96270000D01*
X118253571Y-96627142D01*
X118325000Y-96912857D01*
X118396428Y-97055714D01*
X118467857Y-97127142D01*
X118610714Y-97198571D01*
X118753571Y-97198571D01*
X118896428Y-97127142D01*
X118967857Y-97055714D01*
X119039285Y-96912857D01*
X119110714Y-96627142D01*
X119110714Y-96270000D01*
X119039285Y-95984285D01*
X118967857Y-95841428D01*
X118896428Y-95770000D01*
X118753571Y-95698571D01*
X117682142Y-95841428D02*
X117610714Y-95770000D01*
X117467857Y-95698571D01*
X117110714Y-95698571D01*
X116967857Y-95770000D01*
X116896428Y-95841428D01*
X116825000Y-95984285D01*
X116825000Y-96127142D01*
X116896428Y-96341428D01*
X117753571Y-97198571D01*
X116825000Y-97198571D01*
X116182142Y-96627142D02*
X115039285Y-96627142D01*
X114396428Y-95841428D02*
X114325000Y-95770000D01*
X114182142Y-95698571D01*
X113825000Y-95698571D01*
X113682142Y-95770000D01*
X113610714Y-95841428D01*
X113539285Y-95984285D01*
X113539285Y-96127142D01*
X113610714Y-96341428D01*
X114467857Y-97198571D01*
X113539285Y-97198571D01*
X112110714Y-97198571D02*
X112967857Y-97198571D01*
X112539285Y-97198571D02*
X112539285Y-95698571D01*
X112682142Y-95912857D01*
X112825000Y-96055714D01*
X112967857Y-96127142D01*
G36*
X145809683Y-109192886D02*
G01*
X145964402Y-109568370D01*
X146194816Y-109902789D01*
X146490565Y-110181104D01*
X146838349Y-110390801D01*
X147222530Y-110522449D01*
X147625833Y-110570130D01*
X147799692Y-111615596D01*
X147111907Y-111494624D01*
X146462889Y-111236827D01*
X145879554Y-110852895D01*
X145386093Y-110358750D01*
X145002968Y-109774885D01*
X144746069Y-109125511D01*
X143801671Y-103747967D01*
X144851438Y-103747915D01*
X145809683Y-109192886D01*
G37*
G36*
X137335247Y-105313386D02*
G01*
X139697877Y-108431322D01*
X140029357Y-108707010D01*
X140415656Y-108898467D01*
X140835785Y-108995291D01*
X138954772Y-108995022D01*
X138621990Y-108958913D01*
X138305105Y-108851061D01*
X138019390Y-108676662D01*
X137778614Y-108444123D01*
X136614696Y-106907023D01*
X135388227Y-105234076D01*
X136018789Y-103610862D01*
X136791659Y-101621316D01*
X138720171Y-101619575D01*
X137335247Y-105313386D01*
G37*
G36*
X142602682Y-102096681D02*
G01*
X142749040Y-102149581D01*
X142879425Y-102234543D01*
X142986930Y-102347067D01*
X143065858Y-102481189D01*
X143099674Y-102569063D01*
X143115697Y-102661846D01*
X143113310Y-102755972D01*
X143092607Y-102847823D01*
X143054382Y-102933871D01*
X143000104Y-103010808D01*
X142931860Y-103075678D01*
X142852272Y-103125987D01*
X142852271Y-103125987D01*
X142730919Y-103152664D01*
X142606683Y-103154546D01*
X142484577Y-103131559D01*
X142369530Y-103084629D01*
X142266185Y-103015652D01*
X142178712Y-102927410D01*
X142110642Y-102823465D01*
X142110643Y-102823465D01*
X142056407Y-102732285D01*
X142023821Y-102631322D01*
X142014518Y-102525639D01*
X142028964Y-102420537D01*
X142066437Y-102321284D01*
X142125055Y-102232857D01*
X142201881Y-102159692D01*
X142320238Y-102104724D01*
X142448105Y-102078648D01*
X142602682Y-102096681D01*
G37*
G36*
X133767452Y-101617568D02*
G01*
X134085186Y-101630538D01*
X134393327Y-101709102D01*
X134678484Y-101849847D01*
X134928263Y-102046656D01*
X136018789Y-103610862D01*
X135388227Y-105234076D01*
X133105806Y-102155173D01*
X132859189Y-101924788D01*
X132568593Y-101753176D01*
X132247764Y-101648455D01*
X131911882Y-101615580D01*
X133767452Y-101617568D01*
G37*
G36*
X136614696Y-106907023D02*
G01*
X135739792Y-108995598D01*
X133927096Y-108995368D01*
X135388227Y-105234076D01*
X136614696Y-106907023D01*
G37*
G36*
X141251933Y-102078843D02*
G01*
X142468676Y-108995547D01*
X141420036Y-108995521D01*
X140578240Y-104211460D01*
X139188094Y-104209411D01*
X138999813Y-103128738D01*
X140386810Y-103128149D01*
X140203779Y-102078766D01*
X141251933Y-102078843D01*
G37*
G36*
X143595646Y-103750781D02*
G01*
X143506089Y-103773308D01*
X143423686Y-103814994D01*
X143352478Y-103873793D01*
X143295957Y-103946822D01*
X143256895Y-104030501D01*
X143237208Y-104120725D01*
X143237861Y-104213069D01*
X143989337Y-108573894D01*
X143984185Y-108653338D01*
X143963634Y-108730250D01*
X143928473Y-108801675D01*
X143880053Y-108864869D01*
X143820236Y-108917402D01*
X143751318Y-108957255D01*
X143675950Y-108982898D01*
X143597028Y-108993345D01*
X142690756Y-108991475D01*
X142777723Y-108968137D01*
X142857317Y-108926032D01*
X142925545Y-108867271D01*
X142978987Y-108794801D01*
X143014964Y-108712256D01*
X143031670Y-108623775D01*
X143028269Y-108533795D01*
X142282419Y-104223239D01*
X142282046Y-104127452D01*
X142302997Y-104033983D01*
X142344222Y-103947521D01*
X142403652Y-103872399D01*
X142478309Y-103812386D01*
X142564448Y-103770490D01*
X142657751Y-103748812D01*
X143595646Y-103750781D01*
G37*
%TD*%
%LPC*%
%TO.C,*%
G36*
X110810917Y-125235547D02*
G01*
X111157964Y-125340823D01*
X111477805Y-125511781D01*
X111758148Y-125741852D01*
X111988219Y-126022195D01*
X112159177Y-126342036D01*
X112264453Y-126689083D01*
X112300000Y-127050000D01*
X112264453Y-127410917D01*
X112159177Y-127757964D01*
X111988219Y-128077805D01*
X111758148Y-128358148D01*
X111477805Y-128588219D01*
X111157964Y-128759177D01*
X110810917Y-128864453D01*
X110450000Y-128900000D01*
X110089083Y-128864453D01*
X109742036Y-128759177D01*
X109422195Y-128588219D01*
X109141852Y-128358148D01*
X108911781Y-128077805D01*
X108740823Y-127757964D01*
X108635547Y-127410917D01*
X108600000Y-127050000D01*
X108635547Y-126689083D01*
X108740823Y-126342036D01*
X108911781Y-126022195D01*
X109141852Y-125741852D01*
X109422195Y-125511781D01*
X109742036Y-125340823D01*
X110089083Y-125235547D01*
X110450000Y-125200000D01*
X110810917Y-125235547D01*
G37*
G36*
X168910917Y-125235547D02*
G01*
X169257964Y-125340823D01*
X169577805Y-125511781D01*
X169858148Y-125741852D01*
X170088219Y-126022195D01*
X170259177Y-126342036D01*
X170364453Y-126689083D01*
X170400000Y-127050000D01*
X170364453Y-127410917D01*
X170259177Y-127757964D01*
X170088219Y-128077805D01*
X169858148Y-128358148D01*
X169577805Y-128588219D01*
X169257964Y-128759177D01*
X168910917Y-128864453D01*
X168550000Y-128900000D01*
X168189083Y-128864453D01*
X167842036Y-128759177D01*
X167522195Y-128588219D01*
X167241852Y-128358148D01*
X167011781Y-128077805D01*
X166840823Y-127757964D01*
X166735547Y-127410917D01*
X166700000Y-127050000D01*
X166735547Y-126689083D01*
X166840823Y-126342036D01*
X167011781Y-126022195D01*
X167241852Y-125741852D01*
X167522195Y-125511781D01*
X167842036Y-125340823D01*
X168189083Y-125235547D01*
X168550000Y-125200000D01*
X168910917Y-125235547D01*
G37*
%TO.C,J2*%
G36*
X167858356Y-117463096D02*
G01*
X167961535Y-117494395D01*
X168056625Y-117545221D01*
X168139972Y-117613622D01*
X168208373Y-117696969D01*
X168259199Y-117792059D01*
X168290498Y-117895238D01*
X168301067Y-118002540D01*
X168290498Y-118109842D01*
X168259199Y-118213021D01*
X168208373Y-118308111D01*
X168139972Y-118391458D01*
X168056625Y-118459859D01*
X167961535Y-118510685D01*
X167858356Y-118541984D01*
X167751054Y-118552553D01*
X167643752Y-118541984D01*
X167540573Y-118510685D01*
X167445483Y-118459859D01*
X167362136Y-118391458D01*
X167293735Y-118308111D01*
X167242909Y-118213021D01*
X167211610Y-118109842D01*
X167201042Y-118002540D01*
X167211610Y-117895238D01*
X167242909Y-117792059D01*
X167293735Y-117696969D01*
X167362136Y-117613622D01*
X167445483Y-117545221D01*
X167540573Y-117494395D01*
X167643752Y-117463096D01*
X167751054Y-117452527D01*
X167858356Y-117463096D01*
G37*
G36*
X160324087Y-117632199D02*
G01*
X160394436Y-117653539D01*
X160459269Y-117688193D01*
X160516097Y-117734830D01*
X160562734Y-117791658D01*
X160597388Y-117856491D01*
X160618728Y-117926840D01*
X160625933Y-118000000D01*
X160618728Y-118073160D01*
X160597388Y-118143509D01*
X160562734Y-118208342D01*
X160516097Y-118265170D01*
X160459269Y-118311807D01*
X160394436Y-118346461D01*
X160324087Y-118367801D01*
X160250927Y-118375007D01*
X160177767Y-118367801D01*
X160107418Y-118346461D01*
X160042585Y-118311807D01*
X159985757Y-118265170D01*
X159939120Y-118208342D01*
X159904466Y-118143509D01*
X159883126Y-118073160D01*
X159875921Y-118000000D01*
X159883126Y-117926840D01*
X159904466Y-117856491D01*
X159939120Y-117791658D01*
X159985757Y-117734830D01*
X160042585Y-117688193D01*
X160107418Y-117653539D01*
X160177767Y-117632199D01*
X160250927Y-117624993D01*
X160324087Y-117632199D01*
G37*
%TO.C,J1*%
G36*
X111324087Y-117632199D02*
G01*
X111394436Y-117653539D01*
X111459269Y-117688193D01*
X111516097Y-117734830D01*
X111562734Y-117791658D01*
X111597388Y-117856491D01*
X111618728Y-117926840D01*
X111625933Y-118000000D01*
X111618728Y-118073160D01*
X111597388Y-118143509D01*
X111562734Y-118208342D01*
X111516097Y-118265170D01*
X111459269Y-118311807D01*
X111394436Y-118346461D01*
X111324087Y-118367801D01*
X111250927Y-118375007D01*
X111177767Y-118367801D01*
X111107418Y-118346461D01*
X111042585Y-118311807D01*
X110985757Y-118265170D01*
X110939120Y-118208342D01*
X110904466Y-118143509D01*
X110883126Y-118073160D01*
X110875921Y-118000000D01*
X110883126Y-117926840D01*
X110904466Y-117856491D01*
X110939120Y-117791658D01*
X110985757Y-117734830D01*
X111042585Y-117688193D01*
X111107418Y-117653539D01*
X111177767Y-117632199D01*
X111250927Y-117624993D01*
X111324087Y-117632199D01*
G37*
G36*
X118858356Y-117463096D02*
G01*
X118961535Y-117494395D01*
X119056625Y-117545221D01*
X119139972Y-117613622D01*
X119208373Y-117696969D01*
X119259199Y-117792059D01*
X119290498Y-117895238D01*
X119301067Y-118002540D01*
X119290498Y-118109842D01*
X119259199Y-118213021D01*
X119208373Y-118308111D01*
X119139972Y-118391458D01*
X119056625Y-118459859D01*
X118961535Y-118510685D01*
X118858356Y-118541984D01*
X118751054Y-118552553D01*
X118643752Y-118541984D01*
X118540573Y-118510685D01*
X118445483Y-118459859D01*
X118362136Y-118391458D01*
X118293735Y-118308111D01*
X118242909Y-118213021D01*
X118211610Y-118109842D01*
X118201042Y-118002540D01*
X118211610Y-117895238D01*
X118242909Y-117792059D01*
X118293735Y-117696969D01*
X118362136Y-117613622D01*
X118445483Y-117545221D01*
X118540573Y-117494395D01*
X118643752Y-117463096D01*
X118751054Y-117452527D01*
X118858356Y-117463096D01*
G37*
%TO.C,*%
G36*
X110810917Y-87135547D02*
G01*
X111157964Y-87240823D01*
X111477805Y-87411781D01*
X111758148Y-87641852D01*
X111988219Y-87922195D01*
X112159177Y-88242036D01*
X112264453Y-88589083D01*
X112300000Y-88950000D01*
X112264453Y-89310917D01*
X112159177Y-89657964D01*
X111988219Y-89977805D01*
X111758148Y-90258148D01*
X111477805Y-90488219D01*
X111157964Y-90659177D01*
X110810917Y-90764453D01*
X110450000Y-90800000D01*
X110089083Y-90764453D01*
X109742036Y-90659177D01*
X109422195Y-90488219D01*
X109141852Y-90258148D01*
X108911781Y-89977805D01*
X108740823Y-89657964D01*
X108635547Y-89310917D01*
X108600000Y-88950000D01*
X108635547Y-88589083D01*
X108740823Y-88242036D01*
X108911781Y-87922195D01*
X109141852Y-87641852D01*
X109422195Y-87411781D01*
X109742036Y-87240823D01*
X110089083Y-87135547D01*
X110450000Y-87100000D01*
X110810917Y-87135547D01*
G37*
G36*
X168910917Y-87135547D02*
G01*
X169257964Y-87240823D01*
X169577805Y-87411781D01*
X169858148Y-87641852D01*
X170088219Y-87922195D01*
X170259177Y-88242036D01*
X170364453Y-88589083D01*
X170400000Y-88950000D01*
X170364453Y-89310917D01*
X170259177Y-89657964D01*
X170088219Y-89977805D01*
X169858148Y-90258148D01*
X169577805Y-90488219D01*
X169257964Y-90659177D01*
X168910917Y-90764453D01*
X168550000Y-90800000D01*
X168189083Y-90764453D01*
X167842036Y-90659177D01*
X167522195Y-90488219D01*
X167241852Y-90258148D01*
X167011781Y-89977805D01*
X166840823Y-89657964D01*
X166735547Y-89310917D01*
X166700000Y-88950000D01*
X166735547Y-88589083D01*
X166840823Y-88242036D01*
X167011781Y-87922195D01*
X167241852Y-87641852D01*
X167522195Y-87411781D01*
X167842036Y-87240823D01*
X168189083Y-87135547D01*
X168550000Y-87100000D01*
X168910917Y-87135547D01*
G37*
%TD*%
D11*
%TO.C,*%
X110450000Y-127050000D03*
%TD*%
%TO.C,*%
X168550000Y-127050000D03*
%TD*%
D12*
%TO.C,J2*%
X160250927Y-118000000D03*
D13*
X167751054Y-118002540D03*
D14*
X166401041Y-115849886D03*
X161600940Y-115849886D03*
X161600940Y-120150114D03*
X166401041Y-120150114D03*
%TD*%
D13*
%TO.C,J1*%
X118751054Y-118002540D03*
D12*
X111250927Y-118000000D03*
D14*
X117401041Y-115849886D03*
X112600940Y-115849886D03*
X112600940Y-120150114D03*
X117401041Y-120150114D03*
%TD*%
D11*
%TO.C,*%
X110450000Y-88950000D03*
%TD*%
%TO.C,*%
X168550000Y-88950000D03*
%TD*%
M02*
