%TF.GenerationSoftware,KiCad,Pcbnew,6.0.10-86aedd382b~118~ubuntu20.04.1*%
%TF.CreationDate,2023-02-21T15:58:45-08:00*%
%TF.ProjectId,CAD,4341442e-6b69-4636-9164-5f7063625858,rev?*%
%TF.SameCoordinates,Original*%
%TF.FileFunction,Soldermask,Top*%
%TF.FilePolarity,Negative*%
%FSLAX46Y46*%
G04 Gerber Fmt 4.6, Leading zero omitted, Abs format (unit mm)*
G04 Created by KiCad (PCBNEW 6.0.10-86aedd382b~118~ubuntu20.04.1) date 2023-02-21 15:58:45*
%MOMM*%
%LPD*%
G01*
G04 APERTURE LIST*
G04 Aperture macros list*
%AMRoundRect*
0 Rectangle with rounded corners*
0 $1 Rounding radius*
0 $2 $3 $4 $5 $6 $7 $8 $9 X,Y pos of 4 corners*
0 Add a 4 corners polygon primitive as box body*
4,1,4,$2,$3,$4,$5,$6,$7,$8,$9,$2,$3,0*
0 Add four circle primitives for the rounded corners*
1,1,$1+$1,$2,$3*
1,1,$1+$1,$4,$5*
1,1,$1+$1,$6,$7*
1,1,$1+$1,$8,$9*
0 Add four rect primitives between the rounded corners*
20,1,$1+$1,$2,$3,$4,$5,0*
20,1,$1+$1,$4,$5,$6,$7,0*
20,1,$1+$1,$6,$7,$8,$9,0*
20,1,$1+$1,$8,$9,$2,$3,0*%
G04 Aperture macros list end*
%ADD10C,2.402000*%
%ADD11C,0.852013*%
%ADD12C,1.202025*%
%ADD13C,1.102000*%
%ADD14RoundRect,0.051000X-0.150000X-0.475006X0.150000X-0.475006X0.150000X0.475006X-0.150000X0.475006X0*%
%ADD15RoundRect,0.051000X0.150000X0.475006X-0.150000X0.475006X-0.150000X-0.475006X0.150000X-0.475006X0*%
G04 APERTURE END LIST*
%TO.C,LED3*%
G36*
X123787132Y-122139286D02*
G01*
X123175000Y-122139286D01*
X123175000Y-121089286D01*
X123787132Y-121089286D01*
X123787132Y-122139286D01*
G37*
G36*
X125225000Y-122139286D02*
G01*
X124612868Y-122139286D01*
X124612868Y-121089286D01*
X125225000Y-121089286D01*
X125225000Y-122139286D01*
G37*
%TO.C,R7*%
G36*
X134700000Y-115564286D02*
G01*
X134219722Y-115564286D01*
X134219722Y-114864286D01*
X134700000Y-114864286D01*
X134700000Y-115564286D01*
G37*
G36*
X133780278Y-115564286D02*
G01*
X133300000Y-115564286D01*
X133300000Y-114864286D01*
X133780278Y-114864286D01*
X133780278Y-115564286D01*
G37*
%TO.C,R11*%
G36*
X142300000Y-109164286D02*
G01*
X141819722Y-109164286D01*
X141819722Y-108464286D01*
X142300000Y-108464286D01*
X142300000Y-109164286D01*
G37*
G36*
X141380278Y-109164286D02*
G01*
X140900000Y-109164286D01*
X140900000Y-108464286D01*
X141380278Y-108464286D01*
X141380278Y-109164286D01*
G37*
%TO.C,R16*%
G36*
X150880278Y-101164286D02*
G01*
X150400000Y-101164286D01*
X150400000Y-100464286D01*
X150880278Y-100464286D01*
X150880278Y-101164286D01*
G37*
G36*
X151800000Y-101164286D02*
G01*
X151319722Y-101164286D01*
X151319722Y-100464286D01*
X151800000Y-100464286D01*
X151800000Y-101164286D01*
G37*
%TO.C,*%
G36*
X155404845Y-101384461D02*
G01*
X155601818Y-101444212D01*
X155783349Y-101541243D01*
X155942462Y-101671824D01*
X156073043Y-101830937D01*
X156170074Y-102012468D01*
X156229825Y-102209441D01*
X156250000Y-102414286D01*
X156229825Y-102619131D01*
X156170074Y-102816104D01*
X156073043Y-102997635D01*
X155942462Y-103156748D01*
X155783349Y-103287329D01*
X155601818Y-103384360D01*
X155404845Y-103444111D01*
X155200000Y-103464286D01*
X154995155Y-103444111D01*
X154798182Y-103384360D01*
X154616651Y-103287329D01*
X154457538Y-103156748D01*
X154326957Y-102997635D01*
X154229926Y-102816104D01*
X154170175Y-102619131D01*
X154150000Y-102414286D01*
X154170175Y-102209441D01*
X154229926Y-102012468D01*
X154326957Y-101830937D01*
X154457538Y-101671824D01*
X154616651Y-101541243D01*
X154798182Y-101444212D01*
X154995155Y-101384461D01*
X155200000Y-101364286D01*
X155404845Y-101384461D01*
G37*
%TO.C,LED1*%
G36*
X121425000Y-125339286D02*
G01*
X120812868Y-125339286D01*
X120812868Y-124289286D01*
X121425000Y-124289286D01*
X121425000Y-125339286D01*
G37*
G36*
X119987132Y-125339286D02*
G01*
X119375000Y-125339286D01*
X119375000Y-124289286D01*
X119987132Y-124289286D01*
X119987132Y-125339286D01*
G37*
%TO.C,R1*%
G36*
X123300000Y-125164286D02*
G01*
X122819722Y-125164286D01*
X122819722Y-124464286D01*
X123300000Y-124464286D01*
X123300000Y-125164286D01*
G37*
G36*
X122380278Y-125164286D02*
G01*
X121900000Y-125164286D01*
X121900000Y-124464286D01*
X122380278Y-124464286D01*
X122380278Y-125164286D01*
G37*
%TO.C,*%
G36*
X130704845Y-122184461D02*
G01*
X130901818Y-122244212D01*
X131083349Y-122341243D01*
X131242462Y-122471824D01*
X131373043Y-122630937D01*
X131470074Y-122812468D01*
X131529825Y-123009441D01*
X131550000Y-123214286D01*
X131529825Y-123419131D01*
X131470074Y-123616104D01*
X131373043Y-123797635D01*
X131242462Y-123956748D01*
X131083349Y-124087329D01*
X130901818Y-124184360D01*
X130704845Y-124244111D01*
X130500000Y-124264286D01*
X130295155Y-124244111D01*
X130098182Y-124184360D01*
X129916651Y-124087329D01*
X129757538Y-123956748D01*
X129626957Y-123797635D01*
X129529926Y-123616104D01*
X129470175Y-123419131D01*
X129450000Y-123214286D01*
X129470175Y-123009441D01*
X129529926Y-122812468D01*
X129626957Y-122630937D01*
X129757538Y-122471824D01*
X129916651Y-122341243D01*
X130098182Y-122244212D01*
X130295155Y-122184461D01*
X130500000Y-122164286D01*
X130704845Y-122184461D01*
G37*
G36*
X153504845Y-102984461D02*
G01*
X153701818Y-103044212D01*
X153883349Y-103141243D01*
X154042462Y-103271824D01*
X154173043Y-103430937D01*
X154270074Y-103612468D01*
X154329825Y-103809441D01*
X154350000Y-104014286D01*
X154329825Y-104219131D01*
X154270074Y-104416104D01*
X154173043Y-104597635D01*
X154042462Y-104756748D01*
X153883349Y-104887329D01*
X153701818Y-104984360D01*
X153504845Y-105044111D01*
X153300000Y-105064286D01*
X153095155Y-105044111D01*
X152898182Y-104984360D01*
X152716651Y-104887329D01*
X152557538Y-104756748D01*
X152426957Y-104597635D01*
X152329926Y-104416104D01*
X152270175Y-104219131D01*
X152250000Y-104014286D01*
X152270175Y-103809441D01*
X152329926Y-103612468D01*
X152426957Y-103430937D01*
X152557538Y-103271824D01*
X152716651Y-103141243D01*
X152898182Y-103044212D01*
X153095155Y-102984461D01*
X153300000Y-102964286D01*
X153504845Y-102984461D01*
G37*
%TO.C,R5*%
G36*
X129980278Y-118764286D02*
G01*
X129500000Y-118764286D01*
X129500000Y-118064286D01*
X129980278Y-118064286D01*
X129980278Y-118764286D01*
G37*
G36*
X130900000Y-118764286D02*
G01*
X130419722Y-118764286D01*
X130419722Y-118064286D01*
X130900000Y-118064286D01*
X130900000Y-118764286D01*
G37*
%TO.C,LED7*%
G36*
X132825000Y-115739286D02*
G01*
X132212868Y-115739286D01*
X132212868Y-114689286D01*
X132825000Y-114689286D01*
X132825000Y-115739286D01*
G37*
G36*
X131387132Y-115739286D02*
G01*
X130775000Y-115739286D01*
X130775000Y-114689286D01*
X131387132Y-114689286D01*
X131387132Y-115739286D01*
G37*
%TO.C,LED15*%
G36*
X146587132Y-102939286D02*
G01*
X145975000Y-102939286D01*
X145975000Y-101889286D01*
X146587132Y-101889286D01*
X146587132Y-102939286D01*
G37*
G36*
X148025000Y-102939286D02*
G01*
X147412868Y-102939286D01*
X147412868Y-101889286D01*
X148025000Y-101889286D01*
X148025000Y-102939286D01*
G37*
%TO.C,*%
G36*
X136404845Y-117384461D02*
G01*
X136601818Y-117444212D01*
X136783349Y-117541243D01*
X136942462Y-117671824D01*
X137073043Y-117830937D01*
X137170074Y-118012468D01*
X137229825Y-118209441D01*
X137250000Y-118414286D01*
X137229825Y-118619131D01*
X137170074Y-118816104D01*
X137073043Y-118997635D01*
X136942462Y-119156748D01*
X136783349Y-119287329D01*
X136601818Y-119384360D01*
X136404845Y-119444111D01*
X136200000Y-119464286D01*
X135995155Y-119444111D01*
X135798182Y-119384360D01*
X135616651Y-119287329D01*
X135457538Y-119156748D01*
X135326957Y-118997635D01*
X135229926Y-118816104D01*
X135170175Y-118619131D01*
X135150000Y-118414286D01*
X135170175Y-118209441D01*
X135229926Y-118012468D01*
X135326957Y-117830937D01*
X135457538Y-117671824D01*
X135616651Y-117541243D01*
X135798182Y-117444212D01*
X135995155Y-117384461D01*
X136200000Y-117364286D01*
X136404845Y-117384461D01*
G37*
G36*
X149704845Y-106184461D02*
G01*
X149901818Y-106244212D01*
X150083349Y-106341243D01*
X150242462Y-106471824D01*
X150373043Y-106630937D01*
X150470074Y-106812468D01*
X150529825Y-107009441D01*
X150550000Y-107214286D01*
X150529825Y-107419131D01*
X150470074Y-107616104D01*
X150373043Y-107797635D01*
X150242462Y-107956748D01*
X150083349Y-108087329D01*
X149901818Y-108184360D01*
X149704845Y-108244111D01*
X149500000Y-108264286D01*
X149295155Y-108244111D01*
X149098182Y-108184360D01*
X148916651Y-108087329D01*
X148757538Y-107956748D01*
X148626957Y-107797635D01*
X148529926Y-107616104D01*
X148470175Y-107419131D01*
X148450000Y-107214286D01*
X148470175Y-107009441D01*
X148529926Y-106812468D01*
X148626957Y-106630937D01*
X148757538Y-106471824D01*
X148916651Y-106341243D01*
X149098182Y-106244212D01*
X149295155Y-106184461D01*
X149500000Y-106164286D01*
X149704845Y-106184461D01*
G37*
%TO.C,R14*%
G36*
X147080278Y-104364286D02*
G01*
X146600000Y-104364286D01*
X146600000Y-103664286D01*
X147080278Y-103664286D01*
X147080278Y-104364286D01*
G37*
G36*
X148000000Y-104364286D02*
G01*
X147519722Y-104364286D01*
X147519722Y-103664286D01*
X148000000Y-103664286D01*
X148000000Y-104364286D01*
G37*
%TO.C,*%
G36*
X159204845Y-98184461D02*
G01*
X159401818Y-98244212D01*
X159583349Y-98341243D01*
X159742462Y-98471824D01*
X159873043Y-98630937D01*
X159970074Y-98812468D01*
X160029825Y-99009441D01*
X160050000Y-99214286D01*
X160029825Y-99419131D01*
X159970074Y-99616104D01*
X159873043Y-99797635D01*
X159742462Y-99956748D01*
X159583349Y-100087329D01*
X159401818Y-100184360D01*
X159204845Y-100244111D01*
X159000000Y-100264286D01*
X158795155Y-100244111D01*
X158598182Y-100184360D01*
X158416651Y-100087329D01*
X158257538Y-99956748D01*
X158126957Y-99797635D01*
X158029926Y-99616104D01*
X157970175Y-99419131D01*
X157950000Y-99214286D01*
X157970175Y-99009441D01*
X158029926Y-98812468D01*
X158126957Y-98630937D01*
X158257538Y-98471824D01*
X158416651Y-98341243D01*
X158598182Y-98244212D01*
X158795155Y-98184461D01*
X159000000Y-98164286D01*
X159204845Y-98184461D01*
G37*
%TO.C,LED5*%
G36*
X127587132Y-118939286D02*
G01*
X126975000Y-118939286D01*
X126975000Y-117889286D01*
X127587132Y-117889286D01*
X127587132Y-118939286D01*
G37*
G36*
X129025000Y-118939286D02*
G01*
X128412868Y-118939286D01*
X128412868Y-117889286D01*
X129025000Y-117889286D01*
X129025000Y-118939286D01*
G37*
%TO.C,LED4*%
G36*
X127125000Y-120539286D02*
G01*
X126512868Y-120539286D01*
X126512868Y-119489286D01*
X127125000Y-119489286D01*
X127125000Y-120539286D01*
G37*
G36*
X125687132Y-120539286D02*
G01*
X125075000Y-120539286D01*
X125075000Y-119489286D01*
X125687132Y-119489286D01*
X125687132Y-120539286D01*
G37*
%TO.C,*%
G36*
X140204845Y-114184461D02*
G01*
X140401818Y-114244212D01*
X140583349Y-114341243D01*
X140742462Y-114471824D01*
X140873043Y-114630937D01*
X140970074Y-114812468D01*
X141029825Y-115009441D01*
X141050000Y-115214286D01*
X141029825Y-115419131D01*
X140970074Y-115616104D01*
X140873043Y-115797635D01*
X140742462Y-115956748D01*
X140583349Y-116087329D01*
X140401818Y-116184360D01*
X140204845Y-116244111D01*
X140000000Y-116264286D01*
X139795155Y-116244111D01*
X139598182Y-116184360D01*
X139416651Y-116087329D01*
X139257538Y-115956748D01*
X139126957Y-115797635D01*
X139029926Y-115616104D01*
X138970175Y-115419131D01*
X138950000Y-115214286D01*
X138970175Y-115009441D01*
X139029926Y-114812468D01*
X139126957Y-114630937D01*
X139257538Y-114471824D01*
X139416651Y-114341243D01*
X139598182Y-114244212D01*
X139795155Y-114184461D01*
X140000000Y-114164286D01*
X140204845Y-114184461D01*
G37*
%TO.C,LED13*%
G36*
X142787132Y-106139286D02*
G01*
X142175000Y-106139286D01*
X142175000Y-105089286D01*
X142787132Y-105089286D01*
X142787132Y-106139286D01*
G37*
G36*
X144225000Y-106139286D02*
G01*
X143612868Y-106139286D01*
X143612868Y-105089286D01*
X144225000Y-105089286D01*
X144225000Y-106139286D01*
G37*
%TO.C,LED2*%
G36*
X123325000Y-123739286D02*
G01*
X122712868Y-123739286D01*
X122712868Y-122689286D01*
X123325000Y-122689286D01*
X123325000Y-123739286D01*
G37*
G36*
X121887132Y-123739286D02*
G01*
X121275000Y-123739286D01*
X121275000Y-122689286D01*
X121887132Y-122689286D01*
X121887132Y-123739286D01*
G37*
%TO.C,LED9*%
G36*
X135187132Y-112539286D02*
G01*
X134575000Y-112539286D01*
X134575000Y-111489286D01*
X135187132Y-111489286D01*
X135187132Y-112539286D01*
G37*
G36*
X136625000Y-112539286D02*
G01*
X136012868Y-112539286D01*
X136012868Y-111489286D01*
X136625000Y-111489286D01*
X136625000Y-112539286D01*
G37*
%TO.C,R2*%
G36*
X124280278Y-123564286D02*
G01*
X123800000Y-123564286D01*
X123800000Y-122864286D01*
X124280278Y-122864286D01*
X124280278Y-123564286D01*
G37*
G36*
X125200000Y-123564286D02*
G01*
X124719722Y-123564286D01*
X124719722Y-122864286D01*
X125200000Y-122864286D01*
X125200000Y-123564286D01*
G37*
%TO.C,*%
G36*
X161104845Y-96584461D02*
G01*
X161301818Y-96644212D01*
X161483349Y-96741243D01*
X161642462Y-96871824D01*
X161773043Y-97030937D01*
X161870074Y-97212468D01*
X161929825Y-97409441D01*
X161950000Y-97614286D01*
X161929825Y-97819131D01*
X161870074Y-98016104D01*
X161773043Y-98197635D01*
X161642462Y-98356748D01*
X161483349Y-98487329D01*
X161301818Y-98584360D01*
X161104845Y-98644111D01*
X160900000Y-98664286D01*
X160695155Y-98644111D01*
X160498182Y-98584360D01*
X160316651Y-98487329D01*
X160157538Y-98356748D01*
X160026957Y-98197635D01*
X159929926Y-98016104D01*
X159870175Y-97819131D01*
X159850000Y-97614286D01*
X159870175Y-97409441D01*
X159929926Y-97212468D01*
X160026957Y-97030937D01*
X160157538Y-96871824D01*
X160316651Y-96741243D01*
X160498182Y-96644212D01*
X160695155Y-96584461D01*
X160900000Y-96564286D01*
X161104845Y-96584461D01*
G37*
%TO.C,LED16*%
G36*
X148487132Y-101339286D02*
G01*
X147875000Y-101339286D01*
X147875000Y-100289286D01*
X148487132Y-100289286D01*
X148487132Y-101339286D01*
G37*
G36*
X149925000Y-101339286D02*
G01*
X149312868Y-101339286D01*
X149312868Y-100289286D01*
X149925000Y-100289286D01*
X149925000Y-101339286D01*
G37*
%TO.C,B1*%
G36*
X116082000Y-96892000D02*
G01*
X112982000Y-96892000D01*
X112982000Y-92592000D01*
X116082000Y-92592000D01*
X116082000Y-96892000D01*
G37*
G36*
X145082000Y-96892000D02*
G01*
X141982000Y-96892000D01*
X141982000Y-92592000D01*
X145082000Y-92592000D01*
X145082000Y-96892000D01*
G37*
%TO.C,*%
G36*
X132604845Y-120584461D02*
G01*
X132801818Y-120644212D01*
X132983349Y-120741243D01*
X133142462Y-120871824D01*
X133273043Y-121030937D01*
X133370074Y-121212468D01*
X133429825Y-121409441D01*
X133450000Y-121614286D01*
X133429825Y-121819131D01*
X133370074Y-122016104D01*
X133273043Y-122197635D01*
X133142462Y-122356748D01*
X132983349Y-122487329D01*
X132801818Y-122584360D01*
X132604845Y-122644111D01*
X132400000Y-122664286D01*
X132195155Y-122644111D01*
X131998182Y-122584360D01*
X131816651Y-122487329D01*
X131657538Y-122356748D01*
X131526957Y-122197635D01*
X131429926Y-122016104D01*
X131370175Y-121819131D01*
X131350000Y-121614286D01*
X131370175Y-121409441D01*
X131429926Y-121212468D01*
X131526957Y-121030937D01*
X131657538Y-120871824D01*
X131816651Y-120741243D01*
X131998182Y-120644212D01*
X132195155Y-120584461D01*
X132400000Y-120564286D01*
X132604845Y-120584461D01*
G37*
%TO.C,R9*%
G36*
X138500000Y-112364286D02*
G01*
X138019722Y-112364286D01*
X138019722Y-111664286D01*
X138500000Y-111664286D01*
X138500000Y-112364286D01*
G37*
G36*
X137580278Y-112364286D02*
G01*
X137100000Y-112364286D01*
X137100000Y-111664286D01*
X137580278Y-111664286D01*
X137580278Y-112364286D01*
G37*
%TO.C,*%
G36*
X157304845Y-99784461D02*
G01*
X157501818Y-99844212D01*
X157683349Y-99941243D01*
X157842462Y-100071824D01*
X157973043Y-100230937D01*
X158070074Y-100412468D01*
X158129825Y-100609441D01*
X158150000Y-100814286D01*
X158129825Y-101019131D01*
X158070074Y-101216104D01*
X157973043Y-101397635D01*
X157842462Y-101556748D01*
X157683349Y-101687329D01*
X157501818Y-101784360D01*
X157304845Y-101844111D01*
X157100000Y-101864286D01*
X156895155Y-101844111D01*
X156698182Y-101784360D01*
X156516651Y-101687329D01*
X156357538Y-101556748D01*
X156226957Y-101397635D01*
X156129926Y-101216104D01*
X156070175Y-101019131D01*
X156050000Y-100814286D01*
X156070175Y-100609441D01*
X156129926Y-100412468D01*
X156226957Y-100230937D01*
X156357538Y-100071824D01*
X156516651Y-99941243D01*
X156698182Y-99844212D01*
X156895155Y-99784461D01*
X157100000Y-99764286D01*
X157304845Y-99784461D01*
G37*
%TO.C,R3*%
G36*
X126180278Y-121964286D02*
G01*
X125700000Y-121964286D01*
X125700000Y-121264286D01*
X126180278Y-121264286D01*
X126180278Y-121964286D01*
G37*
G36*
X127100000Y-121964286D02*
G01*
X126619722Y-121964286D01*
X126619722Y-121264286D01*
X127100000Y-121264286D01*
X127100000Y-121964286D01*
G37*
%TO.C,LED8*%
G36*
X134725000Y-114139286D02*
G01*
X134112868Y-114139286D01*
X134112868Y-113089286D01*
X134725000Y-113089286D01*
X134725000Y-114139286D01*
G37*
G36*
X133287132Y-114139286D02*
G01*
X132675000Y-114139286D01*
X132675000Y-113089286D01*
X133287132Y-113089286D01*
X133287132Y-114139286D01*
G37*
%TO.C,*%
G36*
X128804845Y-123784461D02*
G01*
X129001818Y-123844212D01*
X129183349Y-123941243D01*
X129342462Y-124071824D01*
X129473043Y-124230937D01*
X129570074Y-124412468D01*
X129629825Y-124609441D01*
X129650000Y-124814286D01*
X129629825Y-125019131D01*
X129570074Y-125216104D01*
X129473043Y-125397635D01*
X129342462Y-125556748D01*
X129183349Y-125687329D01*
X129001818Y-125784360D01*
X128804845Y-125844111D01*
X128600000Y-125864286D01*
X128395155Y-125844111D01*
X128198182Y-125784360D01*
X128016651Y-125687329D01*
X127857538Y-125556748D01*
X127726957Y-125397635D01*
X127629926Y-125216104D01*
X127570175Y-125019131D01*
X127550000Y-124814286D01*
X127570175Y-124609441D01*
X127629926Y-124412468D01*
X127726957Y-124230937D01*
X127857538Y-124071824D01*
X128016651Y-123941243D01*
X128198182Y-123844212D01*
X128395155Y-123784461D01*
X128600000Y-123764286D01*
X128804845Y-123784461D01*
G37*
%TO.C,LED6*%
G36*
X129487132Y-117339286D02*
G01*
X128875000Y-117339286D01*
X128875000Y-116289286D01*
X129487132Y-116289286D01*
X129487132Y-117339286D01*
G37*
G36*
X130925000Y-117339286D02*
G01*
X130312868Y-117339286D01*
X130312868Y-116289286D01*
X130925000Y-116289286D01*
X130925000Y-117339286D01*
G37*
%TO.C,R12*%
G36*
X144200000Y-107564286D02*
G01*
X143719722Y-107564286D01*
X143719722Y-106864286D01*
X144200000Y-106864286D01*
X144200000Y-107564286D01*
G37*
G36*
X143280278Y-107564286D02*
G01*
X142800000Y-107564286D01*
X142800000Y-106864286D01*
X143280278Y-106864286D01*
X143280278Y-107564286D01*
G37*
%TO.C,LED18*%
G36*
X152287132Y-98139286D02*
G01*
X151675000Y-98139286D01*
X151675000Y-97089286D01*
X152287132Y-97089286D01*
X152287132Y-98139286D01*
G37*
G36*
X153725000Y-98139286D02*
G01*
X153112868Y-98139286D01*
X153112868Y-97089286D01*
X153725000Y-97089286D01*
X153725000Y-98139286D01*
G37*
%TO.C,LED17*%
G36*
X150387132Y-99739286D02*
G01*
X149775000Y-99739286D01*
X149775000Y-98689286D01*
X150387132Y-98689286D01*
X150387132Y-99739286D01*
G37*
G36*
X151825000Y-99739286D02*
G01*
X151212868Y-99739286D01*
X151212868Y-98689286D01*
X151825000Y-98689286D01*
X151825000Y-99739286D01*
G37*
%TO.C,LED10*%
G36*
X137087132Y-110939286D02*
G01*
X136475000Y-110939286D01*
X136475000Y-109889286D01*
X137087132Y-109889286D01*
X137087132Y-110939286D01*
G37*
G36*
X138525000Y-110939286D02*
G01*
X137912868Y-110939286D01*
X137912868Y-109889286D01*
X138525000Y-109889286D01*
X138525000Y-110939286D01*
G37*
%TO.C,*%
G36*
X110810917Y-125235547D02*
G01*
X111157964Y-125340823D01*
X111477805Y-125511781D01*
X111758148Y-125741852D01*
X111988219Y-126022195D01*
X112159177Y-126342036D01*
X112264453Y-126689083D01*
X112300000Y-127050000D01*
X112264453Y-127410917D01*
X112159177Y-127757964D01*
X111988219Y-128077805D01*
X111758148Y-128358148D01*
X111477805Y-128588219D01*
X111157964Y-128759177D01*
X110810917Y-128864453D01*
X110450000Y-128900000D01*
X110089083Y-128864453D01*
X109742036Y-128759177D01*
X109422195Y-128588219D01*
X109141852Y-128358148D01*
X108911781Y-128077805D01*
X108740823Y-127757964D01*
X108635547Y-127410917D01*
X108600000Y-127050000D01*
X108635547Y-126689083D01*
X108740823Y-126342036D01*
X108911781Y-126022195D01*
X109141852Y-125741852D01*
X109422195Y-125511781D01*
X109742036Y-125340823D01*
X110089083Y-125235547D01*
X110450000Y-125200000D01*
X110810917Y-125235547D01*
G37*
%TO.C,R10*%
G36*
X139480278Y-110764286D02*
G01*
X139000000Y-110764286D01*
X139000000Y-110064286D01*
X139480278Y-110064286D01*
X139480278Y-110764286D01*
G37*
G36*
X140400000Y-110764286D02*
G01*
X139919722Y-110764286D01*
X139919722Y-110064286D01*
X140400000Y-110064286D01*
X140400000Y-110764286D01*
G37*
%TO.C,*%
G36*
X168910917Y-125235547D02*
G01*
X169257964Y-125340823D01*
X169577805Y-125511781D01*
X169858148Y-125741852D01*
X170088219Y-126022195D01*
X170259177Y-126342036D01*
X170364453Y-126689083D01*
X170400000Y-127050000D01*
X170364453Y-127410917D01*
X170259177Y-127757964D01*
X170088219Y-128077805D01*
X169858148Y-128358148D01*
X169577805Y-128588219D01*
X169257964Y-128759177D01*
X168910917Y-128864453D01*
X168550000Y-128900000D01*
X168189083Y-128864453D01*
X167842036Y-128759177D01*
X167522195Y-128588219D01*
X167241852Y-128358148D01*
X167011781Y-128077805D01*
X166840823Y-127757964D01*
X166735547Y-127410917D01*
X166700000Y-127050000D01*
X166735547Y-126689083D01*
X166840823Y-126342036D01*
X167011781Y-126022195D01*
X167241852Y-125741852D01*
X167522195Y-125511781D01*
X167842036Y-125340823D01*
X168189083Y-125235547D01*
X168550000Y-125200000D01*
X168910917Y-125235547D01*
G37*
%TO.C,LED14*%
G36*
X144687132Y-104539286D02*
G01*
X144075000Y-104539286D01*
X144075000Y-103489286D01*
X144687132Y-103489286D01*
X144687132Y-104539286D01*
G37*
G36*
X146125000Y-104539286D02*
G01*
X145512868Y-104539286D01*
X145512868Y-103489286D01*
X146125000Y-103489286D01*
X146125000Y-104539286D01*
G37*
%TO.C,R17*%
G36*
X152780278Y-99564286D02*
G01*
X152300000Y-99564286D01*
X152300000Y-98864286D01*
X152780278Y-98864286D01*
X152780278Y-99564286D01*
G37*
G36*
X153700000Y-99564286D02*
G01*
X153219722Y-99564286D01*
X153219722Y-98864286D01*
X153700000Y-98864286D01*
X153700000Y-99564286D01*
G37*
%TO.C,R18*%
G36*
X154680278Y-97964286D02*
G01*
X154200000Y-97964286D01*
X154200000Y-97264286D01*
X154680278Y-97264286D01*
X154680278Y-97964286D01*
G37*
G36*
X155600000Y-97964286D02*
G01*
X155119722Y-97964286D01*
X155119722Y-97264286D01*
X155600000Y-97264286D01*
X155600000Y-97964286D01*
G37*
%TO.C,*%
G36*
X138304845Y-115784461D02*
G01*
X138501818Y-115844212D01*
X138683349Y-115941243D01*
X138842462Y-116071824D01*
X138973043Y-116230937D01*
X139070074Y-116412468D01*
X139129825Y-116609441D01*
X139150000Y-116814286D01*
X139129825Y-117019131D01*
X139070074Y-117216104D01*
X138973043Y-117397635D01*
X138842462Y-117556748D01*
X138683349Y-117687329D01*
X138501818Y-117784360D01*
X138304845Y-117844111D01*
X138100000Y-117864286D01*
X137895155Y-117844111D01*
X137698182Y-117784360D01*
X137516651Y-117687329D01*
X137357538Y-117556748D01*
X137226957Y-117397635D01*
X137129926Y-117216104D01*
X137070175Y-117019131D01*
X137050000Y-116814286D01*
X137070175Y-116609441D01*
X137129926Y-116412468D01*
X137226957Y-116230937D01*
X137357538Y-116071824D01*
X137516651Y-115941243D01*
X137698182Y-115844212D01*
X137895155Y-115784461D01*
X138100000Y-115764286D01*
X138304845Y-115784461D01*
G37*
%TO.C,J2*%
G36*
X167858356Y-117463096D02*
G01*
X167961535Y-117494395D01*
X168056625Y-117545221D01*
X168139972Y-117613622D01*
X168208373Y-117696969D01*
X168259199Y-117792059D01*
X168290498Y-117895238D01*
X168301067Y-118002540D01*
X168290498Y-118109842D01*
X168259199Y-118213021D01*
X168208373Y-118308111D01*
X168139972Y-118391458D01*
X168056625Y-118459859D01*
X167961535Y-118510685D01*
X167858356Y-118541984D01*
X167751054Y-118552553D01*
X167643752Y-118541984D01*
X167540573Y-118510685D01*
X167445483Y-118459859D01*
X167362136Y-118391458D01*
X167293735Y-118308111D01*
X167242909Y-118213021D01*
X167211610Y-118109842D01*
X167201042Y-118002540D01*
X167211610Y-117895238D01*
X167242909Y-117792059D01*
X167293735Y-117696969D01*
X167362136Y-117613622D01*
X167445483Y-117545221D01*
X167540573Y-117494395D01*
X167643752Y-117463096D01*
X167751054Y-117452527D01*
X167858356Y-117463096D01*
G37*
G36*
X160324087Y-117632199D02*
G01*
X160394436Y-117653539D01*
X160459269Y-117688193D01*
X160516097Y-117734830D01*
X160562734Y-117791658D01*
X160597388Y-117856491D01*
X160618728Y-117926840D01*
X160625933Y-118000000D01*
X160618728Y-118073160D01*
X160597388Y-118143509D01*
X160562734Y-118208342D01*
X160516097Y-118265170D01*
X160459269Y-118311807D01*
X160394436Y-118346461D01*
X160324087Y-118367801D01*
X160250927Y-118375007D01*
X160177767Y-118367801D01*
X160107418Y-118346461D01*
X160042585Y-118311807D01*
X159985757Y-118265170D01*
X159939120Y-118208342D01*
X159904466Y-118143509D01*
X159883126Y-118073160D01*
X159875921Y-118000000D01*
X159883126Y-117926840D01*
X159904466Y-117856491D01*
X159939120Y-117791658D01*
X159985757Y-117734830D01*
X160042585Y-117688193D01*
X160107418Y-117653539D01*
X160177767Y-117632199D01*
X160250927Y-117624993D01*
X160324087Y-117632199D01*
G37*
%TO.C,R13*%
G36*
X145180278Y-105964286D02*
G01*
X144700000Y-105964286D01*
X144700000Y-105264286D01*
X145180278Y-105264286D01*
X145180278Y-105964286D01*
G37*
G36*
X146100000Y-105964286D02*
G01*
X145619722Y-105964286D01*
X145619722Y-105264286D01*
X146100000Y-105264286D01*
X146100000Y-105964286D01*
G37*
%TO.C,R8*%
G36*
X135680278Y-113964286D02*
G01*
X135200000Y-113964286D01*
X135200000Y-113264286D01*
X135680278Y-113264286D01*
X135680278Y-113964286D01*
G37*
G36*
X136600000Y-113964286D02*
G01*
X136119722Y-113964286D01*
X136119722Y-113264286D01*
X136600000Y-113264286D01*
X136600000Y-113964286D01*
G37*
%TO.C,*%
G36*
X151604845Y-104584461D02*
G01*
X151801818Y-104644212D01*
X151983349Y-104741243D01*
X152142462Y-104871824D01*
X152273043Y-105030937D01*
X152370074Y-105212468D01*
X152429825Y-105409441D01*
X152450000Y-105614286D01*
X152429825Y-105819131D01*
X152370074Y-106016104D01*
X152273043Y-106197635D01*
X152142462Y-106356748D01*
X151983349Y-106487329D01*
X151801818Y-106584360D01*
X151604845Y-106644111D01*
X151400000Y-106664286D01*
X151195155Y-106644111D01*
X150998182Y-106584360D01*
X150816651Y-106487329D01*
X150657538Y-106356748D01*
X150526957Y-106197635D01*
X150429926Y-106016104D01*
X150370175Y-105819131D01*
X150350000Y-105614286D01*
X150370175Y-105409441D01*
X150429926Y-105212468D01*
X150526957Y-105030937D01*
X150657538Y-104871824D01*
X150816651Y-104741243D01*
X150998182Y-104644212D01*
X151195155Y-104584461D01*
X151400000Y-104564286D01*
X151604845Y-104584461D01*
G37*
%TO.C,J1*%
G36*
X118858356Y-117463096D02*
G01*
X118961535Y-117494395D01*
X119056625Y-117545221D01*
X119139972Y-117613622D01*
X119208373Y-117696969D01*
X119259199Y-117792059D01*
X119290498Y-117895238D01*
X119301067Y-118002540D01*
X119290498Y-118109842D01*
X119259199Y-118213021D01*
X119208373Y-118308111D01*
X119139972Y-118391458D01*
X119056625Y-118459859D01*
X118961535Y-118510685D01*
X118858356Y-118541984D01*
X118751054Y-118552553D01*
X118643752Y-118541984D01*
X118540573Y-118510685D01*
X118445483Y-118459859D01*
X118362136Y-118391458D01*
X118293735Y-118308111D01*
X118242909Y-118213021D01*
X118211610Y-118109842D01*
X118201042Y-118002540D01*
X118211610Y-117895238D01*
X118242909Y-117792059D01*
X118293735Y-117696969D01*
X118362136Y-117613622D01*
X118445483Y-117545221D01*
X118540573Y-117494395D01*
X118643752Y-117463096D01*
X118751054Y-117452527D01*
X118858356Y-117463096D01*
G37*
G36*
X111324087Y-117632199D02*
G01*
X111394436Y-117653539D01*
X111459269Y-117688193D01*
X111516097Y-117734830D01*
X111562734Y-117791658D01*
X111597388Y-117856491D01*
X111618728Y-117926840D01*
X111625933Y-118000000D01*
X111618728Y-118073160D01*
X111597388Y-118143509D01*
X111562734Y-118208342D01*
X111516097Y-118265170D01*
X111459269Y-118311807D01*
X111394436Y-118346461D01*
X111324087Y-118367801D01*
X111250927Y-118375007D01*
X111177767Y-118367801D01*
X111107418Y-118346461D01*
X111042585Y-118311807D01*
X110985757Y-118265170D01*
X110939120Y-118208342D01*
X110904466Y-118143509D01*
X110883126Y-118073160D01*
X110875921Y-118000000D01*
X110883126Y-117926840D01*
X110904466Y-117856491D01*
X110939120Y-117791658D01*
X110985757Y-117734830D01*
X111042585Y-117688193D01*
X111107418Y-117653539D01*
X111177767Y-117632199D01*
X111250927Y-117624993D01*
X111324087Y-117632199D01*
G37*
%TO.C,*%
G36*
X142104845Y-112584461D02*
G01*
X142301818Y-112644212D01*
X142483349Y-112741243D01*
X142642462Y-112871824D01*
X142773043Y-113030937D01*
X142870074Y-113212468D01*
X142929825Y-113409441D01*
X142950000Y-113614286D01*
X142929825Y-113819131D01*
X142870074Y-114016104D01*
X142773043Y-114197635D01*
X142642462Y-114356748D01*
X142483349Y-114487329D01*
X142301818Y-114584360D01*
X142104845Y-114644111D01*
X141900000Y-114664286D01*
X141695155Y-114644111D01*
X141498182Y-114584360D01*
X141316651Y-114487329D01*
X141157538Y-114356748D01*
X141026957Y-114197635D01*
X140929926Y-114016104D01*
X140870175Y-113819131D01*
X140850000Y-113614286D01*
X140870175Y-113409441D01*
X140929926Y-113212468D01*
X141026957Y-113030937D01*
X141157538Y-112871824D01*
X141316651Y-112741243D01*
X141498182Y-112644212D01*
X141695155Y-112584461D01*
X141900000Y-112564286D01*
X142104845Y-112584461D01*
G37*
%TO.C,LED12*%
G36*
X142325000Y-107739286D02*
G01*
X141712868Y-107739286D01*
X141712868Y-106689286D01*
X142325000Y-106689286D01*
X142325000Y-107739286D01*
G37*
G36*
X140887132Y-107739286D02*
G01*
X140275000Y-107739286D01*
X140275000Y-106689286D01*
X140887132Y-106689286D01*
X140887132Y-107739286D01*
G37*
%TO.C,*%
G36*
X134504845Y-118984461D02*
G01*
X134701818Y-119044212D01*
X134883349Y-119141243D01*
X135042462Y-119271824D01*
X135173043Y-119430937D01*
X135270074Y-119612468D01*
X135329825Y-119809441D01*
X135350000Y-120014286D01*
X135329825Y-120219131D01*
X135270074Y-120416104D01*
X135173043Y-120597635D01*
X135042462Y-120756748D01*
X134883349Y-120887329D01*
X134701818Y-120984360D01*
X134504845Y-121044111D01*
X134300000Y-121064286D01*
X134095155Y-121044111D01*
X133898182Y-120984360D01*
X133716651Y-120887329D01*
X133557538Y-120756748D01*
X133426957Y-120597635D01*
X133329926Y-120416104D01*
X133270175Y-120219131D01*
X133250000Y-120014286D01*
X133270175Y-119809441D01*
X133329926Y-119612468D01*
X133426957Y-119430937D01*
X133557538Y-119271824D01*
X133716651Y-119141243D01*
X133898182Y-119044212D01*
X134095155Y-118984461D01*
X134300000Y-118964286D01*
X134504845Y-118984461D01*
G37*
G36*
X110810917Y-87135547D02*
G01*
X111157964Y-87240823D01*
X111477805Y-87411781D01*
X111758148Y-87641852D01*
X111988219Y-87922195D01*
X112159177Y-88242036D01*
X112264453Y-88589083D01*
X112300000Y-88950000D01*
X112264453Y-89310917D01*
X112159177Y-89657964D01*
X111988219Y-89977805D01*
X111758148Y-90258148D01*
X111477805Y-90488219D01*
X111157964Y-90659177D01*
X110810917Y-90764453D01*
X110450000Y-90800000D01*
X110089083Y-90764453D01*
X109742036Y-90659177D01*
X109422195Y-90488219D01*
X109141852Y-90258148D01*
X108911781Y-89977805D01*
X108740823Y-89657964D01*
X108635547Y-89310917D01*
X108600000Y-88950000D01*
X108635547Y-88589083D01*
X108740823Y-88242036D01*
X108911781Y-87922195D01*
X109141852Y-87641852D01*
X109422195Y-87411781D01*
X109742036Y-87240823D01*
X110089083Y-87135547D01*
X110450000Y-87100000D01*
X110810917Y-87135547D01*
G37*
G36*
X168910917Y-87135547D02*
G01*
X169257964Y-87240823D01*
X169577805Y-87411781D01*
X169858148Y-87641852D01*
X170088219Y-87922195D01*
X170259177Y-88242036D01*
X170364453Y-88589083D01*
X170400000Y-88950000D01*
X170364453Y-89310917D01*
X170259177Y-89657964D01*
X170088219Y-89977805D01*
X169858148Y-90258148D01*
X169577805Y-90488219D01*
X169257964Y-90659177D01*
X168910917Y-90764453D01*
X168550000Y-90800000D01*
X168189083Y-90764453D01*
X167842036Y-90659177D01*
X167522195Y-90488219D01*
X167241852Y-90258148D01*
X167011781Y-89977805D01*
X166840823Y-89657964D01*
X166735547Y-89310917D01*
X166700000Y-88950000D01*
X166735547Y-88589083D01*
X166840823Y-88242036D01*
X167011781Y-87922195D01*
X167241852Y-87641852D01*
X167522195Y-87411781D01*
X167842036Y-87240823D01*
X168189083Y-87135547D01*
X168550000Y-87100000D01*
X168910917Y-87135547D01*
G37*
%TO.C,R15*%
G36*
X148980278Y-102764286D02*
G01*
X148500000Y-102764286D01*
X148500000Y-102064286D01*
X148980278Y-102064286D01*
X148980278Y-102764286D01*
G37*
G36*
X149900000Y-102764286D02*
G01*
X149419722Y-102764286D01*
X149419722Y-102064286D01*
X149900000Y-102064286D01*
X149900000Y-102764286D01*
G37*
%TO.C,*%
G36*
X145904845Y-109384461D02*
G01*
X146101818Y-109444212D01*
X146283349Y-109541243D01*
X146442462Y-109671824D01*
X146573043Y-109830937D01*
X146670074Y-110012468D01*
X146729825Y-110209441D01*
X146750000Y-110414286D01*
X146729825Y-110619131D01*
X146670074Y-110816104D01*
X146573043Y-110997635D01*
X146442462Y-111156748D01*
X146283349Y-111287329D01*
X146101818Y-111384360D01*
X145904845Y-111444111D01*
X145700000Y-111464286D01*
X145495155Y-111444111D01*
X145298182Y-111384360D01*
X145116651Y-111287329D01*
X144957538Y-111156748D01*
X144826957Y-110997635D01*
X144729926Y-110816104D01*
X144670175Y-110619131D01*
X144650000Y-110414286D01*
X144670175Y-110209441D01*
X144729926Y-110012468D01*
X144826957Y-109830937D01*
X144957538Y-109671824D01*
X145116651Y-109541243D01*
X145298182Y-109444212D01*
X145495155Y-109384461D01*
X145700000Y-109364286D01*
X145904845Y-109384461D01*
G37*
G36*
X144004845Y-110984461D02*
G01*
X144201818Y-111044212D01*
X144383349Y-111141243D01*
X144542462Y-111271824D01*
X144673043Y-111430937D01*
X144770074Y-111612468D01*
X144829825Y-111809441D01*
X144850000Y-112014286D01*
X144829825Y-112219131D01*
X144770074Y-112416104D01*
X144673043Y-112597635D01*
X144542462Y-112756748D01*
X144383349Y-112887329D01*
X144201818Y-112984360D01*
X144004845Y-113044111D01*
X143800000Y-113064286D01*
X143595155Y-113044111D01*
X143398182Y-112984360D01*
X143216651Y-112887329D01*
X143057538Y-112756748D01*
X142926957Y-112597635D01*
X142829926Y-112416104D01*
X142770175Y-112219131D01*
X142750000Y-112014286D01*
X142770175Y-111809441D01*
X142829926Y-111612468D01*
X142926957Y-111430937D01*
X143057538Y-111271824D01*
X143216651Y-111141243D01*
X143398182Y-111044212D01*
X143595155Y-110984461D01*
X143800000Y-110964286D01*
X144004845Y-110984461D01*
G37*
%TO.C,R4*%
G36*
X129000000Y-120364286D02*
G01*
X128519722Y-120364286D01*
X128519722Y-119664286D01*
X129000000Y-119664286D01*
X129000000Y-120364286D01*
G37*
G36*
X128080278Y-120364286D02*
G01*
X127600000Y-120364286D01*
X127600000Y-119664286D01*
X128080278Y-119664286D01*
X128080278Y-120364286D01*
G37*
%TO.C,R6*%
G36*
X131880278Y-117164286D02*
G01*
X131400000Y-117164286D01*
X131400000Y-116464286D01*
X131880278Y-116464286D01*
X131880278Y-117164286D01*
G37*
G36*
X132800000Y-117164286D02*
G01*
X132319722Y-117164286D01*
X132319722Y-116464286D01*
X132800000Y-116464286D01*
X132800000Y-117164286D01*
G37*
%TO.C,*%
G36*
X147804845Y-107784461D02*
G01*
X148001818Y-107844212D01*
X148183349Y-107941243D01*
X148342462Y-108071824D01*
X148473043Y-108230937D01*
X148570074Y-108412468D01*
X148629825Y-108609441D01*
X148650000Y-108814286D01*
X148629825Y-109019131D01*
X148570074Y-109216104D01*
X148473043Y-109397635D01*
X148342462Y-109556748D01*
X148183349Y-109687329D01*
X148001818Y-109784360D01*
X147804845Y-109844111D01*
X147600000Y-109864286D01*
X147395155Y-109844111D01*
X147198182Y-109784360D01*
X147016651Y-109687329D01*
X146857538Y-109556748D01*
X146726957Y-109397635D01*
X146629926Y-109216104D01*
X146570175Y-109019131D01*
X146550000Y-108814286D01*
X146570175Y-108609441D01*
X146629926Y-108412468D01*
X146726957Y-108230937D01*
X146857538Y-108071824D01*
X147016651Y-107941243D01*
X147198182Y-107844212D01*
X147395155Y-107784461D01*
X147600000Y-107764286D01*
X147804845Y-107784461D01*
G37*
%TO.C,LED11*%
G36*
X140425000Y-109339286D02*
G01*
X139812868Y-109339286D01*
X139812868Y-108289286D01*
X140425000Y-108289286D01*
X140425000Y-109339286D01*
G37*
G36*
X138987132Y-109339286D02*
G01*
X138375000Y-109339286D01*
X138375000Y-108289286D01*
X138987132Y-108289286D01*
X138987132Y-109339286D01*
G37*
%TD*%
D10*
%TO.C,*%
X110450000Y-127050000D03*
%TD*%
%TO.C,*%
X168550000Y-127050000D03*
%TD*%
D11*
%TO.C,J2*%
X160250927Y-118000000D03*
D12*
X167751054Y-118002540D03*
D13*
X166401041Y-115849886D03*
X161600940Y-115849886D03*
X161600940Y-120150114D03*
X166401041Y-120150114D03*
D14*
X161250927Y-117249936D03*
X161751054Y-117249936D03*
X162250927Y-117249936D03*
X162751054Y-117249936D03*
X163250927Y-117249936D03*
X163751054Y-117249936D03*
X164250927Y-117249936D03*
X164751054Y-117249936D03*
X165250927Y-117249936D03*
X165751054Y-117249936D03*
X166250927Y-117249936D03*
X166751054Y-117249936D03*
D15*
X166751080Y-118751588D03*
X166250953Y-118751588D03*
X165751080Y-118751588D03*
X165250953Y-118751588D03*
X164751080Y-118751588D03*
X164250953Y-118751588D03*
X163751080Y-118751588D03*
X163250953Y-118751588D03*
X162751080Y-118751588D03*
X162250953Y-118751588D03*
X161751080Y-118751588D03*
X161250953Y-118751588D03*
%TD*%
D12*
%TO.C,J1*%
X118751054Y-118002540D03*
D11*
X111250927Y-118000000D03*
D13*
X117401041Y-115849886D03*
X112600940Y-115849886D03*
X112600940Y-120150114D03*
X117401041Y-120150114D03*
D14*
X112250927Y-117249936D03*
X112751054Y-117249936D03*
X113250927Y-117249936D03*
X113751054Y-117249936D03*
X114250927Y-117249936D03*
X114751054Y-117249936D03*
X115250927Y-117249936D03*
X115751054Y-117249936D03*
X116250927Y-117249936D03*
X116751054Y-117249936D03*
X117250927Y-117249936D03*
X117751054Y-117249936D03*
D15*
X117751080Y-118751588D03*
X117250953Y-118751588D03*
X116751080Y-118751588D03*
X116250953Y-118751588D03*
X115751080Y-118751588D03*
X115250953Y-118751588D03*
X114751080Y-118751588D03*
X114250953Y-118751588D03*
X113751080Y-118751588D03*
X113250953Y-118751588D03*
X112751080Y-118751588D03*
X112250953Y-118751588D03*
%TD*%
D10*
%TO.C,*%
X110450000Y-88950000D03*
%TD*%
%TO.C,*%
X168550000Y-88950000D03*
%TD*%
M02*
