%TF.GenerationSoftware,KiCad,Pcbnew,7.0.0-da2b9df05c~171~ubuntu22.04.1*%
%TF.CreationDate,2023-03-09T10:18:31-08:00*%
%TF.ProjectId,CAD,4341442e-6b69-4636-9164-5f7063625858,rev?*%
%TF.SameCoordinates,Original*%
%TF.FileFunction,Profile,NP*%
%FSLAX46Y46*%
G04 Gerber Fmt 4.6, Leading zero omitted, Abs format (unit mm)*
G04 Created by KiCad (PCBNEW 7.0.0-da2b9df05c~171~ubuntu22.04.1) date 2023-03-09 10:18:31*
%MOMM*%
%LPD*%
G01*
G04 APERTURE LIST*
%TA.AperFunction,Profile*%
%ADD10C,0.050000*%
%TD*%
G04 APERTURE END LIST*
D10*
X464480970Y-301845671D02*
X464495196Y-301798773D01*
X464250000Y-302000000D02*
X464298773Y-301995196D01*
X464457867Y-257111107D02*
X464426777Y-257073223D01*
X399750000Y-257000000D02*
X399701227Y-257004804D01*
X464250000Y-257000000D02*
X399750000Y-257000000D01*
X464345671Y-301980970D02*
X464388893Y-301957867D01*
X464495196Y-301798773D02*
X464500000Y-301750000D01*
X464345671Y-257019030D02*
X464298773Y-257004804D01*
X399504804Y-301798773D02*
X399519030Y-301845671D01*
X464500000Y-257250000D02*
X464495196Y-257201227D01*
X399573223Y-301926777D02*
X399611107Y-301957867D01*
X399504804Y-257201227D02*
X399500000Y-257250000D01*
X464457867Y-301888893D02*
X464480970Y-301845671D01*
X464388893Y-257042133D02*
X464345671Y-257019030D01*
X399654329Y-301980970D02*
X399701227Y-301995196D01*
X399542133Y-257111107D02*
X399519030Y-257154329D01*
X399500000Y-257250000D02*
X399500000Y-301750000D01*
X464480970Y-257154329D02*
X464457867Y-257111107D01*
X464500000Y-301750000D02*
X464500000Y-257250000D01*
X464388893Y-301957867D02*
X464426777Y-301926777D01*
X464298773Y-257004804D02*
X464250000Y-257000000D01*
X399519030Y-301845671D02*
X399542133Y-301888893D01*
X399611107Y-257042133D02*
X399573223Y-257073223D01*
X464495196Y-257201227D02*
X464480970Y-257154329D01*
X399701227Y-301995196D02*
X399750000Y-302000000D01*
X399611107Y-301957867D02*
X399654329Y-301980970D01*
X399654329Y-257019030D02*
X399611107Y-257042133D01*
X464298773Y-301995196D02*
X464345671Y-301980970D01*
X399701227Y-257004804D02*
X399654329Y-257019030D01*
X399500000Y-301750000D02*
X399504804Y-301798773D01*
X399750000Y-302000000D02*
X464250000Y-302000000D01*
X399519030Y-257154329D02*
X399504804Y-257201227D01*
X464426777Y-257073223D02*
X464388893Y-257042133D01*
X399573223Y-257073223D02*
X399542133Y-257111107D01*
X399542133Y-301888893D02*
X399573223Y-301926777D01*
X464426777Y-301926777D02*
X464457867Y-301888893D01*
M02*
