%TF.GenerationSoftware,KiCad,Pcbnew,6.0.10-86aedd382b~118~ubuntu20.04.1*%
%TF.CreationDate,2023-02-21T16:43:21-08:00*%
%TF.ProjectId,CAD,4341442e-6b69-4636-9164-5f7063625858,rev?*%
%TF.SameCoordinates,Original*%
%TF.FileFunction,Legend,Top*%
%TF.FilePolarity,Positive*%
%FSLAX46Y46*%
G04 Gerber Fmt 4.6, Leading zero omitted, Abs format (unit mm)*
G04 Created by KiCad (PCBNEW 6.0.10-86aedd382b~118~ubuntu20.04.1) date 2023-02-21 16:43:21*
%MOMM*%
%LPD*%
G01*
G04 APERTURE LIST*
G04 Aperture macros list*
%AMRoundRect*
0 Rectangle with rounded corners*
0 $1 Rounding radius*
0 $2 $3 $4 $5 $6 $7 $8 $9 X,Y pos of 4 corners*
0 Add a 4 corners polygon primitive as box body*
4,1,4,$2,$3,$4,$5,$6,$7,$8,$9,$2,$3,0*
0 Add four circle primitives for the rounded corners*
1,1,$1+$1,$2,$3*
1,1,$1+$1,$4,$5*
1,1,$1+$1,$6,$7*
1,1,$1+$1,$8,$9*
0 Add four rect primitives between the rounded corners*
20,1,$1+$1,$2,$3,$4,$5,0*
20,1,$1+$1,$4,$5,$6,$7,0*
20,1,$1+$1,$6,$7,$8,$9,0*
20,1,$1+$1,$8,$9,$2,$3,0*%
G04 Aperture macros list end*
%ADD10C,0.150000*%
%ADD11C,0.100000*%
%ADD12C,0.120000*%
%ADD13C,0.059995*%
%ADD14C,2.402000*%
%ADD15C,0.852013*%
%ADD16C,1.202025*%
%ADD17C,1.102000*%
%ADD18RoundRect,0.051000X-0.150000X-0.475006X0.150000X-0.475006X0.150000X0.475006X-0.150000X0.475006X0*%
%ADD19RoundRect,0.051000X0.150000X0.475006X-0.150000X0.475006X-0.150000X-0.475006X0.150000X-0.475006X0*%
G04 APERTURE END LIST*
D10*
%TO.C,*%
D11*
X156455476Y-103219047D02*
X156598333Y-103266666D01*
X156836428Y-103266666D01*
X156931666Y-103219047D01*
X156979285Y-103171428D01*
X157026904Y-103076190D01*
X157026904Y-102980952D01*
X156979285Y-102885714D01*
X156931666Y-102838095D01*
X156836428Y-102790476D01*
X156645952Y-102742857D01*
X156550714Y-102695238D01*
X156503095Y-102647619D01*
X156455476Y-102552381D01*
X156455476Y-102457143D01*
X156503095Y-102361905D01*
X156550714Y-102314286D01*
X156645952Y-102266666D01*
X156884047Y-102266666D01*
X157026904Y-102314286D01*
X157788809Y-102742857D02*
X157931666Y-102790476D01*
X157979285Y-102838095D01*
X158026904Y-102933333D01*
X158026904Y-103076190D01*
X157979285Y-103171428D01*
X157931666Y-103219047D01*
X157836428Y-103266666D01*
X157455476Y-103266666D01*
X157455476Y-102266666D01*
X157788809Y-102266666D01*
X157884047Y-102314286D01*
X157931666Y-102361905D01*
X157979285Y-102457143D01*
X157979285Y-102552381D01*
X157931666Y-102647619D01*
X157884047Y-102695238D01*
X157788809Y-102742857D01*
X157455476Y-102742857D01*
X158455476Y-102266666D02*
X158455476Y-103076190D01*
X158503095Y-103171428D01*
X158550714Y-103219047D01*
X158645952Y-103266666D01*
X158836428Y-103266666D01*
X158931666Y-103219047D01*
X158979285Y-103171428D01*
X159026904Y-103076190D01*
X159026904Y-102266666D01*
X160026904Y-103266666D02*
X159455476Y-103266666D01*
X159741190Y-103266666D02*
X159741190Y-102266666D01*
X159645952Y-102409524D01*
X159550714Y-102504762D01*
X159455476Y-102552381D01*
%TO.C,LED3*%
X118979285Y-122066666D02*
X118503095Y-122066666D01*
X118503095Y-121066666D01*
X119312619Y-121542857D02*
X119645952Y-121542857D01*
X119788809Y-122066666D02*
X119312619Y-122066666D01*
X119312619Y-121066666D01*
X119788809Y-121066666D01*
X120217380Y-122066666D02*
X120217380Y-121066666D01*
X120455476Y-121066666D01*
X120598333Y-121114286D01*
X120693571Y-121209524D01*
X120741190Y-121304762D01*
X120788809Y-121495238D01*
X120788809Y-121638095D01*
X120741190Y-121828571D01*
X120693571Y-121923809D01*
X120598333Y-122019047D01*
X120455476Y-122066666D01*
X120217380Y-122066666D01*
X121122142Y-121066666D02*
X121741190Y-121066666D01*
X121407857Y-121447619D01*
X121550714Y-121447619D01*
X121645952Y-121495238D01*
X121693571Y-121542857D01*
X121741190Y-121638095D01*
X121741190Y-121876190D01*
X121693571Y-121971428D01*
X121645952Y-122019047D01*
X121550714Y-122066666D01*
X121265000Y-122066666D01*
X121169761Y-122019047D01*
X121122142Y-121971428D01*
%TO.C,R7*%
X136074523Y-115666666D02*
X135741190Y-115190476D01*
X135503095Y-115666666D02*
X135503095Y-114666666D01*
X135884047Y-114666666D01*
X135979285Y-114714286D01*
X136026904Y-114761905D01*
X136074523Y-114857143D01*
X136074523Y-115000000D01*
X136026904Y-115095238D01*
X135979285Y-115142857D01*
X135884047Y-115190476D01*
X135503095Y-115190476D01*
X136407857Y-114666666D02*
X137074523Y-114666666D01*
X136645952Y-115666666D01*
%TO.C,R11*%
X143674523Y-109266666D02*
X143341190Y-108790476D01*
X143103095Y-109266666D02*
X143103095Y-108266666D01*
X143484047Y-108266666D01*
X143579285Y-108314286D01*
X143626904Y-108361905D01*
X143674523Y-108457143D01*
X143674523Y-108600000D01*
X143626904Y-108695238D01*
X143579285Y-108742857D01*
X143484047Y-108790476D01*
X143103095Y-108790476D01*
X144626904Y-109266666D02*
X144055476Y-109266666D01*
X144341190Y-109266666D02*
X144341190Y-108266666D01*
X144245952Y-108409524D01*
X144150714Y-108504762D01*
X144055476Y-108552381D01*
X145579285Y-109266666D02*
X145007857Y-109266666D01*
X145293571Y-109266666D02*
X145293571Y-108266666D01*
X145198333Y-108409524D01*
X145103095Y-108504762D01*
X145007857Y-108552381D01*
%TO.C,R16*%
X153174523Y-101266666D02*
X152841190Y-100790476D01*
X152603095Y-101266666D02*
X152603095Y-100266666D01*
X152984047Y-100266666D01*
X153079285Y-100314286D01*
X153126904Y-100361905D01*
X153174523Y-100457143D01*
X153174523Y-100600000D01*
X153126904Y-100695238D01*
X153079285Y-100742857D01*
X152984047Y-100790476D01*
X152603095Y-100790476D01*
X154126904Y-101266666D02*
X153555476Y-101266666D01*
X153841190Y-101266666D02*
X153841190Y-100266666D01*
X153745952Y-100409524D01*
X153650714Y-100504762D01*
X153555476Y-100552381D01*
X154984047Y-100266666D02*
X154793571Y-100266666D01*
X154698333Y-100314286D01*
X154650714Y-100361905D01*
X154555476Y-100504762D01*
X154507857Y-100695238D01*
X154507857Y-101076190D01*
X154555476Y-101171428D01*
X154603095Y-101219047D01*
X154698333Y-101266666D01*
X154888809Y-101266666D01*
X154984047Y-101219047D01*
X155031666Y-101171428D01*
X155079285Y-101076190D01*
X155079285Y-100838095D01*
X155031666Y-100742857D01*
X154984047Y-100695238D01*
X154888809Y-100647619D01*
X154698333Y-100647619D01*
X154603095Y-100695238D01*
X154555476Y-100742857D01*
X154507857Y-100838095D01*
D10*
%TO.C,*%
D11*
X143155476Y-114419047D02*
X143298333Y-114466666D01*
X143536428Y-114466666D01*
X143631666Y-114419047D01*
X143679285Y-114371428D01*
X143726904Y-114276190D01*
X143726904Y-114180952D01*
X143679285Y-114085714D01*
X143631666Y-114038095D01*
X143536428Y-113990476D01*
X143345952Y-113942857D01*
X143250714Y-113895238D01*
X143203095Y-113847619D01*
X143155476Y-113752381D01*
X143155476Y-113657143D01*
X143203095Y-113561905D01*
X143250714Y-113514286D01*
X143345952Y-113466666D01*
X143584047Y-113466666D01*
X143726904Y-113514286D01*
X144107857Y-114419047D02*
X144250714Y-114466666D01*
X144488809Y-114466666D01*
X144584047Y-114419047D01*
X144631666Y-114371428D01*
X144679285Y-114276190D01*
X144679285Y-114180952D01*
X144631666Y-114085714D01*
X144584047Y-114038095D01*
X144488809Y-113990476D01*
X144298333Y-113942857D01*
X144203095Y-113895238D01*
X144155476Y-113847619D01*
X144107857Y-113752381D01*
X144107857Y-113657143D01*
X144155476Y-113561905D01*
X144203095Y-113514286D01*
X144298333Y-113466666D01*
X144536428Y-113466666D01*
X144679285Y-113514286D01*
X145679285Y-114466666D02*
X145345952Y-113990476D01*
X145107857Y-114466666D02*
X145107857Y-113466666D01*
X145488809Y-113466666D01*
X145584047Y-113514286D01*
X145631666Y-113561905D01*
X145679285Y-113657143D01*
X145679285Y-113800000D01*
X145631666Y-113895238D01*
X145584047Y-113942857D01*
X145488809Y-113990476D01*
X145107857Y-113990476D01*
X146012619Y-113466666D02*
X146679285Y-114466666D01*
X146679285Y-113466666D02*
X146012619Y-114466666D01*
X147060238Y-114466666D02*
X147060238Y-113466666D01*
X147441190Y-113466666D01*
X147536428Y-113514286D01*
X147584047Y-113561905D01*
X147631666Y-113657143D01*
X147631666Y-113800000D01*
X147584047Y-113895238D01*
X147536428Y-113942857D01*
X147441190Y-113990476D01*
X147060238Y-113990476D01*
X148584047Y-114466666D02*
X148012619Y-114466666D01*
X148298333Y-114466666D02*
X148298333Y-113466666D01*
X148203095Y-113609524D01*
X148107857Y-113704762D01*
X148012619Y-113752381D01*
D10*
D11*
%TO.C,LED1*%
X115179285Y-125266666D02*
X114703095Y-125266666D01*
X114703095Y-124266666D01*
X115512619Y-124742857D02*
X115845952Y-124742857D01*
X115988809Y-125266666D02*
X115512619Y-125266666D01*
X115512619Y-124266666D01*
X115988809Y-124266666D01*
X116417380Y-125266666D02*
X116417380Y-124266666D01*
X116655476Y-124266666D01*
X116798333Y-124314286D01*
X116893571Y-124409524D01*
X116941190Y-124504762D01*
X116988809Y-124695238D01*
X116988809Y-124838095D01*
X116941190Y-125028571D01*
X116893571Y-125123809D01*
X116798333Y-125219047D01*
X116655476Y-125266666D01*
X116417380Y-125266666D01*
X117941190Y-125266666D02*
X117369761Y-125266666D01*
X117655476Y-125266666D02*
X117655476Y-124266666D01*
X117560238Y-124409524D01*
X117465000Y-124504762D01*
X117369761Y-124552381D01*
%TO.C,R1*%
X124674523Y-125266666D02*
X124341190Y-124790476D01*
X124103095Y-125266666D02*
X124103095Y-124266666D01*
X124484047Y-124266666D01*
X124579285Y-124314286D01*
X124626904Y-124361905D01*
X124674523Y-124457143D01*
X124674523Y-124600000D01*
X124626904Y-124695238D01*
X124579285Y-124742857D01*
X124484047Y-124790476D01*
X124103095Y-124790476D01*
X125626904Y-125266666D02*
X125055476Y-125266666D01*
X125341190Y-125266666D02*
X125341190Y-124266666D01*
X125245952Y-124409524D01*
X125150714Y-124504762D01*
X125055476Y-124552381D01*
D10*
%TO.C,*%
D11*
X146955476Y-111219047D02*
X147098333Y-111266666D01*
X147336428Y-111266666D01*
X147431666Y-111219047D01*
X147479285Y-111171428D01*
X147526904Y-111076190D01*
X147526904Y-110980952D01*
X147479285Y-110885714D01*
X147431666Y-110838095D01*
X147336428Y-110790476D01*
X147145952Y-110742857D01*
X147050714Y-110695238D01*
X147003095Y-110647619D01*
X146955476Y-110552381D01*
X146955476Y-110457143D01*
X147003095Y-110361905D01*
X147050714Y-110314286D01*
X147145952Y-110266666D01*
X147384047Y-110266666D01*
X147526904Y-110314286D01*
X147907857Y-111219047D02*
X148050714Y-111266666D01*
X148288809Y-111266666D01*
X148384047Y-111219047D01*
X148431666Y-111171428D01*
X148479285Y-111076190D01*
X148479285Y-110980952D01*
X148431666Y-110885714D01*
X148384047Y-110838095D01*
X148288809Y-110790476D01*
X148098333Y-110742857D01*
X148003095Y-110695238D01*
X147955476Y-110647619D01*
X147907857Y-110552381D01*
X147907857Y-110457143D01*
X147955476Y-110361905D01*
X148003095Y-110314286D01*
X148098333Y-110266666D01*
X148336428Y-110266666D01*
X148479285Y-110314286D01*
X148765000Y-110266666D02*
X149336428Y-110266666D01*
X149050714Y-111266666D02*
X149050714Y-110266666D01*
X149574523Y-110266666D02*
X150241190Y-111266666D01*
X150241190Y-110266666D02*
X149574523Y-111266666D01*
X150622142Y-111266666D02*
X150622142Y-110266666D01*
X151193571Y-111266666D01*
X151193571Y-110266666D01*
X152193571Y-111266666D02*
X151622142Y-111266666D01*
X151907857Y-111266666D02*
X151907857Y-110266666D01*
X151812619Y-110409524D01*
X151717380Y-110504762D01*
X151622142Y-110552381D01*
D10*
D11*
%TO.C,R5*%
X132274523Y-118866666D02*
X131941190Y-118390476D01*
X131703095Y-118866666D02*
X131703095Y-117866666D01*
X132084047Y-117866666D01*
X132179285Y-117914286D01*
X132226904Y-117961905D01*
X132274523Y-118057143D01*
X132274523Y-118200000D01*
X132226904Y-118295238D01*
X132179285Y-118342857D01*
X132084047Y-118390476D01*
X131703095Y-118390476D01*
X133179285Y-117866666D02*
X132703095Y-117866666D01*
X132655476Y-118342857D01*
X132703095Y-118295238D01*
X132798333Y-118247619D01*
X133036428Y-118247619D01*
X133131666Y-118295238D01*
X133179285Y-118342857D01*
X133226904Y-118438095D01*
X133226904Y-118676190D01*
X133179285Y-118771428D01*
X133131666Y-118819047D01*
X133036428Y-118866666D01*
X132798333Y-118866666D01*
X132703095Y-118819047D01*
X132655476Y-118771428D01*
%TO.C,LED7*%
X126579285Y-115666666D02*
X126103095Y-115666666D01*
X126103095Y-114666666D01*
X126912619Y-115142857D02*
X127245952Y-115142857D01*
X127388809Y-115666666D02*
X126912619Y-115666666D01*
X126912619Y-114666666D01*
X127388809Y-114666666D01*
X127817380Y-115666666D02*
X127817380Y-114666666D01*
X128055476Y-114666666D01*
X128198333Y-114714286D01*
X128293571Y-114809524D01*
X128341190Y-114904762D01*
X128388809Y-115095238D01*
X128388809Y-115238095D01*
X128341190Y-115428571D01*
X128293571Y-115523809D01*
X128198333Y-115619047D01*
X128055476Y-115666666D01*
X127817380Y-115666666D01*
X128722142Y-114666666D02*
X129388809Y-114666666D01*
X128960238Y-115666666D01*
%TO.C,LED15*%
X141779285Y-102866666D02*
X141303095Y-102866666D01*
X141303095Y-101866666D01*
X142112619Y-102342857D02*
X142445952Y-102342857D01*
X142588809Y-102866666D02*
X142112619Y-102866666D01*
X142112619Y-101866666D01*
X142588809Y-101866666D01*
X143017380Y-102866666D02*
X143017380Y-101866666D01*
X143255476Y-101866666D01*
X143398333Y-101914286D01*
X143493571Y-102009524D01*
X143541190Y-102104762D01*
X143588809Y-102295238D01*
X143588809Y-102438095D01*
X143541190Y-102628571D01*
X143493571Y-102723809D01*
X143398333Y-102819047D01*
X143255476Y-102866666D01*
X143017380Y-102866666D01*
X144541190Y-102866666D02*
X143969761Y-102866666D01*
X144255476Y-102866666D02*
X144255476Y-101866666D01*
X144160238Y-102009524D01*
X144065000Y-102104762D01*
X143969761Y-102152381D01*
X145445952Y-101866666D02*
X144969761Y-101866666D01*
X144922142Y-102342857D01*
X144969761Y-102295238D01*
X145065000Y-102247619D01*
X145303095Y-102247619D01*
X145398333Y-102295238D01*
X145445952Y-102342857D01*
X145493571Y-102438095D01*
X145493571Y-102676190D01*
X145445952Y-102771428D01*
X145398333Y-102819047D01*
X145303095Y-102866666D01*
X145065000Y-102866666D01*
X144969761Y-102819047D01*
X144922142Y-102771428D01*
D10*
%TO.C,*%
D11*
%TO.C,R14*%
X149374523Y-104466666D02*
X149041190Y-103990476D01*
X148803095Y-104466666D02*
X148803095Y-103466666D01*
X149184047Y-103466666D01*
X149279285Y-103514286D01*
X149326904Y-103561905D01*
X149374523Y-103657143D01*
X149374523Y-103800000D01*
X149326904Y-103895238D01*
X149279285Y-103942857D01*
X149184047Y-103990476D01*
X148803095Y-103990476D01*
X150326904Y-104466666D02*
X149755476Y-104466666D01*
X150041190Y-104466666D02*
X150041190Y-103466666D01*
X149945952Y-103609524D01*
X149850714Y-103704762D01*
X149755476Y-103752381D01*
X151184047Y-103800000D02*
X151184047Y-104466666D01*
X150945952Y-103419047D02*
X150707857Y-104133333D01*
X151326904Y-104133333D01*
D10*
%TO.C,*%
D11*
X134274523Y-122371428D02*
X134226904Y-122419047D01*
X134084047Y-122466666D01*
X133988809Y-122466666D01*
X133845952Y-122419047D01*
X133750714Y-122323809D01*
X133703095Y-122228571D01*
X133655476Y-122038095D01*
X133655476Y-121895238D01*
X133703095Y-121704762D01*
X133750714Y-121609524D01*
X133845952Y-121514286D01*
X133988809Y-121466666D01*
X134084047Y-121466666D01*
X134226904Y-121514286D01*
X134274523Y-121561905D01*
X135274523Y-122371428D02*
X135226904Y-122419047D01*
X135084047Y-122466666D01*
X134988809Y-122466666D01*
X134845952Y-122419047D01*
X134750714Y-122323809D01*
X134703095Y-122228571D01*
X134655476Y-122038095D01*
X134655476Y-121895238D01*
X134703095Y-121704762D01*
X134750714Y-121609524D01*
X134845952Y-121514286D01*
X134988809Y-121466666D01*
X135084047Y-121466666D01*
X135226904Y-121514286D01*
X135274523Y-121561905D01*
X135655476Y-121561905D02*
X135703095Y-121514286D01*
X135798333Y-121466666D01*
X136036428Y-121466666D01*
X136131666Y-121514286D01*
X136179285Y-121561905D01*
X136226904Y-121657143D01*
X136226904Y-121752381D01*
X136179285Y-121895238D01*
X135607857Y-122466666D01*
X136226904Y-122466666D01*
%TO.C,LED5*%
X122779285Y-118866666D02*
X122303095Y-118866666D01*
X122303095Y-117866666D01*
X123112619Y-118342857D02*
X123445952Y-118342857D01*
X123588809Y-118866666D02*
X123112619Y-118866666D01*
X123112619Y-117866666D01*
X123588809Y-117866666D01*
X124017380Y-118866666D02*
X124017380Y-117866666D01*
X124255476Y-117866666D01*
X124398333Y-117914286D01*
X124493571Y-118009524D01*
X124541190Y-118104762D01*
X124588809Y-118295238D01*
X124588809Y-118438095D01*
X124541190Y-118628571D01*
X124493571Y-118723809D01*
X124398333Y-118819047D01*
X124255476Y-118866666D01*
X124017380Y-118866666D01*
X125493571Y-117866666D02*
X125017380Y-117866666D01*
X124969761Y-118342857D01*
X125017380Y-118295238D01*
X125112619Y-118247619D01*
X125350714Y-118247619D01*
X125445952Y-118295238D01*
X125493571Y-118342857D01*
X125541190Y-118438095D01*
X125541190Y-118676190D01*
X125493571Y-118771428D01*
X125445952Y-118819047D01*
X125350714Y-118866666D01*
X125112619Y-118866666D01*
X125017380Y-118819047D01*
X124969761Y-118771428D01*
%TO.C,LED4*%
X120879285Y-120466666D02*
X120403095Y-120466666D01*
X120403095Y-119466666D01*
X121212619Y-119942857D02*
X121545952Y-119942857D01*
X121688809Y-120466666D02*
X121212619Y-120466666D01*
X121212619Y-119466666D01*
X121688809Y-119466666D01*
X122117380Y-120466666D02*
X122117380Y-119466666D01*
X122355476Y-119466666D01*
X122498333Y-119514286D01*
X122593571Y-119609524D01*
X122641190Y-119704762D01*
X122688809Y-119895238D01*
X122688809Y-120038095D01*
X122641190Y-120228571D01*
X122593571Y-120323809D01*
X122498333Y-120419047D01*
X122355476Y-120466666D01*
X122117380Y-120466666D01*
X123545952Y-119800000D02*
X123545952Y-120466666D01*
X123307857Y-119419047D02*
X123069761Y-120133333D01*
X123688809Y-120133333D01*
D10*
%TO.C,*%
D11*
%TO.C,LED13*%
X137979285Y-106066666D02*
X137503095Y-106066666D01*
X137503095Y-105066666D01*
X138312619Y-105542857D02*
X138645952Y-105542857D01*
X138788809Y-106066666D02*
X138312619Y-106066666D01*
X138312619Y-105066666D01*
X138788809Y-105066666D01*
X139217380Y-106066666D02*
X139217380Y-105066666D01*
X139455476Y-105066666D01*
X139598333Y-105114286D01*
X139693571Y-105209524D01*
X139741190Y-105304762D01*
X139788809Y-105495238D01*
X139788809Y-105638095D01*
X139741190Y-105828571D01*
X139693571Y-105923809D01*
X139598333Y-106019047D01*
X139455476Y-106066666D01*
X139217380Y-106066666D01*
X140741190Y-106066666D02*
X140169761Y-106066666D01*
X140455476Y-106066666D02*
X140455476Y-105066666D01*
X140360238Y-105209524D01*
X140265000Y-105304762D01*
X140169761Y-105352381D01*
X141074523Y-105066666D02*
X141693571Y-105066666D01*
X141360238Y-105447619D01*
X141503095Y-105447619D01*
X141598333Y-105495238D01*
X141645952Y-105542857D01*
X141693571Y-105638095D01*
X141693571Y-105876190D01*
X141645952Y-105971428D01*
X141598333Y-106019047D01*
X141503095Y-106066666D01*
X141217380Y-106066666D01*
X141122142Y-106019047D01*
X141074523Y-105971428D01*
D10*
%TO.C,*%
D11*
X152703095Y-106466666D02*
X152703095Y-105466666D01*
X152941190Y-105466666D01*
X153084047Y-105514286D01*
X153179285Y-105609524D01*
X153226904Y-105704762D01*
X153274523Y-105895238D01*
X153274523Y-106038095D01*
X153226904Y-106228571D01*
X153179285Y-106323809D01*
X153084047Y-106419047D01*
X152941190Y-106466666D01*
X152703095Y-106466666D01*
X153703095Y-106466666D02*
X153703095Y-105466666D01*
X154084047Y-105466666D01*
X154179285Y-105514286D01*
X154226904Y-105561905D01*
X154274523Y-105657143D01*
X154274523Y-105800000D01*
X154226904Y-105895238D01*
X154179285Y-105942857D01*
X154084047Y-105990476D01*
X153703095Y-105990476D01*
X155226904Y-106466666D02*
X154655476Y-106466666D01*
X154941190Y-106466666D02*
X154941190Y-105466666D01*
X154845952Y-105609524D01*
X154750714Y-105704762D01*
X154655476Y-105752381D01*
D10*
D11*
X160255476Y-100019047D02*
X160398333Y-100066666D01*
X160636428Y-100066666D01*
X160731666Y-100019047D01*
X160779285Y-99971428D01*
X160826904Y-99876190D01*
X160826904Y-99780952D01*
X160779285Y-99685714D01*
X160731666Y-99638095D01*
X160636428Y-99590476D01*
X160445952Y-99542857D01*
X160350714Y-99495238D01*
X160303095Y-99447619D01*
X160255476Y-99352381D01*
X160255476Y-99257143D01*
X160303095Y-99161905D01*
X160350714Y-99114286D01*
X160445952Y-99066666D01*
X160684047Y-99066666D01*
X160826904Y-99114286D01*
X161207857Y-100019047D02*
X161350714Y-100066666D01*
X161588809Y-100066666D01*
X161684047Y-100019047D01*
X161731666Y-99971428D01*
X161779285Y-99876190D01*
X161779285Y-99780952D01*
X161731666Y-99685714D01*
X161684047Y-99638095D01*
X161588809Y-99590476D01*
X161398333Y-99542857D01*
X161303095Y-99495238D01*
X161255476Y-99447619D01*
X161207857Y-99352381D01*
X161207857Y-99257143D01*
X161255476Y-99161905D01*
X161303095Y-99114286D01*
X161398333Y-99066666D01*
X161636428Y-99066666D01*
X161779285Y-99114286D01*
X162779285Y-100066666D02*
X162445952Y-99590476D01*
X162207857Y-100066666D02*
X162207857Y-99066666D01*
X162588809Y-99066666D01*
X162684047Y-99114286D01*
X162731666Y-99161905D01*
X162779285Y-99257143D01*
X162779285Y-99400000D01*
X162731666Y-99495238D01*
X162684047Y-99542857D01*
X162588809Y-99590476D01*
X162207857Y-99590476D01*
X163112619Y-99066666D02*
X163779285Y-100066666D01*
X163779285Y-99066666D02*
X163112619Y-100066666D01*
X164160238Y-100066666D02*
X164160238Y-99066666D01*
X164541190Y-99066666D01*
X164636428Y-99114286D01*
X164684047Y-99161905D01*
X164731666Y-99257143D01*
X164731666Y-99400000D01*
X164684047Y-99495238D01*
X164636428Y-99542857D01*
X164541190Y-99590476D01*
X164160238Y-99590476D01*
X165112619Y-99161905D02*
X165160238Y-99114286D01*
X165255476Y-99066666D01*
X165493571Y-99066666D01*
X165588809Y-99114286D01*
X165636428Y-99161905D01*
X165684047Y-99257143D01*
X165684047Y-99352381D01*
X165636428Y-99495238D01*
X165065000Y-100066666D01*
X165684047Y-100066666D01*
%TO.C,LED2*%
X117079285Y-123666666D02*
X116603095Y-123666666D01*
X116603095Y-122666666D01*
X117412619Y-123142857D02*
X117745952Y-123142857D01*
X117888809Y-123666666D02*
X117412619Y-123666666D01*
X117412619Y-122666666D01*
X117888809Y-122666666D01*
X118317380Y-123666666D02*
X118317380Y-122666666D01*
X118555476Y-122666666D01*
X118698333Y-122714286D01*
X118793571Y-122809524D01*
X118841190Y-122904762D01*
X118888809Y-123095238D01*
X118888809Y-123238095D01*
X118841190Y-123428571D01*
X118793571Y-123523809D01*
X118698333Y-123619047D01*
X118555476Y-123666666D01*
X118317380Y-123666666D01*
X119269761Y-122761905D02*
X119317380Y-122714286D01*
X119412619Y-122666666D01*
X119650714Y-122666666D01*
X119745952Y-122714286D01*
X119793571Y-122761905D01*
X119841190Y-122857143D01*
X119841190Y-122952381D01*
X119793571Y-123095238D01*
X119222142Y-123666666D01*
X119841190Y-123666666D01*
%TO.C,LED9*%
X130379285Y-112466666D02*
X129903095Y-112466666D01*
X129903095Y-111466666D01*
X130712619Y-111942857D02*
X131045952Y-111942857D01*
X131188809Y-112466666D02*
X130712619Y-112466666D01*
X130712619Y-111466666D01*
X131188809Y-111466666D01*
X131617380Y-112466666D02*
X131617380Y-111466666D01*
X131855476Y-111466666D01*
X131998333Y-111514286D01*
X132093571Y-111609524D01*
X132141190Y-111704762D01*
X132188809Y-111895238D01*
X132188809Y-112038095D01*
X132141190Y-112228571D01*
X132093571Y-112323809D01*
X131998333Y-112419047D01*
X131855476Y-112466666D01*
X131617380Y-112466666D01*
X132665000Y-112466666D02*
X132855476Y-112466666D01*
X132950714Y-112419047D01*
X132998333Y-112371428D01*
X133093571Y-112228571D01*
X133141190Y-112038095D01*
X133141190Y-111657143D01*
X133093571Y-111561905D01*
X133045952Y-111514286D01*
X132950714Y-111466666D01*
X132760238Y-111466666D01*
X132665000Y-111514286D01*
X132617380Y-111561905D01*
X132569761Y-111657143D01*
X132569761Y-111895238D01*
X132617380Y-111990476D01*
X132665000Y-112038095D01*
X132760238Y-112085714D01*
X132950714Y-112085714D01*
X133045952Y-112038095D01*
X133093571Y-111990476D01*
X133141190Y-111895238D01*
%TO.C,R2*%
X126574523Y-123666666D02*
X126241190Y-123190476D01*
X126003095Y-123666666D02*
X126003095Y-122666666D01*
X126384047Y-122666666D01*
X126479285Y-122714286D01*
X126526904Y-122761905D01*
X126574523Y-122857143D01*
X126574523Y-123000000D01*
X126526904Y-123095238D01*
X126479285Y-123142857D01*
X126384047Y-123190476D01*
X126003095Y-123190476D01*
X126955476Y-122761905D02*
X127003095Y-122714286D01*
X127098333Y-122666666D01*
X127336428Y-122666666D01*
X127431666Y-122714286D01*
X127479285Y-122761905D01*
X127526904Y-122857143D01*
X127526904Y-122952381D01*
X127479285Y-123095238D01*
X126907857Y-123666666D01*
X127526904Y-123666666D01*
D10*
%TO.C,*%
D11*
%TO.C,LED16*%
X143679285Y-101266666D02*
X143203095Y-101266666D01*
X143203095Y-100266666D01*
X144012619Y-100742857D02*
X144345952Y-100742857D01*
X144488809Y-101266666D02*
X144012619Y-101266666D01*
X144012619Y-100266666D01*
X144488809Y-100266666D01*
X144917380Y-101266666D02*
X144917380Y-100266666D01*
X145155476Y-100266666D01*
X145298333Y-100314286D01*
X145393571Y-100409524D01*
X145441190Y-100504762D01*
X145488809Y-100695238D01*
X145488809Y-100838095D01*
X145441190Y-101028571D01*
X145393571Y-101123809D01*
X145298333Y-101219047D01*
X145155476Y-101266666D01*
X144917380Y-101266666D01*
X146441190Y-101266666D02*
X145869761Y-101266666D01*
X146155476Y-101266666D02*
X146155476Y-100266666D01*
X146060238Y-100409524D01*
X145965000Y-100504762D01*
X145869761Y-100552381D01*
X147298333Y-100266666D02*
X147107857Y-100266666D01*
X147012619Y-100314286D01*
X146965000Y-100361905D01*
X146869761Y-100504762D01*
X146822142Y-100695238D01*
X146822142Y-101076190D01*
X146869761Y-101171428D01*
X146917380Y-101219047D01*
X147012619Y-101266666D01*
X147203095Y-101266666D01*
X147298333Y-101219047D01*
X147345952Y-101171428D01*
X147393571Y-101076190D01*
X147393571Y-100838095D01*
X147345952Y-100742857D01*
X147298333Y-100695238D01*
X147203095Y-100647619D01*
X147012619Y-100647619D01*
X146917380Y-100695238D01*
X146869761Y-100742857D01*
X146822142Y-100838095D01*
%TO.C,B1*%
X128960571Y-94105571D02*
X129008190Y-93962714D01*
X129055809Y-93915095D01*
X129151047Y-93867476D01*
X129293904Y-93867476D01*
X129389142Y-93915095D01*
X129436761Y-93962714D01*
X129484380Y-94057952D01*
X129484380Y-94438904D01*
X128484380Y-94438904D01*
X128484380Y-94105571D01*
X128532000Y-94010333D01*
X128579619Y-93962714D01*
X128674857Y-93915095D01*
X128770095Y-93915095D01*
X128865333Y-93962714D01*
X128912952Y-94010333D01*
X128960571Y-94105571D01*
X128960571Y-94438904D01*
X129484380Y-92915095D02*
X129484380Y-93486523D01*
X129484380Y-93200809D02*
X128484380Y-93200809D01*
X128627238Y-93296047D01*
X128722476Y-93391285D01*
X128770095Y-93486523D01*
D10*
%TO.C,*%
D11*
X141255476Y-116019047D02*
X141398333Y-116066666D01*
X141636428Y-116066666D01*
X141731666Y-116019047D01*
X141779285Y-115971428D01*
X141826904Y-115876190D01*
X141826904Y-115780952D01*
X141779285Y-115685714D01*
X141731666Y-115638095D01*
X141636428Y-115590476D01*
X141445952Y-115542857D01*
X141350714Y-115495238D01*
X141303095Y-115447619D01*
X141255476Y-115352381D01*
X141255476Y-115257143D01*
X141303095Y-115161905D01*
X141350714Y-115114286D01*
X141445952Y-115066666D01*
X141684047Y-115066666D01*
X141826904Y-115114286D01*
X142207857Y-116019047D02*
X142350714Y-116066666D01*
X142588809Y-116066666D01*
X142684047Y-116019047D01*
X142731666Y-115971428D01*
X142779285Y-115876190D01*
X142779285Y-115780952D01*
X142731666Y-115685714D01*
X142684047Y-115638095D01*
X142588809Y-115590476D01*
X142398333Y-115542857D01*
X142303095Y-115495238D01*
X142255476Y-115447619D01*
X142207857Y-115352381D01*
X142207857Y-115257143D01*
X142255476Y-115161905D01*
X142303095Y-115114286D01*
X142398333Y-115066666D01*
X142636428Y-115066666D01*
X142779285Y-115114286D01*
X143779285Y-116066666D02*
X143445952Y-115590476D01*
X143207857Y-116066666D02*
X143207857Y-115066666D01*
X143588809Y-115066666D01*
X143684047Y-115114286D01*
X143731666Y-115161905D01*
X143779285Y-115257143D01*
X143779285Y-115400000D01*
X143731666Y-115495238D01*
X143684047Y-115542857D01*
X143588809Y-115590476D01*
X143207857Y-115590476D01*
X144112619Y-115066666D02*
X144779285Y-116066666D01*
X144779285Y-115066666D02*
X144112619Y-116066666D01*
X145160238Y-116066666D02*
X145160238Y-115066666D01*
X145731666Y-116066666D01*
X145731666Y-115066666D01*
X146731666Y-116066666D02*
X146160238Y-116066666D01*
X146445952Y-116066666D02*
X146445952Y-115066666D01*
X146350714Y-115209524D01*
X146255476Y-115304762D01*
X146160238Y-115352381D01*
D10*
D11*
%TO.C,R9*%
X139874523Y-112466666D02*
X139541190Y-111990476D01*
X139303095Y-112466666D02*
X139303095Y-111466666D01*
X139684047Y-111466666D01*
X139779285Y-111514286D01*
X139826904Y-111561905D01*
X139874523Y-111657143D01*
X139874523Y-111800000D01*
X139826904Y-111895238D01*
X139779285Y-111942857D01*
X139684047Y-111990476D01*
X139303095Y-111990476D01*
X140350714Y-112466666D02*
X140541190Y-112466666D01*
X140636428Y-112419047D01*
X140684047Y-112371428D01*
X140779285Y-112228571D01*
X140826904Y-112038095D01*
X140826904Y-111657143D01*
X140779285Y-111561905D01*
X140731666Y-111514286D01*
X140636428Y-111466666D01*
X140445952Y-111466666D01*
X140350714Y-111514286D01*
X140303095Y-111561905D01*
X140255476Y-111657143D01*
X140255476Y-111895238D01*
X140303095Y-111990476D01*
X140350714Y-112038095D01*
X140445952Y-112085714D01*
X140636428Y-112085714D01*
X140731666Y-112038095D01*
X140779285Y-111990476D01*
X140826904Y-111895238D01*
D10*
%TO.C,*%
D11*
X139355476Y-117619047D02*
X139498333Y-117666666D01*
X139736428Y-117666666D01*
X139831666Y-117619047D01*
X139879285Y-117571428D01*
X139926904Y-117476190D01*
X139926904Y-117380952D01*
X139879285Y-117285714D01*
X139831666Y-117238095D01*
X139736428Y-117190476D01*
X139545952Y-117142857D01*
X139450714Y-117095238D01*
X139403095Y-117047619D01*
X139355476Y-116952381D01*
X139355476Y-116857143D01*
X139403095Y-116761905D01*
X139450714Y-116714286D01*
X139545952Y-116666666D01*
X139784047Y-116666666D01*
X139926904Y-116714286D01*
X140688809Y-117142857D02*
X140831666Y-117190476D01*
X140879285Y-117238095D01*
X140926904Y-117333333D01*
X140926904Y-117476190D01*
X140879285Y-117571428D01*
X140831666Y-117619047D01*
X140736428Y-117666666D01*
X140355476Y-117666666D01*
X140355476Y-116666666D01*
X140688809Y-116666666D01*
X140784047Y-116714286D01*
X140831666Y-116761905D01*
X140879285Y-116857143D01*
X140879285Y-116952381D01*
X140831666Y-117047619D01*
X140784047Y-117095238D01*
X140688809Y-117142857D01*
X140355476Y-117142857D01*
X141355476Y-116666666D02*
X141355476Y-117476190D01*
X141403095Y-117571428D01*
X141450714Y-117619047D01*
X141545952Y-117666666D01*
X141736428Y-117666666D01*
X141831666Y-117619047D01*
X141879285Y-117571428D01*
X141926904Y-117476190D01*
X141926904Y-116666666D01*
X142355476Y-116761905D02*
X142403095Y-116714286D01*
X142498333Y-116666666D01*
X142736428Y-116666666D01*
X142831666Y-116714286D01*
X142879285Y-116761905D01*
X142926904Y-116857143D01*
X142926904Y-116952381D01*
X142879285Y-117095238D01*
X142307857Y-117666666D01*
X142926904Y-117666666D01*
D10*
D11*
%TO.C,R3*%
X128474523Y-122066666D02*
X128141190Y-121590476D01*
X127903095Y-122066666D02*
X127903095Y-121066666D01*
X128284047Y-121066666D01*
X128379285Y-121114286D01*
X128426904Y-121161905D01*
X128474523Y-121257143D01*
X128474523Y-121400000D01*
X128426904Y-121495238D01*
X128379285Y-121542857D01*
X128284047Y-121590476D01*
X127903095Y-121590476D01*
X128807857Y-121066666D02*
X129426904Y-121066666D01*
X129093571Y-121447619D01*
X129236428Y-121447619D01*
X129331666Y-121495238D01*
X129379285Y-121542857D01*
X129426904Y-121638095D01*
X129426904Y-121876190D01*
X129379285Y-121971428D01*
X129331666Y-122019047D01*
X129236428Y-122066666D01*
X128950714Y-122066666D01*
X128855476Y-122019047D01*
X128807857Y-121971428D01*
%TO.C,LED8*%
X128479285Y-114066666D02*
X128003095Y-114066666D01*
X128003095Y-113066666D01*
X128812619Y-113542857D02*
X129145952Y-113542857D01*
X129288809Y-114066666D02*
X128812619Y-114066666D01*
X128812619Y-113066666D01*
X129288809Y-113066666D01*
X129717380Y-114066666D02*
X129717380Y-113066666D01*
X129955476Y-113066666D01*
X130098333Y-113114286D01*
X130193571Y-113209524D01*
X130241190Y-113304762D01*
X130288809Y-113495238D01*
X130288809Y-113638095D01*
X130241190Y-113828571D01*
X130193571Y-113923809D01*
X130098333Y-114019047D01*
X129955476Y-114066666D01*
X129717380Y-114066666D01*
X130860238Y-113495238D02*
X130765000Y-113447619D01*
X130717380Y-113400000D01*
X130669761Y-113304762D01*
X130669761Y-113257143D01*
X130717380Y-113161905D01*
X130765000Y-113114286D01*
X130860238Y-113066666D01*
X131050714Y-113066666D01*
X131145952Y-113114286D01*
X131193571Y-113161905D01*
X131241190Y-113257143D01*
X131241190Y-113304762D01*
X131193571Y-113400000D01*
X131145952Y-113447619D01*
X131050714Y-113495238D01*
X130860238Y-113495238D01*
X130765000Y-113542857D01*
X130717380Y-113590476D01*
X130669761Y-113685714D01*
X130669761Y-113876190D01*
X130717380Y-113971428D01*
X130765000Y-114019047D01*
X130860238Y-114066666D01*
X131050714Y-114066666D01*
X131145952Y-114019047D01*
X131193571Y-113971428D01*
X131241190Y-113876190D01*
X131241190Y-113685714D01*
X131193571Y-113590476D01*
X131145952Y-113542857D01*
X131050714Y-113495238D01*
D10*
%TO.C,*%
D11*
%TO.C,LED6*%
X124679285Y-117266666D02*
X124203095Y-117266666D01*
X124203095Y-116266666D01*
X125012619Y-116742857D02*
X125345952Y-116742857D01*
X125488809Y-117266666D02*
X125012619Y-117266666D01*
X125012619Y-116266666D01*
X125488809Y-116266666D01*
X125917380Y-117266666D02*
X125917380Y-116266666D01*
X126155476Y-116266666D01*
X126298333Y-116314286D01*
X126393571Y-116409524D01*
X126441190Y-116504762D01*
X126488809Y-116695238D01*
X126488809Y-116838095D01*
X126441190Y-117028571D01*
X126393571Y-117123809D01*
X126298333Y-117219047D01*
X126155476Y-117266666D01*
X125917380Y-117266666D01*
X127345952Y-116266666D02*
X127155476Y-116266666D01*
X127060238Y-116314286D01*
X127012619Y-116361905D01*
X126917380Y-116504762D01*
X126869761Y-116695238D01*
X126869761Y-117076190D01*
X126917380Y-117171428D01*
X126965000Y-117219047D01*
X127060238Y-117266666D01*
X127250714Y-117266666D01*
X127345952Y-117219047D01*
X127393571Y-117171428D01*
X127441190Y-117076190D01*
X127441190Y-116838095D01*
X127393571Y-116742857D01*
X127345952Y-116695238D01*
X127250714Y-116647619D01*
X127060238Y-116647619D01*
X126965000Y-116695238D01*
X126917380Y-116742857D01*
X126869761Y-116838095D01*
D10*
%TO.C,*%
D11*
X145055476Y-112819047D02*
X145198333Y-112866666D01*
X145436428Y-112866666D01*
X145531666Y-112819047D01*
X145579285Y-112771428D01*
X145626904Y-112676190D01*
X145626904Y-112580952D01*
X145579285Y-112485714D01*
X145531666Y-112438095D01*
X145436428Y-112390476D01*
X145245952Y-112342857D01*
X145150714Y-112295238D01*
X145103095Y-112247619D01*
X145055476Y-112152381D01*
X145055476Y-112057143D01*
X145103095Y-111961905D01*
X145150714Y-111914286D01*
X145245952Y-111866666D01*
X145484047Y-111866666D01*
X145626904Y-111914286D01*
X146007857Y-112819047D02*
X146150714Y-112866666D01*
X146388809Y-112866666D01*
X146484047Y-112819047D01*
X146531666Y-112771428D01*
X146579285Y-112676190D01*
X146579285Y-112580952D01*
X146531666Y-112485714D01*
X146484047Y-112438095D01*
X146388809Y-112390476D01*
X146198333Y-112342857D01*
X146103095Y-112295238D01*
X146055476Y-112247619D01*
X146007857Y-112152381D01*
X146007857Y-112057143D01*
X146055476Y-111961905D01*
X146103095Y-111914286D01*
X146198333Y-111866666D01*
X146436428Y-111866666D01*
X146579285Y-111914286D01*
X146865000Y-111866666D02*
X147436428Y-111866666D01*
X147150714Y-112866666D02*
X147150714Y-111866666D01*
X147674523Y-111866666D02*
X148341190Y-112866666D01*
X148341190Y-111866666D02*
X147674523Y-112866666D01*
X148722142Y-112866666D02*
X148722142Y-111866666D01*
X149103095Y-111866666D01*
X149198333Y-111914286D01*
X149245952Y-111961905D01*
X149293571Y-112057143D01*
X149293571Y-112200000D01*
X149245952Y-112295238D01*
X149198333Y-112342857D01*
X149103095Y-112390476D01*
X148722142Y-112390476D01*
X150245952Y-112866666D02*
X149674523Y-112866666D01*
X149960238Y-112866666D02*
X149960238Y-111866666D01*
X149865000Y-112009524D01*
X149769761Y-112104762D01*
X149674523Y-112152381D01*
%TO.C,R12*%
X145574523Y-107666666D02*
X145241190Y-107190476D01*
X145003095Y-107666666D02*
X145003095Y-106666666D01*
X145384047Y-106666666D01*
X145479285Y-106714286D01*
X145526904Y-106761905D01*
X145574523Y-106857143D01*
X145574523Y-107000000D01*
X145526904Y-107095238D01*
X145479285Y-107142857D01*
X145384047Y-107190476D01*
X145003095Y-107190476D01*
X146526904Y-107666666D02*
X145955476Y-107666666D01*
X146241190Y-107666666D02*
X146241190Y-106666666D01*
X146145952Y-106809524D01*
X146050714Y-106904762D01*
X145955476Y-106952381D01*
X146907857Y-106761905D02*
X146955476Y-106714286D01*
X147050714Y-106666666D01*
X147288809Y-106666666D01*
X147384047Y-106714286D01*
X147431666Y-106761905D01*
X147479285Y-106857143D01*
X147479285Y-106952381D01*
X147431666Y-107095238D01*
X146860238Y-107666666D01*
X147479285Y-107666666D01*
%TO.C,LED18*%
X147479285Y-98066666D02*
X147003095Y-98066666D01*
X147003095Y-97066666D01*
X147812619Y-97542857D02*
X148145952Y-97542857D01*
X148288809Y-98066666D02*
X147812619Y-98066666D01*
X147812619Y-97066666D01*
X148288809Y-97066666D01*
X148717380Y-98066666D02*
X148717380Y-97066666D01*
X148955476Y-97066666D01*
X149098333Y-97114286D01*
X149193571Y-97209524D01*
X149241190Y-97304762D01*
X149288809Y-97495238D01*
X149288809Y-97638095D01*
X149241190Y-97828571D01*
X149193571Y-97923809D01*
X149098333Y-98019047D01*
X148955476Y-98066666D01*
X148717380Y-98066666D01*
X150241190Y-98066666D02*
X149669761Y-98066666D01*
X149955476Y-98066666D02*
X149955476Y-97066666D01*
X149860238Y-97209524D01*
X149765000Y-97304762D01*
X149669761Y-97352381D01*
X150812619Y-97495238D02*
X150717380Y-97447619D01*
X150669761Y-97400000D01*
X150622142Y-97304762D01*
X150622142Y-97257143D01*
X150669761Y-97161905D01*
X150717380Y-97114286D01*
X150812619Y-97066666D01*
X151003095Y-97066666D01*
X151098333Y-97114286D01*
X151145952Y-97161905D01*
X151193571Y-97257143D01*
X151193571Y-97304762D01*
X151145952Y-97400000D01*
X151098333Y-97447619D01*
X151003095Y-97495238D01*
X150812619Y-97495238D01*
X150717380Y-97542857D01*
X150669761Y-97590476D01*
X150622142Y-97685714D01*
X150622142Y-97876190D01*
X150669761Y-97971428D01*
X150717380Y-98019047D01*
X150812619Y-98066666D01*
X151003095Y-98066666D01*
X151098333Y-98019047D01*
X151145952Y-97971428D01*
X151193571Y-97876190D01*
X151193571Y-97685714D01*
X151145952Y-97590476D01*
X151098333Y-97542857D01*
X151003095Y-97495238D01*
D10*
%TO.C,*%
D11*
X151374523Y-107971428D02*
X151326904Y-108019047D01*
X151184047Y-108066666D01*
X151088809Y-108066666D01*
X150945952Y-108019047D01*
X150850714Y-107923809D01*
X150803095Y-107828571D01*
X150755476Y-107638095D01*
X150755476Y-107495238D01*
X150803095Y-107304762D01*
X150850714Y-107209524D01*
X150945952Y-107114286D01*
X151088809Y-107066666D01*
X151184047Y-107066666D01*
X151326904Y-107114286D01*
X151374523Y-107161905D01*
X152374523Y-107971428D02*
X152326904Y-108019047D01*
X152184047Y-108066666D01*
X152088809Y-108066666D01*
X151945952Y-108019047D01*
X151850714Y-107923809D01*
X151803095Y-107828571D01*
X151755476Y-107638095D01*
X151755476Y-107495238D01*
X151803095Y-107304762D01*
X151850714Y-107209524D01*
X151945952Y-107114286D01*
X152088809Y-107066666D01*
X152184047Y-107066666D01*
X152326904Y-107114286D01*
X152374523Y-107161905D01*
X153326904Y-108066666D02*
X152755476Y-108066666D01*
X153041190Y-108066666D02*
X153041190Y-107066666D01*
X152945952Y-107209524D01*
X152850714Y-107304762D01*
X152755476Y-107352381D01*
%TO.C,LED17*%
X145579285Y-99666666D02*
X145103095Y-99666666D01*
X145103095Y-98666666D01*
X145912619Y-99142857D02*
X146245952Y-99142857D01*
X146388809Y-99666666D02*
X145912619Y-99666666D01*
X145912619Y-98666666D01*
X146388809Y-98666666D01*
X146817380Y-99666666D02*
X146817380Y-98666666D01*
X147055476Y-98666666D01*
X147198333Y-98714286D01*
X147293571Y-98809524D01*
X147341190Y-98904762D01*
X147388809Y-99095238D01*
X147388809Y-99238095D01*
X147341190Y-99428571D01*
X147293571Y-99523809D01*
X147198333Y-99619047D01*
X147055476Y-99666666D01*
X146817380Y-99666666D01*
X148341190Y-99666666D02*
X147769761Y-99666666D01*
X148055476Y-99666666D02*
X148055476Y-98666666D01*
X147960238Y-98809524D01*
X147865000Y-98904762D01*
X147769761Y-98952381D01*
X148674523Y-98666666D02*
X149341190Y-98666666D01*
X148912619Y-99666666D01*
%TO.C,LED10*%
X132279285Y-110866666D02*
X131803095Y-110866666D01*
X131803095Y-109866666D01*
X132612619Y-110342857D02*
X132945952Y-110342857D01*
X133088809Y-110866666D02*
X132612619Y-110866666D01*
X132612619Y-109866666D01*
X133088809Y-109866666D01*
X133517380Y-110866666D02*
X133517380Y-109866666D01*
X133755476Y-109866666D01*
X133898333Y-109914286D01*
X133993571Y-110009524D01*
X134041190Y-110104762D01*
X134088809Y-110295238D01*
X134088809Y-110438095D01*
X134041190Y-110628571D01*
X133993571Y-110723809D01*
X133898333Y-110819047D01*
X133755476Y-110866666D01*
X133517380Y-110866666D01*
X135041190Y-110866666D02*
X134469761Y-110866666D01*
X134755476Y-110866666D02*
X134755476Y-109866666D01*
X134660238Y-110009524D01*
X134565000Y-110104762D01*
X134469761Y-110152381D01*
X135660238Y-109866666D02*
X135755476Y-109866666D01*
X135850714Y-109914286D01*
X135898333Y-109961905D01*
X135945952Y-110057143D01*
X135993571Y-110247619D01*
X135993571Y-110485714D01*
X135945952Y-110676190D01*
X135898333Y-110771428D01*
X135850714Y-110819047D01*
X135755476Y-110866666D01*
X135660238Y-110866666D01*
X135565000Y-110819047D01*
X135517380Y-110771428D01*
X135469761Y-110676190D01*
X135422142Y-110485714D01*
X135422142Y-110247619D01*
X135469761Y-110057143D01*
X135517380Y-109961905D01*
X135565000Y-109914286D01*
X135660238Y-109866666D01*
D10*
%TO.C,*%
D11*
X148760238Y-108666666D02*
X149093571Y-109666666D01*
X149426904Y-108666666D01*
X150093571Y-109142857D02*
X150236428Y-109190476D01*
X150284047Y-109238095D01*
X150331666Y-109333333D01*
X150331666Y-109476190D01*
X150284047Y-109571428D01*
X150236428Y-109619047D01*
X150141190Y-109666666D01*
X149760238Y-109666666D01*
X149760238Y-108666666D01*
X150093571Y-108666666D01*
X150188809Y-108714286D01*
X150236428Y-108761905D01*
X150284047Y-108857143D01*
X150284047Y-108952381D01*
X150236428Y-109047619D01*
X150188809Y-109095238D01*
X150093571Y-109142857D01*
X149760238Y-109142857D01*
X150760238Y-108666666D02*
X150760238Y-109476190D01*
X150807857Y-109571428D01*
X150855476Y-109619047D01*
X150950714Y-109666666D01*
X151141190Y-109666666D01*
X151236428Y-109619047D01*
X151284047Y-109571428D01*
X151331666Y-109476190D01*
X151331666Y-108666666D01*
X151760238Y-109619047D02*
X151903095Y-109666666D01*
X152141190Y-109666666D01*
X152236428Y-109619047D01*
X152284047Y-109571428D01*
X152331666Y-109476190D01*
X152331666Y-109380952D01*
X152284047Y-109285714D01*
X152236428Y-109238095D01*
X152141190Y-109190476D01*
X151950714Y-109142857D01*
X151855476Y-109095238D01*
X151807857Y-109047619D01*
X151760238Y-108952381D01*
X151760238Y-108857143D01*
X151807857Y-108761905D01*
X151855476Y-108714286D01*
X151950714Y-108666666D01*
X152188809Y-108666666D01*
X152331666Y-108714286D01*
%TO.C,R10*%
X141774523Y-110866666D02*
X141441190Y-110390476D01*
X141203095Y-110866666D02*
X141203095Y-109866666D01*
X141584047Y-109866666D01*
X141679285Y-109914286D01*
X141726904Y-109961905D01*
X141774523Y-110057143D01*
X141774523Y-110200000D01*
X141726904Y-110295238D01*
X141679285Y-110342857D01*
X141584047Y-110390476D01*
X141203095Y-110390476D01*
X142726904Y-110866666D02*
X142155476Y-110866666D01*
X142441190Y-110866666D02*
X142441190Y-109866666D01*
X142345952Y-110009524D01*
X142250714Y-110104762D01*
X142155476Y-110152381D01*
X143345952Y-109866666D02*
X143441190Y-109866666D01*
X143536428Y-109914286D01*
X143584047Y-109961905D01*
X143631666Y-110057143D01*
X143679285Y-110247619D01*
X143679285Y-110485714D01*
X143631666Y-110676190D01*
X143584047Y-110771428D01*
X143536428Y-110819047D01*
X143441190Y-110866666D01*
X143345952Y-110866666D01*
X143250714Y-110819047D01*
X143203095Y-110771428D01*
X143155476Y-110676190D01*
X143107857Y-110485714D01*
X143107857Y-110247619D01*
X143155476Y-110057143D01*
X143203095Y-109961905D01*
X143250714Y-109914286D01*
X143345952Y-109866666D01*
D10*
%TO.C,*%
D11*
%TO.C,LED14*%
X139879285Y-104466666D02*
X139403095Y-104466666D01*
X139403095Y-103466666D01*
X140212619Y-103942857D02*
X140545952Y-103942857D01*
X140688809Y-104466666D02*
X140212619Y-104466666D01*
X140212619Y-103466666D01*
X140688809Y-103466666D01*
X141117380Y-104466666D02*
X141117380Y-103466666D01*
X141355476Y-103466666D01*
X141498333Y-103514286D01*
X141593571Y-103609524D01*
X141641190Y-103704762D01*
X141688809Y-103895238D01*
X141688809Y-104038095D01*
X141641190Y-104228571D01*
X141593571Y-104323809D01*
X141498333Y-104419047D01*
X141355476Y-104466666D01*
X141117380Y-104466666D01*
X142641190Y-104466666D02*
X142069761Y-104466666D01*
X142355476Y-104466666D02*
X142355476Y-103466666D01*
X142260238Y-103609524D01*
X142165000Y-103704762D01*
X142069761Y-103752381D01*
X143498333Y-103800000D02*
X143498333Y-104466666D01*
X143260238Y-103419047D02*
X143022142Y-104133333D01*
X143641190Y-104133333D01*
%TO.C,R17*%
X155074523Y-99666666D02*
X154741190Y-99190476D01*
X154503095Y-99666666D02*
X154503095Y-98666666D01*
X154884047Y-98666666D01*
X154979285Y-98714286D01*
X155026904Y-98761905D01*
X155074523Y-98857143D01*
X155074523Y-99000000D01*
X155026904Y-99095238D01*
X154979285Y-99142857D01*
X154884047Y-99190476D01*
X154503095Y-99190476D01*
X156026904Y-99666666D02*
X155455476Y-99666666D01*
X155741190Y-99666666D02*
X155741190Y-98666666D01*
X155645952Y-98809524D01*
X155550714Y-98904762D01*
X155455476Y-98952381D01*
X156360238Y-98666666D02*
X157026904Y-98666666D01*
X156598333Y-99666666D01*
%TO.C,R18*%
X156974523Y-98066666D02*
X156641190Y-97590476D01*
X156403095Y-98066666D02*
X156403095Y-97066666D01*
X156784047Y-97066666D01*
X156879285Y-97114286D01*
X156926904Y-97161905D01*
X156974523Y-97257143D01*
X156974523Y-97400000D01*
X156926904Y-97495238D01*
X156879285Y-97542857D01*
X156784047Y-97590476D01*
X156403095Y-97590476D01*
X157926904Y-98066666D02*
X157355476Y-98066666D01*
X157641190Y-98066666D02*
X157641190Y-97066666D01*
X157545952Y-97209524D01*
X157450714Y-97304762D01*
X157355476Y-97352381D01*
X158498333Y-97495238D02*
X158403095Y-97447619D01*
X158355476Y-97400000D01*
X158307857Y-97304762D01*
X158307857Y-97257143D01*
X158355476Y-97161905D01*
X158403095Y-97114286D01*
X158498333Y-97066666D01*
X158688809Y-97066666D01*
X158784047Y-97114286D01*
X158831666Y-97161905D01*
X158879285Y-97257143D01*
X158879285Y-97304762D01*
X158831666Y-97400000D01*
X158784047Y-97447619D01*
X158688809Y-97495238D01*
X158498333Y-97495238D01*
X158403095Y-97542857D01*
X158355476Y-97590476D01*
X158307857Y-97685714D01*
X158307857Y-97876190D01*
X158355476Y-97971428D01*
X158403095Y-98019047D01*
X158498333Y-98066666D01*
X158688809Y-98066666D01*
X158784047Y-98019047D01*
X158831666Y-97971428D01*
X158879285Y-97876190D01*
X158879285Y-97685714D01*
X158831666Y-97590476D01*
X158784047Y-97542857D01*
X158688809Y-97495238D01*
D10*
%TO.C,*%
D11*
%TO.C,J2*%
X164588809Y-111952253D02*
X164588809Y-112666539D01*
X164541190Y-112809396D01*
X164445952Y-112904634D01*
X164303095Y-112952253D01*
X164207857Y-112952253D01*
X165017380Y-112047492D02*
X165065000Y-111999873D01*
X165160238Y-111952253D01*
X165398333Y-111952253D01*
X165493571Y-111999873D01*
X165541190Y-112047492D01*
X165588809Y-112142730D01*
X165588809Y-112237968D01*
X165541190Y-112380825D01*
X164969761Y-112952253D01*
X165588809Y-112952253D01*
D10*
%TO.C,*%
D11*
X137503095Y-119266666D02*
X137503095Y-118266666D01*
X137741190Y-118266666D01*
X137884047Y-118314286D01*
X137979285Y-118409524D01*
X138026904Y-118504762D01*
X138074523Y-118695238D01*
X138074523Y-118838095D01*
X138026904Y-119028571D01*
X137979285Y-119123809D01*
X137884047Y-119219047D01*
X137741190Y-119266666D01*
X137503095Y-119266666D01*
X138503095Y-119266666D02*
X138503095Y-118266666D01*
X139074523Y-119266666D01*
X139074523Y-118266666D01*
X139503095Y-118361905D02*
X139550714Y-118314286D01*
X139645952Y-118266666D01*
X139884047Y-118266666D01*
X139979285Y-118314286D01*
X140026904Y-118361905D01*
X140074523Y-118457143D01*
X140074523Y-118552381D01*
X140026904Y-118695238D01*
X139455476Y-119266666D01*
X140074523Y-119266666D01*
%TO.C,R13*%
X147474523Y-106066666D02*
X147141190Y-105590476D01*
X146903095Y-106066666D02*
X146903095Y-105066666D01*
X147284047Y-105066666D01*
X147379285Y-105114286D01*
X147426904Y-105161905D01*
X147474523Y-105257143D01*
X147474523Y-105400000D01*
X147426904Y-105495238D01*
X147379285Y-105542857D01*
X147284047Y-105590476D01*
X146903095Y-105590476D01*
X148426904Y-106066666D02*
X147855476Y-106066666D01*
X148141190Y-106066666D02*
X148141190Y-105066666D01*
X148045952Y-105209524D01*
X147950714Y-105304762D01*
X147855476Y-105352381D01*
X148760238Y-105066666D02*
X149379285Y-105066666D01*
X149045952Y-105447619D01*
X149188809Y-105447619D01*
X149284047Y-105495238D01*
X149331666Y-105542857D01*
X149379285Y-105638095D01*
X149379285Y-105876190D01*
X149331666Y-105971428D01*
X149284047Y-106019047D01*
X149188809Y-106066666D01*
X148903095Y-106066666D01*
X148807857Y-106019047D01*
X148760238Y-105971428D01*
%TO.C,R8*%
X137974523Y-114066666D02*
X137641190Y-113590476D01*
X137403095Y-114066666D02*
X137403095Y-113066666D01*
X137784047Y-113066666D01*
X137879285Y-113114286D01*
X137926904Y-113161905D01*
X137974523Y-113257143D01*
X137974523Y-113400000D01*
X137926904Y-113495238D01*
X137879285Y-113542857D01*
X137784047Y-113590476D01*
X137403095Y-113590476D01*
X138545952Y-113495238D02*
X138450714Y-113447619D01*
X138403095Y-113400000D01*
X138355476Y-113304762D01*
X138355476Y-113257143D01*
X138403095Y-113161905D01*
X138450714Y-113114286D01*
X138545952Y-113066666D01*
X138736428Y-113066666D01*
X138831666Y-113114286D01*
X138879285Y-113161905D01*
X138926904Y-113257143D01*
X138926904Y-113304762D01*
X138879285Y-113400000D01*
X138831666Y-113447619D01*
X138736428Y-113495238D01*
X138545952Y-113495238D01*
X138450714Y-113542857D01*
X138403095Y-113590476D01*
X138355476Y-113685714D01*
X138355476Y-113876190D01*
X138403095Y-113971428D01*
X138450714Y-114019047D01*
X138545952Y-114066666D01*
X138736428Y-114066666D01*
X138831666Y-114019047D01*
X138879285Y-113971428D01*
X138926904Y-113876190D01*
X138926904Y-113685714D01*
X138879285Y-113590476D01*
X138831666Y-113542857D01*
X138736428Y-113495238D01*
D10*
%TO.C,*%
D11*
X158355476Y-101619047D02*
X158498333Y-101666666D01*
X158736428Y-101666666D01*
X158831666Y-101619047D01*
X158879285Y-101571428D01*
X158926904Y-101476190D01*
X158926904Y-101380952D01*
X158879285Y-101285714D01*
X158831666Y-101238095D01*
X158736428Y-101190476D01*
X158545952Y-101142857D01*
X158450714Y-101095238D01*
X158403095Y-101047619D01*
X158355476Y-100952381D01*
X158355476Y-100857143D01*
X158403095Y-100761905D01*
X158450714Y-100714286D01*
X158545952Y-100666666D01*
X158784047Y-100666666D01*
X158926904Y-100714286D01*
X159307857Y-101619047D02*
X159450714Y-101666666D01*
X159688809Y-101666666D01*
X159784047Y-101619047D01*
X159831666Y-101571428D01*
X159879285Y-101476190D01*
X159879285Y-101380952D01*
X159831666Y-101285714D01*
X159784047Y-101238095D01*
X159688809Y-101190476D01*
X159498333Y-101142857D01*
X159403095Y-101095238D01*
X159355476Y-101047619D01*
X159307857Y-100952381D01*
X159307857Y-100857143D01*
X159355476Y-100761905D01*
X159403095Y-100714286D01*
X159498333Y-100666666D01*
X159736428Y-100666666D01*
X159879285Y-100714286D01*
X160879285Y-101666666D02*
X160545952Y-101190476D01*
X160307857Y-101666666D02*
X160307857Y-100666666D01*
X160688809Y-100666666D01*
X160784047Y-100714286D01*
X160831666Y-100761905D01*
X160879285Y-100857143D01*
X160879285Y-101000000D01*
X160831666Y-101095238D01*
X160784047Y-101142857D01*
X160688809Y-101190476D01*
X160307857Y-101190476D01*
X161212619Y-100666666D02*
X161879285Y-101666666D01*
X161879285Y-100666666D02*
X161212619Y-101666666D01*
X162260238Y-101666666D02*
X162260238Y-100666666D01*
X162831666Y-101666666D01*
X162831666Y-100666666D01*
X163260238Y-100761905D02*
X163307857Y-100714286D01*
X163403095Y-100666666D01*
X163641190Y-100666666D01*
X163736428Y-100714286D01*
X163784047Y-100761905D01*
X163831666Y-100857143D01*
X163831666Y-100952381D01*
X163784047Y-101095238D01*
X163212619Y-101666666D01*
X163831666Y-101666666D01*
D10*
D11*
%TO.C,J1*%
X115588809Y-111952253D02*
X115588809Y-112666539D01*
X115541190Y-112809396D01*
X115445952Y-112904634D01*
X115303095Y-112952253D01*
X115207857Y-112952253D01*
X116588809Y-112952253D02*
X116017380Y-112952253D01*
X116303095Y-112952253D02*
X116303095Y-111952253D01*
X116207857Y-112095111D01*
X116112619Y-112190349D01*
X116017380Y-112237968D01*
D10*
%TO.C,*%
D11*
%TO.C,LED12*%
X136079285Y-107666666D02*
X135603095Y-107666666D01*
X135603095Y-106666666D01*
X136412619Y-107142857D02*
X136745952Y-107142857D01*
X136888809Y-107666666D02*
X136412619Y-107666666D01*
X136412619Y-106666666D01*
X136888809Y-106666666D01*
X137317380Y-107666666D02*
X137317380Y-106666666D01*
X137555476Y-106666666D01*
X137698333Y-106714286D01*
X137793571Y-106809524D01*
X137841190Y-106904762D01*
X137888809Y-107095238D01*
X137888809Y-107238095D01*
X137841190Y-107428571D01*
X137793571Y-107523809D01*
X137698333Y-107619047D01*
X137555476Y-107666666D01*
X137317380Y-107666666D01*
X138841190Y-107666666D02*
X138269761Y-107666666D01*
X138555476Y-107666666D02*
X138555476Y-106666666D01*
X138460238Y-106809524D01*
X138365000Y-106904762D01*
X138269761Y-106952381D01*
X139222142Y-106761905D02*
X139269761Y-106714286D01*
X139365000Y-106666666D01*
X139603095Y-106666666D01*
X139698333Y-106714286D01*
X139745952Y-106761905D01*
X139793571Y-106857143D01*
X139793571Y-106952381D01*
X139745952Y-107095238D01*
X139174523Y-107666666D01*
X139793571Y-107666666D01*
D10*
%TO.C,*%
D11*
X154603095Y-104866666D02*
X154603095Y-103866666D01*
X154841190Y-103866666D01*
X154984047Y-103914286D01*
X155079285Y-104009524D01*
X155126904Y-104104762D01*
X155174523Y-104295238D01*
X155174523Y-104438095D01*
X155126904Y-104628571D01*
X155079285Y-104723809D01*
X154984047Y-104819047D01*
X154841190Y-104866666D01*
X154603095Y-104866666D01*
X155603095Y-104866666D02*
X155603095Y-103866666D01*
X156174523Y-104866666D01*
X156174523Y-103866666D01*
X157174523Y-104866666D02*
X156603095Y-104866666D01*
X156888809Y-104866666D02*
X156888809Y-103866666D01*
X156793571Y-104009524D01*
X156698333Y-104104762D01*
X156603095Y-104152381D01*
D10*
D11*
X162726904Y-97514286D02*
X162631666Y-97466666D01*
X162488809Y-97466666D01*
X162345952Y-97514286D01*
X162250714Y-97609524D01*
X162203095Y-97704762D01*
X162155476Y-97895238D01*
X162155476Y-98038095D01*
X162203095Y-98228571D01*
X162250714Y-98323809D01*
X162345952Y-98419047D01*
X162488809Y-98466666D01*
X162584047Y-98466666D01*
X162726904Y-98419047D01*
X162774523Y-98371428D01*
X162774523Y-98038095D01*
X162584047Y-98038095D01*
X163203095Y-98466666D02*
X163203095Y-97466666D01*
X163774523Y-98466666D01*
X163774523Y-97466666D01*
X164250714Y-98466666D02*
X164250714Y-97466666D01*
X164488809Y-97466666D01*
X164631666Y-97514286D01*
X164726904Y-97609524D01*
X164774523Y-97704762D01*
X164822142Y-97895238D01*
X164822142Y-98038095D01*
X164774523Y-98228571D01*
X164726904Y-98323809D01*
X164631666Y-98419047D01*
X164488809Y-98466666D01*
X164250714Y-98466666D01*
X165250714Y-98085714D02*
X166012619Y-98085714D01*
X166917380Y-97800000D02*
X166917380Y-98466666D01*
X166488809Y-97800000D02*
X166488809Y-98323809D01*
X166536428Y-98419047D01*
X166631666Y-98466666D01*
X166774523Y-98466666D01*
X166869761Y-98419047D01*
X166917380Y-98371428D01*
X167345952Y-98419047D02*
X167441190Y-98466666D01*
X167631666Y-98466666D01*
X167726904Y-98419047D01*
X167774523Y-98323809D01*
X167774523Y-98276190D01*
X167726904Y-98180952D01*
X167631666Y-98133333D01*
X167488809Y-98133333D01*
X167393571Y-98085714D01*
X167345952Y-97990476D01*
X167345952Y-97942857D01*
X167393571Y-97847619D01*
X167488809Y-97800000D01*
X167631666Y-97800000D01*
X167726904Y-97847619D01*
X168203095Y-98466666D02*
X168203095Y-97466666D01*
X168203095Y-97847619D02*
X168298333Y-97800000D01*
X168488809Y-97800000D01*
X168584047Y-97847619D01*
X168631666Y-97895238D01*
X168679285Y-97990476D01*
X168679285Y-98276190D01*
X168631666Y-98371428D01*
X168584047Y-98419047D01*
X168488809Y-98466666D01*
X168298333Y-98466666D01*
X168203095Y-98419047D01*
D10*
D11*
%TO.C,R15*%
X151274523Y-102866666D02*
X150941190Y-102390476D01*
X150703095Y-102866666D02*
X150703095Y-101866666D01*
X151084047Y-101866666D01*
X151179285Y-101914286D01*
X151226904Y-101961905D01*
X151274523Y-102057143D01*
X151274523Y-102200000D01*
X151226904Y-102295238D01*
X151179285Y-102342857D01*
X151084047Y-102390476D01*
X150703095Y-102390476D01*
X152226904Y-102866666D02*
X151655476Y-102866666D01*
X151941190Y-102866666D02*
X151941190Y-101866666D01*
X151845952Y-102009524D01*
X151750714Y-102104762D01*
X151655476Y-102152381D01*
X153131666Y-101866666D02*
X152655476Y-101866666D01*
X152607857Y-102342857D01*
X152655476Y-102295238D01*
X152750714Y-102247619D01*
X152988809Y-102247619D01*
X153084047Y-102295238D01*
X153131666Y-102342857D01*
X153179285Y-102438095D01*
X153179285Y-102676190D01*
X153131666Y-102771428D01*
X153084047Y-102819047D01*
X152988809Y-102866666D01*
X152750714Y-102866666D01*
X152655476Y-102819047D01*
X152607857Y-102771428D01*
D10*
%TO.C,*%
D11*
X135603095Y-120866666D02*
X135603095Y-119866666D01*
X135841190Y-119866666D01*
X135984047Y-119914286D01*
X136079285Y-120009524D01*
X136126904Y-120104762D01*
X136174523Y-120295238D01*
X136174523Y-120438095D01*
X136126904Y-120628571D01*
X136079285Y-120723809D01*
X135984047Y-120819047D01*
X135841190Y-120866666D01*
X135603095Y-120866666D01*
X136603095Y-120866666D02*
X136603095Y-119866666D01*
X136984047Y-119866666D01*
X137079285Y-119914286D01*
X137126904Y-119961905D01*
X137174523Y-120057143D01*
X137174523Y-120200000D01*
X137126904Y-120295238D01*
X137079285Y-120342857D01*
X136984047Y-120390476D01*
X136603095Y-120390476D01*
X137555476Y-119961905D02*
X137603095Y-119914286D01*
X137698333Y-119866666D01*
X137936428Y-119866666D01*
X138031666Y-119914286D01*
X138079285Y-119961905D01*
X138126904Y-120057143D01*
X138126904Y-120152381D01*
X138079285Y-120295238D01*
X137507857Y-120866666D01*
X138126904Y-120866666D01*
%TO.C,R4*%
X130374523Y-120466666D02*
X130041190Y-119990476D01*
X129803095Y-120466666D02*
X129803095Y-119466666D01*
X130184047Y-119466666D01*
X130279285Y-119514286D01*
X130326904Y-119561905D01*
X130374523Y-119657143D01*
X130374523Y-119800000D01*
X130326904Y-119895238D01*
X130279285Y-119942857D01*
X130184047Y-119990476D01*
X129803095Y-119990476D01*
X131231666Y-119800000D02*
X131231666Y-120466666D01*
X130993571Y-119419047D02*
X130755476Y-120133333D01*
X131374523Y-120133333D01*
%TO.C,R6*%
X134174523Y-117266666D02*
X133841190Y-116790476D01*
X133603095Y-117266666D02*
X133603095Y-116266666D01*
X133984047Y-116266666D01*
X134079285Y-116314286D01*
X134126904Y-116361905D01*
X134174523Y-116457143D01*
X134174523Y-116600000D01*
X134126904Y-116695238D01*
X134079285Y-116742857D01*
X133984047Y-116790476D01*
X133603095Y-116790476D01*
X135031666Y-116266666D02*
X134841190Y-116266666D01*
X134745952Y-116314286D01*
X134698333Y-116361905D01*
X134603095Y-116504762D01*
X134555476Y-116695238D01*
X134555476Y-117076190D01*
X134603095Y-117171428D01*
X134650714Y-117219047D01*
X134745952Y-117266666D01*
X134936428Y-117266666D01*
X135031666Y-117219047D01*
X135079285Y-117171428D01*
X135126904Y-117076190D01*
X135126904Y-116838095D01*
X135079285Y-116742857D01*
X135031666Y-116695238D01*
X134936428Y-116647619D01*
X134745952Y-116647619D01*
X134650714Y-116695238D01*
X134603095Y-116742857D01*
X134555476Y-116838095D01*
D10*
%TO.C,*%
D11*
X131755476Y-124019047D02*
X131898333Y-124066666D01*
X132136428Y-124066666D01*
X132231666Y-124019047D01*
X132279285Y-123971428D01*
X132326904Y-123876190D01*
X132326904Y-123780952D01*
X132279285Y-123685714D01*
X132231666Y-123638095D01*
X132136428Y-123590476D01*
X131945952Y-123542857D01*
X131850714Y-123495238D01*
X131803095Y-123447619D01*
X131755476Y-123352381D01*
X131755476Y-123257143D01*
X131803095Y-123161905D01*
X131850714Y-123114286D01*
X131945952Y-123066666D01*
X132184047Y-123066666D01*
X132326904Y-123114286D01*
X132707857Y-124019047D02*
X132850714Y-124066666D01*
X133088809Y-124066666D01*
X133184047Y-124019047D01*
X133231666Y-123971428D01*
X133279285Y-123876190D01*
X133279285Y-123780952D01*
X133231666Y-123685714D01*
X133184047Y-123638095D01*
X133088809Y-123590476D01*
X132898333Y-123542857D01*
X132803095Y-123495238D01*
X132755476Y-123447619D01*
X132707857Y-123352381D01*
X132707857Y-123257143D01*
X132755476Y-123161905D01*
X132803095Y-123114286D01*
X132898333Y-123066666D01*
X133136428Y-123066666D01*
X133279285Y-123114286D01*
X133565000Y-123066666D02*
X134136428Y-123066666D01*
X133850714Y-124066666D02*
X133850714Y-123066666D01*
X134374523Y-123066666D02*
X135041190Y-124066666D01*
X135041190Y-123066666D02*
X134374523Y-124066666D01*
X135422142Y-124066666D02*
X135422142Y-123066666D01*
X135993571Y-124066666D01*
X135993571Y-123066666D01*
X136422142Y-123161905D02*
X136469761Y-123114286D01*
X136565000Y-123066666D01*
X136803095Y-123066666D01*
X136898333Y-123114286D01*
X136945952Y-123161905D01*
X136993571Y-123257143D01*
X136993571Y-123352381D01*
X136945952Y-123495238D01*
X136374523Y-124066666D01*
X136993571Y-124066666D01*
D10*
D11*
X129855476Y-125619047D02*
X129998333Y-125666666D01*
X130236428Y-125666666D01*
X130331666Y-125619047D01*
X130379285Y-125571428D01*
X130426904Y-125476190D01*
X130426904Y-125380952D01*
X130379285Y-125285714D01*
X130331666Y-125238095D01*
X130236428Y-125190476D01*
X130045952Y-125142857D01*
X129950714Y-125095238D01*
X129903095Y-125047619D01*
X129855476Y-124952381D01*
X129855476Y-124857143D01*
X129903095Y-124761905D01*
X129950714Y-124714286D01*
X130045952Y-124666666D01*
X130284047Y-124666666D01*
X130426904Y-124714286D01*
X130807857Y-125619047D02*
X130950714Y-125666666D01*
X131188809Y-125666666D01*
X131284047Y-125619047D01*
X131331666Y-125571428D01*
X131379285Y-125476190D01*
X131379285Y-125380952D01*
X131331666Y-125285714D01*
X131284047Y-125238095D01*
X131188809Y-125190476D01*
X130998333Y-125142857D01*
X130903095Y-125095238D01*
X130855476Y-125047619D01*
X130807857Y-124952381D01*
X130807857Y-124857143D01*
X130855476Y-124761905D01*
X130903095Y-124714286D01*
X130998333Y-124666666D01*
X131236428Y-124666666D01*
X131379285Y-124714286D01*
X131665000Y-124666666D02*
X132236428Y-124666666D01*
X131950714Y-125666666D02*
X131950714Y-124666666D01*
X132474523Y-124666666D02*
X133141190Y-125666666D01*
X133141190Y-124666666D02*
X132474523Y-125666666D01*
X133522142Y-125666666D02*
X133522142Y-124666666D01*
X133903095Y-124666666D01*
X133998333Y-124714286D01*
X134045952Y-124761905D01*
X134093571Y-124857143D01*
X134093571Y-125000000D01*
X134045952Y-125095238D01*
X133998333Y-125142857D01*
X133903095Y-125190476D01*
X133522142Y-125190476D01*
X134474523Y-124761905D02*
X134522142Y-124714286D01*
X134617380Y-124666666D01*
X134855476Y-124666666D01*
X134950714Y-124714286D01*
X134998333Y-124761905D01*
X135045952Y-124857143D01*
X135045952Y-124952381D01*
X134998333Y-125095238D01*
X134426904Y-125666666D01*
X135045952Y-125666666D01*
D10*
D11*
%TO.C,LED11*%
X134179285Y-109266666D02*
X133703095Y-109266666D01*
X133703095Y-108266666D01*
X134512619Y-108742857D02*
X134845952Y-108742857D01*
X134988809Y-109266666D02*
X134512619Y-109266666D01*
X134512619Y-108266666D01*
X134988809Y-108266666D01*
X135417380Y-109266666D02*
X135417380Y-108266666D01*
X135655476Y-108266666D01*
X135798333Y-108314286D01*
X135893571Y-108409524D01*
X135941190Y-108504762D01*
X135988809Y-108695238D01*
X135988809Y-108838095D01*
X135941190Y-109028571D01*
X135893571Y-109123809D01*
X135798333Y-109219047D01*
X135655476Y-109266666D01*
X135417380Y-109266666D01*
X136941190Y-109266666D02*
X136369761Y-109266666D01*
X136655476Y-109266666D02*
X136655476Y-108266666D01*
X136560238Y-108409524D01*
X136465000Y-108504762D01*
X136369761Y-108552381D01*
X137893571Y-109266666D02*
X137322142Y-109266666D01*
X137607857Y-109266666D02*
X137607857Y-108266666D01*
X137512619Y-108409524D01*
X137417380Y-108504762D01*
X137322142Y-108552381D01*
D10*
%TO.C,*%
D12*
%TO.C,B1*%
X111282000Y-94742000D02*
X112282000Y-94742000D01*
X111782000Y-95242000D02*
X111782000Y-94242000D01*
D13*
%TO.C,J2*%
X159561011Y-115699873D02*
G75*
G03*
X159561011Y-115699873I-29998J0D01*
G01*
%TO.C,J1*%
X110561011Y-115699873D02*
G75*
G03*
X110561011Y-115699873I-29998J0D01*
G01*
%TD*%
%LPC*%
%TO.C,LED3*%
G36*
X123787132Y-122139286D02*
G01*
X123175000Y-122139286D01*
X123175000Y-121089286D01*
X123787132Y-121089286D01*
X123787132Y-122139286D01*
G37*
G36*
X125225000Y-122139286D02*
G01*
X124612868Y-122139286D01*
X124612868Y-121089286D01*
X125225000Y-121089286D01*
X125225000Y-122139286D01*
G37*
%TO.C,R7*%
G36*
X134700000Y-115564286D02*
G01*
X134219722Y-115564286D01*
X134219722Y-114864286D01*
X134700000Y-114864286D01*
X134700000Y-115564286D01*
G37*
G36*
X133780278Y-115564286D02*
G01*
X133300000Y-115564286D01*
X133300000Y-114864286D01*
X133780278Y-114864286D01*
X133780278Y-115564286D01*
G37*
%TO.C,R11*%
G36*
X142300000Y-109164286D02*
G01*
X141819722Y-109164286D01*
X141819722Y-108464286D01*
X142300000Y-108464286D01*
X142300000Y-109164286D01*
G37*
G36*
X141380278Y-109164286D02*
G01*
X140900000Y-109164286D01*
X140900000Y-108464286D01*
X141380278Y-108464286D01*
X141380278Y-109164286D01*
G37*
%TO.C,R16*%
G36*
X150880278Y-101164286D02*
G01*
X150400000Y-101164286D01*
X150400000Y-100464286D01*
X150880278Y-100464286D01*
X150880278Y-101164286D01*
G37*
G36*
X151800000Y-101164286D02*
G01*
X151319722Y-101164286D01*
X151319722Y-100464286D01*
X151800000Y-100464286D01*
X151800000Y-101164286D01*
G37*
%TO.C,*%
G36*
X155404845Y-101384461D02*
G01*
X155601818Y-101444212D01*
X155783349Y-101541243D01*
X155942462Y-101671824D01*
X156073043Y-101830937D01*
X156170074Y-102012468D01*
X156229825Y-102209441D01*
X156250000Y-102414286D01*
X156229825Y-102619131D01*
X156170074Y-102816104D01*
X156073043Y-102997635D01*
X155942462Y-103156748D01*
X155783349Y-103287329D01*
X155601818Y-103384360D01*
X155404845Y-103444111D01*
X155200000Y-103464286D01*
X154995155Y-103444111D01*
X154798182Y-103384360D01*
X154616651Y-103287329D01*
X154457538Y-103156748D01*
X154326957Y-102997635D01*
X154229926Y-102816104D01*
X154170175Y-102619131D01*
X154150000Y-102414286D01*
X154170175Y-102209441D01*
X154229926Y-102012468D01*
X154326957Y-101830937D01*
X154457538Y-101671824D01*
X154616651Y-101541243D01*
X154798182Y-101444212D01*
X154995155Y-101384461D01*
X155200000Y-101364286D01*
X155404845Y-101384461D01*
G37*
%TO.C,LED1*%
G36*
X121425000Y-125339286D02*
G01*
X120812868Y-125339286D01*
X120812868Y-124289286D01*
X121425000Y-124289286D01*
X121425000Y-125339286D01*
G37*
G36*
X119987132Y-125339286D02*
G01*
X119375000Y-125339286D01*
X119375000Y-124289286D01*
X119987132Y-124289286D01*
X119987132Y-125339286D01*
G37*
%TO.C,R1*%
G36*
X123300000Y-125164286D02*
G01*
X122819722Y-125164286D01*
X122819722Y-124464286D01*
X123300000Y-124464286D01*
X123300000Y-125164286D01*
G37*
G36*
X122380278Y-125164286D02*
G01*
X121900000Y-125164286D01*
X121900000Y-124464286D01*
X122380278Y-124464286D01*
X122380278Y-125164286D01*
G37*
%TO.C,*%
G36*
X130704845Y-122184461D02*
G01*
X130901818Y-122244212D01*
X131083349Y-122341243D01*
X131242462Y-122471824D01*
X131373043Y-122630937D01*
X131470074Y-122812468D01*
X131529825Y-123009441D01*
X131550000Y-123214286D01*
X131529825Y-123419131D01*
X131470074Y-123616104D01*
X131373043Y-123797635D01*
X131242462Y-123956748D01*
X131083349Y-124087329D01*
X130901818Y-124184360D01*
X130704845Y-124244111D01*
X130500000Y-124264286D01*
X130295155Y-124244111D01*
X130098182Y-124184360D01*
X129916651Y-124087329D01*
X129757538Y-123956748D01*
X129626957Y-123797635D01*
X129529926Y-123616104D01*
X129470175Y-123419131D01*
X129450000Y-123214286D01*
X129470175Y-123009441D01*
X129529926Y-122812468D01*
X129626957Y-122630937D01*
X129757538Y-122471824D01*
X129916651Y-122341243D01*
X130098182Y-122244212D01*
X130295155Y-122184461D01*
X130500000Y-122164286D01*
X130704845Y-122184461D01*
G37*
G36*
X153504845Y-102984461D02*
G01*
X153701818Y-103044212D01*
X153883349Y-103141243D01*
X154042462Y-103271824D01*
X154173043Y-103430937D01*
X154270074Y-103612468D01*
X154329825Y-103809441D01*
X154350000Y-104014286D01*
X154329825Y-104219131D01*
X154270074Y-104416104D01*
X154173043Y-104597635D01*
X154042462Y-104756748D01*
X153883349Y-104887329D01*
X153701818Y-104984360D01*
X153504845Y-105044111D01*
X153300000Y-105064286D01*
X153095155Y-105044111D01*
X152898182Y-104984360D01*
X152716651Y-104887329D01*
X152557538Y-104756748D01*
X152426957Y-104597635D01*
X152329926Y-104416104D01*
X152270175Y-104219131D01*
X152250000Y-104014286D01*
X152270175Y-103809441D01*
X152329926Y-103612468D01*
X152426957Y-103430937D01*
X152557538Y-103271824D01*
X152716651Y-103141243D01*
X152898182Y-103044212D01*
X153095155Y-102984461D01*
X153300000Y-102964286D01*
X153504845Y-102984461D01*
G37*
%TO.C,R5*%
G36*
X129980278Y-118764286D02*
G01*
X129500000Y-118764286D01*
X129500000Y-118064286D01*
X129980278Y-118064286D01*
X129980278Y-118764286D01*
G37*
G36*
X130900000Y-118764286D02*
G01*
X130419722Y-118764286D01*
X130419722Y-118064286D01*
X130900000Y-118064286D01*
X130900000Y-118764286D01*
G37*
%TO.C,LED7*%
G36*
X132825000Y-115739286D02*
G01*
X132212868Y-115739286D01*
X132212868Y-114689286D01*
X132825000Y-114689286D01*
X132825000Y-115739286D01*
G37*
G36*
X131387132Y-115739286D02*
G01*
X130775000Y-115739286D01*
X130775000Y-114689286D01*
X131387132Y-114689286D01*
X131387132Y-115739286D01*
G37*
%TO.C,LED15*%
G36*
X146587132Y-102939286D02*
G01*
X145975000Y-102939286D01*
X145975000Y-101889286D01*
X146587132Y-101889286D01*
X146587132Y-102939286D01*
G37*
G36*
X148025000Y-102939286D02*
G01*
X147412868Y-102939286D01*
X147412868Y-101889286D01*
X148025000Y-101889286D01*
X148025000Y-102939286D01*
G37*
%TO.C,*%
G36*
X136404845Y-117384461D02*
G01*
X136601818Y-117444212D01*
X136783349Y-117541243D01*
X136942462Y-117671824D01*
X137073043Y-117830937D01*
X137170074Y-118012468D01*
X137229825Y-118209441D01*
X137250000Y-118414286D01*
X137229825Y-118619131D01*
X137170074Y-118816104D01*
X137073043Y-118997635D01*
X136942462Y-119156748D01*
X136783349Y-119287329D01*
X136601818Y-119384360D01*
X136404845Y-119444111D01*
X136200000Y-119464286D01*
X135995155Y-119444111D01*
X135798182Y-119384360D01*
X135616651Y-119287329D01*
X135457538Y-119156748D01*
X135326957Y-118997635D01*
X135229926Y-118816104D01*
X135170175Y-118619131D01*
X135150000Y-118414286D01*
X135170175Y-118209441D01*
X135229926Y-118012468D01*
X135326957Y-117830937D01*
X135457538Y-117671824D01*
X135616651Y-117541243D01*
X135798182Y-117444212D01*
X135995155Y-117384461D01*
X136200000Y-117364286D01*
X136404845Y-117384461D01*
G37*
G36*
X149704845Y-106184461D02*
G01*
X149901818Y-106244212D01*
X150083349Y-106341243D01*
X150242462Y-106471824D01*
X150373043Y-106630937D01*
X150470074Y-106812468D01*
X150529825Y-107009441D01*
X150550000Y-107214286D01*
X150529825Y-107419131D01*
X150470074Y-107616104D01*
X150373043Y-107797635D01*
X150242462Y-107956748D01*
X150083349Y-108087329D01*
X149901818Y-108184360D01*
X149704845Y-108244111D01*
X149500000Y-108264286D01*
X149295155Y-108244111D01*
X149098182Y-108184360D01*
X148916651Y-108087329D01*
X148757538Y-107956748D01*
X148626957Y-107797635D01*
X148529926Y-107616104D01*
X148470175Y-107419131D01*
X148450000Y-107214286D01*
X148470175Y-107009441D01*
X148529926Y-106812468D01*
X148626957Y-106630937D01*
X148757538Y-106471824D01*
X148916651Y-106341243D01*
X149098182Y-106244212D01*
X149295155Y-106184461D01*
X149500000Y-106164286D01*
X149704845Y-106184461D01*
G37*
%TO.C,R14*%
G36*
X147080278Y-104364286D02*
G01*
X146600000Y-104364286D01*
X146600000Y-103664286D01*
X147080278Y-103664286D01*
X147080278Y-104364286D01*
G37*
G36*
X148000000Y-104364286D02*
G01*
X147519722Y-104364286D01*
X147519722Y-103664286D01*
X148000000Y-103664286D01*
X148000000Y-104364286D01*
G37*
%TO.C,*%
G36*
X159204845Y-98184461D02*
G01*
X159401818Y-98244212D01*
X159583349Y-98341243D01*
X159742462Y-98471824D01*
X159873043Y-98630937D01*
X159970074Y-98812468D01*
X160029825Y-99009441D01*
X160050000Y-99214286D01*
X160029825Y-99419131D01*
X159970074Y-99616104D01*
X159873043Y-99797635D01*
X159742462Y-99956748D01*
X159583349Y-100087329D01*
X159401818Y-100184360D01*
X159204845Y-100244111D01*
X159000000Y-100264286D01*
X158795155Y-100244111D01*
X158598182Y-100184360D01*
X158416651Y-100087329D01*
X158257538Y-99956748D01*
X158126957Y-99797635D01*
X158029926Y-99616104D01*
X157970175Y-99419131D01*
X157950000Y-99214286D01*
X157970175Y-99009441D01*
X158029926Y-98812468D01*
X158126957Y-98630937D01*
X158257538Y-98471824D01*
X158416651Y-98341243D01*
X158598182Y-98244212D01*
X158795155Y-98184461D01*
X159000000Y-98164286D01*
X159204845Y-98184461D01*
G37*
%TO.C,LED5*%
G36*
X127587132Y-118939286D02*
G01*
X126975000Y-118939286D01*
X126975000Y-117889286D01*
X127587132Y-117889286D01*
X127587132Y-118939286D01*
G37*
G36*
X129025000Y-118939286D02*
G01*
X128412868Y-118939286D01*
X128412868Y-117889286D01*
X129025000Y-117889286D01*
X129025000Y-118939286D01*
G37*
%TO.C,LED4*%
G36*
X127125000Y-120539286D02*
G01*
X126512868Y-120539286D01*
X126512868Y-119489286D01*
X127125000Y-119489286D01*
X127125000Y-120539286D01*
G37*
G36*
X125687132Y-120539286D02*
G01*
X125075000Y-120539286D01*
X125075000Y-119489286D01*
X125687132Y-119489286D01*
X125687132Y-120539286D01*
G37*
%TO.C,*%
G36*
X140204845Y-114184461D02*
G01*
X140401818Y-114244212D01*
X140583349Y-114341243D01*
X140742462Y-114471824D01*
X140873043Y-114630937D01*
X140970074Y-114812468D01*
X141029825Y-115009441D01*
X141050000Y-115214286D01*
X141029825Y-115419131D01*
X140970074Y-115616104D01*
X140873043Y-115797635D01*
X140742462Y-115956748D01*
X140583349Y-116087329D01*
X140401818Y-116184360D01*
X140204845Y-116244111D01*
X140000000Y-116264286D01*
X139795155Y-116244111D01*
X139598182Y-116184360D01*
X139416651Y-116087329D01*
X139257538Y-115956748D01*
X139126957Y-115797635D01*
X139029926Y-115616104D01*
X138970175Y-115419131D01*
X138950000Y-115214286D01*
X138970175Y-115009441D01*
X139029926Y-114812468D01*
X139126957Y-114630937D01*
X139257538Y-114471824D01*
X139416651Y-114341243D01*
X139598182Y-114244212D01*
X139795155Y-114184461D01*
X140000000Y-114164286D01*
X140204845Y-114184461D01*
G37*
%TO.C,LED13*%
G36*
X142787132Y-106139286D02*
G01*
X142175000Y-106139286D01*
X142175000Y-105089286D01*
X142787132Y-105089286D01*
X142787132Y-106139286D01*
G37*
G36*
X144225000Y-106139286D02*
G01*
X143612868Y-106139286D01*
X143612868Y-105089286D01*
X144225000Y-105089286D01*
X144225000Y-106139286D01*
G37*
%TO.C,LED2*%
G36*
X123325000Y-123739286D02*
G01*
X122712868Y-123739286D01*
X122712868Y-122689286D01*
X123325000Y-122689286D01*
X123325000Y-123739286D01*
G37*
G36*
X121887132Y-123739286D02*
G01*
X121275000Y-123739286D01*
X121275000Y-122689286D01*
X121887132Y-122689286D01*
X121887132Y-123739286D01*
G37*
%TO.C,LED9*%
G36*
X135187132Y-112539286D02*
G01*
X134575000Y-112539286D01*
X134575000Y-111489286D01*
X135187132Y-111489286D01*
X135187132Y-112539286D01*
G37*
G36*
X136625000Y-112539286D02*
G01*
X136012868Y-112539286D01*
X136012868Y-111489286D01*
X136625000Y-111489286D01*
X136625000Y-112539286D01*
G37*
%TO.C,R2*%
G36*
X124280278Y-123564286D02*
G01*
X123800000Y-123564286D01*
X123800000Y-122864286D01*
X124280278Y-122864286D01*
X124280278Y-123564286D01*
G37*
G36*
X125200000Y-123564286D02*
G01*
X124719722Y-123564286D01*
X124719722Y-122864286D01*
X125200000Y-122864286D01*
X125200000Y-123564286D01*
G37*
%TO.C,*%
G36*
X161104845Y-96584461D02*
G01*
X161301818Y-96644212D01*
X161483349Y-96741243D01*
X161642462Y-96871824D01*
X161773043Y-97030937D01*
X161870074Y-97212468D01*
X161929825Y-97409441D01*
X161950000Y-97614286D01*
X161929825Y-97819131D01*
X161870074Y-98016104D01*
X161773043Y-98197635D01*
X161642462Y-98356748D01*
X161483349Y-98487329D01*
X161301818Y-98584360D01*
X161104845Y-98644111D01*
X160900000Y-98664286D01*
X160695155Y-98644111D01*
X160498182Y-98584360D01*
X160316651Y-98487329D01*
X160157538Y-98356748D01*
X160026957Y-98197635D01*
X159929926Y-98016104D01*
X159870175Y-97819131D01*
X159850000Y-97614286D01*
X159870175Y-97409441D01*
X159929926Y-97212468D01*
X160026957Y-97030937D01*
X160157538Y-96871824D01*
X160316651Y-96741243D01*
X160498182Y-96644212D01*
X160695155Y-96584461D01*
X160900000Y-96564286D01*
X161104845Y-96584461D01*
G37*
%TO.C,LED16*%
G36*
X148487132Y-101339286D02*
G01*
X147875000Y-101339286D01*
X147875000Y-100289286D01*
X148487132Y-100289286D01*
X148487132Y-101339286D01*
G37*
G36*
X149925000Y-101339286D02*
G01*
X149312868Y-101339286D01*
X149312868Y-100289286D01*
X149925000Y-100289286D01*
X149925000Y-101339286D01*
G37*
%TO.C,B1*%
G36*
X116082000Y-96892000D02*
G01*
X112982000Y-96892000D01*
X112982000Y-92592000D01*
X116082000Y-92592000D01*
X116082000Y-96892000D01*
G37*
G36*
X145082000Y-96892000D02*
G01*
X141982000Y-96892000D01*
X141982000Y-92592000D01*
X145082000Y-92592000D01*
X145082000Y-96892000D01*
G37*
%TO.C,*%
G36*
X132604845Y-120584461D02*
G01*
X132801818Y-120644212D01*
X132983349Y-120741243D01*
X133142462Y-120871824D01*
X133273043Y-121030937D01*
X133370074Y-121212468D01*
X133429825Y-121409441D01*
X133450000Y-121614286D01*
X133429825Y-121819131D01*
X133370074Y-122016104D01*
X133273043Y-122197635D01*
X133142462Y-122356748D01*
X132983349Y-122487329D01*
X132801818Y-122584360D01*
X132604845Y-122644111D01*
X132400000Y-122664286D01*
X132195155Y-122644111D01*
X131998182Y-122584360D01*
X131816651Y-122487329D01*
X131657538Y-122356748D01*
X131526957Y-122197635D01*
X131429926Y-122016104D01*
X131370175Y-121819131D01*
X131350000Y-121614286D01*
X131370175Y-121409441D01*
X131429926Y-121212468D01*
X131526957Y-121030937D01*
X131657538Y-120871824D01*
X131816651Y-120741243D01*
X131998182Y-120644212D01*
X132195155Y-120584461D01*
X132400000Y-120564286D01*
X132604845Y-120584461D01*
G37*
%TO.C,R9*%
G36*
X138500000Y-112364286D02*
G01*
X138019722Y-112364286D01*
X138019722Y-111664286D01*
X138500000Y-111664286D01*
X138500000Y-112364286D01*
G37*
G36*
X137580278Y-112364286D02*
G01*
X137100000Y-112364286D01*
X137100000Y-111664286D01*
X137580278Y-111664286D01*
X137580278Y-112364286D01*
G37*
%TO.C,*%
G36*
X157304845Y-99784461D02*
G01*
X157501818Y-99844212D01*
X157683349Y-99941243D01*
X157842462Y-100071824D01*
X157973043Y-100230937D01*
X158070074Y-100412468D01*
X158129825Y-100609441D01*
X158150000Y-100814286D01*
X158129825Y-101019131D01*
X158070074Y-101216104D01*
X157973043Y-101397635D01*
X157842462Y-101556748D01*
X157683349Y-101687329D01*
X157501818Y-101784360D01*
X157304845Y-101844111D01*
X157100000Y-101864286D01*
X156895155Y-101844111D01*
X156698182Y-101784360D01*
X156516651Y-101687329D01*
X156357538Y-101556748D01*
X156226957Y-101397635D01*
X156129926Y-101216104D01*
X156070175Y-101019131D01*
X156050000Y-100814286D01*
X156070175Y-100609441D01*
X156129926Y-100412468D01*
X156226957Y-100230937D01*
X156357538Y-100071824D01*
X156516651Y-99941243D01*
X156698182Y-99844212D01*
X156895155Y-99784461D01*
X157100000Y-99764286D01*
X157304845Y-99784461D01*
G37*
%TO.C,R3*%
G36*
X126180278Y-121964286D02*
G01*
X125700000Y-121964286D01*
X125700000Y-121264286D01*
X126180278Y-121264286D01*
X126180278Y-121964286D01*
G37*
G36*
X127100000Y-121964286D02*
G01*
X126619722Y-121964286D01*
X126619722Y-121264286D01*
X127100000Y-121264286D01*
X127100000Y-121964286D01*
G37*
%TO.C,LED8*%
G36*
X134725000Y-114139286D02*
G01*
X134112868Y-114139286D01*
X134112868Y-113089286D01*
X134725000Y-113089286D01*
X134725000Y-114139286D01*
G37*
G36*
X133287132Y-114139286D02*
G01*
X132675000Y-114139286D01*
X132675000Y-113089286D01*
X133287132Y-113089286D01*
X133287132Y-114139286D01*
G37*
%TO.C,*%
G36*
X128804845Y-123784461D02*
G01*
X129001818Y-123844212D01*
X129183349Y-123941243D01*
X129342462Y-124071824D01*
X129473043Y-124230937D01*
X129570074Y-124412468D01*
X129629825Y-124609441D01*
X129650000Y-124814286D01*
X129629825Y-125019131D01*
X129570074Y-125216104D01*
X129473043Y-125397635D01*
X129342462Y-125556748D01*
X129183349Y-125687329D01*
X129001818Y-125784360D01*
X128804845Y-125844111D01*
X128600000Y-125864286D01*
X128395155Y-125844111D01*
X128198182Y-125784360D01*
X128016651Y-125687329D01*
X127857538Y-125556748D01*
X127726957Y-125397635D01*
X127629926Y-125216104D01*
X127570175Y-125019131D01*
X127550000Y-124814286D01*
X127570175Y-124609441D01*
X127629926Y-124412468D01*
X127726957Y-124230937D01*
X127857538Y-124071824D01*
X128016651Y-123941243D01*
X128198182Y-123844212D01*
X128395155Y-123784461D01*
X128600000Y-123764286D01*
X128804845Y-123784461D01*
G37*
%TO.C,LED6*%
G36*
X129487132Y-117339286D02*
G01*
X128875000Y-117339286D01*
X128875000Y-116289286D01*
X129487132Y-116289286D01*
X129487132Y-117339286D01*
G37*
G36*
X130925000Y-117339286D02*
G01*
X130312868Y-117339286D01*
X130312868Y-116289286D01*
X130925000Y-116289286D01*
X130925000Y-117339286D01*
G37*
%TO.C,R12*%
G36*
X144200000Y-107564286D02*
G01*
X143719722Y-107564286D01*
X143719722Y-106864286D01*
X144200000Y-106864286D01*
X144200000Y-107564286D01*
G37*
G36*
X143280278Y-107564286D02*
G01*
X142800000Y-107564286D01*
X142800000Y-106864286D01*
X143280278Y-106864286D01*
X143280278Y-107564286D01*
G37*
%TO.C,LED18*%
G36*
X152287132Y-98139286D02*
G01*
X151675000Y-98139286D01*
X151675000Y-97089286D01*
X152287132Y-97089286D01*
X152287132Y-98139286D01*
G37*
G36*
X153725000Y-98139286D02*
G01*
X153112868Y-98139286D01*
X153112868Y-97089286D01*
X153725000Y-97089286D01*
X153725000Y-98139286D01*
G37*
%TO.C,LED17*%
G36*
X150387132Y-99739286D02*
G01*
X149775000Y-99739286D01*
X149775000Y-98689286D01*
X150387132Y-98689286D01*
X150387132Y-99739286D01*
G37*
G36*
X151825000Y-99739286D02*
G01*
X151212868Y-99739286D01*
X151212868Y-98689286D01*
X151825000Y-98689286D01*
X151825000Y-99739286D01*
G37*
%TO.C,LED10*%
G36*
X137087132Y-110939286D02*
G01*
X136475000Y-110939286D01*
X136475000Y-109889286D01*
X137087132Y-109889286D01*
X137087132Y-110939286D01*
G37*
G36*
X138525000Y-110939286D02*
G01*
X137912868Y-110939286D01*
X137912868Y-109889286D01*
X138525000Y-109889286D01*
X138525000Y-110939286D01*
G37*
%TO.C,*%
G36*
X110810917Y-125235547D02*
G01*
X111157964Y-125340823D01*
X111477805Y-125511781D01*
X111758148Y-125741852D01*
X111988219Y-126022195D01*
X112159177Y-126342036D01*
X112264453Y-126689083D01*
X112300000Y-127050000D01*
X112264453Y-127410917D01*
X112159177Y-127757964D01*
X111988219Y-128077805D01*
X111758148Y-128358148D01*
X111477805Y-128588219D01*
X111157964Y-128759177D01*
X110810917Y-128864453D01*
X110450000Y-128900000D01*
X110089083Y-128864453D01*
X109742036Y-128759177D01*
X109422195Y-128588219D01*
X109141852Y-128358148D01*
X108911781Y-128077805D01*
X108740823Y-127757964D01*
X108635547Y-127410917D01*
X108600000Y-127050000D01*
X108635547Y-126689083D01*
X108740823Y-126342036D01*
X108911781Y-126022195D01*
X109141852Y-125741852D01*
X109422195Y-125511781D01*
X109742036Y-125340823D01*
X110089083Y-125235547D01*
X110450000Y-125200000D01*
X110810917Y-125235547D01*
G37*
%TO.C,R10*%
G36*
X139480278Y-110764286D02*
G01*
X139000000Y-110764286D01*
X139000000Y-110064286D01*
X139480278Y-110064286D01*
X139480278Y-110764286D01*
G37*
G36*
X140400000Y-110764286D02*
G01*
X139919722Y-110764286D01*
X139919722Y-110064286D01*
X140400000Y-110064286D01*
X140400000Y-110764286D01*
G37*
%TO.C,*%
G36*
X168910917Y-125235547D02*
G01*
X169257964Y-125340823D01*
X169577805Y-125511781D01*
X169858148Y-125741852D01*
X170088219Y-126022195D01*
X170259177Y-126342036D01*
X170364453Y-126689083D01*
X170400000Y-127050000D01*
X170364453Y-127410917D01*
X170259177Y-127757964D01*
X170088219Y-128077805D01*
X169858148Y-128358148D01*
X169577805Y-128588219D01*
X169257964Y-128759177D01*
X168910917Y-128864453D01*
X168550000Y-128900000D01*
X168189083Y-128864453D01*
X167842036Y-128759177D01*
X167522195Y-128588219D01*
X167241852Y-128358148D01*
X167011781Y-128077805D01*
X166840823Y-127757964D01*
X166735547Y-127410917D01*
X166700000Y-127050000D01*
X166735547Y-126689083D01*
X166840823Y-126342036D01*
X167011781Y-126022195D01*
X167241852Y-125741852D01*
X167522195Y-125511781D01*
X167842036Y-125340823D01*
X168189083Y-125235547D01*
X168550000Y-125200000D01*
X168910917Y-125235547D01*
G37*
%TO.C,LED14*%
G36*
X144687132Y-104539286D02*
G01*
X144075000Y-104539286D01*
X144075000Y-103489286D01*
X144687132Y-103489286D01*
X144687132Y-104539286D01*
G37*
G36*
X146125000Y-104539286D02*
G01*
X145512868Y-104539286D01*
X145512868Y-103489286D01*
X146125000Y-103489286D01*
X146125000Y-104539286D01*
G37*
%TO.C,R17*%
G36*
X152780278Y-99564286D02*
G01*
X152300000Y-99564286D01*
X152300000Y-98864286D01*
X152780278Y-98864286D01*
X152780278Y-99564286D01*
G37*
G36*
X153700000Y-99564286D02*
G01*
X153219722Y-99564286D01*
X153219722Y-98864286D01*
X153700000Y-98864286D01*
X153700000Y-99564286D01*
G37*
%TO.C,R18*%
G36*
X154680278Y-97964286D02*
G01*
X154200000Y-97964286D01*
X154200000Y-97264286D01*
X154680278Y-97264286D01*
X154680278Y-97964286D01*
G37*
G36*
X155600000Y-97964286D02*
G01*
X155119722Y-97964286D01*
X155119722Y-97264286D01*
X155600000Y-97264286D01*
X155600000Y-97964286D01*
G37*
%TO.C,*%
G36*
X138304845Y-115784461D02*
G01*
X138501818Y-115844212D01*
X138683349Y-115941243D01*
X138842462Y-116071824D01*
X138973043Y-116230937D01*
X139070074Y-116412468D01*
X139129825Y-116609441D01*
X139150000Y-116814286D01*
X139129825Y-117019131D01*
X139070074Y-117216104D01*
X138973043Y-117397635D01*
X138842462Y-117556748D01*
X138683349Y-117687329D01*
X138501818Y-117784360D01*
X138304845Y-117844111D01*
X138100000Y-117864286D01*
X137895155Y-117844111D01*
X137698182Y-117784360D01*
X137516651Y-117687329D01*
X137357538Y-117556748D01*
X137226957Y-117397635D01*
X137129926Y-117216104D01*
X137070175Y-117019131D01*
X137050000Y-116814286D01*
X137070175Y-116609441D01*
X137129926Y-116412468D01*
X137226957Y-116230937D01*
X137357538Y-116071824D01*
X137516651Y-115941243D01*
X137698182Y-115844212D01*
X137895155Y-115784461D01*
X138100000Y-115764286D01*
X138304845Y-115784461D01*
G37*
%TO.C,J2*%
G36*
X167858356Y-117463096D02*
G01*
X167961535Y-117494395D01*
X168056625Y-117545221D01*
X168139972Y-117613622D01*
X168208373Y-117696969D01*
X168259199Y-117792059D01*
X168290498Y-117895238D01*
X168301067Y-118002540D01*
X168290498Y-118109842D01*
X168259199Y-118213021D01*
X168208373Y-118308111D01*
X168139972Y-118391458D01*
X168056625Y-118459859D01*
X167961535Y-118510685D01*
X167858356Y-118541984D01*
X167751054Y-118552553D01*
X167643752Y-118541984D01*
X167540573Y-118510685D01*
X167445483Y-118459859D01*
X167362136Y-118391458D01*
X167293735Y-118308111D01*
X167242909Y-118213021D01*
X167211610Y-118109842D01*
X167201042Y-118002540D01*
X167211610Y-117895238D01*
X167242909Y-117792059D01*
X167293735Y-117696969D01*
X167362136Y-117613622D01*
X167445483Y-117545221D01*
X167540573Y-117494395D01*
X167643752Y-117463096D01*
X167751054Y-117452527D01*
X167858356Y-117463096D01*
G37*
G36*
X160324087Y-117632199D02*
G01*
X160394436Y-117653539D01*
X160459269Y-117688193D01*
X160516097Y-117734830D01*
X160562734Y-117791658D01*
X160597388Y-117856491D01*
X160618728Y-117926840D01*
X160625933Y-118000000D01*
X160618728Y-118073160D01*
X160597388Y-118143509D01*
X160562734Y-118208342D01*
X160516097Y-118265170D01*
X160459269Y-118311807D01*
X160394436Y-118346461D01*
X160324087Y-118367801D01*
X160250927Y-118375007D01*
X160177767Y-118367801D01*
X160107418Y-118346461D01*
X160042585Y-118311807D01*
X159985757Y-118265170D01*
X159939120Y-118208342D01*
X159904466Y-118143509D01*
X159883126Y-118073160D01*
X159875921Y-118000000D01*
X159883126Y-117926840D01*
X159904466Y-117856491D01*
X159939120Y-117791658D01*
X159985757Y-117734830D01*
X160042585Y-117688193D01*
X160107418Y-117653539D01*
X160177767Y-117632199D01*
X160250927Y-117624993D01*
X160324087Y-117632199D01*
G37*
%TO.C,R13*%
G36*
X145180278Y-105964286D02*
G01*
X144700000Y-105964286D01*
X144700000Y-105264286D01*
X145180278Y-105264286D01*
X145180278Y-105964286D01*
G37*
G36*
X146100000Y-105964286D02*
G01*
X145619722Y-105964286D01*
X145619722Y-105264286D01*
X146100000Y-105264286D01*
X146100000Y-105964286D01*
G37*
%TO.C,R8*%
G36*
X135680278Y-113964286D02*
G01*
X135200000Y-113964286D01*
X135200000Y-113264286D01*
X135680278Y-113264286D01*
X135680278Y-113964286D01*
G37*
G36*
X136600000Y-113964286D02*
G01*
X136119722Y-113964286D01*
X136119722Y-113264286D01*
X136600000Y-113264286D01*
X136600000Y-113964286D01*
G37*
%TO.C,*%
G36*
X151604845Y-104584461D02*
G01*
X151801818Y-104644212D01*
X151983349Y-104741243D01*
X152142462Y-104871824D01*
X152273043Y-105030937D01*
X152370074Y-105212468D01*
X152429825Y-105409441D01*
X152450000Y-105614286D01*
X152429825Y-105819131D01*
X152370074Y-106016104D01*
X152273043Y-106197635D01*
X152142462Y-106356748D01*
X151983349Y-106487329D01*
X151801818Y-106584360D01*
X151604845Y-106644111D01*
X151400000Y-106664286D01*
X151195155Y-106644111D01*
X150998182Y-106584360D01*
X150816651Y-106487329D01*
X150657538Y-106356748D01*
X150526957Y-106197635D01*
X150429926Y-106016104D01*
X150370175Y-105819131D01*
X150350000Y-105614286D01*
X150370175Y-105409441D01*
X150429926Y-105212468D01*
X150526957Y-105030937D01*
X150657538Y-104871824D01*
X150816651Y-104741243D01*
X150998182Y-104644212D01*
X151195155Y-104584461D01*
X151400000Y-104564286D01*
X151604845Y-104584461D01*
G37*
%TO.C,J1*%
G36*
X118858356Y-117463096D02*
G01*
X118961535Y-117494395D01*
X119056625Y-117545221D01*
X119139972Y-117613622D01*
X119208373Y-117696969D01*
X119259199Y-117792059D01*
X119290498Y-117895238D01*
X119301067Y-118002540D01*
X119290498Y-118109842D01*
X119259199Y-118213021D01*
X119208373Y-118308111D01*
X119139972Y-118391458D01*
X119056625Y-118459859D01*
X118961535Y-118510685D01*
X118858356Y-118541984D01*
X118751054Y-118552553D01*
X118643752Y-118541984D01*
X118540573Y-118510685D01*
X118445483Y-118459859D01*
X118362136Y-118391458D01*
X118293735Y-118308111D01*
X118242909Y-118213021D01*
X118211610Y-118109842D01*
X118201042Y-118002540D01*
X118211610Y-117895238D01*
X118242909Y-117792059D01*
X118293735Y-117696969D01*
X118362136Y-117613622D01*
X118445483Y-117545221D01*
X118540573Y-117494395D01*
X118643752Y-117463096D01*
X118751054Y-117452527D01*
X118858356Y-117463096D01*
G37*
G36*
X111324087Y-117632199D02*
G01*
X111394436Y-117653539D01*
X111459269Y-117688193D01*
X111516097Y-117734830D01*
X111562734Y-117791658D01*
X111597388Y-117856491D01*
X111618728Y-117926840D01*
X111625933Y-118000000D01*
X111618728Y-118073160D01*
X111597388Y-118143509D01*
X111562734Y-118208342D01*
X111516097Y-118265170D01*
X111459269Y-118311807D01*
X111394436Y-118346461D01*
X111324087Y-118367801D01*
X111250927Y-118375007D01*
X111177767Y-118367801D01*
X111107418Y-118346461D01*
X111042585Y-118311807D01*
X110985757Y-118265170D01*
X110939120Y-118208342D01*
X110904466Y-118143509D01*
X110883126Y-118073160D01*
X110875921Y-118000000D01*
X110883126Y-117926840D01*
X110904466Y-117856491D01*
X110939120Y-117791658D01*
X110985757Y-117734830D01*
X111042585Y-117688193D01*
X111107418Y-117653539D01*
X111177767Y-117632199D01*
X111250927Y-117624993D01*
X111324087Y-117632199D01*
G37*
%TO.C,*%
G36*
X142104845Y-112584461D02*
G01*
X142301818Y-112644212D01*
X142483349Y-112741243D01*
X142642462Y-112871824D01*
X142773043Y-113030937D01*
X142870074Y-113212468D01*
X142929825Y-113409441D01*
X142950000Y-113614286D01*
X142929825Y-113819131D01*
X142870074Y-114016104D01*
X142773043Y-114197635D01*
X142642462Y-114356748D01*
X142483349Y-114487329D01*
X142301818Y-114584360D01*
X142104845Y-114644111D01*
X141900000Y-114664286D01*
X141695155Y-114644111D01*
X141498182Y-114584360D01*
X141316651Y-114487329D01*
X141157538Y-114356748D01*
X141026957Y-114197635D01*
X140929926Y-114016104D01*
X140870175Y-113819131D01*
X140850000Y-113614286D01*
X140870175Y-113409441D01*
X140929926Y-113212468D01*
X141026957Y-113030937D01*
X141157538Y-112871824D01*
X141316651Y-112741243D01*
X141498182Y-112644212D01*
X141695155Y-112584461D01*
X141900000Y-112564286D01*
X142104845Y-112584461D01*
G37*
%TO.C,LED12*%
G36*
X142325000Y-107739286D02*
G01*
X141712868Y-107739286D01*
X141712868Y-106689286D01*
X142325000Y-106689286D01*
X142325000Y-107739286D01*
G37*
G36*
X140887132Y-107739286D02*
G01*
X140275000Y-107739286D01*
X140275000Y-106689286D01*
X140887132Y-106689286D01*
X140887132Y-107739286D01*
G37*
%TO.C,*%
G36*
X134504845Y-118984461D02*
G01*
X134701818Y-119044212D01*
X134883349Y-119141243D01*
X135042462Y-119271824D01*
X135173043Y-119430937D01*
X135270074Y-119612468D01*
X135329825Y-119809441D01*
X135350000Y-120014286D01*
X135329825Y-120219131D01*
X135270074Y-120416104D01*
X135173043Y-120597635D01*
X135042462Y-120756748D01*
X134883349Y-120887329D01*
X134701818Y-120984360D01*
X134504845Y-121044111D01*
X134300000Y-121064286D01*
X134095155Y-121044111D01*
X133898182Y-120984360D01*
X133716651Y-120887329D01*
X133557538Y-120756748D01*
X133426957Y-120597635D01*
X133329926Y-120416104D01*
X133270175Y-120219131D01*
X133250000Y-120014286D01*
X133270175Y-119809441D01*
X133329926Y-119612468D01*
X133426957Y-119430937D01*
X133557538Y-119271824D01*
X133716651Y-119141243D01*
X133898182Y-119044212D01*
X134095155Y-118984461D01*
X134300000Y-118964286D01*
X134504845Y-118984461D01*
G37*
G36*
X110810917Y-87135547D02*
G01*
X111157964Y-87240823D01*
X111477805Y-87411781D01*
X111758148Y-87641852D01*
X111988219Y-87922195D01*
X112159177Y-88242036D01*
X112264453Y-88589083D01*
X112300000Y-88950000D01*
X112264453Y-89310917D01*
X112159177Y-89657964D01*
X111988219Y-89977805D01*
X111758148Y-90258148D01*
X111477805Y-90488219D01*
X111157964Y-90659177D01*
X110810917Y-90764453D01*
X110450000Y-90800000D01*
X110089083Y-90764453D01*
X109742036Y-90659177D01*
X109422195Y-90488219D01*
X109141852Y-90258148D01*
X108911781Y-89977805D01*
X108740823Y-89657964D01*
X108635547Y-89310917D01*
X108600000Y-88950000D01*
X108635547Y-88589083D01*
X108740823Y-88242036D01*
X108911781Y-87922195D01*
X109141852Y-87641852D01*
X109422195Y-87411781D01*
X109742036Y-87240823D01*
X110089083Y-87135547D01*
X110450000Y-87100000D01*
X110810917Y-87135547D01*
G37*
G36*
X168910917Y-87135547D02*
G01*
X169257964Y-87240823D01*
X169577805Y-87411781D01*
X169858148Y-87641852D01*
X170088219Y-87922195D01*
X170259177Y-88242036D01*
X170364453Y-88589083D01*
X170400000Y-88950000D01*
X170364453Y-89310917D01*
X170259177Y-89657964D01*
X170088219Y-89977805D01*
X169858148Y-90258148D01*
X169577805Y-90488219D01*
X169257964Y-90659177D01*
X168910917Y-90764453D01*
X168550000Y-90800000D01*
X168189083Y-90764453D01*
X167842036Y-90659177D01*
X167522195Y-90488219D01*
X167241852Y-90258148D01*
X167011781Y-89977805D01*
X166840823Y-89657964D01*
X166735547Y-89310917D01*
X166700000Y-88950000D01*
X166735547Y-88589083D01*
X166840823Y-88242036D01*
X167011781Y-87922195D01*
X167241852Y-87641852D01*
X167522195Y-87411781D01*
X167842036Y-87240823D01*
X168189083Y-87135547D01*
X168550000Y-87100000D01*
X168910917Y-87135547D01*
G37*
%TO.C,R15*%
G36*
X148980278Y-102764286D02*
G01*
X148500000Y-102764286D01*
X148500000Y-102064286D01*
X148980278Y-102064286D01*
X148980278Y-102764286D01*
G37*
G36*
X149900000Y-102764286D02*
G01*
X149419722Y-102764286D01*
X149419722Y-102064286D01*
X149900000Y-102064286D01*
X149900000Y-102764286D01*
G37*
%TO.C,*%
G36*
X145904845Y-109384461D02*
G01*
X146101818Y-109444212D01*
X146283349Y-109541243D01*
X146442462Y-109671824D01*
X146573043Y-109830937D01*
X146670074Y-110012468D01*
X146729825Y-110209441D01*
X146750000Y-110414286D01*
X146729825Y-110619131D01*
X146670074Y-110816104D01*
X146573043Y-110997635D01*
X146442462Y-111156748D01*
X146283349Y-111287329D01*
X146101818Y-111384360D01*
X145904845Y-111444111D01*
X145700000Y-111464286D01*
X145495155Y-111444111D01*
X145298182Y-111384360D01*
X145116651Y-111287329D01*
X144957538Y-111156748D01*
X144826957Y-110997635D01*
X144729926Y-110816104D01*
X144670175Y-110619131D01*
X144650000Y-110414286D01*
X144670175Y-110209441D01*
X144729926Y-110012468D01*
X144826957Y-109830937D01*
X144957538Y-109671824D01*
X145116651Y-109541243D01*
X145298182Y-109444212D01*
X145495155Y-109384461D01*
X145700000Y-109364286D01*
X145904845Y-109384461D01*
G37*
G36*
X144004845Y-110984461D02*
G01*
X144201818Y-111044212D01*
X144383349Y-111141243D01*
X144542462Y-111271824D01*
X144673043Y-111430937D01*
X144770074Y-111612468D01*
X144829825Y-111809441D01*
X144850000Y-112014286D01*
X144829825Y-112219131D01*
X144770074Y-112416104D01*
X144673043Y-112597635D01*
X144542462Y-112756748D01*
X144383349Y-112887329D01*
X144201818Y-112984360D01*
X144004845Y-113044111D01*
X143800000Y-113064286D01*
X143595155Y-113044111D01*
X143398182Y-112984360D01*
X143216651Y-112887329D01*
X143057538Y-112756748D01*
X142926957Y-112597635D01*
X142829926Y-112416104D01*
X142770175Y-112219131D01*
X142750000Y-112014286D01*
X142770175Y-111809441D01*
X142829926Y-111612468D01*
X142926957Y-111430937D01*
X143057538Y-111271824D01*
X143216651Y-111141243D01*
X143398182Y-111044212D01*
X143595155Y-110984461D01*
X143800000Y-110964286D01*
X144004845Y-110984461D01*
G37*
%TO.C,R4*%
G36*
X129000000Y-120364286D02*
G01*
X128519722Y-120364286D01*
X128519722Y-119664286D01*
X129000000Y-119664286D01*
X129000000Y-120364286D01*
G37*
G36*
X128080278Y-120364286D02*
G01*
X127600000Y-120364286D01*
X127600000Y-119664286D01*
X128080278Y-119664286D01*
X128080278Y-120364286D01*
G37*
%TO.C,R6*%
G36*
X131880278Y-117164286D02*
G01*
X131400000Y-117164286D01*
X131400000Y-116464286D01*
X131880278Y-116464286D01*
X131880278Y-117164286D01*
G37*
G36*
X132800000Y-117164286D02*
G01*
X132319722Y-117164286D01*
X132319722Y-116464286D01*
X132800000Y-116464286D01*
X132800000Y-117164286D01*
G37*
%TO.C,*%
G36*
X147804845Y-107784461D02*
G01*
X148001818Y-107844212D01*
X148183349Y-107941243D01*
X148342462Y-108071824D01*
X148473043Y-108230937D01*
X148570074Y-108412468D01*
X148629825Y-108609441D01*
X148650000Y-108814286D01*
X148629825Y-109019131D01*
X148570074Y-109216104D01*
X148473043Y-109397635D01*
X148342462Y-109556748D01*
X148183349Y-109687329D01*
X148001818Y-109784360D01*
X147804845Y-109844111D01*
X147600000Y-109864286D01*
X147395155Y-109844111D01*
X147198182Y-109784360D01*
X147016651Y-109687329D01*
X146857538Y-109556748D01*
X146726957Y-109397635D01*
X146629926Y-109216104D01*
X146570175Y-109019131D01*
X146550000Y-108814286D01*
X146570175Y-108609441D01*
X146629926Y-108412468D01*
X146726957Y-108230937D01*
X146857538Y-108071824D01*
X147016651Y-107941243D01*
X147198182Y-107844212D01*
X147395155Y-107784461D01*
X147600000Y-107764286D01*
X147804845Y-107784461D01*
G37*
%TO.C,LED11*%
G36*
X140425000Y-109339286D02*
G01*
X139812868Y-109339286D01*
X139812868Y-108289286D01*
X140425000Y-108289286D01*
X140425000Y-109339286D01*
G37*
G36*
X138987132Y-109339286D02*
G01*
X138375000Y-109339286D01*
X138375000Y-108289286D01*
X138987132Y-108289286D01*
X138987132Y-109339286D01*
G37*
%TD*%
D14*
%TO.C,*%
X110450000Y-127050000D03*
%TD*%
%TO.C,*%
X168550000Y-127050000D03*
%TD*%
D15*
%TO.C,J2*%
X160250927Y-118000000D03*
D16*
X167751054Y-118002540D03*
D17*
X166401041Y-115849886D03*
X161600940Y-115849886D03*
X161600940Y-120150114D03*
X166401041Y-120150114D03*
D18*
X161250927Y-117249936D03*
X161751054Y-117249936D03*
X162250927Y-117249936D03*
X162751054Y-117249936D03*
X163250927Y-117249936D03*
X163751054Y-117249936D03*
X164250927Y-117249936D03*
X164751054Y-117249936D03*
X165250927Y-117249936D03*
X165751054Y-117249936D03*
X166250927Y-117249936D03*
X166751054Y-117249936D03*
D19*
X166751080Y-118751588D03*
X166250953Y-118751588D03*
X165751080Y-118751588D03*
X165250953Y-118751588D03*
X164751080Y-118751588D03*
X164250953Y-118751588D03*
X163751080Y-118751588D03*
X163250953Y-118751588D03*
X162751080Y-118751588D03*
X162250953Y-118751588D03*
X161751080Y-118751588D03*
X161250953Y-118751588D03*
%TD*%
D16*
%TO.C,J1*%
X118751054Y-118002540D03*
D15*
X111250927Y-118000000D03*
D17*
X117401041Y-115849886D03*
X112600940Y-115849886D03*
X112600940Y-120150114D03*
X117401041Y-120150114D03*
D18*
X112250927Y-117249936D03*
X112751054Y-117249936D03*
X113250927Y-117249936D03*
X113751054Y-117249936D03*
X114250927Y-117249936D03*
X114751054Y-117249936D03*
X115250927Y-117249936D03*
X115751054Y-117249936D03*
X116250927Y-117249936D03*
X116751054Y-117249936D03*
X117250927Y-117249936D03*
X117751054Y-117249936D03*
D19*
X117751080Y-118751588D03*
X117250953Y-118751588D03*
X116751080Y-118751588D03*
X116250953Y-118751588D03*
X115751080Y-118751588D03*
X115250953Y-118751588D03*
X114751080Y-118751588D03*
X114250953Y-118751588D03*
X113751080Y-118751588D03*
X113250953Y-118751588D03*
X112751080Y-118751588D03*
X112250953Y-118751588D03*
%TD*%
D14*
%TO.C,*%
X110450000Y-88950000D03*
%TD*%
%TO.C,*%
X168550000Y-88950000D03*
%TD*%
M02*
