M48
; DRILL file {KiCad 7.0.0-da2b9df05c~171~ubuntu22.04.1} date Thu 09 Mar 2023 10:18:31 AM PST
; FORMAT={-:-/ absolute / inch / decimal}
; #@! TF.CreationDate,2023-03-09T10:18:31-08:00
; #@! TF.GenerationSoftware,Kicad,Pcbnew,7.0.0-da2b9df05c~171~ubuntu22.04.1
; #@! TF.FileFunction,Plated,1,2,PTH
FMAT,2
INCH
; #@! TA.AperFunction,Plated,PTH,ViaDrill
T1C0.0118
; #@! TA.AperFunction,Plated,PTH,ComponentDrill
T2C0.0256
%
G90
G05
T1
X16.09Y-11.7
X16.31Y-11.35
X16.54Y-11.12
X16.77Y-10.89
X16.99Y-10.67
X17.05Y-10.36
X17.35Y-10.36
X17.67Y-10.57
X17.95Y-11.4
X18.07Y-11.15
X18.11Y-11.04
T2
G00X15.8371Y-11.1094
M15
G01X15.7771Y-11.1094
M16
G05
G00X15.8371Y-11.4496
M15
G01X15.7771Y-11.4496
M16
G05
G00X16.0388Y-11.1094
M15
G01X15.9974Y-11.1094
M16
G05
G00X16.0393Y-11.4496
M15
G01X15.9969Y-11.4496
M16
G05
G00X17.9765Y-11.1094
M15
G01X18.0188Y-11.1094
M16
G05
G00X17.977Y-11.4496
M15
G01X18.0183Y-11.4496
M16
G05
G00X18.1786Y-11.1094
M15
G01X18.2387Y-11.1094
M16
G05
G00X18.1786Y-11.4496
M15
G01X18.2387Y-11.4496
M16
G05
T0
M30
