%TF.GenerationSoftware,KiCad,Pcbnew,7.0.0-da2b9df05c~171~ubuntu22.04.1*%
%TF.CreationDate,2023-03-09T10:18:31-08:00*%
%TF.ProjectId,CAD,4341442e-6b69-4636-9164-5f7063625858,rev?*%
%TF.SameCoordinates,Original*%
%TF.FileFunction,Legend,Top*%
%TF.FilePolarity,Positive*%
%FSLAX46Y46*%
G04 Gerber Fmt 4.6, Leading zero omitted, Abs format (unit mm)*
G04 Created by KiCad (PCBNEW 7.0.0-da2b9df05c~171~ubuntu22.04.1) date 2023-03-09 10:18:31*
%MOMM*%
%LPD*%
G01*
G04 APERTURE LIST*
G04 Aperture macros list*
%AMRoundRect*
0 Rectangle with rounded corners*
0 $1 Rounding radius*
0 $2 $3 $4 $5 $6 $7 $8 $9 X,Y pos of 4 corners*
0 Add a 4 corners polygon primitive as box body*
4,1,4,$2,$3,$4,$5,$6,$7,$8,$9,$2,$3,0*
0 Add four circle primitives for the rounded corners*
1,1,$1+$1,$2,$3*
1,1,$1+$1,$4,$5*
1,1,$1+$1,$6,$7*
1,1,$1+$1,$8,$9*
0 Add four rect primitives between the rounded corners*
20,1,$1+$1,$2,$3,$4,$5,0*
20,1,$1+$1,$4,$5,$6,$7,0*
20,1,$1+$1,$6,$7,$8,$9,0*
20,1,$1+$1,$8,$9,$2,$3,0*%
G04 Aperture macros list end*
%ADD10C,0.150000*%
%ADD11C,0.100000*%
%ADD12C,0.120000*%
%ADD13C,0.127000*%
%ADD14C,0.200000*%
%ADD15RoundRect,0.186000X0.135000X0.185000X-0.135000X0.185000X-0.135000X-0.185000X0.135000X-0.185000X0*%
%ADD16C,2.402000*%
%ADD17RoundRect,0.051000X0.350000X-0.150000X0.350000X0.150000X-0.350000X0.150000X-0.350000X-0.150000X0*%
%ADD18RoundRect,0.051000X0.350000X-0.500000X0.350000X0.500000X-0.350000X0.500000X-0.350000X-0.500000X0*%
%ADD19O,2.302000X1.302000*%
%ADD20O,2.802000X1.302000*%
%ADD21O,2.702000X1.302000*%
%ADD22RoundRect,0.051000X-0.350000X0.150000X-0.350000X-0.150000X0.350000X-0.150000X0.350000X0.150000X0*%
%ADD23RoundRect,0.051000X-0.350000X0.500000X-0.350000X-0.500000X0.350000X-0.500000X0.350000X0.500000X0*%
G04 APERTURE END LIST*
D10*
%TO.C,R18*%
X450461142Y-273865951D02*
X450127809Y-273389761D01*
X449889714Y-273865951D02*
X449889714Y-272865951D01*
X449889714Y-272865951D02*
X450270666Y-272865951D01*
X450270666Y-272865951D02*
X450365904Y-272913571D01*
X450365904Y-272913571D02*
X450413523Y-272961190D01*
X450413523Y-272961190D02*
X450461142Y-273056428D01*
X450461142Y-273056428D02*
X450461142Y-273199285D01*
X450461142Y-273199285D02*
X450413523Y-273294523D01*
X450413523Y-273294523D02*
X450365904Y-273342142D01*
X450365904Y-273342142D02*
X450270666Y-273389761D01*
X450270666Y-273389761D02*
X449889714Y-273389761D01*
X451413523Y-273865951D02*
X450842095Y-273865951D01*
X451127809Y-273865951D02*
X451127809Y-272865951D01*
X451127809Y-272865951D02*
X451032571Y-273008809D01*
X451032571Y-273008809D02*
X450937333Y-273104047D01*
X450937333Y-273104047D02*
X450842095Y-273151666D01*
X451984952Y-273294523D02*
X451889714Y-273246904D01*
X451889714Y-273246904D02*
X451842095Y-273199285D01*
X451842095Y-273199285D02*
X451794476Y-273104047D01*
X451794476Y-273104047D02*
X451794476Y-273056428D01*
X451794476Y-273056428D02*
X451842095Y-272961190D01*
X451842095Y-272961190D02*
X451889714Y-272913571D01*
X451889714Y-272913571D02*
X451984952Y-272865951D01*
X451984952Y-272865951D02*
X452175428Y-272865951D01*
X452175428Y-272865951D02*
X452270666Y-272913571D01*
X452270666Y-272913571D02*
X452318285Y-272961190D01*
X452318285Y-272961190D02*
X452365904Y-273056428D01*
X452365904Y-273056428D02*
X452365904Y-273104047D01*
X452365904Y-273104047D02*
X452318285Y-273199285D01*
X452318285Y-273199285D02*
X452270666Y-273246904D01*
X452270666Y-273246904D02*
X452175428Y-273294523D01*
X452175428Y-273294523D02*
X451984952Y-273294523D01*
X451984952Y-273294523D02*
X451889714Y-273342142D01*
X451889714Y-273342142D02*
X451842095Y-273389761D01*
X451842095Y-273389761D02*
X451794476Y-273484999D01*
X451794476Y-273484999D02*
X451794476Y-273675475D01*
X451794476Y-273675475D02*
X451842095Y-273770713D01*
X451842095Y-273770713D02*
X451889714Y-273818332D01*
X451889714Y-273818332D02*
X451984952Y-273865951D01*
X451984952Y-273865951D02*
X452175428Y-273865951D01*
X452175428Y-273865951D02*
X452270666Y-273818332D01*
X452270666Y-273818332D02*
X452318285Y-273770713D01*
X452318285Y-273770713D02*
X452365904Y-273675475D01*
X452365904Y-273675475D02*
X452365904Y-273484999D01*
X452365904Y-273484999D02*
X452318285Y-273389761D01*
X452318285Y-273389761D02*
X452270666Y-273342142D01*
X452270666Y-273342142D02*
X452175428Y-273294523D01*
%TO.C,R17*%
X448561142Y-275465951D02*
X448227809Y-274989761D01*
X447989714Y-275465951D02*
X447989714Y-274465951D01*
X447989714Y-274465951D02*
X448370666Y-274465951D01*
X448370666Y-274465951D02*
X448465904Y-274513571D01*
X448465904Y-274513571D02*
X448513523Y-274561190D01*
X448513523Y-274561190D02*
X448561142Y-274656428D01*
X448561142Y-274656428D02*
X448561142Y-274799285D01*
X448561142Y-274799285D02*
X448513523Y-274894523D01*
X448513523Y-274894523D02*
X448465904Y-274942142D01*
X448465904Y-274942142D02*
X448370666Y-274989761D01*
X448370666Y-274989761D02*
X447989714Y-274989761D01*
X449513523Y-275465951D02*
X448942095Y-275465951D01*
X449227809Y-275465951D02*
X449227809Y-274465951D01*
X449227809Y-274465951D02*
X449132571Y-274608809D01*
X449132571Y-274608809D02*
X449037333Y-274704047D01*
X449037333Y-274704047D02*
X448942095Y-274751666D01*
X449846857Y-274465951D02*
X450513523Y-274465951D01*
X450513523Y-274465951D02*
X450084952Y-275465951D01*
%TO.C,R16*%
X446661142Y-277065951D02*
X446327809Y-276589761D01*
X446089714Y-277065951D02*
X446089714Y-276065951D01*
X446089714Y-276065951D02*
X446470666Y-276065951D01*
X446470666Y-276065951D02*
X446565904Y-276113571D01*
X446565904Y-276113571D02*
X446613523Y-276161190D01*
X446613523Y-276161190D02*
X446661142Y-276256428D01*
X446661142Y-276256428D02*
X446661142Y-276399285D01*
X446661142Y-276399285D02*
X446613523Y-276494523D01*
X446613523Y-276494523D02*
X446565904Y-276542142D01*
X446565904Y-276542142D02*
X446470666Y-276589761D01*
X446470666Y-276589761D02*
X446089714Y-276589761D01*
X447613523Y-277065951D02*
X447042095Y-277065951D01*
X447327809Y-277065951D02*
X447327809Y-276065951D01*
X447327809Y-276065951D02*
X447232571Y-276208809D01*
X447232571Y-276208809D02*
X447137333Y-276304047D01*
X447137333Y-276304047D02*
X447042095Y-276351666D01*
X448470666Y-276065951D02*
X448280190Y-276065951D01*
X448280190Y-276065951D02*
X448184952Y-276113571D01*
X448184952Y-276113571D02*
X448137333Y-276161190D01*
X448137333Y-276161190D02*
X448042095Y-276304047D01*
X448042095Y-276304047D02*
X447994476Y-276494523D01*
X447994476Y-276494523D02*
X447994476Y-276875475D01*
X447994476Y-276875475D02*
X448042095Y-276970713D01*
X448042095Y-276970713D02*
X448089714Y-277018332D01*
X448089714Y-277018332D02*
X448184952Y-277065951D01*
X448184952Y-277065951D02*
X448375428Y-277065951D01*
X448375428Y-277065951D02*
X448470666Y-277018332D01*
X448470666Y-277018332D02*
X448518285Y-276970713D01*
X448518285Y-276970713D02*
X448565904Y-276875475D01*
X448565904Y-276875475D02*
X448565904Y-276637380D01*
X448565904Y-276637380D02*
X448518285Y-276542142D01*
X448518285Y-276542142D02*
X448470666Y-276494523D01*
X448470666Y-276494523D02*
X448375428Y-276446904D01*
X448375428Y-276446904D02*
X448184952Y-276446904D01*
X448184952Y-276446904D02*
X448089714Y-276494523D01*
X448089714Y-276494523D02*
X448042095Y-276542142D01*
X448042095Y-276542142D02*
X447994476Y-276637380D01*
%TO.C,R15*%
X442861142Y-280265951D02*
X442527809Y-279789761D01*
X442289714Y-280265951D02*
X442289714Y-279265951D01*
X442289714Y-279265951D02*
X442670666Y-279265951D01*
X442670666Y-279265951D02*
X442765904Y-279313571D01*
X442765904Y-279313571D02*
X442813523Y-279361190D01*
X442813523Y-279361190D02*
X442861142Y-279456428D01*
X442861142Y-279456428D02*
X442861142Y-279599285D01*
X442861142Y-279599285D02*
X442813523Y-279694523D01*
X442813523Y-279694523D02*
X442765904Y-279742142D01*
X442765904Y-279742142D02*
X442670666Y-279789761D01*
X442670666Y-279789761D02*
X442289714Y-279789761D01*
X443813523Y-280265951D02*
X443242095Y-280265951D01*
X443527809Y-280265951D02*
X443527809Y-279265951D01*
X443527809Y-279265951D02*
X443432571Y-279408809D01*
X443432571Y-279408809D02*
X443337333Y-279504047D01*
X443337333Y-279504047D02*
X443242095Y-279551666D01*
X444718285Y-279265951D02*
X444242095Y-279265951D01*
X444242095Y-279265951D02*
X444194476Y-279742142D01*
X444194476Y-279742142D02*
X444242095Y-279694523D01*
X444242095Y-279694523D02*
X444337333Y-279646904D01*
X444337333Y-279646904D02*
X444575428Y-279646904D01*
X444575428Y-279646904D02*
X444670666Y-279694523D01*
X444670666Y-279694523D02*
X444718285Y-279742142D01*
X444718285Y-279742142D02*
X444765904Y-279837380D01*
X444765904Y-279837380D02*
X444765904Y-280075475D01*
X444765904Y-280075475D02*
X444718285Y-280170713D01*
X444718285Y-280170713D02*
X444670666Y-280218332D01*
X444670666Y-280218332D02*
X444575428Y-280265951D01*
X444575428Y-280265951D02*
X444337333Y-280265951D01*
X444337333Y-280265951D02*
X444242095Y-280218332D01*
X444242095Y-280218332D02*
X444194476Y-280170713D01*
%TO.C,R14*%
X440961142Y-281865951D02*
X440627809Y-281389761D01*
X440389714Y-281865951D02*
X440389714Y-280865951D01*
X440389714Y-280865951D02*
X440770666Y-280865951D01*
X440770666Y-280865951D02*
X440865904Y-280913571D01*
X440865904Y-280913571D02*
X440913523Y-280961190D01*
X440913523Y-280961190D02*
X440961142Y-281056428D01*
X440961142Y-281056428D02*
X440961142Y-281199285D01*
X440961142Y-281199285D02*
X440913523Y-281294523D01*
X440913523Y-281294523D02*
X440865904Y-281342142D01*
X440865904Y-281342142D02*
X440770666Y-281389761D01*
X440770666Y-281389761D02*
X440389714Y-281389761D01*
X441913523Y-281865951D02*
X441342095Y-281865951D01*
X441627809Y-281865951D02*
X441627809Y-280865951D01*
X441627809Y-280865951D02*
X441532571Y-281008809D01*
X441532571Y-281008809D02*
X441437333Y-281104047D01*
X441437333Y-281104047D02*
X441342095Y-281151666D01*
X442770666Y-281199285D02*
X442770666Y-281865951D01*
X442532571Y-280818332D02*
X442294476Y-281532618D01*
X442294476Y-281532618D02*
X442913523Y-281532618D01*
%TO.C,R13*%
X439061142Y-283465951D02*
X438727809Y-282989761D01*
X438489714Y-283465951D02*
X438489714Y-282465951D01*
X438489714Y-282465951D02*
X438870666Y-282465951D01*
X438870666Y-282465951D02*
X438965904Y-282513571D01*
X438965904Y-282513571D02*
X439013523Y-282561190D01*
X439013523Y-282561190D02*
X439061142Y-282656428D01*
X439061142Y-282656428D02*
X439061142Y-282799285D01*
X439061142Y-282799285D02*
X439013523Y-282894523D01*
X439013523Y-282894523D02*
X438965904Y-282942142D01*
X438965904Y-282942142D02*
X438870666Y-282989761D01*
X438870666Y-282989761D02*
X438489714Y-282989761D01*
X440013523Y-283465951D02*
X439442095Y-283465951D01*
X439727809Y-283465951D02*
X439727809Y-282465951D01*
X439727809Y-282465951D02*
X439632571Y-282608809D01*
X439632571Y-282608809D02*
X439537333Y-282704047D01*
X439537333Y-282704047D02*
X439442095Y-282751666D01*
X440346857Y-282465951D02*
X440965904Y-282465951D01*
X440965904Y-282465951D02*
X440632571Y-282846904D01*
X440632571Y-282846904D02*
X440775428Y-282846904D01*
X440775428Y-282846904D02*
X440870666Y-282894523D01*
X440870666Y-282894523D02*
X440918285Y-282942142D01*
X440918285Y-282942142D02*
X440965904Y-283037380D01*
X440965904Y-283037380D02*
X440965904Y-283275475D01*
X440965904Y-283275475D02*
X440918285Y-283370713D01*
X440918285Y-283370713D02*
X440870666Y-283418332D01*
X440870666Y-283418332D02*
X440775428Y-283465951D01*
X440775428Y-283465951D02*
X440489714Y-283465951D01*
X440489714Y-283465951D02*
X440394476Y-283418332D01*
X440394476Y-283418332D02*
X440346857Y-283370713D01*
%TO.C,R12*%
X437161142Y-285065951D02*
X436827809Y-284589761D01*
X436589714Y-285065951D02*
X436589714Y-284065951D01*
X436589714Y-284065951D02*
X436970666Y-284065951D01*
X436970666Y-284065951D02*
X437065904Y-284113571D01*
X437065904Y-284113571D02*
X437113523Y-284161190D01*
X437113523Y-284161190D02*
X437161142Y-284256428D01*
X437161142Y-284256428D02*
X437161142Y-284399285D01*
X437161142Y-284399285D02*
X437113523Y-284494523D01*
X437113523Y-284494523D02*
X437065904Y-284542142D01*
X437065904Y-284542142D02*
X436970666Y-284589761D01*
X436970666Y-284589761D02*
X436589714Y-284589761D01*
X438113523Y-285065951D02*
X437542095Y-285065951D01*
X437827809Y-285065951D02*
X437827809Y-284065951D01*
X437827809Y-284065951D02*
X437732571Y-284208809D01*
X437732571Y-284208809D02*
X437637333Y-284304047D01*
X437637333Y-284304047D02*
X437542095Y-284351666D01*
X438494476Y-284161190D02*
X438542095Y-284113571D01*
X438542095Y-284113571D02*
X438637333Y-284065951D01*
X438637333Y-284065951D02*
X438875428Y-284065951D01*
X438875428Y-284065951D02*
X438970666Y-284113571D01*
X438970666Y-284113571D02*
X439018285Y-284161190D01*
X439018285Y-284161190D02*
X439065904Y-284256428D01*
X439065904Y-284256428D02*
X439065904Y-284351666D01*
X439065904Y-284351666D02*
X439018285Y-284494523D01*
X439018285Y-284494523D02*
X438446857Y-285065951D01*
X438446857Y-285065951D02*
X439065904Y-285065951D01*
%TO.C,R11*%
X444761142Y-278665951D02*
X444427809Y-278189761D01*
X444189714Y-278665951D02*
X444189714Y-277665951D01*
X444189714Y-277665951D02*
X444570666Y-277665951D01*
X444570666Y-277665951D02*
X444665904Y-277713571D01*
X444665904Y-277713571D02*
X444713523Y-277761190D01*
X444713523Y-277761190D02*
X444761142Y-277856428D01*
X444761142Y-277856428D02*
X444761142Y-277999285D01*
X444761142Y-277999285D02*
X444713523Y-278094523D01*
X444713523Y-278094523D02*
X444665904Y-278142142D01*
X444665904Y-278142142D02*
X444570666Y-278189761D01*
X444570666Y-278189761D02*
X444189714Y-278189761D01*
X445713523Y-278665951D02*
X445142095Y-278665951D01*
X445427809Y-278665951D02*
X445427809Y-277665951D01*
X445427809Y-277665951D02*
X445332571Y-277808809D01*
X445332571Y-277808809D02*
X445237333Y-277904047D01*
X445237333Y-277904047D02*
X445142095Y-277951666D01*
X446665904Y-278665951D02*
X446094476Y-278665951D01*
X446380190Y-278665951D02*
X446380190Y-277665951D01*
X446380190Y-277665951D02*
X446284952Y-277808809D01*
X446284952Y-277808809D02*
X446189714Y-277904047D01*
X446189714Y-277904047D02*
X446094476Y-277951666D01*
%TO.C,R10*%
X435261142Y-286665951D02*
X434927809Y-286189761D01*
X434689714Y-286665951D02*
X434689714Y-285665951D01*
X434689714Y-285665951D02*
X435070666Y-285665951D01*
X435070666Y-285665951D02*
X435165904Y-285713571D01*
X435165904Y-285713571D02*
X435213523Y-285761190D01*
X435213523Y-285761190D02*
X435261142Y-285856428D01*
X435261142Y-285856428D02*
X435261142Y-285999285D01*
X435261142Y-285999285D02*
X435213523Y-286094523D01*
X435213523Y-286094523D02*
X435165904Y-286142142D01*
X435165904Y-286142142D02*
X435070666Y-286189761D01*
X435070666Y-286189761D02*
X434689714Y-286189761D01*
X436213523Y-286665951D02*
X435642095Y-286665951D01*
X435927809Y-286665951D02*
X435927809Y-285665951D01*
X435927809Y-285665951D02*
X435832571Y-285808809D01*
X435832571Y-285808809D02*
X435737333Y-285904047D01*
X435737333Y-285904047D02*
X435642095Y-285951666D01*
X436832571Y-285665951D02*
X436927809Y-285665951D01*
X436927809Y-285665951D02*
X437023047Y-285713571D01*
X437023047Y-285713571D02*
X437070666Y-285761190D01*
X437070666Y-285761190D02*
X437118285Y-285856428D01*
X437118285Y-285856428D02*
X437165904Y-286046904D01*
X437165904Y-286046904D02*
X437165904Y-286284999D01*
X437165904Y-286284999D02*
X437118285Y-286475475D01*
X437118285Y-286475475D02*
X437070666Y-286570713D01*
X437070666Y-286570713D02*
X437023047Y-286618332D01*
X437023047Y-286618332D02*
X436927809Y-286665951D01*
X436927809Y-286665951D02*
X436832571Y-286665951D01*
X436832571Y-286665951D02*
X436737333Y-286618332D01*
X436737333Y-286618332D02*
X436689714Y-286570713D01*
X436689714Y-286570713D02*
X436642095Y-286475475D01*
X436642095Y-286475475D02*
X436594476Y-286284999D01*
X436594476Y-286284999D02*
X436594476Y-286046904D01*
X436594476Y-286046904D02*
X436642095Y-285856428D01*
X436642095Y-285856428D02*
X436689714Y-285761190D01*
X436689714Y-285761190D02*
X436737333Y-285713571D01*
X436737333Y-285713571D02*
X436832571Y-285665951D01*
%TO.C,R9*%
X433133333Y-288265951D02*
X432800000Y-287789761D01*
X432561905Y-288265951D02*
X432561905Y-287265951D01*
X432561905Y-287265951D02*
X432942857Y-287265951D01*
X432942857Y-287265951D02*
X433038095Y-287313571D01*
X433038095Y-287313571D02*
X433085714Y-287361190D01*
X433085714Y-287361190D02*
X433133333Y-287456428D01*
X433133333Y-287456428D02*
X433133333Y-287599285D01*
X433133333Y-287599285D02*
X433085714Y-287694523D01*
X433085714Y-287694523D02*
X433038095Y-287742142D01*
X433038095Y-287742142D02*
X432942857Y-287789761D01*
X432942857Y-287789761D02*
X432561905Y-287789761D01*
X433609524Y-288265951D02*
X433800000Y-288265951D01*
X433800000Y-288265951D02*
X433895238Y-288218332D01*
X433895238Y-288218332D02*
X433942857Y-288170713D01*
X433942857Y-288170713D02*
X434038095Y-288027856D01*
X434038095Y-288027856D02*
X434085714Y-287837380D01*
X434085714Y-287837380D02*
X434085714Y-287456428D01*
X434085714Y-287456428D02*
X434038095Y-287361190D01*
X434038095Y-287361190D02*
X433990476Y-287313571D01*
X433990476Y-287313571D02*
X433895238Y-287265951D01*
X433895238Y-287265951D02*
X433704762Y-287265951D01*
X433704762Y-287265951D02*
X433609524Y-287313571D01*
X433609524Y-287313571D02*
X433561905Y-287361190D01*
X433561905Y-287361190D02*
X433514286Y-287456428D01*
X433514286Y-287456428D02*
X433514286Y-287694523D01*
X433514286Y-287694523D02*
X433561905Y-287789761D01*
X433561905Y-287789761D02*
X433609524Y-287837380D01*
X433609524Y-287837380D02*
X433704762Y-287884999D01*
X433704762Y-287884999D02*
X433895238Y-287884999D01*
X433895238Y-287884999D02*
X433990476Y-287837380D01*
X433990476Y-287837380D02*
X434038095Y-287789761D01*
X434038095Y-287789761D02*
X434085714Y-287694523D01*
%TO.C,R8*%
X431233333Y-289865951D02*
X430900000Y-289389761D01*
X430661905Y-289865951D02*
X430661905Y-288865951D01*
X430661905Y-288865951D02*
X431042857Y-288865951D01*
X431042857Y-288865951D02*
X431138095Y-288913571D01*
X431138095Y-288913571D02*
X431185714Y-288961190D01*
X431185714Y-288961190D02*
X431233333Y-289056428D01*
X431233333Y-289056428D02*
X431233333Y-289199285D01*
X431233333Y-289199285D02*
X431185714Y-289294523D01*
X431185714Y-289294523D02*
X431138095Y-289342142D01*
X431138095Y-289342142D02*
X431042857Y-289389761D01*
X431042857Y-289389761D02*
X430661905Y-289389761D01*
X431804762Y-289294523D02*
X431709524Y-289246904D01*
X431709524Y-289246904D02*
X431661905Y-289199285D01*
X431661905Y-289199285D02*
X431614286Y-289104047D01*
X431614286Y-289104047D02*
X431614286Y-289056428D01*
X431614286Y-289056428D02*
X431661905Y-288961190D01*
X431661905Y-288961190D02*
X431709524Y-288913571D01*
X431709524Y-288913571D02*
X431804762Y-288865951D01*
X431804762Y-288865951D02*
X431995238Y-288865951D01*
X431995238Y-288865951D02*
X432090476Y-288913571D01*
X432090476Y-288913571D02*
X432138095Y-288961190D01*
X432138095Y-288961190D02*
X432185714Y-289056428D01*
X432185714Y-289056428D02*
X432185714Y-289104047D01*
X432185714Y-289104047D02*
X432138095Y-289199285D01*
X432138095Y-289199285D02*
X432090476Y-289246904D01*
X432090476Y-289246904D02*
X431995238Y-289294523D01*
X431995238Y-289294523D02*
X431804762Y-289294523D01*
X431804762Y-289294523D02*
X431709524Y-289342142D01*
X431709524Y-289342142D02*
X431661905Y-289389761D01*
X431661905Y-289389761D02*
X431614286Y-289484999D01*
X431614286Y-289484999D02*
X431614286Y-289675475D01*
X431614286Y-289675475D02*
X431661905Y-289770713D01*
X431661905Y-289770713D02*
X431709524Y-289818332D01*
X431709524Y-289818332D02*
X431804762Y-289865951D01*
X431804762Y-289865951D02*
X431995238Y-289865951D01*
X431995238Y-289865951D02*
X432090476Y-289818332D01*
X432090476Y-289818332D02*
X432138095Y-289770713D01*
X432138095Y-289770713D02*
X432185714Y-289675475D01*
X432185714Y-289675475D02*
X432185714Y-289484999D01*
X432185714Y-289484999D02*
X432138095Y-289389761D01*
X432138095Y-289389761D02*
X432090476Y-289342142D01*
X432090476Y-289342142D02*
X431995238Y-289294523D01*
%TO.C,R7*%
X429333333Y-291465951D02*
X429000000Y-290989761D01*
X428761905Y-291465951D02*
X428761905Y-290465951D01*
X428761905Y-290465951D02*
X429142857Y-290465951D01*
X429142857Y-290465951D02*
X429238095Y-290513571D01*
X429238095Y-290513571D02*
X429285714Y-290561190D01*
X429285714Y-290561190D02*
X429333333Y-290656428D01*
X429333333Y-290656428D02*
X429333333Y-290799285D01*
X429333333Y-290799285D02*
X429285714Y-290894523D01*
X429285714Y-290894523D02*
X429238095Y-290942142D01*
X429238095Y-290942142D02*
X429142857Y-290989761D01*
X429142857Y-290989761D02*
X428761905Y-290989761D01*
X429666667Y-290465951D02*
X430333333Y-290465951D01*
X430333333Y-290465951D02*
X429904762Y-291465951D01*
%TO.C,R6*%
X427433333Y-293065951D02*
X427100000Y-292589761D01*
X426861905Y-293065951D02*
X426861905Y-292065951D01*
X426861905Y-292065951D02*
X427242857Y-292065951D01*
X427242857Y-292065951D02*
X427338095Y-292113571D01*
X427338095Y-292113571D02*
X427385714Y-292161190D01*
X427385714Y-292161190D02*
X427433333Y-292256428D01*
X427433333Y-292256428D02*
X427433333Y-292399285D01*
X427433333Y-292399285D02*
X427385714Y-292494523D01*
X427385714Y-292494523D02*
X427338095Y-292542142D01*
X427338095Y-292542142D02*
X427242857Y-292589761D01*
X427242857Y-292589761D02*
X426861905Y-292589761D01*
X428290476Y-292065951D02*
X428100000Y-292065951D01*
X428100000Y-292065951D02*
X428004762Y-292113571D01*
X428004762Y-292113571D02*
X427957143Y-292161190D01*
X427957143Y-292161190D02*
X427861905Y-292304047D01*
X427861905Y-292304047D02*
X427814286Y-292494523D01*
X427814286Y-292494523D02*
X427814286Y-292875475D01*
X427814286Y-292875475D02*
X427861905Y-292970713D01*
X427861905Y-292970713D02*
X427909524Y-293018332D01*
X427909524Y-293018332D02*
X428004762Y-293065951D01*
X428004762Y-293065951D02*
X428195238Y-293065951D01*
X428195238Y-293065951D02*
X428290476Y-293018332D01*
X428290476Y-293018332D02*
X428338095Y-292970713D01*
X428338095Y-292970713D02*
X428385714Y-292875475D01*
X428385714Y-292875475D02*
X428385714Y-292637380D01*
X428385714Y-292637380D02*
X428338095Y-292542142D01*
X428338095Y-292542142D02*
X428290476Y-292494523D01*
X428290476Y-292494523D02*
X428195238Y-292446904D01*
X428195238Y-292446904D02*
X428004762Y-292446904D01*
X428004762Y-292446904D02*
X427909524Y-292494523D01*
X427909524Y-292494523D02*
X427861905Y-292542142D01*
X427861905Y-292542142D02*
X427814286Y-292637380D01*
%TO.C,R5*%
X425533333Y-294665951D02*
X425200000Y-294189761D01*
X424961905Y-294665951D02*
X424961905Y-293665951D01*
X424961905Y-293665951D02*
X425342857Y-293665951D01*
X425342857Y-293665951D02*
X425438095Y-293713571D01*
X425438095Y-293713571D02*
X425485714Y-293761190D01*
X425485714Y-293761190D02*
X425533333Y-293856428D01*
X425533333Y-293856428D02*
X425533333Y-293999285D01*
X425533333Y-293999285D02*
X425485714Y-294094523D01*
X425485714Y-294094523D02*
X425438095Y-294142142D01*
X425438095Y-294142142D02*
X425342857Y-294189761D01*
X425342857Y-294189761D02*
X424961905Y-294189761D01*
X426438095Y-293665951D02*
X425961905Y-293665951D01*
X425961905Y-293665951D02*
X425914286Y-294142142D01*
X425914286Y-294142142D02*
X425961905Y-294094523D01*
X425961905Y-294094523D02*
X426057143Y-294046904D01*
X426057143Y-294046904D02*
X426295238Y-294046904D01*
X426295238Y-294046904D02*
X426390476Y-294094523D01*
X426390476Y-294094523D02*
X426438095Y-294142142D01*
X426438095Y-294142142D02*
X426485714Y-294237380D01*
X426485714Y-294237380D02*
X426485714Y-294475475D01*
X426485714Y-294475475D02*
X426438095Y-294570713D01*
X426438095Y-294570713D02*
X426390476Y-294618332D01*
X426390476Y-294618332D02*
X426295238Y-294665951D01*
X426295238Y-294665951D02*
X426057143Y-294665951D01*
X426057143Y-294665951D02*
X425961905Y-294618332D01*
X425961905Y-294618332D02*
X425914286Y-294570713D01*
%TO.C,R4*%
X423633333Y-296265951D02*
X423300000Y-295789761D01*
X423061905Y-296265951D02*
X423061905Y-295265951D01*
X423061905Y-295265951D02*
X423442857Y-295265951D01*
X423442857Y-295265951D02*
X423538095Y-295313571D01*
X423538095Y-295313571D02*
X423585714Y-295361190D01*
X423585714Y-295361190D02*
X423633333Y-295456428D01*
X423633333Y-295456428D02*
X423633333Y-295599285D01*
X423633333Y-295599285D02*
X423585714Y-295694523D01*
X423585714Y-295694523D02*
X423538095Y-295742142D01*
X423538095Y-295742142D02*
X423442857Y-295789761D01*
X423442857Y-295789761D02*
X423061905Y-295789761D01*
X424490476Y-295599285D02*
X424490476Y-296265951D01*
X424252381Y-295218332D02*
X424014286Y-295932618D01*
X424014286Y-295932618D02*
X424633333Y-295932618D01*
%TO.C,R3*%
X421733333Y-297865951D02*
X421400000Y-297389761D01*
X421161905Y-297865951D02*
X421161905Y-296865951D01*
X421161905Y-296865951D02*
X421542857Y-296865951D01*
X421542857Y-296865951D02*
X421638095Y-296913571D01*
X421638095Y-296913571D02*
X421685714Y-296961190D01*
X421685714Y-296961190D02*
X421733333Y-297056428D01*
X421733333Y-297056428D02*
X421733333Y-297199285D01*
X421733333Y-297199285D02*
X421685714Y-297294523D01*
X421685714Y-297294523D02*
X421638095Y-297342142D01*
X421638095Y-297342142D02*
X421542857Y-297389761D01*
X421542857Y-297389761D02*
X421161905Y-297389761D01*
X422066667Y-296865951D02*
X422685714Y-296865951D01*
X422685714Y-296865951D02*
X422352381Y-297246904D01*
X422352381Y-297246904D02*
X422495238Y-297246904D01*
X422495238Y-297246904D02*
X422590476Y-297294523D01*
X422590476Y-297294523D02*
X422638095Y-297342142D01*
X422638095Y-297342142D02*
X422685714Y-297437380D01*
X422685714Y-297437380D02*
X422685714Y-297675475D01*
X422685714Y-297675475D02*
X422638095Y-297770713D01*
X422638095Y-297770713D02*
X422590476Y-297818332D01*
X422590476Y-297818332D02*
X422495238Y-297865951D01*
X422495238Y-297865951D02*
X422209524Y-297865951D01*
X422209524Y-297865951D02*
X422114286Y-297818332D01*
X422114286Y-297818332D02*
X422066667Y-297770713D01*
%TO.C,R2*%
X419833333Y-299465951D02*
X419500000Y-298989761D01*
X419261905Y-299465951D02*
X419261905Y-298465951D01*
X419261905Y-298465951D02*
X419642857Y-298465951D01*
X419642857Y-298465951D02*
X419738095Y-298513571D01*
X419738095Y-298513571D02*
X419785714Y-298561190D01*
X419785714Y-298561190D02*
X419833333Y-298656428D01*
X419833333Y-298656428D02*
X419833333Y-298799285D01*
X419833333Y-298799285D02*
X419785714Y-298894523D01*
X419785714Y-298894523D02*
X419738095Y-298942142D01*
X419738095Y-298942142D02*
X419642857Y-298989761D01*
X419642857Y-298989761D02*
X419261905Y-298989761D01*
X420214286Y-298561190D02*
X420261905Y-298513571D01*
X420261905Y-298513571D02*
X420357143Y-298465951D01*
X420357143Y-298465951D02*
X420595238Y-298465951D01*
X420595238Y-298465951D02*
X420690476Y-298513571D01*
X420690476Y-298513571D02*
X420738095Y-298561190D01*
X420738095Y-298561190D02*
X420785714Y-298656428D01*
X420785714Y-298656428D02*
X420785714Y-298751666D01*
X420785714Y-298751666D02*
X420738095Y-298894523D01*
X420738095Y-298894523D02*
X420166667Y-299465951D01*
X420166667Y-299465951D02*
X420785714Y-299465951D01*
%TO.C,R1*%
X417933333Y-301065951D02*
X417600000Y-300589761D01*
X417361905Y-301065951D02*
X417361905Y-300065951D01*
X417361905Y-300065951D02*
X417742857Y-300065951D01*
X417742857Y-300065951D02*
X417838095Y-300113571D01*
X417838095Y-300113571D02*
X417885714Y-300161190D01*
X417885714Y-300161190D02*
X417933333Y-300256428D01*
X417933333Y-300256428D02*
X417933333Y-300399285D01*
X417933333Y-300399285D02*
X417885714Y-300494523D01*
X417885714Y-300494523D02*
X417838095Y-300542142D01*
X417838095Y-300542142D02*
X417742857Y-300589761D01*
X417742857Y-300589761D02*
X417361905Y-300589761D01*
X418885714Y-301065951D02*
X418314286Y-301065951D01*
X418600000Y-301065951D02*
X418600000Y-300065951D01*
X418600000Y-300065951D02*
X418504762Y-300208809D01*
X418504762Y-300208809D02*
X418409524Y-300304047D01*
X418409524Y-300304047D02*
X418314286Y-300351666D01*
D11*
%TO.C,TXT15*%
X449990476Y-279448332D02*
X450133333Y-279495951D01*
X450133333Y-279495951D02*
X450371428Y-279495951D01*
X450371428Y-279495951D02*
X450466666Y-279448332D01*
X450466666Y-279448332D02*
X450514285Y-279400713D01*
X450514285Y-279400713D02*
X450561904Y-279305475D01*
X450561904Y-279305475D02*
X450561904Y-279210237D01*
X450561904Y-279210237D02*
X450514285Y-279114999D01*
X450514285Y-279114999D02*
X450466666Y-279067380D01*
X450466666Y-279067380D02*
X450371428Y-279019761D01*
X450371428Y-279019761D02*
X450180952Y-278972142D01*
X450180952Y-278972142D02*
X450085714Y-278924523D01*
X450085714Y-278924523D02*
X450038095Y-278876904D01*
X450038095Y-278876904D02*
X449990476Y-278781666D01*
X449990476Y-278781666D02*
X449990476Y-278686428D01*
X449990476Y-278686428D02*
X450038095Y-278591190D01*
X450038095Y-278591190D02*
X450085714Y-278543571D01*
X450085714Y-278543571D02*
X450180952Y-278495951D01*
X450180952Y-278495951D02*
X450419047Y-278495951D01*
X450419047Y-278495951D02*
X450561904Y-278543571D01*
X451323809Y-278972142D02*
X451466666Y-279019761D01*
X451466666Y-279019761D02*
X451514285Y-279067380D01*
X451514285Y-279067380D02*
X451561904Y-279162618D01*
X451561904Y-279162618D02*
X451561904Y-279305475D01*
X451561904Y-279305475D02*
X451514285Y-279400713D01*
X451514285Y-279400713D02*
X451466666Y-279448332D01*
X451466666Y-279448332D02*
X451371428Y-279495951D01*
X451371428Y-279495951D02*
X450990476Y-279495951D01*
X450990476Y-279495951D02*
X450990476Y-278495951D01*
X450990476Y-278495951D02*
X451323809Y-278495951D01*
X451323809Y-278495951D02*
X451419047Y-278543571D01*
X451419047Y-278543571D02*
X451466666Y-278591190D01*
X451466666Y-278591190D02*
X451514285Y-278686428D01*
X451514285Y-278686428D02*
X451514285Y-278781666D01*
X451514285Y-278781666D02*
X451466666Y-278876904D01*
X451466666Y-278876904D02*
X451419047Y-278924523D01*
X451419047Y-278924523D02*
X451323809Y-278972142D01*
X451323809Y-278972142D02*
X450990476Y-278972142D01*
X451990476Y-278495951D02*
X451990476Y-279305475D01*
X451990476Y-279305475D02*
X452038095Y-279400713D01*
X452038095Y-279400713D02*
X452085714Y-279448332D01*
X452085714Y-279448332D02*
X452180952Y-279495951D01*
X452180952Y-279495951D02*
X452371428Y-279495951D01*
X452371428Y-279495951D02*
X452466666Y-279448332D01*
X452466666Y-279448332D02*
X452514285Y-279400713D01*
X452514285Y-279400713D02*
X452561904Y-279305475D01*
X452561904Y-279305475D02*
X452561904Y-278495951D01*
X453561904Y-279495951D02*
X452990476Y-279495951D01*
X453276190Y-279495951D02*
X453276190Y-278495951D01*
X453276190Y-278495951D02*
X453180952Y-278638809D01*
X453180952Y-278638809D02*
X453085714Y-278734047D01*
X453085714Y-278734047D02*
X452990476Y-278781666D01*
%TO.C,TXT10*%
X442390476Y-285848332D02*
X442533333Y-285895951D01*
X442533333Y-285895951D02*
X442771428Y-285895951D01*
X442771428Y-285895951D02*
X442866666Y-285848332D01*
X442866666Y-285848332D02*
X442914285Y-285800713D01*
X442914285Y-285800713D02*
X442961904Y-285705475D01*
X442961904Y-285705475D02*
X442961904Y-285610237D01*
X442961904Y-285610237D02*
X442914285Y-285514999D01*
X442914285Y-285514999D02*
X442866666Y-285467380D01*
X442866666Y-285467380D02*
X442771428Y-285419761D01*
X442771428Y-285419761D02*
X442580952Y-285372142D01*
X442580952Y-285372142D02*
X442485714Y-285324523D01*
X442485714Y-285324523D02*
X442438095Y-285276904D01*
X442438095Y-285276904D02*
X442390476Y-285181666D01*
X442390476Y-285181666D02*
X442390476Y-285086428D01*
X442390476Y-285086428D02*
X442438095Y-284991190D01*
X442438095Y-284991190D02*
X442485714Y-284943571D01*
X442485714Y-284943571D02*
X442580952Y-284895951D01*
X442580952Y-284895951D02*
X442819047Y-284895951D01*
X442819047Y-284895951D02*
X442961904Y-284943571D01*
X443342857Y-285848332D02*
X443485714Y-285895951D01*
X443485714Y-285895951D02*
X443723809Y-285895951D01*
X443723809Y-285895951D02*
X443819047Y-285848332D01*
X443819047Y-285848332D02*
X443866666Y-285800713D01*
X443866666Y-285800713D02*
X443914285Y-285705475D01*
X443914285Y-285705475D02*
X443914285Y-285610237D01*
X443914285Y-285610237D02*
X443866666Y-285514999D01*
X443866666Y-285514999D02*
X443819047Y-285467380D01*
X443819047Y-285467380D02*
X443723809Y-285419761D01*
X443723809Y-285419761D02*
X443533333Y-285372142D01*
X443533333Y-285372142D02*
X443438095Y-285324523D01*
X443438095Y-285324523D02*
X443390476Y-285276904D01*
X443390476Y-285276904D02*
X443342857Y-285181666D01*
X443342857Y-285181666D02*
X443342857Y-285086428D01*
X443342857Y-285086428D02*
X443390476Y-284991190D01*
X443390476Y-284991190D02*
X443438095Y-284943571D01*
X443438095Y-284943571D02*
X443533333Y-284895951D01*
X443533333Y-284895951D02*
X443771428Y-284895951D01*
X443771428Y-284895951D02*
X443914285Y-284943571D01*
X444200000Y-284895951D02*
X444771428Y-284895951D01*
X444485714Y-285895951D02*
X444485714Y-284895951D01*
X445009524Y-284895951D02*
X445676190Y-285895951D01*
X445676190Y-284895951D02*
X445009524Y-285895951D01*
X446057143Y-285895951D02*
X446057143Y-284895951D01*
X446057143Y-284895951D02*
X446628571Y-285895951D01*
X446628571Y-285895951D02*
X446628571Y-284895951D01*
X447628571Y-285895951D02*
X447057143Y-285895951D01*
X447342857Y-285895951D02*
X447342857Y-284895951D01*
X447342857Y-284895951D02*
X447247619Y-285038809D01*
X447247619Y-285038809D02*
X447152381Y-285134047D01*
X447152381Y-285134047D02*
X447057143Y-285181666D01*
%TO.C,LED16*%
X437614285Y-275895951D02*
X437138095Y-275895951D01*
X437138095Y-275895951D02*
X437138095Y-274895951D01*
X437947619Y-275372142D02*
X438280952Y-275372142D01*
X438423809Y-275895951D02*
X437947619Y-275895951D01*
X437947619Y-275895951D02*
X437947619Y-274895951D01*
X437947619Y-274895951D02*
X438423809Y-274895951D01*
X438852381Y-275895951D02*
X438852381Y-274895951D01*
X438852381Y-274895951D02*
X439090476Y-274895951D01*
X439090476Y-274895951D02*
X439233333Y-274943571D01*
X439233333Y-274943571D02*
X439328571Y-275038809D01*
X439328571Y-275038809D02*
X439376190Y-275134047D01*
X439376190Y-275134047D02*
X439423809Y-275324523D01*
X439423809Y-275324523D02*
X439423809Y-275467380D01*
X439423809Y-275467380D02*
X439376190Y-275657856D01*
X439376190Y-275657856D02*
X439328571Y-275753094D01*
X439328571Y-275753094D02*
X439233333Y-275848332D01*
X439233333Y-275848332D02*
X439090476Y-275895951D01*
X439090476Y-275895951D02*
X438852381Y-275895951D01*
X440376190Y-275895951D02*
X439804762Y-275895951D01*
X440090476Y-275895951D02*
X440090476Y-274895951D01*
X440090476Y-274895951D02*
X439995238Y-275038809D01*
X439995238Y-275038809D02*
X439900000Y-275134047D01*
X439900000Y-275134047D02*
X439804762Y-275181666D01*
X441233333Y-274895951D02*
X441042857Y-274895951D01*
X441042857Y-274895951D02*
X440947619Y-274943571D01*
X440947619Y-274943571D02*
X440900000Y-274991190D01*
X440900000Y-274991190D02*
X440804762Y-275134047D01*
X440804762Y-275134047D02*
X440757143Y-275324523D01*
X440757143Y-275324523D02*
X440757143Y-275705475D01*
X440757143Y-275705475D02*
X440804762Y-275800713D01*
X440804762Y-275800713D02*
X440852381Y-275848332D01*
X440852381Y-275848332D02*
X440947619Y-275895951D01*
X440947619Y-275895951D02*
X441138095Y-275895951D01*
X441138095Y-275895951D02*
X441233333Y-275848332D01*
X441233333Y-275848332D02*
X441280952Y-275800713D01*
X441280952Y-275800713D02*
X441328571Y-275705475D01*
X441328571Y-275705475D02*
X441328571Y-275467380D01*
X441328571Y-275467380D02*
X441280952Y-275372142D01*
X441280952Y-275372142D02*
X441233333Y-275324523D01*
X441233333Y-275324523D02*
X441138095Y-275276904D01*
X441138095Y-275276904D02*
X440947619Y-275276904D01*
X440947619Y-275276904D02*
X440852381Y-275324523D01*
X440852381Y-275324523D02*
X440804762Y-275372142D01*
X440804762Y-275372142D02*
X440757143Y-275467380D01*
%TO.C,TXT11*%
X451795238Y-276895951D02*
X452128571Y-277895951D01*
X452128571Y-277895951D02*
X452461904Y-276895951D01*
X453128571Y-277372142D02*
X453271428Y-277419761D01*
X453271428Y-277419761D02*
X453319047Y-277467380D01*
X453319047Y-277467380D02*
X453366666Y-277562618D01*
X453366666Y-277562618D02*
X453366666Y-277705475D01*
X453366666Y-277705475D02*
X453319047Y-277800713D01*
X453319047Y-277800713D02*
X453271428Y-277848332D01*
X453271428Y-277848332D02*
X453176190Y-277895951D01*
X453176190Y-277895951D02*
X452795238Y-277895951D01*
X452795238Y-277895951D02*
X452795238Y-276895951D01*
X452795238Y-276895951D02*
X453128571Y-276895951D01*
X453128571Y-276895951D02*
X453223809Y-276943571D01*
X453223809Y-276943571D02*
X453271428Y-276991190D01*
X453271428Y-276991190D02*
X453319047Y-277086428D01*
X453319047Y-277086428D02*
X453319047Y-277181666D01*
X453319047Y-277181666D02*
X453271428Y-277276904D01*
X453271428Y-277276904D02*
X453223809Y-277324523D01*
X453223809Y-277324523D02*
X453128571Y-277372142D01*
X453128571Y-277372142D02*
X452795238Y-277372142D01*
X453795238Y-276895951D02*
X453795238Y-277705475D01*
X453795238Y-277705475D02*
X453842857Y-277800713D01*
X453842857Y-277800713D02*
X453890476Y-277848332D01*
X453890476Y-277848332D02*
X453985714Y-277895951D01*
X453985714Y-277895951D02*
X454176190Y-277895951D01*
X454176190Y-277895951D02*
X454271428Y-277848332D01*
X454271428Y-277848332D02*
X454319047Y-277800713D01*
X454319047Y-277800713D02*
X454366666Y-277705475D01*
X454366666Y-277705475D02*
X454366666Y-276895951D01*
X454795238Y-277848332D02*
X454938095Y-277895951D01*
X454938095Y-277895951D02*
X455176190Y-277895951D01*
X455176190Y-277895951D02*
X455271428Y-277848332D01*
X455271428Y-277848332D02*
X455319047Y-277800713D01*
X455319047Y-277800713D02*
X455366666Y-277705475D01*
X455366666Y-277705475D02*
X455366666Y-277610237D01*
X455366666Y-277610237D02*
X455319047Y-277514999D01*
X455319047Y-277514999D02*
X455271428Y-277467380D01*
X455271428Y-277467380D02*
X455176190Y-277419761D01*
X455176190Y-277419761D02*
X454985714Y-277372142D01*
X454985714Y-277372142D02*
X454890476Y-277324523D01*
X454890476Y-277324523D02*
X454842857Y-277276904D01*
X454842857Y-277276904D02*
X454795238Y-277181666D01*
X454795238Y-277181666D02*
X454795238Y-277086428D01*
X454795238Y-277086428D02*
X454842857Y-276991190D01*
X454842857Y-276991190D02*
X454890476Y-276943571D01*
X454890476Y-276943571D02*
X454985714Y-276895951D01*
X454985714Y-276895951D02*
X455223809Y-276895951D01*
X455223809Y-276895951D02*
X455366666Y-276943571D01*
%TO.C,LED13*%
X430014285Y-282295951D02*
X429538095Y-282295951D01*
X429538095Y-282295951D02*
X429538095Y-281295951D01*
X430347619Y-281772142D02*
X430680952Y-281772142D01*
X430823809Y-282295951D02*
X430347619Y-282295951D01*
X430347619Y-282295951D02*
X430347619Y-281295951D01*
X430347619Y-281295951D02*
X430823809Y-281295951D01*
X431252381Y-282295951D02*
X431252381Y-281295951D01*
X431252381Y-281295951D02*
X431490476Y-281295951D01*
X431490476Y-281295951D02*
X431633333Y-281343571D01*
X431633333Y-281343571D02*
X431728571Y-281438809D01*
X431728571Y-281438809D02*
X431776190Y-281534047D01*
X431776190Y-281534047D02*
X431823809Y-281724523D01*
X431823809Y-281724523D02*
X431823809Y-281867380D01*
X431823809Y-281867380D02*
X431776190Y-282057856D01*
X431776190Y-282057856D02*
X431728571Y-282153094D01*
X431728571Y-282153094D02*
X431633333Y-282248332D01*
X431633333Y-282248332D02*
X431490476Y-282295951D01*
X431490476Y-282295951D02*
X431252381Y-282295951D01*
X432776190Y-282295951D02*
X432204762Y-282295951D01*
X432490476Y-282295951D02*
X432490476Y-281295951D01*
X432490476Y-281295951D02*
X432395238Y-281438809D01*
X432395238Y-281438809D02*
X432300000Y-281534047D01*
X432300000Y-281534047D02*
X432204762Y-281581666D01*
X433109524Y-281295951D02*
X433728571Y-281295951D01*
X433728571Y-281295951D02*
X433395238Y-281676904D01*
X433395238Y-281676904D02*
X433538095Y-281676904D01*
X433538095Y-281676904D02*
X433633333Y-281724523D01*
X433633333Y-281724523D02*
X433680952Y-281772142D01*
X433680952Y-281772142D02*
X433728571Y-281867380D01*
X433728571Y-281867380D02*
X433728571Y-282105475D01*
X433728571Y-282105475D02*
X433680952Y-282200713D01*
X433680952Y-282200713D02*
X433633333Y-282248332D01*
X433633333Y-282248332D02*
X433538095Y-282295951D01*
X433538095Y-282295951D02*
X433252381Y-282295951D01*
X433252381Y-282295951D02*
X433157143Y-282248332D01*
X433157143Y-282248332D02*
X433109524Y-282200713D01*
%TO.C,B1*%
X422557857Y-266071428D02*
X422605476Y-265928571D01*
X422605476Y-265928571D02*
X422653095Y-265880952D01*
X422653095Y-265880952D02*
X422748333Y-265833333D01*
X422748333Y-265833333D02*
X422891190Y-265833333D01*
X422891190Y-265833333D02*
X422986428Y-265880952D01*
X422986428Y-265880952D02*
X423034047Y-265928571D01*
X423034047Y-265928571D02*
X423081666Y-266023809D01*
X423081666Y-266023809D02*
X423081666Y-266404761D01*
X423081666Y-266404761D02*
X422081666Y-266404761D01*
X422081666Y-266404761D02*
X422081666Y-266071428D01*
X422081666Y-266071428D02*
X422129286Y-265976190D01*
X422129286Y-265976190D02*
X422176905Y-265928571D01*
X422176905Y-265928571D02*
X422272143Y-265880952D01*
X422272143Y-265880952D02*
X422367381Y-265880952D01*
X422367381Y-265880952D02*
X422462619Y-265928571D01*
X422462619Y-265928571D02*
X422510238Y-265976190D01*
X422510238Y-265976190D02*
X422557857Y-266071428D01*
X422557857Y-266071428D02*
X422557857Y-266404761D01*
X423081666Y-264880952D02*
X423081666Y-265452380D01*
X423081666Y-265166666D02*
X422081666Y-265166666D01*
X422081666Y-265166666D02*
X422224524Y-265261904D01*
X422224524Y-265261904D02*
X422319762Y-265357142D01*
X422319762Y-265357142D02*
X422367381Y-265452380D01*
%TO.C,LED5*%
X416714285Y-293495951D02*
X416238095Y-293495951D01*
X416238095Y-293495951D02*
X416238095Y-292495951D01*
X417047619Y-292972142D02*
X417380952Y-292972142D01*
X417523809Y-293495951D02*
X417047619Y-293495951D01*
X417047619Y-293495951D02*
X417047619Y-292495951D01*
X417047619Y-292495951D02*
X417523809Y-292495951D01*
X417952381Y-293495951D02*
X417952381Y-292495951D01*
X417952381Y-292495951D02*
X418190476Y-292495951D01*
X418190476Y-292495951D02*
X418333333Y-292543571D01*
X418333333Y-292543571D02*
X418428571Y-292638809D01*
X418428571Y-292638809D02*
X418476190Y-292734047D01*
X418476190Y-292734047D02*
X418523809Y-292924523D01*
X418523809Y-292924523D02*
X418523809Y-293067380D01*
X418523809Y-293067380D02*
X418476190Y-293257856D01*
X418476190Y-293257856D02*
X418428571Y-293353094D01*
X418428571Y-293353094D02*
X418333333Y-293448332D01*
X418333333Y-293448332D02*
X418190476Y-293495951D01*
X418190476Y-293495951D02*
X417952381Y-293495951D01*
X419428571Y-292495951D02*
X418952381Y-292495951D01*
X418952381Y-292495951D02*
X418904762Y-292972142D01*
X418904762Y-292972142D02*
X418952381Y-292924523D01*
X418952381Y-292924523D02*
X419047619Y-292876904D01*
X419047619Y-292876904D02*
X419285714Y-292876904D01*
X419285714Y-292876904D02*
X419380952Y-292924523D01*
X419380952Y-292924523D02*
X419428571Y-292972142D01*
X419428571Y-292972142D02*
X419476190Y-293067380D01*
X419476190Y-293067380D02*
X419476190Y-293305475D01*
X419476190Y-293305475D02*
X419428571Y-293400713D01*
X419428571Y-293400713D02*
X419380952Y-293448332D01*
X419380952Y-293448332D02*
X419285714Y-293495951D01*
X419285714Y-293495951D02*
X419047619Y-293495951D01*
X419047619Y-293495951D02*
X418952381Y-293448332D01*
X418952381Y-293448332D02*
X418904762Y-293400713D01*
%TO.C,TXT8*%
X438590476Y-289048332D02*
X438733333Y-289095951D01*
X438733333Y-289095951D02*
X438971428Y-289095951D01*
X438971428Y-289095951D02*
X439066666Y-289048332D01*
X439066666Y-289048332D02*
X439114285Y-289000713D01*
X439114285Y-289000713D02*
X439161904Y-288905475D01*
X439161904Y-288905475D02*
X439161904Y-288810237D01*
X439161904Y-288810237D02*
X439114285Y-288714999D01*
X439114285Y-288714999D02*
X439066666Y-288667380D01*
X439066666Y-288667380D02*
X438971428Y-288619761D01*
X438971428Y-288619761D02*
X438780952Y-288572142D01*
X438780952Y-288572142D02*
X438685714Y-288524523D01*
X438685714Y-288524523D02*
X438638095Y-288476904D01*
X438638095Y-288476904D02*
X438590476Y-288381666D01*
X438590476Y-288381666D02*
X438590476Y-288286428D01*
X438590476Y-288286428D02*
X438638095Y-288191190D01*
X438638095Y-288191190D02*
X438685714Y-288143571D01*
X438685714Y-288143571D02*
X438780952Y-288095951D01*
X438780952Y-288095951D02*
X439019047Y-288095951D01*
X439019047Y-288095951D02*
X439161904Y-288143571D01*
X439542857Y-289048332D02*
X439685714Y-289095951D01*
X439685714Y-289095951D02*
X439923809Y-289095951D01*
X439923809Y-289095951D02*
X440019047Y-289048332D01*
X440019047Y-289048332D02*
X440066666Y-289000713D01*
X440066666Y-289000713D02*
X440114285Y-288905475D01*
X440114285Y-288905475D02*
X440114285Y-288810237D01*
X440114285Y-288810237D02*
X440066666Y-288714999D01*
X440066666Y-288714999D02*
X440019047Y-288667380D01*
X440019047Y-288667380D02*
X439923809Y-288619761D01*
X439923809Y-288619761D02*
X439733333Y-288572142D01*
X439733333Y-288572142D02*
X439638095Y-288524523D01*
X439638095Y-288524523D02*
X439590476Y-288476904D01*
X439590476Y-288476904D02*
X439542857Y-288381666D01*
X439542857Y-288381666D02*
X439542857Y-288286428D01*
X439542857Y-288286428D02*
X439590476Y-288191190D01*
X439590476Y-288191190D02*
X439638095Y-288143571D01*
X439638095Y-288143571D02*
X439733333Y-288095951D01*
X439733333Y-288095951D02*
X439971428Y-288095951D01*
X439971428Y-288095951D02*
X440114285Y-288143571D01*
X441114285Y-289095951D02*
X440780952Y-288619761D01*
X440542857Y-289095951D02*
X440542857Y-288095951D01*
X440542857Y-288095951D02*
X440923809Y-288095951D01*
X440923809Y-288095951D02*
X441019047Y-288143571D01*
X441019047Y-288143571D02*
X441066666Y-288191190D01*
X441066666Y-288191190D02*
X441114285Y-288286428D01*
X441114285Y-288286428D02*
X441114285Y-288429285D01*
X441114285Y-288429285D02*
X441066666Y-288524523D01*
X441066666Y-288524523D02*
X441019047Y-288572142D01*
X441019047Y-288572142D02*
X440923809Y-288619761D01*
X440923809Y-288619761D02*
X440542857Y-288619761D01*
X441447619Y-288095951D02*
X442114285Y-289095951D01*
X442114285Y-288095951D02*
X441447619Y-289095951D01*
X442495238Y-289095951D02*
X442495238Y-288095951D01*
X442495238Y-288095951D02*
X442876190Y-288095951D01*
X442876190Y-288095951D02*
X442971428Y-288143571D01*
X442971428Y-288143571D02*
X443019047Y-288191190D01*
X443019047Y-288191190D02*
X443066666Y-288286428D01*
X443066666Y-288286428D02*
X443066666Y-288429285D01*
X443066666Y-288429285D02*
X443019047Y-288524523D01*
X443019047Y-288524523D02*
X442971428Y-288572142D01*
X442971428Y-288572142D02*
X442876190Y-288619761D01*
X442876190Y-288619761D02*
X442495238Y-288619761D01*
X444019047Y-289095951D02*
X443447619Y-289095951D01*
X443733333Y-289095951D02*
X443733333Y-288095951D01*
X443733333Y-288095951D02*
X443638095Y-288238809D01*
X443638095Y-288238809D02*
X443542857Y-288334047D01*
X443542857Y-288334047D02*
X443447619Y-288381666D01*
%TO.C,LED11*%
X435714285Y-277495951D02*
X435238095Y-277495951D01*
X435238095Y-277495951D02*
X435238095Y-276495951D01*
X436047619Y-276972142D02*
X436380952Y-276972142D01*
X436523809Y-277495951D02*
X436047619Y-277495951D01*
X436047619Y-277495951D02*
X436047619Y-276495951D01*
X436047619Y-276495951D02*
X436523809Y-276495951D01*
X436952381Y-277495951D02*
X436952381Y-276495951D01*
X436952381Y-276495951D02*
X437190476Y-276495951D01*
X437190476Y-276495951D02*
X437333333Y-276543571D01*
X437333333Y-276543571D02*
X437428571Y-276638809D01*
X437428571Y-276638809D02*
X437476190Y-276734047D01*
X437476190Y-276734047D02*
X437523809Y-276924523D01*
X437523809Y-276924523D02*
X437523809Y-277067380D01*
X437523809Y-277067380D02*
X437476190Y-277257856D01*
X437476190Y-277257856D02*
X437428571Y-277353094D01*
X437428571Y-277353094D02*
X437333333Y-277448332D01*
X437333333Y-277448332D02*
X437190476Y-277495951D01*
X437190476Y-277495951D02*
X436952381Y-277495951D01*
X438476190Y-277495951D02*
X437904762Y-277495951D01*
X438190476Y-277495951D02*
X438190476Y-276495951D01*
X438190476Y-276495951D02*
X438095238Y-276638809D01*
X438095238Y-276638809D02*
X438000000Y-276734047D01*
X438000000Y-276734047D02*
X437904762Y-276781666D01*
X439428571Y-277495951D02*
X438857143Y-277495951D01*
X439142857Y-277495951D02*
X439142857Y-276495951D01*
X439142857Y-276495951D02*
X439047619Y-276638809D01*
X439047619Y-276638809D02*
X438952381Y-276734047D01*
X438952381Y-276734047D02*
X438857143Y-276781666D01*
%TO.C,LED15*%
X433814285Y-279095951D02*
X433338095Y-279095951D01*
X433338095Y-279095951D02*
X433338095Y-278095951D01*
X434147619Y-278572142D02*
X434480952Y-278572142D01*
X434623809Y-279095951D02*
X434147619Y-279095951D01*
X434147619Y-279095951D02*
X434147619Y-278095951D01*
X434147619Y-278095951D02*
X434623809Y-278095951D01*
X435052381Y-279095951D02*
X435052381Y-278095951D01*
X435052381Y-278095951D02*
X435290476Y-278095951D01*
X435290476Y-278095951D02*
X435433333Y-278143571D01*
X435433333Y-278143571D02*
X435528571Y-278238809D01*
X435528571Y-278238809D02*
X435576190Y-278334047D01*
X435576190Y-278334047D02*
X435623809Y-278524523D01*
X435623809Y-278524523D02*
X435623809Y-278667380D01*
X435623809Y-278667380D02*
X435576190Y-278857856D01*
X435576190Y-278857856D02*
X435528571Y-278953094D01*
X435528571Y-278953094D02*
X435433333Y-279048332D01*
X435433333Y-279048332D02*
X435290476Y-279095951D01*
X435290476Y-279095951D02*
X435052381Y-279095951D01*
X436576190Y-279095951D02*
X436004762Y-279095951D01*
X436290476Y-279095951D02*
X436290476Y-278095951D01*
X436290476Y-278095951D02*
X436195238Y-278238809D01*
X436195238Y-278238809D02*
X436100000Y-278334047D01*
X436100000Y-278334047D02*
X436004762Y-278381666D01*
X437480952Y-278095951D02*
X437004762Y-278095951D01*
X437004762Y-278095951D02*
X436957143Y-278572142D01*
X436957143Y-278572142D02*
X437004762Y-278524523D01*
X437004762Y-278524523D02*
X437100000Y-278476904D01*
X437100000Y-278476904D02*
X437338095Y-278476904D01*
X437338095Y-278476904D02*
X437433333Y-278524523D01*
X437433333Y-278524523D02*
X437480952Y-278572142D01*
X437480952Y-278572142D02*
X437528571Y-278667380D01*
X437528571Y-278667380D02*
X437528571Y-278905475D01*
X437528571Y-278905475D02*
X437480952Y-279000713D01*
X437480952Y-279000713D02*
X437433333Y-279048332D01*
X437433333Y-279048332D02*
X437338095Y-279095951D01*
X437338095Y-279095951D02*
X437100000Y-279095951D01*
X437100000Y-279095951D02*
X437004762Y-279048332D01*
X437004762Y-279048332D02*
X436957143Y-279000713D01*
%TO.C,TXT3*%
X429709523Y-297000713D02*
X429661904Y-297048332D01*
X429661904Y-297048332D02*
X429519047Y-297095951D01*
X429519047Y-297095951D02*
X429423809Y-297095951D01*
X429423809Y-297095951D02*
X429280952Y-297048332D01*
X429280952Y-297048332D02*
X429185714Y-296953094D01*
X429185714Y-296953094D02*
X429138095Y-296857856D01*
X429138095Y-296857856D02*
X429090476Y-296667380D01*
X429090476Y-296667380D02*
X429090476Y-296524523D01*
X429090476Y-296524523D02*
X429138095Y-296334047D01*
X429138095Y-296334047D02*
X429185714Y-296238809D01*
X429185714Y-296238809D02*
X429280952Y-296143571D01*
X429280952Y-296143571D02*
X429423809Y-296095951D01*
X429423809Y-296095951D02*
X429519047Y-296095951D01*
X429519047Y-296095951D02*
X429661904Y-296143571D01*
X429661904Y-296143571D02*
X429709523Y-296191190D01*
X430709523Y-297000713D02*
X430661904Y-297048332D01*
X430661904Y-297048332D02*
X430519047Y-297095951D01*
X430519047Y-297095951D02*
X430423809Y-297095951D01*
X430423809Y-297095951D02*
X430280952Y-297048332D01*
X430280952Y-297048332D02*
X430185714Y-296953094D01*
X430185714Y-296953094D02*
X430138095Y-296857856D01*
X430138095Y-296857856D02*
X430090476Y-296667380D01*
X430090476Y-296667380D02*
X430090476Y-296524523D01*
X430090476Y-296524523D02*
X430138095Y-296334047D01*
X430138095Y-296334047D02*
X430185714Y-296238809D01*
X430185714Y-296238809D02*
X430280952Y-296143571D01*
X430280952Y-296143571D02*
X430423809Y-296095951D01*
X430423809Y-296095951D02*
X430519047Y-296095951D01*
X430519047Y-296095951D02*
X430661904Y-296143571D01*
X430661904Y-296143571D02*
X430709523Y-296191190D01*
X431090476Y-296191190D02*
X431138095Y-296143571D01*
X431138095Y-296143571D02*
X431233333Y-296095951D01*
X431233333Y-296095951D02*
X431471428Y-296095951D01*
X431471428Y-296095951D02*
X431566666Y-296143571D01*
X431566666Y-296143571D02*
X431614285Y-296191190D01*
X431614285Y-296191190D02*
X431661904Y-296286428D01*
X431661904Y-296286428D02*
X431661904Y-296381666D01*
X431661904Y-296381666D02*
X431614285Y-296524523D01*
X431614285Y-296524523D02*
X431042857Y-297095951D01*
X431042857Y-297095951D02*
X431661904Y-297095951D01*
%TO.C,LED4*%
X414814285Y-295095951D02*
X414338095Y-295095951D01*
X414338095Y-295095951D02*
X414338095Y-294095951D01*
X415147619Y-294572142D02*
X415480952Y-294572142D01*
X415623809Y-295095951D02*
X415147619Y-295095951D01*
X415147619Y-295095951D02*
X415147619Y-294095951D01*
X415147619Y-294095951D02*
X415623809Y-294095951D01*
X416052381Y-295095951D02*
X416052381Y-294095951D01*
X416052381Y-294095951D02*
X416290476Y-294095951D01*
X416290476Y-294095951D02*
X416433333Y-294143571D01*
X416433333Y-294143571D02*
X416528571Y-294238809D01*
X416528571Y-294238809D02*
X416576190Y-294334047D01*
X416576190Y-294334047D02*
X416623809Y-294524523D01*
X416623809Y-294524523D02*
X416623809Y-294667380D01*
X416623809Y-294667380D02*
X416576190Y-294857856D01*
X416576190Y-294857856D02*
X416528571Y-294953094D01*
X416528571Y-294953094D02*
X416433333Y-295048332D01*
X416433333Y-295048332D02*
X416290476Y-295095951D01*
X416290476Y-295095951D02*
X416052381Y-295095951D01*
X417480952Y-294429285D02*
X417480952Y-295095951D01*
X417242857Y-294048332D02*
X417004762Y-294762618D01*
X417004762Y-294762618D02*
X417623809Y-294762618D01*
%TO.C,TXT5*%
X432938095Y-293895951D02*
X432938095Y-292895951D01*
X432938095Y-292895951D02*
X433176190Y-292895951D01*
X433176190Y-292895951D02*
X433319047Y-292943571D01*
X433319047Y-292943571D02*
X433414285Y-293038809D01*
X433414285Y-293038809D02*
X433461904Y-293134047D01*
X433461904Y-293134047D02*
X433509523Y-293324523D01*
X433509523Y-293324523D02*
X433509523Y-293467380D01*
X433509523Y-293467380D02*
X433461904Y-293657856D01*
X433461904Y-293657856D02*
X433414285Y-293753094D01*
X433414285Y-293753094D02*
X433319047Y-293848332D01*
X433319047Y-293848332D02*
X433176190Y-293895951D01*
X433176190Y-293895951D02*
X432938095Y-293895951D01*
X433938095Y-293895951D02*
X433938095Y-292895951D01*
X433938095Y-292895951D02*
X434509523Y-293895951D01*
X434509523Y-293895951D02*
X434509523Y-292895951D01*
X434938095Y-292991190D02*
X434985714Y-292943571D01*
X434985714Y-292943571D02*
X435080952Y-292895951D01*
X435080952Y-292895951D02*
X435319047Y-292895951D01*
X435319047Y-292895951D02*
X435414285Y-292943571D01*
X435414285Y-292943571D02*
X435461904Y-292991190D01*
X435461904Y-292991190D02*
X435509523Y-293086428D01*
X435509523Y-293086428D02*
X435509523Y-293181666D01*
X435509523Y-293181666D02*
X435461904Y-293324523D01*
X435461904Y-293324523D02*
X434890476Y-293895951D01*
X434890476Y-293895951D02*
X435509523Y-293895951D01*
%TO.C,LED2*%
X411014285Y-298295951D02*
X410538095Y-298295951D01*
X410538095Y-298295951D02*
X410538095Y-297295951D01*
X411347619Y-297772142D02*
X411680952Y-297772142D01*
X411823809Y-298295951D02*
X411347619Y-298295951D01*
X411347619Y-298295951D02*
X411347619Y-297295951D01*
X411347619Y-297295951D02*
X411823809Y-297295951D01*
X412252381Y-298295951D02*
X412252381Y-297295951D01*
X412252381Y-297295951D02*
X412490476Y-297295951D01*
X412490476Y-297295951D02*
X412633333Y-297343571D01*
X412633333Y-297343571D02*
X412728571Y-297438809D01*
X412728571Y-297438809D02*
X412776190Y-297534047D01*
X412776190Y-297534047D02*
X412823809Y-297724523D01*
X412823809Y-297724523D02*
X412823809Y-297867380D01*
X412823809Y-297867380D02*
X412776190Y-298057856D01*
X412776190Y-298057856D02*
X412728571Y-298153094D01*
X412728571Y-298153094D02*
X412633333Y-298248332D01*
X412633333Y-298248332D02*
X412490476Y-298295951D01*
X412490476Y-298295951D02*
X412252381Y-298295951D01*
X413204762Y-297391190D02*
X413252381Y-297343571D01*
X413252381Y-297343571D02*
X413347619Y-297295951D01*
X413347619Y-297295951D02*
X413585714Y-297295951D01*
X413585714Y-297295951D02*
X413680952Y-297343571D01*
X413680952Y-297343571D02*
X413728571Y-297391190D01*
X413728571Y-297391190D02*
X413776190Y-297486428D01*
X413776190Y-297486428D02*
X413776190Y-297581666D01*
X413776190Y-297581666D02*
X413728571Y-297724523D01*
X413728571Y-297724523D02*
X413157143Y-298295951D01*
X413157143Y-298295951D02*
X413776190Y-298295951D01*
%TO.C,LED12*%
X428114285Y-283895951D02*
X427638095Y-283895951D01*
X427638095Y-283895951D02*
X427638095Y-282895951D01*
X428447619Y-283372142D02*
X428780952Y-283372142D01*
X428923809Y-283895951D02*
X428447619Y-283895951D01*
X428447619Y-283895951D02*
X428447619Y-282895951D01*
X428447619Y-282895951D02*
X428923809Y-282895951D01*
X429352381Y-283895951D02*
X429352381Y-282895951D01*
X429352381Y-282895951D02*
X429590476Y-282895951D01*
X429590476Y-282895951D02*
X429733333Y-282943571D01*
X429733333Y-282943571D02*
X429828571Y-283038809D01*
X429828571Y-283038809D02*
X429876190Y-283134047D01*
X429876190Y-283134047D02*
X429923809Y-283324523D01*
X429923809Y-283324523D02*
X429923809Y-283467380D01*
X429923809Y-283467380D02*
X429876190Y-283657856D01*
X429876190Y-283657856D02*
X429828571Y-283753094D01*
X429828571Y-283753094D02*
X429733333Y-283848332D01*
X429733333Y-283848332D02*
X429590476Y-283895951D01*
X429590476Y-283895951D02*
X429352381Y-283895951D01*
X430876190Y-283895951D02*
X430304762Y-283895951D01*
X430590476Y-283895951D02*
X430590476Y-282895951D01*
X430590476Y-282895951D02*
X430495238Y-283038809D01*
X430495238Y-283038809D02*
X430400000Y-283134047D01*
X430400000Y-283134047D02*
X430304762Y-283181666D01*
X431257143Y-282991190D02*
X431304762Y-282943571D01*
X431304762Y-282943571D02*
X431400000Y-282895951D01*
X431400000Y-282895951D02*
X431638095Y-282895951D01*
X431638095Y-282895951D02*
X431733333Y-282943571D01*
X431733333Y-282943571D02*
X431780952Y-282991190D01*
X431780952Y-282991190D02*
X431828571Y-283086428D01*
X431828571Y-283086428D02*
X431828571Y-283181666D01*
X431828571Y-283181666D02*
X431780952Y-283324523D01*
X431780952Y-283324523D02*
X431209524Y-283895951D01*
X431209524Y-283895951D02*
X431828571Y-283895951D01*
%TO.C,LED18*%
X441414285Y-272695951D02*
X440938095Y-272695951D01*
X440938095Y-272695951D02*
X440938095Y-271695951D01*
X441747619Y-272172142D02*
X442080952Y-272172142D01*
X442223809Y-272695951D02*
X441747619Y-272695951D01*
X441747619Y-272695951D02*
X441747619Y-271695951D01*
X441747619Y-271695951D02*
X442223809Y-271695951D01*
X442652381Y-272695951D02*
X442652381Y-271695951D01*
X442652381Y-271695951D02*
X442890476Y-271695951D01*
X442890476Y-271695951D02*
X443033333Y-271743571D01*
X443033333Y-271743571D02*
X443128571Y-271838809D01*
X443128571Y-271838809D02*
X443176190Y-271934047D01*
X443176190Y-271934047D02*
X443223809Y-272124523D01*
X443223809Y-272124523D02*
X443223809Y-272267380D01*
X443223809Y-272267380D02*
X443176190Y-272457856D01*
X443176190Y-272457856D02*
X443128571Y-272553094D01*
X443128571Y-272553094D02*
X443033333Y-272648332D01*
X443033333Y-272648332D02*
X442890476Y-272695951D01*
X442890476Y-272695951D02*
X442652381Y-272695951D01*
X444176190Y-272695951D02*
X443604762Y-272695951D01*
X443890476Y-272695951D02*
X443890476Y-271695951D01*
X443890476Y-271695951D02*
X443795238Y-271838809D01*
X443795238Y-271838809D02*
X443700000Y-271934047D01*
X443700000Y-271934047D02*
X443604762Y-271981666D01*
X444747619Y-272124523D02*
X444652381Y-272076904D01*
X444652381Y-272076904D02*
X444604762Y-272029285D01*
X444604762Y-272029285D02*
X444557143Y-271934047D01*
X444557143Y-271934047D02*
X444557143Y-271886428D01*
X444557143Y-271886428D02*
X444604762Y-271791190D01*
X444604762Y-271791190D02*
X444652381Y-271743571D01*
X444652381Y-271743571D02*
X444747619Y-271695951D01*
X444747619Y-271695951D02*
X444938095Y-271695951D01*
X444938095Y-271695951D02*
X445033333Y-271743571D01*
X445033333Y-271743571D02*
X445080952Y-271791190D01*
X445080952Y-271791190D02*
X445128571Y-271886428D01*
X445128571Y-271886428D02*
X445128571Y-271934047D01*
X445128571Y-271934047D02*
X445080952Y-272029285D01*
X445080952Y-272029285D02*
X445033333Y-272076904D01*
X445033333Y-272076904D02*
X444938095Y-272124523D01*
X444938095Y-272124523D02*
X444747619Y-272124523D01*
X444747619Y-272124523D02*
X444652381Y-272172142D01*
X444652381Y-272172142D02*
X444604762Y-272219761D01*
X444604762Y-272219761D02*
X444557143Y-272314999D01*
X444557143Y-272314999D02*
X444557143Y-272505475D01*
X444557143Y-272505475D02*
X444604762Y-272600713D01*
X444604762Y-272600713D02*
X444652381Y-272648332D01*
X444652381Y-272648332D02*
X444747619Y-272695951D01*
X444747619Y-272695951D02*
X444938095Y-272695951D01*
X444938095Y-272695951D02*
X445033333Y-272648332D01*
X445033333Y-272648332D02*
X445080952Y-272600713D01*
X445080952Y-272600713D02*
X445128571Y-272505475D01*
X445128571Y-272505475D02*
X445128571Y-272314999D01*
X445128571Y-272314999D02*
X445080952Y-272219761D01*
X445080952Y-272219761D02*
X445033333Y-272172142D01*
X445033333Y-272172142D02*
X444938095Y-272124523D01*
%TO.C,TXT6*%
X434790476Y-292248332D02*
X434933333Y-292295951D01*
X434933333Y-292295951D02*
X435171428Y-292295951D01*
X435171428Y-292295951D02*
X435266666Y-292248332D01*
X435266666Y-292248332D02*
X435314285Y-292200713D01*
X435314285Y-292200713D02*
X435361904Y-292105475D01*
X435361904Y-292105475D02*
X435361904Y-292010237D01*
X435361904Y-292010237D02*
X435314285Y-291914999D01*
X435314285Y-291914999D02*
X435266666Y-291867380D01*
X435266666Y-291867380D02*
X435171428Y-291819761D01*
X435171428Y-291819761D02*
X434980952Y-291772142D01*
X434980952Y-291772142D02*
X434885714Y-291724523D01*
X434885714Y-291724523D02*
X434838095Y-291676904D01*
X434838095Y-291676904D02*
X434790476Y-291581666D01*
X434790476Y-291581666D02*
X434790476Y-291486428D01*
X434790476Y-291486428D02*
X434838095Y-291391190D01*
X434838095Y-291391190D02*
X434885714Y-291343571D01*
X434885714Y-291343571D02*
X434980952Y-291295951D01*
X434980952Y-291295951D02*
X435219047Y-291295951D01*
X435219047Y-291295951D02*
X435361904Y-291343571D01*
X436123809Y-291772142D02*
X436266666Y-291819761D01*
X436266666Y-291819761D02*
X436314285Y-291867380D01*
X436314285Y-291867380D02*
X436361904Y-291962618D01*
X436361904Y-291962618D02*
X436361904Y-292105475D01*
X436361904Y-292105475D02*
X436314285Y-292200713D01*
X436314285Y-292200713D02*
X436266666Y-292248332D01*
X436266666Y-292248332D02*
X436171428Y-292295951D01*
X436171428Y-292295951D02*
X435790476Y-292295951D01*
X435790476Y-292295951D02*
X435790476Y-291295951D01*
X435790476Y-291295951D02*
X436123809Y-291295951D01*
X436123809Y-291295951D02*
X436219047Y-291343571D01*
X436219047Y-291343571D02*
X436266666Y-291391190D01*
X436266666Y-291391190D02*
X436314285Y-291486428D01*
X436314285Y-291486428D02*
X436314285Y-291581666D01*
X436314285Y-291581666D02*
X436266666Y-291676904D01*
X436266666Y-291676904D02*
X436219047Y-291724523D01*
X436219047Y-291724523D02*
X436123809Y-291772142D01*
X436123809Y-291772142D02*
X435790476Y-291772142D01*
X436790476Y-291295951D02*
X436790476Y-292105475D01*
X436790476Y-292105475D02*
X436838095Y-292200713D01*
X436838095Y-292200713D02*
X436885714Y-292248332D01*
X436885714Y-292248332D02*
X436980952Y-292295951D01*
X436980952Y-292295951D02*
X437171428Y-292295951D01*
X437171428Y-292295951D02*
X437266666Y-292248332D01*
X437266666Y-292248332D02*
X437314285Y-292200713D01*
X437314285Y-292200713D02*
X437361904Y-292105475D01*
X437361904Y-292105475D02*
X437361904Y-291295951D01*
X437790476Y-291391190D02*
X437838095Y-291343571D01*
X437838095Y-291343571D02*
X437933333Y-291295951D01*
X437933333Y-291295951D02*
X438171428Y-291295951D01*
X438171428Y-291295951D02*
X438266666Y-291343571D01*
X438266666Y-291343571D02*
X438314285Y-291391190D01*
X438314285Y-291391190D02*
X438361904Y-291486428D01*
X438361904Y-291486428D02*
X438361904Y-291581666D01*
X438361904Y-291581666D02*
X438314285Y-291724523D01*
X438314285Y-291724523D02*
X437742857Y-292295951D01*
X437742857Y-292295951D02*
X438361904Y-292295951D01*
%TO.C,LED9*%
X424314285Y-287095951D02*
X423838095Y-287095951D01*
X423838095Y-287095951D02*
X423838095Y-286095951D01*
X424647619Y-286572142D02*
X424980952Y-286572142D01*
X425123809Y-287095951D02*
X424647619Y-287095951D01*
X424647619Y-287095951D02*
X424647619Y-286095951D01*
X424647619Y-286095951D02*
X425123809Y-286095951D01*
X425552381Y-287095951D02*
X425552381Y-286095951D01*
X425552381Y-286095951D02*
X425790476Y-286095951D01*
X425790476Y-286095951D02*
X425933333Y-286143571D01*
X425933333Y-286143571D02*
X426028571Y-286238809D01*
X426028571Y-286238809D02*
X426076190Y-286334047D01*
X426076190Y-286334047D02*
X426123809Y-286524523D01*
X426123809Y-286524523D02*
X426123809Y-286667380D01*
X426123809Y-286667380D02*
X426076190Y-286857856D01*
X426076190Y-286857856D02*
X426028571Y-286953094D01*
X426028571Y-286953094D02*
X425933333Y-287048332D01*
X425933333Y-287048332D02*
X425790476Y-287095951D01*
X425790476Y-287095951D02*
X425552381Y-287095951D01*
X426600000Y-287095951D02*
X426790476Y-287095951D01*
X426790476Y-287095951D02*
X426885714Y-287048332D01*
X426885714Y-287048332D02*
X426933333Y-287000713D01*
X426933333Y-287000713D02*
X427028571Y-286857856D01*
X427028571Y-286857856D02*
X427076190Y-286667380D01*
X427076190Y-286667380D02*
X427076190Y-286286428D01*
X427076190Y-286286428D02*
X427028571Y-286191190D01*
X427028571Y-286191190D02*
X426980952Y-286143571D01*
X426980952Y-286143571D02*
X426885714Y-286095951D01*
X426885714Y-286095951D02*
X426695238Y-286095951D01*
X426695238Y-286095951D02*
X426600000Y-286143571D01*
X426600000Y-286143571D02*
X426552381Y-286191190D01*
X426552381Y-286191190D02*
X426504762Y-286286428D01*
X426504762Y-286286428D02*
X426504762Y-286524523D01*
X426504762Y-286524523D02*
X426552381Y-286619761D01*
X426552381Y-286619761D02*
X426600000Y-286667380D01*
X426600000Y-286667380D02*
X426695238Y-286714999D01*
X426695238Y-286714999D02*
X426885714Y-286714999D01*
X426885714Y-286714999D02*
X426980952Y-286667380D01*
X426980952Y-286667380D02*
X427028571Y-286619761D01*
X427028571Y-286619761D02*
X427076190Y-286524523D01*
%TO.C,TXT16*%
X453790476Y-276248332D02*
X453933333Y-276295951D01*
X453933333Y-276295951D02*
X454171428Y-276295951D01*
X454171428Y-276295951D02*
X454266666Y-276248332D01*
X454266666Y-276248332D02*
X454314285Y-276200713D01*
X454314285Y-276200713D02*
X454361904Y-276105475D01*
X454361904Y-276105475D02*
X454361904Y-276010237D01*
X454361904Y-276010237D02*
X454314285Y-275914999D01*
X454314285Y-275914999D02*
X454266666Y-275867380D01*
X454266666Y-275867380D02*
X454171428Y-275819761D01*
X454171428Y-275819761D02*
X453980952Y-275772142D01*
X453980952Y-275772142D02*
X453885714Y-275724523D01*
X453885714Y-275724523D02*
X453838095Y-275676904D01*
X453838095Y-275676904D02*
X453790476Y-275581666D01*
X453790476Y-275581666D02*
X453790476Y-275486428D01*
X453790476Y-275486428D02*
X453838095Y-275391190D01*
X453838095Y-275391190D02*
X453885714Y-275343571D01*
X453885714Y-275343571D02*
X453980952Y-275295951D01*
X453980952Y-275295951D02*
X454219047Y-275295951D01*
X454219047Y-275295951D02*
X454361904Y-275343571D01*
X454742857Y-276248332D02*
X454885714Y-276295951D01*
X454885714Y-276295951D02*
X455123809Y-276295951D01*
X455123809Y-276295951D02*
X455219047Y-276248332D01*
X455219047Y-276248332D02*
X455266666Y-276200713D01*
X455266666Y-276200713D02*
X455314285Y-276105475D01*
X455314285Y-276105475D02*
X455314285Y-276010237D01*
X455314285Y-276010237D02*
X455266666Y-275914999D01*
X455266666Y-275914999D02*
X455219047Y-275867380D01*
X455219047Y-275867380D02*
X455123809Y-275819761D01*
X455123809Y-275819761D02*
X454933333Y-275772142D01*
X454933333Y-275772142D02*
X454838095Y-275724523D01*
X454838095Y-275724523D02*
X454790476Y-275676904D01*
X454790476Y-275676904D02*
X454742857Y-275581666D01*
X454742857Y-275581666D02*
X454742857Y-275486428D01*
X454742857Y-275486428D02*
X454790476Y-275391190D01*
X454790476Y-275391190D02*
X454838095Y-275343571D01*
X454838095Y-275343571D02*
X454933333Y-275295951D01*
X454933333Y-275295951D02*
X455171428Y-275295951D01*
X455171428Y-275295951D02*
X455314285Y-275343571D01*
X456314285Y-276295951D02*
X455980952Y-275819761D01*
X455742857Y-276295951D02*
X455742857Y-275295951D01*
X455742857Y-275295951D02*
X456123809Y-275295951D01*
X456123809Y-275295951D02*
X456219047Y-275343571D01*
X456219047Y-275343571D02*
X456266666Y-275391190D01*
X456266666Y-275391190D02*
X456314285Y-275486428D01*
X456314285Y-275486428D02*
X456314285Y-275629285D01*
X456314285Y-275629285D02*
X456266666Y-275724523D01*
X456266666Y-275724523D02*
X456219047Y-275772142D01*
X456219047Y-275772142D02*
X456123809Y-275819761D01*
X456123809Y-275819761D02*
X455742857Y-275819761D01*
X456647619Y-275295951D02*
X457314285Y-276295951D01*
X457314285Y-275295951D02*
X456647619Y-276295951D01*
X457695238Y-276295951D02*
X457695238Y-275295951D01*
X457695238Y-275295951D02*
X458266666Y-276295951D01*
X458266666Y-276295951D02*
X458266666Y-275295951D01*
X458695238Y-275391190D02*
X458742857Y-275343571D01*
X458742857Y-275343571D02*
X458838095Y-275295951D01*
X458838095Y-275295951D02*
X459076190Y-275295951D01*
X459076190Y-275295951D02*
X459171428Y-275343571D01*
X459171428Y-275343571D02*
X459219047Y-275391190D01*
X459219047Y-275391190D02*
X459266666Y-275486428D01*
X459266666Y-275486428D02*
X459266666Y-275581666D01*
X459266666Y-275581666D02*
X459219047Y-275724523D01*
X459219047Y-275724523D02*
X458647619Y-276295951D01*
X458647619Y-276295951D02*
X459266666Y-276295951D01*
%TO.C,LED1*%
X409114285Y-299895951D02*
X408638095Y-299895951D01*
X408638095Y-299895951D02*
X408638095Y-298895951D01*
X409447619Y-299372142D02*
X409780952Y-299372142D01*
X409923809Y-299895951D02*
X409447619Y-299895951D01*
X409447619Y-299895951D02*
X409447619Y-298895951D01*
X409447619Y-298895951D02*
X409923809Y-298895951D01*
X410352381Y-299895951D02*
X410352381Y-298895951D01*
X410352381Y-298895951D02*
X410590476Y-298895951D01*
X410590476Y-298895951D02*
X410733333Y-298943571D01*
X410733333Y-298943571D02*
X410828571Y-299038809D01*
X410828571Y-299038809D02*
X410876190Y-299134047D01*
X410876190Y-299134047D02*
X410923809Y-299324523D01*
X410923809Y-299324523D02*
X410923809Y-299467380D01*
X410923809Y-299467380D02*
X410876190Y-299657856D01*
X410876190Y-299657856D02*
X410828571Y-299753094D01*
X410828571Y-299753094D02*
X410733333Y-299848332D01*
X410733333Y-299848332D02*
X410590476Y-299895951D01*
X410590476Y-299895951D02*
X410352381Y-299895951D01*
X411876190Y-299895951D02*
X411304762Y-299895951D01*
X411590476Y-299895951D02*
X411590476Y-298895951D01*
X411590476Y-298895951D02*
X411495238Y-299038809D01*
X411495238Y-299038809D02*
X411400000Y-299134047D01*
X411400000Y-299134047D02*
X411304762Y-299181666D01*
%TO.C,TXT18*%
X458161904Y-272143571D02*
X458066666Y-272095951D01*
X458066666Y-272095951D02*
X457923809Y-272095951D01*
X457923809Y-272095951D02*
X457780952Y-272143571D01*
X457780952Y-272143571D02*
X457685714Y-272238809D01*
X457685714Y-272238809D02*
X457638095Y-272334047D01*
X457638095Y-272334047D02*
X457590476Y-272524523D01*
X457590476Y-272524523D02*
X457590476Y-272667380D01*
X457590476Y-272667380D02*
X457638095Y-272857856D01*
X457638095Y-272857856D02*
X457685714Y-272953094D01*
X457685714Y-272953094D02*
X457780952Y-273048332D01*
X457780952Y-273048332D02*
X457923809Y-273095951D01*
X457923809Y-273095951D02*
X458019047Y-273095951D01*
X458019047Y-273095951D02*
X458161904Y-273048332D01*
X458161904Y-273048332D02*
X458209523Y-273000713D01*
X458209523Y-273000713D02*
X458209523Y-272667380D01*
X458209523Y-272667380D02*
X458019047Y-272667380D01*
X458638095Y-273095951D02*
X458638095Y-272095951D01*
X458638095Y-272095951D02*
X459209523Y-273095951D01*
X459209523Y-273095951D02*
X459209523Y-272095951D01*
X459685714Y-273095951D02*
X459685714Y-272095951D01*
X459685714Y-272095951D02*
X459923809Y-272095951D01*
X459923809Y-272095951D02*
X460066666Y-272143571D01*
X460066666Y-272143571D02*
X460161904Y-272238809D01*
X460161904Y-272238809D02*
X460209523Y-272334047D01*
X460209523Y-272334047D02*
X460257142Y-272524523D01*
X460257142Y-272524523D02*
X460257142Y-272667380D01*
X460257142Y-272667380D02*
X460209523Y-272857856D01*
X460209523Y-272857856D02*
X460161904Y-272953094D01*
X460161904Y-272953094D02*
X460066666Y-273048332D01*
X460066666Y-273048332D02*
X459923809Y-273095951D01*
X459923809Y-273095951D02*
X459685714Y-273095951D01*
X460685714Y-272714999D02*
X461447619Y-272714999D01*
X462352380Y-272429285D02*
X462352380Y-273095951D01*
X461923809Y-272429285D02*
X461923809Y-272953094D01*
X461923809Y-272953094D02*
X461971428Y-273048332D01*
X461971428Y-273048332D02*
X462066666Y-273095951D01*
X462066666Y-273095951D02*
X462209523Y-273095951D01*
X462209523Y-273095951D02*
X462304761Y-273048332D01*
X462304761Y-273048332D02*
X462352380Y-273000713D01*
X462780952Y-273048332D02*
X462876190Y-273095951D01*
X462876190Y-273095951D02*
X463066666Y-273095951D01*
X463066666Y-273095951D02*
X463161904Y-273048332D01*
X463161904Y-273048332D02*
X463209523Y-272953094D01*
X463209523Y-272953094D02*
X463209523Y-272905475D01*
X463209523Y-272905475D02*
X463161904Y-272810237D01*
X463161904Y-272810237D02*
X463066666Y-272762618D01*
X463066666Y-272762618D02*
X462923809Y-272762618D01*
X462923809Y-272762618D02*
X462828571Y-272714999D01*
X462828571Y-272714999D02*
X462780952Y-272619761D01*
X462780952Y-272619761D02*
X462780952Y-272572142D01*
X462780952Y-272572142D02*
X462828571Y-272476904D01*
X462828571Y-272476904D02*
X462923809Y-272429285D01*
X462923809Y-272429285D02*
X463066666Y-272429285D01*
X463066666Y-272429285D02*
X463161904Y-272476904D01*
X463638095Y-273095951D02*
X463638095Y-272095951D01*
X463638095Y-272476904D02*
X463733333Y-272429285D01*
X463733333Y-272429285D02*
X463923809Y-272429285D01*
X463923809Y-272429285D02*
X464019047Y-272476904D01*
X464019047Y-272476904D02*
X464066666Y-272524523D01*
X464066666Y-272524523D02*
X464114285Y-272619761D01*
X464114285Y-272619761D02*
X464114285Y-272905475D01*
X464114285Y-272905475D02*
X464066666Y-273000713D01*
X464066666Y-273000713D02*
X464019047Y-273048332D01*
X464019047Y-273048332D02*
X463923809Y-273095951D01*
X463923809Y-273095951D02*
X463733333Y-273095951D01*
X463733333Y-273095951D02*
X463638095Y-273048332D01*
%TO.C,LED8*%
X422414285Y-288695951D02*
X421938095Y-288695951D01*
X421938095Y-288695951D02*
X421938095Y-287695951D01*
X422747619Y-288172142D02*
X423080952Y-288172142D01*
X423223809Y-288695951D02*
X422747619Y-288695951D01*
X422747619Y-288695951D02*
X422747619Y-287695951D01*
X422747619Y-287695951D02*
X423223809Y-287695951D01*
X423652381Y-288695951D02*
X423652381Y-287695951D01*
X423652381Y-287695951D02*
X423890476Y-287695951D01*
X423890476Y-287695951D02*
X424033333Y-287743571D01*
X424033333Y-287743571D02*
X424128571Y-287838809D01*
X424128571Y-287838809D02*
X424176190Y-287934047D01*
X424176190Y-287934047D02*
X424223809Y-288124523D01*
X424223809Y-288124523D02*
X424223809Y-288267380D01*
X424223809Y-288267380D02*
X424176190Y-288457856D01*
X424176190Y-288457856D02*
X424128571Y-288553094D01*
X424128571Y-288553094D02*
X424033333Y-288648332D01*
X424033333Y-288648332D02*
X423890476Y-288695951D01*
X423890476Y-288695951D02*
X423652381Y-288695951D01*
X424795238Y-288124523D02*
X424700000Y-288076904D01*
X424700000Y-288076904D02*
X424652381Y-288029285D01*
X424652381Y-288029285D02*
X424604762Y-287934047D01*
X424604762Y-287934047D02*
X424604762Y-287886428D01*
X424604762Y-287886428D02*
X424652381Y-287791190D01*
X424652381Y-287791190D02*
X424700000Y-287743571D01*
X424700000Y-287743571D02*
X424795238Y-287695951D01*
X424795238Y-287695951D02*
X424985714Y-287695951D01*
X424985714Y-287695951D02*
X425080952Y-287743571D01*
X425080952Y-287743571D02*
X425128571Y-287791190D01*
X425128571Y-287791190D02*
X425176190Y-287886428D01*
X425176190Y-287886428D02*
X425176190Y-287934047D01*
X425176190Y-287934047D02*
X425128571Y-288029285D01*
X425128571Y-288029285D02*
X425080952Y-288076904D01*
X425080952Y-288076904D02*
X424985714Y-288124523D01*
X424985714Y-288124523D02*
X424795238Y-288124523D01*
X424795238Y-288124523D02*
X424700000Y-288172142D01*
X424700000Y-288172142D02*
X424652381Y-288219761D01*
X424652381Y-288219761D02*
X424604762Y-288314999D01*
X424604762Y-288314999D02*
X424604762Y-288505475D01*
X424604762Y-288505475D02*
X424652381Y-288600713D01*
X424652381Y-288600713D02*
X424700000Y-288648332D01*
X424700000Y-288648332D02*
X424795238Y-288695951D01*
X424795238Y-288695951D02*
X424985714Y-288695951D01*
X424985714Y-288695951D02*
X425080952Y-288648332D01*
X425080952Y-288648332D02*
X425128571Y-288600713D01*
X425128571Y-288600713D02*
X425176190Y-288505475D01*
X425176190Y-288505475D02*
X425176190Y-288314999D01*
X425176190Y-288314999D02*
X425128571Y-288219761D01*
X425128571Y-288219761D02*
X425080952Y-288172142D01*
X425080952Y-288172142D02*
X424985714Y-288124523D01*
%TO.C,LED14*%
X431914285Y-280695951D02*
X431438095Y-280695951D01*
X431438095Y-280695951D02*
X431438095Y-279695951D01*
X432247619Y-280172142D02*
X432580952Y-280172142D01*
X432723809Y-280695951D02*
X432247619Y-280695951D01*
X432247619Y-280695951D02*
X432247619Y-279695951D01*
X432247619Y-279695951D02*
X432723809Y-279695951D01*
X433152381Y-280695951D02*
X433152381Y-279695951D01*
X433152381Y-279695951D02*
X433390476Y-279695951D01*
X433390476Y-279695951D02*
X433533333Y-279743571D01*
X433533333Y-279743571D02*
X433628571Y-279838809D01*
X433628571Y-279838809D02*
X433676190Y-279934047D01*
X433676190Y-279934047D02*
X433723809Y-280124523D01*
X433723809Y-280124523D02*
X433723809Y-280267380D01*
X433723809Y-280267380D02*
X433676190Y-280457856D01*
X433676190Y-280457856D02*
X433628571Y-280553094D01*
X433628571Y-280553094D02*
X433533333Y-280648332D01*
X433533333Y-280648332D02*
X433390476Y-280695951D01*
X433390476Y-280695951D02*
X433152381Y-280695951D01*
X434676190Y-280695951D02*
X434104762Y-280695951D01*
X434390476Y-280695951D02*
X434390476Y-279695951D01*
X434390476Y-279695951D02*
X434295238Y-279838809D01*
X434295238Y-279838809D02*
X434200000Y-279934047D01*
X434200000Y-279934047D02*
X434104762Y-279981666D01*
X435533333Y-280029285D02*
X435533333Y-280695951D01*
X435295238Y-279648332D02*
X435057143Y-280362618D01*
X435057143Y-280362618D02*
X435676190Y-280362618D01*
%TO.C,TXT14*%
X448138095Y-281095951D02*
X448138095Y-280095951D01*
X448138095Y-280095951D02*
X448376190Y-280095951D01*
X448376190Y-280095951D02*
X448519047Y-280143571D01*
X448519047Y-280143571D02*
X448614285Y-280238809D01*
X448614285Y-280238809D02*
X448661904Y-280334047D01*
X448661904Y-280334047D02*
X448709523Y-280524523D01*
X448709523Y-280524523D02*
X448709523Y-280667380D01*
X448709523Y-280667380D02*
X448661904Y-280857856D01*
X448661904Y-280857856D02*
X448614285Y-280953094D01*
X448614285Y-280953094D02*
X448519047Y-281048332D01*
X448519047Y-281048332D02*
X448376190Y-281095951D01*
X448376190Y-281095951D02*
X448138095Y-281095951D01*
X449138095Y-281095951D02*
X449138095Y-280095951D01*
X449138095Y-280095951D02*
X449709523Y-281095951D01*
X449709523Y-281095951D02*
X449709523Y-280095951D01*
X450709523Y-281095951D02*
X450138095Y-281095951D01*
X450423809Y-281095951D02*
X450423809Y-280095951D01*
X450423809Y-280095951D02*
X450328571Y-280238809D01*
X450328571Y-280238809D02*
X450233333Y-280334047D01*
X450233333Y-280334047D02*
X450138095Y-280381666D01*
%TO.C,U24*%
X452872270Y-288160173D02*
X453684707Y-288160173D01*
X453684707Y-288160173D02*
X453780287Y-288112382D01*
X453780287Y-288112382D02*
X453828078Y-288064592D01*
X453828078Y-288064592D02*
X453875868Y-287969011D01*
X453875868Y-287969011D02*
X453875868Y-287777850D01*
X453875868Y-287777850D02*
X453828078Y-287682269D01*
X453828078Y-287682269D02*
X453780287Y-287634478D01*
X453780287Y-287634478D02*
X453684707Y-287586688D01*
X453684707Y-287586688D02*
X452872270Y-287586688D01*
X452967851Y-287156575D02*
X452920061Y-287108785D01*
X452920061Y-287108785D02*
X452872270Y-287013204D01*
X452872270Y-287013204D02*
X452872270Y-286774252D01*
X452872270Y-286774252D02*
X452920061Y-286678671D01*
X452920061Y-286678671D02*
X452967851Y-286630881D01*
X452967851Y-286630881D02*
X453063432Y-286583090D01*
X453063432Y-286583090D02*
X453159012Y-286583090D01*
X453159012Y-286583090D02*
X453302384Y-286630881D01*
X453302384Y-286630881D02*
X453875868Y-287204365D01*
X453875868Y-287204365D02*
X453875868Y-286583090D01*
X453206803Y-285722863D02*
X453875868Y-285722863D01*
X452824480Y-285961815D02*
X453541335Y-286200767D01*
X453541335Y-286200767D02*
X453541335Y-285579492D01*
%TO.C,TXT7*%
X436690476Y-290648332D02*
X436833333Y-290695951D01*
X436833333Y-290695951D02*
X437071428Y-290695951D01*
X437071428Y-290695951D02*
X437166666Y-290648332D01*
X437166666Y-290648332D02*
X437214285Y-290600713D01*
X437214285Y-290600713D02*
X437261904Y-290505475D01*
X437261904Y-290505475D02*
X437261904Y-290410237D01*
X437261904Y-290410237D02*
X437214285Y-290314999D01*
X437214285Y-290314999D02*
X437166666Y-290267380D01*
X437166666Y-290267380D02*
X437071428Y-290219761D01*
X437071428Y-290219761D02*
X436880952Y-290172142D01*
X436880952Y-290172142D02*
X436785714Y-290124523D01*
X436785714Y-290124523D02*
X436738095Y-290076904D01*
X436738095Y-290076904D02*
X436690476Y-289981666D01*
X436690476Y-289981666D02*
X436690476Y-289886428D01*
X436690476Y-289886428D02*
X436738095Y-289791190D01*
X436738095Y-289791190D02*
X436785714Y-289743571D01*
X436785714Y-289743571D02*
X436880952Y-289695951D01*
X436880952Y-289695951D02*
X437119047Y-289695951D01*
X437119047Y-289695951D02*
X437261904Y-289743571D01*
X437642857Y-290648332D02*
X437785714Y-290695951D01*
X437785714Y-290695951D02*
X438023809Y-290695951D01*
X438023809Y-290695951D02*
X438119047Y-290648332D01*
X438119047Y-290648332D02*
X438166666Y-290600713D01*
X438166666Y-290600713D02*
X438214285Y-290505475D01*
X438214285Y-290505475D02*
X438214285Y-290410237D01*
X438214285Y-290410237D02*
X438166666Y-290314999D01*
X438166666Y-290314999D02*
X438119047Y-290267380D01*
X438119047Y-290267380D02*
X438023809Y-290219761D01*
X438023809Y-290219761D02*
X437833333Y-290172142D01*
X437833333Y-290172142D02*
X437738095Y-290124523D01*
X437738095Y-290124523D02*
X437690476Y-290076904D01*
X437690476Y-290076904D02*
X437642857Y-289981666D01*
X437642857Y-289981666D02*
X437642857Y-289886428D01*
X437642857Y-289886428D02*
X437690476Y-289791190D01*
X437690476Y-289791190D02*
X437738095Y-289743571D01*
X437738095Y-289743571D02*
X437833333Y-289695951D01*
X437833333Y-289695951D02*
X438071428Y-289695951D01*
X438071428Y-289695951D02*
X438214285Y-289743571D01*
X439214285Y-290695951D02*
X438880952Y-290219761D01*
X438642857Y-290695951D02*
X438642857Y-289695951D01*
X438642857Y-289695951D02*
X439023809Y-289695951D01*
X439023809Y-289695951D02*
X439119047Y-289743571D01*
X439119047Y-289743571D02*
X439166666Y-289791190D01*
X439166666Y-289791190D02*
X439214285Y-289886428D01*
X439214285Y-289886428D02*
X439214285Y-290029285D01*
X439214285Y-290029285D02*
X439166666Y-290124523D01*
X439166666Y-290124523D02*
X439119047Y-290172142D01*
X439119047Y-290172142D02*
X439023809Y-290219761D01*
X439023809Y-290219761D02*
X438642857Y-290219761D01*
X439547619Y-289695951D02*
X440214285Y-290695951D01*
X440214285Y-289695951D02*
X439547619Y-290695951D01*
X440595238Y-290695951D02*
X440595238Y-289695951D01*
X440595238Y-289695951D02*
X441166666Y-290695951D01*
X441166666Y-290695951D02*
X441166666Y-289695951D01*
X442166666Y-290695951D02*
X441595238Y-290695951D01*
X441880952Y-290695951D02*
X441880952Y-289695951D01*
X441880952Y-289695951D02*
X441785714Y-289838809D01*
X441785714Y-289838809D02*
X441690476Y-289934047D01*
X441690476Y-289934047D02*
X441595238Y-289981666D01*
%TO.C,TXT13*%
X446238095Y-282695951D02*
X446238095Y-281695951D01*
X446238095Y-281695951D02*
X446476190Y-281695951D01*
X446476190Y-281695951D02*
X446619047Y-281743571D01*
X446619047Y-281743571D02*
X446714285Y-281838809D01*
X446714285Y-281838809D02*
X446761904Y-281934047D01*
X446761904Y-281934047D02*
X446809523Y-282124523D01*
X446809523Y-282124523D02*
X446809523Y-282267380D01*
X446809523Y-282267380D02*
X446761904Y-282457856D01*
X446761904Y-282457856D02*
X446714285Y-282553094D01*
X446714285Y-282553094D02*
X446619047Y-282648332D01*
X446619047Y-282648332D02*
X446476190Y-282695951D01*
X446476190Y-282695951D02*
X446238095Y-282695951D01*
X447238095Y-282695951D02*
X447238095Y-281695951D01*
X447238095Y-281695951D02*
X447619047Y-281695951D01*
X447619047Y-281695951D02*
X447714285Y-281743571D01*
X447714285Y-281743571D02*
X447761904Y-281791190D01*
X447761904Y-281791190D02*
X447809523Y-281886428D01*
X447809523Y-281886428D02*
X447809523Y-282029285D01*
X447809523Y-282029285D02*
X447761904Y-282124523D01*
X447761904Y-282124523D02*
X447714285Y-282172142D01*
X447714285Y-282172142D02*
X447619047Y-282219761D01*
X447619047Y-282219761D02*
X447238095Y-282219761D01*
X448761904Y-282695951D02*
X448190476Y-282695951D01*
X448476190Y-282695951D02*
X448476190Y-281695951D01*
X448476190Y-281695951D02*
X448380952Y-281838809D01*
X448380952Y-281838809D02*
X448285714Y-281934047D01*
X448285714Y-281934047D02*
X448190476Y-281981666D01*
%TO.C,LED6*%
X418614285Y-291895951D02*
X418138095Y-291895951D01*
X418138095Y-291895951D02*
X418138095Y-290895951D01*
X418947619Y-291372142D02*
X419280952Y-291372142D01*
X419423809Y-291895951D02*
X418947619Y-291895951D01*
X418947619Y-291895951D02*
X418947619Y-290895951D01*
X418947619Y-290895951D02*
X419423809Y-290895951D01*
X419852381Y-291895951D02*
X419852381Y-290895951D01*
X419852381Y-290895951D02*
X420090476Y-290895951D01*
X420090476Y-290895951D02*
X420233333Y-290943571D01*
X420233333Y-290943571D02*
X420328571Y-291038809D01*
X420328571Y-291038809D02*
X420376190Y-291134047D01*
X420376190Y-291134047D02*
X420423809Y-291324523D01*
X420423809Y-291324523D02*
X420423809Y-291467380D01*
X420423809Y-291467380D02*
X420376190Y-291657856D01*
X420376190Y-291657856D02*
X420328571Y-291753094D01*
X420328571Y-291753094D02*
X420233333Y-291848332D01*
X420233333Y-291848332D02*
X420090476Y-291895951D01*
X420090476Y-291895951D02*
X419852381Y-291895951D01*
X421280952Y-290895951D02*
X421090476Y-290895951D01*
X421090476Y-290895951D02*
X420995238Y-290943571D01*
X420995238Y-290943571D02*
X420947619Y-290991190D01*
X420947619Y-290991190D02*
X420852381Y-291134047D01*
X420852381Y-291134047D02*
X420804762Y-291324523D01*
X420804762Y-291324523D02*
X420804762Y-291705475D01*
X420804762Y-291705475D02*
X420852381Y-291800713D01*
X420852381Y-291800713D02*
X420900000Y-291848332D01*
X420900000Y-291848332D02*
X420995238Y-291895951D01*
X420995238Y-291895951D02*
X421185714Y-291895951D01*
X421185714Y-291895951D02*
X421280952Y-291848332D01*
X421280952Y-291848332D02*
X421328571Y-291800713D01*
X421328571Y-291800713D02*
X421376190Y-291705475D01*
X421376190Y-291705475D02*
X421376190Y-291467380D01*
X421376190Y-291467380D02*
X421328571Y-291372142D01*
X421328571Y-291372142D02*
X421280952Y-291324523D01*
X421280952Y-291324523D02*
X421185714Y-291276904D01*
X421185714Y-291276904D02*
X420995238Y-291276904D01*
X420995238Y-291276904D02*
X420900000Y-291324523D01*
X420900000Y-291324523D02*
X420852381Y-291372142D01*
X420852381Y-291372142D02*
X420804762Y-291467380D01*
%TO.C,TXT9*%
X440490476Y-287448332D02*
X440633333Y-287495951D01*
X440633333Y-287495951D02*
X440871428Y-287495951D01*
X440871428Y-287495951D02*
X440966666Y-287448332D01*
X440966666Y-287448332D02*
X441014285Y-287400713D01*
X441014285Y-287400713D02*
X441061904Y-287305475D01*
X441061904Y-287305475D02*
X441061904Y-287210237D01*
X441061904Y-287210237D02*
X441014285Y-287114999D01*
X441014285Y-287114999D02*
X440966666Y-287067380D01*
X440966666Y-287067380D02*
X440871428Y-287019761D01*
X440871428Y-287019761D02*
X440680952Y-286972142D01*
X440680952Y-286972142D02*
X440585714Y-286924523D01*
X440585714Y-286924523D02*
X440538095Y-286876904D01*
X440538095Y-286876904D02*
X440490476Y-286781666D01*
X440490476Y-286781666D02*
X440490476Y-286686428D01*
X440490476Y-286686428D02*
X440538095Y-286591190D01*
X440538095Y-286591190D02*
X440585714Y-286543571D01*
X440585714Y-286543571D02*
X440680952Y-286495951D01*
X440680952Y-286495951D02*
X440919047Y-286495951D01*
X440919047Y-286495951D02*
X441061904Y-286543571D01*
X441442857Y-287448332D02*
X441585714Y-287495951D01*
X441585714Y-287495951D02*
X441823809Y-287495951D01*
X441823809Y-287495951D02*
X441919047Y-287448332D01*
X441919047Y-287448332D02*
X441966666Y-287400713D01*
X441966666Y-287400713D02*
X442014285Y-287305475D01*
X442014285Y-287305475D02*
X442014285Y-287210237D01*
X442014285Y-287210237D02*
X441966666Y-287114999D01*
X441966666Y-287114999D02*
X441919047Y-287067380D01*
X441919047Y-287067380D02*
X441823809Y-287019761D01*
X441823809Y-287019761D02*
X441633333Y-286972142D01*
X441633333Y-286972142D02*
X441538095Y-286924523D01*
X441538095Y-286924523D02*
X441490476Y-286876904D01*
X441490476Y-286876904D02*
X441442857Y-286781666D01*
X441442857Y-286781666D02*
X441442857Y-286686428D01*
X441442857Y-286686428D02*
X441490476Y-286591190D01*
X441490476Y-286591190D02*
X441538095Y-286543571D01*
X441538095Y-286543571D02*
X441633333Y-286495951D01*
X441633333Y-286495951D02*
X441871428Y-286495951D01*
X441871428Y-286495951D02*
X442014285Y-286543571D01*
X442300000Y-286495951D02*
X442871428Y-286495951D01*
X442585714Y-287495951D02*
X442585714Y-286495951D01*
X443109524Y-286495951D02*
X443776190Y-287495951D01*
X443776190Y-286495951D02*
X443109524Y-287495951D01*
X444157143Y-287495951D02*
X444157143Y-286495951D01*
X444157143Y-286495951D02*
X444538095Y-286495951D01*
X444538095Y-286495951D02*
X444633333Y-286543571D01*
X444633333Y-286543571D02*
X444680952Y-286591190D01*
X444680952Y-286591190D02*
X444728571Y-286686428D01*
X444728571Y-286686428D02*
X444728571Y-286829285D01*
X444728571Y-286829285D02*
X444680952Y-286924523D01*
X444680952Y-286924523D02*
X444633333Y-286972142D01*
X444633333Y-286972142D02*
X444538095Y-287019761D01*
X444538095Y-287019761D02*
X444157143Y-287019761D01*
X445680952Y-287495951D02*
X445109524Y-287495951D01*
X445395238Y-287495951D02*
X445395238Y-286495951D01*
X445395238Y-286495951D02*
X445300000Y-286638809D01*
X445300000Y-286638809D02*
X445204762Y-286734047D01*
X445204762Y-286734047D02*
X445109524Y-286781666D01*
%TO.C,TXT1*%
X425290476Y-300248332D02*
X425433333Y-300295951D01*
X425433333Y-300295951D02*
X425671428Y-300295951D01*
X425671428Y-300295951D02*
X425766666Y-300248332D01*
X425766666Y-300248332D02*
X425814285Y-300200713D01*
X425814285Y-300200713D02*
X425861904Y-300105475D01*
X425861904Y-300105475D02*
X425861904Y-300010237D01*
X425861904Y-300010237D02*
X425814285Y-299914999D01*
X425814285Y-299914999D02*
X425766666Y-299867380D01*
X425766666Y-299867380D02*
X425671428Y-299819761D01*
X425671428Y-299819761D02*
X425480952Y-299772142D01*
X425480952Y-299772142D02*
X425385714Y-299724523D01*
X425385714Y-299724523D02*
X425338095Y-299676904D01*
X425338095Y-299676904D02*
X425290476Y-299581666D01*
X425290476Y-299581666D02*
X425290476Y-299486428D01*
X425290476Y-299486428D02*
X425338095Y-299391190D01*
X425338095Y-299391190D02*
X425385714Y-299343571D01*
X425385714Y-299343571D02*
X425480952Y-299295951D01*
X425480952Y-299295951D02*
X425719047Y-299295951D01*
X425719047Y-299295951D02*
X425861904Y-299343571D01*
X426242857Y-300248332D02*
X426385714Y-300295951D01*
X426385714Y-300295951D02*
X426623809Y-300295951D01*
X426623809Y-300295951D02*
X426719047Y-300248332D01*
X426719047Y-300248332D02*
X426766666Y-300200713D01*
X426766666Y-300200713D02*
X426814285Y-300105475D01*
X426814285Y-300105475D02*
X426814285Y-300010237D01*
X426814285Y-300010237D02*
X426766666Y-299914999D01*
X426766666Y-299914999D02*
X426719047Y-299867380D01*
X426719047Y-299867380D02*
X426623809Y-299819761D01*
X426623809Y-299819761D02*
X426433333Y-299772142D01*
X426433333Y-299772142D02*
X426338095Y-299724523D01*
X426338095Y-299724523D02*
X426290476Y-299676904D01*
X426290476Y-299676904D02*
X426242857Y-299581666D01*
X426242857Y-299581666D02*
X426242857Y-299486428D01*
X426242857Y-299486428D02*
X426290476Y-299391190D01*
X426290476Y-299391190D02*
X426338095Y-299343571D01*
X426338095Y-299343571D02*
X426433333Y-299295951D01*
X426433333Y-299295951D02*
X426671428Y-299295951D01*
X426671428Y-299295951D02*
X426814285Y-299343571D01*
X427100000Y-299295951D02*
X427671428Y-299295951D01*
X427385714Y-300295951D02*
X427385714Y-299295951D01*
X427909524Y-299295951D02*
X428576190Y-300295951D01*
X428576190Y-299295951D02*
X427909524Y-300295951D01*
X428957143Y-300295951D02*
X428957143Y-299295951D01*
X428957143Y-299295951D02*
X429338095Y-299295951D01*
X429338095Y-299295951D02*
X429433333Y-299343571D01*
X429433333Y-299343571D02*
X429480952Y-299391190D01*
X429480952Y-299391190D02*
X429528571Y-299486428D01*
X429528571Y-299486428D02*
X429528571Y-299629285D01*
X429528571Y-299629285D02*
X429480952Y-299724523D01*
X429480952Y-299724523D02*
X429433333Y-299772142D01*
X429433333Y-299772142D02*
X429338095Y-299819761D01*
X429338095Y-299819761D02*
X428957143Y-299819761D01*
X429909524Y-299391190D02*
X429957143Y-299343571D01*
X429957143Y-299343571D02*
X430052381Y-299295951D01*
X430052381Y-299295951D02*
X430290476Y-299295951D01*
X430290476Y-299295951D02*
X430385714Y-299343571D01*
X430385714Y-299343571D02*
X430433333Y-299391190D01*
X430433333Y-299391190D02*
X430480952Y-299486428D01*
X430480952Y-299486428D02*
X430480952Y-299581666D01*
X430480952Y-299581666D02*
X430433333Y-299724523D01*
X430433333Y-299724523D02*
X429861905Y-300295951D01*
X429861905Y-300295951D02*
X430480952Y-300295951D01*
%TO.C,TXT2*%
X427190476Y-298648332D02*
X427333333Y-298695951D01*
X427333333Y-298695951D02*
X427571428Y-298695951D01*
X427571428Y-298695951D02*
X427666666Y-298648332D01*
X427666666Y-298648332D02*
X427714285Y-298600713D01*
X427714285Y-298600713D02*
X427761904Y-298505475D01*
X427761904Y-298505475D02*
X427761904Y-298410237D01*
X427761904Y-298410237D02*
X427714285Y-298314999D01*
X427714285Y-298314999D02*
X427666666Y-298267380D01*
X427666666Y-298267380D02*
X427571428Y-298219761D01*
X427571428Y-298219761D02*
X427380952Y-298172142D01*
X427380952Y-298172142D02*
X427285714Y-298124523D01*
X427285714Y-298124523D02*
X427238095Y-298076904D01*
X427238095Y-298076904D02*
X427190476Y-297981666D01*
X427190476Y-297981666D02*
X427190476Y-297886428D01*
X427190476Y-297886428D02*
X427238095Y-297791190D01*
X427238095Y-297791190D02*
X427285714Y-297743571D01*
X427285714Y-297743571D02*
X427380952Y-297695951D01*
X427380952Y-297695951D02*
X427619047Y-297695951D01*
X427619047Y-297695951D02*
X427761904Y-297743571D01*
X428142857Y-298648332D02*
X428285714Y-298695951D01*
X428285714Y-298695951D02*
X428523809Y-298695951D01*
X428523809Y-298695951D02*
X428619047Y-298648332D01*
X428619047Y-298648332D02*
X428666666Y-298600713D01*
X428666666Y-298600713D02*
X428714285Y-298505475D01*
X428714285Y-298505475D02*
X428714285Y-298410237D01*
X428714285Y-298410237D02*
X428666666Y-298314999D01*
X428666666Y-298314999D02*
X428619047Y-298267380D01*
X428619047Y-298267380D02*
X428523809Y-298219761D01*
X428523809Y-298219761D02*
X428333333Y-298172142D01*
X428333333Y-298172142D02*
X428238095Y-298124523D01*
X428238095Y-298124523D02*
X428190476Y-298076904D01*
X428190476Y-298076904D02*
X428142857Y-297981666D01*
X428142857Y-297981666D02*
X428142857Y-297886428D01*
X428142857Y-297886428D02*
X428190476Y-297791190D01*
X428190476Y-297791190D02*
X428238095Y-297743571D01*
X428238095Y-297743571D02*
X428333333Y-297695951D01*
X428333333Y-297695951D02*
X428571428Y-297695951D01*
X428571428Y-297695951D02*
X428714285Y-297743571D01*
X429000000Y-297695951D02*
X429571428Y-297695951D01*
X429285714Y-298695951D02*
X429285714Y-297695951D01*
X429809524Y-297695951D02*
X430476190Y-298695951D01*
X430476190Y-297695951D02*
X429809524Y-298695951D01*
X430857143Y-298695951D02*
X430857143Y-297695951D01*
X430857143Y-297695951D02*
X431428571Y-298695951D01*
X431428571Y-298695951D02*
X431428571Y-297695951D01*
X431857143Y-297791190D02*
X431904762Y-297743571D01*
X431904762Y-297743571D02*
X432000000Y-297695951D01*
X432000000Y-297695951D02*
X432238095Y-297695951D01*
X432238095Y-297695951D02*
X432333333Y-297743571D01*
X432333333Y-297743571D02*
X432380952Y-297791190D01*
X432380952Y-297791190D02*
X432428571Y-297886428D01*
X432428571Y-297886428D02*
X432428571Y-297981666D01*
X432428571Y-297981666D02*
X432380952Y-298124523D01*
X432380952Y-298124523D02*
X431809524Y-298695951D01*
X431809524Y-298695951D02*
X432428571Y-298695951D01*
%TO.C,TXT17*%
X455690476Y-274648332D02*
X455833333Y-274695951D01*
X455833333Y-274695951D02*
X456071428Y-274695951D01*
X456071428Y-274695951D02*
X456166666Y-274648332D01*
X456166666Y-274648332D02*
X456214285Y-274600713D01*
X456214285Y-274600713D02*
X456261904Y-274505475D01*
X456261904Y-274505475D02*
X456261904Y-274410237D01*
X456261904Y-274410237D02*
X456214285Y-274314999D01*
X456214285Y-274314999D02*
X456166666Y-274267380D01*
X456166666Y-274267380D02*
X456071428Y-274219761D01*
X456071428Y-274219761D02*
X455880952Y-274172142D01*
X455880952Y-274172142D02*
X455785714Y-274124523D01*
X455785714Y-274124523D02*
X455738095Y-274076904D01*
X455738095Y-274076904D02*
X455690476Y-273981666D01*
X455690476Y-273981666D02*
X455690476Y-273886428D01*
X455690476Y-273886428D02*
X455738095Y-273791190D01*
X455738095Y-273791190D02*
X455785714Y-273743571D01*
X455785714Y-273743571D02*
X455880952Y-273695951D01*
X455880952Y-273695951D02*
X456119047Y-273695951D01*
X456119047Y-273695951D02*
X456261904Y-273743571D01*
X456642857Y-274648332D02*
X456785714Y-274695951D01*
X456785714Y-274695951D02*
X457023809Y-274695951D01*
X457023809Y-274695951D02*
X457119047Y-274648332D01*
X457119047Y-274648332D02*
X457166666Y-274600713D01*
X457166666Y-274600713D02*
X457214285Y-274505475D01*
X457214285Y-274505475D02*
X457214285Y-274410237D01*
X457214285Y-274410237D02*
X457166666Y-274314999D01*
X457166666Y-274314999D02*
X457119047Y-274267380D01*
X457119047Y-274267380D02*
X457023809Y-274219761D01*
X457023809Y-274219761D02*
X456833333Y-274172142D01*
X456833333Y-274172142D02*
X456738095Y-274124523D01*
X456738095Y-274124523D02*
X456690476Y-274076904D01*
X456690476Y-274076904D02*
X456642857Y-273981666D01*
X456642857Y-273981666D02*
X456642857Y-273886428D01*
X456642857Y-273886428D02*
X456690476Y-273791190D01*
X456690476Y-273791190D02*
X456738095Y-273743571D01*
X456738095Y-273743571D02*
X456833333Y-273695951D01*
X456833333Y-273695951D02*
X457071428Y-273695951D01*
X457071428Y-273695951D02*
X457214285Y-273743571D01*
X458214285Y-274695951D02*
X457880952Y-274219761D01*
X457642857Y-274695951D02*
X457642857Y-273695951D01*
X457642857Y-273695951D02*
X458023809Y-273695951D01*
X458023809Y-273695951D02*
X458119047Y-273743571D01*
X458119047Y-273743571D02*
X458166666Y-273791190D01*
X458166666Y-273791190D02*
X458214285Y-273886428D01*
X458214285Y-273886428D02*
X458214285Y-274029285D01*
X458214285Y-274029285D02*
X458166666Y-274124523D01*
X458166666Y-274124523D02*
X458119047Y-274172142D01*
X458119047Y-274172142D02*
X458023809Y-274219761D01*
X458023809Y-274219761D02*
X457642857Y-274219761D01*
X458547619Y-273695951D02*
X459214285Y-274695951D01*
X459214285Y-273695951D02*
X458547619Y-274695951D01*
X459595238Y-274695951D02*
X459595238Y-273695951D01*
X459595238Y-273695951D02*
X459976190Y-273695951D01*
X459976190Y-273695951D02*
X460071428Y-273743571D01*
X460071428Y-273743571D02*
X460119047Y-273791190D01*
X460119047Y-273791190D02*
X460166666Y-273886428D01*
X460166666Y-273886428D02*
X460166666Y-274029285D01*
X460166666Y-274029285D02*
X460119047Y-274124523D01*
X460119047Y-274124523D02*
X460071428Y-274172142D01*
X460071428Y-274172142D02*
X459976190Y-274219761D01*
X459976190Y-274219761D02*
X459595238Y-274219761D01*
X460547619Y-273791190D02*
X460595238Y-273743571D01*
X460595238Y-273743571D02*
X460690476Y-273695951D01*
X460690476Y-273695951D02*
X460928571Y-273695951D01*
X460928571Y-273695951D02*
X461023809Y-273743571D01*
X461023809Y-273743571D02*
X461071428Y-273791190D01*
X461071428Y-273791190D02*
X461119047Y-273886428D01*
X461119047Y-273886428D02*
X461119047Y-273981666D01*
X461119047Y-273981666D02*
X461071428Y-274124523D01*
X461071428Y-274124523D02*
X460500000Y-274695951D01*
X460500000Y-274695951D02*
X461119047Y-274695951D01*
%TO.C,TXT12*%
X444909523Y-284200713D02*
X444861904Y-284248332D01*
X444861904Y-284248332D02*
X444719047Y-284295951D01*
X444719047Y-284295951D02*
X444623809Y-284295951D01*
X444623809Y-284295951D02*
X444480952Y-284248332D01*
X444480952Y-284248332D02*
X444385714Y-284153094D01*
X444385714Y-284153094D02*
X444338095Y-284057856D01*
X444338095Y-284057856D02*
X444290476Y-283867380D01*
X444290476Y-283867380D02*
X444290476Y-283724523D01*
X444290476Y-283724523D02*
X444338095Y-283534047D01*
X444338095Y-283534047D02*
X444385714Y-283438809D01*
X444385714Y-283438809D02*
X444480952Y-283343571D01*
X444480952Y-283343571D02*
X444623809Y-283295951D01*
X444623809Y-283295951D02*
X444719047Y-283295951D01*
X444719047Y-283295951D02*
X444861904Y-283343571D01*
X444861904Y-283343571D02*
X444909523Y-283391190D01*
X445909523Y-284200713D02*
X445861904Y-284248332D01*
X445861904Y-284248332D02*
X445719047Y-284295951D01*
X445719047Y-284295951D02*
X445623809Y-284295951D01*
X445623809Y-284295951D02*
X445480952Y-284248332D01*
X445480952Y-284248332D02*
X445385714Y-284153094D01*
X445385714Y-284153094D02*
X445338095Y-284057856D01*
X445338095Y-284057856D02*
X445290476Y-283867380D01*
X445290476Y-283867380D02*
X445290476Y-283724523D01*
X445290476Y-283724523D02*
X445338095Y-283534047D01*
X445338095Y-283534047D02*
X445385714Y-283438809D01*
X445385714Y-283438809D02*
X445480952Y-283343571D01*
X445480952Y-283343571D02*
X445623809Y-283295951D01*
X445623809Y-283295951D02*
X445719047Y-283295951D01*
X445719047Y-283295951D02*
X445861904Y-283343571D01*
X445861904Y-283343571D02*
X445909523Y-283391190D01*
X446861904Y-284295951D02*
X446290476Y-284295951D01*
X446576190Y-284295951D02*
X446576190Y-283295951D01*
X446576190Y-283295951D02*
X446480952Y-283438809D01*
X446480952Y-283438809D02*
X446385714Y-283534047D01*
X446385714Y-283534047D02*
X446290476Y-283581666D01*
%TO.C,LED3*%
X412914285Y-296695951D02*
X412438095Y-296695951D01*
X412438095Y-296695951D02*
X412438095Y-295695951D01*
X413247619Y-296172142D02*
X413580952Y-296172142D01*
X413723809Y-296695951D02*
X413247619Y-296695951D01*
X413247619Y-296695951D02*
X413247619Y-295695951D01*
X413247619Y-295695951D02*
X413723809Y-295695951D01*
X414152381Y-296695951D02*
X414152381Y-295695951D01*
X414152381Y-295695951D02*
X414390476Y-295695951D01*
X414390476Y-295695951D02*
X414533333Y-295743571D01*
X414533333Y-295743571D02*
X414628571Y-295838809D01*
X414628571Y-295838809D02*
X414676190Y-295934047D01*
X414676190Y-295934047D02*
X414723809Y-296124523D01*
X414723809Y-296124523D02*
X414723809Y-296267380D01*
X414723809Y-296267380D02*
X414676190Y-296457856D01*
X414676190Y-296457856D02*
X414628571Y-296553094D01*
X414628571Y-296553094D02*
X414533333Y-296648332D01*
X414533333Y-296648332D02*
X414390476Y-296695951D01*
X414390476Y-296695951D02*
X414152381Y-296695951D01*
X415057143Y-295695951D02*
X415676190Y-295695951D01*
X415676190Y-295695951D02*
X415342857Y-296076904D01*
X415342857Y-296076904D02*
X415485714Y-296076904D01*
X415485714Y-296076904D02*
X415580952Y-296124523D01*
X415580952Y-296124523D02*
X415628571Y-296172142D01*
X415628571Y-296172142D02*
X415676190Y-296267380D01*
X415676190Y-296267380D02*
X415676190Y-296505475D01*
X415676190Y-296505475D02*
X415628571Y-296600713D01*
X415628571Y-296600713D02*
X415580952Y-296648332D01*
X415580952Y-296648332D02*
X415485714Y-296695951D01*
X415485714Y-296695951D02*
X415200000Y-296695951D01*
X415200000Y-296695951D02*
X415104762Y-296648332D01*
X415104762Y-296648332D02*
X415057143Y-296600713D01*
%TO.C,LED17*%
X439514285Y-274295951D02*
X439038095Y-274295951D01*
X439038095Y-274295951D02*
X439038095Y-273295951D01*
X439847619Y-273772142D02*
X440180952Y-273772142D01*
X440323809Y-274295951D02*
X439847619Y-274295951D01*
X439847619Y-274295951D02*
X439847619Y-273295951D01*
X439847619Y-273295951D02*
X440323809Y-273295951D01*
X440752381Y-274295951D02*
X440752381Y-273295951D01*
X440752381Y-273295951D02*
X440990476Y-273295951D01*
X440990476Y-273295951D02*
X441133333Y-273343571D01*
X441133333Y-273343571D02*
X441228571Y-273438809D01*
X441228571Y-273438809D02*
X441276190Y-273534047D01*
X441276190Y-273534047D02*
X441323809Y-273724523D01*
X441323809Y-273724523D02*
X441323809Y-273867380D01*
X441323809Y-273867380D02*
X441276190Y-274057856D01*
X441276190Y-274057856D02*
X441228571Y-274153094D01*
X441228571Y-274153094D02*
X441133333Y-274248332D01*
X441133333Y-274248332D02*
X440990476Y-274295951D01*
X440990476Y-274295951D02*
X440752381Y-274295951D01*
X442276190Y-274295951D02*
X441704762Y-274295951D01*
X441990476Y-274295951D02*
X441990476Y-273295951D01*
X441990476Y-273295951D02*
X441895238Y-273438809D01*
X441895238Y-273438809D02*
X441800000Y-273534047D01*
X441800000Y-273534047D02*
X441704762Y-273581666D01*
X442609524Y-273295951D02*
X443276190Y-273295951D01*
X443276190Y-273295951D02*
X442847619Y-274295951D01*
%TO.C,U23*%
X409857940Y-284361923D02*
X410670377Y-284361923D01*
X410670377Y-284361923D02*
X410765957Y-284314132D01*
X410765957Y-284314132D02*
X410813748Y-284266342D01*
X410813748Y-284266342D02*
X410861538Y-284170761D01*
X410861538Y-284170761D02*
X410861538Y-283979600D01*
X410861538Y-283979600D02*
X410813748Y-283884019D01*
X410813748Y-283884019D02*
X410765957Y-283836228D01*
X410765957Y-283836228D02*
X410670377Y-283788438D01*
X410670377Y-283788438D02*
X409857940Y-283788438D01*
X409953521Y-283358325D02*
X409905731Y-283310535D01*
X409905731Y-283310535D02*
X409857940Y-283214954D01*
X409857940Y-283214954D02*
X409857940Y-282976002D01*
X409857940Y-282976002D02*
X409905731Y-282880421D01*
X409905731Y-282880421D02*
X409953521Y-282832631D01*
X409953521Y-282832631D02*
X410049102Y-282784840D01*
X410049102Y-282784840D02*
X410144682Y-282784840D01*
X410144682Y-282784840D02*
X410288054Y-282832631D01*
X410288054Y-282832631D02*
X410861538Y-283406115D01*
X410861538Y-283406115D02*
X410861538Y-282784840D01*
X409857940Y-282450307D02*
X409857940Y-281829032D01*
X409857940Y-281829032D02*
X410240263Y-282163565D01*
X410240263Y-282163565D02*
X410240263Y-282020194D01*
X410240263Y-282020194D02*
X410288054Y-281924613D01*
X410288054Y-281924613D02*
X410335844Y-281876823D01*
X410335844Y-281876823D02*
X410431425Y-281829032D01*
X410431425Y-281829032D02*
X410670377Y-281829032D01*
X410670377Y-281829032D02*
X410765957Y-281876823D01*
X410765957Y-281876823D02*
X410813748Y-281924613D01*
X410813748Y-281924613D02*
X410861538Y-282020194D01*
X410861538Y-282020194D02*
X410861538Y-282306936D01*
X410861538Y-282306936D02*
X410813748Y-282402517D01*
X410813748Y-282402517D02*
X410765957Y-282450307D01*
%TO.C,LED7*%
X420514285Y-290295951D02*
X420038095Y-290295951D01*
X420038095Y-290295951D02*
X420038095Y-289295951D01*
X420847619Y-289772142D02*
X421180952Y-289772142D01*
X421323809Y-290295951D02*
X420847619Y-290295951D01*
X420847619Y-290295951D02*
X420847619Y-289295951D01*
X420847619Y-289295951D02*
X421323809Y-289295951D01*
X421752381Y-290295951D02*
X421752381Y-289295951D01*
X421752381Y-289295951D02*
X421990476Y-289295951D01*
X421990476Y-289295951D02*
X422133333Y-289343571D01*
X422133333Y-289343571D02*
X422228571Y-289438809D01*
X422228571Y-289438809D02*
X422276190Y-289534047D01*
X422276190Y-289534047D02*
X422323809Y-289724523D01*
X422323809Y-289724523D02*
X422323809Y-289867380D01*
X422323809Y-289867380D02*
X422276190Y-290057856D01*
X422276190Y-290057856D02*
X422228571Y-290153094D01*
X422228571Y-290153094D02*
X422133333Y-290248332D01*
X422133333Y-290248332D02*
X421990476Y-290295951D01*
X421990476Y-290295951D02*
X421752381Y-290295951D01*
X422657143Y-289295951D02*
X423323809Y-289295951D01*
X423323809Y-289295951D02*
X422895238Y-290295951D01*
%TO.C,TXT4*%
X431038095Y-295495951D02*
X431038095Y-294495951D01*
X431038095Y-294495951D02*
X431276190Y-294495951D01*
X431276190Y-294495951D02*
X431419047Y-294543571D01*
X431419047Y-294543571D02*
X431514285Y-294638809D01*
X431514285Y-294638809D02*
X431561904Y-294734047D01*
X431561904Y-294734047D02*
X431609523Y-294924523D01*
X431609523Y-294924523D02*
X431609523Y-295067380D01*
X431609523Y-295067380D02*
X431561904Y-295257856D01*
X431561904Y-295257856D02*
X431514285Y-295353094D01*
X431514285Y-295353094D02*
X431419047Y-295448332D01*
X431419047Y-295448332D02*
X431276190Y-295495951D01*
X431276190Y-295495951D02*
X431038095Y-295495951D01*
X432038095Y-295495951D02*
X432038095Y-294495951D01*
X432038095Y-294495951D02*
X432419047Y-294495951D01*
X432419047Y-294495951D02*
X432514285Y-294543571D01*
X432514285Y-294543571D02*
X432561904Y-294591190D01*
X432561904Y-294591190D02*
X432609523Y-294686428D01*
X432609523Y-294686428D02*
X432609523Y-294829285D01*
X432609523Y-294829285D02*
X432561904Y-294924523D01*
X432561904Y-294924523D02*
X432514285Y-294972142D01*
X432514285Y-294972142D02*
X432419047Y-295019761D01*
X432419047Y-295019761D02*
X432038095Y-295019761D01*
X432990476Y-294591190D02*
X433038095Y-294543571D01*
X433038095Y-294543571D02*
X433133333Y-294495951D01*
X433133333Y-294495951D02*
X433371428Y-294495951D01*
X433371428Y-294495951D02*
X433466666Y-294543571D01*
X433466666Y-294543571D02*
X433514285Y-294591190D01*
X433514285Y-294591190D02*
X433561904Y-294686428D01*
X433561904Y-294686428D02*
X433561904Y-294781666D01*
X433561904Y-294781666D02*
X433514285Y-294924523D01*
X433514285Y-294924523D02*
X432942857Y-295495951D01*
X432942857Y-295495951D02*
X433561904Y-295495951D01*
%TO.C,LED10*%
X426214285Y-285495951D02*
X425738095Y-285495951D01*
X425738095Y-285495951D02*
X425738095Y-284495951D01*
X426547619Y-284972142D02*
X426880952Y-284972142D01*
X427023809Y-285495951D02*
X426547619Y-285495951D01*
X426547619Y-285495951D02*
X426547619Y-284495951D01*
X426547619Y-284495951D02*
X427023809Y-284495951D01*
X427452381Y-285495951D02*
X427452381Y-284495951D01*
X427452381Y-284495951D02*
X427690476Y-284495951D01*
X427690476Y-284495951D02*
X427833333Y-284543571D01*
X427833333Y-284543571D02*
X427928571Y-284638809D01*
X427928571Y-284638809D02*
X427976190Y-284734047D01*
X427976190Y-284734047D02*
X428023809Y-284924523D01*
X428023809Y-284924523D02*
X428023809Y-285067380D01*
X428023809Y-285067380D02*
X427976190Y-285257856D01*
X427976190Y-285257856D02*
X427928571Y-285353094D01*
X427928571Y-285353094D02*
X427833333Y-285448332D01*
X427833333Y-285448332D02*
X427690476Y-285495951D01*
X427690476Y-285495951D02*
X427452381Y-285495951D01*
X428976190Y-285495951D02*
X428404762Y-285495951D01*
X428690476Y-285495951D02*
X428690476Y-284495951D01*
X428690476Y-284495951D02*
X428595238Y-284638809D01*
X428595238Y-284638809D02*
X428500000Y-284734047D01*
X428500000Y-284734047D02*
X428404762Y-284781666D01*
X429595238Y-284495951D02*
X429690476Y-284495951D01*
X429690476Y-284495951D02*
X429785714Y-284543571D01*
X429785714Y-284543571D02*
X429833333Y-284591190D01*
X429833333Y-284591190D02*
X429880952Y-284686428D01*
X429880952Y-284686428D02*
X429928571Y-284876904D01*
X429928571Y-284876904D02*
X429928571Y-285114999D01*
X429928571Y-285114999D02*
X429880952Y-285305475D01*
X429880952Y-285305475D02*
X429833333Y-285400713D01*
X429833333Y-285400713D02*
X429785714Y-285448332D01*
X429785714Y-285448332D02*
X429690476Y-285495951D01*
X429690476Y-285495951D02*
X429595238Y-285495951D01*
X429595238Y-285495951D02*
X429500000Y-285448332D01*
X429500000Y-285448332D02*
X429452381Y-285400713D01*
X429452381Y-285400713D02*
X429404762Y-285305475D01*
X429404762Y-285305475D02*
X429357143Y-285114999D01*
X429357143Y-285114999D02*
X429357143Y-284876904D01*
X429357143Y-284876904D02*
X429404762Y-284686428D01*
X429404762Y-284686428D02*
X429452381Y-284591190D01*
X429452381Y-284591190D02*
X429500000Y-284543571D01*
X429500000Y-284543571D02*
X429595238Y-284495951D01*
D12*
%TO.C,R18*%
X450553641Y-272708571D02*
X450246359Y-272708571D01*
X450553641Y-271948571D02*
X450246359Y-271948571D01*
%TO.C,R17*%
X448653641Y-274308571D02*
X448346359Y-274308571D01*
X448653641Y-273548571D02*
X448346359Y-273548571D01*
%TO.C,R16*%
X446753641Y-275908571D02*
X446446359Y-275908571D01*
X446753641Y-275148571D02*
X446446359Y-275148571D01*
%TO.C,R15*%
X442953641Y-279108571D02*
X442646359Y-279108571D01*
X442953641Y-278348571D02*
X442646359Y-278348571D01*
%TO.C,R14*%
X441053641Y-280708571D02*
X440746359Y-280708571D01*
X441053641Y-279948571D02*
X440746359Y-279948571D01*
%TO.C,R13*%
X439153641Y-282308571D02*
X438846359Y-282308571D01*
X439153641Y-281548571D02*
X438846359Y-281548571D01*
%TO.C,R12*%
X437253641Y-283908571D02*
X436946359Y-283908571D01*
X437253641Y-283148571D02*
X436946359Y-283148571D01*
%TO.C,R11*%
X444853641Y-277508571D02*
X444546359Y-277508571D01*
X444853641Y-276748571D02*
X444546359Y-276748571D01*
%TO.C,R10*%
X435353641Y-285508571D02*
X435046359Y-285508571D01*
X435353641Y-284748571D02*
X435046359Y-284748571D01*
%TO.C,R9*%
X433453641Y-287108571D02*
X433146359Y-287108571D01*
X433453641Y-286348571D02*
X433146359Y-286348571D01*
%TO.C,R8*%
X431553641Y-288708571D02*
X431246359Y-288708571D01*
X431553641Y-287948571D02*
X431246359Y-287948571D01*
%TO.C,R7*%
X429653641Y-290308571D02*
X429346359Y-290308571D01*
X429653641Y-289548571D02*
X429346359Y-289548571D01*
%TO.C,R6*%
X427753641Y-291908571D02*
X427446359Y-291908571D01*
X427753641Y-291148571D02*
X427446359Y-291148571D01*
%TO.C,R5*%
X425853641Y-293508571D02*
X425546359Y-293508571D01*
X425853641Y-292748571D02*
X425546359Y-292748571D01*
%TO.C,R4*%
X423953641Y-295108571D02*
X423646359Y-295108571D01*
X423953641Y-294348571D02*
X423646359Y-294348571D01*
%TO.C,R3*%
X422053641Y-296708571D02*
X421746359Y-296708571D01*
X422053641Y-295948571D02*
X421746359Y-295948571D01*
%TO.C,R2*%
X420153641Y-298308571D02*
X419846359Y-298308571D01*
X420153641Y-297548571D02*
X419846359Y-297548571D01*
%TO.C,R1*%
X418253641Y-299908571D02*
X417946359Y-299908571D01*
X418253641Y-299148571D02*
X417946359Y-299148571D01*
%TO.C,B1*%
X405464286Y-267142857D02*
X405464286Y-266142857D01*
X404964286Y-266642857D02*
X405964286Y-266642857D01*
D13*
%TO.C,U24*%
X460800000Y-290970000D02*
X458600000Y-290970000D01*
X464270000Y-290970000D02*
X464270000Y-282030000D01*
X460800000Y-282030000D02*
X458600000Y-282030000D01*
D14*
X455520000Y-289548000D02*
G75*
G03*
X455520000Y-289548000I-100000J0D01*
G01*
D13*
%TO.C,U23*%
X403200000Y-282030000D02*
X405400000Y-282030000D01*
X399730000Y-282030000D02*
X399730000Y-290970000D01*
X403200000Y-290970000D02*
X405400000Y-290970000D01*
D14*
X408680000Y-283452000D02*
G75*
G03*
X408680000Y-283452000I-100000J0D01*
G01*
%TD*%
%LPC*%
%TO.C,U13*%
G36*
X445004845Y-280898746D02*
G01*
X445201818Y-280958497D01*
X445383349Y-281055528D01*
X445542462Y-281186109D01*
X445673043Y-281345222D01*
X445770074Y-281526753D01*
X445829825Y-281723726D01*
X445850000Y-281928571D01*
X445829825Y-282133416D01*
X445770074Y-282330389D01*
X445673043Y-282511920D01*
X445542462Y-282671033D01*
X445383349Y-282801614D01*
X445201818Y-282898645D01*
X445004845Y-282958396D01*
X444800000Y-282978571D01*
X444595155Y-282958396D01*
X444398182Y-282898645D01*
X444216651Y-282801614D01*
X444057538Y-282671033D01*
X443926957Y-282511920D01*
X443829926Y-282330389D01*
X443770175Y-282133416D01*
X443750000Y-281928571D01*
X443770175Y-281723726D01*
X443829926Y-281526753D01*
X443926957Y-281345222D01*
X444057538Y-281186109D01*
X444216651Y-281055528D01*
X444398182Y-280958497D01*
X444595155Y-280898746D01*
X444800000Y-280878571D01*
X445004845Y-280898746D01*
G37*
%TO.C,U14*%
G36*
X446904845Y-279298746D02*
G01*
X447101818Y-279358497D01*
X447283349Y-279455528D01*
X447442462Y-279586109D01*
X447573043Y-279745222D01*
X447670074Y-279926753D01*
X447729825Y-280123726D01*
X447750000Y-280328571D01*
X447729825Y-280533416D01*
X447670074Y-280730389D01*
X447573043Y-280911920D01*
X447442462Y-281071033D01*
X447283349Y-281201614D01*
X447101818Y-281298645D01*
X446904845Y-281358396D01*
X446700000Y-281378571D01*
X446495155Y-281358396D01*
X446298182Y-281298645D01*
X446116651Y-281201614D01*
X445957538Y-281071033D01*
X445826957Y-280911920D01*
X445729926Y-280730389D01*
X445670175Y-280533416D01*
X445650000Y-280328571D01*
X445670175Y-280123726D01*
X445729926Y-279926753D01*
X445826957Y-279745222D01*
X445957538Y-279586109D01*
X446116651Y-279455528D01*
X446298182Y-279358497D01*
X446495155Y-279298746D01*
X446700000Y-279278571D01*
X446904845Y-279298746D01*
G37*
%TO.C,U20*%
G36*
X461410917Y-258635547D02*
G01*
X461757964Y-258740823D01*
X462077805Y-258911781D01*
X462358148Y-259141852D01*
X462588219Y-259422195D01*
X462759177Y-259742036D01*
X462864453Y-260089083D01*
X462900000Y-260450000D01*
X462864453Y-260810917D01*
X462759177Y-261157964D01*
X462588219Y-261477805D01*
X462358148Y-261758148D01*
X462077805Y-261988219D01*
X461757964Y-262159177D01*
X461410917Y-262264453D01*
X461050000Y-262300000D01*
X460689083Y-262264453D01*
X460342036Y-262159177D01*
X460022195Y-261988219D01*
X459741852Y-261758148D01*
X459511781Y-261477805D01*
X459340823Y-261157964D01*
X459235547Y-260810917D01*
X459200000Y-260450000D01*
X459235547Y-260089083D01*
X459340823Y-259742036D01*
X459511781Y-259422195D01*
X459741852Y-259141852D01*
X460022195Y-258911781D01*
X460342036Y-258740823D01*
X460689083Y-258635547D01*
X461050000Y-258600000D01*
X461410917Y-258635547D01*
G37*
%TO.C,U17*%
G36*
X454504845Y-272898746D02*
G01*
X454701818Y-272958497D01*
X454883349Y-273055528D01*
X455042462Y-273186109D01*
X455173043Y-273345222D01*
X455270074Y-273526753D01*
X455329825Y-273723726D01*
X455350000Y-273928571D01*
X455329825Y-274133416D01*
X455270074Y-274330389D01*
X455173043Y-274511920D01*
X455042462Y-274671033D01*
X454883349Y-274801614D01*
X454701818Y-274898645D01*
X454504845Y-274958396D01*
X454300000Y-274978571D01*
X454095155Y-274958396D01*
X453898182Y-274898645D01*
X453716651Y-274801614D01*
X453557538Y-274671033D01*
X453426957Y-274511920D01*
X453329926Y-274330389D01*
X453270175Y-274133416D01*
X453250000Y-273928571D01*
X453270175Y-273723726D01*
X453329926Y-273526753D01*
X453426957Y-273345222D01*
X453557538Y-273186109D01*
X453716651Y-273055528D01*
X453898182Y-272958497D01*
X454095155Y-272898746D01*
X454300000Y-272878571D01*
X454504845Y-272898746D01*
G37*
%TO.C,U21*%
G36*
X403310917Y-296735547D02*
G01*
X403657964Y-296840823D01*
X403977805Y-297011781D01*
X404258148Y-297241852D01*
X404488219Y-297522195D01*
X404659177Y-297842036D01*
X404764453Y-298189083D01*
X404800000Y-298550000D01*
X404764453Y-298910917D01*
X404659177Y-299257964D01*
X404488219Y-299577805D01*
X404258148Y-299858148D01*
X403977805Y-300088219D01*
X403657964Y-300259177D01*
X403310917Y-300364453D01*
X402950000Y-300400000D01*
X402589083Y-300364453D01*
X402242036Y-300259177D01*
X401922195Y-300088219D01*
X401641852Y-299858148D01*
X401411781Y-299577805D01*
X401240823Y-299257964D01*
X401135547Y-298910917D01*
X401100000Y-298550000D01*
X401135547Y-298189083D01*
X401240823Y-297842036D01*
X401411781Y-297522195D01*
X401641852Y-297241852D01*
X401922195Y-297011781D01*
X402242036Y-296840823D01*
X402589083Y-296735547D01*
X402950000Y-296700000D01*
X403310917Y-296735547D01*
G37*
%TO.C,LED16*%
G36*
X444425000Y-276053571D02*
G01*
X443812868Y-276053571D01*
X443812868Y-275003571D01*
X444425000Y-275003571D01*
X444425000Y-276053571D01*
G37*
G36*
X442987132Y-276053571D02*
G01*
X442375000Y-276053571D01*
X442375000Y-275003571D01*
X442987132Y-275003571D01*
X442987132Y-276053571D01*
G37*
%TO.C,U12*%
G36*
X443104845Y-282498746D02*
G01*
X443301818Y-282558497D01*
X443483349Y-282655528D01*
X443642462Y-282786109D01*
X443773043Y-282945222D01*
X443870074Y-283126753D01*
X443929825Y-283323726D01*
X443950000Y-283528571D01*
X443929825Y-283733416D01*
X443870074Y-283930389D01*
X443773043Y-284111920D01*
X443642462Y-284271033D01*
X443483349Y-284401614D01*
X443301818Y-284498645D01*
X443104845Y-284558396D01*
X442900000Y-284578571D01*
X442695155Y-284558396D01*
X442498182Y-284498645D01*
X442316651Y-284401614D01*
X442157538Y-284271033D01*
X442026957Y-284111920D01*
X441929926Y-283930389D01*
X441870175Y-283733416D01*
X441850000Y-283528571D01*
X441870175Y-283323726D01*
X441929926Y-283126753D01*
X442026957Y-282945222D01*
X442157538Y-282786109D01*
X442316651Y-282655528D01*
X442498182Y-282558497D01*
X442695155Y-282498746D01*
X442900000Y-282478571D01*
X443104845Y-282498746D01*
G37*
%TO.C,LED13*%
G36*
X436825000Y-282453571D02*
G01*
X436212868Y-282453571D01*
X436212868Y-281403571D01*
X436825000Y-281403571D01*
X436825000Y-282453571D01*
G37*
G36*
X435387132Y-282453571D02*
G01*
X434775000Y-282453571D01*
X434775000Y-281403571D01*
X435387132Y-281403571D01*
X435387132Y-282453571D01*
G37*
%TO.C,B1*%
G36*
X409764286Y-268792857D02*
G01*
X406664286Y-268792857D01*
X406664286Y-264492857D01*
X409764286Y-264492857D01*
X409764286Y-268792857D01*
G37*
G36*
X438764286Y-268792857D02*
G01*
X435664286Y-268792857D01*
X435664286Y-264492857D01*
X438764286Y-264492857D01*
X438764286Y-268792857D01*
G37*
%TO.C,LED5*%
G36*
X423525000Y-293653571D02*
G01*
X422912868Y-293653571D01*
X422912868Y-292603571D01*
X423525000Y-292603571D01*
X423525000Y-293653571D01*
G37*
G36*
X422087132Y-293653571D02*
G01*
X421475000Y-293653571D01*
X421475000Y-292603571D01*
X422087132Y-292603571D01*
X422087132Y-293653571D01*
G37*
%TO.C,U10*%
G36*
X441204845Y-284098746D02*
G01*
X441401818Y-284158497D01*
X441583349Y-284255528D01*
X441742462Y-284386109D01*
X441873043Y-284545222D01*
X441970074Y-284726753D01*
X442029825Y-284923726D01*
X442050000Y-285128571D01*
X442029825Y-285333416D01*
X441970074Y-285530389D01*
X441873043Y-285711920D01*
X441742462Y-285871033D01*
X441583349Y-286001614D01*
X441401818Y-286098645D01*
X441204845Y-286158396D01*
X441000000Y-286178571D01*
X440795155Y-286158396D01*
X440598182Y-286098645D01*
X440416651Y-286001614D01*
X440257538Y-285871033D01*
X440126957Y-285711920D01*
X440029926Y-285530389D01*
X439970175Y-285333416D01*
X439950000Y-285128571D01*
X439970175Y-284923726D01*
X440029926Y-284726753D01*
X440126957Y-284545222D01*
X440257538Y-284386109D01*
X440416651Y-284255528D01*
X440598182Y-284158497D01*
X440795155Y-284098746D01*
X441000000Y-284078571D01*
X441204845Y-284098746D01*
G37*
%TO.C,U19*%
G36*
X403310917Y-258635547D02*
G01*
X403657964Y-258740823D01*
X403977805Y-258911781D01*
X404258148Y-259141852D01*
X404488219Y-259422195D01*
X404659177Y-259742036D01*
X404764453Y-260089083D01*
X404800000Y-260450000D01*
X404764453Y-260810917D01*
X404659177Y-261157964D01*
X404488219Y-261477805D01*
X404258148Y-261758148D01*
X403977805Y-261988219D01*
X403657964Y-262159177D01*
X403310917Y-262264453D01*
X402950000Y-262300000D01*
X402589083Y-262264453D01*
X402242036Y-262159177D01*
X401922195Y-261988219D01*
X401641852Y-261758148D01*
X401411781Y-261477805D01*
X401240823Y-261157964D01*
X401135547Y-260810917D01*
X401100000Y-260450000D01*
X401135547Y-260089083D01*
X401240823Y-259742036D01*
X401411781Y-259422195D01*
X401641852Y-259141852D01*
X401922195Y-258911781D01*
X402242036Y-258740823D01*
X402589083Y-258635547D01*
X402950000Y-258600000D01*
X403310917Y-258635547D01*
G37*
%TO.C,LED11*%
G36*
X442525000Y-277653571D02*
G01*
X441912868Y-277653571D01*
X441912868Y-276603571D01*
X442525000Y-276603571D01*
X442525000Y-277653571D01*
G37*
G36*
X441087132Y-277653571D02*
G01*
X440475000Y-277653571D01*
X440475000Y-276603571D01*
X441087132Y-276603571D01*
X441087132Y-277653571D01*
G37*
%TO.C,LED15*%
G36*
X440625000Y-279253571D02*
G01*
X440012868Y-279253571D01*
X440012868Y-278203571D01*
X440625000Y-278203571D01*
X440625000Y-279253571D01*
G37*
G36*
X439187132Y-279253571D02*
G01*
X438575000Y-279253571D01*
X438575000Y-278203571D01*
X439187132Y-278203571D01*
X439187132Y-279253571D01*
G37*
%TO.C,LED4*%
G36*
X421625000Y-295253571D02*
G01*
X421012868Y-295253571D01*
X421012868Y-294203571D01*
X421625000Y-294203571D01*
X421625000Y-295253571D01*
G37*
G36*
X420187132Y-295253571D02*
G01*
X419575000Y-295253571D01*
X419575000Y-294203571D01*
X420187132Y-294203571D01*
X420187132Y-295253571D01*
G37*
%TO.C,U16*%
G36*
X452604845Y-274498746D02*
G01*
X452801818Y-274558497D01*
X452983349Y-274655528D01*
X453142462Y-274786109D01*
X453273043Y-274945222D01*
X453370074Y-275126753D01*
X453429825Y-275323726D01*
X453450000Y-275528571D01*
X453429825Y-275733416D01*
X453370074Y-275930389D01*
X453273043Y-276111920D01*
X453142462Y-276271033D01*
X452983349Y-276401614D01*
X452801818Y-276498645D01*
X452604845Y-276558396D01*
X452400000Y-276578571D01*
X452195155Y-276558396D01*
X451998182Y-276498645D01*
X451816651Y-276401614D01*
X451657538Y-276271033D01*
X451526957Y-276111920D01*
X451429926Y-275930389D01*
X451370175Y-275733416D01*
X451350000Y-275528571D01*
X451370175Y-275323726D01*
X451429926Y-275126753D01*
X451526957Y-274945222D01*
X451657538Y-274786109D01*
X451816651Y-274655528D01*
X451998182Y-274558497D01*
X452195155Y-274498746D01*
X452400000Y-274478571D01*
X452604845Y-274498746D01*
G37*
%TO.C,LED2*%
G36*
X417825000Y-298453571D02*
G01*
X417212868Y-298453571D01*
X417212868Y-297403571D01*
X417825000Y-297403571D01*
X417825000Y-298453571D01*
G37*
G36*
X416387132Y-298453571D02*
G01*
X415775000Y-298453571D01*
X415775000Y-297403571D01*
X416387132Y-297403571D01*
X416387132Y-298453571D01*
G37*
%TO.C,U11*%
G36*
X450704845Y-276098746D02*
G01*
X450901818Y-276158497D01*
X451083349Y-276255528D01*
X451242462Y-276386109D01*
X451373043Y-276545222D01*
X451470074Y-276726753D01*
X451529825Y-276923726D01*
X451550000Y-277128571D01*
X451529825Y-277333416D01*
X451470074Y-277530389D01*
X451373043Y-277711920D01*
X451242462Y-277871033D01*
X451083349Y-278001614D01*
X450901818Y-278098645D01*
X450704845Y-278158396D01*
X450500000Y-278178571D01*
X450295155Y-278158396D01*
X450098182Y-278098645D01*
X449916651Y-278001614D01*
X449757538Y-277871033D01*
X449626957Y-277711920D01*
X449529926Y-277530389D01*
X449470175Y-277333416D01*
X449450000Y-277128571D01*
X449470175Y-276923726D01*
X449529926Y-276726753D01*
X449626957Y-276545222D01*
X449757538Y-276386109D01*
X449916651Y-276255528D01*
X450098182Y-276158497D01*
X450295155Y-276098746D01*
X450500000Y-276078571D01*
X450704845Y-276098746D01*
G37*
%TO.C,LED12*%
G36*
X434925000Y-284053571D02*
G01*
X434312868Y-284053571D01*
X434312868Y-283003571D01*
X434925000Y-283003571D01*
X434925000Y-284053571D01*
G37*
G36*
X433487132Y-284053571D02*
G01*
X432875000Y-284053571D01*
X432875000Y-283003571D01*
X433487132Y-283003571D01*
X433487132Y-284053571D01*
G37*
%TO.C,LED18*%
G36*
X448225000Y-272853571D02*
G01*
X447612868Y-272853571D01*
X447612868Y-271803571D01*
X448225000Y-271803571D01*
X448225000Y-272853571D01*
G37*
G36*
X446787132Y-272853571D02*
G01*
X446175000Y-272853571D01*
X446175000Y-271803571D01*
X446787132Y-271803571D01*
X446787132Y-272853571D01*
G37*
%TO.C,LED9*%
G36*
X431125000Y-287253571D02*
G01*
X430512868Y-287253571D01*
X430512868Y-286203571D01*
X431125000Y-286203571D01*
X431125000Y-287253571D01*
G37*
G36*
X429687132Y-287253571D02*
G01*
X429075000Y-287253571D01*
X429075000Y-286203571D01*
X429687132Y-286203571D01*
X429687132Y-287253571D01*
G37*
%TO.C,LED1*%
G36*
X415925000Y-300053571D02*
G01*
X415312868Y-300053571D01*
X415312868Y-299003571D01*
X415925000Y-299003571D01*
X415925000Y-300053571D01*
G37*
G36*
X414487132Y-300053571D02*
G01*
X413875000Y-300053571D01*
X413875000Y-299003571D01*
X414487132Y-299003571D01*
X414487132Y-300053571D01*
G37*
%TO.C,U5*%
G36*
X431704845Y-292098746D02*
G01*
X431901818Y-292158497D01*
X432083349Y-292255528D01*
X432242462Y-292386109D01*
X432373043Y-292545222D01*
X432470074Y-292726753D01*
X432529825Y-292923726D01*
X432550000Y-293128571D01*
X432529825Y-293333416D01*
X432470074Y-293530389D01*
X432373043Y-293711920D01*
X432242462Y-293871033D01*
X432083349Y-294001614D01*
X431901818Y-294098645D01*
X431704845Y-294158396D01*
X431500000Y-294178571D01*
X431295155Y-294158396D01*
X431098182Y-294098645D01*
X430916651Y-294001614D01*
X430757538Y-293871033D01*
X430626957Y-293711920D01*
X430529926Y-293530389D01*
X430470175Y-293333416D01*
X430450000Y-293128571D01*
X430470175Y-292923726D01*
X430529926Y-292726753D01*
X430626957Y-292545222D01*
X430757538Y-292386109D01*
X430916651Y-292255528D01*
X431098182Y-292158497D01*
X431295155Y-292098746D01*
X431500000Y-292078571D01*
X431704845Y-292098746D01*
G37*
%TO.C,U15*%
G36*
X448804845Y-277698746D02*
G01*
X449001818Y-277758497D01*
X449183349Y-277855528D01*
X449342462Y-277986109D01*
X449473043Y-278145222D01*
X449570074Y-278326753D01*
X449629825Y-278523726D01*
X449650000Y-278728571D01*
X449629825Y-278933416D01*
X449570074Y-279130389D01*
X449473043Y-279311920D01*
X449342462Y-279471033D01*
X449183349Y-279601614D01*
X449001818Y-279698645D01*
X448804845Y-279758396D01*
X448600000Y-279778571D01*
X448395155Y-279758396D01*
X448198182Y-279698645D01*
X448016651Y-279601614D01*
X447857538Y-279471033D01*
X447726957Y-279311920D01*
X447629926Y-279130389D01*
X447570175Y-278933416D01*
X447550000Y-278728571D01*
X447570175Y-278523726D01*
X447629926Y-278326753D01*
X447726957Y-278145222D01*
X447857538Y-277986109D01*
X448016651Y-277855528D01*
X448198182Y-277758497D01*
X448395155Y-277698746D01*
X448600000Y-277678571D01*
X448804845Y-277698746D01*
G37*
%TO.C,U18*%
G36*
X456404845Y-271298746D02*
G01*
X456601818Y-271358497D01*
X456783349Y-271455528D01*
X456942462Y-271586109D01*
X457073043Y-271745222D01*
X457170074Y-271926753D01*
X457229825Y-272123726D01*
X457250000Y-272328571D01*
X457229825Y-272533416D01*
X457170074Y-272730389D01*
X457073043Y-272911920D01*
X456942462Y-273071033D01*
X456783349Y-273201614D01*
X456601818Y-273298645D01*
X456404845Y-273358396D01*
X456200000Y-273378571D01*
X455995155Y-273358396D01*
X455798182Y-273298645D01*
X455616651Y-273201614D01*
X455457538Y-273071033D01*
X455326957Y-272911920D01*
X455229926Y-272730389D01*
X455170175Y-272533416D01*
X455150000Y-272328571D01*
X455170175Y-272123726D01*
X455229926Y-271926753D01*
X455326957Y-271745222D01*
X455457538Y-271586109D01*
X455616651Y-271455528D01*
X455798182Y-271358497D01*
X455995155Y-271298746D01*
X456200000Y-271278571D01*
X456404845Y-271298746D01*
G37*
%TO.C,U1*%
G36*
X424104845Y-298498746D02*
G01*
X424301818Y-298558497D01*
X424483349Y-298655528D01*
X424642462Y-298786109D01*
X424773043Y-298945222D01*
X424870074Y-299126753D01*
X424929825Y-299323726D01*
X424950000Y-299528571D01*
X424929825Y-299733416D01*
X424870074Y-299930389D01*
X424773043Y-300111920D01*
X424642462Y-300271033D01*
X424483349Y-300401614D01*
X424301818Y-300498645D01*
X424104845Y-300558396D01*
X423900000Y-300578571D01*
X423695155Y-300558396D01*
X423498182Y-300498645D01*
X423316651Y-300401614D01*
X423157538Y-300271033D01*
X423026957Y-300111920D01*
X422929926Y-299930389D01*
X422870175Y-299733416D01*
X422850000Y-299528571D01*
X422870175Y-299323726D01*
X422929926Y-299126753D01*
X423026957Y-298945222D01*
X423157538Y-298786109D01*
X423316651Y-298655528D01*
X423498182Y-298558497D01*
X423695155Y-298498746D01*
X423900000Y-298478571D01*
X424104845Y-298498746D01*
G37*
%TO.C,U7*%
G36*
X435504845Y-288898746D02*
G01*
X435701818Y-288958497D01*
X435883349Y-289055528D01*
X436042462Y-289186109D01*
X436173043Y-289345222D01*
X436270074Y-289526753D01*
X436329825Y-289723726D01*
X436350000Y-289928571D01*
X436329825Y-290133416D01*
X436270074Y-290330389D01*
X436173043Y-290511920D01*
X436042462Y-290671033D01*
X435883349Y-290801614D01*
X435701818Y-290898645D01*
X435504845Y-290958396D01*
X435300000Y-290978571D01*
X435095155Y-290958396D01*
X434898182Y-290898645D01*
X434716651Y-290801614D01*
X434557538Y-290671033D01*
X434426957Y-290511920D01*
X434329926Y-290330389D01*
X434270175Y-290133416D01*
X434250000Y-289928571D01*
X434270175Y-289723726D01*
X434329926Y-289526753D01*
X434426957Y-289345222D01*
X434557538Y-289186109D01*
X434716651Y-289055528D01*
X434898182Y-288958497D01*
X435095155Y-288898746D01*
X435300000Y-288878571D01*
X435504845Y-288898746D01*
G37*
%TO.C,LED8*%
G36*
X429225000Y-288853571D02*
G01*
X428612868Y-288853571D01*
X428612868Y-287803571D01*
X429225000Y-287803571D01*
X429225000Y-288853571D01*
G37*
G36*
X427787132Y-288853571D02*
G01*
X427175000Y-288853571D01*
X427175000Y-287803571D01*
X427787132Y-287803571D01*
X427787132Y-288853571D01*
G37*
%TO.C,LED14*%
G36*
X438725000Y-280853571D02*
G01*
X438112868Y-280853571D01*
X438112868Y-279803571D01*
X438725000Y-279803571D01*
X438725000Y-280853571D01*
G37*
G36*
X437287132Y-280853571D02*
G01*
X436675000Y-280853571D01*
X436675000Y-279803571D01*
X437287132Y-279803571D01*
X437287132Y-280853571D01*
G37*
%TO.C,U9*%
G36*
X439304845Y-285698746D02*
G01*
X439501818Y-285758497D01*
X439683349Y-285855528D01*
X439842462Y-285986109D01*
X439973043Y-286145222D01*
X440070074Y-286326753D01*
X440129825Y-286523726D01*
X440150000Y-286728571D01*
X440129825Y-286933416D01*
X440070074Y-287130389D01*
X439973043Y-287311920D01*
X439842462Y-287471033D01*
X439683349Y-287601614D01*
X439501818Y-287698645D01*
X439304845Y-287758396D01*
X439100000Y-287778571D01*
X438895155Y-287758396D01*
X438698182Y-287698645D01*
X438516651Y-287601614D01*
X438357538Y-287471033D01*
X438226957Y-287311920D01*
X438129926Y-287130389D01*
X438070175Y-286933416D01*
X438050000Y-286728571D01*
X438070175Y-286523726D01*
X438129926Y-286326753D01*
X438226957Y-286145222D01*
X438357538Y-285986109D01*
X438516651Y-285855528D01*
X438698182Y-285758497D01*
X438895155Y-285698746D01*
X439100000Y-285678571D01*
X439304845Y-285698746D01*
G37*
%TO.C,U3*%
G36*
X427904845Y-295298746D02*
G01*
X428101818Y-295358497D01*
X428283349Y-295455528D01*
X428442462Y-295586109D01*
X428573043Y-295745222D01*
X428670074Y-295926753D01*
X428729825Y-296123726D01*
X428750000Y-296328571D01*
X428729825Y-296533416D01*
X428670074Y-296730389D01*
X428573043Y-296911920D01*
X428442462Y-297071033D01*
X428283349Y-297201614D01*
X428101818Y-297298645D01*
X427904845Y-297358396D01*
X427700000Y-297378571D01*
X427495155Y-297358396D01*
X427298182Y-297298645D01*
X427116651Y-297201614D01*
X426957538Y-297071033D01*
X426826957Y-296911920D01*
X426729926Y-296730389D01*
X426670175Y-296533416D01*
X426650000Y-296328571D01*
X426670175Y-296123726D01*
X426729926Y-295926753D01*
X426826957Y-295745222D01*
X426957538Y-295586109D01*
X427116651Y-295455528D01*
X427298182Y-295358497D01*
X427495155Y-295298746D01*
X427700000Y-295278571D01*
X427904845Y-295298746D01*
G37*
%TO.C,LED6*%
G36*
X425425000Y-292053571D02*
G01*
X424812868Y-292053571D01*
X424812868Y-291003571D01*
X425425000Y-291003571D01*
X425425000Y-292053571D01*
G37*
G36*
X423987132Y-292053571D02*
G01*
X423375000Y-292053571D01*
X423375000Y-291003571D01*
X423987132Y-291003571D01*
X423987132Y-292053571D01*
G37*
%TO.C,U4*%
G36*
X429804845Y-293698746D02*
G01*
X430001818Y-293758497D01*
X430183349Y-293855528D01*
X430342462Y-293986109D01*
X430473043Y-294145222D01*
X430570074Y-294326753D01*
X430629825Y-294523726D01*
X430650000Y-294728571D01*
X430629825Y-294933416D01*
X430570074Y-295130389D01*
X430473043Y-295311920D01*
X430342462Y-295471033D01*
X430183349Y-295601614D01*
X430001818Y-295698645D01*
X429804845Y-295758396D01*
X429600000Y-295778571D01*
X429395155Y-295758396D01*
X429198182Y-295698645D01*
X429016651Y-295601614D01*
X428857538Y-295471033D01*
X428726957Y-295311920D01*
X428629926Y-295130389D01*
X428570175Y-294933416D01*
X428550000Y-294728571D01*
X428570175Y-294523726D01*
X428629926Y-294326753D01*
X428726957Y-294145222D01*
X428857538Y-293986109D01*
X429016651Y-293855528D01*
X429198182Y-293758497D01*
X429395155Y-293698746D01*
X429600000Y-293678571D01*
X429804845Y-293698746D01*
G37*
%TO.C,U2*%
G36*
X426004845Y-296898746D02*
G01*
X426201818Y-296958497D01*
X426383349Y-297055528D01*
X426542462Y-297186109D01*
X426673043Y-297345222D01*
X426770074Y-297526753D01*
X426829825Y-297723726D01*
X426850000Y-297928571D01*
X426829825Y-298133416D01*
X426770074Y-298330389D01*
X426673043Y-298511920D01*
X426542462Y-298671033D01*
X426383349Y-298801614D01*
X426201818Y-298898645D01*
X426004845Y-298958396D01*
X425800000Y-298978571D01*
X425595155Y-298958396D01*
X425398182Y-298898645D01*
X425216651Y-298801614D01*
X425057538Y-298671033D01*
X424926957Y-298511920D01*
X424829926Y-298330389D01*
X424770175Y-298133416D01*
X424750000Y-297928571D01*
X424770175Y-297723726D01*
X424829926Y-297526753D01*
X424926957Y-297345222D01*
X425057538Y-297186109D01*
X425216651Y-297055528D01*
X425398182Y-296958497D01*
X425595155Y-296898746D01*
X425800000Y-296878571D01*
X426004845Y-296898746D01*
G37*
%TO.C,U6*%
G36*
X433604845Y-290498746D02*
G01*
X433801818Y-290558497D01*
X433983349Y-290655528D01*
X434142462Y-290786109D01*
X434273043Y-290945222D01*
X434370074Y-291126753D01*
X434429825Y-291323726D01*
X434450000Y-291528571D01*
X434429825Y-291733416D01*
X434370074Y-291930389D01*
X434273043Y-292111920D01*
X434142462Y-292271033D01*
X433983349Y-292401614D01*
X433801818Y-292498645D01*
X433604845Y-292558396D01*
X433400000Y-292578571D01*
X433195155Y-292558396D01*
X432998182Y-292498645D01*
X432816651Y-292401614D01*
X432657538Y-292271033D01*
X432526957Y-292111920D01*
X432429926Y-291930389D01*
X432370175Y-291733416D01*
X432350000Y-291528571D01*
X432370175Y-291323726D01*
X432429926Y-291126753D01*
X432526957Y-290945222D01*
X432657538Y-290786109D01*
X432816651Y-290655528D01*
X432998182Y-290558497D01*
X433195155Y-290498746D01*
X433400000Y-290478571D01*
X433604845Y-290498746D01*
G37*
%TO.C,LED3*%
G36*
X419725000Y-296853571D02*
G01*
X419112868Y-296853571D01*
X419112868Y-295803571D01*
X419725000Y-295803571D01*
X419725000Y-296853571D01*
G37*
G36*
X418287132Y-296853571D02*
G01*
X417675000Y-296853571D01*
X417675000Y-295803571D01*
X418287132Y-295803571D01*
X418287132Y-296853571D01*
G37*
%TO.C,LED17*%
G36*
X446325000Y-274453571D02*
G01*
X445712868Y-274453571D01*
X445712868Y-273403571D01*
X446325000Y-273403571D01*
X446325000Y-274453571D01*
G37*
G36*
X444887132Y-274453571D02*
G01*
X444275000Y-274453571D01*
X444275000Y-273403571D01*
X444887132Y-273403571D01*
X444887132Y-274453571D01*
G37*
%TO.C,LED7*%
G36*
X427325000Y-290453571D02*
G01*
X426712868Y-290453571D01*
X426712868Y-289403571D01*
X427325000Y-289403571D01*
X427325000Y-290453571D01*
G37*
G36*
X425887132Y-290453571D02*
G01*
X425275000Y-290453571D01*
X425275000Y-289403571D01*
X425887132Y-289403571D01*
X425887132Y-290453571D01*
G37*
%TO.C,U8*%
G36*
X437404845Y-287298746D02*
G01*
X437601818Y-287358497D01*
X437783349Y-287455528D01*
X437942462Y-287586109D01*
X438073043Y-287745222D01*
X438170074Y-287926753D01*
X438229825Y-288123726D01*
X438250000Y-288328571D01*
X438229825Y-288533416D01*
X438170074Y-288730389D01*
X438073043Y-288911920D01*
X437942462Y-289071033D01*
X437783349Y-289201614D01*
X437601818Y-289298645D01*
X437404845Y-289358396D01*
X437200000Y-289378571D01*
X436995155Y-289358396D01*
X436798182Y-289298645D01*
X436616651Y-289201614D01*
X436457538Y-289071033D01*
X436326957Y-288911920D01*
X436229926Y-288730389D01*
X436170175Y-288533416D01*
X436150000Y-288328571D01*
X436170175Y-288123726D01*
X436229926Y-287926753D01*
X436326957Y-287745222D01*
X436457538Y-287586109D01*
X436616651Y-287455528D01*
X436798182Y-287358497D01*
X436995155Y-287298746D01*
X437200000Y-287278571D01*
X437404845Y-287298746D01*
G37*
%TO.C,LED10*%
G36*
X433025000Y-285653571D02*
G01*
X432412868Y-285653571D01*
X432412868Y-284603571D01*
X433025000Y-284603571D01*
X433025000Y-285653571D01*
G37*
G36*
X431587132Y-285653571D02*
G01*
X430975000Y-285653571D01*
X430975000Y-284603571D01*
X431587132Y-284603571D01*
X431587132Y-285653571D01*
G37*
%TO.C,U22*%
G36*
X461410917Y-296735547D02*
G01*
X461757964Y-296840823D01*
X462077805Y-297011781D01*
X462358148Y-297241852D01*
X462588219Y-297522195D01*
X462759177Y-297842036D01*
X462864453Y-298189083D01*
X462900000Y-298550000D01*
X462864453Y-298910917D01*
X462759177Y-299257964D01*
X462588219Y-299577805D01*
X462358148Y-299858148D01*
X462077805Y-300088219D01*
X461757964Y-300259177D01*
X461410917Y-300364453D01*
X461050000Y-300400000D01*
X460689083Y-300364453D01*
X460342036Y-300259177D01*
X460022195Y-300088219D01*
X459741852Y-299858148D01*
X459511781Y-299577805D01*
X459340823Y-299257964D01*
X459235547Y-298910917D01*
X459200000Y-298550000D01*
X459235547Y-298189083D01*
X459340823Y-297842036D01*
X459511781Y-297522195D01*
X459741852Y-297241852D01*
X460022195Y-297011781D01*
X460342036Y-296840823D01*
X460689083Y-296735547D01*
X461050000Y-296700000D01*
X461410917Y-296735547D01*
G37*
%TD*%
D15*
%TO.C,R18*%
X450910000Y-272328571D03*
X449890000Y-272328571D03*
%TD*%
%TO.C,R17*%
X449010000Y-273928571D03*
X447990000Y-273928571D03*
%TD*%
%TO.C,R16*%
X447110000Y-275528571D03*
X446090000Y-275528571D03*
%TD*%
%TO.C,R15*%
X443310000Y-278728571D03*
X442290000Y-278728571D03*
%TD*%
%TO.C,R14*%
X441410000Y-280328571D03*
X440390000Y-280328571D03*
%TD*%
%TO.C,R13*%
X439510000Y-281928571D03*
X438490000Y-281928571D03*
%TD*%
%TO.C,R12*%
X437610000Y-283528571D03*
X436590000Y-283528571D03*
%TD*%
%TO.C,R11*%
X445210000Y-277128571D03*
X444190000Y-277128571D03*
%TD*%
%TO.C,R10*%
X435710000Y-285128571D03*
X434690000Y-285128571D03*
%TD*%
%TO.C,R9*%
X433810000Y-286728571D03*
X432790000Y-286728571D03*
%TD*%
%TO.C,R8*%
X431910000Y-288328571D03*
X430890000Y-288328571D03*
%TD*%
%TO.C,R7*%
X430010000Y-289928571D03*
X428990000Y-289928571D03*
%TD*%
%TO.C,R6*%
X428110000Y-291528571D03*
X427090000Y-291528571D03*
%TD*%
%TO.C,R5*%
X426210000Y-293128571D03*
X425190000Y-293128571D03*
%TD*%
%TO.C,R4*%
X424310000Y-294728571D03*
X423290000Y-294728571D03*
%TD*%
%TO.C,R3*%
X422410000Y-296328571D03*
X421390000Y-296328571D03*
%TD*%
%TO.C,R2*%
X420510000Y-297928571D03*
X419490000Y-297928571D03*
%TD*%
%TO.C,R1*%
X418610000Y-299528571D03*
X417590000Y-299528571D03*
%TD*%
D16*
%TO.C,U20*%
X461050000Y-260450000D03*
%TD*%
%TO.C,U21*%
X402950000Y-298550000D03*
%TD*%
%TO.C,U19*%
X402950000Y-260450000D03*
%TD*%
D17*
%TO.C,U24*%
X456730000Y-289500000D03*
X456730000Y-289000000D03*
X456730000Y-288500000D03*
X456730000Y-288000000D03*
X456730000Y-287500000D03*
X456730000Y-287000000D03*
X456730000Y-286000000D03*
X456730000Y-285500000D03*
X456730000Y-285000000D03*
X456730000Y-284500000D03*
X456730000Y-284000000D03*
X456730000Y-283500000D03*
D18*
X458030000Y-283400000D03*
D17*
X458030000Y-284250000D03*
X458030000Y-284750000D03*
X458030000Y-285250000D03*
X458030000Y-285750000D03*
X458030000Y-286250000D03*
X458030000Y-286750000D03*
X458030000Y-287250000D03*
X458030000Y-287750000D03*
X458030000Y-288250000D03*
X458030000Y-288750000D03*
D18*
X458030000Y-289600000D03*
D19*
X457139999Y-290819999D03*
X457139999Y-282179999D03*
D20*
X462499999Y-290819999D03*
D21*
X462499999Y-282179999D03*
%TD*%
D22*
%TO.C,U23*%
X407270000Y-283500000D03*
X407270000Y-284000000D03*
X407270000Y-284500000D03*
X407270000Y-285000000D03*
X407270000Y-285500000D03*
X407270000Y-286000000D03*
X407270000Y-287000000D03*
X407270000Y-287500000D03*
X407270000Y-288000000D03*
X407270000Y-288500000D03*
X407270000Y-289000000D03*
X407270000Y-289500000D03*
D23*
X405970000Y-289600000D03*
D22*
X405970000Y-288750000D03*
X405970000Y-288250000D03*
X405970000Y-287750000D03*
X405970000Y-287250000D03*
X405970000Y-286750000D03*
X405970000Y-286250000D03*
X405970000Y-285750000D03*
X405970000Y-285250000D03*
X405970000Y-284750000D03*
X405970000Y-284250000D03*
D23*
X405970000Y-283400000D03*
D19*
X406859999Y-282179999D03*
X406859999Y-290819999D03*
D20*
X401499999Y-282179999D03*
D21*
X401499999Y-290819999D03*
%TD*%
D16*
%TO.C,U22*%
X461050000Y-298550000D03*
%TD*%
M02*
