%TF.GenerationSoftware,KiCad,Pcbnew,7.0.0-da2b9df05c~171~ubuntu22.04.1*%
%TF.CreationDate,2023-03-09T10:18:31-08:00*%
%TF.ProjectId,CAD,4341442e-6b69-4636-9164-5f7063625858,rev?*%
%TF.SameCoordinates,Original*%
%TF.FileFunction,Copper,L2,Bot*%
%TF.FilePolarity,Positive*%
%FSLAX46Y46*%
G04 Gerber Fmt 4.6, Leading zero omitted, Abs format (unit mm)*
G04 Created by KiCad (PCBNEW 7.0.0-da2b9df05c~171~ubuntu22.04.1) date 2023-03-09 10:18:31*
%MOMM*%
%LPD*%
G01*
G04 APERTURE LIST*
%TA.AperFunction,ComponentPad*%
%ADD10O,2.200000X1.200000*%
%TD*%
%TA.AperFunction,ComponentPad*%
%ADD11O,2.700000X1.200000*%
%TD*%
%TA.AperFunction,ComponentPad*%
%ADD12O,2.600000X1.200000*%
%TD*%
%TA.AperFunction,ViaPad*%
%ADD13C,0.600000*%
%TD*%
%TA.AperFunction,Conductor*%
%ADD14C,0.127000*%
%TD*%
G04 APERTURE END LIST*
D10*
%TO.P,U24,S1,usb-c-pinout_shield*%
%TO.N,Net-(U24-usb-c-pinout_shield-PadS1)*%
X457139999Y-290819999D03*
%TO.P,U24,S2,usb-c-pinout_shield*%
X457139999Y-282179999D03*
D11*
%TO.P,U24,S3,usb-c-pinout_shield*%
X462499999Y-290819999D03*
D12*
%TO.P,U24,S4,usb-c-pinout_shield*%
X462499999Y-282179999D03*
%TD*%
D10*
%TO.P,U23,S1,usb-c-pinout_shield*%
%TO.N,/2: /POWER*%
X406859999Y-282179999D03*
%TO.P,U23,S2,usb-c-pinout_shield*%
X406859999Y-290819999D03*
D11*
%TO.P,U23,S3,usb-c-pinout_shield*%
X401499999Y-282179999D03*
D12*
%TO.P,U23,S4,usb-c-pinout_shield*%
X401499999Y-290819999D03*
%TD*%
D13*
%TO.N,Net-(B1-power_gnd)*%
X408686000Y-297180000D03*
X433070000Y-263144000D03*
X431546000Y-271018000D03*
X414274000Y-288290000D03*
X448818000Y-268478000D03*
X440690000Y-263144000D03*
X420116000Y-282448000D03*
X425958000Y-276606000D03*
%TO.N,/2: /GND-usb*%
X458978000Y-283210000D03*
X455930000Y-289560000D03*
%TO.N,Net-(U24-usb-c-pinout_shield-PadS1)*%
X459994000Y-280416000D03*
%TD*%
D14*
%TO.N,Net-(B1-power_gnd)*%
X433070000Y-263144000D02*
X440690000Y-263144000D01*
%TO.N,/2: /GND-usb*%
X455930000Y-286258000D02*
X455930000Y-289560000D01*
X458978000Y-283210000D02*
X455930000Y-286258000D01*
%TO.N,Net-(U24-usb-c-pinout_shield-PadS1)*%
X462016000Y-290820000D02*
X462500000Y-290820000D01*
X462500000Y-282180000D02*
X462500000Y-290820000D01*
X457140000Y-290820000D02*
X462500000Y-290820000D01*
X459994000Y-288798000D02*
X462016000Y-290820000D01*
X459994000Y-288798000D02*
X457972000Y-290820000D01*
X457972000Y-290820000D02*
X457140000Y-290820000D01*
X462500000Y-282180000D02*
X457140000Y-282180000D01*
X459994000Y-280416000D02*
X459994000Y-288798000D01*
%TD*%
%TA.AperFunction,Conductor*%
%TO.N,Net-(B1-power_gnd)*%
G36*
X464237500Y-257217113D02*
G01*
X464282887Y-257262500D01*
X464299500Y-257324500D01*
X464299500Y-281425107D01*
X464284048Y-281485051D01*
X464241544Y-281530056D01*
X464182579Y-281548905D01*
X464121851Y-281536900D01*
X464074493Y-281497034D01*
X464059265Y-281475650D01*
X464041559Y-281450785D01*
X463888346Y-281304697D01*
X463710254Y-281190244D01*
X463704774Y-281188050D01*
X463704768Y-281188047D01*
X463519203Y-281113758D01*
X463519196Y-281113756D01*
X463513721Y-281111564D01*
X463507926Y-281110447D01*
X463507919Y-281110445D01*
X463311646Y-281072617D01*
X463311643Y-281072616D01*
X463305849Y-281071500D01*
X461747197Y-281071500D01*
X461744268Y-281071779D01*
X461744261Y-281071780D01*
X461595141Y-281086019D01*
X461595135Y-281086020D01*
X461589261Y-281086581D01*
X461583593Y-281088245D01*
X461583589Y-281088246D01*
X461391812Y-281144556D01*
X461391802Y-281144559D01*
X461386138Y-281146223D01*
X461380880Y-281148933D01*
X461380879Y-281148934D01*
X461203224Y-281240522D01*
X461203220Y-281240524D01*
X461197974Y-281243229D01*
X461193340Y-281246872D01*
X461193334Y-281246877D01*
X461036208Y-281370442D01*
X461036201Y-281370448D01*
X461031568Y-281374092D01*
X461027704Y-281378550D01*
X461027701Y-281378554D01*
X460896804Y-281529615D01*
X460896796Y-281529626D01*
X460892935Y-281534082D01*
X460889984Y-281539192D01*
X460889977Y-281539203D01*
X460886055Y-281545998D01*
X460840668Y-281591387D01*
X460778667Y-281608000D01*
X460690000Y-281608000D01*
X460628000Y-281591387D01*
X460582613Y-281546000D01*
X460566000Y-281484000D01*
X460566000Y-281038754D01*
X460575439Y-280991301D01*
X460602319Y-280951073D01*
X460602318Y-280951073D01*
X460630111Y-280923281D01*
X460727043Y-280769015D01*
X460787217Y-280597047D01*
X460807616Y-280416000D01*
X460787217Y-280234953D01*
X460727043Y-280062985D01*
X460630111Y-279908719D01*
X460501281Y-279779889D01*
X460347015Y-279682957D01*
X460340449Y-279680659D01*
X460340446Y-279680658D01*
X460181621Y-279625083D01*
X460181618Y-279625082D01*
X460175047Y-279622783D01*
X460168130Y-279622003D01*
X460168123Y-279622002D01*
X460000923Y-279603164D01*
X459994000Y-279602384D01*
X459987077Y-279603164D01*
X459819876Y-279622002D01*
X459819867Y-279622003D01*
X459812953Y-279622783D01*
X459806383Y-279625081D01*
X459806378Y-279625083D01*
X459647553Y-279680658D01*
X459647547Y-279680660D01*
X459640985Y-279682957D01*
X459635097Y-279686656D01*
X459635092Y-279686659D01*
X459492619Y-279776181D01*
X459492614Y-279776184D01*
X459486719Y-279779889D01*
X459481794Y-279784813D01*
X459481790Y-279784817D01*
X459362817Y-279903790D01*
X459362813Y-279903794D01*
X459357889Y-279908719D01*
X459354184Y-279914614D01*
X459354181Y-279914619D01*
X459264659Y-280057092D01*
X459264656Y-280057097D01*
X459260957Y-280062985D01*
X459258660Y-280069547D01*
X459258658Y-280069553D01*
X459203083Y-280228378D01*
X459203081Y-280228383D01*
X459200783Y-280234953D01*
X459200003Y-280241867D01*
X459200002Y-280241876D01*
X459181164Y-280409077D01*
X459180384Y-280416000D01*
X459181164Y-280422923D01*
X459200002Y-280590123D01*
X459200003Y-280590130D01*
X459200783Y-280597047D01*
X459260957Y-280769015D01*
X459357889Y-280923281D01*
X459362817Y-280928209D01*
X459385681Y-280951073D01*
X459412561Y-280991301D01*
X459422000Y-281038754D01*
X459422000Y-281484000D01*
X459405387Y-281546000D01*
X459360000Y-281591387D01*
X459298000Y-281608000D01*
X458657438Y-281608000D01*
X458600618Y-281594216D01*
X458556430Y-281555927D01*
X458537693Y-281529615D01*
X458481559Y-281450785D01*
X458328346Y-281304697D01*
X458150254Y-281190244D01*
X458144774Y-281188050D01*
X458144768Y-281188047D01*
X457959203Y-281113758D01*
X457959196Y-281113756D01*
X457953721Y-281111564D01*
X457947926Y-281110447D01*
X457947919Y-281110445D01*
X457751646Y-281072617D01*
X457751643Y-281072616D01*
X457745849Y-281071500D01*
X456587197Y-281071500D01*
X456584268Y-281071779D01*
X456584261Y-281071780D01*
X456435141Y-281086019D01*
X456435135Y-281086020D01*
X456429261Y-281086581D01*
X456423593Y-281088245D01*
X456423589Y-281088246D01*
X456231812Y-281144556D01*
X456231802Y-281144559D01*
X456226138Y-281146223D01*
X456220880Y-281148933D01*
X456220879Y-281148934D01*
X456043224Y-281240522D01*
X456043220Y-281240524D01*
X456037974Y-281243229D01*
X456033340Y-281246872D01*
X456033334Y-281246877D01*
X455876208Y-281370442D01*
X455876201Y-281370448D01*
X455871568Y-281374092D01*
X455867704Y-281378550D01*
X455867701Y-281378554D01*
X455736801Y-281529620D01*
X455732935Y-281534082D01*
X455729984Y-281539192D01*
X455729982Y-281539196D01*
X455630042Y-281712298D01*
X455630038Y-281712306D01*
X455627087Y-281717418D01*
X455625155Y-281722998D01*
X455625154Y-281723002D01*
X455559780Y-281911886D01*
X455559778Y-281911892D01*
X455557847Y-281917473D01*
X455557006Y-281923316D01*
X455557005Y-281923324D01*
X455528558Y-282121176D01*
X455528557Y-282121182D01*
X455527719Y-282127016D01*
X455527999Y-282132900D01*
X455527999Y-282132907D01*
X455532486Y-282227092D01*
X455537792Y-282338474D01*
X455587702Y-282544204D01*
X455590155Y-282549575D01*
X455590157Y-282549581D01*
X455634967Y-282647701D01*
X455675644Y-282736771D01*
X455679073Y-282741586D01*
X455679074Y-282741588D01*
X455735483Y-282820803D01*
X455798441Y-282909215D01*
X455951654Y-283055303D01*
X456129746Y-283169756D01*
X456135229Y-283171951D01*
X456135231Y-283171952D01*
X456320796Y-283246241D01*
X456326279Y-283248436D01*
X456534151Y-283288500D01*
X457689849Y-283288500D01*
X457692803Y-283288500D01*
X457709511Y-283286904D01*
X457789183Y-283279297D01*
X457848696Y-283288287D01*
X457896964Y-283324241D01*
X457922617Y-283378688D01*
X457919610Y-283438801D01*
X457888652Y-283490416D01*
X455557789Y-285821279D01*
X455545599Y-285831970D01*
X455528491Y-285845098D01*
X455528488Y-285845100D01*
X455522045Y-285850045D01*
X455517104Y-285856483D01*
X455517100Y-285856488D01*
X455435306Y-285963084D01*
X455435303Y-285963087D01*
X455430359Y-285969532D01*
X455427250Y-285977036D01*
X455427248Y-285977041D01*
X455375834Y-286101167D01*
X455372723Y-286108678D01*
X455371662Y-286116731D01*
X455371661Y-286116738D01*
X455358000Y-286220507D01*
X455358000Y-286220508D01*
X455358000Y-286220514D01*
X455353065Y-286258000D01*
X455354126Y-286266059D01*
X455356939Y-286287427D01*
X455358000Y-286303612D01*
X455358000Y-288937246D01*
X455348561Y-288984699D01*
X455321681Y-289024927D01*
X455298817Y-289047790D01*
X455298813Y-289047794D01*
X455293889Y-289052719D01*
X455290184Y-289058614D01*
X455290181Y-289058619D01*
X455200659Y-289201092D01*
X455200656Y-289201097D01*
X455196957Y-289206985D01*
X455194660Y-289213547D01*
X455194658Y-289213553D01*
X455139083Y-289372378D01*
X455139081Y-289372383D01*
X455136783Y-289378953D01*
X455136003Y-289385867D01*
X455136002Y-289385876D01*
X455117164Y-289553077D01*
X455116384Y-289560000D01*
X455117164Y-289566923D01*
X455136002Y-289734123D01*
X455136003Y-289734130D01*
X455136783Y-289741047D01*
X455139082Y-289747618D01*
X455139083Y-289747621D01*
X455167225Y-289828047D01*
X455196957Y-289913015D01*
X455200658Y-289918905D01*
X455200659Y-289918907D01*
X455260468Y-290014092D01*
X455293889Y-290067281D01*
X455422719Y-290196111D01*
X455428619Y-290199818D01*
X455552999Y-290277972D01*
X455591946Y-290316875D01*
X455610216Y-290368803D01*
X455604207Y-290423522D01*
X455559781Y-290551882D01*
X455559778Y-290551892D01*
X455557847Y-290557473D01*
X455557006Y-290563316D01*
X455557005Y-290563324D01*
X455528558Y-290761176D01*
X455528557Y-290761182D01*
X455527719Y-290767016D01*
X455527999Y-290772900D01*
X455527999Y-290772907D01*
X455532486Y-290867092D01*
X455537792Y-290978474D01*
X455587702Y-291184204D01*
X455590155Y-291189575D01*
X455590157Y-291189581D01*
X455634967Y-291287701D01*
X455675644Y-291376771D01*
X455679073Y-291381586D01*
X455679074Y-291381588D01*
X455774040Y-291514949D01*
X455798441Y-291549215D01*
X455951654Y-291695303D01*
X456129746Y-291809756D01*
X456135229Y-291811951D01*
X456135231Y-291811952D01*
X456320796Y-291886241D01*
X456326279Y-291888436D01*
X456534151Y-291928500D01*
X457689849Y-291928500D01*
X457692803Y-291928500D01*
X457850739Y-291913419D01*
X458053862Y-291853777D01*
X458242026Y-291756771D01*
X458408432Y-291625908D01*
X458547065Y-291465918D01*
X458553944Y-291454002D01*
X458599332Y-291408613D01*
X458661333Y-291392000D01*
X460732562Y-291392000D01*
X460789382Y-291405784D01*
X460833569Y-291444072D01*
X460908441Y-291549215D01*
X461061654Y-291695303D01*
X461239746Y-291809756D01*
X461245229Y-291811951D01*
X461245231Y-291811952D01*
X461430796Y-291886241D01*
X461436279Y-291888436D01*
X461644151Y-291928500D01*
X463299849Y-291928500D01*
X463302803Y-291928500D01*
X463460739Y-291913419D01*
X463663862Y-291853777D01*
X463852026Y-291756771D01*
X464018432Y-291625908D01*
X464081786Y-291552793D01*
X464130512Y-291518445D01*
X464189635Y-291510804D01*
X464245491Y-291531638D01*
X464285170Y-291576129D01*
X464299500Y-291633996D01*
X464299500Y-301675500D01*
X464282887Y-301737500D01*
X464237500Y-301782887D01*
X464175500Y-301799500D01*
X399824500Y-301799500D01*
X399762500Y-301782887D01*
X399717113Y-301737500D01*
X399700500Y-301675500D01*
X399700500Y-298550000D01*
X401594341Y-298550000D01*
X401614937Y-298785408D01*
X401616336Y-298790630D01*
X401616337Y-298790634D01*
X401674694Y-299008430D01*
X401674697Y-299008438D01*
X401676097Y-299013663D01*
X401775965Y-299227829D01*
X401911505Y-299421401D01*
X402078599Y-299588495D01*
X402272171Y-299724035D01*
X402486337Y-299823903D01*
X402714592Y-299885063D01*
X402891034Y-299900500D01*
X403006258Y-299900500D01*
X403008966Y-299900500D01*
X403185408Y-299885063D01*
X403413663Y-299823903D01*
X403627829Y-299724035D01*
X403821401Y-299588495D01*
X403988495Y-299421401D01*
X404124035Y-299227830D01*
X404223903Y-299013663D01*
X404285063Y-298785408D01*
X404305659Y-298550000D01*
X459694341Y-298550000D01*
X459714937Y-298785408D01*
X459716336Y-298790630D01*
X459716337Y-298790634D01*
X459774694Y-299008430D01*
X459774697Y-299008438D01*
X459776097Y-299013663D01*
X459875965Y-299227829D01*
X460011505Y-299421401D01*
X460178599Y-299588495D01*
X460372171Y-299724035D01*
X460586337Y-299823903D01*
X460814592Y-299885063D01*
X460991034Y-299900500D01*
X461106258Y-299900500D01*
X461108966Y-299900500D01*
X461285408Y-299885063D01*
X461513663Y-299823903D01*
X461727829Y-299724035D01*
X461921401Y-299588495D01*
X462088495Y-299421401D01*
X462224035Y-299227830D01*
X462323903Y-299013663D01*
X462385063Y-298785408D01*
X462405659Y-298550000D01*
X462385063Y-298314592D01*
X462323903Y-298086337D01*
X462224035Y-297872171D01*
X462088495Y-297678599D01*
X461921401Y-297511505D01*
X461727829Y-297375965D01*
X461513663Y-297276097D01*
X461508438Y-297274697D01*
X461508430Y-297274694D01*
X461290634Y-297216337D01*
X461290630Y-297216336D01*
X461285408Y-297214937D01*
X461280020Y-297214465D01*
X461280017Y-297214465D01*
X461111664Y-297199736D01*
X461111662Y-297199735D01*
X461108966Y-297199500D01*
X460991034Y-297199500D01*
X460988338Y-297199735D01*
X460988335Y-297199736D01*
X460819982Y-297214465D01*
X460819977Y-297214465D01*
X460814592Y-297214937D01*
X460809371Y-297216335D01*
X460809365Y-297216337D01*
X460591569Y-297274694D01*
X460591557Y-297274698D01*
X460586337Y-297276097D01*
X460581432Y-297278383D01*
X460581427Y-297278386D01*
X460377081Y-297373675D01*
X460377077Y-297373677D01*
X460372171Y-297375965D01*
X460367738Y-297379068D01*
X460367731Y-297379073D01*
X460183034Y-297508399D01*
X460183029Y-297508402D01*
X460178599Y-297511505D01*
X460174775Y-297515328D01*
X460174769Y-297515334D01*
X460015336Y-297674767D01*
X460015330Y-297674773D01*
X460011505Y-297678599D01*
X460008406Y-297683023D01*
X460008399Y-297683033D01*
X459879066Y-297867740D01*
X459879061Y-297867747D01*
X459875965Y-297872170D01*
X459873683Y-297877061D01*
X459873678Y-297877072D01*
X459778386Y-298081427D01*
X459778383Y-298081432D01*
X459776097Y-298086337D01*
X459774698Y-298091557D01*
X459774694Y-298091569D01*
X459716337Y-298309365D01*
X459716335Y-298309371D01*
X459714937Y-298314592D01*
X459694341Y-298550000D01*
X404305659Y-298550000D01*
X404285063Y-298314592D01*
X404223903Y-298086337D01*
X404124035Y-297872171D01*
X403988495Y-297678599D01*
X403821401Y-297511505D01*
X403627829Y-297375965D01*
X403413663Y-297276097D01*
X403408438Y-297274697D01*
X403408430Y-297274694D01*
X403190634Y-297216337D01*
X403190630Y-297216336D01*
X403185408Y-297214937D01*
X403180020Y-297214465D01*
X403180017Y-297214465D01*
X403011664Y-297199736D01*
X403011662Y-297199735D01*
X403008966Y-297199500D01*
X402891034Y-297199500D01*
X402888338Y-297199735D01*
X402888335Y-297199736D01*
X402719982Y-297214465D01*
X402719977Y-297214465D01*
X402714592Y-297214937D01*
X402709371Y-297216335D01*
X402709365Y-297216337D01*
X402491569Y-297274694D01*
X402491557Y-297274698D01*
X402486337Y-297276097D01*
X402481432Y-297278383D01*
X402481427Y-297278386D01*
X402277081Y-297373675D01*
X402277077Y-297373677D01*
X402272171Y-297375965D01*
X402267738Y-297379068D01*
X402267731Y-297379073D01*
X402083034Y-297508399D01*
X402083029Y-297508402D01*
X402078599Y-297511505D01*
X402074775Y-297515328D01*
X402074769Y-297515334D01*
X401915336Y-297674767D01*
X401915330Y-297674773D01*
X401911505Y-297678599D01*
X401908406Y-297683023D01*
X401908399Y-297683033D01*
X401779066Y-297867740D01*
X401779061Y-297867747D01*
X401775965Y-297872170D01*
X401773683Y-297877061D01*
X401773678Y-297877072D01*
X401678386Y-298081427D01*
X401678383Y-298081432D01*
X401676097Y-298086337D01*
X401674698Y-298091557D01*
X401674694Y-298091569D01*
X401616337Y-298309365D01*
X401616335Y-298309371D01*
X401614937Y-298314592D01*
X401594341Y-298550000D01*
X399700500Y-298550000D01*
X399700500Y-291574893D01*
X399715952Y-291514949D01*
X399758456Y-291469944D01*
X399817421Y-291451095D01*
X399878149Y-291463100D01*
X399925507Y-291502966D01*
X399934040Y-291514949D01*
X399958441Y-291549215D01*
X400111654Y-291695303D01*
X400289746Y-291809756D01*
X400295229Y-291811951D01*
X400295231Y-291811952D01*
X400480796Y-291886241D01*
X400486279Y-291888436D01*
X400694151Y-291928500D01*
X402249849Y-291928500D01*
X402252803Y-291928500D01*
X402410739Y-291913419D01*
X402613862Y-291853777D01*
X402802026Y-291756771D01*
X402968432Y-291625908D01*
X403107065Y-291465918D01*
X403212913Y-291282582D01*
X403282153Y-291082527D01*
X403312281Y-290872984D01*
X403307233Y-290767016D01*
X405247719Y-290767016D01*
X405247999Y-290772900D01*
X405247999Y-290772907D01*
X405252486Y-290867092D01*
X405257792Y-290978474D01*
X405307702Y-291184204D01*
X405310155Y-291189575D01*
X405310157Y-291189581D01*
X405354967Y-291287701D01*
X405395644Y-291376771D01*
X405399073Y-291381586D01*
X405399074Y-291381588D01*
X405494040Y-291514949D01*
X405518441Y-291549215D01*
X405671654Y-291695303D01*
X405849746Y-291809756D01*
X405855229Y-291811951D01*
X405855231Y-291811952D01*
X406040796Y-291886241D01*
X406046279Y-291888436D01*
X406254151Y-291928500D01*
X407409849Y-291928500D01*
X407412803Y-291928500D01*
X407570739Y-291913419D01*
X407773862Y-291853777D01*
X407962026Y-291756771D01*
X408128432Y-291625908D01*
X408267065Y-291465918D01*
X408372913Y-291282582D01*
X408442153Y-291082527D01*
X408472281Y-290872984D01*
X408462208Y-290661526D01*
X408412298Y-290455796D01*
X408324356Y-290263229D01*
X408201559Y-290090785D01*
X408117298Y-290010442D01*
X408052619Y-289948771D01*
X408052617Y-289948769D01*
X408048346Y-289944697D01*
X407870254Y-289830244D01*
X407864774Y-289828050D01*
X407864768Y-289828047D01*
X407679203Y-289753758D01*
X407679196Y-289753756D01*
X407673721Y-289751564D01*
X407667926Y-289750447D01*
X407667919Y-289750445D01*
X407471646Y-289712617D01*
X407471643Y-289712616D01*
X407465849Y-289711500D01*
X406307197Y-289711500D01*
X406304268Y-289711779D01*
X406304261Y-289711780D01*
X406155141Y-289726019D01*
X406155135Y-289726020D01*
X406149261Y-289726581D01*
X406143593Y-289728245D01*
X406143589Y-289728246D01*
X405951812Y-289784556D01*
X405951802Y-289784559D01*
X405946138Y-289786223D01*
X405940880Y-289788933D01*
X405940879Y-289788934D01*
X405763224Y-289880522D01*
X405763220Y-289880524D01*
X405757974Y-289883229D01*
X405753340Y-289886872D01*
X405753334Y-289886877D01*
X405596208Y-290010442D01*
X405596201Y-290010448D01*
X405591568Y-290014092D01*
X405587704Y-290018550D01*
X405587701Y-290018554D01*
X405456801Y-290169620D01*
X405452935Y-290174082D01*
X405449984Y-290179192D01*
X405449982Y-290179196D01*
X405350042Y-290352298D01*
X405350038Y-290352306D01*
X405347087Y-290357418D01*
X405345155Y-290362998D01*
X405345154Y-290363002D01*
X405279780Y-290551886D01*
X405279778Y-290551892D01*
X405277847Y-290557473D01*
X405277006Y-290563316D01*
X405277005Y-290563324D01*
X405248558Y-290761176D01*
X405248557Y-290761182D01*
X405247719Y-290767016D01*
X403307233Y-290767016D01*
X403302208Y-290661526D01*
X403252298Y-290455796D01*
X403164356Y-290263229D01*
X403041559Y-290090785D01*
X402957298Y-290010442D01*
X402892619Y-289948771D01*
X402892617Y-289948769D01*
X402888346Y-289944697D01*
X402710254Y-289830244D01*
X402704774Y-289828050D01*
X402704768Y-289828047D01*
X402519203Y-289753758D01*
X402519196Y-289753756D01*
X402513721Y-289751564D01*
X402507926Y-289750447D01*
X402507919Y-289750445D01*
X402311646Y-289712617D01*
X402311643Y-289712616D01*
X402305849Y-289711500D01*
X400747197Y-289711500D01*
X400744268Y-289711779D01*
X400744261Y-289711780D01*
X400595141Y-289726019D01*
X400595135Y-289726020D01*
X400589261Y-289726581D01*
X400583593Y-289728245D01*
X400583589Y-289728246D01*
X400391812Y-289784556D01*
X400391802Y-289784559D01*
X400386138Y-289786223D01*
X400380880Y-289788933D01*
X400380879Y-289788934D01*
X400203224Y-289880522D01*
X400203220Y-289880524D01*
X400197974Y-289883229D01*
X400193340Y-289886872D01*
X400193334Y-289886877D01*
X400036208Y-290010442D01*
X400036201Y-290010448D01*
X400031568Y-290014092D01*
X400027704Y-290018550D01*
X400027701Y-290018554D01*
X399918213Y-290144910D01*
X399869488Y-290179258D01*
X399810365Y-290186899D01*
X399754509Y-290166065D01*
X399714830Y-290121574D01*
X399700500Y-290063707D01*
X399700500Y-283000511D01*
X399713748Y-282944743D01*
X399750663Y-282900891D01*
X399803355Y-282878327D01*
X399860566Y-282881872D01*
X399910069Y-282910767D01*
X400061654Y-283055303D01*
X400239746Y-283169756D01*
X400245229Y-283171951D01*
X400245231Y-283171952D01*
X400430796Y-283246241D01*
X400436279Y-283248436D01*
X400644151Y-283288500D01*
X402299849Y-283288500D01*
X402302803Y-283288500D01*
X402460739Y-283273419D01*
X402663862Y-283213777D01*
X402852026Y-283116771D01*
X403018432Y-282985908D01*
X403157065Y-282825918D01*
X403262913Y-282642582D01*
X403332153Y-282442527D01*
X403362281Y-282232984D01*
X403357233Y-282127016D01*
X405247719Y-282127016D01*
X405247999Y-282132900D01*
X405247999Y-282132907D01*
X405252486Y-282227092D01*
X405257792Y-282338474D01*
X405307702Y-282544204D01*
X405310155Y-282549575D01*
X405310157Y-282549581D01*
X405354967Y-282647701D01*
X405395644Y-282736771D01*
X405399073Y-282741586D01*
X405399074Y-282741588D01*
X405455483Y-282820803D01*
X405518441Y-282909215D01*
X405671654Y-283055303D01*
X405849746Y-283169756D01*
X405855229Y-283171951D01*
X405855231Y-283171952D01*
X406040796Y-283246241D01*
X406046279Y-283248436D01*
X406254151Y-283288500D01*
X407409849Y-283288500D01*
X407412803Y-283288500D01*
X407570739Y-283273419D01*
X407773862Y-283213777D01*
X407962026Y-283116771D01*
X408128432Y-282985908D01*
X408267065Y-282825918D01*
X408372913Y-282642582D01*
X408442153Y-282442527D01*
X408472281Y-282232984D01*
X408462208Y-282021526D01*
X408412298Y-281815796D01*
X408324356Y-281623229D01*
X408201559Y-281450785D01*
X408048346Y-281304697D01*
X407870254Y-281190244D01*
X407864774Y-281188050D01*
X407864768Y-281188047D01*
X407679203Y-281113758D01*
X407679196Y-281113756D01*
X407673721Y-281111564D01*
X407667926Y-281110447D01*
X407667919Y-281110445D01*
X407471646Y-281072617D01*
X407471643Y-281072616D01*
X407465849Y-281071500D01*
X406307197Y-281071500D01*
X406304268Y-281071779D01*
X406304261Y-281071780D01*
X406155141Y-281086019D01*
X406155135Y-281086020D01*
X406149261Y-281086581D01*
X406143593Y-281088245D01*
X406143589Y-281088246D01*
X405951812Y-281144556D01*
X405951802Y-281144559D01*
X405946138Y-281146223D01*
X405940880Y-281148933D01*
X405940879Y-281148934D01*
X405763224Y-281240522D01*
X405763220Y-281240524D01*
X405757974Y-281243229D01*
X405753340Y-281246872D01*
X405753334Y-281246877D01*
X405596208Y-281370442D01*
X405596201Y-281370448D01*
X405591568Y-281374092D01*
X405587704Y-281378550D01*
X405587701Y-281378554D01*
X405456801Y-281529620D01*
X405452935Y-281534082D01*
X405449984Y-281539192D01*
X405449982Y-281539196D01*
X405350042Y-281712298D01*
X405350038Y-281712306D01*
X405347087Y-281717418D01*
X405345155Y-281722998D01*
X405345154Y-281723002D01*
X405279780Y-281911886D01*
X405279778Y-281911892D01*
X405277847Y-281917473D01*
X405277006Y-281923316D01*
X405277005Y-281923324D01*
X405248558Y-282121176D01*
X405248557Y-282121182D01*
X405247719Y-282127016D01*
X403357233Y-282127016D01*
X403352208Y-282021526D01*
X403302298Y-281815796D01*
X403214356Y-281623229D01*
X403091559Y-281450785D01*
X402938346Y-281304697D01*
X402760254Y-281190244D01*
X402754774Y-281188050D01*
X402754768Y-281188047D01*
X402569203Y-281113758D01*
X402569196Y-281113756D01*
X402563721Y-281111564D01*
X402557926Y-281110447D01*
X402557919Y-281110445D01*
X402361646Y-281072617D01*
X402361643Y-281072616D01*
X402355849Y-281071500D01*
X400697197Y-281071500D01*
X400694268Y-281071779D01*
X400694261Y-281071780D01*
X400545141Y-281086019D01*
X400545135Y-281086020D01*
X400539261Y-281086581D01*
X400533593Y-281088245D01*
X400533589Y-281088246D01*
X400341812Y-281144556D01*
X400341802Y-281144559D01*
X400336138Y-281146223D01*
X400330880Y-281148933D01*
X400330879Y-281148934D01*
X400153224Y-281240522D01*
X400153220Y-281240524D01*
X400147974Y-281243229D01*
X400143340Y-281246872D01*
X400143334Y-281246877D01*
X399986208Y-281370442D01*
X399986201Y-281370448D01*
X399981568Y-281374092D01*
X399977704Y-281378550D01*
X399977701Y-281378554D01*
X399918213Y-281447207D01*
X399869488Y-281481555D01*
X399810365Y-281489196D01*
X399754509Y-281468362D01*
X399714830Y-281423871D01*
X399700500Y-281366004D01*
X399700500Y-260450000D01*
X401594341Y-260450000D01*
X401614937Y-260685408D01*
X401616336Y-260690630D01*
X401616337Y-260690634D01*
X401674694Y-260908430D01*
X401674697Y-260908438D01*
X401676097Y-260913663D01*
X401775965Y-261127829D01*
X401911505Y-261321401D01*
X402078599Y-261488495D01*
X402272171Y-261624035D01*
X402486337Y-261723903D01*
X402714592Y-261785063D01*
X402891034Y-261800500D01*
X403006258Y-261800500D01*
X403008966Y-261800500D01*
X403185408Y-261785063D01*
X403413663Y-261723903D01*
X403627829Y-261624035D01*
X403821401Y-261488495D01*
X403988495Y-261321401D01*
X404124035Y-261127830D01*
X404223903Y-260913663D01*
X404285063Y-260685408D01*
X404305659Y-260450000D01*
X459694341Y-260450000D01*
X459714937Y-260685408D01*
X459716336Y-260690630D01*
X459716337Y-260690634D01*
X459774694Y-260908430D01*
X459774697Y-260908438D01*
X459776097Y-260913663D01*
X459875965Y-261127829D01*
X460011505Y-261321401D01*
X460178599Y-261488495D01*
X460372171Y-261624035D01*
X460586337Y-261723903D01*
X460814592Y-261785063D01*
X460991034Y-261800500D01*
X461106258Y-261800500D01*
X461108966Y-261800500D01*
X461285408Y-261785063D01*
X461513663Y-261723903D01*
X461727829Y-261624035D01*
X461921401Y-261488495D01*
X462088495Y-261321401D01*
X462224035Y-261127830D01*
X462323903Y-260913663D01*
X462385063Y-260685408D01*
X462405659Y-260450000D01*
X462385063Y-260214592D01*
X462323903Y-259986337D01*
X462224035Y-259772171D01*
X462088495Y-259578599D01*
X461921401Y-259411505D01*
X461727829Y-259275965D01*
X461513663Y-259176097D01*
X461508438Y-259174697D01*
X461508430Y-259174694D01*
X461290634Y-259116337D01*
X461290630Y-259116336D01*
X461285408Y-259114937D01*
X461280020Y-259114465D01*
X461280017Y-259114465D01*
X461111664Y-259099736D01*
X461111662Y-259099735D01*
X461108966Y-259099500D01*
X460991034Y-259099500D01*
X460988338Y-259099735D01*
X460988335Y-259099736D01*
X460819982Y-259114465D01*
X460819977Y-259114465D01*
X460814592Y-259114937D01*
X460809371Y-259116335D01*
X460809365Y-259116337D01*
X460591569Y-259174694D01*
X460591557Y-259174698D01*
X460586337Y-259176097D01*
X460581432Y-259178383D01*
X460581427Y-259178386D01*
X460377081Y-259273675D01*
X460377077Y-259273677D01*
X460372171Y-259275965D01*
X460367738Y-259279068D01*
X460367731Y-259279073D01*
X460183034Y-259408399D01*
X460183029Y-259408402D01*
X460178599Y-259411505D01*
X460174775Y-259415328D01*
X460174769Y-259415334D01*
X460015336Y-259574767D01*
X460015330Y-259574773D01*
X460011505Y-259578599D01*
X460008406Y-259583023D01*
X460008399Y-259583033D01*
X459879066Y-259767740D01*
X459879061Y-259767747D01*
X459875965Y-259772170D01*
X459873683Y-259777061D01*
X459873678Y-259777072D01*
X459778386Y-259981427D01*
X459778383Y-259981432D01*
X459776097Y-259986337D01*
X459774698Y-259991557D01*
X459774694Y-259991569D01*
X459716337Y-260209365D01*
X459716335Y-260209371D01*
X459714937Y-260214592D01*
X459694341Y-260450000D01*
X404305659Y-260450000D01*
X404285063Y-260214592D01*
X404223903Y-259986337D01*
X404124035Y-259772171D01*
X403988495Y-259578599D01*
X403821401Y-259411505D01*
X403627829Y-259275965D01*
X403413663Y-259176097D01*
X403408438Y-259174697D01*
X403408430Y-259174694D01*
X403190634Y-259116337D01*
X403190630Y-259116336D01*
X403185408Y-259114937D01*
X403180020Y-259114465D01*
X403180017Y-259114465D01*
X403011664Y-259099736D01*
X403011662Y-259099735D01*
X403008966Y-259099500D01*
X402891034Y-259099500D01*
X402888338Y-259099735D01*
X402888335Y-259099736D01*
X402719982Y-259114465D01*
X402719977Y-259114465D01*
X402714592Y-259114937D01*
X402709371Y-259116335D01*
X402709365Y-259116337D01*
X402491569Y-259174694D01*
X402491557Y-259174698D01*
X402486337Y-259176097D01*
X402481432Y-259178383D01*
X402481427Y-259178386D01*
X402277081Y-259273675D01*
X402277077Y-259273677D01*
X402272171Y-259275965D01*
X402267738Y-259279068D01*
X402267731Y-259279073D01*
X402083034Y-259408399D01*
X402083029Y-259408402D01*
X402078599Y-259411505D01*
X402074775Y-259415328D01*
X402074769Y-259415334D01*
X401915336Y-259574767D01*
X401915330Y-259574773D01*
X401911505Y-259578599D01*
X401908406Y-259583023D01*
X401908399Y-259583033D01*
X401779066Y-259767740D01*
X401779061Y-259767747D01*
X401775965Y-259772170D01*
X401773683Y-259777061D01*
X401773678Y-259777072D01*
X401678386Y-259981427D01*
X401678383Y-259981432D01*
X401676097Y-259986337D01*
X401674698Y-259991557D01*
X401674694Y-259991569D01*
X401616337Y-260209365D01*
X401616335Y-260209371D01*
X401614937Y-260214592D01*
X401594341Y-260450000D01*
X399700500Y-260450000D01*
X399700500Y-257324500D01*
X399717113Y-257262500D01*
X399762500Y-257217113D01*
X399824500Y-257200500D01*
X464175500Y-257200500D01*
X464237500Y-257217113D01*
G37*
%TD.AperFunction*%
%TD*%
%TA.AperFunction,NonConductor*%
G36*
X460839382Y-282765784D02*
G01*
X460883569Y-282804072D01*
X460958441Y-282909215D01*
X461111654Y-283055303D01*
X461289746Y-283169756D01*
X461295229Y-283171951D01*
X461295231Y-283171952D01*
X461480796Y-283246241D01*
X461486279Y-283248436D01*
X461694151Y-283288500D01*
X461804000Y-283288500D01*
X461866000Y-283305113D01*
X461911387Y-283350500D01*
X461928000Y-283412500D01*
X461928000Y-289587500D01*
X461911387Y-289649500D01*
X461866000Y-289694887D01*
X461804000Y-289711500D01*
X461767792Y-289711500D01*
X461720339Y-289702061D01*
X461680111Y-289675181D01*
X460602319Y-288597389D01*
X460575439Y-288557161D01*
X460566000Y-288509708D01*
X460566000Y-282876000D01*
X460582613Y-282814000D01*
X460628000Y-282768613D01*
X460690000Y-282752000D01*
X460782562Y-282752000D01*
X460839382Y-282765784D01*
G37*
%TD.AperFunction*%
%TA.AperFunction,NonConductor*%
G36*
X459369755Y-283984839D02*
G01*
X459408167Y-284029054D01*
X459422000Y-284085968D01*
X459422000Y-288509708D01*
X459412561Y-288557161D01*
X459385681Y-288597389D01*
X458209925Y-289773143D01*
X458170151Y-289799834D01*
X458123228Y-289809458D01*
X458076158Y-289800580D01*
X457959203Y-289753758D01*
X457959196Y-289753756D01*
X457953721Y-289751564D01*
X457947926Y-289750447D01*
X457947919Y-289750445D01*
X457751646Y-289712617D01*
X457751643Y-289712616D01*
X457745849Y-289711500D01*
X457739946Y-289711500D01*
X456865302Y-289711500D01*
X456799330Y-289692494D01*
X456753582Y-289641302D01*
X456742082Y-289573618D01*
X456742836Y-289566925D01*
X456742836Y-289566923D01*
X456743616Y-289560000D01*
X456723217Y-289378953D01*
X456663043Y-289206985D01*
X456566111Y-289052719D01*
X456538319Y-289024927D01*
X456511439Y-288984699D01*
X456502000Y-288937246D01*
X456502000Y-286546292D01*
X456511439Y-286498839D01*
X456538319Y-286458611D01*
X457033846Y-285963084D01*
X458942039Y-284054889D01*
X458975916Y-284030853D01*
X459015833Y-284019353D01*
X459159047Y-284003217D01*
X459234653Y-283976761D01*
X459257046Y-283968926D01*
X459315334Y-283963186D01*
X459369755Y-283984839D01*
G37*
%TD.AperFunction*%
%TA.AperFunction,NonConductor*%
G36*
X464245491Y-282833935D02*
G01*
X464285170Y-282878426D01*
X464299500Y-282936293D01*
X464299500Y-289999489D01*
X464286252Y-290055257D01*
X464249337Y-290099109D01*
X464196645Y-290121673D01*
X464139434Y-290118128D01*
X464089930Y-290089232D01*
X464066908Y-290067281D01*
X463938346Y-289944697D01*
X463760254Y-289830244D01*
X463754774Y-289828050D01*
X463754768Y-289828047D01*
X463569203Y-289753758D01*
X463569196Y-289753756D01*
X463563721Y-289751564D01*
X463557926Y-289750447D01*
X463557919Y-289750445D01*
X463361646Y-289712617D01*
X463361643Y-289712616D01*
X463355849Y-289711500D01*
X463349946Y-289711500D01*
X463196000Y-289711500D01*
X463134000Y-289694887D01*
X463088613Y-289649500D01*
X463072000Y-289587500D01*
X463072000Y-283412500D01*
X463088613Y-283350500D01*
X463134000Y-283305113D01*
X463196000Y-283288500D01*
X463249849Y-283288500D01*
X463252803Y-283288500D01*
X463410739Y-283273419D01*
X463613862Y-283213777D01*
X463802026Y-283116771D01*
X463968432Y-282985908D01*
X464081787Y-282855089D01*
X464130512Y-282820742D01*
X464189635Y-282813101D01*
X464245491Y-282833935D01*
G37*
%TD.AperFunction*%
%TA.AperFunction,NonConductor*%
G36*
X460081681Y-289694611D02*
G01*
X460423389Y-290036319D01*
X460453639Y-290085682D01*
X460458181Y-290143398D01*
X460436026Y-290196885D01*
X460392003Y-290234485D01*
X460335708Y-290248000D01*
X459652292Y-290248000D01*
X459595997Y-290234485D01*
X459551974Y-290196885D01*
X459529819Y-290143398D01*
X459534361Y-290085682D01*
X459564611Y-290036319D01*
X459906319Y-289694611D01*
X459961906Y-289662517D01*
X460026094Y-289662517D01*
X460081681Y-289694611D01*
G37*
%TD.AperFunction*%
M02*
